<!DOCTYPE svg PUBLIC "-//W3C//DTD SVG 1.1//EN" "http://www.w3.org/Graphics/SVG/1.1/DTD/svg11.dtd">
<!-- Uploaded to: SVG Repo, www.svgrepo.com, Transformed by: SVG Repo Mixer Tools -->
<svg width="800px" height="800px" viewBox="0 0 16 16" xmlns="http://www.w3.org/2000/svg" fill="#ffffff" stroke="#ffffff">
<g id="SVGRepo_bgCarrier" stroke-width="0"/>
<g id="SVGRepo_tracerCarrier" stroke-linecap="round" stroke-linejoin="round"/>
<g id="SVGRepo_iconCarrier"> <path fill="#ffffff" fill-rule="evenodd" d="M1,2 C0.447715,2 0,2.44772 0,3 L0,11 C0,11.5523 0.447715,12 1,12 L7,12 L7,13 L3,13 C2.44772,13 2,13.4477 2,14 C2,14.5523 2.44772,15 3,15 L13,15 C13.5523,15 14,14.5523 14,14 C14,13.4477 13.5523,13 13,13 L9,13 L9,12 L15,12 C15.5523,12 16,11.5523 16,11 L16,3 C16,2.44772 15.5523,2 15,2 L1,2 Z M2,4 L2,10 L14,10 L14,4 L2,4 Z"/> </g>
</svg>