<!DOCTYPE svg PUBLIC "-//W3C//DTD SVG 1.1//EN" "http://www.w3.org/Graphics/SVG/1.1/DTD/svg11.dtd">
<!-- Uploaded to: SVG Repo, www.svgrepo.com, Transformed by: SVG Repo Mixer Tools -->
<svg fill="#ffffff" height="800px" width="800px" version="1.1" id="Layer_1" xmlns="http://www.w3.org/2000/svg" xmlns:xlink="http://www.w3.org/1999/xlink" viewBox="0 0 511.999 511.999" xml:space="preserve" stroke="#ffffff">
<g id="SVGRepo_bgCarrier" stroke-width="0"/>
<g id="SVGRepo_tracerCarrier" stroke-linecap="round" stroke-linejoin="round"/>
<g id="SVGRepo_iconCarrier"> <g> <g> <path d="M200.914,404.678h22.811c6.175,0,12.08-1.172,17.517-3.283c18.135-7.043,31.03-24.67,31.03-45.265v-11.101 c12.242-3.658,23.071-11.372,30.515-22.147l50.461-73.031c23.733-34.348,36.278-74.571,36.278-116.322 C389.528,59.9,329.628,0,255.999,0S122.473,59.9,122.473,133.527c0,41.751,12.545,81.975,36.278,116.322l50.461,73.031 c7.445,10.775,18.273,18.489,30.515,22.147v11.101c0,8.823-7.177,16.001-16,16.001h-22.811c-22.897,0-41.524,18.627-41.524,41.524 c0,22.897,18.627,41.524,41.524,41.524h107.011c6.692,0,12.137,5.445,12.137,12.137s-5.445,12.137-12.137,12.137h-85.27h-3.875 c-8.988,0-16.274,7.286-16.274,16.274c0,8.988,7.286,16.274,16.274,16.274h89.145c24.639,0,44.685-20.045,44.685-44.685 s-20.046-44.685-44.685-44.685H200.916c-4.951,0.001-8.978-4.025-8.978-8.975C191.938,408.704,195.965,404.678,200.914,404.678z M235.989,304.377l-50.461-73.031c-19.959-28.884-30.507-62.711-30.507-97.82c0-55.679,45.299-100.978,100.979-100.978 s100.979,45.298,100.979,100.979c0,35.11-10.55,68.936-30.507,97.82l-50.461,73.031c-4.609,6.67-11.903,10.496-20.01,10.496 C247.892,314.874,240.598,311.048,235.989,304.377z"/> </g> </g> <g> <g> <path d="M232.391,71.402c-5.715-6.936-15.972-7.927-22.907-2.211c-21.021,17.32-33.077,42.861-33.077,70.074 c0,8.988,7.286,16.274,16.274,16.274c8.988,0,16.274-7.286,16.274-16.274c0-17.455,7.737-33.839,21.225-44.955 C237.117,88.595,238.108,78.338,232.391,71.402z"/> </g> </g> </g>
</svg>