<!DOCTYPE svg PUBLIC "-//W3C//DTD SVG 1.1//EN" "http://www.w3.org/Graphics/SVG/1.1/DTD/svg11.dtd">
<!-- Uploaded to: SVG Repo, www.svgrepo.com, Transformed by: SVG Repo Mixer Tools -->
<svg fill="#ffffff" height="800px" width="800px" version="1.1" id="Layer_1" xmlns="http://www.w3.org/2000/svg" xmlns:xlink="http://www.w3.org/1999/xlink" viewBox="0 0 512 512" xml:space="preserve" stroke="#ffffff">
<g id="SVGRepo_bgCarrier" stroke-width="0"/>
<g id="SVGRepo_tracerCarrier" stroke-linecap="round" stroke-linejoin="round"/>
<g id="SVGRepo_iconCarrier"> <g> <g> <path d="M427.011,35.206C406.787,12.502,378.752,0,348.069,0c-34.223,0-63.909,16.193-85.85,46.827 c-2.266,3.165-4.336,6.329-6.218,9.431c-1.884-3.102-3.953-6.266-6.218-9.431C227.842,16.193,198.156,0,163.932,0 c-30.683,0-58.719,12.502-78.942,35.206C65.757,56.797,55.165,85.678,55.165,116.53c0,31.618,11.451,60.542,36.036,91.024 c22.106,27.407,53.534,54.615,89.328,84.79c17.216,14.514,37.496,23.287,58.425,26.374c-4.289,10.44-6.605,22.241-6.605,34.649 c0,31.916,12.203,46.414,22.008,58.065c8.222,9.768,14.162,16.826,14.162,36.559c0,14.477-4.788,27.611-12.807,35.13 c-6.727,6.307-7.069,16.875-0.761,23.602c3.287,3.507,7.73,5.278,12.185,5.278c4.093,0,8.195-1.496,11.417-4.516 c14.848-13.92,23.363-35.605,23.363-59.493c0-31.916-12.203-46.414-22.008-58.064c-8.222-9.768-14.162-16.827-14.162-36.559 c0-14.478,4.788-27.61,12.807-35.13c0.197-0.185,0.371-0.385,0.557-0.578c18.765-3.787,36.814-12.209,52.361-25.317 c35.794-30.175,67.222-57.384,89.328-84.79c24.585-30.481,36.036-59.404,36.036-91.024 C456.836,85.678,446.244,56.797,427.011,35.206z M309.947,266.811c-31.259,26.351-76.632,26.351-107.891,0 C131.439,207.279,88.563,167.458,88.563,116.53c0-47.394,32.402-83.133,75.37-83.133c23.052,0,42.622,10.813,58.164,32.138 c12.507,17.16,17.689,34.9,17.824,35.368c2.018,7.21,8.59,12.199,16.08,12.199c7.504,0,14.087-5.006,16.091-12.238 c0.187-0.675,19.359-67.467,75.977-67.467c42.969,0,75.371,35.74,75.371,83.133C423.44,167.458,380.562,207.279,309.947,266.811z"/> </g> </g> </g>
</svg>