<!DOCTYPE svg PUBLIC "-//W3C//DTD SVG 1.1//EN" "http://www.w3.org/Graphics/SVG/1.1/DTD/svg11.dtd">
<!-- Uploaded to: SVG Repo, www.svgrepo.com, Transformed by: SVG Repo Mixer Tools -->
<svg fill="#ffffff" height="800px" width="800px" version="1.1" id="Layer_1" xmlns="http://www.w3.org/2000/svg" xmlns:xlink="http://www.w3.org/1999/xlink" viewBox="0 0 512 512" xml:space="preserve" stroke="#ffffff">
<g id="SVGRepo_bgCarrier" stroke-width="0"/>
<g id="SVGRepo_tracerCarrier" stroke-linecap="round" stroke-linejoin="round"/>
<g id="SVGRepo_iconCarrier"> <g> <g> <path d="M382.964,277.135c-0.642,0-1.28,0.014-1.921,0.024c-0.302-1.185-0.61-2.374-0.929-3.567 c-18.522-69.194-57.981-118.898-114.31-144.136v-13.152c4.258,3.03,9.178,5.65,14.877,7.526 c6.024,1.984,12.395,2.975,19.105,2.975c27.045,0,59.597-16.093,97.094-48.061l16.013-13.652l-17.665-11.433 c-51.632-33.418-92.377-43.327-121.109-29.457c-3.04,1.467-5.794,3.141-8.315,4.952V0h-31.347v129.684 c-56.064,25.307-95.351,74.917-113.819,143.908c-0.351,1.312-0.689,2.619-1.019,3.921 c-60.367,4.812-108.018,55.471-108.018,117.055C11.603,459.319,64.282,512,129.036,512s117.433-52.681,117.433-117.433 c0-57.041-40.882-104.705-94.882-115.251c16.728-60.364,49.95-101.516,98.792-122.377c49.247,21.035,82.634,62.702,99.229,123.914 c0.093,0.345,0.183,0.689,0.275,1.033c-48.696,14.32-84.35,59.412-84.35,112.681c0,64.752,52.68,117.433,117.433,117.433 c64.752,0,117.433-52.681,117.433-117.433S447.717,277.135,382.964,277.135z M287.959,52.332 c9.009-4.248,29.641-6.962,71.42,16.286c-38.37,28.526-59.18,28.541-68.667,25.512c-11.367-3.631-16.707-14.674-18.615-19.764 C273.321,69.069,277.167,57.421,287.959,52.332z M215.12,394.567c0,47.468-38.617,86.086-86.086,86.086 c-47.469,0-86.086-38.617-86.086-86.086c0-42.03,30.284-77.098,70.172-84.587c-2.448,16.37-3.412,30.787-3.727,41.744 c-10.793-2.887-18.166-7.787-18.803-8.22l-8.887,12.911l-8.96,12.861c1.333,0.929,13.546,9.197,31.576,13.443 c7.006,1.65,13.927,2.468,20.716,2.468c17.469,0,34.029-5.427,48.707-16.09l-18.425-25.361c-4.843,3.519-9.732,5.945-14.537,7.536 c0.359-10.755,1.411-25.112,4.076-41.306C184.791,317.418,215.12,352.507,215.12,394.567z M382.964,480.653 c-47.469,0-86.086-38.617-86.086-86.086c0-38.17,24.979-70.6,59.444-81.846c2.286,14.768,3.249,27.911,3.608,37.999 c-8.921-2.895-14.842-6.829-15.409-7.215l-8.887,12.911l-8.96,12.861c1.333,0.929,13.546,9.197,31.576,13.443 c7.006,1.65,13.929,2.468,20.716,2.468c17.469,0,34.029-5.427,48.707-16.09l-18.425-25.361 c-5.969,4.337-12.008,7.012-17.874,8.509c-0.307-11.324-1.308-26.445-3.951-43.646c45.403,2.328,81.625,39.999,81.625,85.971 C469.05,442.036,430.433,480.653,382.964,480.653z"/> </g> </g> </g>
</svg>