<!DOCTYPE svg PUBLIC "-//W3C//DTD SVG 1.1//EN" "http://www.w3.org/Graphics/SVG/1.1/DTD/svg11.dtd">
<!-- Uploaded to: SVG Repo, www.svgrepo.com, Transformed by: SVG Repo Mixer Tools -->
<svg fill="#ffffff" height="800px" width="800px" version="1.1" id="Capa_1" xmlns="http://www.w3.org/2000/svg" xmlns:xlink="http://www.w3.org/1999/xlink" viewBox="0 0 470.203 470.203" xml:space="preserve" stroke="#ffffff">
<g id="SVGRepo_bgCarrier" stroke-width="0"/>
<g id="SVGRepo_tracerCarrier" stroke-linecap="round" stroke-linejoin="round"/>
<g id="SVGRepo_iconCarrier"> <g> <path d="M379.422,401.305h-4.668c23.087-26.458,36.848-59.621,36.848-95.585c0-25.873-7.065-49.815-21.518-72.971 c12.401-11.967,20.138-28.739,20.138-47.293c0-32.563-23.967-60.027-55.565-64.957c-5.58-16.418-14.612-31.631-26.294-44.499 c7.823-7.057,14.278-16.261,17.174-24.93c6.773-20.274-4.209-42.279-24.483-49.053c-9.821-3.281-20.332-2.541-29.597,2.084 c-9.265,4.625-16.174,12.581-19.455,22.403c-1.278,3.827-2.066,8.264-2.366,12.948c-11.182-3.184-22.849-4.828-34.786-4.828 c-11.739,0-23.215,1.597-34.227,4.677c-0.832-6.464-2.554-12.583-5.007-17.498c-9.548-19.125-32.873-26.917-51.999-17.368 c-9.265,4.625-16.174,12.582-19.454,22.403c-3.28,9.822-2.54,20.333,2.086,29.598c3.314,6.64,9.015,13.337,15.799,18.805 c-12.021,13.028-21.311,28.513-27.002,45.258c-31.6,4.93-55.566,32.395-55.566,64.957c0,18.333,7.549,34.929,19.69,46.867 C65.7,254.809,58.601,280.077,58.601,305.72c0,35.964,13.761,69.127,36.848,95.585h-5.171c-16.367,0-29.683,13.315-29.683,29.683 v9.532c0,16.367,13.315,29.683,29.683,29.683h289.143c16.367,0,29.683-13.316,29.683-29.683v-9.532 C409.104,414.62,395.789,401.305,379.422,401.305z M288.126,31.89c1.842-5.515,5.721-9.981,10.923-12.579 c5.203-2.597,11.102-3.012,16.617-1.17c11.383,3.803,17.55,16.159,13.746,27.542c-2.072,6.203-7.307,13.307-13.348,18.486 c-1.484-1.248-2.988-2.473-4.532-3.652c-7.833-5.981-16.216-10.945-25.003-14.892C286.333,40.526,286.883,35.612,288.126,31.89z M140.286,32.224c1.842-5.515,5.722-9.981,10.924-12.579c10.738-5.361,23.835-0.986,29.195,9.752 c2.057,4.119,3.372,9.867,3.701,15.801c-9.131,4.011-17.827,9.126-25.939,15.32c-1.229,0.938-2.438,1.9-3.63,2.882 c-5.654-4.169-10.602-9.594-13.08-14.558C138.86,43.64,138.444,37.738,140.286,32.224z M76.478,185.456 c0-25.624,20.013-46.99,45.562-48.642c3.577-0.231,6.624-2.682,7.618-6.126c13.433-46.552,56.689-79.064,105.191-79.064 c48.504,0,91.761,32.513,105.193,79.064c0.994,3.444,4.041,5.895,7.618,6.126c25.549,1.652,45.561,23.018,45.561,48.642 c0,26.886-21.874,48.76-48.76,48.76c-6.098,0-12.067-1.126-17.743-3.345c-3.337-1.304-7.131-0.378-9.49,2.316 c-20.808,23.757-50.834,37.383-82.38,37.383c-31.545,0-61.57-13.625-82.38-37.383c-1.646-1.881-3.994-2.9-6.396-2.9 c-1.038,0-2.087,0.19-3.094,0.585c-5.675,2.219-11.643,3.344-17.741,3.344C98.352,234.216,76.478,212.342,76.478,185.456z M92.837,242.645c5.202,2.959,10.841,5.229,16.799,6.686v68.087c0,17.03,13.854,30.885,30.885,30.885h12.313 c17.03,0,30.886-13.855,30.886-30.885v-23.192c0-4.694-3.806-8.5-8.5-8.5s-8.5,3.806-8.5,8.5v23.192 c0,7.656-6.23,13.885-13.886,13.885H140.52c-7.656,0-13.885-6.228-13.885-13.885v-66.226c5.756-0.121,11.423-0.978,16.92-2.577 c23.811,24.825,56.765,38.955,91.293,38.955c34.53,0,67.484-14.13,91.294-38.955c5.498,1.599,11.165,2.456,16.922,2.577v66.226 c0,7.656-6.229,13.885-13.885,13.885h-12.313c-7.656,0-13.886-6.228-13.886-13.885v-23.192c0-4.694-3.806-8.5-8.5-8.5 c-4.694,0-8.5,3.806-8.5,8.5v23.192c0,17.03,13.855,30.885,30.886,30.885h12.313c17.03,0,30.885-13.855,30.885-30.885V249.33 c5.775-1.411,11.253-3.583,16.32-6.411c12.232,20.036,18.217,40.655,18.217,62.8c0,76.92-71.552,139.5-159.5,139.5 s-159.5-62.58-159.5-139.5C75.601,283.761,81.553,262.088,92.837,242.645z M77.595,440.52v-9.532 c0-6.993,5.689-12.683,12.683-12.683h20.661c0.518,0,1.023-0.063,1.52-0.153c17.962,15.409,39.59,27.472,63.6,35.051h-85.78 C83.285,453.203,77.595,447.513,77.595,440.52z M392.104,440.52c0,6.994-5.689,12.683-12.683,12.683h-85.277 c23.954-7.562,45.539-19.586,63.477-34.945c0.217,0.017,0.432,0.047,0.652,0.047h21.148c6.993,0,12.683,5.689,12.683,12.683V440.52 z"/> <path d="M225.599,247.22h18.5c15.715,0,28.5-12.785,28.5-28.5v-33.5c0-4.694-3.806-8.5-8.5-8.5h-20.751v-27.642h13.422 c4.694,0,8.5-3.806,8.5-8.5c0-4.694-3.806-8.5-8.5-8.5h-43.842c-4.694,0-8.5,3.806-8.5,8.5c0,4.694,3.806,8.5,8.5,8.5h13.42v27.642 h-20.749c-4.694,0-8.5,3.806-8.5,8.5v33.5C197.099,234.435,209.885,247.22,225.599,247.22z M255.599,193.72v25 c0,6.341-5.159,11.5-11.5,11.5h-0.751v-36.5H255.599z M214.099,193.72h12.249v36.5h-0.749c-6.341,0-11.5-5.159-11.5-11.5V193.72z"/> </g> </g>
</svg>