<!DOCTYPE svg PUBLIC "-//W3C//DTD SVG 1.1//EN" "http://www.w3.org/Graphics/SVG/1.1/DTD/svg11.dtd">
<!-- Uploaded to: SVG Repo, www.svgrepo.com, Transformed by: SVG Repo Mixer Tools -->
<svg fill="#ffffff" version="1.1" id="Capa_1" xmlns="http://www.w3.org/2000/svg" xmlns:xlink="http://www.w3.org/1999/xlink" width="800px" height="800px" viewBox="0 0 579.462 579.461" xml:space="preserve" stroke="#ffffff">
<g id="SVGRepo_bgCarrier" stroke-width="0"/>
<g id="SVGRepo_tracerCarrier" stroke-linecap="round" stroke-linejoin="round"/>
<g id="SVGRepo_iconCarrier"> <g> <g> <path d="M365.7,267.032c-3.926,4.44-9.648,7.259-16.025,7.259H231.853c-6.074,0-11.551-2.552-15.453-6.625 c-36.218,54.921-159.23,144.453-159.23,144.453h76.5v84.661c94.379-45.211,137.706-116.714,157.59-171.507 c19.884,54.789,63.21,126.296,157.59,171.507v-84.661h76.5C525.35,412.119,401.389,321.898,365.7,267.032z"/> <path d="M9.819,265.422c10.129,8.703,27.023,13.048,50.576,13.048c35.343,0,85.151-15.637,150.041-35.333v-90.017 C194.071,134.632,99.214,35.876,0.098,109.749V244.89C-0.074,246.083-1.044,256.092,9.819,265.422z M14.617,233.899 c24.801-17.488,82.036-42.62,176.556-1.766C19.149,295.49,13.684,245.79,14.617,233.899z"/> <path d="M579.361,109.749c-95.542-71.206-187.131,17.989-208.267,41.074v92.941c63.871,19.4,113.006,34.703,147.973,34.706 c23.55,0,40.444-4.345,50.575-13.048c10.86-9.33,9.894-19.339,9.722-20.529V109.749H579.361z M388.286,232.133 c94.521-40.854,151.754-15.723,176.556,1.766C565.775,245.79,560.31,295.49,388.286,232.133z"/> <path d="M349.675,258.991c3.382,0,6.12-2.739,6.12-6.12v-9.896V135.048c0-3.381-2.738-6.12-6.12-6.12H231.853 c-3.381,0-6.12,2.739-6.12,6.12v112.923v4.899c0,3.381,2.739,6.12,6.12,6.12H349.675z"/> </g> </g> </g>
</svg>