<!DOCTYPE svg PUBLIC "-//W3C//DTD SVG 1.1//EN" "http://www.w3.org/Graphics/SVG/1.1/DTD/svg11.dtd">
<!-- Uploaded to: SVG Repo, www.svgrepo.com, Transformed by: SVG Repo Mixer Tools -->
<svg fill="#ffffff" version="1.1" id="Capa_1" xmlns="http://www.w3.org/2000/svg" xmlns:xlink="http://www.w3.org/1999/xlink" width="800px" height="800px" viewBox="0 0 483.534 483.533" xml:space="preserve" stroke="#ffffff">
<g id="SVGRepo_bgCarrier" stroke-width="0"/>
<g id="SVGRepo_tracerCarrier" stroke-linecap="round" stroke-linejoin="round"/>
<g id="SVGRepo_iconCarrier"> <g> <path d="M254.109,465.188h7.481c4.877-1.242,40.672-12.135,63.83-65.77c-12.294-33.555-21.556-84.244-21.11-160.746 c0.32-14.473,3.711-224.318-69.653-228.177h-29.333h-89.225c2.929,2.36,6.113,4.991,9.686,7.926 c13.84,11.407,24.009,25.379,31.457,40.305c8.905,17.829,13.91,36.991,16.621,54.758c6.646,30.953,10.895,71.172,10.59,123.511 C184.131,251.479,180.731,461.324,254.109,465.188z"/> <path d="M130.662,185.684c1.513-54.01,10.682-91.53,22.105-117.562c-7.176-16.31-17.406-31.643-32-43.655 c-7.183-5.911-12.691-10.534-17.426-13.966H77.333C1.334,14.504,0,185.684,0,185.684l83.99-51.113L130.662,185.684z"/> <path d="M352.868,297.846c-1.395,50.125-10.977,86.031-23.399,111.751c-15.108,31.29-34.403,47.439-48.418,55.591 c-10.855,6.315-18.538,7.851-18.538,7.851h143.683c76.005-4.003,77.339-175.177,77.339-175.177l-68.29,58.953L352.868,297.846z"/> </g> </g>
</svg>