<!DOCTYPE svg PUBLIC "-//W3C//DTD SVG 1.1//EN" "http://www.w3.org/Graphics/SVG/1.1/DTD/svg11.dtd">
<!-- Uploaded to: SVG Repo, www.svgrepo.com, Transformed by: SVG Repo Mixer Tools -->
<svg fill="#ffffff" height="800px" width="800px" version="1.1" id="Layer_1" xmlns="http://www.w3.org/2000/svg" xmlns:xlink="http://www.w3.org/1999/xlink" viewBox="0 0 512 512" xml:space="preserve" stroke="#ffffff">
<g id="SVGRepo_bgCarrier" stroke-width="0"/>
<g id="SVGRepo_tracerCarrier" stroke-linecap="round" stroke-linejoin="round"/>
<g id="SVGRepo_iconCarrier"> <g> <g> <path d="M380.343,171.745c-5.77,0-10.449,4.678-10.449,10.449v0.651c0,5.771,4.679,10.449,10.449,10.449 c5.77,0,10.449-4.678,10.449-10.449v-0.651C390.792,176.423,386.113,171.745,380.343,171.745z"/> </g> </g> <g> <g> <path d="M318.171,190.553c-5.77,0-10.449,4.678-10.449,10.449v0.651c0,5.771,4.679,10.449,10.449,10.449 c5.77,0,10.449-4.678,10.449-10.449v-0.651C328.62,195.231,323.941,190.553,318.171,190.553z"/> </g> </g> <g> <g> <path d="M256,171.745c-5.77,0-10.449,4.678-10.449,10.449v0.651c0,5.771,4.679,10.449,10.449,10.449 c5.77,0,10.449-4.678,10.449-10.449v-0.651C266.449,176.423,261.77,171.745,256,171.745z"/> </g> </g> <g> <g> <path d="M193.829,190.553c-5.77,0-10.449,4.678-10.449,10.449v0.651c0,5.771,4.679,10.449,10.449,10.449 c5.77,0,10.449-4.678,10.449-10.449v-0.651C204.278,195.231,199.598,190.553,193.829,190.553z"/> </g> </g> <g> <g> <path d="M131.657,171.745c-5.77,0-10.449,4.678-10.449,10.449v0.651c0,5.771,4.679,10.449,10.449,10.449 c5.77,0,10.449-4.678,10.449-10.449v-0.651C142.106,176.423,137.427,171.745,131.657,171.745z"/> </g> </g> <g> <g> <path d="M355.788,230.075c-5.77,0-10.449,4.678-10.449,10.449v0.651c0,5.771,4.679,10.449,10.449,10.449 c5.77,0,10.449-4.678,10.449-10.449v-0.651C366.237,234.753,361.558,230.075,355.788,230.075z"/> </g> </g> <g> <g> <path d="M293.616,248.883c-5.77,0-10.449,4.678-10.449,10.449v0.651c0,5.771,4.679,10.449,10.449,10.449 c5.77,0,10.449-4.678,10.449-10.449v-0.651C304.065,253.561,299.386,248.883,293.616,248.883z"/> </g> </g> <g> <g> <path d="M231.445,230.075c-5.77,0-10.449,4.678-10.449,10.449v0.651c0,5.771,4.679,10.449,10.449,10.449 c5.77,0,10.449-4.678,10.449-10.449v-0.651C241.894,234.753,237.215,230.075,231.445,230.075z"/> </g> </g> <g> <g> <path d="M169.273,248.883c-5.77,0-10.449,4.678-10.449,10.449v0.651c0,5.771,4.679,10.449,10.449,10.449 c5.77,0,10.449-4.678,10.449-10.449v-0.651C179.722,253.561,175.043,248.883,169.273,248.883z"/> </g> </g> <g> <g> <path d="M348.314,122.776h-0.135c-5.77,0-10.449,4.678-10.449,10.449c0,5.771,4.678,10.449,10.449,10.449h0.135 c5.77,0,10.449-4.678,10.449-10.449C358.763,127.454,354.083,122.776,348.314,122.776z"/> </g> </g> <g> <g> <path d="M501.551,122.776H382.784c-5.77,0-10.449,4.678-10.449,10.449c0,5.771,4.679,10.449,10.449,10.449h63.097 C440.437,243.693,357.355,323.396,256,323.396S71.563,243.693,66.119,143.673h248.913c5.77,0,10.449-4.678,10.449-10.449 c0-5.771-4.679-10.449-10.449-10.449H10.449C4.679,122.776,0,127.454,0,133.224c0,68.38,26.628,132.668,74.981,181.019 C123.333,362.595,187.62,389.224,256,389.224c68.38,0,132.668-26.628,181.019-74.981C485.371,265.891,512,201.605,512,133.224 C512,127.455,507.321,122.776,501.551,122.776z M256,368.327c-126.139,0-229.394-99.841-234.872-224.653h24.063 C50.656,255.223,143.12,344.294,256,344.294s205.344-89.071,210.809-200.62h24.063C485.394,268.487,382.139,368.327,256,368.327z"/> </g> </g> </g>
</svg>