<!DOCTYPE svg PUBLIC "-//W3C//DTD SVG 1.1//EN" "http://www.w3.org/Graphics/SVG/1.1/DTD/svg11.dtd">
<!-- Uploaded to: SVG Repo, www.svgrepo.com, Transformed by: SVG Repo Mixer Tools -->
<svg fill="#ffffff" width="800px" height="800px" viewBox="0 0 24 24" xmlns="http://www.w3.org/2000/svg" stroke="#ffffff">
<g id="SVGRepo_bgCarrier" stroke-width="0"/>
<g id="SVGRepo_tracerCarrier" stroke-linecap="round" stroke-linejoin="round"/>
<g id="SVGRepo_iconCarrier">
<path d="M2,3V21a1,1,0,0,0,1,1H21a1,1,0,0,0,1-1V3a1,1,0,0,0-1-1H3A1,1,0,0,0,2,3ZM4,4H20V20H10V15a1,1,0,0,0-1-1H4ZM4,16H8v4H4Zm7.077-3.618A1.01,1.01,0,0,1,11,12V8.5a1,1,0,0,1,2,0V9.586l2.793-2.793a1,1,0,1,1,1.414,1.414L14.414,11H15.5a1,1,0,0,1,0,2H12a1.01,1.01,0,0,1-.382-.077A1,1,0,0,1,11.077,12.382Z"/>
</g>
</svg>