<?xml version="1.0" standalone="no"?>
<!DOCTYPE svg PUBLIC "-//W3C//DTD SVG 20010904//EN"
 "http://www.w3.org/TR/2001/REC-SVG-20010904/DTD/svg10.dtd">
<svg version="1.0" xmlns="http://www.w3.org/2000/svg"
 width="512.000000pt" height="512.000000pt" viewBox="0 0 512.000000 512.000000"
 preserveAspectRatio="xMidYMid meet">

<g transform="translate(0.000000,512.000000) scale(0.100000,-0.100000)"
fill="#000000" stroke="none">
<path d="M105 5106 c-42 -18 -93 -79 -100 -118 -3 -18 -5 -355 -3 -749 l3
-716 28 -36 c63 -83 170 -96 248 -30 60 51 59 35 59 707 l0 616 688 2 689 3
37 29 c49 37 69 86 64 152 -5 64 -37 110 -92 135 -39 18 -81 19 -816 18 -618
0 -781 -2 -805 -13z"/>
<path d="M3720 5098 c-61 -32 -83 -66 -88 -136 -5 -71 11 -108 65 -149 l36
-28 524 -3 523 -3 0 -615 c0 -672 -1 -656 59 -707 66 -55 155 -56 219 -2 65
54 62 21 62 809 0 586 -3 722 -14 749 -16 39 -61 82 -99 96 -19 7 -231 11
-636 11 l-607 0 -44 -22z"/>
<path d="M135 1701 c-47 -12 -72 -28 -102 -68 l-28 -36 -3 -716 c-2 -394 0
-731 3 -749 7 -40 59 -101 102 -118 26 -11 178 -14 805 -14 732 0 775 1 814
19 55 25 87 71 92 135 5 66 -15 115 -64 152 l-37 29 -689 3 -688 2 0 615 c0
410 -4 623 -11 642 -28 75 -118 122 -194 104z"/>
<path d="M4897 1696 c-22 -8 -50 -25 -64 -38 -54 -49 -53 -40 -53 -702 l0
-615 -523 -3 -524 -3 -36 -28 c-54 -41 -70 -78 -65 -149 5 -70 27 -104 88
-135 l44 -23 608 0 c489 0 615 3 641 14 43 17 95 78 102 118 3 18 5 355 3 749
l-3 716 -28 36 c-48 63 -122 88 -190 63z"/>
</g>
</svg>
