<?xml version="1.0" standalone="no"?>
<!DOCTYPE svg PUBLIC "-//W3C//DTD SVG 20010904//EN"
 "http://www.w3.org/TR/2001/REC-SVG-20010904/DTD/svg10.dtd">
<svg version="1.0" xmlns="http://www.w3.org/2000/svg"
 width="512.000000pt" height="512.000000pt" viewBox="0 0 512.000000 512.000000"
 preserveAspectRatio="xMidYMid meet">

<g transform="translate(0.000000,512.000000) scale(0.100000,-0.100000)"
fill="#000000" stroke="none">
<path d="M53 5105 c-58 -25 -58 -29 -23 -405 17 -188 34 -349 37 -359 3 -9
401 -412 884 -896 l879 -880 -380 -380 c-359 -359 -380 -378 -397 -363 -36 33
-107 58 -163 58 -141 0 -250 -111 -250 -255 0 -88 25 -131 144 -253 l105 -108
-287 -287 c-271 -270 -290 -287 -335 -297 -106 -23 -190 -90 -236 -189 -37
-80 -37 -192 0 -272 37 -79 90 -133 166 -171 130 -64 288 -34 388 73 49 52 78
110 89 175 6 36 35 68 291 324 l284 284 114 -111 c121 -117 166 -143 251 -143
148 0 271 137 252 282 -7 53 -27 100 -54 131 -15 17 8 42 366 400 l382 382
379 -379 379 -379 -29 -41 c-50 -71 -56 -184 -15 -264 42 -82 149 -138 244
-129 84 7 114 26 235 145 l107 107 286 -286 c273 -273 286 -288 295 -334 60
-321 496 -381 641 -88 29 59 33 77 33 148 0 65 -5 90 -26 135 -50 107 -123
169 -232 196 l-62 16 -287 286 -287 286 109 111 c61 63 116 129 125 151 24 56
23 149 -2 204 -64 139 -235 192 -364 111 l-53 -32 -378 378 -378 378 885 885
886 886 29 319 c37 394 37 405 8 432 -13 11 -32 23 -44 25 -12 3 -176 -9 -366
-26 l-346 -32 -888 -883 -888 -882 -880 880 c-765 763 -886 880 -916 885 -19
3 -163 17 -320 31 -157 14 -301 27 -320 29 -19 3 -50 -1 -67 -9z m426 -196
l225 -20 325 -319 c179 -175 569 -562 866 -859 l540 -541 -243 -242 -242 -243
-861 861 -861 861 -24 259 c-13 142 -24 262 -24 267 0 4 17 5 38 2 20 -3 138
-14 261 -26z m4451 4 c0 -16 -9 -134 -21 -263 l-21 -235 -1604 -1605 -1604
-1604 -90 89 -90 90 400 400 c353 354 400 404 400 431 0 46 -39 84 -87 84 -36
0 -52 -15 -435 -397 l-398 -398 -90 90 c-49 49 -90 92 -90 96 0 3 722 724
1603 1602 l1604 1596 254 24 c140 14 257 25 262 26 4 0 7 -11 7 -26z m-1388
-2850 l378 -378 -92 -92 -93 -93 -187 187 c-175 175 -190 187 -224 187 -45 0
-84 -40 -84 -86 0 -27 26 -57 187 -220 l187 -189 -87 -87 -87 -87 -380 380
-380 380 237 237 c131 131 240 238 243 238 3 0 175 -170 382 -377z m-2235
-735 c211 -211 386 -391 389 -401 16 -51 -29 -107 -85 -107 -33 0 -59 23 -418
383 -368 368 -383 384 -383 420 0 49 36 87 82 87 29 0 68 -35 415 -382z m2970
360 c30 -33 36 -63 19 -95 -8 -15 -183 -196 -388 -400 -330 -329 -377 -373
-404 -373 -64 0 -104 59 -78 117 6 15 180 196 386 401 351 349 376 372 409
372 24 0 42 -7 56 -22z m-3205 -605 l58 -58 -246 -246 -246 -247 -60 60 -60
60 243 244 c134 134 246 244 249 244 2 0 30 -26 62 -57z m3283 -193 c137 -137
245 -250 239 -250 -13 0 -74 -57 -97 -90 l-17 -25 -250 250 -250 250 57 57
c32 32 60 58 63 58 3 0 118 -112 255 -250z m-3917 -396 c15 -11 37 -40 50 -65
60 -115 -17 -239 -148 -239 -71 0 -116 27 -148 90 -41 79 -10 179 66 220 48
26 140 23 180 -6z m4412 11 c39 -20 80 -76 87 -119 18 -110 -58 -198 -169
-198 -165 2 -224 215 -84 306 47 30 119 35 166 11z"/>
</g>
</svg>
