<?xml version="1.0" encoding="utf-8"?>
<!-- Generator: Adobe Illustrator 15.0.0, SVG Export Plug-In . SVG Version: 6.00 Build 0)  -->
<!DOCTYPE svg PUBLIC "-//W3C//DTD SVG 1.1//EN" "http://www.w3.org/Graphics/SVG/1.1/DTD/svg11.dtd">
<svg version="1.1" id="レイヤー_1" xmlns="http://www.w3.org/2000/svg" xmlns:xlink="http://www.w3.org/1999/xlink" x="0px"
	 y="0px" width="800px" height="800px" viewBox="0 0 800 800" enable-background="new 0 0 800 800" xml:space="preserve">
<circle fill="none" stroke="#000000" stroke-width="4" stroke-miterlimit="10" cx="400" cy="400" r="380"/>
<g>
	<g>
		<path d="M363.937,35.218l-2.729,9.548l4.731,8.513L363.937,35.218z M242.604,720.866l0.554-9.729l-7.969,16.341L242.604,720.866z
			 M243.865,731.677l7.93-16.261l-7.312,6.399L243.865,731.677z M261.09,718.33l-5.264,3.752l0.574,6.982l5.513-4.323L261.09,718.33
			z M164.853,655.484l-6.199,1.831l-1.733,6.787l6.621-2.289L164.853,655.484z M359.112,44.969l-4.748-8.661l1.992,17.974
			L359.112,44.969z M143.166,650.447l-7.338,7.338l11.091,1.991l-3.061-9.183L143.166,650.447z M155.892,650.846l-3.292-9.833
			l-7.359,7.358l0.209,0.587L155.892,650.846z M599.03,107.796l-0.673,7.604l7.501-11.073L599.03,107.796z M597.862,98.946
			l-7.484,11.048l6.787-3.461L597.862,98.946z M372.887,756.151l1.233,4.021l1.511-3.748l-1.146-3.598L372.887,756.151z
			 M470.836,743.406l8.092,2.391l-1.782-8.321L470.836,743.406z M287.976,728.759l-4.934,4.179l1.155,6.911l5.134-4.768
			L287.976,728.759z M536.23,74.469l-0.745-6.964l-5.404,4.455l0.98,6.388L536.23,74.469z M337.078,754.774l4.731-6.021l-2.59-7.178
			L337.078,754.774z M368.094,755.838l0.972,3.555l1.668-3.468l-1.131-3.806L368.094,755.838z M346.595,756.288l2.135-13.17
			l-4.697,5.996L346.595,756.288z M58.387,285.421l12.593,4.408l-5.082-5.674L58.387,285.421z M67.709,298.904l-4.339-4.789
			l-6.866,1.384l4.935,4.97L67.709,298.904z M139.21,169.04l-13.769-11.87l4.504,8.855L139.21,169.04z M43.975,312.613l17.508,4.533
			l-7.724-5.889L43.975,312.613z M63.956,307.833l-17.594-4.556l7.954,5.949L63.956,307.833z M120.913,191.492L106.209,180.8
			l5.221,8.453L120.913,191.492z M100.564,188.614l14.632,10.639l-5.029-8.313L100.564,188.614z M74.164,280.734l-12.621-4.418
			l5.1,5.712L74.164,280.734z M119.171,164.489l13.701,11.812l-4.324-8.7L119.171,164.489z M232.677,88.27l-0.43-3.665l-3.194-2.739
			l0.729,3.977L232.677,88.27z M49.725,508.19l17.35-5.101l-9.652-1.087L49.725,508.19z M64.414,493.829l-17.436,5.126l9.879,1.02
			L64.414,493.829z M110.716,207.892l-2.776-5.838l-6.976-0.653l3.294,6.184L110.716,207.892z M237.181,86.256l-0.714-3.951
			l-2.724-2.484l0.446,3.824L237.181,86.256z M59.917,536.903l16.866-6.534l-9.71-0.276L59.917,536.903z M54.884,364.834
			l-13.323-1.156l6.356,4.272L54.884,364.834z M40.757,373.281l13.294,1.153l-6.329-4.24L40.757,373.281z M52.771,398.783
			l-5.49-3.412l-6.221,3.219l6.112,3.422L52.771,398.783z M73.357,521.361l-16.949,6.566l9.932,0.191L73.357,521.361z
			 M670.292,638.117l-9.895-8.954l2.48,7.204L670.292,638.117z M689.587,591.022l11.259,7.219l-3.642-6.738L689.587,591.022z
			 M653.931,636.31l9.917,8.974l-2.482-7.245L653.931,636.31z M716.573,257.972l12.118-5.65l-7.639-0.528L716.573,257.972z
			 M724.593,243.602l-12.092,5.638l7.6,0.513L724.593,243.602z M634.467,657.643l12.421,13.272l-3.531-9.286L634.467,657.643z
			 M653.905,664.308L641.544,651.1l3.37,9.112L653.905,664.308z M704.948,231.456l15.779-9.026l-9.85,1.295L704.948,231.456z
			 M747.736,494.358l-12.833-3.659l5.408,5.366L747.736,494.358z M715.916,214.078l-15.702,8.982l9.644-1.178L715.916,214.078z
			 M748.771,464.438l-8.351-1.643l2.963,8.139L748.771,464.438z M746.575,378.577l5.737,2.979l5.956-3.69l-6.359-2.941
			L746.575,378.577z M753.13,328.534l-13.115,2.458l7.235,2.385L753.13,328.534z M732.26,499.968l12.862,3.668l-5.429-5.403
			L732.26,499.968z M706.022,590.112l-11.233-7.203l3.632,6.697L706.022,590.112z M741.79,340.464L754.935,338l-7.27-2.408
			L741.79,340.464z M400,24.348C192.533,24.348,24.348,192.533,24.348,400S192.533,775.652,400,775.652S775.652,607.467,775.652,400
			S607.467,24.348,400,24.348z M771.364,399.197l-28.165,0.551l-0.044-2.224l0.03,0l5.297-11.226l2.608-0.051l-5.326,11.227
			l25.557-0.5L771.364,399.197z M770.364,373.029l-7.301,4.544l7.798,3.626l0.156,2.575l-10.272-4.753l-8.274,5.138l-9.98-5.335
			l9.261-6.506l8.836,4.098l9.62-5.963L770.364,373.029z M768.906,357.32l-14.654,9.698l-3.554-5.597l-5.931,7.284l25.042-2.565
			l0.229,2.242l-28.021,2.87l-0.143-1.386l-0.087-0.855l-0.01-0.088l9.278-11.263l3.629,6.334l13.992-8.884L768.906,357.32z
			 M766.834,342.047l-23.411,3.415l10.11,3.002l-8.846,5.742l23.415-3.385l0.318,2.201l-27.871,4.059l-0.322-2.23l0.47-0.068
			l8.946-5.667l-10.273-3.098l-0.411,0.06l-0.322-2.23l27.88-4L766.834,342.047z M764.059,326.485l-7.636,1.431l-7.146,6.136
			l8.916,3.307l7.641-1.402l0.339,1.807l-27.687,5.189l-0.339-1.807l7.654-6.322l-9.425-3.121l-0.005-0.029l-0.345-1.836
			l27.688-5.19L764.059,326.485z M758.301,302.229l-27.165,7.479l-0.591-2.145l27.165-7.479L758.301,302.229z M752.223,282.089
			l-7.057,2.266l10.456,8.32l-26.817,8.61l3.658-12.852l-7.057,2.266l-0.681-2.117l11.292-3.625l-3.658,12.852l18.349-5.892
			l-10.456-8.32l11.291-3.625L752.223,282.089z M747.02,267.558l-14.89,5.478l8.96,8.553l-16.661,6.161l-0.777-2.115l13.164-4.843
			l-0.038-0.018l-8.961-8.553l18.436-6.75L747.02,267.558z M741.018,252.791l-10.785,4.491l-7.857,7.126l-2.119,6.792l0.137,0.329
			l24.227-10.087l0.866,2.08L719.48,274.35l-1.277-3.066l2.504-7.949l8.455-7.696l11.114-4.627L741.018,252.791z M734.67,238.904
			l-7.04,3.282l-5.397,7.717l9.456,0.989l7.053-3.255l0.776,1.666l-25.527,11.901l-0.776-1.666l5.844-8.024l-9.902-0.682
			l-0.013-0.027l-0.789-1.693l25.527-11.901L734.67,238.904z M720.112,211.678l-7.577,9.869l12.362-1.503l0.898,1.57l-24.439,14.014
			l-0.928-1.622l7.73-9.957l-12.502,1.617l-0.928-1.622l24.455-13.988L720.112,211.678z M712.377,199.152l-4.223,7.487l8.578-0.559
			l1.372,2.184l-11.289,0.758l-4.793,8.476l-11.313,0.107l5.002-10.147l9.716-0.644l5.578-9.845L712.377,199.152z M709.846,195.213
			l-23.208,15.975l-1.262-1.833l0.024-0.017l-1.762-12.289l2.15-1.48l1.737,12.306l21.058-14.495L709.846,195.213z M694.603,173.928
			l-3.589,7.813l8.504-1.269l1.549,2.063l-11.19,1.691l-4.075,8.845l-11.268,1.045l4.146-10.53l9.631-1.447l4.744-10.275
			L694.603,173.928z M670.015,171.726l6.518,3.287l6.782-15.122l1.408,1.721l-6.888,16.165l-6.049-2.713l-0.937,9.345l19.484-15.934
			l1.427,1.744l-21.802,17.83l-0.883-1.079l-0.544-0.666l-0.057-0.069L670.015,171.726z M713.896,267.414
			c17.754,41.975,26.756,86.583,26.756,132.586s-9.002,90.611-26.756,132.586c-17.155,40.561-41.723,76.995-73.02,108.291
			c-31.296,31.297-67.73,55.864-108.291,73.02C490.611,731.65,446.003,740.652,400,740.652s-90.612-9.002-132.586-26.756
			c-40.561-17.155-76.995-41.723-108.291-73.02c-31.296-31.296-55.863-67.73-73.019-108.291
			C68.35,490.611,59.348,446.003,59.348,400s9.002-90.612,26.756-132.586c17.156-40.561,41.723-76.995,73.019-108.291
			s67.73-55.863,108.291-73.019C309.388,68.35,353.997,59.348,400,59.348s90.611,9.002,132.586,26.756
			c40.561,17.156,76.995,41.723,108.291,73.019C672.174,190.419,696.741,226.853,713.896,267.414z M663.923,138.794l-11.404,11.029
			l11.653,4.2l-12.748,12.37l-1.567-1.62l10.083-9.75l-0.042-0.001l-11.652-4.201l14.132-13.625L663.923,138.794z M656.894,131.907
			l-19.424,20.396l-1.61-1.534l19.424-20.396L656.894,131.907z M627.982,138.128l15.891-18.125l1.672,1.466l-15.871,18.102
			l7.824-0.514l-1.955,2.229l-9.414,0.618l-0.618-9.414l1.955-2.229L627.982,138.128z M626.038,105.327L609.28,127.97l-1.787-1.323
			l0.018-0.023l-5.657-11.048l1.553-2.098l5.639,11.072l3.017-4.076l-5.687-11.107l1.44-1.848l5.64,11.072l10.795-14.587
			L626.038,105.327z M604.1,89.739l-4.357,6.433l-0.67,9.396l8.624-4.007l4.383-6.416l1.521,1.031l-15.8,23.324l-1.522-1.031
			l0.896-9.888l-8.85,4.499l-0.025-0.017l-1.546-1.048l15.8-23.324L604.1,89.739z M591.352,81.699l-12.432,20.131l8.798-5.816
			l-1.286,10.468l12.457-20.116l1.891,1.171L585.976,111.5l-1.916-1.187l0.25-0.403l1.408-10.497l-8.977,5.88l-0.219,0.353
			l-1.916-1.186l14.854-23.932L591.352,81.699z M566.929,89.075l2.125,7.593l11.822-21.015l1.939,1.09l-11.809,20.989l7.554-2.115
			l-1.454,2.585l-9.088,2.544l-2.544-9.087L566.929,89.075z M550.976,60.652l2.63,12.064l4.111-8.979l2.022,0.926l-11.728,25.614
			l-2.022-0.926l6.32-13.805l-3.922-16.081L550.976,60.652z M533.979,53.538l2.389,0.974l0.932,8.545l6.645-5.454l2.388,0.975
			l-8.731,7.196l1.046,9.681l-9.131,6.681l-1.85-11.161l7.519-6.186L533.979,53.538z M515.616,61.06l3.487,3.618l5.271-14.644
			l2.092,0.753l-5.643,15.676l3.478,3.646l-0.874,2.427l-3.497-3.59l-3.002,8.34l-2.092-0.753l3.384-9.4l-3.487-3.618L515.616,61.06
			z M506.889,44.282l-4.743,15.135l12.239-1.881l-5.281,16.955l-2.15-0.674l4.193-13.381l-0.037,0.019l-12.24,1.881l5.897-18.719
			L506.889,44.282z M492.004,40.153l-6.097,22.863l6.747-8.107l1.788,10.395l6.125-22.855l2.147,0.576l-7.263,27.216l-2.177-0.583
			l0.123-0.458l-1.68-10.458l-6.899,8.22l-0.107,0.401l-2.177-0.583l7.32-27.201L492.004,40.153z M477.67,36.812l5.082,11.256
			l2.154-9.639l2.171,0.485l-6.146,27.499l-2.171-0.485l3.313-14.82l-7.182-14.917L477.67,36.812z M465.074,34.378l2.189,0.394
			l-4.262,23.702l6.439-4.477l-0.524,2.919l-7.749,5.387l-5.387-7.749l0.525-2.919l4.501,6.475L465.074,34.378z M446.511,31.553
			l-3.186,23.444l5.678-8.887l3.075,10.087l3.215-23.439l2.203,0.302l-3.798,27.909l-2.232-0.306l0.064-0.47l-2.975-10.164
			l-5.815,9.018l-0.057,0.411l-2.232-0.306l3.856-27.9L446.511,31.553z M427.187,48.201l5.022,6.079l2.283-24.004l2.214,0.21
			l-2.279,23.975l6.046-4.997l-0.28,2.953l-7.275,6.012l-6.012-7.275L427.187,48.201z M413.348,28.869l1.925,0.104l-0.625,11.669
			l3.02,10.171l5.205,4.854l0.355,0.019l1.404-26.211l2.251,0.121l-1.508,28.136l-3.317-0.178l-6.08-5.702l-3.274-10.958
			L413.348,28.869z M400.39,28.651l7.897,15.699l-5.979,2.867l6.531,6.75l0.415-25.171l2.253,0.037L411.044,57l-1.394-0.023
			l-0.859-0.014l-0.089-0.001l-10.087-10.546l6.719-2.855l-7.167-14.946L400.39,28.651z M378.413,29.286l2.219-0.153l1.942,28.107
			l-2.219,0.153l-0.002-0.03l-11.476-4.736l-0.18-2.604l11.477,4.766l-0.35-5.06l-11.537-4.762l-0.102-2.342l11.477,4.766
			L378.413,29.286z M353.832,31.505l6.037,10.874l3.539-11.935l1.797-0.199l3.132,27.988l-1.856,0.206l-6.057-11.051l-3.49,12.109
			l-1.856,0.206l-3.102-27.991L353.832,31.505z M344.424,32.825l4.262,27.846l-2.198,0.337l-4.262-27.847L344.424,32.825z
			 M323.748,36.505l1.426,7.274l9.485-9.415l5.421,27.644l-12.338-5.134l1.427,7.274l-2.183,0.428l-2.283-11.64l12.339,5.135
			l-3.709-18.914l-9.485,9.415l-2.283-11.639L323.748,36.505z M314.123,38.677l6.581,27.397l-2.163,0.52l-6.581-27.397
			L314.123,38.677z M293.799,44.076l4.343,15.257l9.201-8.292l4.891,17.075l-2.167,0.617l-3.839-13.489l-0.021,0.037l-9.201,8.292
			l-5.345-18.887L293.799,44.076z M284.413,47.038l8.842,26.745l-2.111,0.698l-8.842-26.745L284.413,47.038z M265.308,53.861
			l10.426,6.617l-3.491-9.237l2.081-0.787l9.959,26.354l-2.081,0.786l-5.367-14.203l-14.19-8.523L265.308,53.861z M255.499,57.859
			l11.046,25.919l-2.046,0.872l-11.046-25.918L255.499,57.859z M241.059,64.335l7.169,15.042l5.038,0.095l1.11,2.329l-5.012-0.042
			l3.814,8.002l-2.007,0.957l-4.299-9.019l-5.025-0.068l-1.123-2.355l5.025,0.068l-6.697-14.051L241.059,64.335z M222.669,73.668
			l9.272,8.012l-1.408-12.173l1.966-1.041l0.924,8.47l5.009,4.329l1.319,7.187l5.767,5.001l-1.809,0.957l-9.203-7.881l1.338,12.042
			l-1.861,0.984l-0.991-8.468l-4.711-4.084l-1.246-6.857l-6.334-5.439L222.669,73.668z M196.186,89.557l12.798,19.905l-1.451-10.448
			l8.89,5.678L203.65,84.771l1.873-1.201l15.231,23.699l-1.897,1.217l-0.256-0.399l-8.863-5.801l1.431,10.637l0.224,0.349
			l-1.897,1.217l-15.181-23.731L196.186,89.557z M192.588,91.91l16.163,23.063l-1.821,1.276l-0.017-0.024l-12.269,1.865
			l-1.497-2.136l12.285-1.84l-14.666-20.927L192.588,91.91z M175.568,104.172l17.105,22.382l-1.767,1.351l-17.105-22.382
			L175.568,104.172z M163.474,113.762l15.401,18.511l0.716-7.81l1.897,2.28l-0.862,9.396l-9.397-0.862l-1.896-2.28l7.852,0.72
			l-15.42-18.534L163.474,113.762z M136.574,138.287l11.119,11.314l4.107-11.685l12.47,12.647l-1.607,1.58l-9.83-10.003l0,0.042
			l-4.106,11.685l-13.737-14.021L136.574,138.287z M125.916,149.47l17.287,16.149l-3.97-9.769l10.008,3.321L131.975,143l1.52-1.623
			l20.575,19.229l-1.54,1.645l-0.346-0.324l-10.012-3.447l3.996,9.957l0.303,0.284l-1.54,1.645l-20.535-19.272L125.916,149.47z
			 M115.51,161.333l11.829,3.855l-5.536-11.155l1.181-1.37l21.357,18.373l-1.22,1.415l-11.964-3.971l5.69,11.248l-1.22,1.415
			l-21.338-18.395L115.51,161.333z M96.655,185.771l12.108,2.864l-6.44-10.659l1.064-1.463l22.805,16.545l-1.099,1.511
			l-12.252-2.968l6.602,10.74l-1.099,1.511l-22.787-16.569L96.655,185.771z M88.4,197.954l8.563,0.784l-4.027-7.598l1.43-2.148
			l5.321,9.99l9.699,0.898l4.737,10.279l-11.311-0.403l-4.571-8.601l-11.27-1.053L88.4,197.954z M72.505,224.819l20.739,11.408
			l-6.253-8.498l10.523,0.758l-20.725-11.434l1.075-1.948l24.687,13.585l-1.089,1.974l-0.416-0.229l-10.558-0.879l6.326,8.673
			l0.364,0.201l-1.089,1.974l-24.657-13.638L72.505,224.819z M67.98,233.593l25.208,12.568l-0.992,1.99l-25.208-12.568
			L67.98,233.593z M58.869,253.066l10.666,4.768l10.574,0.83l6.395-3.117l0.145-0.325l-23.956-10.709l0.919-2.057l25.716,11.495
			l-1.355,3.032l-7.501,3.63l-11.399-0.874l-10.99-4.913L58.869,253.066z M53.233,266.901l14.744,5.87l-0.957-12.353l16.518,6.544
			l-0.833,2.094l-13.035-5.189l0.017,0.039l0.956,12.353l-18.232-7.291L53.233,266.901z M47.893,281.748l7.332,2.566l9.253-1.755
			l-6.08-7.312l-7.322-2.595l0.607-1.735l26.585,9.306l-0.607,1.735l-9.786,1.663l6.612,7.404l-0.01,0.028l-0.617,1.763
			l-26.585-9.307L47.893,281.748z M43.486,295.818l8.423-1.716l-6.044-6.113l0.75-2.468l7.97,8.031l9.543-1.934l7.495,8.475
			l-10.943,2.871l-6.853-6.917l-11.092,2.238L43.486,295.818z M39.297,311.402l12.312-1.774l-9.896-7.554l0.453-1.751l27.274,7.031
			l-0.468,1.809l-12.484,1.729l10.076,7.57l-0.468,1.808l-27.267-7.06L39.297,311.402z M34.215,335.847l23.739,4.063l-4.531-6.403
			l2.923,0.5l5.452,7.704l-7.704,5.452l-2.924-0.5l6.438-4.556l-23.769-4.069L34.215,335.847z M31.176,356.61l23.468,2.991
			l-8.934-5.604l10.062-3.159l-23.464-3.02l0.284-2.205l27.938,3.565l-0.288,2.235l-0.47-0.061l-10.138,3.059l9.065,5.74
			l0.412,0.053l-0.288,2.235l-27.93-3.625L31.176,356.61z M29.679,372.32l7.74,0.671L45.95,369l-7.701-5.58l-7.737-0.701
			l0.159-1.831l28.064,2.435l-0.159,1.832l-9.071,4.035l8.24,5.537l-0.002,0.029l-0.162,1.861l-28.064-2.436L29.679,372.32z
			 M28.879,387.376l7.404,0.335l-6.901-11.442l28.137,1.276l-7.908,10.771l7.404,0.336l-0.101,2.221l-11.847-0.537l7.908-10.771
			l-19.251-0.873l6.901,11.442l-11.847-0.537L28.879,387.376z M28.63,402.478l7.627-3.967l-7.493-4.216l0.042-2.58l9.874,5.53
			l8.644-4.484l9.538,6.088l-9.733,5.771l-8.492-4.767l-10.05,5.202L28.63,402.478z M29.11,418.24l15.259-8.717l3.18,5.817
			l6.395-6.88l-25.158,0.92l-0.083-2.252l28.151-1.029l0.051,1.393l0.031,0.859l0.003,0.089l-9.997,10.632l-3.207-6.559
			l-14.545,7.949L29.11,418.24z M31.206,443.413l27.977-3.349l0.265,2.209l-27.977,3.349L31.206,443.413z M33.372,459.087
			l16.448-2.667l1.503-4.81l2.546-0.412l-1.444,4.8l8.75-1.419l0.356,2.194l-9.863,1.6l-1.474,4.805l-2.575,0.417l1.474-4.805
			l-15.365,2.492L33.372,459.087z M37.023,478.641l8.183-9.25l-9.675,1.987l-0.447-2.179l27.6-5.668l0.447,2.179l-14.875,3.055
			L37.596,481.43L37.023,478.641z M39.418,488.953l27.339-6.813l0.538,2.158l-27.339,6.813L39.418,488.953z M45.089,509.553
			l9.652-7.843l-12.37-1.4l-0.51-1.735l27.012-7.972l0.526,1.792l-9.823,7.894l12.533,1.321l0.527,1.792l-27.021,7.943
			L45.089,509.553z M48.037,518.596l26.672-9.074l0.716,2.105l-26.672,9.074L48.037,518.596z M55.41,538.649l8.965-8.625
			l-12.446-0.361l-0.654-1.687l26.256-10.203l0.675,1.741l-9.131,8.689l12.602,0.269l0.675,1.742l-26.267,10.176L55.41,538.649z
			 M61.545,552.992l10.708-4.677l7.734-7.262l2-6.829l-0.143-0.326l-24.05,10.507l-0.902-2.065l25.817-11.278l1.33,3.044
			l-2.366,7.991l-8.322,7.843l-11.033,4.819L61.545,552.992z M65.706,561.8l14.981-7.298l0.052-5.039l2.319-1.13l0.001,5.014
			l7.971-3.883l0.974,1.999l-8.983,4.376l-0.025,5.025l-2.346,1.144l0.025-5.026l-13.995,6.817L65.706,561.8z M72.539,575.192
			l21.187-11.436l-7.513-2.246l2.609-1.408l9.04,2.702l-2.702,9.04l-2.609,1.408l2.258-7.554l-21.213,11.45L72.539,575.192z
			 M91.566,606.857l9.782-6.385l6.421-8.44l0.842-7.063l-0.194-0.298l-21.971,14.342l-1.231-1.887l23.584-15.396l1.815,2.781
			l-1.009,8.271l-6.905,9.109l-10.08,6.579L91.566,606.857z M96.91,614.539l19.601-13.988l-7.736-1.292l2.414-1.723l9.308,1.555
			l-1.555,9.308l-2.414,1.723l1.299-7.777L98.202,616.35L96.91,614.539z M112.21,634.727l21.498-18.206l1.438,1.696l-0.023,0.02
			l2.978,12.051l-1.991,1.687l-2.956-12.07l-19.506,16.521L112.21,634.727z M122.209,646.471l20.729-19.077l1.506,1.637
			l-0.022,0.021l3.472,11.917l-1.92,1.768l-3.45-11.938l-3.731,3.435l3.49,11.98l-1.764,1.543l-3.45-11.938l-13.354,12.289
			L122.209,646.471z M134.255,659.357l-1.573-1.572l19.917-19.918l1.572,1.573l3.963,11.803l-1.845,1.846l-10.147-2.055l3.061,9.099
			l-1.635,1.636L134.255,659.357z M151.559,675.973l2.109-8.335l-8.132,2.793l-1.898-1.747l10.697-3.697l2.399-9.438l10.89-3.075
			l-2.163,11.107l-9.207,3.174l-2.797,10.966L151.559,675.973z M163.499,686.286l3.838-17.15l6.442,1.57l-0.776-9.362
			l-16.271,19.212l-1.72-1.456l18.207-21.498l1.063,0.901l0.656,0.556l0.068,0.058l1.122,14.551l-7.008-2.049l-3.925,16.105
			L163.499,686.286z M175.586,695.875l14.516-18.686l-9.37,4.841l2.399-10.27l-14.539,18.666l-1.754-1.366l17.285-22.24l1.777,1.385
			l-0.292,0.374l-2.524,10.286l9.555-4.886l0.255-0.327l1.778,1.385l-17.332,22.204L175.586,695.875z M200.896,713.496
			l12.918-19.828l-8.938,5.603l1.54-10.436l-12.944,19.812l-1.862-1.217l15.384-23.602l1.887,1.233l-0.259,0.397l-1.664,10.461
			l9.119-5.661l0.227-0.348l1.887,1.232l-15.434,23.568L200.896,713.496z M225.499,706.731l-1.939-7.643l-12.331,20.717
			l-1.911-1.137l12.316-20.692l-7.602,1.93l1.517-2.549l9.146-2.32l2.321,9.146L225.499,706.731z M241.746,736.022l0.712-12.423
			l-9.376,8.197l-1.626-0.793l12.324-25.337l1.679,0.818l-0.791,12.583l9.427-8.37l1.68,0.818l-12.351,25.324L241.746,736.022z
			 M255.201,742.035l-0.723-8.568l-6.778,5.291l-2.364-1.032l8.908-6.982l-0.809-9.706l9.293-6.458l1.577,11.207l-7.67,6.002
			l0.93,11.279L255.201,742.035z M261.554,744.664l-2.074-0.804l10.19-26.267l2.074,0.805l-0.011,0.027l8.373,9.165l-0.944,2.434
			l-8.362-9.193L261.554,744.664z M284.082,752.877l-1.435-8.479l-6.314,5.839l-2.443-0.832l8.297-7.702l-1.615-9.606l8.725-7.211
			l2.506,11.038l-7.145,6.621l1.867,11.166L284.082,752.877z M299.182,757.482l-3.424-17.235l6.526-1.169l-4.495-8.248
			l-7.112,24.147l-2.162-0.637l7.958-27.02l1.336,0.394l0.825,0.243l0.085,0.024l6.909,12.854l-7.237,0.96l2.922,16.315
			L299.182,757.482z M316.293,761.889l-2.158-0.537l5.694-22.973l-6.604,8.227l-1.972-10.363l-5.723,22.965l-2.159-0.538
			l6.785-27.347l2.187,0.545l-0.115,0.461l1.864,10.429l6.755-8.342l0.1-0.403l2.187,0.545L316.293,761.889z M344.815,767.263
			l1.244-7.668l-3.349-8.803l-6.134,7.266l-1.272,7.663l-1.815-0.295l4.508-27.803l1.814,0.294l3.351,9.345l6.131-7.807l0.029,0.005
			l1.844,0.299l-4.508,27.803L344.815,767.263z M363.47,756.924l-10.384-6.829l-2.157,18.023l-2.208-0.265l3.349-27.977l2.208,0.264
			l-0.003,0.03l10.388,6.799l-0.31,2.592l-10.384-6.829l-0.603,5.036l10.443,6.836L363.47,756.924z M377.519,756.245l-2.615,6.457
			l2.44,7.981l-2.216-0.173l-3.546-11.725l-5.321,11.033l-2.217-0.173l3.748-7.647l-1.915-6.334l2.729-6.775l-2.196-7.308
			l2.04,0.159l3.558,11.576l5.309-10.886l2.099,0.164l-3.691,7.682L377.519,756.245z M392.573,757.939l-4.422-2.39l-0.577,15.558
			l-2.222-0.083l0.617-16.653l-4.42-2.419l0.095-2.578l4.423,2.359l0.329-8.859l2.223,0.082l-0.371,9.986l4.422,2.39
			L392.573,757.939z M408.157,758.597l-11.206-5.366l0.29,18.145l-2.224,0.035l-0.449-28.166l2.224-0.035l0,0.03l11.206,5.337
			l0.041,2.608l-11.206-5.366l0.081,5.069l11.266,5.366L408.157,758.597z M427.889,770.301l-2.216,0.191l-2.421-28.064l2.216-0.19
			l0.003,0.029l11.552,4.539l0.224,2.6l-11.554-4.568l0.436,5.051l11.613,4.563l0.143,2.339l-11.555-4.568L427.889,770.301z
			 M443.262,768.84l-2.207,0.283l-3.58-27.948l2.206-0.283l0.004,0.029l11.733,4.059l0.331,2.589l-11.736-4.088L443.262,768.84z
			 M461.829,766.184l-4.74-27.774l2.192-0.374l4.74,27.774L461.829,766.184z M482.431,762.147l-2.95-13.771l-12.281-4.253
			l9.216-9.493l0.116-0.025l2.174-0.466l5.9,27.542L482.431,762.147z M497.904,758.296l-2.922-11.314l-5.944-8.787l-6.427-3.059
			l-0.344,0.089l6.563,25.415l-2.183,0.563l-7.045-27.281l3.217-0.83l7.516,3.604l6.426,9.46l3.011,11.659L497.904,758.296z
			 M503.737,756.648l-2.128,0.646l-8.176-26.963l2.128-0.646l0.009,0.028l12.244,2.052l0.757,2.498l-12.252-2.08l1.472,4.854
			L510.1,739.1l0.623,2.26l-12.252-2.08L503.737,756.648z M541.705,743.344l-4.316-10.857l-6.999-7.973l-6.758-2.228l-0.331,0.131
			l9.696,24.389l-2.095,0.833l-10.407-26.18l3.086-1.228l7.908,2.633l7.56,8.579l4.447,11.188L541.705,743.344z M550.296,739.63
			l-9.825-21.979l-2.799,7.324l-1.21-2.707l3.368-8.813l8.813,3.367l1.21,2.707l-7.363-2.813l9.837,22.007L550.296,739.63z
			 M582.867,723.258l-11.448-20.71l0.754,10.521l-8.493-6.256l11.422,20.725l-1.948,1.073l-13.623-24.657l1.975-1.088l0.229,0.415
			l8.458,6.377l-0.722-10.708l-0.2-0.364l1.974-1.087l13.571,24.686L582.867,723.258z M591.69,718.063l-8.644-14.243l-5.021,0.411
			l-1.338-2.205l4.99-0.462l-4.599-7.578l1.9-1.153l5.184,8.541l5.006-0.438l1.354,2.23l-5.006,0.438l8.075,13.306L591.69,718.063z
			 M604.414,710.024l-15.598-23.454l1.852-1.231l15.598,23.454L604.414,710.024z M621.917,697.761l-4.565-6.284l-8.606-3.826
			l0.834,9.472l4.542,6.303l-1.487,1.08l-16.554-22.787l1.486-1.081l8.992,4.205l-1.22-9.851l0.023-0.018l1.512-1.098l16.554,22.787
			L621.917,697.761z M638.831,684.349l-1.685,1.451l-18.381-21.338l1.685-1.451l0.02,0.022l12.021-3.078l1.703,1.977l-12.041,3.056
			l3.309,3.841l12.085-3.095l1.484,1.813l-12.041,3.056L638.831,684.349z M657.208,667.837l-11.35-5.097l4.313,11.683l-1.321,1.235
			l-19.271-20.549l1.364-1.276l11.471,5.227l-4.456-11.792l1.364-1.277l19.251,20.57L657.208,667.837z M678.537,645.579
			l-5.761-5.214l-9.21-1.976l2.764,9.1l5.741,5.235l-1.234,1.363l-20.888-18.902l1.233-1.363l9.666,2.268l-3.22-9.392l0.021-0.022
			l1.253-1.385l20.889,18.902L678.537,645.579z M684.73,638.338l-21.643-18.032l1.424-1.709l21.643,18.033L684.73,638.338z
			 M694.619,626.015l-13.232-10.127l-4.528,2.209l-2.048-1.567l4.481-2.246l-7.04-5.388l1.352-1.766l7.935,6.072l4.505-2.227
			l2.072,1.586l-4.505,2.227l12.36,9.461L694.619,626.015z M703.543,613.899l-23.063-16.178l1.277-1.82l23.063,16.177
			L703.543,613.899z M715.384,596.114l-6.54-4.193l-9.41-0.433l4.224,8.521l6.524,4.219l-0.992,1.548l-23.716-15.206l0.993-1.548
			l9.907,0.646l-4.722-8.733l0.017-0.025l1.008-1.572l23.716,15.206L715.384,596.114z M725.226,579.419l-24.89-13.177l1.041-1.965
			l12.444,6.589l-0.011-12.651l1.938,1.093l0.038,12.599l3.93,2.08l-0.038-12.599l1.965,1.04l0.038,12.6l4.585,2.427
			L725.226,579.419z M737.199,555.725l-21.37-10.165l6.742,8.112l-10.548-0.137l21.357,10.191l-0.958,2.007l-25.438-12.105
			l0.971-2.034l0.428,0.204l10.59,0.256l-6.824-8.284l-0.375-0.179l0.971-2.034l25.413,12.16L737.199,555.725z M741.353,546.35
			l-15.324-6.544l-3.842,3.261l-2.372-1.014l3.787-3.283l-8.152-3.48l0.873-2.045l9.188,3.923l3.815-3.271l2.399,1.024l-3.814,3.271
			l14.315,6.112L741.353,546.35z M747.015,532.376l-26.354-9.959l0.786-2.08l26.354,9.958L747.015,532.376z M750.469,523.128
			l-26.745-8.856l0.699-2.111l0.028,0.009l8.732-8.823l2.478,0.82l-8.761,8.814l4.813,1.594l8.779-8.87l2.206,0.793l-8.761,8.813
			l17.229,5.706L750.469,523.128z M758.431,497.408l-7.472-2.131l-9.136,2.298l6.501,6.942l7.464,2.159l-0.505,1.769l-27.093-7.727
			l0.505-1.768l9.673-2.237l-7.038-7.003l0.008-0.028l0.513-1.797l27.093,7.727L758.431,497.408z M765.183,467.665l-13.822-2.718
			l-8.751,9.613l-5.094-12.215l0.023-0.116l0.429-2.183l27.644,5.436L765.183,467.665z M767.734,451.938l-11.549-1.773
			l-10.418,2.001l-5.343,4.7l-0.054,0.352l25.941,3.983l-0.343,2.229l-27.847-4.276l0.505-3.283l6.272-5.487l11.226-2.177
			l11.901,1.827L767.734,451.938z M768.887,442.628l-27.991-3.117l0.246-2.21l27.991,3.117L768.887,442.628z M770.708,421.715
			l-15.829-1.102l4.672,11.474l-17.725-1.204l0.156-2.249l13.994,0.975l-0.027-0.031l-4.671-11.475l19.584,1.394L770.708,421.715z
			 M599.745,683.636l7.858,10.817l-0.939-7.599L599.745,683.636z M677.806,191.659l6.429-0.674l2.938-6.359l-6.927,1.048
			L677.806,191.659z M615.382,688.766l-7.841-10.794l0.946,7.558L615.382,688.766z M694.173,215.427l6.461-0.139l3.454-6.093
			l-6.988,0.47L694.173,215.427z"/>
	</g>
</g>
<circle fill="none" stroke="#000000" stroke-miterlimit="10" cx="400" cy="400" r="340"/>
<circle fill="none" stroke="#000000" stroke-miterlimit="10" cx="400" cy="400" r="336.521"/>
<circle fill="none" stroke="#000000" stroke-width="3" stroke-miterlimit="10" cx="400" cy="400" r="326.956"/>
<g>
	<path d="M400,78.081l306.277,222.695L589.289,661H210.712L93.724,300.718L400,78.081 M400,73.135L89.022,299.19L207.805,665h384.39
		l118.782-365.751L400,73.135L400,73.135z"/>
</g>
<g>
	<path d="M589.289,138l116.988,360.35L400,721.02L93.724,498.274L210.711,138H589 M592.195,134H207.805L89.022,499.818L400,725.965
		L710.979,499.86L592.195,134L592.195,134z"/>
</g>
</svg>
