<?xml version="1.0" encoding="utf-8"?>
<!-- Generator: Adobe Illustrator 15.0.0, SVG Export Plug-In . SVG Version: 6.00 Build 0)  -->
<!DOCTYPE svg PUBLIC "-//W3C//DTD SVG 1.1//EN" "http://www.w3.org/Graphics/SVG/1.1/DTD/svg11.dtd">
<svg version="1.1" id="レイヤー_1" xmlns="http://www.w3.org/2000/svg" xmlns:xlink="http://www.w3.org/1999/xlink" x="0px"
	 y="0px" width="800px" height="800px" viewBox="0 0 800 800" enable-background="new 0 0 800 800" xml:space="preserve">
<circle fill="none" stroke="#000000" stroke-width="2" stroke-miterlimit="10" cx="400" cy="400" r="370"/>
<circle fill="none" stroke="#000000" stroke-width="2" stroke-miterlimit="10" cx="400" cy="400" r="370"/>
<circle fill="none" stroke="#000000" stroke-width="2" stroke-miterlimit="10" cx="400" cy="400" r="366.521"/>
<g>
	<g>
		<path fill="none" stroke="#000000" stroke-miterlimit="10" d="M589.477,86.154l2.07,1.216l-15.394,26.212l-2.07-1.216l0.017-0.028
			l-7.333-11.208l1.426-2.428l7.316,11.236L589.477,86.154z"/>
	</g>
	<g>
		<path fill="none" stroke="#000000" stroke-miterlimit="10" d="M566.828,73.53l0.101,9.277l7.711-5.157l2.463,1.298l-10.138,6.808
			l0.101,10.508l-10.511,6.214l-0.811-12.185l8.73-5.851l-0.109-12.211L566.828,73.53z M564.511,87.393l-6.275,4.215l0.379,6.965
			l5.96-3.622L564.511,87.393z"/>
	</g>
	<g>
		<path fill="none" stroke="#000000" stroke-miterlimit="10" d="M549.712,82.961l-0.431-17.882l2.172,1.021l0.813,18.946
			l-7.152,0.172l3.436,9.536l11.562-24.583l2.2,1.035l-12.937,27.508l-1.36-0.64l-0.84-0.395l-0.088-0.041l-5.253-14.847
			L549.712,82.961z"/>
	</g>
	<g>
		<path fill="none" stroke="#000000" stroke-miterlimit="10" d="M535.499,92.212l-2.246-0.933l0.196-0.473l-0.313-11.426
			l-8.547,7.814l-0.172,0.414l-2.246-0.933l11.691-28.06l2.217,0.921l-9.767,23.593l8.368-7.715l0.438,11.374l9.796-23.581
			l2.216,0.92L535.499,92.212z"/>
	</g>
	<g>
		<path fill="none" stroke="#000000" stroke-miterlimit="10" d="M507.809,81.447l10.36-28.578l1.896,0.687l-2.857,7.881
			l1.783,10.006l7.963-6.473l2.887-7.871l1.866,0.676l-10.36,28.578l-1.866-0.676l-1.678-10.581l-8.068,7.047l-0.029-0.011
			L507.809,81.447z M515.975,64.837l-4.907,13.537l6.184-5.416L515.975,64.837z M519.537,73.788l1.306,8.131l4.918-13.567
			L519.537,73.788z"/>
	</g>
	<g>
		<path fill="none" stroke="#000000" stroke-miterlimit="10" d="M486.491,75.099l-2.322-0.607l7.691-29.408l2.322,0.607
			L486.491,75.099z"/>
	</g>
	<g>
		<path fill="none" stroke="#000000" stroke-miterlimit="10" d="M465.719,70.257l-2.348-0.5l2.667-12.519l10.068,10.324
			l4.334-20.342l-13.402,5.323l2.667-12.518l2.348,0.5l-1.667,7.824l13.402-5.324l-6.334,29.73l-10.069-10.324L465.719,70.257z"/>
	</g>
	<g>
		<path fill="none" stroke="#000000" stroke-miterlimit="10" d="M449.728,58.136l3.49-20.893l2.368,0.392l-2.796,16.889l12.8-3.848
			l-3.1,18.914l-2.4-0.397l2.473-14.932l-0.035,0.026L449.728,58.136z"/>
	</g>
	<g>
		<path fill="none" stroke="#000000" stroke-miterlimit="10" d="M434.869,48.089l1.535-12.9l2.065,0.246l-1.49,12.519l2.539,11.162
			l5.263,5.588l0.383,0.045l3.347-28.119l2.414,0.287l-3.593,30.185l-3.559-0.424l-6.146-6.564L434.869,48.089z"/>
	</g>
	<g>
		<path fill="none" stroke="#000000" stroke-miterlimit="10" d="M417.746,64.26l2.219-30.317l2.011,0.147l-0.611,8.361l4.431,9.147
			l5.909-8.39l0.643-8.359l1.979,0.145l-2.219,30.316l-1.979-0.145l-4.485-9.729l-5.854,8.972l-0.031-0.002L417.746,64.26z
			 M421.1,46.058l-1.051,14.361l4.482-6.891L421.1,46.058z M426.957,53.706l3.463,7.472l1.054-14.393L426.957,53.706z"/>
	</g>
	<g>
		<path fill="none" stroke="#000000" stroke-miterlimit="10" d="M387.193,64.039l-0.497-30.394l2.017-0.033l5.385,12.296
			l5.013-12.466l1.952-0.032l0.529,30.393l-2.016,0.033l-5.39-12.489l-4.977,12.658L387.193,64.039z M388.799,38.828l0.318,19.516
			l3.905-9.729L388.799,38.828z M395.294,48.61l4.222,9.628l-0.32-19.612L395.294,48.61z"/>
	</g>
	<g>
		<path fill="none" stroke="#000000" stroke-miterlimit="10" d="M372.874,34.44l4.906,7.875l3.908-8.414l2.779-0.17l-5.125,11.085
			l5.547,8.925l-5.752,10.771l-7.023-9.989l4.418-9.535l-6.438-10.378L372.874,34.44z M378.097,47.489l-3.172,6.862l3.943,5.753
			l3.211-6.191L378.097,47.489z"/>
	</g>
	<g>
		<path fill="none" stroke="#000000" stroke-miterlimit="10" d="M365.402,35.059l2.388-0.255l3.228,30.226l-2.388,0.255
			l-0.003-0.032l-12.563-4.644l-0.299-2.8l12.565,4.676L365.402,35.059z"/>
	</g>
	<g>
		<path fill="none" stroke="#000000" stroke-miterlimit="10" d="M339.694,38.389l5.601,7.397l3.129-8.734l2.752-0.421l-4.098,11.504
			l6.335,8.385l-4.752,11.248l-7.9-9.31l3.534-9.897l-7.353-9.75L339.694,38.389z M346.079,50.91l-2.534,7.121l4.447,5.373
			l2.637-6.458L346.079,50.91z"/>
	</g>
	<g>
		<path fill="none" stroke="#000000" stroke-miterlimit="10" d="M331.531,56.158l-10.988-14.116l2.354-0.472l11.929,14.743
			l-5.647,4.395l8.437,5.62l-5.337-26.637l2.385-0.478l5.972,29.805l-1.475,0.296l-0.91,0.182l-0.095,0.019l-13.056-8.806
			L331.531,56.158z"/>
	</g>
	<g>
		<path fill="none" stroke="#000000" stroke-miterlimit="10" d="M294.273,71.059l-6.02-20.309l2.3-0.686l4.89,16.406l9.818-9.069
			l5.504,18.359l-2.331,0.695l-4.322-14.504l-0.021,0.04L294.273,71.059z"/>
	</g>
	<g>
		<path fill="none" stroke="#000000" stroke-miterlimit="10" d="M290.418,82.132l-2.267,0.791l-10.01-28.702l2.267-0.791
			L290.418,82.132z"/>
	</g>
	<g>
		<path fill="none" stroke="#000000" stroke-miterlimit="10" d="M264.359,80.942l7.823,3.343l-9.688-24.144l2.228-0.894
			l9.675,24.114l3.325-7.781l1.191,2.97l-4,9.362l-9.363-4L264.359,80.942z"/>
	</g>
	<g>
		<path fill="none" stroke="#000000" stroke-miterlimit="10" d="M247.551,91.039l-13.465,0.171l-1.095-2.279l13.407-0.142
			l-8.924-17.431l2.137-1.094l13.853,27.058l-2.137,1.094l-0.015-0.028l-13.393,0.17l-1.283-2.507l13.407-0.142L247.551,91.039z"/>
	</g>
	<g>
		<path fill="none" stroke="#000000" stroke-miterlimit="10" d="M227.314,111.472l-15.075-26.396l1.752-1l4.157,7.28l8.781,5.118
			l0.221-10.26l-4.13-7.295l1.723-0.984l15.075,26.396l-1.723,0.984l-9.15-5.57l0.147,10.712l-0.026,0.016L227.314,111.472z
			 M219.942,94.495l7.141,12.504l-0.126-8.219L219.942,94.495z M229.069,97.573l7.043,4.269l-7.157-12.531L229.069,97.573z"/>
	</g>
	<g>
		<path fill="none" stroke="#000000" stroke-miterlimit="10" d="M226.512,111.954l-2.055,1.302l-0.273-0.433l-9.527-6.313
			l1.479,11.486l0.239,0.378l-2.055,1.302l-16.237-25.697l2.028-1.285l13.689,21.556l-1.503-11.282l9.558,6.181l-13.662-21.572
			l2.027-1.284L226.512,111.954z"/>
	</g>
	<g>
		<path fill="none" stroke="#000000" stroke-miterlimit="10" d="M195.83,119.889l8.377,1.484l-14.902-21.322l1.968-1.375
			l14.884,21.296l1.477-8.332l1.833,2.623l-1.776,10.024l-10.026-1.775L195.83,119.889z"/>
	</g>
	<g>
		<path fill="none" stroke="#000000" stroke-miterlimit="10" d="M166.828,117.173l1.834-1.548l19.604,23.231l-1.834,1.548
			l-10.565-12.521l-17.5-3.571l2.349-1.981l12.984,2.985L166.828,117.173z"/>
	</g>
	<g>
		<path fill="none" stroke="#000000" stroke-miterlimit="10" d="M148.014,133.805l8.781,2.993l-2.297-8.988l2.044-1.891
			l3.046,11.827l9.943,3.4l2.36,11.981l-11.759-3.292l-2.612-10.179l-11.552-3.963L148.014,133.805z M160.313,140.604l1.887,7.319
			l6.693,1.961l-1.431-6.826L160.313,140.604z"/>
	</g>
	<g>
		<path fill="none" stroke="#000000" stroke-miterlimit="10" d="M139.82,141.845l12.793,12.638l5.147-1.75l1.98,1.957l-5.103,1.795
			l6.807,6.724l-1.688,1.708l-7.671-7.578l-5.126,1.773l-2.003-1.979l5.125-1.773l-11.95-11.806L139.82,141.845z"/>
	</g>
	<g>
		<path fill="none" stroke="#000000" stroke-miterlimit="10" d="M138.657,174.135l-15.708-14.212l1.608-1.782l12.711,11.467
			l3.666-12.853l14.253,12.813l-1.63,1.807l-11.238-10.138l0.003,0.045L138.657,174.135z"/>
	</g>
	<g>
		<path fill="none" stroke="#000000" stroke-miterlimit="10" d="M144.914,180.989l-1.545,1.877l-0.396-0.326l-11.022-3.021
			l4.992,10.449l0.346,0.285l-1.546,1.878l-23.45-19.343l1.525-1.854l19.736,16.203l-4.951-10.25l11.011,2.888l-19.716-16.228
			l1.525-1.853L144.914,180.989z"/>
	</g>
	<g>
		<path fill="none" stroke="#000000" stroke-miterlimit="10" d="M108.941,177.172l1.439-1.92l24.323,18.233l-1.439,1.92
			l-13.109-9.827l-17.854,0.453l1.843-2.459l13.323-0.009L108.941,177.172z"/>
	</g>
	<g>
		<path fill="none" stroke="#000000" stroke-miterlimit="10" d="M109.306,211.168l8.358-1.587l-21.503-14.642l1.352-1.984
			l21.477,14.624l-1.579-8.313l2.645,1.801l1.899,10.003l-10.004,1.899L109.306,211.168z"/>
	</g>
	<g>
		<path fill="none" stroke="#000000" stroke-miterlimit="10" d="M117.405,217.79l-1.275,2.07l-0.436-0.269l-11.332-1.495
			l6.367,9.674l0.381,0.235l-1.276,2.069l-25.862-15.975l1.26-2.043l21.754,13.368l-6.297-9.481l11.3,1.364l-21.738-13.396
			l1.259-2.042L117.405,217.79z"/>
	</g>
	<g>
		<path fill="none" stroke="#000000" stroke-miterlimit="10" d="M93.292,238.41l8.179-2.341l-22.746-12.623l1.165-2.099
			l22.718,12.607l-2.329-8.136l2.798,1.553l2.801,9.788l-9.789,2.803L93.292,238.41z"/>
	</g>
	<g>
		<path fill="none" stroke="#000000" stroke-miterlimit="10" d="M79.862,249.625l-11.635-5.778l0.925-1.863l11.292,5.607
			l11.365,1.356l7.032-3.081l0.171-0.345l-25.363-12.595l1.082-2.178l27.226,13.521l-1.594,3.21l-8.247,3.585L79.862,249.625z"/>
	</g>
	<g>
		<path fill="none" stroke="#000000" stroke-miterlimit="10" d="M79.399,258.059l-17.866,0.87l0.968-2.196l18.92-1.277l0.348,7.146
			l9.45-3.669l-24.859-10.955l0.98-2.225l27.816,12.258l-0.606,1.376l-0.374,0.849l-0.039,0.089l-14.712,5.615L79.399,258.059z"/>
	</g>
	<g>
		<path fill="none" stroke="#000000" stroke-miterlimit="10" d="M74.868,285.982l-9.505,9.537l-2.377-0.863l9.485-9.477
			l-18.569-6.22l0.762-2.276l28.824,9.655l-0.762,2.276l-0.03-0.011l-9.454,9.487l-2.67-0.895l9.484-9.477L74.868,285.982z"/>
	</g>
	<g>
		<path fill="none" stroke="#000000" stroke-miterlimit="10" d="M74.703,314.719l-29.237-8.32l0.552-1.939l13.329-1.597
			l-10.483-8.404l0.534-1.878l29.246,8.289l-0.551,1.938l-13.514,1.544l10.676,8.428L74.703,314.719z M51.034,305.886l18.773,5.343
			l-8.182-6.553L51.034,305.886z M62.278,302.5l10.437-1.255l-18.865-5.369L62.278,302.5z"/>
	</g>
	<g>
		<path fill="none" stroke="#000000" stroke-miterlimit="10" d="M73.094,321.452l-0.55,2.336l-29.588-6.968l0.55-2.336
			L73.094,321.452z"/>
	</g>
	<g>
		<path fill="none" stroke="#000000" stroke-miterlimit="10" d="M68.764,342.341l-0.443,2.359l-12.58-2.359l10.074-10.319
			l-20.442-3.833l5.65,13.269l-12.579-2.359l0.442-2.359l7.862,1.475l-5.65-13.268l29.876,5.603l-10.074,10.318L68.764,342.341z"/>
	</g>
	<g>
		<path fill="none" stroke="#000000" stroke-miterlimit="10" d="M67.34,351.521l-0.334,2.377l-30.102-4.233l0.334-2.377
			L67.34,351.521z"/>
	</g>
	<g>
		<path fill="none" stroke="#000000" stroke-miterlimit="10" d="M55.528,374.281l-21.085-2.022l0.226-2.391l17.043,1.61l-4.733-12.5
			l19.085,1.771l-0.229,2.422l-15.068-1.424l0.029,0.034L55.528,374.281z"/>
	</g>
	<g>
		<path fill="none" stroke="#000000" stroke-miterlimit="10" d="M64.345,382.035l-0.117,2.397l-30.362-1.488l0.118-2.397
			L64.345,382.035z"/>
	</g>
	<g>
		<path fill="none" stroke="#000000" stroke-miterlimit="10" d="M33.546,394.519l0.039-2.4l30.394,0.493l-0.039,2.4l-16.38-0.266
			l-14.193,10.842l0.05-3.071l10.784-7.825L33.546,394.519z"/>
	</g>
	<g>
		<path fill="none" stroke="#000000" stroke-miterlimit="10" d="M64.108,412.675l0.097,2.398l-30.373,1.232l-0.097-2.398
			L64.108,412.675z"/>
	</g>
	<g>
		<path fill="none" stroke="#000000" stroke-miterlimit="10" d="M34.77,430.997l17.917-1.539l2.006-5.054l2.773-0.239l-1.942,5.049
			l9.532-0.819l0.206,2.392l-10.744,0.924l-1.975,5.05l-2.806,0.241l1.975-5.05l-16.737,1.438L34.77,430.997z"/>
	</g>
	<g>
		<path fill="none" stroke="#000000" stroke-miterlimit="10" d="M35.706,441.279l8.914,2.244l6.259-3.439l7.765,1.363l7.224-3.955
			l0.289,2.189l-11.427,6.348l12.682,3.168l0.298,2.253l-8.938-2.177l-5.899,3.231l-7.403-1.314l-7.88,4.364l-0.314-2.38
			l11.585-6.37l-12.841-3.146L35.706,441.279z M47.657,444.285l4.035,0.985l3.765-2.047l-4.264-0.76L47.657,444.285z
			 M51.935,447.594l-3.97,2.202l4.296,0.757l3.542-2.018L51.935,447.594z"/>
	</g>
	<g>
		<path fill="none" stroke="#000000" stroke-miterlimit="10" d="M70.587,467.58l0.537,2.372l-0.499,0.113l-9.142,6.861l11.317,2.455
			l0.437-0.099l0.538,2.371l-29.654,6.686l-0.53-2.341l24.896-5.673l-11.133-2.366l9.026-6.934l-24.903,5.642l-0.53-2.341
			L70.587,467.58z"/>
	</g>
	<g>
		<path fill="none" stroke="#000000" stroke-miterlimit="10" d="M45.318,492.887l-0.637-2.314l29.307-8.068l0.637,2.314
			l-0.031,0.008l-2.553,13.148l-2.715,0.747l2.584-13.156L45.318,492.887z"/>
	</g>
	<g>
		<path fill="none" stroke="#000000" stroke-miterlimit="10" d="M79.937,502.986l0.743,2.282l-28.905,9.409l-0.743-2.282
			L79.937,502.986z"/>
	</g>
	<g>
		<path fill="none" stroke="#000000" stroke-miterlimit="10" d="M78.192,528.983l3.506-7.752l-24.341,9.18l-0.847-2.246
			l24.311-9.168l-7.71-3.486l2.994-1.129l9.277,4.195l-4.196,9.277L78.192,528.983z"/>
	</g>
	<g>
		<path fill="none" stroke="#000000" stroke-miterlimit="10" d="M92.378,557.27l-19.064,9.232l-1.049-2.159l15.396-7.483
			l-10.541-8.218l17.224-8.408l1.063,2.188l-13.612,6.616l0.042,0.015L92.378,557.27z"/>
	</g>
	<g>
		<path fill="none" stroke="#000000" stroke-miterlimit="10" d="M101.07,554.024l1.162,2.136l-0.45,0.244l-6.931,9.089l11.559-0.714
			l0.394-0.214l1.162,2.136l-26.719,14.497l-1.147-2.108l22.416-12.229l-11.357,0.75l6.801-9.127l-22.431,12.201l-1.146-2.107
			L101.07,554.024z"/>
	</g>
	<g>
		<path fill="none" stroke="#000000" stroke-miterlimit="10" d="M115.867,579.808l-26.013,15.729l-1.043-1.726l7.915-10.843
			l-13.295,1.944l-1.011-1.671l25.996-15.756l1.043,1.725l-8.079,10.942l13.442-2.07L115.867,579.808z M98.457,580.575l6.195-8.494
			l-16.785,10.148L98.457,580.575z M93.274,591.111l16.702-10.099l-10.371,1.521L93.274,591.111z"/>
	</g>
	<g>
		<path fill="none" stroke="#000000" stroke-miterlimit="10" d="M133.438,604.909l-24.476,18.027l-1.195-1.624l6.896-11.518
			l-13.063,3.145l-1.157-1.571l24.456-18.054l1.195,1.623l-7.051,11.632l13.199-3.284L133.438,604.909z M116.171,607.255
			l5.396-9.021l-15.793,11.632L116.171,607.255z M111.967,618.22l15.716-11.575l-10.19,2.459L111.967,618.22z"/>
	</g>
	<g>
		<path fill="none" stroke="#000000" stroke-miterlimit="10" d="M117.688,633.806l3.565-8.565l-9.12,1.7l-1.751-2.165l12.002-2.26
			l4.048-9.697l12.11-1.565l-4.059,11.517l-10.329,1.936l-4.715,11.265L117.688,633.806z M125.283,621.979l7.428-1.399l2.397-6.55
			l-6.905,0.978L125.283,621.979z"/>
	</g>
	<g>
		<path fill="none" stroke="#000000" stroke-miterlimit="10" d="M153.857,629.008l1.694,1.744l-0.367,0.356l-4.228,10.62
			l10.939-3.802l0.321-0.312l1.694,1.744l-21.826,21.157l-1.672-1.722l18.293-17.814l-10.735,3.781l4.092-10.621l-18.315,17.791
			l-1.672-1.721L153.857,629.008z"/>
	</g>
	<g>
		<path fill="none" stroke="#000000" stroke-miterlimit="10" d="M168.928,644.104l1.748,1.645l-20.822,22.147l-1.748-1.645
			L168.928,644.104z"/>
	</g>
	<g>
		<path fill="none" stroke="#000000" stroke-miterlimit="10" d="M175.508,673.219l-8.461,9.858l-1.578-1.354l8.211-9.566
			l4.109-10.684l-1.258-7.573l-0.292-0.251l-18.443,21.488l-1.846-1.583l19.798-23.066l2.72,2.334l1.448,8.875L175.508,673.219z"/>
	</g>
	<g>
		<path fill="none" stroke="#000000" stroke-miterlimit="10" d="M193.085,676.608l-13.077,16.664l-1.891-1.479l10.549-13.482
			l-13.078-2.756l11.785-15.116l1.916,1.499l-9.326,11.92l0.044-0.006L193.085,676.608z"/>
	</g>
	<g>
		<path fill="none" stroke="#000000" stroke-miterlimit="10" d="M211.205,678.229l-17.626,24.767l-1.643-1.169l4.86-6.83
			l0.958-10.118l-9.404,4.106l-4.886,6.813l-1.617-1.15l17.626-24.766l1.617,1.15l-1.214,10.644l9.66-4.634l0.025,0.02
			L211.205,678.229z M197.854,682.474l0.917-8.185l-8.368,11.758L197.854,682.474z M198.894,692.05l8.35-11.731l-7.407,3.565
			L198.894,692.05z"/>
	</g>
	<g>
		<path fill="none" stroke="#000000" stroke-miterlimit="10" d="M205.258,710.594l0.714-9.25l-8.134,4.463l-2.34-1.51l10.696-5.894
			l0.818-10.478l11.016-5.268l-0.26,12.207l-9.209,5.064l-0.962,12.174L205.258,710.594z M208.782,696.988l6.62-3.649l0.232-6.972
			l-6.255,3.086L208.782,696.988z"/>
	</g>
	<g>
		<path fill="none" stroke="#000000" stroke-miterlimit="10" d="M237.316,694.296l-15.3,26.267l-1.742-1.015l1.753-13.31
			l-10.738,8.076l-1.688-0.982l15.272-26.283l1.741,1.014l-1.85,13.477l10.809-8.258L237.316,694.296z M222.401,703.309
			l1.369-10.422l-9.872,16.949L222.401,703.309z M222.899,715.041l9.824-16.866l-8.376,6.306L222.899,715.041z"/>
	</g>
	<g>
		<path fill="none" stroke="#000000" stroke-miterlimit="10" d="M260.386,717.335l-2.913-7.993l-10.984,23.582l-2.176-1.014
			l10.971-23.553l-7.95,2.897l1.352-2.9l9.565-3.487l3.487,9.567L260.386,717.335z"/>
	</g>
	<g>
		<path fill="none" stroke="#000000" stroke-miterlimit="10" d="M265.614,708.275l2.249,0.926l-0.195,0.473l0.354,11.425l8.52-7.845
			l0.171-0.415l2.249,0.925l-11.589,28.103l-2.22-0.913l9.68-23.628l-8.34,7.745l-0.479-11.371l-9.71,23.615l-2.22-0.912
			L265.614,708.275z"/>
	</g>
	<g>
		<path fill="none" stroke="#000000" stroke-miterlimit="10" d="M293.35,718.942l-10.257,28.615l-1.898-0.68l2.829-7.893
			l-1.82-9.999l-7.939,6.501l-2.858,7.882l-1.868-0.67l10.257-28.615l1.868,0.669l1.717,10.575l8.043-7.077l0.029,0.011
			L293.35,718.942z M281.648,726.646l-1.336-8.127l-4.869,13.585L281.648,726.646z M285.243,735.582l4.858-13.555l-6.164,5.438
			L285.243,735.582z"/>
	</g>
	<g>
		<path fill="none" stroke="#000000" stroke-miterlimit="10" d="M305.702,722.76l2.295,0.705l-3.76,12.234l-9.12-11.171
			l-6.109,19.881l13.819-4.122l-3.76,12.234l-2.295-0.705l2.351-7.646l-13.82,4.122l8.93-29.057l9.12,11.171L305.702,722.76z"/>
	</g>
	<g>
		<path fill="none" stroke="#000000" stroke-miterlimit="10" d="M312.537,756.049l-2.24-9.004l-6.312,6.8l-2.695-0.694l8.292-8.967
			l-2.526-10.2l8.791-8.474l3.604,11.668l-7.142,7.709l2.925,11.856L312.537,756.049z M311.591,742.025l5.132-5.551l-1.978-6.688
			l-4.963,4.9L311.591,742.025z"/>
	</g>
	<g>
		<path fill="none" stroke="#000000" stroke-miterlimit="10" d="M327.054,742.926l4.555,17.298l-2.35-0.491l-5.172-18.245
			l6.919-1.821l-5.548-8.483l-5.563,26.591l-2.381-0.498l6.226-29.754l1.473,0.308l0.908,0.19l0.094,0.02l8.543,13.229
			L327.054,742.926z"/>
	</g>
	<g>
		<path fill="none" stroke="#000000" stroke-miterlimit="10" d="M359.826,733.753l2.385,0.275l-3.482,30.197l-2.385-0.274
			L359.826,733.753z"/>
	</g>
	<g>
		<path fill="none" stroke="#000000" stroke-miterlimit="10" d="M373.386,765.57l1.249-17.938l-4.684-2.764l0.193-2.777l4.688,2.7
			l0.664-9.545l2.395,0.167l-0.748,10.757l4.685,2.732l-0.195,2.809l-4.686-2.731l-1.166,16.758L373.386,765.57z"/>
	</g>
	<g>
		<path fill="none" stroke="#000000" stroke-miterlimit="10" d="M386.872,766.313l-2.399-0.059l0.743-30.389l2.399,0.059
			l-0.4,16.378l10.726,14.282l-3.072-0.075l-7.735-10.848L386.872,766.313z"/>
	</g>
	<g>
		<path fill="none" stroke="#000000" stroke-miterlimit="10" d="M405.561,736.08l2.4-0.047l0.6,30.392l-2.4,0.047L405.561,736.08z"
			/>
	</g>
	<g>
		<path fill="none" stroke="#000000" stroke-miterlimit="10" d="M429.27,734.947l1.965,30.334l-2.013,0.13l-5.974-12.022
			l-4.403,12.695l-1.947,0.126l-1.997-30.333l2.011-0.13l5.985,12.214l4.36-12.884L429.27,734.947z M421.924,750.75l-4.682-9.413
			l1.268,19.573L421.924,750.75z M428.885,760.207l-1.262-19.479l-3.431,9.906L428.885,760.207z"/>
	</g>
	<g>
		<path fill="none" stroke="#000000" stroke-miterlimit="10" d="M436.139,734.208l2.386-0.263l3.336,30.214l-2.386,0.263
			L436.139,734.208z"/>
	</g>
	<g>
		<path fill="none" stroke="#000000" stroke-miterlimit="10" d="M459.642,730.932l4.71,30.031l-1.992,0.313l-7.04-11.431
			l-3.233,13.041l-1.929,0.303l-4.741-30.026l1.991-0.312l7.069,11.62l3.173-13.227L459.642,730.932z M453.761,747.336l-5.517-8.949
			l3.039,19.379L453.761,747.336z M461.552,756.122l-3.024-19.282l-2.518,10.176L461.552,756.122z"/>
	</g>
	<g>
		<path fill="none" stroke="#000000" stroke-miterlimit="10" d="M478.366,744.896l2.599,12.729l-2.038,0.416l-2.521-12.352
			l-5.919-9.798l-6.753-3.651l-0.377,0.078l5.663,27.745l-2.382,0.486l-6.079-29.783l3.511-0.717l7.899,4.298L478.366,744.896z"/>
	</g>
	<g>
		<path fill="none" stroke="#000000" stroke-miterlimit="10" d="M489.208,755.59l-4.401-17.436l-5.311-1.168l-0.682-2.699
			l5.296,1.105l-2.342-9.275l2.327-0.588l2.639,10.455l5.304,1.137l0.689,2.73l-5.304-1.137l4.111,16.288L489.208,755.59z"/>
	</g>
	<g>
		<path fill="none" stroke="#000000" stroke-miterlimit="10" d="M507.207,729.705l-7.497-4.02l7.519,24.904l-2.298,0.693
			l-7.51-24.874l-3.999,7.458l-0.925-3.063l4.812-8.973l8.974,4.812L507.207,729.705z"/>
	</g>
	<g>
		<path fill="none" stroke="#000000" stroke-miterlimit="10" d="M539.637,724.973l4.882,12.04l-1.928,0.781l-4.737-11.683
			l-7.61-8.551l-7.307-2.354l-0.357,0.145l10.641,26.243l-2.253,0.913l-11.422-28.17l3.321-1.347l8.552,2.782L539.637,724.973z"/>
	</g>
	<g>
		<path fill="none" stroke="#000000" stroke-miterlimit="10" d="M551.144,712l-7.979-2.952l10.868,23.635l-2.181,1.003
			l-10.855-23.605l-2.937,7.936l-1.337-2.906l3.533-9.549l9.55,3.532L551.144,712z"/>
	</g>
	<g>
		<path fill="none" stroke="#000000" stroke-miterlimit="10" d="M578.489,720.238l-2.08,1.197l-15.17-26.342l2.08-1.197l0.016,0.027
			l13.368-0.83l1.405,2.439l-13.384,0.804L578.489,720.238z"/>
	</g>
	<g>
		<path fill="none" stroke="#000000" stroke-miterlimit="10" d="M580.998,693.116l13.388-1.446l1.306,2.164l-13.333,1.413
			l10.536,16.506l-2.022,1.291l-16.355-25.622l2.022-1.291l0.017,0.026l13.316-1.439l1.516,2.374l-13.334,1.412L580.998,693.116z"/>
	</g>
	<g>
		<path fill="none" stroke="#000000" stroke-miterlimit="10" d="M602.678,675.729l1.621,2.303l-4.055,10.411l10.239-1.577
			l1.437,2.04l-5.019,13.711L604.938,704l-17.505-24.852l1.963-1.383L602.678,675.729z M590.778,679.728l6.468,9.183l0.662-0.114
			l3.933-10.754L590.778,679.728z M599.354,690.791l-0.283,0.709l6.449,9.155l4.163-11.425L599.354,690.791z"/>
	</g>
	<g>
		<path fill="none" stroke="#000000" stroke-miterlimit="10" d="M627.741,687.23l-8.487-3.746l1.505,9.154l-2.2,1.705l-2.005-12.046
			l-9.609-4.254l-1.309-12.141l11.428,4.303l1.717,10.367l11.162,4.952L627.741,687.23z M616.079,679.387l-1.242-7.456l-6.497-2.536
			l0.831,6.925L616.079,679.387z"/>
	</g>
	<g>
		<path fill="none" stroke="#000000" stroke-miterlimit="10" d="M626.253,667.731l16.458,7.011l-1.829,1.555l-17.584-7.103
			l2.804-6.583l-10.104-0.819l17.593,20.7l-1.853,1.575l-19.686-23.163l1.146-0.975l0.706-0.601l0.074-0.063l15.689,1.363
			L626.253,667.731z"/>
	</g>
	<g>
		<path fill="none" stroke="#000000" stroke-miterlimit="10" d="M623.742,650.943l1.779-1.657l0.349,0.375l10.528,4.45l-3.57-11.017
			l-0.306-0.328l1.78-1.657l20.693,22.267l-1.757,1.636l-17.426-18.664l3.555,10.813l-10.532-4.314l17.402,18.686l-1.756,1.636
			L623.742,650.943z"/>
	</g>
	<g>
		<path fill="none" stroke="#000000" stroke-miterlimit="10" d="M645.654,629.532l1.622-1.812l0.381,0.342l10.888,3.479
			l-4.553-10.648l-0.333-0.299l1.623-1.812l22.621,20.305l-1.602,1.788l-19.041-17.013l4.518,10.447l-10.879-3.345l19.02,17.036
			l-1.601,1.787L645.654,629.532z"/>
	</g>
	<g>
		<path fill="none" stroke="#000000" stroke-miterlimit="10" d="M673.039,613.519l-8.466,0.852l20.146,16.46l-1.519,1.859
			l-20.12-16.439l0.848,8.419l-2.479-2.024l-1.02-10.13l10.131-1.021L673.039,613.519z"/>
	</g>
	<g>
		<path fill="none" stroke="#000000" stroke-miterlimit="10" d="M682.75,581.969l25.188,17.019l-1.129,1.671l-13.163-2.638
			l7.342,11.254l-1.094,1.617L674.688,593.9l1.128-1.671l13.322,2.745l-7.518-11.335L682.75,581.969z M690.748,597.452
			l-10.309-2.062l16.253,10.982L690.748,597.452z M702.486,597.738l-16.172-10.928l5.731,8.777L702.486,597.738z"/>
	</g>
	<g>
		<path fill="none" stroke="#000000" stroke-miterlimit="10" d="M715.259,587.114l-9.266-0.488l4.659,8.022l-1.451,2.376
			l-6.152-10.55l-10.494-0.563l-5.536-10.884l12.211-0.038l5.286,9.083l12.194,0.665L715.259,587.114z M701.57,583.923l-3.81-6.528
			l-6.975-0.063l3.237,6.177L701.57,583.923z"/>
	</g>
	<g>
		<path fill="none" stroke="#000000" stroke-miterlimit="10" d="M719.023,580.643l-1.156,2.104l-26.633-14.654l1.157-2.104
			l0.028,0.016l10.998-7.644l2.468,1.357l-11.027,7.628L719.023,580.643z"/>
	</g>
	<g>
		<path fill="none" stroke="#000000" stroke-miterlimit="10" d="M731.005,557.656l-9.271,0.359l5.371,7.563l-1.229,2.498
			l-7.09-9.943l-10.502,0.396l-6.504-10.333l12.156-1.152l6.092,8.563l12.205-0.45L731.005,557.656z M717.083,555.728l-4.39-6.155
			l-6.951,0.574l3.787,5.856L717.083,555.728z"/>
	</g>
	<g>
		<path fill="none" stroke="#000000" stroke-miterlimit="10" d="M721.11,540.782l17.863-0.934l-0.96,2.199l-18.916,1.347
			l-0.373-7.146l-9.436,3.704l24.898,10.864l-0.973,2.229l-27.861-12.157l0.602-1.378l0.371-0.851l0.039-0.089l14.691-5.669
			L721.11,540.782z"/>
	</g>
	<g>
		<path fill="none" stroke="#000000" stroke-miterlimit="10" d="M711.465,526.833l0.869-2.271l0.479,0.183l11.412-0.635
			l-8.053-8.322l-0.418-0.16l0.869-2.271l28.379,10.895l-0.858,2.242l-23.859-9.098l7.948,8.147l-11.356,0.758l23.848,9.127
			l-0.857,2.241L711.465,526.833z"/>
	</g>
	<g>
		<path fill="none" stroke="#000000" stroke-miterlimit="10" d="M725.604,484.106l29.267,8.214l-0.545,1.941l-8.071-2.265
			l-9.847,2.521l7.045,7.462l8.063,2.294l-0.536,1.911l-29.267-8.214l0.536-1.911l10.428-2.456l-7.627-7.525l0.01-0.03
			L725.604,484.106z M734.111,495.236l-8.013,1.904l13.895,3.899L734.111,495.236z M742.772,491.02l-13.863-3.891l5.859,5.765
			L742.772,491.02z"/>
	</g>
	<g>
		<path fill="none" stroke="#000000" stroke-miterlimit="10" d="M734.45,482.737l8.552-10.4l2.448,0.632l-8.537,10.34l19.077,4.419
			l-0.542,2.338l-29.613-6.86l0.542-2.338l0.031,0.008l8.506-10.347l2.743,0.636l-8.537,10.339L734.45,482.737z"/>
	</g>
	<g>
		<path fill="none" stroke="#000000" stroke-miterlimit="10" d="M759.17,473.759l-7.789-4.88l-7.015,1.346l-6.968-3.688
			l-8.091,1.539l0.399-2.172l12.826-2.522l-11.092-6.918l0.411-2.235l7.833,4.823l6.607-1.258l6.639,3.53l8.842-1.728l-0.435,2.361
			l-12.983,2.494l11.248,6.946L759.17,473.759z M748.725,467.219l-3.536-2.179l-4.212,0.788l3.823,2.036L748.725,467.219z
			 M745.674,462.754l4.455-0.873l-3.854-2.042l-3.992,0.828L745.674,462.754z"/>
	</g>
	<g>
		<path fill="none" stroke="#000000" stroke-miterlimit="10" d="M763.005,450.98l-17.816-2.439l-3.069,4.488l-2.758-0.377
			l3.006-4.497l-9.479-1.298l0.325-2.379l10.684,1.463l3.037-4.493l2.79,0.382l-3.037,4.493l16.643,2.278L763.005,450.98z"/>
	</g>
	<g>
		<path fill="none" stroke="#000000" stroke-miterlimit="10" d="M742.551,436.351l7.05-11.472l2.512,0.292l-7.044,11.408
			l19.502,1.771l-0.217,2.391l-30.273-2.749l0.217-2.391l0.032,0.003l7.013-11.411l2.804,0.255l-7.044,11.408L742.551,436.351z"/>
	</g>
	<g>
		<path fill="none" stroke="#000000" stroke-miterlimit="10" d="M744.49,405.122l5.787-12.159l2.529,0.022l-5.789,12.096
			l19.58-0.317l0.039,2.399l-30.394,0.492l-0.039-2.399h0.032l5.756-12.095l2.815-0.046l-5.788,12.095L744.49,405.122z"/>
	</g>
	<g>
		<path fill="none" stroke="#000000" stroke-miterlimit="10" d="M766.371,388.352l0.105,2.397l-30.368,1.34l-0.105-2.397
			l0.031-0.001l5.417-12.25l2.813-0.124l-5.448,12.251L766.371,388.352z"/>
	</g>
	<g>
		<path fill="none" stroke="#000000" stroke-miterlimit="10" d="M734.876,370.789l-0.215-2.392l30.276-2.713l0.215,2.392
			L734.876,370.789z"/>
	</g>
	<g>
		<path fill="none" stroke="#000000" stroke-miterlimit="10" d="M732.088,347.229l30.123-4.085l0.322,2.378l-15.062,2.043
			l-5.585,12.866l-9.459-10.697l-0.017-0.127L732.088,347.229z M744.65,347.947l-9.101,1.234l5.863,7.277L744.65,347.947z"/>
	</g>
	<g>
		<path fill="none" stroke="#000000" stroke-miterlimit="10" d="M746.443,328.812l12.779-2.332l0.373,2.046l-12.402,2.264
			l-9.918,5.714l-3.791,6.676l0.069,0.378l27.857-5.084l0.437,2.393l-29.904,5.457l-0.643-3.526l4.462-7.808L746.443,328.812z"/>
	</g>
	<g>
		<path fill="none" stroke="#000000" stroke-miterlimit="10" d="M736.707,327.039l3.123-13.097l2.478-0.506l-3.138,13.035
			l19.083-4.396l0.539,2.34l-29.622,6.823l-0.539-2.34l0.031-0.007l3.106-13.028l2.744-0.633l-3.138,13.036L736.707,327.039z"/>
	</g>
	<g>
		<path fill="none" stroke="#000000" stroke-miterlimit="10" d="M733.523,282.228l12.339-4.065l0.651,1.976l-11.975,3.945
			l-9.039,7.022l-2.838,7.133l0.12,0.365l26.896-8.862l0.761,2.31l-28.87,9.513l-1.122-3.404l3.348-8.347L733.523,282.228z"/>
	</g>
	<g>
		<path fill="none" stroke="#000000" stroke-miterlimit="10" d="M721.34,269.851l-3.479,7.765l24.308-9.269l0.854,2.243
			l-24.277,9.257l7.724,3.459l-2.989,1.141l-9.293-4.163l4.162-9.292L721.34,269.851z"/>
	</g>
	<g>
		<path fill="none" stroke="#000000" stroke-miterlimit="10" d="M705.135,258.637l-1.071-2.184l0.46-0.226l7.307-8.788
			l-11.578,0.228l-0.402,0.197l-1.07-2.184l27.304-13.359l1.058,2.155l-22.91,11.274l11.379-0.271l-7.18,8.832l22.924-11.246
			l1.057,2.154L705.135,258.637z"/>
	</g>
	<g>
		<path fill="none" stroke="#000000" stroke-miterlimit="10" d="M721.94,224.658l-15.766,8.649l0.208,5.434l-2.441,1.339
			l-0.264-5.402l-8.387,4.602l-1.155-2.104l9.454-5.187l-0.235-5.418l2.469-1.354l0.235,5.418l14.727-8.08L721.94,224.658z"/>
	</g>
	<g>
		<path fill="none" stroke="#000000" stroke-miterlimit="10" d="M687.868,226.362l-1.249-2.05l25.955-15.821l1.249,2.05
			L687.868,226.362z"/>
	</g>
	<g>
		<path fill="none" stroke="#000000" stroke-miterlimit="10" d="M674.942,206.461l25.209-16.986l1.127,1.673l-6.952,4.685
			l-4.454,9.136l10.247-0.538l6.97-4.659l1.108,1.646l-25.209,16.986l-1.108-1.646l4.879-9.538l-10.672,0.94l-0.018-0.025
			L674.942,206.461z M691.328,197.853l-11.941,8.046l8.188-0.734L691.328,197.853z M688.934,207.182l-3.736,7.34l11.968-8.063
			L688.934,207.182z"/>
	</g>
	<g>
		<path fill="none" stroke="#000000" stroke-miterlimit="10" d="M670.157,186.302l-2.982-13.131l2-1.547l2.941,13.081l15.181-12.371
			l1.517,1.861l-23.564,19.203l-1.517-1.861l0.025-0.021l-2.967-13.061l2.183-1.778l2.942,13.081L670.157,186.302z"/>
	</g>
	<g>
		<path fill="none" stroke="#000000" stroke-miterlimit="10" d="M645.945,170.779l22.668-20.253l1.344,1.504l-5.781,12.116
			l12.709-4.362l1.301,1.456l-22.646,20.277l-1.343-1.503l5.923-12.244l-12.83,4.513L645.945,170.779z M666.067,155.506
			l-14.556,13.004l9.914-3.408L666.067,155.506z M662.915,166.817l-4.522,9.489l14.627-13.068L662.915,166.817z"/>
	</g>
</g>
<circle fill="none" stroke="#000000" stroke-width="6" stroke-miterlimit="10" cx="400" cy="400" r="335.217"/>
<circle fill="none" stroke="#000000" stroke-width="6" stroke-miterlimit="10" cx="400" cy="400" r="310"/>
<ellipse fill="none" stroke="#000000" stroke-width="2" stroke-miterlimit="10" cx="391.261" cy="391.743" rx="321.739" ry="321.257"/>
<ellipse transform="matrix(-0.7083 0.7059 -0.7059 -0.7083 985.9894 391.9223)" fill="none" stroke="#000000" stroke-width="2" stroke-miterlimit="10" cx="412.018" cy="399.68" rx="321.739" ry="321.257"/>
<polygon fill="none" points="418.175,498.652 692.566,498.652 561.262,691.652 418.175,691.652 "/>
<text transform="matrix(1 0 0 1 418.1748 507.4277)"><tspan x="0" y="0" font-family="'RuneAMN_SansHumanicLike'" font-size="9">Lorem ipsum dolor sit amet consectetur adipisicing elit sed </tspan><tspan x="0" y="15.75" font-family="'RuneAMN_SansHumanicLike'" font-size="9">do eiusmod tempor incididunt ut labore et dolore magna </tspan><tspan x="0" y="32.121" font-family="'RuneAMN_SansHumanicLike'" font-size="9">aliqua Ut enim ad minim veniam</tspan><tspan x="135" y="30.879" font-family="'RuneAssignMN_Sans'" font-size="9">,</tspan><tspan x="136.863" y="32.121" font-family="'RuneAMN_SansHumanicLike'" font-size="9"> quis nostrud </tspan><tspan x="0" y="47.25" font-family="'RuneAMN_SansHumanicLike'" font-size="9">exercitation ullamco laboris nisi ut aliquip ex ea </tspan><tspan x="0" y="63" font-family="'RuneAMN_SansHumanicLike'" font-size="9">commodo consequat Duis aute irure dolor in </tspan><tspan x="0" y="78.75" font-family="'RuneAMN_SansHumanicLike'" font-size="9">reprehenderit in voluptate velit esse cillum </tspan><tspan x="0" y="94.5" font-family="'RuneAMN_SansHumanicLike'" font-size="9">dolore eu fugiat nulla pariatur Excepteur </tspan><tspan x="0" y="110.25" font-family="'RuneAMN_SansHumanicLike'" font-size="9">sint occaecat cupidatat non proident sunt </tspan><tspan x="0" y="126" font-family="'RuneAMN_SansHumanicLike'" font-size="9">in culpa qui officia deserunt mollit </tspan><tspan x="0" y="141.75" font-family="'RuneAMN_SansHumanicLike'" font-size="9">anim id est laborum</tspan></text>
<ellipse transform="matrix(0.7797 0.6261 -0.6261 0.7797 269.712 -123.5775)" fill="none" stroke="#000000" stroke-width="3" stroke-miterlimit="10" cx="310.48" cy="321.517" rx="186.369" ry="244.107"/>
<defs>
	<filter id="Adobe_OpacityMaskFilter" filterUnits="userSpaceOnUse" x="93.277" y="87.886" width="431.283" height="466.293">
		
			<feColorMatrix  type="matrix" values="-1 0 0 0 1  0 -1 0 0 1  0 0 -1 0 1  0 0 0 1 0" color-interpolation-filters="sRGB" result="source"/>
	</filter>
</defs>
<mask maskUnits="userSpaceOnUse" x="93.277" y="87.886" width="431.283" height="466.293" id="SVGID_1_">
	<g filter="url(#Adobe_OpacityMaskFilter)">
		<defs>
			<filter id="Adobe_OpacityMaskFilter_1_" filterUnits="userSpaceOnUse" x="99.583" y="98.228" width="421.795" height="446.579">
				<feFlood  style="flood-color:white;flood-opacity:1" result="back"/>
				<feBlend  in="SourceGraphic" in2="back" mode="normal"/>
			</filter>
		</defs>
		<mask maskUnits="userSpaceOnUse" x="99.583" y="98.228" width="421.795" height="446.579" id="SVGID_1_">
			<g filter="url(#Adobe_OpacityMaskFilter_1_)">
			</g>
		</mask>
		
			<ellipse transform="matrix(0.7797 0.6261 -0.6261 0.7797 269.712 -123.5775)" mask="url(#SVGID_1_)" cx="310.48" cy="321.517" rx="186.369" ry="244.107"/>
	</g>
</mask>
<polygon fill="none" stroke="#000000" stroke-width="3" stroke-miterlimit="10" points="370.404,98.308 130.398,483 477.87,144.602 
	100.288,388.435 515.499,316.237 132.51,254.26 386.847,501.806 225.306,143.881 234.738,544.807 "/>
</svg>
