<?xml version="1.0" encoding="iso-8859-1"?>
<!-- Generator: Adobe Illustrator 15.0.0, SVG Export Plug-In . SVG Version: 6.00 Build 0)  -->
<!DOCTYPE svg PUBLIC "-//W3C//DTD SVG 1.1//EN" "http://www.w3.org/Graphics/SVG/1.1/DTD/svg11.dtd">
<svg version="1.1" id="&#x30EC;&#x30A4;&#x30E4;&#x30FC;_1"
	 xmlns="http://www.w3.org/2000/svg" xmlns:xlink="http://www.w3.org/1999/xlink" x="0px" y="0px" width="800px" height="800px"
	 viewBox="0 0 800 800" style="enable-background:new 0 0 800 800;" xml:space="preserve">
<g>
	<path style="fill:none;stroke:#000000;stroke-miterlimit:10;" d="M420.092,737.884l-1.689,1.69l-0.116-0.116
		c0,0,0.482-0.482,0.116-0.85l-8.211-8.21c-0.366-0.367-0.84,0.126-0.84,0.126l-0.116-0.116l1.208-1.207l5.061-1.449l0.725,0.725
		l-0.116,0.116c-0.299-0.3-0.733-0.483-1.091-0.357l-4.289,1.255l8.394,8.394c0.367,0.367,0.851-0.115,0.851-0.115L420.092,737.884z
		"/>
	<path style="fill:none;stroke:#000000;stroke-miterlimit:10;" d="M421.971,729.167l-3.738-1.42l-1.699-4.945l4.027,1.497
		l1.381,4.009l5.332,1.97c0.241-0.048,0.435-0.241,0.435-0.241l0.126,0.126l-1.333,1.333l-0.126-0.126c0,0,0.203-0.203,0.251-0.444
		l-4.346-1.642l1.594,4.452c0.279-0.01,0.453-0.318,0.453-0.318l0.126,0.125l-0.966,0.966l-0.116-0.135c0,0,0.193-0.174,0.251-0.405
		L421.971,729.167z M420.618,725.13l-3.447-1.305l1.062,3.053l3.43,1.284L420.618,725.13z"/>
	<path style="fill:none;stroke:#000000;stroke-miterlimit:10;" d="M432.779,724.984l0.115,0.116l-0.356,0.357l-7.959-2.415
		l0.531-4.607l-4.511,1.131l8.432,8.432c0.367,0.367,0.851-0.115,0.851-0.115l0.115,0.115l-0.482,0.483l-0.725,0.725l-0.483,0.482
		l-0.115-0.116c0,0,0.463-0.463,0.135-0.83L420,720.436c-0.348-0.213-0.753,0.193-0.753,0.193l-0.116-0.116l0.474-0.474l0.715-0.715
		l0.02-0.038l5.196-1.313l-0.57,4.839l7.331,2.289C432.596,725.148,432.692,725.071,432.779,724.984z"/>
	<path style="fill:none;stroke:#000000;stroke-miterlimit:10;" d="M427.455,712.188l1.207-1.207l0.116,0.116
		c0,0-0.405,0.405-0.193,0.753l8.287,8.307c0.367,0.367,0.851-0.116,0.851-0.116l0.115,0.116l-1.689,1.69l-0.116-0.116
		c0,0,0.482-0.482,0.116-0.85l-7.988-7.949l1.941,4.086l-4.104-1.941l7.978,7.978c0.367,0.367,0.851-0.115,0.851-0.115l0.115,0.115
		l-1.69,1.69l-0.115-0.116c0,0,0.482-0.482,0.115-0.85l-8.307-8.287c-0.348-0.213-0.753,0.193-0.753,0.193l-0.116-0.116l1.208-1.207
		l0.105,0.105l4.231,2.067l-2.067-4.25L427.455,712.188z"/>
	<path style="fill:none;stroke:#000000;stroke-miterlimit:10;" d="M432.405,707.219l1.217-1.217l0.126,0.126
		c0,0-0.377,0.376-0.251,0.733l8.335,8.316c0.367,0.367,0.851-0.115,0.851-0.115l0.115,0.115l-1.689,1.69l-0.116-0.116
		c0,0,0.474-0.473,0.106-0.84l-1.923-1.941l-4.104-1.922l1.932,4.095l1.932,1.932c0.367,0.367,0.851-0.115,0.851-0.115l0.115,0.115
		l-1.69,1.69l-0.115-0.115c0,0,0.473-0.474,0.106-0.841l-8.288-8.287c-0.396-0.164-0.753,0.193-0.753,0.193l-0.126-0.126
		l1.208-1.207l4.191,2.028L432.405,707.219z M434.579,711.807l-3.604-1.689l5.313,5.312L434.579,711.807z M433.159,707.973
		l1.681,3.573l3.612,1.7L433.159,707.973z"/>
	<path style="fill:none;stroke:#000000;stroke-miterlimit:10;" d="M441.943,698.667l8.21,8.21c0.367,0.366,0.85-0.116,0.85-0.116
		l0.116,0.116l-1.69,1.689l-0.116-0.115c0,0,0.483-0.483,0.116-0.851l-8.21-8.21c-0.367-0.366-0.85,0.116-0.85,0.116l-0.116-0.116
		l1.69-1.689l0.115,0.115C442.059,697.816,441.576,698.3,441.943,698.667z"/>
	<path style="fill:none;stroke:#000000;stroke-miterlimit:10;" d="M447.865,691.779l0.482-0.483l0.116,0.116
		c0,0-0.483,0.482-0.116,0.85l2.656,2.656l-5.641,0.889l7.641,7.64l0.888-5.621l2.656,2.656c0.367,0.367,0.851-0.116,0.851-0.116
		l0.115,0.116l-1.689,1.69l-0.116-0.116c0,0,0.482-0.482,0.116-0.85l-1.933-1.932l-0.85,5.679l-8.935-8.934l-0.241-0.242l5.68-0.85
		l-2.415-2.415l0.725-0.725L447.865,691.779z"/>
	<path style="fill:none;stroke:#000000;stroke-miterlimit:10;" d="M462.343,695.421l0.115,0.116l-1.689,1.69l-0.116-0.116
		c0,0,0.482-0.482,0.106-0.84l-4.578-4.598l-1.333,4.462l-5.188-5.187c-0.366-0.367-0.84,0.126-0.84,0.126l-0.116-0.116l1.69-1.69
		l0.116,0.116c0,0-0.493,0.473-0.126,0.84l4.473,4.473l1.323-4.473l5.312,5.313C461.859,695.904,462.343,695.421,462.343,695.421z"
		/>
	<path style="fill:none;stroke:#000000;stroke-miterlimit:10;" d="M467.289,690.456l0.125,0.125l-0.966,0.966l-0.115-0.135
		c0,0,0.231-0.232,0.231-0.464l-3.661-3.661l-4.404-2.337l-3.188,0.038l8.365,8.365c0.367,0.367,0.83-0.116,0.83-0.116l0.126,0.126
		l-1.681,1.681l-0.126-0.126c0,0,0.474-0.492,0.126-0.84l-8.22-8.201c-0.367-0.366-0.85,0.116-0.85,0.116l-0.116-0.116l1.207-1.207
		l3.603-0.067l4.54,2.414l3.699,3.7C467.066,690.678,467.289,690.456,467.289,690.456z"/>
	<path style="fill:none;stroke:#000000;stroke-miterlimit:10;" d="M461.967,677.657l1.217-1.217l0.126,0.126
		c0,0-0.377,0.376-0.251,0.733l8.335,8.316c0.367,0.367,0.851-0.115,0.851-0.115l0.115,0.115l-1.689,1.69l-0.116-0.116
		c0,0,0.474-0.473,0.106-0.84l-1.923-1.941l-4.104-1.922l1.932,4.095l1.932,1.932c0.367,0.367,0.851-0.115,0.851-0.115l0.115,0.115
		l-1.69,1.69l-0.115-0.115c0,0,0.473-0.474,0.106-0.841l-8.288-8.287c-0.396-0.164-0.753,0.193-0.753,0.193l-0.126-0.126
		l1.208-1.207l4.191,2.028L461.967,677.657z M464.141,682.245l-3.604-1.689l5.313,5.312L464.141,682.245z M462.721,678.411
		l1.681,3.573l3.612,1.7L462.721,678.411z"/>
	<path style="fill:none;stroke:#000000;stroke-miterlimit:10;" d="M471.744,667.899l1.217-1.217l0.116,0.116
		c0,0-0.492,0.492-0.126,0.859l8.21,8.21c0.367,0.367,0.86-0.126,0.86-0.126l0.115,0.116l-1.217,1.217l-5.187-3.022l3.023,5.187
		l-1.218,1.217l-0.115-0.116c0,0,0.482-0.482,0.115-0.85l-8.21-8.21c-0.357-0.357-0.85,0.116-0.85,0.116l-0.116-0.116l1.218-1.217
		l5.234,3.071L471.744,667.899z M475.163,673.714l-4.588-2.656l7.293,7.293L475.163,673.714z M480.07,676.226l-7.331-7.331
		l2.666,4.578L480.07,676.226z"/>
	<path style="fill:none;stroke:#000000;stroke-miterlimit:10;" d="M481.088,670.05l-3.738-1.42l-1.699-4.945l4.027,1.497
		l1.381,4.009l5.332,1.97c0.241-0.048,0.435-0.241,0.435-0.241l0.126,0.126l-1.333,1.333l-0.126-0.126c0,0,0.203-0.203,0.251-0.444
		l-4.346-1.642l1.594,4.452c0.279-0.01,0.453-0.318,0.453-0.318l0.126,0.125l-0.966,0.966l-0.116-0.135c0,0,0.193-0.174,0.251-0.405
		L481.088,670.05z M479.735,666.013l-3.447-1.305l1.062,3.053l3.43,1.284L479.735,666.013z"/>
	<path style="fill:none;stroke:#000000;stroke-miterlimit:10;" d="M489.114,668.861l-1.689,1.69l-0.116-0.116
		c0,0,0.482-0.482,0.116-0.85l-8.21-8.21c-0.367-0.367-0.841,0.126-0.841,0.126l-0.116-0.116l1.208-1.207l5.061-1.449l0.725,0.725
		l-0.116,0.116c-0.299-0.3-0.733-0.483-1.091-0.357l-4.289,1.255l8.394,8.394c0.367,0.367,0.851-0.115,0.851-0.115L489.114,668.861z
		"/>
	<path style="fill:none;stroke:#000000;stroke-miterlimit:10;" d="M490.989,660.148l-3.737-1.42l-1.7-4.945l4.027,1.497l1.382,4.009
		l5.331,1.97c0.241-0.048,0.435-0.241,0.435-0.241l0.126,0.126l-1.333,1.333l-0.126-0.126c0,0,0.203-0.203,0.251-0.444l-4.346-1.642
		l1.594,4.452c0.279-0.01,0.453-0.318,0.453-0.318l0.126,0.125l-0.966,0.966l-0.116-0.135c0,0,0.193-0.174,0.251-0.405
		L490.989,660.148z M489.637,656.111l-3.447-1.305l1.063,3.053l3.429,1.284L489.637,656.111z"/>
	<path style="fill:none;stroke:#000000;stroke-miterlimit:10;" d="M501.812,655.952l0.115,0.116l-0.356,0.357l-7.959-2.415
		l0.531-4.607l-4.511,1.131l8.432,8.432c0.367,0.367,0.851-0.116,0.851-0.116l0.115,0.116l-0.482,0.483l-0.725,0.725l-0.483,0.482
		l-0.115-0.116c0,0,0.463-0.463,0.135-0.83l-8.326-8.307c-0.348-0.213-0.753,0.193-0.753,0.193l-0.116-0.116l0.474-0.474
		l0.715-0.715l0.02-0.038l5.196-1.313l-0.57,4.839l7.331,2.289C501.628,656.116,501.725,656.039,501.812,655.952z"/>
	<path style="fill:none;stroke:#000000;stroke-miterlimit:10;" d="M511.573,646.19l0.115,0.116l-1.689,1.69l-0.116-0.116
		c0,0,0.482-0.482,0.106-0.84l-4.578-4.598l-1.333,4.462l-5.188-5.187c-0.366-0.367-0.84,0.126-0.84,0.126l-0.116-0.116l1.69-1.69
		l0.116,0.116c0,0-0.493,0.473-0.126,0.84l4.473,4.473l1.323-4.473l5.312,5.313C511.09,646.674,511.573,646.19,511.573,646.19z"/>
	<path style="fill:none;stroke:#000000;stroke-miterlimit:10;" d="M506.005,634.605l8.21,8.21c0.367,0.366,0.85-0.116,0.85-0.116
		l0.116,0.116l-1.69,1.689l-0.116-0.115c0,0,0.483-0.483,0.116-0.851l-8.21-8.21c-0.367-0.366-0.85,0.116-0.85,0.116l-0.116-0.116
		l1.69-1.69l0.115,0.116C506.12,633.755,505.638,634.238,506.005,634.605z"/>
	<path style="fill:none;stroke:#000000;stroke-miterlimit:10;" d="M510.123,629.5h4.347l0.483,1h-3.632l7.853,7.604
		c0.367,0.366,0.859-0.25,0.859-0.25l0.116,0.054l-1.7,1.669l-0.116-0.131c0,0,0.483-0.491,0.116-0.858l-7.805-7.808l0.203,3.813
		l-0.482-0.494L510.123,629.5z"/>
	<path style="fill:none;stroke:#000000;stroke-miterlimit:10;" d="M528.354,629.392l0.115,0.115l-1.699,1.7l-0.116-0.116
		c0,0,0.482-0.482,0.116-0.85l-8.211-8.21c-0.356-0.357-0.84,0.126-0.84,0.126l-0.116-0.116l1.218-1.217l5.051-1.439l0.841,0.841
		l-0.116,0.115c-0.271-0.271-0.946-0.579-1.197-0.482l-4.309,1.236l2.502,2.501l5.052-1.438l0.85,0.85l-0.115,0.116
		c-0.261-0.261-0.966-0.58-1.218-0.483l-4.317,1.246l5.641,5.641c0.367,0.367,0.86-0.125,0.86-0.125L528.354,629.392z"/>
	<path style="fill:none;stroke:#000000;stroke-miterlimit:10;" d="M525.909,613.715l1.217-1.217l0.126,0.126
		c0,0-0.377,0.376-0.251,0.733l8.335,8.316c0.367,0.367,0.851-0.115,0.851-0.115l0.115,0.115l-1.689,1.69l-0.116-0.116
		c0,0,0.474-0.473,0.106-0.84l-1.923-1.941l-4.104-1.922l1.932,4.095l1.932,1.932c0.367,0.367,0.851-0.115,0.851-0.115l0.115,0.115
		l-1.69,1.69l-0.115-0.115c0,0,0.473-0.474,0.106-0.841l-8.288-8.287c-0.396-0.164-0.753,0.193-0.753,0.193l-0.126-0.126
		l1.208-1.207l4.191,2.028L525.909,613.715z M528.083,618.303l-3.604-1.689l5.313,5.312L528.083,618.303z M526.663,614.469
		l1.681,3.573l3.612,1.7L526.663,614.469z"/>
	<path style="fill:none;stroke:#000000;stroke-miterlimit:10;" d="M530.87,608.773l1.207-1.207l0.116,0.116
		c0,0-0.405,0.405-0.193,0.753l8.287,8.307c0.367,0.367,0.851-0.116,0.851-0.116l0.115,0.116l-1.689,1.69l-0.116-0.116
		c0,0,0.482-0.482,0.116-0.85l-7.988-7.949l1.941,4.086l-4.104-1.941l7.978,7.978c0.367,0.367,0.851-0.116,0.851-0.116l0.115,0.116
		l-1.69,1.69l-0.115-0.116c0,0,0.482-0.482,0.115-0.85l-8.307-8.287c-0.348-0.213-0.753,0.193-0.753,0.193l-0.116-0.116l1.208-1.207
		l0.105,0.105l4.231,2.067l-2.067-4.25L530.87,608.773z"/>
	<path style="fill:none;stroke:#000000;stroke-miterlimit:10;" d="M534.734,604.5h4.347l0.483,1h-3.632l7.853,7.799
		c0.367,0.366,0.859-0.152,0.859-0.152l0.116,0.103l-1.7,1.692l-0.116-0.119c0,0,0.483-0.484,0.116-0.852l-7.805-7.805l0.203,3.814
		l-0.482-0.688L534.734,604.5z"/>
	<path style="fill:none;stroke:#000000;stroke-miterlimit:10;" d="M558.023,599.972l-1.69,1.69l-0.125-0.126
		c0,0,0.482-0.482,0.116-0.85l-8.201-8.2c-0.366-0.367-0.85,0.116-0.85,0.116l-0.116-0.116l1.69-1.69l0.116,0.116
		c0,0-0.483,0.482-0.116,0.85l4.607,4.607l7.341,0.831l-0.841,0.84l-0.125-0.126c0.097-0.096,0.318-0.318,0.154-0.482l-6.152-0.686
		l3.216,3.216c0.367,0.367,0.851-0.115,0.851-0.115L558.023,599.972z"/>
	<path style="fill:none;stroke:#000000;stroke-miterlimit:10;" d="M559.896,591.241l-3.738-1.42l-1.699-4.945l4.027,1.497
		l1.381,4.009l5.332,1.97c0.241-0.048,0.435-0.241,0.435-0.241l0.126,0.126l-1.333,1.333l-0.126-0.126c0,0,0.203-0.203,0.251-0.444
		l-4.346-1.642l1.594,4.452c0.279-0.01,0.453-0.318,0.453-0.318l0.126,0.125l-0.966,0.966l-0.116-0.135c0,0,0.193-0.174,0.251-0.405
		L559.896,591.241z M558.544,587.204l-3.447-1.305l1.062,3.053l3.43,1.284L558.544,587.204z"/>
	<path style="fill:none;stroke:#000000;stroke-miterlimit:10;" d="M562.447,584.112l-2.975-2.976
		c-0.367-0.366-0.85,0.116-0.85,0.116l-0.116-0.116l1.69-1.689l0.115,0.115c0,0-0.482,0.483-0.115,0.851l3.293,3.293l2.29-0.879
		c0.058-0.154-0.155-0.367-0.155-0.367l0.116-0.115l0.85,0.85l-0.115,0.116c-0.146-0.146-0.28-0.203-0.454-0.203l-2.27,0.859
		l4.655,4.656c0.367,0.366,0.84-0.126,0.84-0.126l0.126,0.126l-1.69,1.689l-0.126-0.125c0,0,0.493-0.474,0.126-0.841l-4.984-4.983
		l-2.26,0.869c-0.077,0.116-0.029,0.241,0.106,0.377l-0.116,0.115l-0.84-0.84l0.115-0.116c0.106,0.106,0.271,0.232,0.416,0.241
		L562.447,584.112z"/>
	<path style="fill:none;stroke:#000000;stroke-miterlimit:10;" d="M575.643,582.121l0.115,0.116l-1.689,1.69l-0.116-0.116
		c0,0,0.482-0.482,0.106-0.84l-4.578-4.598l-1.333,4.462l-5.188-5.187c-0.366-0.367-0.84,0.126-0.84,0.126l-0.116-0.116l1.69-1.69
		l0.116,0.116c0,0-0.493,0.473-0.126,0.84l4.473,4.473l1.323-4.473l5.312,5.313C575.159,582.604,575.643,582.121,575.643,582.121z"
		/>
	<path style="fill:none;stroke:#000000;stroke-miterlimit:10;" d="M570.33,569.313l1.207-1.207l0.116,0.116
		c0,0-0.405,0.405-0.193,0.753l8.287,8.307c0.367,0.367,0.851-0.116,0.851-0.116l0.115,0.116l-1.689,1.69l-0.116-0.116
		c0,0,0.482-0.482,0.116-0.85l-7.988-7.949l1.941,4.086l-4.104-1.941l7.978,7.978c0.367,0.367,0.851-0.115,0.851-0.115l0.115,0.115
		l-1.69,1.69l-0.115-0.116c0,0,0.482-0.482,0.115-0.85l-8.307-8.287c-0.348-0.213-0.753,0.193-0.753,0.193l-0.116-0.116l1.208-1.207
		l0.105,0.105l4.231,2.067l-2.067-4.25L570.33,569.313z"/>
	<path style="fill:none;stroke:#000000;stroke-miterlimit:10;" d="M582.754,575.241l-1.69,1.69l-0.125-0.126
		c0,0,0.482-0.482,0.116-0.85l-8.201-8.2c-0.366-0.367-0.85,0.116-0.85,0.116l-0.116-0.116l1.69-1.69l0.116,0.116
		c0,0-0.483,0.482-0.116,0.85l4.607,4.607l7.341,0.831l-0.841,0.84l-0.125-0.126c0.097-0.096,0.318-0.318,0.154-0.482l-6.152-0.686
		l3.216,3.216c0.367,0.367,0.851-0.115,0.851-0.115L582.754,575.241z"/>
	<path style="fill:none;stroke:#000000;stroke-miterlimit:10;" d="M579.138,560.5h4.347h0.483h-3.632l7.853,8.098
		c0.367,0.365,0.859-0.004,0.859-0.004l0.116,0.177l-1.7,1.73l-0.116-0.101c0,0,0.483-0.476,0.116-0.843l-7.805-7.8l0.203,3.817
		l-0.482-0.485L579.138,560.5z"/>
	<path style="fill:none;stroke:#000000;stroke-miterlimit:10;" d="M585.162,554.481l1.207-1.207l0.116,0.116
		c0,0-0.405,0.405-0.193,0.753l8.287,8.307c0.367,0.367,0.851-0.116,0.851-0.116l0.115,0.116l-1.689,1.69l-0.116-0.116
		c0,0,0.482-0.482,0.116-0.85l-7.988-7.949l1.941,4.086l-4.104-1.941l7.978,7.978c0.367,0.367,0.851-0.115,0.851-0.115l0.115,0.115
		l-1.69,1.69l-0.115-0.116c0,0,0.482-0.482,0.115-0.85l-8.307-8.287c-0.348-0.213-0.753,0.193-0.753,0.193l-0.116-0.116l1.208-1.207
		l0.105,0.105l4.231,2.067l-2.067-4.25L585.162,554.481z"/>
	<path style="fill:none;stroke:#000000;stroke-miterlimit:10;" d="M589.03,550.5h4.347l0.483,1h-3.632l7.853,7.65
		c0.367,0.367,0.859-0.227,0.859-0.227l0.116,0.066l-1.7,1.674l-0.116-0.128c0,0,0.483-0.49,0.116-0.857l-7.805-7.807l0.203,3.814
		l-0.482-0.541L589.03,550.5z"/>
	<path style="fill:none;stroke:#000000;stroke-miterlimit:10;" d="M605.33,552.415l0.125,0.125l-0.966,0.966l-0.115-0.135
		c0,0,0.231-0.232,0.231-0.464l-3.661-3.661l-4.404-2.337l-3.188,0.038l8.365,8.365c0.367,0.367,0.83-0.116,0.83-0.116l0.126,0.126
		l-1.681,1.681l-0.126-0.126c0,0,0.474-0.492,0.126-0.84l-8.22-8.201c-0.367-0.366-0.85,0.116-0.85,0.116l-0.116-0.116l1.207-1.207
		l3.603-0.067l4.54,2.414l3.699,3.7C605.107,552.637,605.33,552.415,605.33,552.415z"/>
	<path style="fill:none;stroke:#000000;stroke-miterlimit:10;" d="M610.264,547.5l0.115,0.116l-0.356,0.357l-7.959-2.415
		l0.531-4.607l-4.511,1.131l8.432,8.432c0.367,0.367,0.851-0.115,0.851-0.115l0.115,0.115l-0.482,0.483l-0.725,0.725l-0.483,0.482
		l-0.115-0.116c0,0,0.463-0.463,0.135-0.83l-8.326-8.307c-0.348-0.213-0.753,0.193-0.753,0.193l-0.116-0.116l0.474-0.474
		l0.715-0.715l0.02-0.038l5.196-1.313l-0.57,4.839l7.331,2.289C610.08,547.664,610.177,547.587,610.264,547.5z"/>
	<path style="fill:none;stroke:#000000;stroke-miterlimit:10;" d="M617.149,540.596l0.115,0.115l-1.699,1.7l-0.116-0.116
		c0,0,0.482-0.482,0.116-0.85l-8.21-8.21c-0.357-0.357-0.841,0.126-0.841,0.126l-0.116-0.116l1.218-1.217l5.051-1.439l0.841,0.841
		l-0.116,0.115c-0.271-0.271-0.946-0.579-1.197-0.482l-4.309,1.236l2.502,2.501l5.052-1.438l0.85,0.85l-0.115,0.116
		c-0.261-0.261-0.966-0.58-1.218-0.483l-4.317,1.246l5.641,5.641c0.367,0.367,0.86-0.125,0.86-0.125L617.149,540.596z"/>
	<path style="fill:none;stroke:#000000;stroke-miterlimit:10;" d="M614.719,524.925l1.217-1.217l0.116,0.116
		c0,0-0.492,0.492-0.126,0.859l8.21,8.21c0.367,0.367,0.86-0.126,0.86-0.126l0.115,0.116l-1.217,1.217l-5.187-3.022l3.023,5.187
		l-1.218,1.217l-0.115-0.116c0,0,0.482-0.482,0.115-0.85l-8.21-8.21c-0.357-0.357-0.85,0.116-0.85,0.116l-0.116-0.116l1.218-1.217
		l5.234,3.071L614.719,524.925z M618.138,530.739l-4.588-2.656l7.293,7.293L618.138,530.739z M623.045,533.251l-7.331-7.331
		l2.666,4.578L623.045,533.251z"/>
	<path style="fill:none;stroke:#000000;stroke-miterlimit:10;" d="M619.432,521.179l8.21,8.21c0.367,0.366,0.85-0.116,0.85-0.116
		l0.116,0.116l-1.69,1.689l-0.116-0.115c0,0,0.483-0.483,0.116-0.851l-8.21-8.21c-0.367-0.366-0.85,0.116-0.85,0.116l-0.116-0.116
		l1.69-1.689l0.115,0.115C619.547,520.328,619.064,520.812,619.432,521.179z"/>
	<path style="fill:none;stroke:#000000;stroke-miterlimit:10;" d="M625.354,514.29l0.482-0.483l0.116,0.116
		c0,0-0.483,0.482-0.116,0.85l2.656,2.656l-5.641,0.889l7.641,7.64l0.888-5.621l2.656,2.656c0.367,0.367,0.851-0.116,0.851-0.116
		l0.115,0.116l-1.689,1.69l-0.116-0.116c0,0,0.482-0.482,0.116-0.85l-1.933-1.932l-0.85,5.679l-8.935-8.934l-0.241-0.242l5.68-0.85
		l-2.415-2.415l0.725-0.725L625.354,514.29z"/>
	<path style="fill:none;stroke:#000000;stroke-miterlimit:10;" d="M629.318,511.292l8.21,8.21c0.367,0.366,0.85-0.116,0.85-0.116
		l0.116,0.116l-1.69,1.689l-0.116-0.115c0,0,0.483-0.483,0.116-0.851l-8.21-8.21c-0.367-0.366-0.85,0.116-0.85,0.116l-0.116-0.116
		l1.69-1.689l0.115,0.115C629.434,510.441,628.951,510.925,629.318,511.292z"/>
	<path style="fill:none;stroke:#000000;stroke-miterlimit:10;" d="M644.781,512.982l0.115,0.116l-1.689,1.69l-0.116-0.116
		c0,0,0.482-0.482,0.106-0.84l-4.578-4.598l-1.333,4.462l-5.188-5.187c-0.366-0.367-0.84,0.126-0.84,0.126l-0.116-0.116l1.69-1.69
		l0.116,0.116c0,0-0.493,0.473-0.126,0.84l4.473,4.473l1.323-4.473l5.312,5.313C644.298,513.466,644.781,512.982,644.781,512.982z"
		/>
	<path style="fill:none;stroke:#000000;stroke-miterlimit:10;" d="M639.222,501.389l8.21,8.21c0.367,0.366,0.85-0.116,0.85-0.116
		l0.116,0.116l-1.69,1.689l-0.116-0.115c0,0,0.483-0.483,0.116-0.851l-8.21-8.21c-0.367-0.366-0.85,0.116-0.85,0.116l-0.116-0.116
		l1.69-1.69l0.115,0.116C639.337,500.538,638.854,501.021,639.222,501.389z"/>
	<path style="fill:none;stroke:#000000;stroke-miterlimit:10;" d="M651.901,506.094l-1.69,1.69l-0.125-0.126
		c0,0,0.482-0.482,0.116-0.85l-8.201-8.2c-0.366-0.367-0.85,0.116-0.85,0.116l-0.116-0.116l1.69-1.69l0.116,0.116
		c0,0-0.483,0.482-0.116,0.85l4.607,4.607l7.341,0.831l-0.841,0.84l-0.125-0.126c0.097-0.096,0.318-0.318,0.154-0.482l-6.152-0.686
		l3.216,3.216c0.367,0.367,0.851-0.115,0.851-0.115L651.901,506.094z"/>
	<path style="fill:none;stroke:#000000;stroke-miterlimit:10;" d="M649.112,491.498l8.21,8.21c0.367,0.366,0.85-0.116,0.85-0.116
		l0.116,0.116l-1.69,1.689l-0.116-0.115c0,0,0.483-0.483,0.116-0.851l-8.21-8.21c-0.367-0.366-0.85,0.116-0.85,0.116l-0.116-0.116
		l1.69-1.69l0.115,0.116C649.228,490.647,648.745,491.131,649.112,491.498z"/>
	<path style="fill:none;stroke:#000000;stroke-miterlimit:10;" d="M656.319,490.24l-2.975-2.976c-0.367-0.366-0.85,0.116-0.85,0.116
		l-0.116-0.116l1.69-1.69l0.115,0.116c0,0-0.482,0.483-0.115,0.851l3.293,3.293l2.29-0.879c0.058-0.154-0.155-0.367-0.155-0.367
		l0.116-0.115l0.85,0.85l-0.115,0.116c-0.146-0.146-0.28-0.203-0.454-0.203l-2.27,0.859l4.655,4.656
		c0.367,0.366,0.84-0.126,0.84-0.126l0.126,0.126l-1.69,1.689l-0.126-0.125c0,0,0.493-0.474,0.126-0.841l-4.984-4.983l-2.26,0.869
		c-0.077,0.116-0.029,0.241,0.106,0.377l-0.116,0.115l-0.84-0.84l0.115-0.116c0.106,0.106,0.271,0.232,0.416,0.242L656.319,490.24z"
		/>
	<path style="fill:none;stroke:#000000;stroke-miterlimit:10;" d="M660.334,479.716l1.304,3.197l2.753,1.284l1.517,2.792
		l3.206,1.487c0.213-0.059,0.406-0.232,0.406-0.232l0.115,0.116l-1.448,1.449l-0.116-0.116c0,0,0.232-0.251,0.241-0.531
		l-5.119-2.396l2.174,5.342c0.28-0.01,0.531-0.242,0.531-0.242l0.115,0.116l-0.966,0.966l-0.115-0.116c0,0,0.174-0.192,0.231-0.425
		l-1.274-3.148l-2.956-1.372l-1.594-2.926l-2.83-1.324c-0.28,0.01-0.521,0.252-0.521,0.252l-0.116-0.116l1.449-1.449l0.116,0.116
		c0,0-0.242,0.241-0.252,0.521l5.101,2.356l-2.154-5.302c-0.28,0.009-0.521,0.251-0.521,0.251l-0.116-0.116l0.966-0.966l0.116,0.116
		C660.575,479.301,660.392,479.484,660.334,479.716z M662.797,486.583l-2.984-1.4l0.898,1.671l2.704,1.256L662.797,486.583z
		 M662.102,484.072l0.579,1.429l2.753,1.266l-0.831-1.545L662.102,484.072z"/>
	<path style="fill:none;stroke:#000000;stroke-miterlimit:10;" d="M669.026,470.617l1.207-1.207l0.116,0.116
		c0,0-0.405,0.405-0.193,0.753l8.287,8.307c0.367,0.367,0.851-0.116,0.851-0.116l0.115,0.116l-1.689,1.69l-0.116-0.116
		c0,0,0.482-0.482,0.116-0.85l-7.988-7.949l1.941,4.086l-4.104-1.941l7.978,7.978c0.367,0.367,0.851-0.116,0.851-0.116l0.115,0.116
		l-1.69,1.69l-0.115-0.116c0,0,0.482-0.482,0.115-0.85l-8.307-8.287c-0.348-0.213-0.753,0.193-0.753,0.193l-0.116-0.116l1.208-1.207
		l0.105,0.105l4.231,2.067l-2.067-4.25L669.026,470.617z"/>
	<path style="fill:none;stroke:#000000;stroke-miterlimit:10;" d="M681.443,476.532l-1.689,1.69l-0.116-0.116
		c0,0,0.482-0.482,0.116-0.85l-8.211-8.21c-0.366-0.367-0.84,0.126-0.84,0.126l-0.116-0.116l1.208-1.207l5.061-1.449l0.725,0.725
		l-0.116,0.116c-0.299-0.3-0.733-0.483-1.091-0.357l-4.289,1.255l8.394,8.394c0.367,0.367,0.851-0.115,0.851-0.115L681.443,476.532z
		"/>
	<path style="fill:none;stroke:#000000;stroke-miterlimit:10;" d="M678.668,461.942l8.21,8.21c0.367,0.366,0.85-0.116,0.85-0.116
		l0.116,0.116l-1.69,1.689l-0.116-0.115c0,0,0.483-0.483,0.116-0.851l-8.21-8.21c-0.367-0.366-0.85,0.116-0.85,0.116l-0.116-0.116
		l1.69-1.689l0.115,0.115C678.783,461.092,678.301,461.575,678.668,461.942z"/>
	<path style="fill:none;stroke:#000000;stroke-miterlimit:10;" d="M682.793,456.5h4.347l0.483,1h-3.632l7.853,7.77
		c0.367,0.366,0.859-0.168,0.859-0.168l0.116,0.096l-1.7,1.689l-0.116-0.121c0,0,0.483-0.485,0.116-0.853l-7.805-7.806l0.203,3.815
		l-0.482-0.659L682.793,456.5z"/>
	<path style="fill:none;stroke:#000000;stroke-miterlimit:10;" d="M708.866,448.897l0.115,0.116l-1.689,1.69l-0.116-0.116
		c0,0,0.482-0.482,0.106-0.84l-4.578-4.598l-1.333,4.462l-5.188-5.187c-0.366-0.367-0.84,0.126-0.84,0.126l-0.116-0.116l1.69-1.69
		l0.116,0.116c0,0-0.493,0.473-0.126,0.84l4.473,4.473l1.323-4.473l5.312,5.313C708.383,449.381,708.866,448.897,708.866,448.897z"
		/>
	<path style="fill:none;stroke:#000000;stroke-miterlimit:10;" d="M703.535,436.108l1.207-1.207l0.116,0.116
		c0,0-0.405,0.405-0.193,0.753l8.287,8.307c0.367,0.367,0.851-0.116,0.851-0.116l0.115,0.116l-1.689,1.69l-0.116-0.116
		c0,0,0.482-0.482,0.116-0.85l-7.988-7.949l1.941,4.086l-4.104-1.941l7.978,7.978c0.367,0.367,0.851-0.115,0.851-0.115l0.115,0.115
		l-1.69,1.69l-0.115-0.116c0,0,0.482-0.482,0.115-0.85l-8.307-8.287c-0.348-0.213-0.753,0.193-0.753,0.193l-0.116-0.116l1.208-1.207
		l0.105,0.105l4.231,2.067l-2.067-4.25L703.535,436.108z"/>
	<path style="fill:none;stroke:#000000;stroke-miterlimit:10;" d="M708.484,431.159l1.217-1.217l0.116,0.116
		c0,0-0.492,0.492-0.126,0.859l8.21,8.21c0.367,0.367,0.86-0.126,0.86-0.126l0.115,0.116l-1.217,1.217l-5.187-3.022l3.023,5.187
		l-1.218,1.217l-0.115-0.116c0,0,0.482-0.482,0.115-0.85l-8.21-8.21c-0.357-0.357-0.85,0.116-0.85,0.116l-0.116-0.116l1.218-1.217
		l5.234,3.071L708.484,431.159z M711.903,436.974l-4.588-2.656l7.293,7.293L711.903,436.974z M716.811,439.485l-7.331-7.331
		l2.666,4.578L716.811,439.485z"/>
	<path style="fill:none;stroke:#000000;stroke-miterlimit:10;" d="M718.253,421.391l1.217-1.217l0.116,0.116
		c0,0-0.492,0.492-0.126,0.859l8.21,8.21c0.367,0.367,0.86-0.126,0.86-0.126l0.115,0.116l-1.217,1.217l-5.187-3.022l3.023,5.187
		l-1.218,1.217l-0.115-0.116c0,0,0.482-0.482,0.115-0.85l-8.21-8.21c-0.357-0.357-0.85,0.116-0.85,0.116l-0.116-0.116l1.218-1.217
		l5.234,3.071L718.253,421.391z M721.672,427.205l-4.588-2.656l7.293,7.293L721.672,427.205z M726.579,429.717l-7.331-7.331
		l2.666,4.578L726.579,429.717z"/>
	<path style="fill:none;stroke:#000000;stroke-miterlimit:10;" d="M727.604,423.534l-3.738-1.42l-1.699-4.945l4.027,1.497
		l1.381,4.009l5.332,1.97c0.241-0.048,0.435-0.241,0.435-0.241l0.126,0.126l-1.333,1.333l-0.126-0.126c0,0,0.203-0.203,0.251-0.444
		l-4.346-1.642l1.594,4.452c0.279-0.01,0.453-0.318,0.453-0.318l0.126,0.125l-0.966,0.966l-0.116-0.135c0,0,0.193-0.174,0.251-0.405
		L727.604,423.534z M726.251,419.497l-3.447-1.305l1.062,3.053l3.43,1.284L726.251,419.497z"/>
</g>
<g>
	<path style="fill:none;stroke:#000000;stroke-miterlimit:10;" d="M682.001,324.024l1.69,1.69l-0.116,0.116
		c0,0-0.482-0.483-0.85-0.116l-8.21,8.21c-0.367,0.367,0.126,0.84,0.126,0.84l-0.116,0.116l-1.207-1.207l-1.449-5.062l0.725-0.724
		l0.116,0.116c-0.3,0.299-0.483,0.734-0.357,1.091l1.255,4.289l8.394-8.394c0.367-0.367-0.115-0.85-0.115-0.85L682.001,324.024z"/>
	<path style="fill:none;stroke:#000000;stroke-miterlimit:10;" d="M673.286,322.148l-1.42,3.738l-4.945,1.7l1.497-4.027l4.009-1.381
		l1.97-5.332c-0.048-0.242-0.241-0.435-0.241-0.435l0.126-0.126l1.333,1.333l-0.126,0.125c0,0-0.203-0.203-0.444-0.251l-1.642,4.347
		l4.452-1.594c-0.01-0.28-0.318-0.454-0.318-0.454l0.125-0.125l0.966,0.966l-0.135,0.116c0,0-0.174-0.193-0.405-0.251
		L673.286,322.148z M669.249,323.5l-1.305,3.448l3.053-1.063l1.284-3.429L669.249,323.5z"/>
	<path style="fill:none;stroke:#000000;stroke-miterlimit:10;" d="M669.094,311.33l0.116-0.116l0.357,0.357l-2.415,7.959
		l-4.607-0.531l1.131,4.511l8.432-8.432c0.367-0.367-0.115-0.85-0.115-0.85l0.115-0.116l0.483,0.483l0.725,0.724l0.482,0.483
		l-0.116,0.116c0,0-0.463-0.464-0.83-0.135l-8.307,8.326c-0.213,0.348,0.193,0.753,0.193,0.753l-0.116,0.116l-0.474-0.473
		l-0.715-0.715l-0.038-0.019l-1.313-5.197l4.839,0.57l2.289-7.331C669.258,311.513,669.181,311.417,669.094,311.33z"/>
	<path style="fill:none;stroke:#000000;stroke-miterlimit:10;" d="M656.302,316.658l-1.207-1.208l0.116-0.116
		c0,0,0.405,0.406,0.753,0.193l8.307-8.287c0.367-0.367-0.116-0.85-0.116-0.85l0.116-0.116l1.69,1.69l-0.116,0.116
		c0,0-0.482-0.483-0.85-0.116l-7.949,7.988l4.086-1.941l-1.941,4.105l7.978-7.978c0.367-0.367-0.115-0.85-0.115-0.85l0.115-0.116
		l1.69,1.69l-0.116,0.116c0,0-0.482-0.483-0.85-0.116l-8.287,8.307c-0.213,0.348,0.193,0.753,0.193,0.753l-0.116,0.116l-1.207-1.207
		l0.105-0.106l2.067-4.23l-4.25,2.067L656.302,316.658z"/>
	<path style="fill:none;stroke:#000000;stroke-miterlimit:10;" d="M651.35,311.725l-1.217-1.217l0.126-0.125
		c0,0,0.376,0.377,0.733,0.251l8.316-8.335c0.367-0.367-0.115-0.85-0.115-0.85l0.115-0.116l1.69,1.69l-0.116,0.116
		c0,0-0.473-0.473-0.84-0.106l-1.941,1.922l-1.922,4.105l4.095-1.932l1.932-1.932c0.367-0.367-0.115-0.85-0.115-0.85l0.115-0.116
		l1.69,1.69l-0.115,0.116c0,0-0.474-0.474-0.841-0.106l-8.287,8.287c-0.164,0.396,0.193,0.753,0.193,0.753l-0.126,0.125
		l-1.207-1.207l2.028-4.192L651.35,311.725z M652.104,310.972l3.573-1.681l1.7-3.612L652.104,310.972z M655.938,309.552
		l-1.689,3.603l5.312-5.312L655.938,309.552z"/>
	<path style="fill:none;stroke:#000000;stroke-miterlimit:10;" d="M642.795,302.184l8.21-8.21c0.366-0.367-0.116-0.85-0.116-0.85
		l0.116-0.116l1.689,1.69l-0.115,0.116c0,0-0.483-0.483-0.851-0.116l-8.21,8.21c-0.366,0.367,0.116,0.85,0.116,0.85l-0.116,0.116
		l-1.69-1.69l0.116-0.116C641.944,302.068,642.428,302.551,642.795,302.184z"/>
	<path style="fill:none;stroke:#000000;stroke-miterlimit:10;" d="M635.901,296.258l-0.483-0.483l0.116-0.116
		c0,0,0.482,0.483,0.85,0.116l2.656-2.656l0.889,5.641l7.64-7.64l-5.621-0.889l2.656-2.656c0.367-0.367-0.116-0.85-0.116-0.85
		l0.116-0.116l1.69,1.69l-0.116,0.116c0,0-0.482-0.483-0.85-0.116l-1.932,1.932l5.679,0.85l-8.934,8.934l-0.242,0.242l-0.85-5.679
		l-2.415,2.415l-0.725-0.725L635.901,296.258z"/>
	<path style="fill:none;stroke:#000000;stroke-miterlimit:10;" d="M639.545,281.781l0.116-0.116l1.69,1.69l-0.116,0.116
		c0,0-0.482-0.483-0.84-0.106l-4.598,4.578l4.462,1.333l-5.187,5.187c-0.367,0.367,0.126,0.84,0.126,0.84l-0.116,0.116l-1.69-1.69
		l0.116-0.116c0,0,0.473,0.493,0.84,0.126l4.473-4.472l-4.473-1.323l5.313-5.313C640.028,282.265,639.545,281.781,639.545,281.781z"
		/>
	<path style="fill:none;stroke:#000000;stroke-miterlimit:10;" d="M634.567,276.822l0.125-0.125l0.966,0.966l-0.135,0.116
		c0,0-0.232-0.232-0.464-0.232l-3.661,3.661l-2.337,4.404l0.038,3.188l8.365-8.364c0.367-0.367-0.116-0.831-0.116-0.831l0.126-0.125
		l1.681,1.681l-0.126,0.125c0,0-0.492-0.473-0.84-0.125l-8.201,8.22c-0.366,0.367,0.116,0.85,0.116,0.85l-0.116,0.116l-1.207-1.207
		l-0.067-3.603l2.414-4.54l3.7-3.699C634.789,277.044,634.567,276.822,634.567,276.822z"/>
	<path style="fill:none;stroke:#000000;stroke-miterlimit:10;" d="M621.784,282.161l-1.217-1.217l0.126-0.125
		c0,0,0.376,0.377,0.733,0.251l8.316-8.335c0.367-0.367-0.115-0.85-0.115-0.85l0.115-0.116l1.69,1.69l-0.116,0.116
		c0,0-0.473-0.473-0.84-0.106l-1.941,1.922l-1.922,4.105l4.095-1.932l1.932-1.932c0.367-0.367-0.115-0.85-0.115-0.85l0.115-0.116
		l1.69,1.69l-0.115,0.116c0,0-0.474-0.474-0.841-0.106l-8.287,8.287c-0.164,0.396,0.193,0.753,0.193,0.753l-0.126,0.125
		l-1.207-1.207l2.028-4.192L621.784,282.161z M622.538,281.407l3.573-1.681l1.7-3.612L622.538,281.407z M626.372,279.987
		l-1.689,3.603l5.312-5.312L626.372,279.987z"/>
	<path style="fill:none;stroke:#000000;stroke-miterlimit:10;" d="M612.014,272.37l-1.217-1.217l0.116-0.116
		c0,0,0.492,0.493,0.859,0.125l8.21-8.21c0.367-0.367-0.126-0.859-0.126-0.859l0.116-0.116l1.217,1.217l-3.022,5.187l5.187-3.023
		l1.217,1.217l-0.116,0.116c0,0-0.482-0.483-0.85-0.116l-8.21,8.21c-0.357,0.357,0.116,0.85,0.116,0.85l-0.116,0.116l-1.217-1.217
		l3.071-5.235L612.014,272.37z M620.34,264.043l-7.331,7.331l4.578-2.666L620.34,264.043z M617.828,268.95l-2.656,4.588l7.293-7.292
		L617.828,268.95z"/>
	<path style="fill:none;stroke:#000000;stroke-miterlimit:10;" d="M614.158,263.021l-1.42,3.738l-4.945,1.7l1.497-4.027l4.009-1.381
		l1.97-5.332c-0.048-0.242-0.241-0.435-0.241-0.435l0.126-0.126l1.333,1.333l-0.126,0.125c0,0-0.203-0.203-0.444-0.251l-1.642,4.347
		l4.452-1.594c-0.01-0.28-0.318-0.454-0.318-0.454l0.125-0.125l0.966,0.966l-0.135,0.116c0,0-0.174-0.193-0.405-0.251
		L614.158,263.021z M610.121,264.373l-1.305,3.448l3.053-1.063l1.284-3.429L610.121,264.373z"/>
	<path style="fill:none;stroke:#000000;stroke-miterlimit:10;" d="M612.97,254.994l1.69,1.69l-0.116,0.116
		c0,0-0.482-0.483-0.85-0.116l-8.21,8.21c-0.367,0.367,0.126,0.84,0.126,0.84l-0.116,0.116l-1.207-1.207l-1.449-5.062l0.725-0.724
		l0.116,0.116c-0.3,0.299-0.483,0.734-0.357,1.091l1.255,4.289l8.394-8.394c0.367-0.367-0.115-0.85-0.115-0.85L612.97,254.994z"/>
	<path style="fill:none;stroke:#000000;stroke-miterlimit:10;" d="M604.259,253.121l-1.42,3.738l-4.945,1.7l1.497-4.027l4.009-1.381
		l1.97-5.332c-0.048-0.242-0.241-0.435-0.241-0.435l0.126-0.126l1.333,1.333l-0.126,0.125c0,0-0.203-0.203-0.444-0.251l-1.642,4.347
		l4.452-1.594c-0.01-0.28-0.318-0.454-0.318-0.454l0.125-0.125l0.966,0.966l-0.135,0.116c0,0-0.174-0.193-0.405-0.251
		L604.259,253.121z M600.222,254.473l-1.305,3.448l3.053-1.063l1.284-3.429L600.222,254.473z"/>
	<path style="fill:none;stroke:#000000;stroke-miterlimit:10;" d="M600.09,242.327l0.116-0.116l0.357,0.357l-2.415,7.959
		l-4.607-0.531l1.131,4.511l8.432-8.432c0.367-0.367-0.115-0.85-0.115-0.85l0.115-0.116l0.483,0.483l0.725,0.725l0.482,0.483
		l-0.116,0.116c0,0-0.463-0.464-0.83-0.135l-8.307,8.326c-0.213,0.348,0.193,0.753,0.193,0.753l-0.116,0.116l-0.474-0.473
		l-0.715-0.715l-0.038-0.019l-1.313-5.197l4.839,0.57l2.289-7.331C600.254,242.511,600.177,242.414,600.09,242.327z"/>
	<path style="fill:none;stroke:#000000;stroke-miterlimit:10;" d="M590.302,232.538l0.116-0.116l1.69,1.69l-0.116,0.116
		c0,0-0.482-0.483-0.84-0.106l-4.598,4.578l4.462,1.333l-5.187,5.187c-0.367,0.367,0.126,0.84,0.126,0.84l-0.116,0.116l-1.69-1.69
		l0.116-0.116c0,0,0.473,0.493,0.84,0.126l4.473-4.472l-4.473-1.323l5.313-5.313C590.785,233.021,590.302,232.538,590.302,232.538z"
		/>
	<path style="fill:none;stroke:#000000;stroke-miterlimit:10;" d="M578.725,238.114l8.21-8.21c0.366-0.367-0.116-0.85-0.116-0.85
		l0.116-0.116l1.689,1.69l-0.115,0.116c0,0-0.483-0.483-0.851-0.116l-8.21,8.21c-0.366,0.367,0.116,0.85,0.116,0.85l-0.116,0.116
		l-1.69-1.69l0.116-0.116C577.874,237.999,578.357,238.481,578.725,238.114z"/>
	<path style="fill:none;stroke:#000000;stroke-miterlimit:10;" d="M573.5,234v-4.346l1-0.483v3.632l7.666-7.853
		c0.367-0.367-0.219-0.859-0.219-0.859l0.07-0.116l1.676,1.7l-0.127,0.116c0,0-0.489-0.483-0.856-0.116l-7.807,7.804l3.813-0.203
		l-0.556,0.483L573.5,234z"/>
	<path style="fill:none;stroke:#000000;stroke-miterlimit:10;" d="M573.516,215.771l0.115-0.116l1.7,1.7l-0.116,0.116
		c0,0-0.482-0.483-0.85-0.116l-8.21,8.21c-0.357,0.357,0.126,0.84,0.126,0.84l-0.116,0.116l-1.217-1.217l-1.439-5.052l0.841-0.84
		l0.115,0.116c-0.271,0.271-0.579,0.946-0.482,1.198l1.236,4.308l2.501-2.501l-1.438-5.052l0.85-0.85l0.116,0.116
		c-0.261,0.261-0.58,0.966-0.483,1.217l1.246,4.317l5.641-5.641c0.367-0.367-0.125-0.859-0.125-0.859L573.516,215.771z"/>
	<path style="fill:none;stroke:#000000;stroke-miterlimit:10;" d="M557.825,218.201l-1.217-1.217l0.126-0.125
		c0,0,0.376,0.377,0.733,0.251l8.316-8.335c0.367-0.367-0.115-0.85-0.115-0.85l0.115-0.116l1.69,1.69l-0.116,0.116
		c0,0-0.473-0.473-0.84-0.106l-1.941,1.922l-1.922,4.105l4.095-1.932l1.932-1.932c0.367-0.367-0.115-0.85-0.115-0.85l0.115-0.116
		l1.69,1.69l-0.115,0.116c0,0-0.474-0.474-0.841-0.106l-8.287,8.287c-0.164,0.396,0.193,0.753,0.193,0.753l-0.126,0.125
		l-1.207-1.207l2.028-4.192L557.825,218.201z M558.579,217.448l3.573-1.681l1.7-3.612L558.579,217.448z M562.413,216.028
		l-1.689,3.603l5.312-5.312L562.413,216.028z"/>
	<path style="fill:none;stroke:#000000;stroke-miterlimit:10;" d="M552.895,213.251l-1.207-1.208l0.116-0.116
		c0,0,0.405,0.406,0.753,0.193l8.307-8.287c0.367-0.367-0.116-0.85-0.116-0.85l0.116-0.116l1.69,1.69l-0.116,0.116
		c0,0-0.482-0.483-0.85-0.116l-7.949,7.988l4.086-1.941l-1.941,4.105l7.978-7.978c0.367-0.367-0.116-0.85-0.116-0.85l0.116-0.116
		l1.69,1.69l-0.116,0.116c0,0-0.482-0.483-0.85-0.116l-8.287,8.307c-0.213,0.348,0.193,0.753,0.193,0.753l-0.116,0.116l-1.207-1.207
		l0.105-0.106l2.067-4.23l-4.25,2.067L552.895,213.251z"/>
	<path style="fill:none;stroke:#000000;stroke-miterlimit:10;" d="M549.5,209.388v-4.346v-0.483v3.632l7.86-7.853
		c0.366-0.367-0.122-0.859-0.122-0.859l0.118-0.116l1.7,1.7l-0.115,0.116c0,0-0.482-0.483-0.85-0.116l-7.804,7.804l3.815-0.203
		l-0.25,0.483L549.5,209.388z"/>
	<path style="fill:none;stroke:#000000;stroke-miterlimit:10;" d="M544.088,186.092l1.69,1.69l-0.126,0.125
		c0,0-0.482-0.483-0.85-0.116l-8.2,8.2c-0.367,0.367,0.116,0.85,0.116,0.85l-0.116,0.116l-1.69-1.69l0.116-0.116
		c0,0,0.482,0.483,0.85,0.116l4.607-4.607l0.831-7.341l0.84,0.84l-0.126,0.125c-0.096-0.096-0.318-0.318-0.482-0.154l-0.686,6.153
		l3.216-3.217c0.367-0.367-0.115-0.85-0.115-0.85L544.088,186.092z"/>
	<path style="fill:none;stroke:#000000;stroke-miterlimit:10;" d="M535.368,184.23l-1.42,3.738l-4.945,1.7l1.497-4.027l4.009-1.381
		l1.97-5.332c-0.048-0.242-0.241-0.435-0.241-0.435l0.126-0.126l1.333,1.333l-0.126,0.125c0,0-0.203-0.203-0.444-0.251l-1.642,4.347
		l4.452-1.594c-0.01-0.28-0.318-0.454-0.318-0.454l0.125-0.125l0.966,0.966l-0.135,0.116c0,0-0.174-0.193-0.405-0.251
		L535.368,184.23z M531.331,185.583l-1.305,3.448l3.053-1.063l1.284-3.429L531.331,185.583z"/>
	<path style="fill:none;stroke:#000000;stroke-miterlimit:10;" d="M528.241,181.681l-2.976,2.975
		c-0.366,0.367,0.116,0.85,0.116,0.85l-0.116,0.116l-1.689-1.69l0.115-0.116c0,0,0.483,0.483,0.851,0.116l3.293-3.293l-0.879-2.289
		c-0.154-0.058-0.367,0.154-0.367,0.154l-0.115-0.116l0.85-0.85l0.116,0.116c-0.146,0.145-0.203,0.28-0.203,0.454l0.859,2.27
		l4.656-4.656c0.366-0.367-0.126-0.84-0.126-0.84l0.126-0.125l1.689,1.69l-0.125,0.125c0,0-0.474-0.493-0.841-0.125l-4.983,4.984
		l0.869,2.26c0.116,0.077,0.241,0.029,0.377-0.106l0.115,0.116l-0.84,0.84l-0.116-0.116c0.106-0.106,0.232-0.271,0.241-0.415
		L528.241,181.681z"/>
	<path style="fill:none;stroke:#000000;stroke-miterlimit:10;" d="M526.243,168.48l0.116-0.116l1.69,1.69l-0.116,0.116
		c0,0-0.482-0.483-0.84-0.106l-4.598,4.578l4.462,1.333l-5.187,5.187c-0.367,0.367,0.126,0.84,0.126,0.84l-0.116,0.116l-1.69-1.69
		l0.116-0.116c0,0,0.473,0.493,0.84,0.126l4.473-4.472l-4.473-1.323l5.313-5.313C526.727,168.963,526.243,168.48,526.243,168.48z"/>
	<path style="fill:none;stroke:#000000;stroke-miterlimit:10;" d="M513.44,173.796l-1.207-1.208l0.116-0.116
		c0,0,0.405,0.406,0.753,0.193l8.307-8.288c0.367-0.367-0.116-0.85-0.116-0.85l0.116-0.116l1.69,1.69l-0.116,0.116
		c0,0-0.482-0.483-0.85-0.116l-7.949,7.988l4.086-1.941l-1.941,4.105l7.978-7.978c0.367-0.367-0.115-0.85-0.115-0.85l0.115-0.116
		l1.69,1.69l-0.116,0.116c0,0-0.482-0.483-0.85-0.116l-8.287,8.307c-0.213,0.348,0.193,0.753,0.193,0.753l-0.116,0.116l-1.207-1.207
		l0.105-0.106l2.067-4.23l-4.25,2.067L513.44,173.796z"/>
	<path style="fill:none;stroke:#000000;stroke-miterlimit:10;" d="M519.365,161.371l1.69,1.69l-0.126,0.125
		c0,0-0.482-0.483-0.85-0.116l-8.2,8.2c-0.367,0.367,0.116,0.85,0.116,0.85l-0.116,0.116l-1.69-1.69l0.116-0.116
		c0,0,0.482,0.483,0.85,0.116l4.607-4.607l0.831-7.341l0.84,0.84l-0.126,0.125c-0.096-0.096-0.318-0.318-0.482-0.154l-0.686,6.152
		l3.216-3.216c0.367-0.367-0.115-0.85-0.115-0.85L519.365,161.371z"/>
	<path style="fill:none;stroke:#000000;stroke-miterlimit:10;" d="M504.5,164.984v-4.346l1-0.483v3.632l7.658-7.853
		c0.366-0.367-0.223-0.859-0.223-0.859l0.067-0.116l1.675,1.7l-0.128,0.116c0,0-0.489-0.483-0.856-0.116l-7.807,7.804l3.814-0.203
		l-0.549,0.483L504.5,164.984z"/>
	<path style="fill:none;stroke:#000000;stroke-miterlimit:10;" d="M498.599,158.956l-1.207-1.208l0.116-0.116
		c0,0,0.405,0.406,0.753,0.193l8.307-8.287c0.367-0.367-0.116-0.85-0.116-0.85l0.116-0.116l1.69,1.69l-0.116,0.116
		c0,0-0.482-0.483-0.85-0.116l-7.949,7.988l4.086-1.941l-1.941,4.105l7.978-7.978c0.367-0.367-0.115-0.85-0.115-0.85l0.115-0.116
		l1.69,1.69l-0.116,0.116c0,0-0.482-0.483-0.85-0.116l-8.287,8.307c-0.213,0.348,0.193,0.753,0.193,0.753l-0.116,0.116l-1.207-1.207
		l0.105-0.106l2.067-4.23l-4.25,2.067L498.599,158.956z"/>
	<path style="fill:none;stroke:#000000;stroke-miterlimit:10;" d="M494.5,155.087v-4.346l1-0.483v3.632l7.709-7.853
		c0.367-0.367-0.197-0.859-0.197-0.859l0.081-0.116l1.681,1.7l-0.124,0.116c0,0-0.487-0.483-0.854-0.116l-7.807,7.804l3.814-0.203
		l-0.599,0.483L494.5,155.087z"/>
	<path style="fill:none;stroke:#000000;stroke-miterlimit:10;" d="M496.537,138.792l0.125-0.125l0.966,0.966l-0.135,0.116
		c0,0-0.232-0.232-0.464-0.232l-3.661,3.661l-2.337,4.404l0.038,3.188l8.365-8.364c0.367-0.367-0.116-0.831-0.116-0.831l0.126-0.125
		l1.681,1.681l-0.126,0.125c0,0-0.492-0.473-0.84-0.125l-8.201,8.22c-0.366,0.367,0.116,0.85,0.116,0.85l-0.116,0.116l-1.207-1.207
		l-0.067-3.603l2.414-4.54l3.7-3.699C496.759,139.015,496.537,138.792,496.537,138.792z"/>
	<path style="fill:none;stroke:#000000;stroke-miterlimit:10;" d="M491.607,133.843l0.116-0.116l0.357,0.357l-2.415,7.959
		l-4.607-0.531l1.131,4.511l8.432-8.432c0.367-0.367-0.115-0.85-0.115-0.85l0.115-0.116l0.483,0.483l0.725,0.724l0.482,0.483
		l-0.116,0.116c0,0-0.463-0.464-0.83-0.135l-8.307,8.326c-0.213,0.348,0.193,0.753,0.193,0.753l-0.116,0.116l-0.474-0.473
		l-0.715-0.715l-0.038-0.019l-1.313-5.197l4.839,0.57l2.289-7.331C491.771,134.027,491.694,133.93,491.607,133.843z"/>
</g>
<g>
	<path style="fill:none;stroke:#000000;stroke-miterlimit:10;" d="M378.653,63.371l1.69-1.69l0.116,0.116
		c0,0-0.483,0.483-0.116,0.85l8.21,8.21c0.367,0.367,0.84-0.125,0.84-0.125l0.116,0.116l-1.207,1.208l-5.062,1.449l-0.724-0.725
		l0.116-0.116c0.299,0.299,0.734,0.483,1.091,0.357l4.289-1.256l-8.394-8.394c-0.367-0.367-0.85,0.116-0.85,0.116L378.653,63.371z"
		/>
	<path style="fill:none;stroke:#000000;stroke-miterlimit:10;" d="M376.77,72.093l3.738,1.42l1.7,4.945l-4.028-1.497l-1.381-4.008
		l-5.332-1.971c-0.242,0.048-0.435,0.242-0.435,0.242l-0.126-0.125l1.333-1.333l0.125,0.125c0,0-0.203,0.203-0.251,0.444
		l4.347,1.642l-1.594-4.453c-0.28,0.009-0.454,0.318-0.454,0.318l-0.125-0.125l0.966-0.966l0.116,0.135c0,0-0.193,0.174-0.251,0.406
		L376.77,72.093z M378.122,76.13l3.448,1.304l-1.063-3.052l-3.429-1.285L378.122,76.13z"/>
	<path style="fill:none;stroke:#000000;stroke-miterlimit:10;" d="M365.962,76.274l-0.116-0.116l0.357-0.357l7.959,2.415
		l-0.531,4.607l4.511-1.13l-8.432-8.432c-0.367-0.367-0.85,0.116-0.85,0.116l-0.116-0.116l0.483-0.483l0.724-0.725l0.483-0.483
		l0.116,0.116c0,0-0.464,0.464-0.135,0.831l8.326,8.307c0.348,0.213,0.753-0.193,0.753-0.193l0.116,0.116l-0.473,0.473l-0.715,0.715
		l-0.019,0.039l-5.197,1.314l0.57-4.839l-7.331-2.289C366.146,76.11,366.049,76.187,365.962,76.274z"/>
	<path style="fill:none;stroke:#000000;stroke-miterlimit:10;" d="M371.271,89.086l-1.208,1.207l-0.116-0.116
		c0,0,0.406-0.406,0.193-0.753l-8.288-8.307c-0.367-0.367-0.85,0.116-0.85,0.116l-0.116-0.116l1.69-1.69l0.116,0.116
		c0,0-0.483,0.483-0.116,0.85l7.988,7.949l-1.941-4.085l4.105,1.941l-7.978-7.978c-0.367-0.367-0.85,0.116-0.85,0.116l-0.116-0.116
		l1.69-1.69l0.116,0.116c0,0-0.483,0.483-0.116,0.85l8.307,8.287c0.348,0.213,0.753-0.193,0.753-0.193l0.116,0.116l-1.207,1.208
		l-0.106-0.106l-4.23-2.067l2.067,4.25L371.271,89.086z"/>
	<path style="fill:none;stroke:#000000;stroke-miterlimit:10;" d="M366.351,94.025l-1.217,1.217l-0.125-0.125
		c0,0,0.377-0.377,0.251-0.734l-8.335-8.316c-0.367-0.367-0.85,0.116-0.85,0.116l-0.116-0.116l1.69-1.69l0.116,0.116
		c0,0-0.473,0.473-0.106,0.84l1.922,1.941l4.105,1.922l-1.932-4.096l-1.932-1.932c-0.367-0.367-0.85,0.116-0.85,0.116l-0.116-0.116
		l1.69-1.69l0.116,0.116c0,0-0.474,0.473-0.106,0.84l8.287,8.287c0.396,0.164,0.753-0.193,0.753-0.193l0.125,0.126l-1.207,1.207
		l-4.192-2.028L366.351,94.025z M365.598,93.271l-1.681-3.574l-3.612-1.7L365.598,93.271z M364.178,89.437l3.603,1.69l-5.312-5.313
		L364.178,89.437z"/>
	<path style="fill:none;stroke:#000000;stroke-miterlimit:10;" d="M356.793,102.598l-8.21-8.21c-0.367-0.367-0.85,0.116-0.85,0.116
		l-0.116-0.116l1.69-1.69l0.116,0.116c0,0-0.483,0.483-0.116,0.85l8.21,8.21c0.367,0.367,0.85-0.116,0.85-0.116l0.116,0.116
		l-1.69,1.69l-0.116-0.116C356.677,103.448,357.16,102.965,356.793,102.598z"/>
	<path style="fill:none;stroke:#000000;stroke-miterlimit:10;" d="M350.887,109.47l-0.483,0.483l-0.116-0.116
		c0,0,0.483-0.483,0.116-0.85l-2.656-2.656l5.641-0.889l-7.64-7.64l-0.889,5.622l-2.656-2.656c-0.367-0.367-0.85,0.116-0.85,0.116
		l-0.116-0.116l1.69-1.69l0.116,0.116c0,0-0.483,0.483-0.116,0.85l1.932,1.932l0.85-5.68l8.934,8.935l0.242,0.241l-5.679,0.85
		l2.415,2.415l-0.725,0.724L350.887,109.47z"/>
	<path style="fill:none;stroke:#000000;stroke-miterlimit:10;" d="M336.389,105.848l-0.116-0.116l1.69-1.69l0.116,0.116
		c0,0-0.483,0.483-0.106,0.84l4.578,4.598l1.333-4.462l5.187,5.187c0.367,0.367,0.84-0.125,0.84-0.125l0.116,0.116l-1.69,1.69
		l-0.116-0.116c0,0,0.493-0.474,0.126-0.84l-4.472-4.472l-1.323,4.472l-5.313-5.313
		C336.872,105.365,336.389,105.848,336.389,105.848z"/>
	<path style="fill:none;stroke:#000000;stroke-miterlimit:10;" d="M331.462,110.794l-0.125-0.125l0.966-0.966l0.116,0.135
		c0,0-0.232,0.231-0.232,0.463l3.661,3.661l4.404,2.337l3.188-0.039l-8.364-8.364c-0.367-0.367-0.831,0.116-0.831,0.116
		l-0.125-0.125l1.681-1.681l0.125,0.125c0,0-0.473,0.493-0.125,0.84l8.22,8.2c0.367,0.367,0.85-0.116,0.85-0.116l0.116,0.116
		l-1.207,1.208l-3.603,0.067l-4.54-2.415l-3.699-3.699C331.684,110.572,331.462,110.794,331.462,110.794z"/>
	<path style="fill:none;stroke:#000000;stroke-miterlimit:10;" d="M336.791,123.585l-1.217,1.217l-0.125-0.125
		c0,0,0.377-0.377,0.251-0.734l-8.335-8.316c-0.367-0.367-0.85,0.116-0.85,0.116l-0.116-0.116l1.69-1.69l0.116,0.116
		c0,0-0.473,0.474-0.106,0.84l1.922,1.941l4.105,1.922l-1.932-4.096l-1.932-1.932c-0.367-0.367-0.85,0.116-0.85,0.116l-0.116-0.116
		l1.69-1.69l0.116,0.116c0,0-0.474,0.473-0.106,0.84l8.287,8.287c0.396,0.164,0.753-0.193,0.753-0.193l0.125,0.125l-1.207,1.207
		l-4.192-2.028L336.791,123.585z M336.038,122.832l-1.681-3.574l-3.612-1.7L336.038,122.832z M334.618,118.997l3.603,1.69
		l-5.312-5.313L334.618,118.997z"/>
	<path style="fill:none;stroke:#000000;stroke-miterlimit:10;" d="M326.988,133.369l-1.217,1.217l-0.116-0.116
		c0,0,0.493-0.493,0.125-0.86l-8.21-8.21c-0.367-0.367-0.859,0.125-0.859,0.125l-0.116-0.116l1.217-1.217l5.187,3.023l-3.023-5.187
		l1.217-1.217l0.116,0.116c0,0-0.483,0.483-0.116,0.85l8.21,8.21c0.357,0.357,0.85-0.116,0.85-0.116l0.116,0.116l-1.217,1.217
		l-5.235-3.072L326.988,133.369z M318.662,125.042l7.331,7.331l-2.666-4.578L318.662,125.042z M323.569,127.554l4.588,2.656
		l-7.292-7.292L323.569,127.554z"/>
	<path style="fill:none;stroke:#000000;stroke-miterlimit:10;" d="M317.64,131.223l3.738,1.42l1.7,4.945l-4.028-1.497l-1.381-4.008
		l-5.332-1.971c-0.242,0.048-0.435,0.242-0.435,0.242l-0.126-0.125l1.333-1.333l0.125,0.125c0,0-0.203,0.203-0.251,0.444
		l4.347,1.642l-1.594-4.453c-0.28,0.009-0.454,0.318-0.454,0.318l-0.125-0.125l0.966-0.966l0.116,0.135c0,0-0.193,0.174-0.251,0.406
		L317.64,131.223z M318.992,135.26l3.448,1.304l-1.063-3.052l-3.429-1.285L318.992,135.26z"/>
	<path style="fill:none;stroke:#000000;stroke-miterlimit:10;" d="M309.624,132.4l1.69-1.69l0.116,0.116c0,0-0.483,0.483-0.116,0.85
		l8.21,8.21c0.367,0.367,0.84-0.125,0.84-0.125l0.116,0.116l-1.207,1.208l-5.062,1.449l-0.724-0.725l0.116-0.116
		c0.299,0.299,0.734,0.483,1.091,0.357l4.289-1.256l-8.394-8.394c-0.367-0.367-0.85,0.116-0.85,0.116L309.624,132.4z"/>
	<path style="fill:none;stroke:#000000;stroke-miterlimit:10;" d="M307.746,141.117l3.738,1.42l1.7,4.945l-4.028-1.497l-1.381-4.008
		l-5.332-1.971c-0.242,0.048-0.435,0.242-0.435,0.242l-0.126-0.125l1.333-1.333l0.125,0.125c0,0-0.203,0.203-0.251,0.444
		l4.347,1.642l-1.594-4.453c-0.28,0.009-0.454,0.318-0.454,0.318l-0.125-0.125l0.966-0.966l0.116,0.135c0,0-0.193,0.174-0.251,0.406
		L307.746,141.117z M309.098,145.155l3.448,1.304l-1.063-3.052l-3.429-1.285L309.098,145.155z"/>
	<path style="fill:none;stroke:#000000;stroke-miterlimit:10;" d="M296.949,145.287l-0.116-0.116l0.357-0.357l7.959,2.415
		l-0.531,4.607l4.511-1.13l-8.432-8.432c-0.367-0.367-0.85,0.116-0.85,0.116l-0.116-0.116l0.483-0.483l0.725-0.725l0.483-0.483
		l0.116,0.116c0,0-0.464,0.464-0.135,0.831l8.326,8.307c0.348,0.213,0.753-0.193,0.753-0.193l0.116,0.116l-0.473,0.473l-0.715,0.715
		l-0.019,0.039l-5.197,1.314l0.57-4.839l-7.331-2.289C297.133,145.123,297.036,145.2,296.949,145.287z"/>
	<path style="fill:none;stroke:#000000;stroke-miterlimit:10;" d="M287.166,155.07l-0.116-0.116l1.69-1.69l0.116,0.116
		c0,0-0.483,0.483-0.106,0.84l4.578,4.598l1.333-4.462l5.187,5.187c0.367,0.367,0.84-0.125,0.84-0.125l0.116,0.116l-1.69,1.69
		l-0.116-0.116c0,0,0.493-0.474,0.126-0.84l-4.472-4.472l-1.323,4.472l-5.313-5.313C287.649,154.587,287.166,155.07,287.166,155.07z
		"/>
	<path style="fill:none;stroke:#000000;stroke-miterlimit:10;" d="M292.716,166.674l-8.21-8.21c-0.367-0.367-0.85,0.116-0.85,0.116
		l-0.116-0.116l1.69-1.69l0.116,0.116c0,0-0.483,0.483-0.116,0.85l8.21,8.21c0.367,0.367,0.85-0.116,0.85-0.116l0.116,0.116
		l-1.69,1.69l-0.116-0.116C292.601,167.524,293.083,167.042,292.716,166.674z"/>
	<path style="fill:none;stroke:#000000;stroke-miterlimit:10;" d="M288.61,171.5h-4.346h-0.483h3.632l-7.853-7.971
		c-0.367-0.367-0.859,0.066-0.859,0.066l-0.116-0.145l1.7-1.715l0.116,0.108c0,0-0.483,0.48-0.116,0.847l7.804,7.802l-0.203-3.816
		l0.483,0.359L288.61,171.5z"/>
	<path style="fill:none;stroke:#000000;stroke-miterlimit:10;" d="M270.393,171.864l-0.116-0.116l1.7-1.7l0.116,0.116
		c0,0-0.483,0.483-0.116,0.85l8.21,8.21c0.357,0.357,0.84-0.125,0.84-0.125l0.116,0.116l-1.217,1.217l-5.052,1.439l-0.84-0.84
		l0.116-0.116c0.271,0.27,0.946,0.579,1.198,0.483l4.308-1.236l-2.501-2.502l-5.052,1.439l-0.85-0.85l0.116-0.116
		c0.261,0.261,0.966,0.579,1.217,0.483l4.317-1.246l-5.641-5.641c-0.367-0.367-0.859,0.125-0.859,0.125L270.393,171.864z"/>
	<path style="fill:none;stroke:#000000;stroke-miterlimit:10;" d="M272.819,187.557l-1.217,1.217l-0.125-0.125
		c0,0,0.377-0.377,0.251-0.734l-8.335-8.316c-0.367-0.367-0.85,0.116-0.85,0.116l-0.116-0.116l1.69-1.69l0.116,0.116
		c0,0-0.473,0.473-0.106,0.84l1.922,1.941l4.105,1.922l-1.932-4.096l-1.932-1.932c-0.367-0.367-0.85,0.116-0.85,0.116l-0.116-0.116
		l1.69-1.69l0.116,0.116c0,0-0.474,0.473-0.106,0.84l8.287,8.287c0.396,0.164,0.753-0.193,0.753-0.193l0.125,0.126l-1.207,1.207
		l-4.192-2.028L272.819,187.557z M272.065,186.804l-1.681-3.574l-3.612-1.7L272.065,186.804z M270.646,182.969l3.603,1.69
		l-5.312-5.313L270.646,182.969z"/>
	<path style="fill:none;stroke:#000000;stroke-miterlimit:10;" d="M267.856,192.5l-1.208,1.207l-0.116-0.116
		c0,0,0.406-0.406,0.193-0.753l-8.288-8.307c-0.367-0.367-0.85,0.116-0.85,0.116l-0.116-0.116l1.69-1.69l0.116,0.116
		c0,0-0.483,0.483-0.116,0.85l7.988,7.949l-1.941-4.085l4.105,1.941l-7.978-7.978c-0.367-0.367-0.85,0.116-0.85,0.116l-0.116-0.116
		l1.69-1.69l0.116,0.116c0,0-0.483,0.483-0.116,0.85l8.307,8.287c0.348,0.213,0.753-0.193,0.753-0.193l0.116,0.116l-1.207,1.208
		l-0.106-0.106l-4.23-2.067l2.067,4.25L267.856,192.5z"/>
	<path style="fill:none;stroke:#000000;stroke-miterlimit:10;" d="M264.006,196.5h-4.346l-0.483-1h3.632l-7.853-7.669
		c-0.367-0.367-0.859,0.217-0.859,0.217l-0.116-0.07l1.7-1.677l0.116,0.127c0,0-0.483,0.489-0.116,0.855l7.804,7.807l-0.203-3.813
		l0.483,0.559L264.006,196.5z"/>
	<path style="fill:none;stroke:#000000;stroke-miterlimit:10;" d="M240.715,201.29l1.69-1.69l0.125,0.125
		c0,0-0.483,0.483-0.116,0.85l8.2,8.2c0.367,0.367,0.85-0.116,0.85-0.116l0.116,0.116l-1.69,1.69l-0.116-0.116
		c0,0,0.483-0.483,0.116-0.85l-4.607-4.607l-7.341-0.831l0.84-0.84l0.125,0.125c-0.096,0.097-0.318,0.319-0.154,0.483l6.153,0.686
		l-3.217-3.217c-0.367-0.367-0.85,0.116-0.85,0.116L240.715,201.29z"/>
	<path style="fill:none;stroke:#000000;stroke-miterlimit:10;" d="M238.858,210.004l3.738,1.42l1.7,4.945l-4.027-1.497l-1.381-4.008
		l-5.332-1.971c-0.242,0.048-0.435,0.242-0.435,0.242l-0.126-0.125l1.333-1.333l0.125,0.125c0,0-0.203,0.203-0.251,0.444
		l4.347,1.642l-1.594-4.453c-0.28,0.009-0.454,0.318-0.454,0.318l-0.125-0.125l0.966-0.966l0.116,0.135c0,0-0.193,0.174-0.251,0.406
		L238.858,210.004z M240.21,214.042l3.448,1.304l-1.063-3.052l-3.429-1.285L240.21,214.042z"/>
	<path style="fill:none;stroke:#000000;stroke-miterlimit:10;" d="M236.307,217.134l2.975,2.975c0.367,0.367,0.85-0.116,0.85-0.116
		l0.116,0.116l-1.69,1.69l-0.116-0.116c0,0,0.483-0.483,0.116-0.85l-3.293-3.294l-2.289,0.879c-0.058,0.154,0.154,0.367,0.154,0.367
		l-0.116,0.116l-0.85-0.85l0.116-0.116c0.145,0.145,0.28,0.203,0.454,0.203l2.27-0.86l-4.656-4.655
		c-0.367-0.367-0.84,0.125-0.84,0.125l-0.125-0.125l1.69-1.69l0.125,0.125c0,0-0.493,0.474-0.125,0.84l4.984,4.984l2.26-0.869
		c0.077-0.116,0.029-0.241-0.106-0.376l0.116-0.116l0.84,0.84l-0.116,0.116c-0.106-0.106-0.271-0.232-0.415-0.242L236.307,217.134z"
		/>
	<path style="fill:none;stroke:#000000;stroke-miterlimit:10;" d="M223.095,219.141l-0.116-0.116l1.69-1.69l0.116,0.116
		c0,0-0.483,0.483-0.106,0.84l4.578,4.597l1.333-4.462l5.187,5.187c0.367,0.367,0.84-0.125,0.84-0.125l0.116,0.116l-1.69,1.69
		l-0.116-0.116c0,0,0.493-0.474,0.126-0.84l-4.472-4.472l-1.323,4.472l-5.313-5.313
		C223.578,218.658,223.095,219.141,223.095,219.141z"/>
	<path style="fill:none;stroke:#000000;stroke-miterlimit:10;" d="M228.407,231.95l-1.208,1.207l-0.116-0.116
		c0,0,0.406-0.406,0.193-0.753l-8.288-8.307c-0.367-0.367-0.85,0.116-0.85,0.116l-0.116-0.116l1.69-1.69l0.116,0.116
		c0,0-0.483,0.483-0.116,0.85l7.988,7.949l-1.941-4.085l4.105,1.941l-7.978-7.978c-0.367-0.367-0.85,0.116-0.85,0.116l-0.116-0.116
		l1.69-1.69l0.116,0.116c0,0-0.483,0.483-0.116,0.85l8.307,8.287c0.348,0.213,0.753-0.193,0.753-0.193l0.116,0.116l-1.207,1.208
		l-0.106-0.106l-4.23-2.067l2.067,4.25L228.407,231.95z"/>
	<path style="fill:none;stroke:#000000;stroke-miterlimit:10;" d="M215.983,226.022l1.69-1.69l0.125,0.125
		c0,0-0.483,0.483-0.116,0.85l8.2,8.2c0.367,0.367,0.85-0.116,0.85-0.116l0.116,0.116l-1.69,1.69l-0.116-0.116
		c0,0,0.483-0.483,0.116-0.85l-4.607-4.607l-7.341-0.831l0.84-0.84l0.125,0.125c-0.096,0.097-0.318,0.319-0.154,0.483l6.152,0.686
		l-3.216-3.217c-0.367-0.367-0.85,0.116-0.85,0.116L215.983,226.022z"/>
	<path style="fill:none;stroke:#000000;stroke-miterlimit:10;" d="M219.6,240.5h-4.346h-0.483h3.632l-7.853-7.966
		c-0.367-0.367-0.859,0.069-0.859,0.069l-0.116-0.144l1.7-1.714l0.116,0.109c0,0-0.483,0.479-0.116,0.846l7.804,7.803l-0.203-3.816
		l0.483,0.354L219.6,240.5z"/>
	<path style="fill:none;stroke:#000000;stroke-miterlimit:10;" d="M213.576,246.781l-1.208,1.207l-0.116-0.116
		c0,0,0.406-0.406,0.193-0.753l-8.287-8.307c-0.367-0.367-0.85,0.116-0.85,0.116l-0.116-0.116l1.69-1.69l0.116,0.116
		c0,0-0.483,0.483-0.116,0.85l7.988,7.949l-1.941-4.085l4.105,1.941l-7.978-7.978c-0.367-0.367-0.85,0.116-0.85,0.116l-0.116-0.116
		l1.69-1.69l0.116,0.116c0,0-0.483,0.483-0.116,0.85l8.307,8.287c0.348,0.213,0.753-0.193,0.753-0.193l0.116,0.116l-1.207,1.208
		l-0.106-0.106l-4.23-2.067l2.067,4.25L213.576,246.781z"/>
	<path style="fill:none;stroke:#000000;stroke-miterlimit:10;" d="M209.708,250.5h-4.346h-0.483h3.632l-7.853-8.02
		c-0.367-0.367-0.859,0.042-0.859,0.042l-0.116-0.157l1.7-1.721l0.116,0.105c0,0-0.483,0.479-0.116,0.845l7.804,7.801l-0.203-3.816
		l0.483,0.408L209.708,250.5z"/>
	<path style="fill:none;stroke:#000000;stroke-miterlimit:10;" d="M193.41,248.846l-0.125-0.125l0.966-0.966l0.116,0.135
		c0,0-0.232,0.231-0.232,0.463l3.661,3.661l4.404,2.337l3.188-0.039l-8.364-8.364c-0.367-0.367-0.831,0.116-0.831,0.116
		l-0.125-0.125l1.681-1.681l0.125,0.125c0,0-0.473,0.493-0.125,0.84l8.22,8.2c0.367,0.367,0.85-0.116,0.85-0.116l0.116,0.116
		l-1.207,1.208l-3.603,0.067l-4.54-2.415l-3.699-3.699C193.632,248.624,193.41,248.846,193.41,248.846z"/>
	<path style="fill:none;stroke:#000000;stroke-miterlimit:10;" d="M188.478,253.759l-0.116-0.116l0.357-0.357l7.959,2.415
		l-0.531,4.607l4.511-1.13l-8.432-8.432c-0.367-0.367-0.85,0.116-0.85,0.116l-0.116-0.116l0.483-0.483l0.725-0.725l0.483-0.483
		l0.116,0.116c0,0-0.464,0.464-0.135,0.831l8.326,8.307c0.348,0.213,0.753-0.193,0.753-0.193l0.116,0.116l-0.473,0.473l-0.715,0.715
		l-0.019,0.039l-5.197,1.314l0.57-4.839l-7.331-2.289C188.661,253.595,188.564,253.672,188.478,253.759z"/>
	<path style="fill:none;stroke:#000000;stroke-miterlimit:10;" d="M181.594,260.662l-0.116-0.116l1.7-1.7l0.116,0.116
		c0,0-0.483,0.483-0.116,0.85l8.21,8.21c0.357,0.357,0.84-0.125,0.84-0.125l0.116,0.116l-1.217,1.217l-5.052,1.439l-0.84-0.84
		l0.116-0.116c0.271,0.27,0.946,0.579,1.198,0.483l4.308-1.236l-2.501-2.502l-5.052,1.439l-0.85-0.85l0.116-0.116
		c0.261,0.261,0.966,0.579,1.217,0.483l4.317-1.246l-5.641-5.641c-0.367-0.367-0.859,0.125-0.859,0.125L181.594,260.662z"/>
	<path style="fill:none;stroke:#000000;stroke-miterlimit:10;" d="M184.011,276.346l-1.217,1.217l-0.116-0.116
		c0,0,0.493-0.493,0.125-0.86l-8.21-8.21c-0.367-0.367-0.859,0.125-0.859,0.125l-0.116-0.116l1.217-1.217l5.187,3.023l-3.023-5.187
		l1.217-1.217l0.116,0.116c0,0-0.483,0.483-0.116,0.85l8.21,8.21c0.357,0.357,0.85-0.116,0.85-0.116l0.116,0.116l-1.217,1.217
		l-5.235-3.072L184.011,276.346z M175.685,268.02l7.331,7.331l-2.666-4.578L175.685,268.02z M180.591,270.531l4.588,2.656
		l-7.292-7.292L180.591,270.531z"/>
	<path style="fill:none;stroke:#000000;stroke-miterlimit:10;" d="M179.316,280.075l-8.21-8.21c-0.367-0.367-0.85,0.116-0.85,0.116
		l-0.116-0.116l1.69-1.69l0.116,0.116c0,0-0.483,0.483-0.116,0.85l8.21,8.21c0.367,0.367,0.85-0.116,0.85-0.116l0.116,0.116
		l-1.69,1.69l-0.116-0.116C179.2,280.925,179.683,280.442,179.316,280.075z"/>
	<path style="fill:none;stroke:#000000;stroke-miterlimit:10;" d="M173.395,286.962l-0.483,0.483l-0.116-0.116
		c0,0,0.483-0.483,0.116-0.85l-2.656-2.656l5.641-0.889l-7.64-7.64l-0.889,5.622l-2.656-2.656c-0.367-0.367-0.85,0.116-0.85,0.116
		l-0.116-0.116l1.69-1.69l0.116,0.116c0,0-0.483,0.483-0.116,0.85l1.932,1.932l0.85-5.68l8.934,8.935l0.242,0.241l-5.679,0.85
		l2.415,2.415l-0.725,0.724L173.395,286.962z"/>
	<path style="fill:none;stroke:#000000;stroke-miterlimit:10;" d="M169.417,289.973l-8.21-8.21c-0.367-0.367-0.85,0.116-0.85,0.116
		l-0.116-0.116l1.69-1.69l0.116,0.116c0,0-0.483,0.483-0.116,0.85l8.21,8.21c0.367,0.367,0.85-0.116,0.85-0.116l0.116,0.116
		l-1.69,1.69l-0.116-0.116C169.302,290.823,169.785,290.34,169.417,289.973z"/>
	<path style="fill:none;stroke:#000000;stroke-miterlimit:10;" d="M153.957,288.279l-0.116-0.116l1.69-1.69l0.116,0.116
		c0,0-0.483,0.483-0.106,0.84l4.578,4.598l1.333-4.462l5.187,5.187c0.367,0.367,0.84-0.125,0.84-0.125l0.116,0.116l-1.69,1.69
		l-0.116-0.116c0,0,0.493-0.474,0.126-0.84l-4.472-4.472l-1.323,4.472l-5.313-5.313C154.44,287.796,153.957,288.279,153.957,288.279
		z"/>
	<path style="fill:none;stroke:#000000;stroke-miterlimit:10;" d="M159.52,299.871l-8.21-8.21c-0.367-0.367-0.85,0.116-0.85,0.116
		l-0.116-0.116l1.69-1.69l0.116,0.116c0,0-0.483,0.483-0.116,0.85l8.21,8.21c0.367,0.367,0.85-0.116,0.85-0.116l0.116,0.116
		l-1.69,1.69l-0.116-0.116C159.404,300.721,159.887,300.238,159.52,299.871z"/>
	<path style="fill:none;stroke:#000000;stroke-miterlimit:10;" d="M146.857,295.148l1.69-1.69l0.125,0.125
		c0,0-0.483,0.483-0.116,0.85l8.2,8.2c0.367,0.367,0.85-0.116,0.85-0.116l0.116,0.116l-1.69,1.69l-0.116-0.116
		c0,0,0.483-0.483,0.116-0.85l-4.607-4.607l-7.341-0.831l0.84-0.84l0.125,0.125c-0.096,0.097-0.318,0.319-0.154,0.483l6.152,0.686
		l-3.216-3.217c-0.367-0.367-0.85,0.116-0.85,0.116L146.857,295.148z"/>
	<path style="fill:none;stroke:#000000;stroke-miterlimit:10;" d="M149.62,309.771l-8.21-8.21c-0.367-0.367-0.85,0.116-0.85,0.116
		l-0.116-0.116l1.69-1.69l0.116,0.116c0,0-0.483,0.483-0.116,0.85l8.21,8.21c0.367,0.367,0.85-0.116,0.85-0.116l0.116,0.116
		l-1.69,1.69l-0.116-0.116C149.504,310.621,149.987,310.138,149.62,309.771z"/>
	<path style="fill:none;stroke:#000000;stroke-miterlimit:10;" d="M142.431,311.01l2.975,2.975c0.367,0.367,0.85-0.116,0.85-0.116
		l0.116,0.116l-1.69,1.69l-0.116-0.116c0,0,0.483-0.483,0.116-0.85l-3.293-3.294l-2.289,0.879c-0.058,0.154,0.154,0.367,0.154,0.367
		l-0.116,0.116l-0.85-0.85l0.116-0.116c0.145,0.145,0.28,0.203,0.454,0.203l2.27-0.86l-4.656-4.655
		c-0.367-0.367-0.84,0.125-0.84,0.125l-0.125-0.125l1.69-1.69l0.125,0.125c0,0-0.493,0.474-0.125,0.84l4.984,4.984l2.26-0.869
		c0.077-0.116,0.029-0.241-0.106-0.376l0.116-0.116l0.84,0.84l-0.116,0.116c-0.106-0.106-0.271-0.232-0.415-0.242L142.431,311.01z"
		/>
	<path style="fill:none;stroke:#000000;stroke-miterlimit:10;" d="M138.406,321.544l-1.304-3.197l-2.753-1.285l-1.516-2.792
		l-3.207-1.487c-0.212,0.058-0.406,0.231-0.406,0.231l-0.116-0.116l1.449-1.449l0.116,0.116c0,0-0.232,0.251-0.242,0.531
		l5.119,2.396l-2.173-5.341c-0.28,0.01-0.531,0.241-0.531,0.241l-0.116-0.116l0.966-0.966l0.116,0.116c0,0-0.174,0.193-0.232,0.425
		l1.275,3.148l2.956,1.372l1.594,2.927l2.83,1.323c0.28-0.01,0.521-0.251,0.521-0.251l0.116,0.116l-1.449,1.449l-0.116-0.116
		c0,0,0.241-0.242,0.251-0.521l-5.1-2.357l2.154,5.303c0.28-0.01,0.521-0.251,0.521-0.251l0.116,0.116l-0.966,0.966l-0.116-0.116
		C138.165,321.96,138.349,321.776,138.406,321.544z M136.639,317.188l-0.579-1.43l-2.753-1.265l0.831,1.545L136.639,317.188z
		 M135.943,314.677l2.985,1.4l-0.898-1.671l-2.705-1.256L135.943,314.677z"/>
	<path style="fill:none;stroke:#000000;stroke-miterlimit:10;" d="M129.723,330.634l-1.208,1.207l-0.116-0.116
		c0,0,0.406-0.406,0.193-0.753l-8.288-8.307c-0.367-0.367-0.85,0.116-0.85,0.116l-0.116-0.116l1.69-1.69l0.116,0.116
		c0,0-0.483,0.483-0.116,0.85l7.988,7.949l-1.941-4.085l4.105,1.941l-7.978-7.978c-0.367-0.367-0.85,0.116-0.85,0.116l-0.116-0.116
		l1.69-1.69l0.116,0.116c0,0-0.483,0.483-0.116,0.85l8.307,8.287c0.348,0.213,0.753-0.193,0.753-0.193l0.116,0.116l-1.207,1.208
		l-0.106-0.106l-4.23-2.067l2.067,4.25L129.723,330.634z"/>
	<path style="fill:none;stroke:#000000;stroke-miterlimit:10;" d="M117.298,324.726l1.69-1.69l0.116,0.116
		c0,0-0.483,0.483-0.116,0.85l8.21,8.21c0.367,0.367,0.84-0.125,0.84-0.125l0.116,0.116l-1.207,1.208l-5.062,1.449l-0.724-0.725
		l0.116-0.116c0.299,0.299,0.734,0.483,1.091,0.357l4.289-1.256l-8.394-8.394c-0.367-0.367-0.85,0.116-0.85,0.116L117.298,324.726z"
		/>
	<path style="fill:none;stroke:#000000;stroke-miterlimit:10;" d="M120.066,339.324l-8.21-8.21c-0.367-0.367-0.85,0.116-0.85,0.116
		l-0.116-0.116l1.69-1.69l0.116,0.116c0,0-0.483,0.483-0.116,0.85l8.21,8.21c0.367,0.367,0.85-0.116,0.85-0.116l0.116,0.116
		l-1.69,1.69l-0.116-0.116C119.951,340.174,120.434,339.691,120.066,339.324z"/>
	<path style="fill:none;stroke:#000000;stroke-miterlimit:10;" d="M115.947,344.5h-4.346l-0.483-1h3.632l-7.853-7.64
		c-0.367-0.367-0.859,0.232-0.859,0.232l-0.116-0.063l1.7-1.674l0.116,0.129c0,0-0.483,0.49-0.116,0.856l7.804,7.808l-0.203-3.813
		l0.483,0.529L115.947,344.5z"/>
	<path style="fill:none;stroke:#000000;stroke-miterlimit:10;" d="M89.875,352.362l-0.116-0.116l1.69-1.69l0.116,0.116
		c0,0-0.483,0.483-0.106,0.84l4.578,4.597l1.333-4.462l5.187,5.187c0.367,0.367,0.84-0.125,0.84-0.125l0.116,0.116l-1.69,1.69
		l-0.116-0.116c0,0,0.493-0.474,0.126-0.84l-4.472-4.472l-1.323,4.472l-5.313-5.313C90.357,351.879,89.875,352.362,89.875,352.362z"
		/>
	<path style="fill:none;stroke:#000000;stroke-miterlimit:10;" d="M95.205,365.152l-1.208,1.207l-0.116-0.116
		c0,0,0.406-0.406,0.193-0.753l-8.287-8.307c-0.367-0.367-0.85,0.116-0.85,0.116l-0.116-0.116l1.69-1.69l0.116,0.116
		c0,0-0.483,0.483-0.116,0.85l7.988,7.949l-1.941-4.085l4.105,1.941l-7.978-7.978c-0.367-0.367-0.85,0.116-0.85,0.116l-0.116-0.116
		l1.69-1.69l0.116,0.116c0,0-0.483,0.483-0.116,0.85l8.307,8.287c0.348,0.213,0.753-0.193,0.753-0.193l0.116,0.116l-1.207,1.208
		l-0.106-0.106l-4.23-2.067l2.067,4.25L95.205,365.152z"/>
	<path style="fill:none;stroke:#000000;stroke-miterlimit:10;" d="M90.256,370.101l-1.217,1.217l-0.116-0.116
		c0,0,0.493-0.493,0.125-0.86l-8.21-8.21c-0.367-0.367-0.859,0.125-0.859,0.125l-0.116-0.116l1.217-1.217l5.187,3.023l-3.023-5.187
		l1.217-1.217l0.116,0.116c0,0-0.483,0.483-0.116,0.85l8.21,8.21c0.357,0.357,0.85-0.116,0.85-0.116l0.116,0.116l-1.217,1.217
		l-5.235-3.072L90.256,370.101z M81.93,361.774l7.331,7.331l-2.666-4.578L81.93,361.774z M86.837,364.286l4.588,2.656l-7.292-7.292
		L86.837,364.286z"/>
	<path style="fill:none;stroke:#000000;stroke-miterlimit:10;" d="M80.478,379.879l-1.217,1.217l-0.116-0.116
		c0,0,0.493-0.493,0.125-0.86l-8.21-8.21c-0.367-0.367-0.859,0.125-0.859,0.125l-0.116-0.116l1.217-1.217l5.187,3.023l-3.023-5.187
		l1.217-1.217l0.116,0.116c0,0-0.483,0.483-0.116,0.85l8.21,8.21c0.357,0.357,0.85-0.116,0.85-0.116l0.116,0.116l-1.217,1.217
		l-5.235-3.072L80.478,379.879z M72.151,371.553l7.331,7.331l-2.666-4.578L72.151,371.553z M77.058,374.064l4.588,2.656
		l-7.292-7.292L77.058,374.064z"/>
	<path style="fill:none;stroke:#000000;stroke-miterlimit:10;" d="M71.129,377.733l3.738,1.42l1.7,4.945l-4.028-1.497l-1.381-4.008
		l-5.332-1.971c-0.242,0.048-0.435,0.242-0.435,0.242l-0.126-0.125l1.333-1.333l0.125,0.125c0,0-0.203,0.203-0.251,0.444
		l4.347,1.642l-1.594-4.453c-0.28,0.009-0.454,0.318-0.454,0.318l-0.125-0.125l0.966-0.966l0.116,0.135c0,0-0.193,0.174-0.251,0.406
		L71.129,377.733z M72.481,381.771l3.448,1.304l-1.063-3.052l-3.429-1.285L72.481,381.771z"/>
</g>
<rect x="160.429" y="160.429" transform="matrix(0.7071 -0.7071 0.7071 0.7071 -165.6854 400)" style="fill:none;stroke:#000000;stroke-miterlimit:10;" width="479.142" height="479.142"/>
<rect x="140" y="140" transform="matrix(0.7071 -0.7071 0.7071 0.7071 -165.4783 399.5)" style="fill:none;stroke:#000000;stroke-width:2;stroke-miterlimit:10;" width="519" height="519"/>
<rect x="145.442" y="145.442" transform="matrix(0.7071 -0.7071 0.7071 0.7071 -165.6854 400)" style="fill:none;stroke:#000000;stroke-width:3;stroke-miterlimit:10;" width="509.117" height="509.117"/>
<rect x="232.062" y="232.062" transform="matrix(0.7071 -0.7071 0.7071 0.7071 -165.6854 400)" style="fill:none;stroke:#000000;stroke-width:2;stroke-miterlimit:10;" width="335.876" height="335.876"/>
<g>
	<path style="fill:none;stroke:#000000;stroke-miterlimit:10;" d="M125.66,483.636l-1.69-1.689l0.116-0.116
		c0,0,0.483,0.482,0.85,0.116l8.21-8.21c0.367-0.367-0.125-0.841-0.125-0.841l0.116-0.116l1.208,1.208l1.449,5.061l-0.725,0.725
		l-0.116-0.116c0.299-0.299,0.483-0.733,0.357-1.091l-1.256-4.289l-8.394,8.394c-0.367,0.367,0.116,0.851,0.116,0.851
		L125.66,483.636z"/>
	<path style="fill:none;stroke:#000000;stroke-miterlimit:10;" d="M134.37,485.507l1.42-3.737l4.945-1.7l-1.497,4.027l-4.008,1.382
		l-1.971,5.331c0.048,0.241,0.242,0.435,0.242,0.435l-0.125,0.126l-1.333-1.333l0.125-0.126c0,0,0.203,0.203,0.444,0.251
		l1.642-4.346l-4.453,1.594c0.009,0.279,0.318,0.453,0.318,0.453l-0.125,0.126l-0.966-0.966l0.135-0.116
		c0,0,0.174,0.193,0.406,0.251L134.37,485.507z M138.408,484.154l1.304-3.447l-3.052,1.063l-1.285,3.429L138.408,484.154z"/>
	<path style="fill:none;stroke:#000000;stroke-miterlimit:10;" d="M138.559,496.322l-0.116,0.115l-0.357-0.356l2.415-7.959
		l4.607,0.531l-1.13-4.511l-8.432,8.432c-0.367,0.367,0.116,0.851,0.116,0.851l-0.116,0.115l-0.483-0.482l-0.725-0.725l-0.483-0.483
		l0.116-0.115c0,0,0.464,0.463,0.831,0.135l8.307-8.326c0.213-0.348-0.193-0.753-0.193-0.753l0.116-0.116l0.473,0.474l0.715,0.715
		l0.039,0.02l1.314,5.196l-4.839-0.57l-2.289,7.331C138.395,496.139,138.472,496.235,138.559,496.322z"/>
	<path style="fill:none;stroke:#000000;stroke-miterlimit:10;" d="M151.35,490.992l1.207,1.207l-0.116,0.116
		c0,0-0.406-0.405-0.753-0.193l-8.307,8.287c-0.367,0.367,0.116,0.851,0.116,0.851l-0.116,0.115l-1.69-1.689l0.116-0.116
		c0,0,0.483,0.482,0.85,0.116l7.949-7.988l-4.085,1.941l1.941-4.104l-7.978,7.978c-0.367,0.367,0.116,0.851,0.116,0.851
		l-0.116,0.115l-1.69-1.69l0.116-0.115c0,0,0.483,0.482,0.85,0.115l8.287-8.307c0.213-0.348-0.193-0.753-0.193-0.753l0.116-0.116
		l1.208,1.208l-0.106,0.105l-2.067,4.231l4.25-2.067L151.35,490.992z"/>
	<path style="fill:none;stroke:#000000;stroke-miterlimit:10;" d="M156.304,495.928l1.217,1.217l-0.125,0.126
		c0,0-0.377-0.377-0.734-0.251l-8.316,8.335c-0.367,0.367,0.116,0.851,0.116,0.851l-0.116,0.115l-1.69-1.689l0.116-0.116
		c0,0,0.473,0.474,0.84,0.106l1.941-1.923l1.922-4.104l-4.096,1.932l-1.932,1.932c-0.367,0.367,0.116,0.851,0.116,0.851
		l-0.116,0.115l-1.69-1.69l0.116-0.115c0,0,0.473,0.473,0.84,0.106l8.287-8.288c0.164-0.396-0.193-0.753-0.193-0.753l0.126-0.126
		l1.207,1.208l-2.028,4.191L156.304,495.928z M151.716,498.102l1.69-3.604l-5.313,5.313L151.716,498.102z M155.551,496.682
		l-3.574,1.681l-1.7,3.612L155.551,496.682z"/>
	<path style="fill:none;stroke:#000000;stroke-miterlimit:10;" d="M164.867,505.477l-8.21,8.21c-0.367,0.367,0.116,0.85,0.116,0.85
		l-0.116,0.116l-1.69-1.69l0.116-0.116c0,0,0.483,0.483,0.85,0.116l8.21-8.21c0.367-0.367-0.116-0.85-0.116-0.85l0.116-0.116
		l1.69,1.69l-0.116,0.115C165.717,505.592,165.234,505.109,164.867,505.477z"/>
	<path style="fill:none;stroke:#000000;stroke-miterlimit:10;" d="M171.752,511.396l0.483,0.482l-0.116,0.116
		c0,0-0.483-0.483-0.85-0.116l-2.656,2.656l-0.889-5.641l-7.64,7.641l5.622,0.888l-2.656,2.656
		c-0.367,0.367,0.116,0.851,0.116,0.851l-0.116,0.115l-1.69-1.689l0.116-0.116c0,0,0.483,0.482,0.85,0.116l1.932-1.933l-5.68-0.85
		l8.935-8.935l0.241-0.241l0.85,5.68l2.415-2.415l0.724,0.725L171.752,511.396z"/>
	<path style="fill:none;stroke:#000000;stroke-miterlimit:10;" d="M168.124,525.888l-0.116,0.115l-1.69-1.689l0.116-0.116
		c0,0,0.483,0.482,0.84,0.106l4.598-4.578l-4.462-1.333l5.187-5.188c0.367-0.366-0.125-0.84-0.125-0.84l0.116-0.116l1.69,1.69
		l-0.116,0.116c0,0-0.474-0.493-0.84-0.126l-4.472,4.473l4.472,1.323l-5.313,5.312C167.641,525.404,168.124,525.888,168.124,525.888
		z"/>
	<path style="fill:none;stroke:#000000;stroke-miterlimit:10;" d="M173.081,530.824l-0.125,0.125l-0.966-0.966l0.135-0.115
		c0,0,0.231,0.231,0.463,0.231l3.661-3.661l2.337-4.404l-0.039-3.188l-8.364,8.365c-0.367,0.367,0.116,0.83,0.116,0.83l-0.125,0.126
		l-1.681-1.681l0.125-0.126c0,0,0.493,0.474,0.84,0.126l8.2-8.22c0.367-0.367-0.116-0.85-0.116-0.85l0.116-0.116l1.208,1.207
		l0.067,3.603l-2.415,4.54l-3.699,3.699C172.858,530.602,173.081,530.824,173.081,530.824z"/>
	<path style="fill:none;stroke:#000000;stroke-miterlimit:10;" d="M185.881,525.506l1.217,1.217l-0.125,0.126
		c0,0-0.377-0.377-0.734-0.251l-8.316,8.335c-0.367,0.367,0.116,0.851,0.116,0.851l-0.116,0.115l-1.69-1.689l0.116-0.116
		c0,0,0.474,0.474,0.84,0.106l1.941-1.923l1.922-4.104l-4.096,1.932l-1.932,1.932c-0.367,0.367,0.116,0.851,0.116,0.851
		l-0.116,0.115l-1.69-1.69l0.116-0.115c0,0,0.473,0.473,0.84,0.106l8.287-8.288c0.164-0.396-0.193-0.753-0.193-0.753l0.125-0.126
		l1.207,1.208l-2.028,4.191L185.881,525.506z M181.293,527.68l1.69-3.604l-5.313,5.313L181.293,527.68z M185.127,526.26
		l-3.574,1.681l-1.7,3.612L185.127,526.26z"/>
	<path style="fill:none;stroke:#000000;stroke-miterlimit:10;" d="M195.64,535.283l1.217,1.217l-0.116,0.116
		c0,0-0.493-0.492-0.86-0.126l-8.21,8.21c-0.367,0.367,0.125,0.86,0.125,0.86l-0.116,0.115l-1.217-1.217l3.023-5.187l-5.187,3.023
		l-1.217-1.218l0.116-0.115c0,0,0.483,0.482,0.85,0.115l8.21-8.21c0.357-0.357-0.116-0.85-0.116-0.85l0.116-0.116l1.217,1.218
		l-3.072,5.234L195.64,535.283z M189.825,538.702l2.656-4.588l-7.292,7.293L189.825,538.702z M187.314,543.609l7.331-7.331
		l-4.578,2.666L187.314,543.609z"/>
	<path style="fill:none;stroke:#000000;stroke-miterlimit:10;" d="M193.497,544.635l1.42-3.738l4.945-1.699l-1.497,4.027
		l-4.008,1.381l-1.971,5.332c0.048,0.241,0.242,0.435,0.242,0.435l-0.125,0.126l-1.333-1.333l0.125-0.126
		c0,0,0.203,0.203,0.444,0.251l1.642-4.346l-4.453,1.594c0.009,0.279,0.318,0.453,0.318,0.453l-0.125,0.126l-0.966-0.966
		l0.135-0.116c0,0,0.174,0.193,0.406,0.251L193.497,544.635z M197.535,543.282l1.304-3.447l-3.052,1.062l-1.285,3.43
		L197.535,543.282z"/>
	<path style="fill:none;stroke:#000000;stroke-miterlimit:10;" d="M194.681,552.657l-1.69-1.689l0.116-0.116
		c0,0,0.483,0.482,0.85,0.116l8.21-8.21c0.367-0.367-0.125-0.841-0.125-0.841l0.116-0.116l1.208,1.208l1.449,5.061l-0.725,0.725
		l-0.116-0.116c0.299-0.299,0.483-0.733,0.357-1.091l-1.256-4.289l-8.394,8.394c-0.367,0.367,0.116,0.851,0.116,0.851
		L194.681,552.657z"/>
	<path style="fill:none;stroke:#000000;stroke-miterlimit:10;" d="M203.401,554.538l1.42-3.737l4.945-1.7l-1.497,4.027l-4.008,1.382
		l-1.971,5.331c0.048,0.241,0.242,0.435,0.242,0.435l-0.125,0.126l-1.333-1.333l0.125-0.126c0,0,0.203,0.203,0.444,0.251
		l1.642-4.346l-4.453,1.594c0.009,0.279,0.318,0.453,0.318,0.453l-0.125,0.126l-0.966-0.966l0.135-0.116
		c0,0,0.174,0.193,0.406,0.251L203.401,554.538z M207.439,553.186l1.304-3.447l-3.052,1.063l-1.285,3.429L207.439,553.186z"/>
	<path style="fill:none;stroke:#000000;stroke-miterlimit:10;" d="M207.572,565.336l-0.116,0.115l-0.357-0.356l2.415-7.959
		l4.607,0.531l-1.13-4.511l-8.432,8.432c-0.367,0.367,0.116,0.851,0.116,0.851l-0.116,0.115l-0.483-0.482l-0.725-0.725l-0.483-0.483
		l0.116-0.115c0,0,0.464,0.463,0.831,0.135l8.307-8.326c0.213-0.348-0.193-0.753-0.193-0.753l0.116-0.116l0.473,0.474l0.715,0.715
		l0.039,0.02l1.314,5.196l-4.839-0.57l-2.289,7.331C207.408,565.152,207.485,565.249,207.572,565.336z"/>
	<path style="fill:none;stroke:#000000;stroke-miterlimit:10;" d="M217.353,575.116l-0.116,0.115l-1.69-1.689l0.116-0.116
		c0,0,0.483,0.482,0.84,0.106l4.597-4.578l-4.462-1.333l5.187-5.188c0.367-0.366-0.125-0.84-0.125-0.84l0.116-0.116l1.69,1.69
		l-0.116,0.116c0,0-0.474-0.493-0.84-0.126l-4.472,4.473l4.472,1.323l-5.313,5.312C216.87,574.633,217.353,575.116,217.353,575.116z
		"/>
	<path style="fill:none;stroke:#000000;stroke-miterlimit:10;" d="M228.937,569.547l-8.21,8.21c-0.367,0.367,0.116,0.85,0.116,0.85
		l-0.116,0.116l-1.69-1.69l0.116-0.116c0,0,0.483,0.483,0.85,0.116l8.21-8.21c0.367-0.367-0.116-0.85-0.116-0.85l0.116-0.116
		l1.69,1.69l-0.116,0.115C229.787,569.662,229.304,569.18,228.937,569.547z"/>
	<path style="fill:none;stroke:#000000;stroke-miterlimit:10;" d="M234.5,573.661v4.347l-1,0.483v-3.632l-7.835,7.853
		c-0.367,0.367,0.134,0.859,0.134,0.859l-0.111,0.116l-1.698-1.7l0.117-0.116c0,0,0.484,0.483,0.851,0.116l7.804-7.805l-3.814,0.203
		l0.724-0.482L234.5,573.661z"/>
	<path style="fill:none;stroke:#000000;stroke-miterlimit:10;" d="M234.137,591.881l-0.116,0.115l-1.7-1.699l0.116-0.116
		c0,0,0.483,0.482,0.85,0.116l8.21-8.211c0.357-0.356-0.125-0.84-0.125-0.84l0.116-0.116l1.217,1.218l1.439,5.051l-0.84,0.841
		l-0.116-0.116c0.27-0.271,0.579-0.946,0.483-1.197l-1.236-4.309l-2.502,2.502l1.439,5.052l-0.85,0.85l-0.116-0.115
		c0.261-0.261,0.579-0.966,0.483-1.218l-1.246-4.317l-5.641,5.641c-0.367,0.367,0.125,0.86,0.125,0.86L234.137,591.881z"/>
	<path style="fill:none;stroke:#000000;stroke-miterlimit:10;" d="M249.83,589.453l1.217,1.217l-0.125,0.126
		c0,0-0.377-0.377-0.734-0.251l-8.316,8.335c-0.367,0.367,0.116,0.851,0.116,0.851l-0.116,0.115l-1.69-1.689l0.116-0.116
		c0,0,0.474,0.474,0.84,0.106l1.941-1.923l1.922-4.104l-4.096,1.932l-1.932,1.932c-0.367,0.367,0.116,0.851,0.116,0.851
		l-0.116,0.115l-1.69-1.69l0.116-0.115c0,0,0.473,0.473,0.84,0.106l8.287-8.288c0.164-0.396-0.193-0.753-0.193-0.753l0.125-0.126
		l1.207,1.208l-2.028,4.191L249.83,589.453z M245.242,591.627l1.69-3.604l-5.313,5.313L245.242,591.627z M249.077,590.207
		l-3.574,1.681l-1.7,3.612L249.077,590.207z"/>
	<path style="fill:none;stroke:#000000;stroke-miterlimit:10;" d="M254.761,594.404l1.207,1.207l-0.116,0.116
		c0,0-0.406-0.405-0.753-0.193l-8.307,8.287c-0.367,0.367,0.116,0.851,0.116,0.851l-0.116,0.115l-1.69-1.689l0.116-0.116
		c0,0,0.483,0.482,0.85,0.116l7.949-7.988l-4.085,1.941l1.941-4.104l-7.978,7.978c-0.367,0.367,0.116,0.851,0.116,0.851
		l-0.116,0.115l-1.69-1.69l0.116-0.115c0,0,0.483,0.482,0.85,0.115l8.287-8.307c0.213-0.348-0.193-0.753-0.193-0.753l0.116-0.116
		l1.208,1.208l-0.106,0.105l-2.067,4.231l4.25-2.067L254.761,594.404z"/>
	<path style="fill:none;stroke:#000000;stroke-miterlimit:10;" d="M258.5,598.261v4.347v0.483v-3.632l-8.035,7.853
		c-0.367,0.367,0.034,0.859,0.034,0.859l-0.161,0.116l-1.723-1.7l0.104-0.116c0,0,0.478,0.483,0.845,0.116l7.801-7.805l-3.816,0.203
		l0.423-0.482L258.5,598.261z"/>
	<path style="fill:none;stroke:#000000;stroke-miterlimit:10;" d="M263.566,621.561l-1.69-1.69l0.125-0.125
		c0,0,0.483,0.482,0.85,0.116l8.2-8.201c0.367-0.366-0.116-0.85-0.116-0.85l0.116-0.116l1.69,1.69l-0.116,0.116
		c0,0-0.483-0.483-0.85-0.116l-4.607,4.607l-0.831,7.341l-0.84-0.841l0.125-0.125c0.097,0.097,0.319,0.318,0.483,0.154l0.686-6.152
		l-3.217,3.216c-0.367,0.367,0.116,0.851,0.116,0.851L263.566,621.561z"/>
	<path style="fill:none;stroke:#000000;stroke-miterlimit:10;" d="M272.292,623.429l1.42-3.737l4.945-1.7l-1.497,4.027l-4.008,1.382
		l-1.971,5.331c0.048,0.241,0.242,0.435,0.242,0.435l-0.125,0.126l-1.333-1.333l0.125-0.126c0,0,0.203,0.203,0.444,0.251
		l1.642-4.346l-4.453,1.594c0.009,0.279,0.318,0.453,0.318,0.453l-0.125,0.126l-0.966-0.966l0.135-0.116
		c0,0,0.174,0.193,0.406,0.251L272.292,623.429z M276.33,622.076l1.304-3.447l-3.052,1.063l-1.285,3.429L276.33,622.076z"/>
	<path style="fill:none;stroke:#000000;stroke-miterlimit:10;" d="M279.421,625.979l2.975-2.975c0.367-0.367-0.116-0.85-0.116-0.85
		l0.116-0.116l1.69,1.69l-0.116,0.115c0,0-0.483-0.482-0.85-0.115l-3.294,3.293l0.879,2.29c0.154,0.058,0.367-0.155,0.367-0.155
		l0.116,0.116l-0.85,0.85l-0.116-0.115c0.145-0.146,0.203-0.28,0.203-0.454l-0.86-2.27l-4.655,4.655
		c-0.367,0.367,0.125,0.84,0.125,0.84l-0.125,0.126l-1.69-1.69l0.125-0.126c0,0,0.474,0.493,0.84,0.126l4.984-4.984l-0.869-2.26
		c-0.116-0.077-0.242-0.029-0.376,0.106l-0.116-0.116l0.84-0.84l0.116,0.115c-0.106,0.106-0.232,0.271-0.242,0.416L279.421,625.979z
		"/>
	<path style="fill:none;stroke:#000000;stroke-miterlimit:10;" d="M281.412,639.175l-0.116,0.115l-1.69-1.689l0.116-0.116
		c0,0,0.483,0.482,0.84,0.106l4.597-4.578l-4.462-1.333l5.187-5.188c0.367-0.366-0.125-0.84-0.125-0.84l0.116-0.116l1.69,1.69
		l-0.116,0.116c0,0-0.474-0.493-0.84-0.126l-4.472,4.473l4.472,1.323l-5.313,5.312C280.929,638.691,281.412,639.175,281.412,639.175
		z"/>
	<path style="fill:none;stroke:#000000;stroke-miterlimit:10;" d="M294.219,633.862l1.207,1.207l-0.116,0.116
		c0,0-0.406-0.405-0.753-0.193l-8.307,8.287c-0.367,0.367,0.116,0.851,0.116,0.851l-0.116,0.115l-1.69-1.689l0.116-0.116
		c0,0,0.483,0.482,0.85,0.116l7.949-7.988l-4.085,1.941l1.941-4.104l-7.978,7.978c-0.367,0.367,0.116,0.851,0.116,0.851
		l-0.116,0.115l-1.69-1.69l0.116-0.115c0,0,0.483,0.482,0.85,0.115l8.287-8.307c0.213-0.348-0.193-0.753-0.193-0.753l0.116-0.116
		l1.208,1.208l-0.106,0.105l-2.067,4.231l4.25-2.067L294.219,633.862z"/>
	<path style="fill:none;stroke:#000000;stroke-miterlimit:10;" d="M288.29,646.284l-1.69-1.69l0.125-0.125
		c0,0,0.483,0.482,0.85,0.116l8.2-8.201c0.367-0.366-0.116-0.85-0.116-0.85l0.116-0.116l1.69,1.69l-0.116,0.116
		c0,0-0.483-0.483-0.85-0.116l-4.607,4.607l-0.831,7.341l-0.84-0.841l0.125-0.125c0.097,0.097,0.319,0.318,0.483,0.154l0.686-6.152
		l-3.217,3.216c-0.367,0.367,0.116,0.851,0.116,0.851L288.29,646.284z"/>
	<path style="fill:none;stroke:#000000;stroke-miterlimit:10;" d="M303.5,642.675v4.347l-1,0.483v-3.632l-7.828,7.853
		c-0.367,0.367,0.138,0.859,0.138,0.859l-0.109,0.116l-1.697-1.7l0.117-0.116c0,0,0.484,0.483,0.851,0.116l7.805-7.805l-3.814,0.203
		l0.717-0.482L303.5,642.675z"/>
	<path style="fill:none;stroke:#000000;stroke-miterlimit:10;" d="M309.057,648.7l1.207,1.207l-0.116,0.116
		c0,0-0.406-0.405-0.753-0.193l-8.307,8.287c-0.367,0.367,0.116,0.851,0.116,0.851l-0.116,0.115l-1.69-1.689l0.116-0.116
		c0,0,0.483,0.482,0.85,0.116l7.949-7.988l-4.085,1.941l1.941-4.104l-7.978,7.978c-0.367,0.367,0.116,0.851,0.116,0.851
		l-0.116,0.115l-1.69-1.69l0.116-0.115c0,0,0.483,0.482,0.85,0.115l8.287-8.307c0.213-0.348-0.193-0.753-0.193-0.753l0.116-0.116
		l1.208,1.208l-0.106,0.105l-2.067,4.231l4.25-2.067L309.057,648.7z"/>
	<path style="fill:none;stroke:#000000;stroke-miterlimit:10;" d="M312.5,652.57v4.347v0.483v-3.632l-7.881,7.853
		c-0.367,0.367,0.112,0.859,0.112,0.859l-0.123,0.116l-1.704-1.7l0.114-0.116c0,0,0.482,0.483,0.849,0.116l7.804-7.805l-3.815,0.203
		l0.27-0.482L312.5,652.57z"/>
	<path style="fill:none;stroke:#000000;stroke-miterlimit:10;" d="M311.128,668.872l-0.125,0.125l-0.966-0.966l0.135-0.115
		c0,0,0.231,0.231,0.463,0.231l3.661-3.661l2.337-4.404l-0.039-3.188l-8.364,8.365c-0.367,0.367,0.116,0.83,0.116,0.83l-0.125,0.126
		l-1.681-1.681l0.125-0.126c0,0,0.493,0.474,0.84,0.126l8.2-8.22c0.367-0.367-0.116-0.85-0.116-0.85l0.116-0.116l1.208,1.207
		l0.067,3.603l-2.415,4.54l-3.699,3.699C310.906,668.649,311.128,668.872,311.128,668.872z"/>
	<path style="fill:none;stroke:#000000;stroke-miterlimit:10;" d="M316.053,673.817l-0.116,0.115l-0.357-0.356l2.415-7.959
		l4.607,0.531l-1.13-4.511l-8.432,8.432c-0.367,0.367,0.116,0.851,0.116,0.851l-0.116,0.115l-0.483-0.482l-0.725-0.725l-0.483-0.483
		l0.116-0.115c0,0,0.464,0.463,0.831,0.135l8.307-8.326c0.213-0.348-0.193-0.753-0.193-0.753l0.116-0.116l0.473,0.474l0.715,0.715
		l0.039,0.02l1.314,5.196l-4.839-0.57l-2.289,7.331C315.889,673.634,315.966,673.73,316.053,673.817z"/>
</g>
<circle style="fill:none;stroke:#000000;stroke-width:2;stroke-miterlimit:10;" cx="400" cy="400" r="238.109"/>
<rect x="232.5" y="232.5" style="fill:none;stroke:#000000;stroke-width:3;stroke-miterlimit:10;" width="335" height="335"/>
</svg>
