<?xml version="1.0" encoding="utf-8"?>
<!-- Generator: Adobe Illustrator 15.0.0, SVG Export Plug-In . SVG Version: 6.00 Build 0)  -->
<!DOCTYPE svg PUBLIC "-//W3C//DTD SVG 1.1//EN" "http://www.w3.org/Graphics/SVG/1.1/DTD/svg11.dtd">
<svg version="1.1" id="レイヤー_1" xmlns="http://www.w3.org/2000/svg" xmlns:xlink="http://www.w3.org/1999/xlink" x="0px"
	 y="0px" width="800px" height="800px" viewBox="0 0 800 800" enable-background="new 0 0 800 800" xml:space="preserve">
<g>
	<g>
		<path d="M79.309,231.393l-1.339-2.205l-2.796,0.023l1.559,2.321L79.309,231.393z M44.044,318.08l3.307,0.775l-1.064-3.288
			L44.044,318.08z M78.871,222.874l-0.021-0.281l-3.632-1.987l0.48,4.469L78.871,222.874z M38.067,385.042l-2.158-1.413
			l-2.513,1.226l2.407,1.423L38.067,385.042z M83.519,225.147l-3.642-1.993l-0.202,0.146l0.448,4.208L83.519,225.147z M32.57,398.42
			l5.321,0.089l-2.636-1.511L32.57,398.42z M37.765,402.392l-2.233-1.287l-2.438,1.366l2.482,1.283L37.765,402.392z M38.075,388.844
			l-5.333-0.131l2.636,1.544L38.075,388.844z M93.644,206.608l-1.16-2.304l-2.788-0.198l1.37,2.437L93.644,206.608z M32.659,392.557
			l5.322,0.13l-2.625-1.532L32.659,392.557z M37.956,394.666l-5.333-0.089l2.648,1.523L37.956,394.666z M226.204,80.583
			l-3.368,0.012l1.633,2.978L226.204,80.583z M226.729,75.93l2.492,4.71l0.052-3.042L226.729,75.93z M230.125,74.12l-0.057,3.058
			l2.555,1.663L230.125,74.12z M265.932,60.68l-2.341-1.941l1.95,4.958L265.932,60.68z M196.516,100.267l-0.149-2.574l-2.479-1.29
			l0.288,2.78L196.516,100.267z M101.136,195.512l-4.418-2.994l1.384,2.725L101.136,195.512z M94.571,195.709l4.408,2.987
			l-1.381-2.708L94.571,195.709z M174.715,115.753l-4.537-5.659l1.122,3.802L174.715,115.753z M124.208,165.133l-0.824-2.443
			l-2.732-0.588l1.013,2.605L124.208,165.133z M167.186,112.508l4.514,5.631l-1.063-3.728L167.186,112.508z M311.784,759.354
			l2.313-3.218l-0.629-3.835L311.784,759.354z M267.167,57.319l-0.397,3.031l2.352,1.937L267.167,57.319z M301.132,753.975
			l2.13-2.19l-0.726-2.957L301.132,753.975z M133.352,645.844l-5.303,4.948l3.707-1.403L133.352,645.844z M177.187,685.633
			l-2.405,0.929l-0.47,2.754l2.558-1.124L177.187,685.633z M130.681,653.596l5.277-4.924l-3.638,1.339L130.681,653.596z
			 M304.844,754.975l1.401-5.136l-2.116,2.183L304.844,754.975z M332.247,755.916l-1.713,1.928l0.845,2.665l1.759-2.173
			L332.247,755.916z M315.526,760.235l1.675-7.018l-2.291,3.126L315.526,760.235z M381.76,765.782l0.434,1.406l0.621-1.405
			l-0.501-1.504L381.76,765.782z M321.025,753.606l-1.773,1.873l0.76,2.689l1.827-2.115L321.025,753.606z M87.168,582.751
			l-2.579-0.025l-1.454,2.388l2.793-0.101L87.168,582.751z M46.229,480.241l-7.071,1.637l3.915,0.637L46.229,480.241z
			 M40.037,485.624l7.037-1.629l-3.823-0.658L40.037,485.624z M39.095,456.068l3.359-0.499l-2.202-2.663L39.095,456.068z
			 M39.083,431.11l-2.319-1.133l-2.34,1.53l2.566,1.112L39.083,431.11z M30.215,410.311l7.213-0.158l-3.604-1.424L30.215,410.311z
			 M72.936,572.992l6.395-3.352l-3.863,0.328L72.936,572.992z M81.536,572.782l-2.576-0.108l-1.529,2.338l2.793-0.01L81.536,572.782
			z M37.368,406.309l-7.249,0.158l3.699,1.422L37.368,406.309z M77.566,566.224l-6.426,3.367l3.947-0.372L77.566,566.224z
			 M119.078,635.598l1.042,3.774l1.337-1.134l-0.97-3.836L119.078,635.598z M738.404,250.342l-6.618,2.885l3.877-0.051
			L738.404,250.342z M606.351,102.239l2.35-1.063l0.314-2.777l-2.491,1.266L606.351,102.239z M644.287,125.548l-3.563,3.955
			l2.871-0.996L644.287,125.548z M643.58,132.077l3.571-3.964l-2.889,0.997L643.58,132.077z M669.219,154.339l0.915-2.642
			l-2.71,0.69l-0.731,2.474L669.219,154.339z M672.156,160.268l5.416-4.827l-3.738,1.319L672.156,160.268z M675.005,152.578
			l-5.39,4.803l3.668-1.256L675.005,152.578z M620.303,105.917l-2.781,1.268l-0.397,3.02L620.303,105.917z M617.206,103.636
			l-3.172,4.277l2.765-1.265L617.206,103.636z M637.118,116.052l-4.654,5.51l3.451-1.759L637.118,116.052z M635.385,124.06
			l4.677-5.537l-3.513,1.831L635.385,124.06z M637.977,126.888l2.453-0.795l0.621-2.725l-2.617,0.982L637.977,126.888z
			 M763.469,345.961l-5.273,0.749l2.844,1.079L763.469,345.961z M753.465,320.416l2.45,0.809l2.112-1.833l-2.693-0.754
			L753.465,320.416z M758.736,350.519l5.285-0.75l-2.856-1.089L758.736,350.519z M762.197,394.271l2.234,1.288l2.438-1.366
			l-2.482-1.283L762.197,394.271z M733.302,256.763l6.65-2.9l-3.964,0.089L733.302,256.763z M679.6,168.977l5.565-4.649
			l-3.777,1.198L679.6,168.977z M682.691,161.385l-5.538,4.626l3.705-1.137L682.691,161.385z M711.34,207.095l1.003-1.345
			l-1.563,0.397l-0.888,1.217L711.34,207.095z M383.677,765.846l0.544,1.589l0.555-1.516l-0.505-1.421L383.677,765.846z
			 M710.815,209.102l1.553-0.391l0.915-1.151l-1.509,0.281L710.815,209.102z M563.79,68.221l-3.229,6.451l2.941-2.521L563.79,68.221
			z M317.09,41.965l-0.826,2.943l2.051,2.253L317.09,41.965z M374.065,37.34l-3.067-1.387l0.25,3.385L374.065,37.34z
			 M413.024,34.023l-0.559-1.583l-0.54,1.52l0.517,1.416L413.024,34.023z M423.223,33.311l-0.357,5.314l1.643-2.559L423.223,33.311z
			 M414.941,34.069l-0.447-1.402l-0.607,1.411l0.515,1.499L414.941,34.069z M315.389,45.115l-2.04-2.255l1.222,5.185L315.389,45.115
			z M289.078,49.611l-0.587,2.999l2.225,2.08L289.078,49.611z M427.062,33.557l-1.655,2.57l1.298,2.756L427.062,33.557z
			 M298.276,48.031l-2.45-3.086l1.992,6.935L298.276,48.031z M299.518,43.872l-0.432,3.939l2.433,3.03L299.518,43.872z
			 M507.507,52.826l2.979,2.874l1.248-3.963l-0.183-0.169L507.507,52.826z M287.636,52.886l-2.214-2.083l1.634,5.067L287.636,52.886
			z M577.567,75.385l-3.067,2.511l-0.384,3.868L577.567,75.385z M564.248,72.537l-0.262,3.876l3.246-6.482L564.248,72.537z
			 M574.18,73.566l-3.435,6.348l3.021-2.428L574.18,73.566z M512.086,50.619l1.245-3.952l-4.295,1.341l2.778,2.687L512.086,50.619z
			 M503.564,52.775l1.9-1.742l-0.568-2.736l-1.972,1.98L503.564,52.775z M447.58,40.857l1.603-2.021l-0.994-2.613l-1.635,2.268
			L447.58,40.857z M458.934,42.525l1.664-1.969l-0.911-2.642l-1.704,2.214L458.934,42.525z M464.026,35.597l-1.275,7.102l2.11-3.25
			L464.026,35.597z M467.813,36.265l-2.127,3.344l0.846,3.793L467.813,36.265z M38.024,413.978l-2.261-1.241l-2.41,1.416
			l2.509,1.232L38.024,413.978z M576.346,716.496l-0.079,2.578l2.357,1.502l-0.043-2.794L576.346,716.496z M643.691,678.321
			l-4.729-5.454l1.205,3.685L643.691,678.321z M636.041,675.368l4.752,5.481l-1.268-3.756L636.041,675.368z M684.625,624.094
			l0.918,2.41l2.753,0.483l-1.112-2.564L684.625,624.094z M769.793,410.048l-7.214-0.232l3.523,1.617L769.793,410.048z
			 M754.633,474.225l1.896,1.747l2.679-0.795l-2.139-1.799L754.633,474.225z M762.432,413.658l7.249,0.233l-3.617-1.62
			L762.432,413.658z M757.275,459.196l5.271,0.84l-2.409-1.882L757.275,459.196z M766.792,421.576l-5.314-0.336l2.564,1.633
			L766.792,421.576z M698.896,617.999l-5.808-4.291l1.982,3.334L698.896,617.999z M763.14,456.235l-5.26-0.838l2.399,1.868
			L763.14,456.235z M761.234,425.078l5.327,0.338l-2.576-1.646L761.234,425.078z M690.782,616.788l5.837,4.313l-2.059-3.39
			L690.782,616.788z M666.033,645.858l0.724,2.477l2.706,0.7l-0.905-2.646L666.033,645.858z M762.197,405.958l2.189,1.361
			l2.481-1.283l-2.438-1.366L762.197,405.958z M745.566,518.394l-3.206-1.117l0.714,3.38L745.566,518.394z M400,22.935
			C191.753,22.935,22.935,191.753,22.935,400c0,208.248,168.818,377.065,377.065,377.065c208.248,0,377.065-168.817,377.065-377.065
			C777.065,191.753,608.248,22.935,400,22.935z M771.772,392.478l-2.988,1.683l3.043,1.581l0.018,1.029l-4.01-2.074l-3.387,1.902
			l-3.883-2.301l3.804-2.43l3.449,1.788l3.938-2.207L771.772,392.478z M771.819,401.794l-0.015,0.887l-11.234-0.188l0.015-0.887
			h0.013l2.273-4.397l1.041,0.018l-2.286,4.397L771.819,401.794z M771.609,386.444l-6.107,3.444l-1.256-2.328l-2.567,2.731
			l10.04-0.311l0.028,0.899l-11.234,0.348l-0.018-0.556l-0.011-0.343l-0.001-0.035l4.013-4.22l1.265,2.624l5.821-3.14
			L771.609,386.444z M771.008,374.7l-6.318,0.392l2.447,4.294l-7.073,0.45l-0.056-0.897l5.586-0.346l-0.013-0.011l-2.447-4.294
			l7.819-0.473L771.008,374.7z M770.741,371.065l-11.205,0.87l-0.068-0.885l11.205-0.87L770.741,371.065z M770.237,365.18
			l-9.565,0.904l2.411,1.995l-1.178,0.111l-2.901-2.4l2.4-2.901l1.178-0.112l-2.005,2.424l9.577-0.906L770.237,365.18z
			 M769.243,355.682l-11.147,1.406l-0.11-0.88l0.012-0.001l1.627-4.676l1.033-0.13l-1.64,4.677l2.007-0.253l1.636-4.7l0.93-0.094
			l-1.639,4.677l7.181-0.906L769.243,355.682z M767.863,345.338l-3.07,0.436l-2.958,2.321l3.497,1.476l3.072-0.424l0.103,0.727
			l-11.133,1.58l-0.103-0.727l3.164-2.386l-3.703-1.411l-0.002-0.012l-0.104-0.738l11.133-1.58L767.863,345.338z M766.982,339.654
			l-9.325,1.485l4.05,1.146l-3.5,2.338l9.327-1.474l0.139,0.877l-11.103,1.766l-0.14-0.888l0.187-0.03l3.541-2.309l-4.116-1.183
			l-0.164,0.026l-0.14-0.888l11.105-1.742L766.982,339.654z M756.065,400c0,48.078-9.411,94.707-27.973,138.591
			c-17.933,42.397-43.609,80.479-76.316,113.186s-70.788,58.384-113.186,76.316c-43.884,18.562-90.513,27.973-138.591,27.973
			c-48.078,0-94.706-9.411-138.59-27.973c-42.397-17.933-80.479-43.609-113.186-76.316c-32.707-32.707-58.384-70.788-76.316-113.186
			C53.346,494.706,43.935,448.078,43.935,400c0-48.078,9.412-94.706,27.973-138.59c17.933-42.397,43.609-80.479,76.316-113.186
			c32.708-32.708,70.789-58.384,113.187-76.317C305.294,53.346,351.922,43.935,400,43.935c48.078,0,94.706,9.412,138.591,27.973
			c42.397,17.933,80.479,43.609,113.186,76.317c32.707,32.707,58.384,70.789,76.316,113.186
			C746.654,305.294,756.065,351.922,756.065,400z M766.371,336.052l-9.466,1.647l2.56,1.801l-1.166,0.203l-3.079-2.166l2.166-3.08
			l1.166-0.203l-1.811,2.573l9.479-1.65L766.371,336.052z M763.785,322.622l-3.254,3.698l3.856-0.803l0.182,0.869l-11.003,2.291
			l-0.181-0.869l5.93-1.234l4.238-5.063L763.785,322.622z M762.485,316.715l-2.587,2.256l3.303,0.932l0.227,1.005l-4.351-1.219
			l-2.934,2.552l-4.273-1.467l3.235-3.153l3.743,1.052l3.411-2.962L762.485,316.715z M761.583,312.874l-6.466,1.561l-0.452,1.96
			l-1.001,0.241l0.43-1.954l-3.44,0.831l-0.208-0.863l3.877-0.936l0.44-1.957l1.013-0.245l-0.44,1.957l6.04-1.458L761.583,312.874z
			 M759.643,305.143l-6.131,1.583l3.218,3.752l-6.86,1.785l-0.226-0.871l5.421-1.4l-0.015-0.008l-3.219-3.753l7.589-1.948
			L759.643,305.143z M758.104,299.476l-9.105,2.52l4.155,0.685l-3.219,2.716l9.108-2.508l0.235,0.856l-10.84,2.998l-0.238-0.867
			l0.183-0.05l3.262-2.691l-4.225-0.715l-0.16,0.044l-0.238-0.868l10.846-2.975L758.104,299.476z M756.551,294.101l-2.949,3.946
			l3.78-1.107l0.25,0.852l-10.785,3.16l-0.25-0.851l5.813-1.703l3.822-5.385L756.551,294.101z M755.412,290.331l-9.181,2.837
			l2.768,1.461l-1.131,0.349l-3.33-1.758l1.758-3.33l1.131-0.35l-1.469,2.783l9.192-2.841L755.412,290.331z M752.941,282.604
			l-8.971,2.945l4.181,0.488l-3.085,2.863l8.975-2.935l0.275,0.843l-10.68,3.505l-0.279-0.854l0.18-0.059l3.129-2.841l-4.251-0.514
			l-0.157,0.051l-0.279-0.854l10.687-3.482L752.941,282.604z M751.765,279.142l-9.082,3.135l2.813,1.37l-1.118,0.386l-3.386-1.648
			l1.648-3.385l1.118-0.386l-1.377,2.829l9.093-3.139L751.765,279.142z M748.99,271.324l-4.383,1.587l-3.266,2.692l-0.972,2.667
			l0.049,0.133l9.844-3.565l0.307,0.845l-10.567,3.827l-0.451-1.246l1.147-3.121l3.514-2.908l4.517-1.636L748.99,271.324z
			 M746.976,265.995l-4.649,5.253l-1.949-1.792l-1.534,3.421l9.392-3.575l0.32,0.841l-10.51,4l-0.197-0.52l-0.122-0.321
			l-0.013-0.033l2.414-5.302l2.055,2.068l4.479-4.872L746.976,265.995z M744.27,259.186l-10.379,4.334l-0.342-0.819l0.011-0.004
			l0.321-4.946l0.961-0.401l-0.332,4.95l1.868-0.78l0.323-4.972l0.872-0.338l-0.332,4.95l6.687-2.792L744.27,259.186z
			 M740.172,249.571l-3.432,3.588l4.97-0.062l0.288,0.662l-10.302,4.505l-0.298-0.684l3.497-3.617l-5.03,0.102l-0.298-0.684
			l10.307-4.494L740.172,249.571z M738.725,246.368l-10.233,4.667l-0.369-0.808l10.234-4.667L738.725,246.368z M735.299,239.027
			l-2.675,1.27l4.58,2.741l-10.162,4.827l0.77-5.281l-2.675,1.27l-0.381-0.802l4.278-2.032l-0.769,5.281l6.953-3.303l-4.58-2.741
			l4.279-2.032L735.299,239.027z M733.693,235.742l-10.075,4.986l-0.394-0.795l10.074-4.986L733.693,235.742z M730.034,228.51
			l-5.633,2.898l3.969,2.952l-6.301,3.255l-0.412-0.8l4.98-2.563l-0.017-0.005l-3.969-2.952l6.976-3.575L730.034,228.51z
			 M728.33,225.286l-9.916,5.306l-0.418-0.783l9.915-5.306L728.33,225.286z M724.573,218.415l-2.007,4.502l3.445-1.916l0.431,0.776
			l-9.828,5.465l-0.431-0.776l5.297-2.945l2.541-6.099L724.573,218.415z M722.632,214.996l-9.741,5.61l-0.442-0.769l9.741-5.61
			L722.632,214.996z M719.577,209.778l-5.712,3.413l0.151,2.006l-0.884,0.528l-0.172-1.994l-3.038,1.816l-0.456-0.762l3.425-2.047
			l-0.16-2l0.894-0.534l0.161,2l5.335-3.188L719.577,209.778z M714.966,202.235l0.467,0.754l-2.938,3.905l4.806-0.888l0.467,0.754
			l-3.345,0.596l-1.588,2.11l-2.823,0.719l-1.835,2.429l-0.43-0.694l2.888-3.874l-4.755,0.857l-0.442-0.714l3.343-0.623l1.498-1.985
			l2.694-0.68L714.966,202.235z M709.034,193.118l-7.859,5.233l4.159-0.646l-2.209,3.583l7.866-5.224l0.491,0.739l-9.358,6.229
			l-0.497-0.749l0.157-0.104l2.258-3.573l-4.234,0.639l-0.138,0.092l-0.498-0.749l9.371-6.209L709.034,193.118z M708.236,191.922
			l-9.264,6.364l-0.502-0.731l0.01-0.007l-0.698-4.902l0.857-0.589l0.689,4.909l8.404-5.774L708.236,191.922z M703.627,185.281
			l-9.162,6.509l-0.514-0.724l9.162-6.508L703.627,185.281z M699.65,179.775l0.525,0.715l-7.744,5.687l3.093,0.474l-0.953,0.7
			l-3.722-0.57l0.569-3.722l0.954-0.7l-0.477,3.109L699.65,179.775z M691.698,169.361l-4.979,3.91l4.453,2.146l-5.567,4.388
			l-0.556-0.708l4.402-3.457l-0.017-0.002l-4.453-2.146l6.169-4.83L691.698,169.361z M688.027,164.79l-7.335,5.952l4.081-1.034
			l-1.862,3.776l7.343-5.942l0.559,0.69l-8.733,7.083l-0.566-0.699l0.147-0.119l1.912-3.771l-4.157,1.034l-0.129,0.104l-0.565-0.699
			l8.748-7.065L688.027,164.79z M684.172,160.148l-2.285,4.406l4.749-1.455l0.463,0.554l-8.617,7.213l-0.478-0.572l2.339-4.451
			l-4.796,1.51l-0.479-0.572l8.625-7.205L684.172,160.148z M676.444,151.294l-2.144,4.479l4.703-1.607l0.479,0.539l-8.385,7.488
			l-0.496-0.556l2.196-4.526l-4.747,1.663l-0.496-0.557l8.393-7.48L676.444,151.294z M671.965,146.396l0.696,0.758l-1.116,3.245
			l3.327-0.84l0.697,0.758l-4.378,1.115l-1.268,3.674l-4.435,0.861l1.229-4.346l3.769-0.956L671.965,146.396z M664.426,138.559
			l-6.737,6.62l3.965-1.417l-1.496,3.936l6.746-6.612l0.621,0.634l-8.022,7.879l-0.629-0.642l0.135-0.133l1.546-3.935l-4.04,1.424
			l-0.118,0.116l-0.63-0.642l8.039-7.863L664.426,138.559z M661.849,135.981l-7.9,7.987l-0.631-0.624l7.9-7.987L661.849,135.981z
			 M655.881,130.185l-3.229,3.367l-1.735,3.863l0.311,2.824l0.103,0.099l7.251-7.563l0.649,0.623l-7.784,8.118l-0.957-0.917
			l-0.354-3.309l1.863-4.167l3.327-3.469L655.881,130.185z M651.726,126.302l-4.311,4.637l4.732,1.427l-4.817,5.2l-0.658-0.612
			l3.811-4.1l-0.017,0l-4.732-1.426l5.342-5.729L651.726,126.302z M647.257,122.252l-2.075,2.303l-0.78,3.676l3.628-1.11
			l2.084-2.295l0.545,0.491l-7.523,8.35l-0.545-0.491l0.896-3.858l-3.744,1.292l-0.009-0.008l-0.554-0.499l7.523-8.35
			L647.257,122.252z M643.066,118.578l-0.755,3.346l3.214-1.198l0.775,0.677l-4.228,1.585l-0.859,3.789l-4.312,1.34l0.747-4.453
			l3.64-1.361l1.002-4.402L643.066,118.578z M638.361,114.58l-1.489,4.731l4.425-2.252l0.551,0.465l-7.238,8.589l-0.569-0.48
			l1.535-4.786l-4.462,2.314l-0.569-0.48l7.248-8.582L638.361,114.58z M631.076,108.648l-5.972,7.533l3.109-0.36l-0.735,0.928
			l-3.742,0.433l-0.433-3.742l0.735-0.928l0.362,3.127l5.979-7.542L631.076,108.648z M624.667,103.664l-5.737,7.496l3.725-1.958
			l-0.929,4.104l5.747-7.489l0.704,0.541l-6.832,8.922l-0.714-0.547l0.115-0.15l0.978-4.111l-3.798,1.976l-0.101,0.131l-0.713-0.547
			l6.852-8.908L624.667,103.664z M619.85,100.071l-1.847,2.491l-0.427,3.735l3.507-1.451l1.856-2.483l0.59,0.437l-6.697,9.031
			l-0.59-0.437l0.525-3.927l-3.605,1.643l-0.009-0.007l-0.6-0.444l6.697-9.031L619.85,100.071z M615.195,96.709l-1.725,2.403
			l5.329,0.183l-6.552,9.132l-1.881-4.99l-1.725,2.403l-0.721-0.517l2.759-3.845l1.881,4.99l4.482-6.249l-5.329-0.183l2.759-3.845
			L615.195,96.709z M610.485,93.416l-0.378,3.409l3.061-1.548l0.846,0.587l-4.025,2.045l-0.433,3.861l-4.136,1.81l0.248-4.508
			l3.465-1.757l0.507-4.487L610.485,93.416z M603.925,96.112l0.839-6.562l0.737,0.495l-0.759,6.972l-2.624-0.335l0.725,3.678
			l5.597-8.343l0.746,0.501l-6.262,9.335l-0.462-0.31l-0.285-0.191l-0.029-0.02l-1.093-5.72L603.925,96.112z M597.493,84.873
			l-5.973,9.523l-0.752-0.471l5.973-9.524L597.493,84.873z M592.35,81.704l-3.439,5.694l1.075,1.7l-0.532,0.881l-1.087-1.68
			l-1.83,3.029l-0.76-0.459l2.063-3.415l-1.081-1.69l0.538-0.892l1.081,1.69l3.213-5.319L592.35,81.704z M584.773,77.223
			l0.981,0.573l0.569,4.896l1.986-3.404l0.768,0.447l-5.668,9.712L582.643,89l3.055-5.234L584.773,77.223z M582.34,75.852
			l-5.509,9.799l-0.773-0.435l5.509-9.799L582.34,75.852z M575.098,71.87l-0.493,4.939l3.875-3.109l0.635,0.343l-5.339,9.892
			l-0.655-0.355l0.526-5.002l-3.898,3.178l-0.655-0.354l5.349-9.886L575.098,71.87z M571.996,70.236l-5.189,9.973l-0.787-0.41
			l5.189-9.973L571.996,70.236z M564.653,66.497l-0.336,4.95l3.772-3.229l0.645,0.323l-5.019,10.051l-0.667-0.333l0.368-5.013
			l-3.794,3.298l-0.666-0.333l5.03-10.046L564.653,66.497z M556.528,67.902l2.082-4.331l0.693,0.333l-2.021,4.203l-0.448,4.209
			l1.174,2.586l0.128,0.062l4.537-9.439l0.811,0.39l-4.871,10.133l-1.194-0.574l-1.365-3.033L556.528,67.902z M551.356,66.081
			l1.261,1.56l2.604-5.64l0.806,0.372l-2.787,6.037l1.256,1.57l-0.432,0.935l-1.266-1.549l-1.482,3.212l-0.806-0.372l1.671-3.62
			l-1.261-1.56L551.356,66.081z M544.974,65.508l1.134,2.935l3.896-8.795l0.811,0.359l-3.89,8.785l2.919-1.127l-0.479,1.082
			l-3.512,1.356l-1.356-3.512L544.974,65.508z M535.225,58.659l1.803-4.454l0.713,0.289l-1.749,4.323l-0.18,4.23l1.335,2.506
			l0.131,0.053l3.93-9.709l0.834,0.337l-4.218,10.422l-1.229-0.498l-1.555-2.94L535.225,58.659z M528.951,59.001l1.271,2.877
			l3.474-8.969l0.827,0.32l-3.469,8.958l2.861-1.264l-0.427,1.104l-3.443,1.521l-1.521-3.444L528.951,59.001z M524.742,49.587
			l0.838,0.294l-3.726,10.611l-0.838-0.294l0.004-0.011l-3.459-3.548l0.346-0.983l3.455,3.559L524.742,49.587z M519.19,47.661
			l0.843,0.281l-3.552,10.669l-0.843-0.281l0.004-0.011l-3.516-3.491l0.329-0.988l3.512,3.502l0.64-1.92l-3.535-3.509l0.318-0.88
			l3.512,3.502L519.19,47.661z M514.444,46.086l-3.378,10.727l-0.847-0.267l-3.581-3.448l0.313-0.994l3.972-1.145l-2.763-2.657
			l0.277-0.881l5.159-1.603L514.444,46.086z M504.738,43.104l0.704,3.356l2.425-2.425l0.986,0.293l-3.186,3.199l0.794,3.802
			l-3.363,3.01l-1.171-4.359l2.743-2.75l-0.919-4.419L504.738,43.104z M498.933,41.456l1.461,6.861l-2.599,0.502l1.839,3.268
			l2.707-9.677l0.866,0.243l-3.029,10.828l-0.536-0.15l-0.33-0.092l-0.034-0.01l-2.828-5.093l2.884-0.422l-1.255-6.496
			L498.933,41.456z M492.392,39.708l0.858,0.227l-2.4,9.135l2.682-3.246l0.729,4.146l2.41-9.132l0.858,0.227l-2.858,10.875
			l-0.87-0.229l0.049-0.183l-0.687-4.172l-2.741,3.291l-0.043,0.161l-0.869-0.23L492.392,39.708z M481.825,37.177l-2.107,9.208
			l2.576-3.331l0.861,4.122l2.119-9.206l0.865,0.199l-2.511,10.961l-0.877-0.202l0.043-0.185l-0.819-4.148l-2.636,3.377
			l-0.037,0.162l-0.877-0.202l2.534-10.957L481.825,37.177z M473.666,42.993l1.715,2.639l1.997-9.416l0.869,0.184l-1.995,9.404
			l2.625-1.707l-0.245,1.158l-3.159,2.053l-2.053-3.159L473.666,42.993z M464.367,33.699l1.077,4.844l2.707-4.165l0.71,0.127
			l-1.975,11.063l-0.733-0.132l-1.064-4.914l-2.707,4.237l-0.733-0.132l1.985-11.061L464.367,33.699z M458.871,32.784l1.125,3.24
			l2.097-2.713l1.016,0.166l-2.754,3.577l1.271,3.671l-2.955,3.412l-1.715-4.175l2.373-3.076l-1.473-4.267L458.871,32.784z
			 M456.4,32.398l0.877,0.129l-1.638,11.118l-0.878-0.129l0.002-0.012l-4.068-2.823l0.152-1.03l4.066,2.835L456.4,32.398z
			 M447.212,31.117l1.227,3.205l2.012-2.78l1.021,0.134l-2.642,3.664l1.385,3.632l-2.848,3.505l-1.846-4.122l2.275-3.15
			l-1.605-4.222L447.212,31.117z M440.349,30.304l0.882,0.102l2.518,6.542l-2.485,0.903l2.327,2.936l1.153-9.975l0.893,0.103
			l-1.29,11.162l-0.552-0.064l-0.341-0.04l-0.035-0.004l-3.59-4.582l2.779-0.87L440.349,30.304z M434.487,29.718l0.884,0.088
			l-0.926,9.402l2.135-3.63l1.376,3.98l0.938-9.4l0.883,0.088l-1.104,11.192l-0.895-0.089l0.019-0.188l-1.337-4.012l-2.188,3.684
			l-0.017,0.165l-0.896-0.089L434.487,29.718z M423.52,28.882l-0.207,3.094l1.659,3.374l2.167-3.117l0.22-3.093l0.732,0.049
			l-0.754,11.22l-0.732-0.049l-1.681-3.589l-2.146,3.332l-0.013,0l-0.743-0.05l0.753-11.22L423.52,28.882z M416.47,36.502l4.32,2.44
			l0.104-2.022l-4.344-2.441l0.071-0.933l4.321,2.44l0.373-7.237l0.887,0.046l-0.579,11.234l-0.888-0.046l0.001-0.012l-4.321-2.429
			L416.47,36.502z M411.176,34.063l0.936-2.619l-1.106-3.143l0.887,0.032l1.609,4.617l1.938-4.488l0.887,0.032l-1.367,3.112
			l0.869,2.494l-0.976,2.748l0.997,2.878l-0.816-0.03l-1.611-4.558l-1.936,4.43l-0.84-0.03l1.344-3.125L411.176,34.063z
			 M405.306,33.504l1.779,0.924l0.128-6.208l0.887,0.019l-0.137,6.646l1.779,0.936l-0.021,1.029l-1.779-0.912l-0.073,3.536
			l-0.887-0.018l0.082-3.985l-1.779-0.924L405.306,33.504z M399.086,36.093l4.397,2.286l0.034-2.022l-4.421-2.287l0.039-0.934
			l4.398,2.286l0.121-7.237l0.887,0.015l-0.188,11.234l-0.887-0.015v-0.012l-4.397-2.274L399.086,36.093z M391.654,28.241
			l0.887-0.024l0.304,11.234l-0.887,0.024l0-0.012l-4.494-2.079l-0.028-1.041l4.495,2.091l-0.055-2.022l-4.519-2.091l-0.001-0.935
			l4.495,2.091L391.654,28.241z M385.798,28.416l0.887-0.038l0.478,11.234l-0.887,0.038l0-0.012l-4.528-2.011l-0.044-1.041
			l4.529,2.022L385.798,28.416z M378.588,28.759l0.652,11.22l-0.886,0.052l-0.652-11.22L378.588,28.759z M370.508,29.301
			l0.414,5.603l4.621,2.351l-4.161,3.248l-0.047,0.003l-0.885,0.065l-0.826-11.206L370.508,29.301z M364.454,29.824l0.415,4.641
			l1.769,3.844l2.33,1.62l0.142-0.013l-0.932-10.425l0.896-0.08l1,11.191l-1.319,0.118l-2.723-1.906l-1.914-4.139l-0.427-4.783
			L364.454,29.824z M362.319,30.033l0.882-0.093l1.174,11.176l-0.882,0.093l-0.001-0.012l-4.642-1.725l-0.109-1.035l4.643,1.736
			l-0.211-2.012l-4.667-1.734l-0.074-0.932l4.643,1.736L362.319,30.033z M346.91,31.911l0.637,4.617l1.951,3.755l2.406,1.507
			l0.141-0.019L350.613,31.4l0.891-0.123l1.537,11.133l-1.313,0.181l-2.813-1.773l-2.11-4.043l-0.657-4.758L346.91,31.911z
			 M342.612,32.554l0.878-0.135l1.462,9.503l1.852-2.525l0.18,1.17l-2.228,3.038l-3.039-2.228l-0.18-1.17l2.539,1.862
			L342.612,32.554z M329.719,34.78l1.741,9.276l1.033-4.079l2.432,3.433l-1.729-9.279l0.872-0.163l2.07,11.044l-0.883,0.165
			l-0.035-0.186l-2.404-3.474l-1.068,4.145l0.031,0.163l-0.884,0.165l-2.047-11.048L329.719,34.78z M325.119,35.693l0.87-0.176
			l1.321,6.517l1.941,0.524l0.204,1.009l-1.937-0.501l0.703,3.467l-0.87,0.176l-0.792-3.908l-1.939-0.512l-0.207-1.021l1.939,0.512
			L325.119,35.693z M320.369,36.698l2.406,10.988l-0.867,0.19l-2.406-10.988L320.369,36.698z M312.33,38.54l0.712,3.018l2.579,2.736
			l1.154-3.616l-0.7-3.021l0.714-0.168l2.581,10.944l-0.714,0.168l-2.662-2.936l-1.071,3.815l-0.011,0.003l-0.726,0.171
			l-2.58-10.944L312.33,38.54z M304.512,40.522l0.857-0.231l2.928,10.857l-0.857,0.231l-0.003-0.011l-4.859-0.97l-0.271-1.005
			l4.862,0.981l-0.527-1.954l-4.885-0.975l-0.221-0.909l4.862,0.981L304.512,40.522z M295.294,43.092l3.105,3.871l0.589-4.932
			l0.693-0.199l3.113,10.796l-0.716,0.206l-3.125-3.938l-0.559,4.996l-0.716,0.206l-3.103-10.799L295.294,43.092z M284.06,46.58
			l0.952,2.951l2.789,2.519l0.859-3.696l-0.94-2.954l0.698-0.225l3.45,10.698l-0.698,0.225l-2.888-2.711l-0.76,3.888l-0.011,0.004
			l-0.709,0.229l-3.45-10.698L284.06,46.58z M280.726,47.695l3.624,10.64l-0.84,0.286l-3.624-10.64L280.726,47.695z M275.033,49.672
			l2.238,6.26l1.996,0.241l0.347,0.969l-1.988-0.219l1.191,3.331l-0.835,0.299l-1.342-3.754l-1.992-0.23l-0.351-0.98l1.992,0.23
			l-2.091-5.848L275.033,49.672z M269.636,51.646l3.958,10.524l-0.831,0.313l-3.957-10.524L269.636,51.646z M261.965,54.607
			l1.135,2.886l2.944,2.34l0.626-3.745l-1.125-2.891l0.683-0.269l4.117,10.466l-0.683,0.269l-3.054-2.526l-0.515,3.93l-0.011,0.004
			l-0.694,0.273l-4.117-10.466L261.965,54.607z M254.483,57.699l0.815-0.351l4.45,10.321l-0.815,0.352l-2.225-5.161l-3.159,3.939
			l-0.33-0.824l3.138-3.93l-0.703-1.629l-3.137,3.93l-0.351-0.815l3.137-3.93L254.483,57.699z M245.869,61.495l3.883,8.604
			l0.04-4.208l3.175,2.761l-3.872-8.608l0.809-0.364l4.62,10.244l-0.82,0.369l-0.078-0.173l-3.157-2.808l-0.059,4.281l0.068,0.151
			l-0.82,0.369l-4.599-10.253L245.869,61.495z M242.4,63.106l2.83,6.02l2.011,0.049l0.438,0.932l-2.001-0.027l1.506,3.203
			l-0.803,0.377l-1.697-3.61l-2.006-0.038l-0.443-0.943l2.006,0.038l-2.644-5.624L242.4,63.106z M237.227,65.578l4.943,10.104
			l-0.798,0.391l-4.943-10.104L237.227,65.578z M233.16,67.588l0.791-0.403l5.103,10.017l-0.791,0.403l-0.005-0.011l-4.953,0.053
			l-0.473-0.928l4.958-0.042l-0.918-1.803l-4.979,0.053l-0.403-0.844l4.958-0.042L233.16,67.588z M224.651,72.005l1.451,2.742
			l3.188,1.998l0.204-3.792l-1.441-2.748l0.649-0.343l5.262,9.944l-0.649,0.344l-3.319-2.17l-0.073,3.964l-0.011,0.005l-0.659,0.349
			l-5.262-9.944L224.651,72.005z M219.625,74.743l2.704,4.929l5.183,0.221l-2.438,4.685l-0.042,0.023l-0.778,0.427l-5.407-9.857
			L219.625,74.743z M214.318,77.75l2.309,4.052l3.208,2.763l2.795,0.505l0.124-0.07l-5.186-9.102l0.781-0.445l5.566,9.77
			l-1.152,0.656l-3.271-0.602l-3.464-2.972l-2.379-4.175L214.318,77.75z M211.357,79.487l5.726,9.683l-0.765,0.452l-5.726-9.683
			L211.357,79.487z M204.415,83.679l3.307,5.396l2.645-4.173l3.712,6.035l-0.767,0.47l-2.923-4.771l-0.004,0.016l-2.645,4.173
			l-4.081-6.683L204.415,83.679z M196.245,88.896l3.653,5.557l1.997-0.237l0.565,0.86l-1.984,0.256l1.944,2.957l-0.742,0.487
			l-2.19-3.332l-1.991,0.247l-0.572-0.87l1.99-0.247l-3.413-5.191L196.245,88.896z M189.764,93.242l3.046,1.576l-0.347-3.412
			l0.851-0.579l0.465,4.49l3.448,1.789l0.206,4.509l-4.118-1.848l-0.397-3.865l-4.006-2.082L189.764,93.242z M184.833,96.687
			l3.641,5.176l2.375-4.332l4.086,5.788l-0.735,0.518l-3.219-4.576l-0.003,0.017l-2.375,4.332l-4.496-6.411L184.833,96.687z
			 M181.845,98.838l5.65,7.769l0.488-3.09l0.696,0.957l-0.587,3.718l-3.718-0.587l-0.696-0.957l3.107,0.49l-5.657-7.778
			L181.845,98.838z M175.344,103.658l6.334,3.011l-1.181,2.368l3.712,0.526l-6.037-8.032l0.719-0.541l6.755,8.987l-0.445,0.334
			l-0.274,0.206l-0.028,0.021l-5.762-0.851l1.417-2.546l-5.92-2.953L175.344,103.658z M170.532,107.376l2.862,3.679l3.568,2.275
			l2.837,0.102l0.112-0.087l-6.428-8.265l0.71-0.552l6.9,8.872l-1.046,0.813l-3.322-0.129l-3.851-2.446l-2.949-3.791
			L170.532,107.376z M165.979,111.003l4.359,2.374l-1.359-4.779l0.563-0.452l7.04,8.763l-0.582,0.466l-4.404-2.429l1.413,4.827
			l-0.582,0.466l-7.03-8.77L165.979,111.003z M157.078,118.458l6.146,7.164l-1.145-4.049l3.823,1.757l-6.137-7.172l0.674-0.577
			l7.315,8.531l-0.683,0.584l-0.123-0.144l-3.819-1.807l1.147,4.125l0.107,0.126l-0.683,0.584l-7.297-8.546L157.078,118.458z
			 M154.314,120.871l3.922,4.441l5.172,2.517l-0.665,0.587l-3.122-1.535l2.129,2.411l-0.665,0.587l-2.145-2.429l1.143,3.313
			l-0.665,0.587l-1.863-5.47l-3.906-4.424L154.314,120.871z M148.281,126.297l6.365,6.969l-1.27-4.011l3.875,1.637l-6.356-6.977
			l0.656-0.598l7.576,8.298l-0.665,0.605l-0.127-0.14l-3.873-1.688l1.275,4.086l0.111,0.123l-0.664,0.605l-7.558-8.314
			L148.281,126.297z M143.976,130.319l6.625,2.298l-0.914,2.482l3.746,0.116l-6.879-7.319l0.655-0.616l7.697,8.19l-0.405,0.381
			l-0.25,0.235l-0.026,0.024l-5.819-0.214l1.129-2.685l-6.207-2.285L143.976,130.319z M139.972,134.18l4.869,0.771l-2.744-2.831
			l0.638-0.618l7.828,8.074l-0.638,0.618l-4.219-4.352l-6.549-0.872L139.972,134.18z M137.16,136.969l7.958,7.944l-0.627,0.628
			l-7.958-7.944L137.16,136.969z M133.028,141.163l6.901,6.678l-0.051-3.127l0.85,0.823l0.062,3.763l-3.763,0.062l-0.85-0.823
			l3.144-0.051l-6.91-6.687L133.028,141.163z M130.474,143.81l8.205,7.683l-0.606,0.647l-0.009-0.008l-4.639,1.734l-0.76-0.712
			l4.647-1.726l-1.477-1.383l-4.664,1.744l-0.666-0.656l4.648-1.727l-5.286-4.949L130.474,143.81z M124.974,149.735l7.112,6.455
			l-0.151-3.125l0.876,0.795l0.182,3.76l-3.759,0.182l-0.876-0.795l3.141-0.152l-7.121-6.463L124.974,149.735z M121.053,154.11
			l8.437,7.422l-0.586,0.666l-8.437-7.422L121.053,154.11z M115.838,160.144l3.355,0.715l-1.236-3.2l0.667-0.783l1.636,4.208
			l3.799,0.813l1.391,4.295l-4.461-0.694l-1.404-3.623l-4.414-0.949L115.838,160.144z M113.308,163.175l5.128,4.236l1.839-0.814
			l0.794,0.656l-1.821,0.83l2.729,2.253l-0.565,0.685l-3.075-2.541l-1.83,0.822l-0.803-0.663l1.83-0.822l-4.791-3.958
			L113.308,163.175z M104.555,174.161l3.686,2.856l4.022,1.32l2.774-0.605l0.087-0.112l-8.278-6.415l0.551-0.711l8.886,6.885
			l-0.812,1.048l-3.251,0.699l-4.337-1.415l-3.798-2.943L104.555,174.161z M103.811,175.135l9.002,6.741l-0.532,0.71l-0.01-0.007
			l-4.423,2.233l-0.834-0.624l4.433-2.227l-8.168-6.116L103.811,175.135z M100.285,179.848l9.103,6.595l-0.521,0.719l-0.01-0.007
			l-4.386,2.302l-0.843-0.611l4.396-2.295l-8.26-5.985L100.285,179.848z M96.833,184.618l9.205,6.451l-0.509,0.727l-0.01-0.007
			l-4.349,2.371l-0.853-0.597l4.358-2.364l-1.657-1.161l-4.372,2.383l-0.752-0.556l4.358-2.364l-5.93-4.156L96.833,184.618z
			 M90.897,193.22l2.567,1.739l3.749,0.268l-1.599-3.442l-2.56-1.749l0.412-0.607l9.307,6.306l-0.412,0.607l-3.946-0.357
			l1.795,3.532l-0.006,0.01l-0.418,0.617l-9.306-6.306L90.897,193.22z M87.903,197.762l4.918-0.316l-3.297-2.16l0.486-0.743
			l9.408,6.161l-0.486,0.743l-5.07-3.32l-6.581,0.586L87.903,197.762z M84.655,202.845l3.422,0.235l-1.675-2.994l0.551-0.87
			l2.212,3.937l3.876,0.271l1.981,4.057l-4.515-0.059l-1.9-3.389l-4.504-0.318L84.655,202.845z M80.746,209.222l9.683,5.711
			l-0.451,0.764l-0.01-0.006l-4.15,2.704l-0.897-0.529l4.161-2.698l-8.786-5.182L80.746,209.222z M77.759,214.302l9.77,5.552
			l-0.438,0.771l-0.011-0.006l-4.104,2.77l-0.905-0.514l4.115-2.764l-1.759-0.999l-4.126,2.784l-0.801-0.482l4.115-2.764
			l-6.294-3.577L77.759,214.302z M74.865,219.402l9.857,5.393l-0.426,0.778l-4.075,2.84l-0.913-0.5l-0.351-4.115l-3.14,2.192
			l-0.81-0.443l-0.569-5.367L74.865,219.402z M70.047,228.353l3.431-0.036l-1.907-2.853l0.48-0.911l2.518,3.75l3.887-0.037
			l2.297,3.889l-4.506,0.298l-2.164-3.229l-4.517,0.039L70.047,228.353z M67.292,233.744l7.017-0.092l-0.015,2.647l3.565-1.166
			l-8.965-4.547l0.407-0.802l10.031,5.088l-0.252,0.496l-0.155,0.306l-0.016,0.032l-5.549,1.779l0.149-2.912l-6.619-0.038
			L67.292,233.744z M65.677,237.02l10.104,4.928l-0.389,0.798l-10.104-4.929L65.677,237.02z M62.212,244.317l5.739,2.678
			l-0.097-4.943l6.43,2.987l-0.38,0.815l-5.074-2.367l0.006,0.016l0.097,4.944l-7.096-3.324L62.212,244.317z M58.26,253.184
			l6.114,2.624l1.537-1.299l0.947,0.406l-1.515,1.308l3.253,1.396l-0.351,0.816l-3.666-1.574l-1.526,1.304l-0.958-0.411l1.526-1.303
			L57.91,254L58.26,253.184z M56.032,258.469l10.394,4.276l-0.338,0.82l-10.394-4.276L56.032,258.469z M53.024,265.999l5.894,2.31
			l-0.408-4.926l6.604,2.576l-0.328,0.837l-5.211-2.042l0.007,0.015l0.408,4.926l-7.289-2.87L53.024,265.999z M51.735,269.392
			l10.524,3.943l-0.311,0.831l-10.524-3.943L51.735,269.392z M47.002,282.781l4.419,1.491l4.233-0.07l2.424-1.481l0.045-0.134
			l-9.926-3.349l0.288-0.853l10.655,3.595l-0.424,1.256l-2.844,1.727l-4.563,0.084l-4.553-1.536L47.002,282.781z M45.933,286.069
			l9.157,2.924l-1.436-2.782l1.128,0.36l1.727,3.348l-3.347,1.727l-1.128-0.36l2.797-1.443l-9.168-2.928L45.933,286.069z
			 M43.117,295.194l10.813,3.087l-0.244,0.854l-0.011-0.003l-3.336,3.664l-1.002-0.286l3.348-3.661l-1.947-0.556l-3.354,3.684
			l-0.893-0.28l3.348-3.661l-6.967-1.989L43.117,295.194z M41.507,300.851l10.857,2.914l-0.23,0.857l-0.012-0.003l-3.276,3.715
			l-1.005-0.27l3.287-3.712l-9.852-2.644L41.507,300.851z M39.446,308.688l10.901,2.74l-0.216,0.86l-10.901-2.74L39.446,308.688z
			 M37.547,316.557l5.472,1.283l3.628-3.707l1.855,4.944l-0.011,0.046l-0.203,0.864l-10.944-2.566L37.547,316.557z M36.235,322.499
			l4.557,0.992l4.2-0.54l2.245-1.74l0.03-0.139l-10.236-2.229l0.191-0.879l10.988,2.392l-0.282,1.295l-2.635,2.031l-4.526,0.59
			l-4.696-1.022L36.235,322.499z M35.539,325.877l11.017,2.218l-0.175,0.87l-11.017-2.218L35.539,325.877z M34.013,333.852
			l2.91,0.538l-2.104-4.904l11.06,2.044l-3.717,3.828l2.911,0.538l-0.161,0.874l-4.657-0.861l3.717-3.828l-7.567-1.398l2.104,4.904
			l-4.657-0.86L34.013,333.852z M32.124,345.453l9.341,1.4l-3.517-2.315l4.044-1.172l-9.339-1.413l0.133-0.878l11.12,1.67
			l-0.135,0.89l-0.187-0.028l-4.074,1.131l3.568,2.371l0.164,0.025l-0.134,0.89l-11.117-1.693L32.124,345.453z M31.612,349.075
			l5.879,0.795l5.565-1.482l-0.119,0.88l-3.37,0.882l3.192,0.432l-0.119,0.88l-3.215-0.435l3.036,1.761l-0.119,0.88l-4.994-2.921
			l-5.855-0.792L31.612,349.075z M29.97,362.957l9.389,0.962l-3.618-2.147l3.981-1.359l-9.388-0.974l0.091-0.882l11.178,1.148
			l-0.093,0.894l-0.188-0.02l-4.013,1.32l3.672,2.2l0.165,0.018l-0.093,0.894l-11.175-1.171L29.97,362.957z M29.826,364.393
			l11.205,0.986l-0.078,0.884l-0.012-0.001l-2.583,4.23l-1.038-0.091l2.595-4.229l-2.017-0.177l-2.597,4.253l-0.93-0.106
			l2.595-4.229l-7.218-0.635L29.826,364.393z M28.662,380.262l4.101-2.729l-3.933-0.224l0.05-0.886l11.22,0.638l-0.05,0.886
			l-6.047-0.344l-5.405,3.792L28.662,380.262z M28.399,386.29l3.081-1.511l-2.95-1.752l0.041-1.029l3.888,2.3l3.491-1.708
			l3.749,2.519l-3.938,2.211l-3.344-1.981l-4.059,1.981L28.399,386.29z M28.225,392.448l3.099,0.076l3.298-1.801l-3.204-2.031
			l-3.098-0.088l0.018-0.733l11.234,0.276l-0.018,0.733l-3.512,1.831l3.418,2l0,0.012l-0.018,0.745l-11.234-0.275L28.225,392.448z
			 M28.135,398.346l3.098,0.052l3.284-1.826l-3.219-2.006l-3.098-0.064l0.012-0.733l11.234,0.188l-0.013,0.733l-3.497,1.857
			l3.433,1.974l0,0.012l-0.012,0.745l-11.234-0.188L28.135,398.346z M28.118,399.892l4.009,2.074l3.387-1.902l3.883,2.3l-3.803,2.43
			l-3.449-1.787l-3.938,2.207l-0.017-1.029l2.988-1.682l-3.043-1.582L28.118,399.892z M28.287,410.353l4.534-2.016l-4.619-1.827
			l-0.016-0.722l11.234-0.259l0.017,0.745l-4.605,2.018l4.689,1.814l0.016,0.745l-11.234,0.246L28.287,410.353z M28.483,415.969
			l2.954-1.744l-3.076-1.52l-0.039-1.028l4.053,1.991l3.349-1.973l3.932,2.222l-3.754,2.509l-3.487-1.717l-3.894,2.289
			L28.483,415.969z M29.156,427.54l3.727-3.227l-3.933,0.274l-0.062-0.886l11.22-0.783l0.062,0.886l-6.047,0.422l-4.888,4.447
			L29.156,427.54z M29.644,433.556l2.869-1.884l-3.146-1.371l-0.087-1.026l4.145,1.797l3.252-2.132l4.035,2.032l-3.632,2.687
			l-3.566-1.55l-3.781,2.474L29.644,433.556z M30.021,437.507l6.621-0.669l0.714-1.881l1.025-0.104l-0.691,1.879l3.522-0.356
			l0.089,0.884l-3.97,0.401l-0.703,1.88l-1.037,0.104l0.703-1.88l-6.185,0.625L30.021,437.507z M30.893,445.408l6.286-0.735
			l-2.677-4.153l7.037-0.834l0.104,0.893l-5.558,0.649l0.013,0.011l2.677,4.153l-7.779,0.897L30.893,445.408z M31.646,451.228
			l9.362-1.254l-4.022-1.245l3.558-2.251l-9.364,1.242l-0.117-0.881l11.146-1.49l0.119,0.893l-0.188,0.024l-3.598,2.221l4.087,1.285
			l0.165-0.022l0.118,0.892l-11.149,1.467L31.646,451.228z M32.495,457.05l5.559-0.826l2.004-4.784l3.548,3.911l0.007,0.047
			l0.13,0.877l-11.118,1.653L32.495,457.05z M33.475,463.058l4.599-0.763l3.701-2.055l1.441-2.445l-0.023-0.141l-10.331,1.715
			l-0.147-0.887l11.089-1.841l0.217,1.307l-1.696,2.861l-3.985,2.221l-4.739,0.786L33.475,463.058z M33.678,464.276l11.06-2.015
			l0.159,0.873l-0.012,0.002l-1.37,4.761l-1.024,0.187l1.382-4.763l-1.991,0.362l-1.377,4.786l-0.924,0.145l1.382-4.763
			l-7.125,1.298L33.678,464.276z M35.163,472.229l9.429-1.871l-2.603-1.74l1.161-0.23l3.131,2.094l-2.094,3.132l-1.161,0.229
			l1.75-2.616l-9.44,1.874L35.163,472.229z M38.156,486.06l4.032-2.902l-4.899-0.847l-0.163-0.704l10.956-2.548l0.168,0.727
			l-4.101,2.918l4.966,0.819l0.168,0.727l-10.958,2.537L38.156,486.06z M39.569,491.817l4.527-1.124l3.53-2.34l1.244-2.554
			l-0.034-0.139l-10.168,2.525l-0.217-0.873l10.916-2.711l0.319,1.287l-1.466,2.987l-3.8,2.529l-4.665,1.158L39.569,491.817z
			 M40.443,495.174l10.872-2.885l0.228,0.858l-10.872,2.885L40.443,495.174z M42.591,502.971l6.09-1.723l-3.302-3.677l6.815-1.939
			l0.245,0.865l-5.384,1.522l0.015,0.008l3.302,3.677l-7.539,2.12L42.591,502.971z M44.675,509.98l10.712-3.393l0.268,0.846
			l-0.011,0.004l-0.758,4.893l-0.992,0.314l0.77-4.896l-1.928,0.61l-0.763,4.919l-0.898,0.26l0.77-4.896l-6.901,2.186L44.675,509.98
			z M47.93,519.985l4.418-1.479l3.329-2.611l1.037-2.642l-0.045-0.135l-9.926,3.322l-0.285-0.853l10.655-3.565l0.42,1.256
			l-1.223,3.091l-3.583,2.82l-4.554,1.523L47.93,519.985z M49.063,523.246l9.057-3.196l-2.822-1.35l1.115-0.394l3.396,1.624
			l-1.624,3.396l-1.115,0.394l1.357-2.837l-9.068,3.2L49.063,523.246z M51.839,530.885l8.848-3.299l-4.197-0.322l2.969-2.983
			l-8.853,3.287l-0.309-0.832l10.535-3.925l0.313,0.843l-0.177,0.066l-3.015,2.963l4.269,0.346l0.155-0.058l0.313,0.843
			l-10.542,3.903L51.839,530.885z M55.313,539.761l10.408-4.247l0.335,0.822l-10.408,4.247L55.313,539.761z M58.437,547.24
			l4.444-5.432l2.017,1.715l1.401-3.479l-9.25,3.938l-0.353-0.828l10.35-4.407l0.218,0.513l0.134,0.315l0.014,0.033l-2.208,5.393
			l-2.133-1.987l-4.288,5.043L58.437,547.24z M60.891,552.808l4.262-1.895l3.069-2.918l0.782-2.73l-0.058-0.13l-9.574,4.254
			l-0.365-0.822L69.285,544l0.538,1.212l-0.925,3.196l-3.302,3.15l-4.392,1.952L60.891,552.808z M63.279,557.974l4.259-5.569
			l2.071,1.646l1.285-3.521l-9.107,4.235l-0.379-0.814l10.191-4.74l0.234,0.504l0.145,0.312l0.015,0.031l-2.028,5.458l-2.195-1.914
			l-4.116,5.177L63.279,557.974z M65.818,563.27l8.494-4.127l-4.208,0.079l2.671-3.253l-8.499,4.116l-0.387-0.799l10.113-4.911
			l0.392,0.81l-0.17,0.083l-2.719,3.236l4.282-0.063l0.149-0.072l0.392,0.81l-10.124,4.889L65.818,563.27z M71.228,573.888
			l3.167-3.824l-4.952,0.417l-0.335-0.64l9.953-5.229l0.346,0.66l-3.229,3.856l5.009-0.46l0.346,0.66l-9.958,5.219L71.228,573.888z
			 M73.877,578.801l1.871-2.874l-3.429,0.006l-0.491-0.904l4.513-0.017l2.123-3.252l4.506,0.243l-2.248,3.913l-3.884,0.011
			l-2.47,3.777L73.877,578.801z M74.633,580.18l9.785-5.523l0.436,0.772l-0.01,0.006l0.264,4.944l-0.906,0.511l-0.254-4.949
			l-8.878,5.012L74.633,580.18z M79.705,589.017l1.778-2.935l-3.429,0.117l-0.521-0.889l4.513-0.162l2.017-3.32l4.514,0.098
			l-2.121,3.985l-3.883,0.136l-2.347,3.857L79.705,589.017z M83.273,594.943l-0.46-0.759l3.625-6.003l2.238,1.41l0.892-3.64
			l-8.589,5.207l-0.466-0.769l9.611-5.827l0.288,0.476l0.178,0.293l0.018,0.03l-1.418,5.647l-2.392-1.663L83.273,594.943z
			 M87.912,602.252l9.422-6.132l0.484,0.744l-9.422,6.132L87.912,602.252z M91.237,607.282l5.514-3.714l-0.258-1.993L97.346,601
			l0.278,1.98l2.934-1.976l0.495,0.736l-3.306,2.227l0.269,1.986l-0.864,0.582l-0.268-1.987l-5.151,3.469L91.237,607.282z
			 M99.154,618.601l3.138-6.269l2.342,1.229l0.602-3.698l-8.148,5.869l-0.525-0.729l9.118-6.567l0.325,0.451l0.2,0.278l0.021,0.029
			l-0.968,5.74l-2.515-1.469l-3.071,5.855L99.154,618.601z M102.666,623.348l7.566-5.646l-4.118,0.867l2.013-3.695l-7.574,5.638
			l-0.53-0.712l9.009-6.722l0.537,0.722l-0.152,0.113l-2.063,3.688l4.194-0.865l0.133-0.099l0.537,0.721l-9.023,6.702
			L102.666,623.348z M106.23,628.009l2.346-1.805l-5.052-1.715l8.915-6.856l0.361,5.323l2.346-1.804l0.542,0.703l-3.754,2.888
			l-0.36-5.324l-6.1,4.691l5.053,1.715l-3.754,2.887L106.23,628.009z M109.889,632.634l2.836-6.417l2.4,1.116l0.424-3.726
			l-7.864,6.257l-0.56-0.704l8.799-7.001l0.346,0.435l0.214,0.269l0.022,0.028l-0.692,5.784l-2.584-1.347l-2.788,6L109.889,632.634z
			 M113.591,637.173l7.286-6l-4.071,1.063l1.833-3.786l-7.293,5.99l-0.563-0.686l8.675-7.141l0.571,0.694l-0.146,0.12L118,631.21
			l4.146-1.064l0.128-0.104l0.57,0.694l-8.69,7.123L113.591,637.173z M117.393,641.686l2.015-1.708l-1.034-3.782l-3.279,2.78
			l-0.575-0.678l8.582-7.276l0.575,0.677l-2.521,2.138l0.97,3.836l3.848-3.264l0.575,0.678l-8.582,7.277L117.393,641.686z
			 M121.258,646.132l7.104-6.231l-4.04,1.191l1.716-3.847l-7.111,6.223l-0.585-0.669l8.458-7.416l0.592,0.677l-0.143,0.125
			l-1.767,3.843l4.116-1.193l0.125-0.109l0.593,0.677l-8.474,7.398L121.258,646.132z M123.782,648.952l4.939-4.459l-0.538-1.939
			l0.765-0.69l0.556,1.924l2.628-2.373l0.595,0.659l-2.962,2.674l0.547,1.932l-0.773,0.698l-0.547-1.932l-4.614,4.166
			L123.782,648.952z M129.271,654.911l2.041-4.525l-4.664,1.714l-0.492-0.528l8.211-7.677l0.509,0.545l-2.093,4.574l4.708-1.771
			l0.508,0.545l-8.219,7.668L129.271,654.911z M133.245,659.067l6.798-6.56l-3.978,1.381l1.532-3.923l-6.807,6.551l-0.616-0.64
			l8.095-7.808l0.624,0.648l-0.136,0.132l-1.582,3.921l4.054-1.388l0.119-0.114l0.624,0.648l-8.111,7.79L133.245,659.067z
			 M137.377,663.256l2.115-6.682l2.506,0.846l0.014-3.746l-7.125,7.073l-0.633-0.638l7.973-7.915l0.392,0.395l0.241,0.243
			l0.025,0.025l-0.055,5.819l-2.714-1.055l-2.113,6.264L137.377,663.256z M139.965,665.808l7.857-8.045l0.635,0.62l-7.856,8.046
			L139.965,665.808z M151.548,666.662l-0.086-3.145l-6.612,6.984l-0.644-0.609l6.604-6.977l-3.127,0.086l0.813-0.859l3.763-0.103
			l0.103,3.763L151.548,666.662z M152.884,677.862l7.465-8.407l0.664,0.589l-7.465,8.407L152.884,677.862z M162.917,679.537
			l-0.785-1.847l-4.053,4.711l-0.673-0.579l4.339-5.042l-0.777-1.855l0.671-0.781l0.792,1.838l2.309-2.683l0.673,0.579l-2.602,3.023
			l0.785,1.847L162.917,679.537z M165.306,688.445l-0.691-0.558l7.06-8.755l0.691,0.557l-3.53,4.378l4.961,0.958l-0.576,0.677
			l-4.942-0.943l-1.115,1.383l4.942,0.943l-0.557,0.69l-4.942-0.943L165.306,688.445z M172.563,694.208l0.57-3.382l-3.143,1.373
			l-0.811-0.634l4.133-1.814l0.649-3.83l4.23-1.574l-0.5,4.485l-3.558,1.559l-0.758,4.45L172.563,694.208z M173.832,695.194
			l6.784-8.973l0.708,0.535l-0.007,0.01l2.214,4.435l-0.628,0.831l-2.207-4.444l-6.156,8.142L173.832,695.194z M182.258,701.468
			l2.753-3.764l1.208-4.058l-0.681-2.757l-0.115-0.084l-6.185,8.454l-0.726-0.531l6.639-9.074l1.07,0.782l0.789,3.231l-1.295,4.376
			l-2.837,3.878L182.258,701.468z M186.875,704.755l1.709-2.415l-5.331-0.148l6.494-9.176l1.913,4.979l1.709-2.415l0.725,0.513
			l-2.734,3.863l-1.913-4.979l-4.443,6.278l5.331,0.149l-2.734,3.863L186.875,704.755z M189.903,706.85l5.427-7.93l-3.076,0.576
			l0.668-0.977l3.701-0.693l0.693,3.701l-0.668,0.977l-0.58-3.093l-5.434,7.939L189.903,706.85z M193.67,709.404l-0.741-0.49
			l6.205-9.379l0.74,0.49l-0.006,0.01l2.487,4.285l-0.575,0.869l-2.481-4.296l-1.117,1.688l2.5,4.309l-0.536,0.767l-2.481-4.295
			L193.67,709.404z M199.702,713.348l5.179-8.104l-3.059,0.674l0.638-0.998l3.681-0.811l0.81,3.681l-0.638,0.998l-0.677-3.075
			l-5.185,8.112L199.702,713.348z M206.572,717.646l4.946-8.043l-3.506,2.327l0.505-4.178l-4.956,8.036l-0.755-0.466l5.89-9.573
			l0.766,0.472l-0.1,0.161l-0.554,4.19l3.578-2.354l0.087-0.141l0.765,0.472l-5.91,9.562L206.572,717.646z M213.615,721.837
			l-0.77-0.441l5.595-9.756l0.77,0.441l-2.797,4.878l5.049,0.167L221,717.884l-5.029-0.154l-0.883,1.54l5.029,0.155l-0.442,0.77
			l-5.029-0.154L213.615,721.837z M221.847,726.475l4.556-8.273l-3.392,2.493l0.305-4.198l-4.566,8.268l-0.777-0.43l5.425-9.848
			l0.788,0.435l-0.092,0.166l-0.353,4.213l3.462-2.523l0.08-0.145l0.788,0.435l-5.446,9.837L221.847,726.475z M223.882,727.582
			l-0.784-0.417l5.291-9.93l0.784,0.417l-0.006,0.011l2.884,4.032l-0.49,0.92l-2.878-4.043L223.882,727.582z M230.268,730.94
			l5.132-10.003l0.79,0.405l-5.132,10.002L230.268,730.94z M241.584,728.325l-1.012-2.98l-4.255,8.634l-0.796-0.393l4.25-8.623
			l-2.965,1.007l0.523-1.062l3.567-1.212l1.212,3.566L241.584,728.325z M248.168,739.542l3.886-8.602l-3.182,2.752l-0.028-4.207
			l-3.896,8.597l-0.808-0.366l4.628-10.239l0.818,0.371l-0.078,0.173l-0.019,4.225l3.25-2.786l0.068-0.151l0.819,0.371
			l-4.649,10.229L248.168,739.542z M253.539,741.898l2.523-5.804l-4.936,0.228l2.813-6.503l0.824,0.358l-2.23,5.132l0.016-0.007
			l4.936-0.228l-3.132,7.177L253.539,741.898z M258.987,744.186l2.433-5.846l-4.934,0.306l2.713-6.549l0.83,0.345l-2.15,5.168
			l0.015-0.006l4.934-0.306l-3.021,7.229L258.987,744.186z M265.272,746.696l-0.825-0.327l3.471-8.784l-3.049,2.903l-0.229-4.204
			l-3.482,8.779l-0.825-0.327l4.135-10.456l0.836,0.332l-0.07,0.176l0.184,4.224l3.115-2.94l0.061-0.154l0.836,0.332
			L265.272,746.696z M275.177,750.379l-1.449-4.713l-1.336,3.71l-0.835-0.302l3.812-10.581l0.835,0.301l-2.055,5.703l2.097,6.268
			L275.177,750.379z M278.898,751.684l3.653-10.641l0.84,0.289l-3.653,10.64L278.898,751.684z M283.212,753.143l-0.844-0.274
			l3.479-10.698l0.844,0.274l-0.003,0.012l3.542,3.468l-0.322,0.991l-3.538-3.479L283.212,753.143z M288.82,754.946l-0.848-0.261
			l3.305-10.741l0.848,0.261l-0.003,0.012l3.593,3.407l-0.306,0.995l-3.59-3.419L288.82,754.946z M298.07,757.708l1.299-4.479
			l-0.253-4.227l-1.584-2.357l-0.137-0.039l-2.917,10.061l-0.864-0.251l3.131-10.799l1.273,0.369l1.848,2.766l0.281,4.556
			l-1.338,4.615L298.07,757.708z M304.396,759.451l-0.719-0.196l0.816-2.99l-0.959-3.634l-2.739,2.625l-0.827,2.987l-0.708-0.192
			l2.958-10.843l0.708,0.192l0.937,3.849l2.761-2.84l0.012,0.003l0.719,0.196L304.396,759.451z M315.079,762.111l-0.801-4.897
			l-2.938,4.005l-0.702-0.168l2.598-10.933l0.725,0.173l0.785,4.967l2.943-4.076l0.725,0.173l-2.609,10.93L315.079,762.111z
			 M320.538,763.34l-0.94-3.3l-2.248,2.592l-1.005-0.223l2.952-3.417l-1.061-3.738l3.144-3.241l1.477,4.267l-2.543,2.938
			l1.229,4.346L320.538,763.34z M322.967,763.862l-0.87-0.179l2.261-11.017l0.87,0.179l-0.002,0.011l3.906,3.05l-0.209,1.021
			l-3.904-3.062L322.967,763.862z M332.067,765.66l-1.044-3.269l-2.165,2.662l-1.012-0.191l2.843-3.509l-1.179-3.703l3.04-3.339
			l1.611,4.218l-2.449,3.018l1.366,4.305L332.067,765.66z M338.001,766.707l-2.148-6.674l2.533-0.764l-2.16-3.063l-1.71,9.897
			l-0.886-0.152l1.914-11.075l0.548,0.095l0.338,0.059l0.035,0.006l3.329,4.777l-2.825,0.712l1.908,6.333L338.001,766.707z
			 M344.667,767.77l-0.876-0.138l1.45-9.329l-2.333,3.503l-1.15-4.049l-1.461,9.327l-0.877-0.137l1.728-11.105l0.888,0.139
			l-0.029,0.188l1.11,4.077l2.389-3.554l0.025-0.163l0.889,0.139L344.667,767.77z M355.458,769.214l1.157-9.377l-2.224,3.576
			l-1.278-4.013l-1.169,9.375l-0.881-0.109l1.38-11.163l0.893,0.111l-0.023,0.188l1.238,4.044l2.278-3.629l0.021-0.165l0.893,0.111
			l-1.403,11.161L355.458,769.214z M362.258,769.963l-0.765-0.082l0.499-4.636l-0.985-4.116l-1.97-2.045l-0.141-0.016l-1.121,10.412
			l-0.894-0.097l1.203-11.176l1.318,0.142l2.3,2.401l1.069,4.436L362.258,769.963z M372.37,763.731l-0.013,0.011l-0.414,0.135
			l-2.009,0.831l-0.451,5.909l-0.885-0.067l0.843-11.206l0.896,0.068l-0.232,3.043l0.798-0.2l1.722-2.668l0.932,0.071l-1.991,3.074
			l0,0.012l-0.014,0.023l-0.426,0.134l-1.082,0.344l-0.044,0.578l1.836-0.737l2.027-3.404l0.885,0.067l-2.379,3.971L372.37,763.731z
			 M371.532,763.051l0,0.012l-0.012-0.001L371.532,763.051z M379.858,771.322l-0.768-0.047l0.283-4.653l-1.176-4.065l-2.063-1.951
			l-0.142-0.009l-0.635,10.452l-0.897-0.055l0.681-11.22l1.323,0.081l2.409,2.291l1.275,4.381L379.858,771.322z M385.526,765.822
			l-0.959,2.611l1.078,3.153l-0.887-0.04l-1.568-4.633l-1.979,4.473l-0.887-0.04l1.396-3.102l-0.847-2.503l1.001-2.739l-0.972-2.888
			l0.816,0.037l1.571,4.573l1.977-4.413l0.839,0.038l-1.373,3.113L385.526,765.822z M389.308,771.698l-0.887-0.026l0.333-11.234
			l0.887,0.026L389.308,771.698z M397.537,763.876l-4.397-2.286l-0.034,2.022l4.421,2.286l-0.039,0.934l-4.398-2.286l-0.121,7.237
			l-0.887-0.015l0.188-11.234l0.887,0.015l0,0.013l4.398,2.273L397.537,763.876z M401.3,771.838l-0.887,0.015l-0.161-9.603
			l-2.174,2.249l-0.02-1.183l2.616-2.706l2.705,2.616l0.02,1.183l-2.26-2.186L401.3,771.838z M413.25,771.615l-0.887,0.03
			l-0.224-6.646l-1.827-0.838l-0.035-1.029l1.827,0.814l-0.118-3.535l0.887-0.03l0.134,3.985l1.827,0.827l0.035,1.04l-1.827-0.826
			L413.25,771.615z M420.518,771.297l-0.229-4.659l-1.615-3.915l-2.265-1.715l-0.142,0.007l0.513,10.466l-0.898,0.044l-0.551-11.234
			l1.324-0.064l2.647,2.016l1.748,4.217l0.235,4.802L420.518,771.297z M422.627,771.175l-0.886,0.057l-0.725-11.22l0.886-0.057
			l0.001,0.012l4.57,1.91l0.067,1.04l-4.571-1.923L422.627,771.175z M428.499,770.776l-0.885,0.071l-0.898-11.205l0.884-0.071
			l0.001,0.012l4.6,1.839l0.083,1.038l-4.6-1.851L428.499,770.776z M434.365,770.285l-0.883,0.085l-1.073-11.19l0.884-0.085
			l0.001,0.012l4.627,1.768l0.1,1.037l-4.628-1.78l0.192,2.015l4.652,1.777l0.065,0.933l-4.628-1.779L434.365,770.285z
			 M449.591,768.572l-0.377-2.934l-4.023,3.5l-1.435-11.147l4.777,2.367l-0.377-2.934l0.88-0.113l0.604,4.694l-4.778-2.367
			l0.982,7.627l4.022-3.5l0.604,4.693L449.591,768.572z M451.876,768.263l-0.879,0.127l-1.609-11.133l0.879-0.127l0.002,0.012
			l4.71,1.544l0.148,1.031l-4.711-1.556l0.29,2.004l4.734,1.553l0.11,0.929l-4.711-1.556L451.876,768.263z M461.211,766.839
			l-4.199-5.62l2.15-1.544l-3.039-2.198l1.594,9.924l-0.889,0.143l-1.783-11.104l0.55-0.089l0.339-0.054l0.035-0.006l4.701,3.441
			l-2.442,1.591l3.86,5.375L461.211,766.839z M464.809,766.221l-1.957-11.075l0.874-0.154l1.957,11.075L464.809,766.221z
			 M469.29,765.409l-0.871,0.169l-2.131-11.032l0.871-0.168l0.002,0.012l4.772,1.318l0.197,1.022l-4.774-1.33l0.384,1.985
			l4.797,1.326l0.154,0.921l-4.774-1.33L469.29,765.409z M477.248,763.816l-0.869,0.182l-1.97-9.404l-1.712,2.62l-0.243-1.158
			l2.061-3.151l3.151,2.06l0.242,1.158l-2.633-1.722L477.248,763.816z M484.462,762.222l-1.028-4.545l-2.264-3.574l-2.524-1.297
			l-0.139,0.031l2.31,10.209l-0.877,0.198l-2.479-10.959l1.292-0.292l2.952,1.527l2.447,3.848l1.06,4.684L484.462,762.222z
			 M490.018,760.885l-4.631-5.272l2.022-1.709l-3.203-1.951l2.371,9.768l-0.874,0.213l-2.653-10.931l0.541-0.131l0.333-0.081
			l0.035-0.009l4.958,3.062l-2.31,1.778l4.272,5.055L490.018,760.885z M501.368,757.87l-2.532-9.093l-0.678,4.152l-2.719-3.211
			l2.521,9.096l-0.855,0.237l-3.012-10.825l0.866-0.24l0.051,0.183l2.693,3.255l0.708-4.223l-0.044-0.159l0.866-0.24l2.989,10.832
			L501.368,757.87z M504.875,756.855l-1.674-5.688l-3.623-4.472l0.852-0.251l2.18,2.714l-0.908-3.088l0.852-0.251l0.915,3.11
			l0.367-3.488l0.852-0.25l-0.627,5.748l1.667,5.665L504.875,756.855z M512.362,754.572l-3.997-2.878l1.174,3.76l-0.847,0.265
			l-3.349-10.728l0.847-0.265l1.805,5.781l5.451,3.727L512.362,754.572z M518.214,752.667l-2.97-8.97l-0.479,4.185l-2.873-3.08
			l2.959,8.975l-0.844,0.277l-3.533-10.68l0.854-0.281l0.06,0.18l2.851,3.125l0.504-4.256l-0.052-0.158l0.854-0.281l3.512,10.687
			L518.214,752.667z M523.772,750.755l-0.973-2.796l-3.222,4.255l-3.696-10.625l5.167,1.337l-0.973-2.796l0.839-0.292l1.557,4.474
			l-5.167-1.337l2.529,7.271l3.221-4.256l1.557,4.474L523.772,750.755z M527.229,749.513l-3.295-9.021l-1.318,2.837l-0.406-1.111
			l1.586-3.412l3.413,1.586l0.405,1.11l-2.851-1.325l3.3,9.031L527.229,749.513z M534.799,746.666l-3.396-8.813l-0.275,4.201
			l-3.017-2.937l3.386,8.815l-0.829,0.318l-4.041-10.49l0.84-0.323l0.067,0.177l2.996,2.982l0.299-4.272l-0.06-0.154l0.84-0.323
			l4.019,10.5L534.799,746.666z M540.457,744.415l-1.737-4.329l-2.805-3.173l-2.7-0.881l-0.132,0.054l3.902,9.723l-0.835,0.335
			l-4.189-10.437l1.23-0.494l3.16,1.04l3.029,3.415l1.791,4.46L540.457,744.415z M545.692,742.226l-5.412-4.465l1.723-2.01
			l-3.473-1.415l3.899,9.263l-0.829,0.349l-4.363-10.364l0.513-0.216l0.316-0.133l0.033-0.014l5.382,2.229l-1.995,2.125l5.024,4.307
			L545.692,742.226z M556.442,737.442l-2.637-5.755l-3.127,3.827l-2.963-6.438l0.817-0.375l2.331,5.089l0.006-0.016l3.127-3.828
			l3.252,7.127L556.442,737.442z M559.758,735.879l-4.842-10.147l0.801-0.382l4.842,10.146L559.758,735.879z M565.186,733.233
			l-2.967-5.952l-2.012-0.002l-0.459-0.921l2-0.02l-1.578-3.166l0.794-0.396l1.779,3.568l2.006-0.009l0.465,0.933l-2.006,0.008
			l2.771,5.56L565.186,733.233z M570.293,730.652l-4.41-8.537l-0.95,2.981l-0.544-1.051l1.144-3.588l3.588,1.144l0.543,1.051
			l-2.998-0.955l4.417,8.548L570.293,730.652z M582.454,724.088l-2.896-1.838l0.046,3.43l-0.899,0.502l-0.067-4.515l-3.279-2.086
			l0.192-4.511l3.94,2.204l0.055,3.885l3.809,2.428L582.454,724.088z M587.434,721.227l-4.536-1.926l1.977,3.409l-0.769,0.445
			l-5.639-9.727l0.768-0.445l3.039,5.242l6.143,2.431L587.434,721.227z M592.496,718.215l-4.563-1.856l2.027,3.379l-0.761,0.456
			l-5.784-9.64l0.761-0.456l3.117,5.195l6.178,2.338L592.496,718.215z M594.741,716.841l-0.753,0.47l-5.943-9.538l0.753-0.47
			l0.007,0.01l4.929-0.479l0.55,0.884l-4.935,0.469l1.069,1.717l4.955-0.481l0.475,0.807l-4.936,0.468L594.741,716.841z
			 M602.71,711.795l-5.124-7.933l0.588,4.168l-3.553-2.258l5.114,7.938l-0.746,0.48l-6.099-9.444l0.757-0.487l0.103,0.159
			l3.541,2.308l-0.58-4.244l-0.089-0.139l0.756-0.487l6.078,9.458L602.71,711.795z M607.362,708.712l-4.646-1.637l2.186,3.277
			l-0.738,0.492l-6.233-9.35l0.738-0.492l3.359,5.039l6.279,2.04L607.362,708.712z M609.531,707.24l-0.73,0.505l-6.393-9.249
			l0.73-0.504l0.007,0.01l4.902-0.713l0.592,0.856l-4.909,0.703l1.15,1.665l4.929-0.717l0.513,0.782l-4.909,0.703L609.531,707.24z
			 M615.433,703.119l-5.588-7.818l-0.514,3.088l-0.688-0.963l0.618-3.715l3.715,0.618l0.688,0.963l-3.104-0.517l5.595,7.828
			L615.433,703.119z M626.446,694.976l-4.741-1.342l2.388,3.135l-0.706,0.538l-6.813-8.944l0.707-0.538l3.672,4.82l6.398,1.643
			L626.446,694.976z M631.454,691.055l-2.886-3.661l-3.583-2.252l-2.838-0.084l-0.111,0.088l6.481,8.224l-0.706,0.557l-6.958-8.827
			l1.041-0.82l3.323,0.106l3.867,2.422l2.974,3.772L631.454,691.055z M635.887,687.477l-1.866-2.297l-1.579,5.095l-7.088-8.727
			l5.31-0.502l-1.865-2.296l0.688-0.56l2.985,3.674l-5.311,0.502l4.851,5.971l1.579-5.095l2.984,3.675L635.887,687.477z
			 M638.706,685.128l-7.233-8.61l0.68-0.571l7.233,8.61L638.706,685.128z M644.954,679.779l-4.448-2.205l1.543,4.724l-0.546,0.474
			l-7.373-8.487l0.563-0.488l4.495,2.259l-1.598-4.771l0.563-0.488l7.363,8.495L644.954,679.779z M645.943,678.915l-7.494-8.379
			l0.661-0.591l0.008,0.009l4.774-1.318l0.694,0.776l-4.782,1.309l1.349,1.509l4.801-1.325l0.605,0.713l-4.783,1.309l4.828,5.397
			L645.943,678.915z M651.954,673.483l-6.517-7.063l-0.126,3.127l-0.803-0.87l0.151-3.763l3.763,0.151l0.803,0.87l-3.145-0.127
			l6.525,7.071L651.954,673.483z M654.64,670.994l-7.755-8.132l0.642-0.612l0.009,0.008l4.728-1.469l0.719,0.754l-4.736,1.46
			l1.396,1.464l4.754-1.477l0.628,0.692l-4.736,1.46l4.996,5.239L654.64,670.994z M660.465,665.387l-6.74-6.852l-0.025,3.13
			l-0.83-0.844l0.03-3.767l3.767,0.031l0.83,0.844l-3.147-0.025l6.749,6.859L660.465,665.387z M668.844,656.894l-4.811-4.588
			l-1.892,0.681l-0.745-0.71l1.874-0.697l-2.559-2.441l0.611-0.642l2.885,2.751l1.884-0.688l0.753,0.718l-1.883,0.689l4.494,4.285
			L668.844,656.894z M674.193,651.189l-3.324-0.852l1.104,3.248l-0.699,0.756l-1.462-4.273l-3.764-0.97l-1.213-4.35l4.43,0.877
			l1.255,3.678l4.372,1.131L674.193,651.189z M676.828,648.275l-4.956-4.442l-1.872,0.74l-0.768-0.688l1.854-0.756l-2.638-2.363
			l0.593-0.661l2.973,2.663l1.863-0.748l0.775,0.696l-1.862,0.747l4.63,4.15L676.828,648.275z M685.891,637.795l-2.267-1.904
			l-0.589,5.303l-8.61-7.233l5.121-1.495l-2.266-1.904l0.57-0.68l3.626,3.046l-5.121,1.495l5.891,4.949l0.59-5.302l3.626,3.045
			L685.891,637.795z M689.607,633.268l-6.871-1.403l0.578-2.582l-3.729,0.379l7.785,6.349l-0.568,0.696l-8.712-7.103l0.352-0.432
			l0.217-0.266l0.022-0.027l5.797-0.557l-0.766,2.812l6.455,1.445L689.607,633.268z M693.182,628.759l-3.38-0.585l1.358,3.149
			l-0.637,0.809l-1.797-4.143l-3.828-0.667l-1.556-4.239l4.485,0.521l1.543,3.566l4.447,0.779L693.182,628.759z M695.494,625.768
			l-8.93-6.828l0.539-0.705l8.93,6.828L695.494,625.768z M700.448,619.146l-4.824-1.18l2.538,4.274l-0.43,0.58l-9.052-6.673
			l0.442-0.6l4.882,1.222l-2.603-4.307l0.443-0.6l9.045,6.683L700.448,619.146z M703.79,614.497l-7.69-5.481l2.085,3.657
			l-4.136-0.788l7.684,5.491l-0.517,0.723l-9.153-6.528l0.522-0.731l0.154,0.109l4.144,0.838l-2.105-3.73l-0.135-0.096l0.523-0.732
			l9.14,6.548L703.79,614.497z M705.976,611.366l-5.471-3.782l-1.763,0.969l-0.847-0.585l1.743-0.982l-2.911-2.012l0.505-0.73
			l3.28,2.268l1.753-0.975l0.857,0.592l-1.753,0.976l5.11,3.532L705.976,611.366z M709.206,606.623l-7.992-5.34l0.611,3.07
			l-0.984-0.657l-0.735-3.694l3.694-0.735l0.984,0.658l-3.087,0.614l8.002,5.347L709.206,606.623z M716.768,594.861l-5.371-3.347
			l-0.499,4.916l-6.02-3.737l0.475-0.763l4.749,2.959l-0.003-0.017l0.498-4.916l6.641,4.151L716.768,594.861z M719.914,589.667
			l-3.998-2.404l-4.151-0.84l-2.686,0.928l-0.073,0.121l8.979,5.402l-0.464,0.771l-9.64-5.798l0.684-1.137l3.149-1.077l4.477,0.896
			l4.119,2.479L719.914,589.667z M721.73,586.562l-5.755-3.336l-1.68,1.105l-0.891-0.517l1.659-1.117l-3.062-1.774l0.445-0.769
			l3.451,2.001l1.67-1.111l0.9,0.522l-1.67,1.111l5.375,3.116L721.73,586.562z M724.576,581.574l-8.388-4.683l0.853,3.01
			l-1.032-0.576l-1.027-3.622l3.622-1.027l1.033,0.577l-3.026,0.857l8.398,4.689L724.576,581.574z M730.165,571.231l-9.988-5.176
			l0.409-0.788l9.987,5.175L730.165,571.231z M732.908,565.843l-5.951-2.967l-1.607,1.208l-0.921-0.459l1.586-1.219l-3.166-1.579
			l0.396-0.794l3.569,1.779l1.597-1.214l0.932,0.465l-1.597,1.214l5.56,2.771L732.908,565.843z M738.727,553.644l-4.817,1.043
			l3.582,1.646l-0.371,0.807l-10.22-4.696l0.371-0.807l5.508,2.531l6.422-1.557L738.727,553.644z M741.319,547.801l-4.269-1.876
			l-4.223-0.304l-2.544,1.26l-0.058,0.13l9.588,4.214l-0.361,0.823l-10.292-4.523l0.533-1.213l2.984-1.468l4.552,0.32l4.398,1.933
			L741.319,547.801z M741.813,546.673l-10.365-4.363l0.345-0.818l0.011,0.005l3.752-3.237l0.96,0.404l-3.763,3.232l9.404,3.959
			L741.813,546.673z M745.75,537.14l-2.743-1.106l1.083,5.221l-10.422-4.204l4.401-3.008l-2.742-1.105l0.332-0.823l4.388,1.77
			l-4.401,3.009l7.131,2.876l-1.083-5.221l4.388,1.771L745.75,537.14z M746.285,535.792l-10.495-4.029l0.317-0.829l0.012,0.005
			l3.646-3.354l0.972,0.374l-3.656,3.349l1.889,0.726l3.665-3.371l0.864,0.356l-3.656,3.35l6.761,2.597L746.285,535.792z
			 M751.866,520.588l-5.306-1.849l-3.995,3.306l-1.326-5.108l0.016-0.045l0.292-0.838l10.611,3.696L751.866,520.588z
			 M753.787,514.82l-4.425-1.461l-4.229,0.098l-2.411,1.495l-0.045,0.135l9.938,3.282l-0.281,0.854l-10.669-3.523l0.415-1.258
			l2.83-1.743l4.559-0.114l4.56,1.506L753.787,514.82z M754.835,511.519l-10.727-3.349l0.265-0.847l10.727,3.349L754.835,511.519z
			 M762.21,484.517l-10.973-2.464l0.194-0.866l0.012,0.002l3.121-3.849l1.017,0.229l-3.133,3.846l9.957,2.236L762.21,484.517z
			 M764.37,474.584l-3.286,0.983l2.621,2.213l-0.21,1.008l-3.455-2.907l-3.724,1.11l-3.281-3.1l4.246-1.533l2.971,2.504l4.328-1.286
			L764.37,474.584z M765.529,468.646l-6.718,2.028l-0.717-2.548l-3.104,2.105l9.871,1.891l-0.169,0.884l-11.046-2.116l0.104-0.546
			l0.064-0.338l0.007-0.034l4.841-3.244l0.661,2.839l6.371-1.792L765.529,468.646z M766.563,462.857l-9.306-1.62l3.461,2.397
			l-4.07,1.076l9.303,1.632l-0.153,0.875l-11.076-1.931l0.155-0.887l0.187,0.033l4.099-1.036l-3.511-2.454l-0.163-0.028l0.155-0.886
			l11.073,1.954L766.563,462.857z M767.522,456.934l-3.062-0.488l-3.511,1.347l2.907,2.44l3.061,0.5l-0.115,0.725l-11.104-1.769
			l0.116-0.725l3.726-1.349l-3.123-2.438l0.002-0.012l0.117-0.736l11.104,1.769L767.522,456.934z M768.826,447.625l-11.147-1.406
			l0.111-0.88l11.147,1.406L768.826,447.625z M769.768,439.583l-2.94-0.324l2.454,4.736l-11.176-1.232l3.427-4.087l-2.94-0.324
			l0.097-0.883l4.706,0.519l-3.428,4.088l7.647,0.843l-2.455-4.736l4.706,0.52L769.768,439.583z M770.343,433.724l-6.302-0.596
			l1.75,4.622l-7.058-0.655l0.085-0.896l5.571,0.527l-0.011-0.014l-1.749-4.622l7.797,0.749L770.343,433.724z M770.84,427.655
			l-4.646-0.366l-4.087,1.102l-1.987,2.027l-0.012,0.142l10.438,0.823l-0.07,0.896l-11.205-0.884l0.104-1.321l2.335-2.367
			l4.403-1.196l4.788,0.378L770.84,427.655z M771.221,421.856l-3.094-0.195l-3.367,1.672l3.125,2.154l3.094,0.208l-0.047,0.732
			l-11.22-0.711l0.047-0.732l3.581-1.693l-3.339-2.133v-0.012l0.048-0.744l11.22,0.71L771.221,421.856z M771.721,410.11
			l-4.639,1.768l4.515,2.075l-0.023,0.722l-11.234-0.351l0.023-0.745l4.71-1.766l-4.586-2.065l0.024-0.745l11.234,0.362
			L771.721,410.11z M771.827,404.487l-3.043,1.581l2.988,1.683l-0.018,1.028l-3.938-2.207l-3.448,1.788l-3.804-2.43l3.883-2.301
			l3.387,1.902l4.009-2.074L771.827,404.487z"/>
	</g>
</g>
<path d="M400,788.5c-52.447,0-103.325-10.272-151.222-30.53c-46.262-19.567-87.81-47.58-123.489-83.259
	s-63.691-77.227-83.258-123.488C21.772,503.325,11.5,452.447,11.5,400c0-52.447,10.272-103.325,30.531-151.222
	c19.567-46.263,47.58-87.81,83.258-123.489c35.679-35.679,77.227-63.691,123.489-83.258C296.675,21.772,347.553,11.5,400,11.5
	c52.447,0,103.325,10.272,151.223,30.531c46.262,19.567,87.81,47.58,123.488,83.258c35.679,35.679,63.691,77.227,83.259,123.489
	C778.228,296.675,788.5,347.553,788.5,400c0,52.447-10.272,103.325-30.53,151.223c-19.567,46.262-47.58,87.81-83.259,123.488
	s-77.227,63.691-123.488,83.259C503.325,778.228,452.447,788.5,400,788.5z M400,13.5C186.883,13.5,13.5,186.883,13.5,400
	c0,213.117,173.383,386.5,386.5,386.5c213.117,0,386.5-173.383,386.5-386.5C786.5,186.883,613.117,13.5,400,13.5z"/>
<path d="M400,783.282c-51.742,0-101.938-10.134-149.191-30.121c-45.641-19.304-86.631-46.939-121.831-82.14
	c-35.2-35.199-62.835-76.189-82.14-121.83C26.852,501.938,16.718,451.742,16.718,400s10.134-101.937,30.121-149.191
	c19.305-45.641,46.94-86.63,82.14-121.83s76.189-62.836,121.831-82.141C298.063,26.852,348.258,16.718,400,16.718
	s101.938,10.134,149.191,30.121c45.641,19.305,86.631,46.941,121.83,82.141c35.2,35.2,62.836,76.189,82.14,121.83
	c19.987,47.254,30.121,97.449,30.121,149.191s-10.134,101.938-30.121,149.191c-19.304,45.641-46.939,86.631-82.14,121.83
	c-35.199,35.2-76.189,62.836-121.83,82.14C501.938,773.148,451.742,783.282,400,783.282z M400,18.718
	C189.76,18.718,18.718,189.76,18.718,400c0,210.239,171.042,381.282,381.282,381.282c210.239,0,381.282-171.043,381.282-381.282
	C781.282,189.76,610.239,18.718,400,18.718z"/>
<path d="M400,754.587c-47.869,0-94.306-9.375-138.021-27.865c-42.224-17.859-80.145-43.427-112.709-75.99
	c-32.564-32.564-58.131-70.485-75.99-112.71C54.789,494.306,45.413,447.868,45.413,400s9.375-94.306,27.866-138.021
	c17.859-42.224,43.426-80.145,75.99-112.709c32.564-32.564,70.485-58.131,112.709-75.991C305.694,54.789,352.131,45.413,400,45.413
	c47.868,0,94.306,9.375,138.021,27.866c42.225,17.859,80.146,43.426,112.71,75.991c32.563,32.564,58.131,70.485,75.99,112.709
	c18.49,43.716,27.865,90.153,27.865,138.021c0,47.868-9.375,94.306-27.865,138.021c-17.859,42.225-43.427,80.146-75.99,112.71
	c-32.564,32.563-70.485,58.131-112.71,75.99C494.306,745.212,447.868,754.587,400,754.587z M400,47.413
	C205.583,47.413,47.413,205.583,47.413,400S205.583,752.587,400,752.587S752.587,594.417,752.587,400S594.417,47.413,400,47.413z"/>
<path d="M400,751.108c-47.399,0-93.381-9.283-136.667-27.592c-41.81-17.685-79.359-43-111.604-75.245
	c-32.245-32.245-57.561-69.794-75.245-111.604C58.175,493.381,48.892,447.399,48.892,400c0-47.399,9.283-93.38,27.592-136.667
	c17.684-41.81,43-79.359,75.245-111.604c32.245-32.245,69.793-57.561,111.604-75.245C306.619,58.175,352.601,48.892,400,48.892
	c47.399,0,93.381,9.283,136.668,27.592c41.81,17.684,79.358,43,111.604,75.245c32.245,32.245,57.561,69.793,75.245,111.604
	c18.309,43.287,27.592,89.269,27.592,136.667c0,47.399-9.283,93.381-27.592,136.668c-17.685,41.81-43,79.358-75.245,111.604
	s-69.794,57.561-111.604,75.245C493.381,741.825,447.399,751.108,400,751.108z M400,50.892
	C207.501,50.892,50.892,207.501,50.892,400S207.501,749.108,400,749.108S749.108,592.499,749.108,400S592.499,50.892,400,50.892z"/>
<path d="M575.66,704H224.34l-0.289-0.5L48.679,400l0.289-0.5L224.34,96h351.32l0.289,0.5L751.321,400l-0.289,0.5L575.66,704z
	 M225.494,702h349.012l174.505-302L574.506,98H225.494L50.989,400L225.494,702z"/>
<path d="M400,703.282c-81.01,0-157.17-31.547-214.453-88.829C128.265,557.171,96.718,481.01,96.718,400
	c0-81.009,31.547-157.17,88.829-214.453C242.83,128.265,318.99,96.718,400,96.718s157.171,31.547,214.453,88.83
	C671.735,242.83,703.282,318.991,703.282,400c0,81.01-31.547,157.171-88.829,214.453S481.01,703.282,400,703.282z M400,98.718
	C233.873,98.718,98.718,233.873,98.718,400c0,166.128,135.155,301.282,301.282,301.282c166.128,0,301.282-135.154,301.282-301.282
	C701.282,233.873,566.128,98.718,400,98.718z"/>
<path d="M400,699.804c-80.081,0-155.368-31.185-211.993-87.811C131.381,555.368,100.196,480.081,100.196,400
	c0-80.081,31.185-155.368,87.811-211.993S319.919,100.196,400,100.196c80.081,0,155.368,31.185,211.993,87.811
	c56.626,56.625,87.811,131.913,87.811,211.993c0,80.081-31.185,155.368-87.811,211.993C555.368,668.619,480.081,699.804,400,699.804
	z M400,102.196c-164.209,0-297.804,133.594-297.804,297.804c0,164.21,133.594,297.804,297.804,297.804
	c164.21,0,297.804-133.594,297.804-297.804C697.804,235.791,564.21,102.196,400,102.196z"/>
<path d="M660.526,550H139.474l0.866-1.5L400,98.756L660.526,550z M142.938,548h514.124L400,102.756L142.938,548z"/>
<path d="M400,700.244L139.474,249h521.052L400,700.244z M142.938,251L400,696.244L657.062,251H142.938z"/>
</svg>
