<?xml version="1.0" encoding="iso-8859-1"?>
<!-- Generator: Adobe Illustrator 15.0.0, SVG Export Plug-In . SVG Version: 6.00 Build 0)  -->
<!DOCTYPE svg PUBLIC "-//W3C//DTD SVG 1.1//EN" "http://www.w3.org/Graphics/SVG/1.1/DTD/svg11.dtd">
<svg version="1.1" id="&#x30EC;&#x30A4;&#x30E4;&#x30FC;_1"
	 xmlns="http://www.w3.org/2000/svg" xmlns:xlink="http://www.w3.org/1999/xlink" x="0px" y="0px" width="800px" height="800px"
	 viewBox="0 0 800 800" style="enable-background:new 0 0 800 800;" xml:space="preserve">
<circle style="fill:none;stroke:#000000;stroke-width:6;stroke-miterlimit:10;" cx="400" cy="400" r="370"/>
<circle style="fill:none;stroke:#000000;stroke-width:2;stroke-miterlimit:10;" cx="400" cy="400" r="363.044"/>
<g>
	<g>
		<path d="M630.429,119.834l6.656,5.378l-0.368,0.457c0,0-1.902-1.537-3.07-0.091l-26.121,32.334
			c-1.168,1.446,0.765,2.944,0.765,2.944l-0.368,0.457l-4.756-3.841l-7.072-17.47l2.305-2.853l0.456,0.369
			c-0.952,1.179-1.441,2.796-0.858,4.021l6.092,14.792l26.706-33.057c1.168-1.445-0.734-2.982-0.734-2.982L630.429,119.834z"/>
		<path d="M597.844,116.813l-2.616,14.075l-16.337,9.145l2.704-15.145l13.239-7.424l3.539-20.04
			c-0.324-0.82-1.128-1.377-1.128-1.377l0.362-0.522l5.546,3.845l-0.362,0.522c0,0-0.844-0.585-1.726-0.601l-3.011,16.36
			l14.67-8.456c-0.213-0.981-1.413-1.396-1.413-1.396l0.362-0.522l4.02,2.786l-0.402,0.495c0,0-0.736-0.569-1.59-0.625
			L597.844,116.813z M584.483,124.153l-2.393,12.98l10.074-5.691l2.338-12.899L584.483,124.153z"/>
		<path d="M573.822,81.967l0.298-0.506l1.56,0.918l-1.236,29.757l-16.448,2.289l7.962,14.625l21.673-36.792
			c0.943-1.602-1.164-2.843-1.164-2.843l0.298-0.506l2.107,1.241l3.161,1.862l2.107,1.241l-0.298,0.505c0,0-2.023-1.191-3.001,0.276
			l-21.334,36.312c-0.425,1.396,1.346,2.439,1.346,2.439l-0.298,0.506l-2.065-1.217l-3.118-1.837l-0.151-0.032l-9.213-16.838
			l17.287-2.362l1.363-27.468C574.557,82.456,574.202,82.19,573.822,81.967z"/>
		<path d="M535.104,113.841l-5.482-2.705l0.26-0.526c0,0,1.842,0.909,2.776-0.211l18.63-37.649c0.822-1.667-1.37-2.748-1.37-2.748
			l0.26-0.526l7.674,3.787l-0.26,0.526c0,0-2.192-1.082-3.015,0.584l-17.763,36.223l11.618-11.281l-1.86,16.149l17.872-36.223
			c0.822-1.667-1.37-2.748-1.37-2.748l0.26-0.526l7.674,3.787l-0.26,0.526c0,0-2.192-1.082-3.015,0.585l-18.542,37.692
			c-0.32,1.423,1.521,2.332,1.521,2.332l-0.26,0.526l-5.482-2.705l0.238-0.482l2.143-16.719l-12.031,11.895L535.104,113.841z"/>
		<path d="M513.612,104.699l-5.714-2.309l0.238-0.59c0,0,1.769,0.715,2.771-0.199l15.751-39.109c0.696-1.723-1.571-2.64-1.571-2.64
			l0.221-0.544l7.936,3.207l-0.22,0.544c0,0-2.222-0.898-2.919,0.825l-3.71,9.052l-0.594,16.22l10.797-12.097l3.665-9.07
			c0.697-1.723-1.57-2.64-1.57-2.64l0.22-0.544l7.936,3.207l-0.22,0.544c0,0-2.222-0.898-2.918,0.826l-15.724,38.909
			c0.013,1.535,1.69,2.213,1.69,2.213l-0.238,0.589l-5.669-2.291l0.822-16.655L513.612,104.699z M515.042,101.162l9.429-10.539
			l0.55-14.286L515.042,101.162z M525.695,91.118l-0.531,14.24l10.079-24.942L525.695,91.118z"/>
		<path d="M473.652,89.783l9.753-40.414c0.437-1.807-1.94-2.381-1.94-2.381l0.138-0.57l8.32,2.008l-0.138,0.571
			c0,0-2.377-0.574-2.813,1.233l-9.753,40.415c-0.437,1.807,1.94,2.38,1.94,2.38l-0.138,0.571l-8.32-2.008l0.138-0.57
			C470.839,91.016,473.216,91.59,473.652,89.783z"/>
		<path d="M442.911,86.443l-2.414-0.396l0.096-0.579c0,0,2.413,0.396,2.714-1.438l2.178-13.272l14.365,14.549l6.264-38.176
			l-18.205,9.156l2.178-13.272c0.302-1.834-2.111-2.23-2.111-2.23l0.095-0.579l8.446,1.386l-0.096,0.579
			c0,0-2.413-0.396-2.714,1.438l-1.584,9.653l18.293-9.389l-7.325,44.644l-0.198,1.207l-14.333-14.742l-1.979,12.065l-3.62-0.594
			L442.911,86.443z"/>
		<path d="M421.346,38.253l0.053-0.585l8.526,0.761l-0.053,0.584c0,0-2.436-0.217-2.552,1.638l-2.115,23.139l15.321-6.588
			l-2.335,26.163c-0.166,1.852,2.274,2.021,2.274,2.021l-0.052,0.584l-8.526-0.761l0.053-0.584c0,0,2.432,0.266,2.597-1.585
			l2.014-22.558l-15.325,6.637l2.392-26.796C423.782,38.47,421.346,38.253,421.346,38.253z"/>
		<path d="M394.667,37.725l0.01-0.636l4.891,0.079l-0.06,0.635c0,0-1.173-0.019-1.77,0.558l-0.301,18.535l4.956,17.153l8.038,8.104
			l0.687-42.352c0.03-1.858-2.366-1.848-2.366-1.848l0.01-0.636l8.51,0.138l-0.011,0.636c0,0-2.446,0.009-2.475,1.77l-0.625,41.57
			c-0.03,1.858,2.415,1.898,2.415,1.898l-0.01,0.587l-6.113-0.099l-9.146-9.101l-5.094-17.693l0.304-18.73
			C395.792,37.743,394.667,37.725,394.667,37.725z"/>
		<path d="M376.871,84.521l-6.152,0.344l-0.036-0.635c0,0,1.904-0.106,2.422-1.36l-2.403-42.087
			c-0.104-1.855-2.545-1.719-2.545-1.719l-0.033-0.586l8.545-0.478l0.033,0.586c0,0-2.393,0.134-2.289,1.989l0.498,9.769
			l6.37,14.925l4.617-15.54l-0.546-9.766c-0.104-1.855-2.545-1.719-2.545-1.719l-0.033-0.586l8.545-0.478l0.033,0.586
			c0,0-2.393,0.134-2.289,1.989l2.344,41.895c0.665,1.383,2.472,1.282,2.472,1.282l0.036,0.635l-6.104,0.341l-6.349-15.417
			L376.871,84.521z M376.658,80.713l4.042-13.549l-5.585-13.157L376.658,80.713z M382.019,67.09l5.582,13.108l-1.502-26.855
			L382.019,67.09z"/>
		<path d="M331.22,91.129l-6.037,1.234l-0.118-0.575c0,0,2.444-0.5,2.071-2.32l-8.327-40.726c-0.372-1.821-2.816-1.321-2.816-1.321
			l-0.117-0.575l6.037-1.234l9.53,19.266l1.203-21.46l6.037-1.234l0.118,0.575c0,0-2.396,0.49-2.023,2.311l8.327,40.726
			c0.362,1.772,2.768,1.331,2.768,1.331l0.117,0.575l-6.037,1.234l-9.579-19.505L331.22,91.129z M322.776,49.829l7.435,36.366
			l1.07-18.937L322.776,49.829z M332.479,67.012L340.943,84l-7.396-36.174L332.479,67.012z"/>
		<path d="M307.236,67.174l9.204,10.966l-3.323,18.426l-9.974-11.714l2.683-14.94l-13.224-15.47c-0.839-0.271-1.78-0.004-1.78-0.004
			l-0.173-0.612l6.494-1.838l0.173,0.612c0,0-0.988,0.28-1.561,0.95l10.717,12.723l2.795-16.701
			c-0.893-0.459-1.976,0.203-1.976,0.203l-0.173-0.611l4.706-1.333l0.126,0.625c0,0-0.907,0.206-1.494,0.829L307.236,67.174z
			 M304.412,82.155l8.5,10.098l2.01-11.396l-8.474-10.003L304.412,82.155z"/>
		<path d="M278.646,58.052l8.041-2.938l0.201,0.551c0,0-2.297,0.839-1.659,2.585l14.267,39.053c0.638,1.746,2.918,0.861,2.918,0.861
			l0.201,0.551l-5.743,2.098l-18.622-2.935l-1.259-3.446l0.551-0.202c0.521,1.424,1.655,2.676,3.005,2.808l15.821,2.396
			L281.782,59.51c-0.638-1.746-2.935-0.906-2.935-0.906L278.646,58.052z"/>
		<path d="M259.298,84.442l10.73,9.481l-0.554,18.719l-11.604-10.107l0.438-15.176l-15.375-13.341
			c-0.87-0.143-1.762,0.26-1.762,0.26l-0.262-0.579l6.151-2.782l0.262,0.579c0,0-0.936,0.423-1.403,1.171l12.488,10.995
			l0.288-16.934c-0.951-0.322-1.924,0.494-1.924,0.494l-0.262-0.58l4.457-2.016l0.217,0.6c0,0-0.867,0.338-1.354,1.042
			L259.298,84.442z M258.727,99.679l9.906,8.727l0.297-11.57l-9.866-8.638L258.727,99.679z"/>
		<path d="M217.046,87.146l-0.281-0.515l1.589-0.866l24.897,16.348l-6.487,15.29l16.639,0.682l-20.434-37.499
			c-0.89-1.632-3.037-0.462-3.037-0.462l-0.281-0.515l2.148-1.17l3.221-1.756l2.148-1.17l0.281,0.516c0,0-2.062,1.124-1.305,2.717
			l20.197,36.959c0.979,1.082,2.783,0.099,2.783,0.099l0.281,0.516l-2.104,1.147l-3.179,1.732l-0.105,0.113l-19.18-0.746
			l6.854-16.047l-22.867-15.281C217.842,86.768,217.433,86.935,217.046,87.146z"/>
		<path d="M173.532,117.103l-0.353-0.469l6.841-5.143l0.353,0.469c0,0-1.955,1.469-0.799,2.925l13.921,18.599l6.967-15.149
			l15.782,20.993c1.117,1.486,3.042-0.023,3.042-0.023l0.353,0.469l-6.841,5.143l-0.353-0.469c0,0,1.984-1.43,0.867-2.916
			l-13.607-18.1l-6.938,15.188l-16.164-21.501C175.487,115.633,173.532,117.103,173.532,117.103z"/>
		<path d="M189.256,160.842l-27.354-31.31c-1.223-1.4-3.064,0.209-3.064,0.209l-0.386-0.442l6.446-5.631l0.386,0.442
			c0,0-1.842,1.609-0.619,3.009l27.354,31.31c1.223,1.399,3.064-0.209,3.064-0.209l0.386,0.442l-6.446,5.632l-0.386-0.442
			C188.637,163.851,190.479,162.241,189.256,160.842z"/>
		<path d="M175.188,177.484l-15.563,0.092l-1.74-1.719l13.003-0.077l-28.284-27.95c-1.322-1.306-3.075,0.468-3.075,0.468
			l-0.417-0.413l6.05-6.123l0.417,0.413c0,0-1.719,1.739-0.396,3.045l28.11,27.778l-0.808-13.657l1.739,1.719L175.188,177.484z"/>
		<path d="M110.073,182.942l-0.473-0.348l5.1-6.934l0.473,0.348c0,0-1.449,1.97,0.048,3.071l33.488,24.63
			c1.458,1.072,2.907-0.898,2.907-0.898l0.473,0.348l-3.651,4.964l-17.104,7.819l-3.428-2.521l0.348-0.473
			c1.103,0.811,3.663,1.541,4.5,1.063l14.581-6.7l-10.204-7.505l-17.104,7.819l-3.467-2.55l0.348-0.473
			c1.064,0.782,3.731,1.53,4.568,1.053l14.609-6.74l-23.008-16.922c-1.498-1.101-2.975,0.908-2.975,0.908L110.073,182.942z"/>
		<path d="M129.178,236.486l-3.276,5.22l-0.539-0.338c0,0,1.014-1.615,0.29-2.763l-35.736-22.371
			c-1.574-0.988-2.875,1.083-2.875,1.083l-0.497-0.312l4.55-7.25l0.497,0.312c0,0-1.274,2.03,0.3,3.018l8.259,5.242l15.864,3.431
			l-10.014-12.752l-8.285-5.2c-1.574-0.988-2.875,1.083-2.875,1.083l-0.497-0.312l4.55-7.25l0.497,0.312c0,0-1.274,2.03,0.3,3.018
			l35.545,22.309c1.513,0.257,2.475-1.276,2.475-1.276l0.539,0.338l-3.25,5.178l-16.252-3.732L129.178,236.486z M125.947,234.458
			l-8.72-11.132l-13.967-3.049L125.947,234.458z M117.929,222.208l13.925,3.023l-22.785-14.3L117.929,222.208z"/>
		<path d="M117.788,256.866l-2.859,5.403l-0.519-0.274c0,0,0.96-1.815-0.133-2.781l-37.11-19.691
			c-1.643-0.869-2.786,1.292-2.786,1.292l-0.519-0.274l4.003-7.565l0.519,0.274c0,0-1.144,2.162,0.499,3.031l35.709,18.784
			l-10.948-11.935l16.092,2.318l-35.707-18.893c-1.643-0.869-2.786,1.292-2.786,1.292l-0.519-0.275l4.002-7.565l0.519,0.275
			c0,0-1.144,2.161,0.499,3.03l37.156,19.604c1.414,0.361,2.374-1.455,2.374-1.455l0.519,0.274l-2.859,5.403l-0.475-0.251
			l-16.654-2.615l11.551,12.364L117.788,256.866z"/>
		<path d="M110.182,273.029l-14.492,5.668l-2.24-0.98l12.108-4.736L69.137,257.04c-1.702-0.745-2.702,1.54-2.702,1.54l-0.538-0.235
			l3.451-7.885l0.538,0.235c0,0-0.98,2.24,0.722,2.985l36.198,15.843l-5.652-12.456l2.24,0.98L110.182,273.029z"/>
		<path d="M44.479,327.369l1.626-8.403l0.625,0.121c0,0-0.465,2.401,1.36,2.754l40.769,7.889c1.825,0.353,2.29-2.048,2.29-2.048
			l0.576,0.112l-1.626,8.403l-0.576-0.112c0,0,0.465-2.401-1.36-2.754l-22.905-4.433L41.812,341.15l0.808-4.178l0.625,0.121
			c-0.093,0.48-0.307,1.585,0.51,1.743l19.628-10.3l-15.99-3.095c-1.825-0.353-2.29,2.048-2.29,2.048L44.479,327.369z"/>
		<path d="M57.159,357.56l13.654-4.301l15.747,10.128l-14.64,4.726l-12.773-8.202L39.792,366.2
			c-0.571,0.671-0.686,1.643-0.686,1.643l-0.631-0.074l0.79-6.703l0.631,0.074c0,0-0.121,1.02,0.279,1.806l15.857-5.025
			l-14.355-8.979c-0.766,0.648-0.569,1.903-0.569,1.903l-0.631-0.074l0.572-4.857l0.625,0.123c0,0-0.157,0.917,0.194,1.697
			L57.159,357.56z M69.914,365.907l12.583-3.983l-9.756-6.221l-12.486,3.995L69.914,365.907z"/>
		<path d="M66.597,382.947l15.048,0.658c1.857,0.081,1.963-2.362,1.963-2.362l0.586,0.026l-0.374,8.55l-0.586-0.026
			c0,0,0.107-2.443-1.75-2.524l-16.661-0.729l-3.917,7.857c0.221,0.548,1.295,0.595,1.295,0.595l-0.025,0.586l-4.3-0.188
			l0.026-0.586c0.733,0.032,1.23-0.142,1.689-0.563l3.913-7.759l-23.55-1.03c-1.856-0.081-1.915,2.364-1.915,2.364l-0.635-0.028
			l0.374-8.55l0.635,0.028c0,0-0.156,2.441,1.701,2.522l25.211,1.103l3.864-7.761c-0.077-0.493-0.508-0.708-1.192-0.738l0.026-0.586
			l4.25,0.186l-0.025,0.586c-0.538-0.023-1.275,0.042-1.681,0.367L66.597,382.947z"/>
		<path d="M38.287,421.844l-0.587,0.018l-0.246-8.556l0.587-0.018c0,0,0.07,2.444,1.926,2.343l23.224-0.618l-8.341-14.439
			l26.253-0.754c1.858-0.053,1.739-2.496,1.739-2.496l0.586-0.017l0.246,8.556l-0.586,0.017c0,0-0.021-2.446-1.879-2.393
			l-22.636,0.649l8.39,14.438l-26.889,0.771C38.216,419.399,38.287,421.844,38.287,421.844z"/>
		<path d="M85.866,437.721l0.62,6.082l-0.584,0.06c0,0-0.208-2.044-1.654-2.24l-41.804,4.211c-1.849,0.188-1.602,2.621-1.602,2.621
			l-0.584,0.06l-0.868-8.516l0.584-0.06c0,0,0.248,2.434,2.097,2.245l40.135-4.188l-15.732-3.854l14.675-7.002l-40.193,4.097
			c-1.849,0.188-1.601,2.621-1.601,2.621l-0.584,0.06l-0.868-8.516l0.584-0.06c0,0,0.248,2.433,2.097,2.244l41.794-4.308
			c1.376-0.485,1.168-2.528,1.168-2.528l0.584-0.06l0.62,6.082l-0.535,0.055l-15.308,7.066l16.472,3.877L85.866,437.721z"/>
		<path d="M42.226,460.479l-1.495-8.428l0.626-0.111c0,0,0.427,2.408,2.257,2.083l40.885-7.254c1.83-0.325,1.403-2.733,1.403-2.733
			l0.578-0.102l1.496,8.427l-0.578,0.103c0,0-0.427-2.407-2.257-2.083l-22.971,4.076l-17.491,19.843l-0.744-4.189l0.626-0.111
			c0.085,0.482,0.282,1.59,1.101,1.444l14.629-16.653l-16.036,2.846c-1.83,0.324-1.403,2.732-1.403,2.732L42.226,460.479z"/>
		<path d="M93.423,478.207l-7.941,13.386l-2.37,0.605l6.635-11.185l-38.531,9.837c-1.801,0.46-1.184,2.877-1.184,2.877l-0.568,0.146
			l-2.13-8.342l0.569-0.145c0,0,0.605,2.369,2.406,1.909l38.294-9.776l-12.121-6.346l2.37-0.605L93.423,478.207z"/>
		<path d="M101.739,505.774l1.947,5.795l-0.556,0.187c0,0-0.654-1.946-2.107-1.819l-39.836,13.336
			c-1.761,0.593-0.982,2.91-0.982,2.91l-0.556,0.187l-2.727-8.112l0.556-0.187c0,0,0.779,2.317,2.541,1.726l38.213-12.945
			l-16.192-0.285l12.765-10.068l-38.291,12.869c-1.761,0.592-0.982,2.909-0.982,2.909l-0.556,0.188l-2.727-8.112l0.557-0.188
			c0,0,0.779,2.318,2.54,1.727l39.805-13.43c1.235-0.776,0.581-2.723,0.581-2.723l0.556-0.188l1.947,5.795l-0.51,0.171
			l-13.367,10.271l16.919,0.144L101.739,505.774z"/>
		<path d="M108.235,522.43l-5.871,14.412l-2.254,0.949l4.906-12.043l-36.646,15.433c-1.713,0.722-0.745,3.021-0.745,3.021
			l-0.541,0.228l-3.341-7.934l0.541-0.228c0,0,0.949,2.254,2.662,1.532l36.42-15.337l-12.925-4.48l2.253-0.949L108.235,522.43z"/>
		<path d="M82.567,574.817l-0.566,0.289l-2.228-4.354l0.588-0.246c0,0,0.535,1.045,1.325,1.301l16.505-8.443l12.815-12.435
			l3.378-10.904L76.67,559.317c-1.655,0.847-0.52,2.958-0.52,2.958l-0.566,0.289l-3.876-7.577l0.566-0.289
			c0,0,1.158,2.154,2.726,1.353l36.994-18.979c1.655-0.847,0.541-3.024,0.541-3.024l0.522-0.267l2.785,5.443l-3.737,12.351
			l-13.227,12.811l-16.679,8.532C82.055,573.815,82.567,574.817,82.567,574.817z"/>
		<path d="M96.281,597.721l-0.501,0.305l-0.941-1.546l15.135-25.649l15.582,5.746l-0.116-16.65l-36.473,22.206
			c-1.587,0.966-0.316,3.055-0.316,3.055l-0.501,0.306l-1.272-2.089l-1.908-3.134l-1.272-2.089l0.501-0.305
			c0,0,1.221,2.005,2.776,1.173l35.946-21.942c1.034-1.03-0.035-2.785-0.035-2.785l0.501-0.305l1.246,2.047l1.882,3.092l0.118,0.1
			l0.174,19.192l-16.355-6.077l-14.167,23.572C95.865,596.943,96.052,597.345,96.281,597.721z"/>
		<path d="M118.993,628.475l-0.452,0.375l-5.495-6.626l0.452-0.374c0,0,1.561,1.882,2.991,0.695l31.997-26.536
			c1.393-1.155-0.168-3.037-0.168-3.037l0.452-0.375l3.934,4.743l3.45,18.486l-3.275,2.716l-0.375-0.451
			c1.054-0.875,2.38-3.182,2.12-4.109l-2.975-15.768l-9.75,8.086l3.45,18.486l-3.313,2.747l-0.375-0.451
			c1.016-0.844,2.387-3.251,2.126-4.178l-3.006-15.806L118.8,625.331c-1.431,1.187,0.162,3.105,0.162,3.105L118.993,628.475z"/>
		<path d="M175.552,622.929l4.272,4.443l-0.423,0.406c0,0-1.729-1.798-3.069-0.51l-29.974,28.819
			c-1.34,1.288,0.389,3.087,0.389,3.087l-0.423,0.406l-4.272-4.442l11.189-18.359l-18.784,10.46l-4.272-4.443l0.423-0.406
			c0,0,1.695,1.763,3.036,0.475l29.973-28.819c1.305-1.255-0.355-3.052-0.355-3.052l0.423-0.406l4.272,4.442l-11.366,18.529
			L175.552,622.929z M154.492,634.763l9.833-16.241l-26.624,25.599L154.492,634.763z M145.155,652.154l26.765-25.733l-16.58,9.224
			L145.155,652.154z"/>
		<path d="M188.238,638.255l-27.782,30.934c-1.242,1.383,0.578,3.017,0.578,3.017l-0.393,0.437l-6.369-5.72l0.393-0.437
			c0,0,1.819,1.635,3.062,0.251l27.782-30.933c1.242-1.383-0.578-3.018-0.578-3.018l0.392-0.437l6.369,5.72l-0.392,0.437
			C191.299,638.506,189.479,636.872,188.238,638.255z"/>
		<path d="M213.72,655.84l1.934,1.496l-0.359,0.465c0,0-1.934-1.496-3.071-0.026l-8.229,10.638l-5.713-19.63l-23.669,30.597
			l20.367,0.607l-8.229,10.637c-1.137,1.47,0.797,2.966,0.797,2.966l-0.359,0.465l-6.77-5.236l0.359-0.465
			c0,0,1.934,1.496,3.071,0.026l5.985-7.736l-20.555-0.443l27.678-35.78l0.748-0.967l5.594,19.784l7.48-9.67l2.901,2.244
			L213.72,655.84z"/>
		<path d="M225.593,666.866l-22.944,34.668c-1.026,1.551,1.013,2.9,1.013,2.9l-0.324,0.489l-7.138-4.724l0.324-0.49
			c0,0,2.04,1.35,3.065-0.2l22.944-34.668c1.025-1.55-1.014-2.9-1.014-2.9l0.324-0.489l7.138,4.724l-0.324,0.49
			C228.658,666.666,226.618,665.316,225.593,666.866z"/>
		<path d="M233.022,721.686l-0.287,0.513l-7.466-4.185l0.287-0.512c0,0,2.133,1.195,2.999-0.45l11.4-20.241l-16.673-0.262
			l12.84-22.91c0.909-1.621-1.249-2.774-1.249-2.774l0.287-0.512l7.466,4.185l-0.287,0.512c0,0-2.109-1.238-3.018,0.383
			l-11.07,19.754l16.696,0.219l-13.15,23.465C230.889,720.49,233.022,721.686,233.022,721.686z"/>
		<path d="M266.695,689.652l-17.587,37.665c-0.786,1.684,1.43,2.718,1.43,2.718l-0.249,0.532l-7.754-3.621l0.248-0.532
			c0,0,2.216,1.035,3.002-0.648l17.587-37.665c0.786-1.684-1.429-2.719-1.429-2.719l0.248-0.531l7.754,3.621l-0.248,0.531
			C269.697,689.003,267.481,687.969,266.695,689.652z"/>
		<path d="M268.214,738.116l-8.003-3.036l0.226-0.594c0,0,2.287,0.867,2.946-0.87l14.729-38.826
			c0.659-1.737-1.627-2.604-1.627-2.604l0.208-0.549l8.003,3.036l-0.208,0.549c0,0-2.286-0.868-2.946,0.87l-8.275,21.813
			l8.072,25.19l-3.979-1.509l0.226-0.595c0.458,0.173,1.509,0.572,1.804-0.205l-6.8-21.099l-5.777,15.229
			c-0.659,1.737,1.627,2.605,1.627,2.605L268.214,738.116z"/>
		<path d="M310.724,706.107l-11.816,39.856c-0.528,1.782,1.816,2.477,1.816,2.477l-0.167,0.563l-8.206-2.433l0.167-0.563
			c0,0,2.345,0.695,2.873-1.086l11.815-39.857c0.528-1.781-1.816-2.477-1.816-2.477l0.167-0.563l8.206,2.433l-0.167,0.563
			C313.597,705.021,311.252,704.325,310.724,706.107z"/>
		<path d="M326.748,725.778l3.196-14.72c0.394-1.815-1.996-2.335-1.996-2.335l0.125-0.573l8.363,1.816l-0.125,0.573
			c0,0-2.39-0.519-2.784,1.297l-3.538,16.297l7.08,5.19c0.578-0.125,0.806-1.177,0.806-1.177l0.573,0.125l-0.913,4.205l-0.573-0.124
			c0.155-0.717,0.068-1.236-0.269-1.76l-6.985-5.17l-5.001,23.035c-0.395,1.816,2.005,2.287,2.005,2.287l-0.135,0.621l-8.363-1.815
			l0.135-0.621c0,0,2.379,0.566,2.773-1.25l5.354-24.66l-6.995-5.121c-0.499-0.009-0.783,0.38-0.929,1.049l-0.573-0.124l0.902-4.158
			l0.574,0.125c-0.114,0.525-0.174,1.263,0.077,1.718L326.748,725.778z"/>
		<path d="M364.95,715.582l-6.332,10.618l2.259,10.64l-4.714,10.351l2.657,12.374c0.624,0.483,1.537,0.661,1.537,0.661l-0.082,0.581
			l-7.265-1.021l0.082-0.581c0,0,1.218,0.121,2.039-0.455l-4.181-19.799l-10.59,17.724c0.631,0.78,1.835,0.999,1.835,0.999
			l-0.082,0.581l-4.843-0.681l0.082-0.581c0,0,0.927,0.08,1.715-0.253l6.256-10.431l-2.447-11.407l4.934-10.863l-2.314-10.943
			c-0.631-0.78-1.842-0.95-1.842-0.95l0.082-0.581l7.265,1.021l-0.082,0.581c0,0-1.211-0.17-2.032,0.406l4.25,19.66l10.521-17.585
			c-0.631-0.78-1.842-0.95-1.842-0.95l0.082-0.581l4.843,0.681l-0.082,0.581C366.658,715.378,365.738,715.249,364.95,715.582z
			 M350.621,737.423l-2.427-11.552l-2.842,6.169l2.237,10.439L350.621,737.423z M356.303,730.023l-2.839,4.737l2.314,10.598
			l2.629-5.705L356.303,730.023z"/>
		<path d="M406.306,716.229l6.113-0.1l0.01,0.587c0,0-2.055,0.033-2.374,1.457l0.633,42.01c0.03,1.858,2.476,1.818,2.476,1.818
			l0.01,0.587l-8.559,0.14l-0.01-0.587c0,0,2.445-0.04,2.415-1.898l-0.752-40.345l-5.181,15.347l-5.726-15.219l0.656,40.396
			c0.03,1.858,2.475,1.818,2.475,1.818l0.01,0.587l-8.559,0.139l-0.009-0.587c0,0,2.445-0.039,2.415-1.897l-0.73-42.009
			c-0.365-1.412-2.419-1.379-2.419-1.379l-0.009-0.587l6.113-0.099l0.009,0.537l5.736,15.854l5.267-16.082L406.306,716.229z"/>
		<path d="M424.924,761.902l-8.534,0.656l-0.045-0.585c0,0,2.438-0.188,2.296-2.041l-3.19-41.451
			c-0.143-1.854-2.577-1.617-2.577-1.617l-0.045-0.585l6.096-0.47l17.137,7.854l0.281,3.658l-0.585,0.045
			c-0.117-1.512-0.871-3.023-2.135-3.516l-14.586-6.579l3.262,42.379c0.143,1.854,2.581,1.666,2.581,1.666L424.924,761.902z"/>
		<path d="M449.791,714.903l6.238,41.102c0.279,1.838,2.697,1.471,2.697,1.471l0.088,0.58l-8.462,1.285l-0.089-0.581
			c0,0,2.418-0.366,2.14-2.204l-6.239-41.102c-0.278-1.838-2.696-1.471-2.696-1.471l-0.088-0.58l8.462-1.284l0.088,0.58
			C451.93,712.699,449.512,713.065,449.791,714.903z"/>
		<path d="M470.56,708.418l13.184,8.273l0.546,2.385l-11.016-6.914l8.87,38.768c0.414,1.812,2.847,1.255,2.847,1.255l0.131,0.572
			l-8.393,1.92l-0.131-0.571c0,0,2.384-0.546,1.97-2.358l-8.815-38.528l-6.647,11.959l-0.546-2.385L470.56,708.418z"/>
		<path d="M566.315,722.032l0.253,0.529l-7.72,3.693l-0.253-0.529c0,0,2.206-1.056,1.359-2.711l-9.979-20.975l-9.815,13.478
			l-11.332-23.689c-0.802-1.676-2.986-0.577-2.986-0.577l-0.253-0.529l7.72-3.692l0.253,0.529c0,0-2.227,1.011-1.425,2.688
			l9.771,20.424l9.794-13.521l11.606,24.263C564.11,723.087,566.315,722.032,566.315,722.032z"/>
		<path d="M561.475,672.115l5.304-3.039l0.292,0.51c0,0-1.782,1.021-1.374,2.422l20.837,36.476c0.924,1.612,3.046,0.397,3.046,0.397
			l0.291,0.509l-7.426,4.254l-0.292-0.51c0,0,2.122-1.215,1.198-2.827l-20.138-34.96l2.873,15.938l-12.36-10.56l20.077,35.051
			c0.924,1.612,3.046,0.397,3.046,0.397l0.291,0.509l-7.426,4.254l-0.292-0.509c0,0,2.122-1.216,1.198-2.828l-20.922-36.428
			c-1.002-1.06-2.784-0.039-2.784-0.039l-0.292-0.509l5.305-3.039l0.268,0.467l12.677,11.111l-3.153-16.623L561.475,672.115z"/>
		<path d="M581.093,659.438l5.106-3.449l0.328,0.486c0,0-2.067,1.396-1.026,2.937l23.268,34.448c1.04,1.54,3.107,0.144,3.107,0.144
			l0.328,0.486l-5.106,3.449l-16.173-14.158l7.095,20.29l-5.106,3.449l-0.328-0.486c0,0,2.026-1.368,0.986-2.908l-23.269-34.448
			c-1.013-1.5-3.066-0.172-3.066-0.172l-0.328-0.486l5.106-3.449l16.31,14.361L581.093,659.438z M589.151,682.204l-14.317-12.46
			l20.667,30.598L589.151,682.204z M604.688,694.372l-20.776-30.76l6.253,17.907L604.688,694.372z"/>
		<path d="M616.872,630.31l4.555-4.152l0.396,0.434c0,0-1.843,1.681-0.591,3.055l28.016,30.726c1.252,1.374,3.096-0.308,3.096-0.308
			l0.396,0.435l-4.555,4.152l-18.057-11.672l9.959,19.055l-4.555,4.153l-0.396-0.435c0,0,1.808-1.647,0.556-3.021l-28.016-30.726
			c-1.22-1.338-3.06,0.274-3.06,0.274l-0.396-0.434l4.555-4.153l18.221,11.853L616.872,630.31z M628.145,651.676l-15.975-10.26
			l24.884,27.292L628.145,651.676z M645.283,661.47l-25.016-27.437l8.78,16.818L645.283,661.47z"/>
		<path d="M649.756,638.617l-13.516-4.719l-6.565-17.534l14.562,4.967l5.332,14.212l19.273,6.534
			c0.859-0.196,1.532-0.906,1.532-0.906l0.462,0.437l-4.642,4.9l-0.461-0.438c0,0,0.706-0.745,0.855-1.614l-15.716-5.454
			l6.137,15.781c1.002-0.063,1.594-1.186,1.594-1.186l0.462,0.438l-3.363,3.551l-0.428-0.473c0,0,0.674-0.641,0.859-1.477
			L649.756,638.617z M644.524,624.299l-12.468-4.332l4.099,10.82l12.396,4.265L644.524,624.299z"/>
		<path d="M661.904,577.503l3.517-5.001l0.48,0.338c0,0-1.182,1.68-0.219,2.776l34.339,24.21c1.521,1.069,2.928-0.932,2.928-0.932
			l0.479,0.338l-4.924,7.001l-0.479-0.337c0,0,1.406-2.001-0.114-3.07l-33.063-23.133l9.359,13.22l-15.675-4.326l33.048,23.241
			c1.52,1.069,2.927-0.931,2.927-0.931l0.48,0.338l-4.924,7.001l-0.48-0.338c0,0,1.407-2-0.113-3.069l-34.396-24.13
			c-1.357-0.536-2.539,1.145-2.539,1.145l-0.48-0.338l3.518-5.001l0.439,0.31l16.194,4.691l-9.903-13.722L661.904,577.503z"/>
		<path d="M674.529,562.097l35.68,21.349c1.596,0.954,2.852-1.145,2.852-1.145l0.504,0.301l-4.396,7.347l-0.504-0.302
			c0,0,1.256-2.099-0.339-3.054l-35.681-21.349c-1.596-0.954-2.852,1.145-2.852,1.145l-0.503-0.301l4.395-7.347l0.504,0.302
			C674.189,559.043,672.934,561.142,674.529,562.097z"/>
		<path d="M728.933,552.122l0.568,0.285l-2.194,4.371l-0.547-0.329c0,0,0.527-1.049,0.266-1.837l-16.568-8.315l-17.605-2.98
			l-10.79,3.724l37.858,19.002c1.661,0.834,2.693-1.33,2.693-1.33l0.568,0.285l-3.818,7.606l-0.568-0.285
			c0,0,1.054-2.207-0.521-2.997l-37.181-18.607c-1.661-0.834-2.759,1.352-2.759,1.352l-0.524-0.263l2.743-5.465l12.169-4.291
			l18.151,3.091l16.743,8.403C728.428,553.127,728.933,552.122,728.933,552.122z"/>
		<path d="M739.299,527.516l0.542,0.224l-3.263,7.912l-0.543-0.224c0,0,0.933-2.261-0.804-2.924l-21.457-8.902l1.73,16.584
			l-24.279-10.013c-1.718-0.709-2.604,1.57-2.604,1.57l-0.543-0.224l3.263-7.912l0.543,0.224c0,0-0.978,2.242,0.74,2.951
			l20.934,8.633l-1.776-16.603l24.867,10.255C738.366,529.776,739.299,527.516,739.299,527.516z"/>
		<path d="M702.24,493.612l1.919-5.856l0.604,0.197c0,0-0.594,1.813,0.386,2.752l40.079,13.08c1.766,0.578,2.527-1.745,2.527-1.745
			l0.558,0.183l-2.665,8.134l-0.558-0.183c0,0,0.746-2.277-1.02-2.856l-9.28-3.092l-16.223,0.5l12.796,9.957l9.296,3.046
			c1.766,0.578,2.527-1.745,2.527-1.745l0.558,0.183l-2.665,8.134l-0.558-0.183c0,0,0.746-2.277-1.02-2.856l-39.879-13.065
			c-1.53,0.116-2.094,1.836-2.094,1.836l-0.604-0.198l1.903-5.81l16.672-0.303L702.24,493.612z M716.604,504.752l-14.242,0.429
			l25.563,8.375L716.604,504.752z M705.866,494.8l11.149,8.697l14.289-0.414L705.866,494.8z"/>
		<path d="M734.962,484.698l-14.087,2.565l-14.363-12.015l15.118-2.864l11.652,9.731l19.991-3.827
			c0.65-0.595,0.886-1.544,0.886-1.544l0.617,0.152l-1.619,6.553l-0.617-0.152c0,0,0.246-0.997-0.053-1.827l-16.363,3.011
			l13.126,10.7c0.841-0.548,0.802-1.817,0.802-1.817l0.617,0.152l-1.173,4.749l-0.605-0.2c0,0,0.271-0.891,0.019-1.708
			L734.962,484.698z M723.345,474.823l-12.984,2.385l8.906,7.391l12.889-2.408L723.345,474.823z"/>
		<path d="M712.72,448.194l1.03-6.076l0.579,0.099c0,0-0.417,2.459,1.415,2.77l40.985,6.952c1.832,0.311,2.249-2.148,2.249-2.148
			l0.579,0.099l-1.031,6.075l-21.408,1.925l19.576,8.876l-1.03,6.075l-0.578-0.098c0,0,0.408-2.411-1.424-2.722l-40.985-6.952
			c-1.784-0.303-2.241,2.1-2.241,2.1l-0.578-0.098l1.03-6.075l21.649-1.884L712.72,448.194z M734.754,458.082l-18.899,1.755
			l36.404,6.175L734.754,458.082z M754.283,455.244l-36.597-6.208l17.271,7.841L754.283,455.244z"/>
		<path d="M716.229,407.69l11.251-10.749l2.444,0.056l-9.4,8.981l39.747,0.906c1.857,0.042,1.914-2.451,1.914-2.451l0.587,0.013
			l-0.196,8.604l-0.587-0.013c0,0,0.057-2.444-1.802-2.487l-39.502-0.899l9.96,9.374l-2.444-0.057L716.229,407.69z"/>
		<path d="M715.665,378.822l-0.303-6.105l0.586-0.029c0,0,0.102,2.051,1.535,2.323l41.959-2.035
			c1.856-0.092,1.735-2.534,1.735-2.534l0.586-0.029l0.424,8.547l-0.586,0.029c0,0-0.121-2.442-1.978-2.35l-40.29,2.1l15.508,4.665
			l-15.016,6.23l40.344-2.004c1.856-0.092,1.735-2.534,1.735-2.534l0.586-0.029l0.425,8.548l-0.586,0.029
			c0,0-0.122-2.442-1.978-2.35l-41.954,2.133c-1.399,0.412-1.298,2.464-1.298,2.464l-0.586,0.029l-0.304-6.105l0.538-0.026
			l15.65-6.262l-16.245-4.726L715.665,378.822z"/>
		<path d="M713.223,355.576l-0.756-6.116l0.631-0.078c0,0,0.234,1.893,1.52,2.325l41.834-5.218c1.845-0.228,1.545-2.655,1.545-2.655
			l0.582-0.072l1.05,8.494l-0.583,0.072c0,0-0.294-2.378-2.138-2.151l-9.714,1.151l-14.467,7.356l15.816,3.565l9.707-1.2
			c1.845-0.228,1.545-2.655,1.545-2.655l0.582-0.072l1.05,8.494l-0.583,0.072c0,0-0.293-2.378-2.138-2.15l-41.646,5.145
			c-1.336,0.757-1.114,2.553-1.114,2.553l-0.631,0.078l-0.75-6.067l14.958-7.367L713.223,355.576z M717.009,355.108l13.79,3.126
			l12.754-6.455L717.009,355.108z M730.961,359.545l-12.706,6.448l26.696-3.298L730.961,359.545z"/>
		<path d="M708.443,328.96l-0.479-2.398l0.575-0.115c0,0,0.479,2.398,2.302,2.034l13.188-2.635l-8.559,18.567l37.935-7.58
			l-14.979-13.814l13.188-2.635c1.822-0.364,1.343-2.762,1.343-2.762l0.576-0.115l1.677,8.393l-0.576,0.115
			c0,0-0.479-2.398-2.301-2.034l-9.592,1.917l15.229,13.814l-44.361,8.864l-1.199,0.239l8.751-18.605l-11.99,2.396l-0.719-3.597
			L708.443,328.96z"/>
		<path d="M733.237,308.727l-11.008,9.154l-18.411-3.407l11.759-9.921l14.929,2.751l15.53-13.153c0.275-0.838,0.013-1.78,0.013-1.78
			l0.612-0.17l1.81,6.502l-0.613,0.17c0,0-0.275-0.99-0.942-1.565l-12.772,10.66l16.688,2.871c0.463-0.89-0.194-1.976-0.194-1.976
			l0.612-0.17l1.311,4.712l-0.625,0.123c0,0-0.202-0.908-0.823-1.497L733.237,308.727z M718.27,305.834l-10.137,8.455l11.387,2.062
			l10.042-8.428L718.27,305.834z"/>
		<path d="M737.008,266.567l0.552-0.199l0.613,1.702l-19.944,22.11l-14.119-8.738l-3.208,16.336l40.163-14.479
			c1.748-0.63,0.919-2.931,0.919-2.931l0.552-0.199l0.829,2.3l1.244,3.451l0.829,2.3l-0.552,0.199c0,0-0.796-2.208-2.485-1.703
			l-39.594,14.327c-1.218,0.803-0.521,2.735-0.521,2.735l-0.552,0.199l-0.813-2.254l-1.228-3.404l-0.096-0.122l3.658-18.837
			l14.811,9.216l18.582-20.267C737.26,267.412,737.156,266.981,737.008,266.567z"/>
	</g>
	<g>
		<path style="fill:none;stroke:#000000;" d="M630.429,119.834l6.656,5.378l-0.368,0.457c0,0-1.902-1.537-3.07-0.091l-26.121,32.334
			c-1.168,1.446,0.765,2.944,0.765,2.944l-0.368,0.457l-4.756-3.841l-7.072-17.47l2.305-2.853l0.456,0.369
			c-0.952,1.179-1.441,2.796-0.858,4.021l6.092,14.792l26.706-33.057c1.168-1.445-0.734-2.982-0.734-2.982L630.429,119.834z"/>
		<path style="fill:none;stroke:#000000;" d="M597.844,116.813l-2.616,14.075l-16.337,9.145l2.704-15.145l13.239-7.424l3.539-20.04
			c-0.324-0.82-1.128-1.377-1.128-1.377l0.362-0.522l5.546,3.845l-0.362,0.522c0,0-0.844-0.585-1.726-0.601l-3.011,16.36
			l14.67-8.456c-0.213-0.981-1.413-1.396-1.413-1.396l0.362-0.522l4.02,2.786l-0.402,0.495c0,0-0.736-0.569-1.59-0.625
			L597.844,116.813z M584.483,124.153l-2.393,12.98l10.074-5.691l2.338-12.899L584.483,124.153z"/>
		<path style="fill:none;stroke:#000000;" d="M573.822,81.967l0.298-0.506l1.56,0.918l-1.236,29.757l-16.448,2.289l7.962,14.625
			l21.673-36.792c0.943-1.602-1.164-2.843-1.164-2.843l0.298-0.506l2.107,1.241l3.161,1.862l2.107,1.241l-0.298,0.505
			c0,0-2.023-1.191-3.001,0.276l-21.334,36.312c-0.425,1.396,1.346,2.439,1.346,2.439l-0.298,0.506l-2.065-1.217l-3.118-1.837
			l-0.151-0.032l-9.213-16.838l17.287-2.362l1.363-27.468C574.557,82.456,574.202,82.19,573.822,81.967z"/>
		<path style="fill:none;stroke:#000000;" d="M535.104,113.841l-5.482-2.705l0.26-0.526c0,0,1.842,0.909,2.776-0.211l18.63-37.649
			c0.822-1.667-1.37-2.748-1.37-2.748l0.26-0.526l7.674,3.787l-0.26,0.526c0,0-2.192-1.082-3.015,0.584l-17.763,36.223
			l11.618-11.281l-1.86,16.149l17.872-36.223c0.822-1.667-1.37-2.748-1.37-2.748l0.26-0.526l7.674,3.787l-0.26,0.526
			c0,0-2.192-1.082-3.015,0.585l-18.542,37.692c-0.32,1.423,1.521,2.332,1.521,2.332l-0.26,0.526l-5.482-2.705l0.238-0.482
			l2.143-16.719l-12.031,11.895L535.104,113.841z"/>
		<path style="fill:none;stroke:#000000;" d="M513.612,104.699l-5.714-2.309l0.238-0.59c0,0,1.769,0.715,2.771-0.199l15.751-39.109
			c0.696-1.723-1.571-2.64-1.571-2.64l0.221-0.544l7.936,3.207l-0.22,0.544c0,0-2.222-0.898-2.919,0.825l-3.71,9.052l-0.594,16.22
			l10.797-12.097l3.665-9.07c0.697-1.723-1.57-2.64-1.57-2.64l0.22-0.544l7.936,3.207l-0.22,0.544c0,0-2.222-0.898-2.918,0.826
			l-15.724,38.909c0.013,1.535,1.69,2.213,1.69,2.213l-0.238,0.589l-5.669-2.291l0.822-16.655L513.612,104.699z M515.042,101.162
			l9.429-10.539l0.55-14.286L515.042,101.162z M525.695,91.118l-0.531,14.24l10.079-24.942L525.695,91.118z"/>
		<path style="fill:none;stroke:#000000;" d="M473.652,89.783l9.753-40.414c0.437-1.807-1.94-2.381-1.94-2.381l0.138-0.57
			l8.32,2.008l-0.138,0.571c0,0-2.377-0.574-2.813,1.233l-9.753,40.415c-0.437,1.807,1.94,2.38,1.94,2.38l-0.138,0.571l-8.32-2.008
			l0.138-0.57C470.839,91.016,473.216,91.59,473.652,89.783z"/>
		<path style="fill:none;stroke:#000000;" d="M442.911,86.443l-2.414-0.396l0.096-0.579c0,0,2.413,0.396,2.714-1.438l2.178-13.272
			l14.365,14.549l6.264-38.176l-18.205,9.156l2.178-13.272c0.302-1.834-2.111-2.23-2.111-2.23l0.095-0.579l8.446,1.386l-0.096,0.579
			c0,0-2.413-0.396-2.714,1.438l-1.584,9.653l18.293-9.389l-7.325,44.644l-0.198,1.207l-14.333-14.742l-1.979,12.065l-3.62-0.594
			L442.911,86.443z"/>
		<path style="fill:none;stroke:#000000;" d="M421.346,38.253l0.053-0.585l8.526,0.761l-0.053,0.584c0,0-2.436-0.217-2.552,1.638
			l-2.115,23.139l15.321-6.588l-2.335,26.163c-0.166,1.852,2.274,2.021,2.274,2.021l-0.052,0.584l-8.526-0.761l0.053-0.584
			c0,0,2.432,0.266,2.597-1.585l2.014-22.558l-15.325,6.637l2.392-26.796C423.782,38.47,421.346,38.253,421.346,38.253z"/>
		<path style="fill:none;stroke:#000000;" d="M394.667,37.725l0.01-0.636l4.891,0.079l-0.06,0.635c0,0-1.173-0.019-1.77,0.558
			l-0.301,18.535l4.956,17.153l8.038,8.104l0.687-42.352c0.03-1.858-2.366-1.848-2.366-1.848l0.01-0.636l8.51,0.138l-0.011,0.636
			c0,0-2.446,0.009-2.475,1.77l-0.625,41.57c-0.03,1.858,2.415,1.898,2.415,1.898l-0.01,0.587l-6.113-0.099l-9.146-9.101
			l-5.094-17.693l0.304-18.73C395.792,37.743,394.667,37.725,394.667,37.725z"/>
		<path style="fill:none;stroke:#000000;" d="M376.871,84.521l-6.152,0.344l-0.036-0.635c0,0,1.904-0.106,2.422-1.36l-2.403-42.087
			c-0.104-1.855-2.545-1.719-2.545-1.719l-0.033-0.586l8.545-0.478l0.033,0.586c0,0-2.393,0.134-2.289,1.989l0.498,9.769
			l6.37,14.925l4.617-15.54l-0.546-9.766c-0.104-1.855-2.545-1.719-2.545-1.719l-0.033-0.586l8.545-0.478l0.033,0.586
			c0,0-2.393,0.134-2.289,1.989l2.344,41.895c0.665,1.383,2.472,1.282,2.472,1.282l0.036,0.635l-6.104,0.341l-6.349-15.417
			L376.871,84.521z M376.658,80.713l4.042-13.549l-5.585-13.157L376.658,80.713z M382.019,67.09l5.582,13.108l-1.502-26.855
			L382.019,67.09z"/>
		<path style="fill:none;stroke:#000000;" d="M331.22,91.129l-6.037,1.234l-0.118-0.575c0,0,2.444-0.5,2.071-2.32l-8.327-40.726
			c-0.372-1.821-2.816-1.321-2.816-1.321l-0.117-0.575l6.037-1.234l9.53,19.266l1.203-21.46l6.037-1.234l0.118,0.575
			c0,0-2.396,0.49-2.023,2.311l8.327,40.726c0.362,1.772,2.768,1.331,2.768,1.331l0.117,0.575l-6.037,1.234l-9.579-19.505
			L331.22,91.129z M322.776,49.829l7.435,36.366l1.07-18.937L322.776,49.829z M332.479,67.012L340.943,84l-7.396-36.174
			L332.479,67.012z"/>
		<path style="fill:none;stroke:#000000;" d="M307.236,67.174l9.204,10.966l-3.323,18.426l-9.974-11.714l2.683-14.94l-13.224-15.47
			c-0.839-0.271-1.78-0.004-1.78-0.004l-0.173-0.612l6.494-1.838l0.173,0.612c0,0-0.988,0.28-1.561,0.95l10.717,12.723l2.795-16.701
			c-0.893-0.459-1.976,0.203-1.976,0.203l-0.173-0.611l4.706-1.333l0.126,0.625c0,0-0.907,0.206-1.494,0.829L307.236,67.174z
			 M304.412,82.155l8.5,10.098l2.01-11.396l-8.474-10.003L304.412,82.155z"/>
		<path style="fill:none;stroke:#000000;" d="M278.646,58.052l8.041-2.938l0.201,0.551c0,0-2.297,0.839-1.659,2.585l14.267,39.053
			c0.638,1.746,2.918,0.861,2.918,0.861l0.201,0.551l-5.743,2.098l-18.622-2.935l-1.259-3.446l0.551-0.202
			c0.521,1.424,1.655,2.676,3.005,2.808l15.821,2.396L281.782,59.51c-0.638-1.746-2.935-0.906-2.935-0.906L278.646,58.052z"/>
		<path style="fill:none;stroke:#000000;" d="M259.298,84.442l10.73,9.481l-0.554,18.719l-11.604-10.107l0.438-15.176
			l-15.375-13.341c-0.87-0.143-1.762,0.26-1.762,0.26l-0.262-0.579l6.151-2.782l0.262,0.579c0,0-0.936,0.423-1.403,1.171
			l12.488,10.995l0.288-16.934c-0.951-0.322-1.924,0.494-1.924,0.494l-0.262-0.58l4.457-2.016l0.217,0.6
			c0,0-0.867,0.338-1.354,1.042L259.298,84.442z M258.727,99.679l9.906,8.727l0.297-11.57l-9.866-8.638L258.727,99.679z"/>
		<path style="fill:none;stroke:#000000;" d="M217.046,87.146l-0.281-0.515l1.589-0.866l24.897,16.348l-6.487,15.29l16.639,0.682
			l-20.434-37.499c-0.89-1.632-3.037-0.462-3.037-0.462l-0.281-0.515l2.148-1.17l3.221-1.756l2.148-1.17l0.281,0.516
			c0,0-2.062,1.124-1.305,2.717l20.197,36.959c0.979,1.082,2.783,0.099,2.783,0.099l0.281,0.516l-2.104,1.147l-3.179,1.732
			l-0.105,0.113l-19.18-0.746l6.854-16.047l-22.867-15.281C217.842,86.768,217.433,86.935,217.046,87.146z"/>
		<path style="fill:none;stroke:#000000;" d="M173.532,117.103l-0.353-0.469l6.841-5.143l0.353,0.469c0,0-1.955,1.469-0.799,2.925
			l13.921,18.599l6.967-15.149l15.782,20.993c1.117,1.486,3.042-0.023,3.042-0.023l0.353,0.469l-6.841,5.143l-0.353-0.469
			c0,0,1.984-1.43,0.867-2.916l-13.607-18.1l-6.938,15.188l-16.164-21.501C175.487,115.633,173.532,117.103,173.532,117.103z"/>
		<path style="fill:none;stroke:#000000;" d="M189.256,160.842l-27.354-31.31c-1.223-1.4-3.064,0.209-3.064,0.209l-0.386-0.442
			l6.446-5.631l0.386,0.442c0,0-1.842,1.609-0.619,3.009l27.354,31.31c1.223,1.399,3.064-0.209,3.064-0.209l0.386,0.442
			l-6.446,5.632l-0.386-0.442C188.637,163.851,190.479,162.241,189.256,160.842z"/>
		<path style="fill:none;stroke:#000000;" d="M175.188,177.484l-15.563,0.092l-1.74-1.719l13.003-0.077l-28.284-27.95
			c-1.322-1.306-3.075,0.468-3.075,0.468l-0.417-0.413l6.05-6.123l0.417,0.413c0,0-1.719,1.739-0.396,3.045l28.11,27.778
			l-0.808-13.657l1.739,1.719L175.188,177.484z"/>
		<path style="fill:none;stroke:#000000;" d="M110.073,182.942l-0.473-0.348l5.1-6.934l0.473,0.348c0,0-1.449,1.97,0.048,3.071
			l33.488,24.63c1.458,1.072,2.907-0.898,2.907-0.898l0.473,0.348l-3.651,4.964l-17.104,7.819l-3.428-2.521l0.348-0.473
			c1.103,0.811,3.663,1.541,4.5,1.063l14.581-6.7l-10.204-7.505l-17.104,7.819l-3.467-2.55l0.348-0.473
			c1.064,0.782,3.731,1.53,4.568,1.053l14.609-6.74l-23.008-16.922c-1.498-1.101-2.975,0.908-2.975,0.908L110.073,182.942z"/>
		<path style="fill:none;stroke:#000000;" d="M129.178,236.486l-3.276,5.22l-0.539-0.338c0,0,1.014-1.615,0.29-2.763l-35.736-22.371
			c-1.574-0.988-2.875,1.083-2.875,1.083l-0.497-0.312l4.55-7.25l0.497,0.312c0,0-1.274,2.03,0.3,3.018l8.259,5.242l15.864,3.431
			l-10.014-12.752l-8.285-5.2c-1.574-0.988-2.875,1.083-2.875,1.083l-0.497-0.312l4.55-7.25l0.497,0.312c0,0-1.274,2.03,0.3,3.018
			l35.545,22.309c1.513,0.257,2.475-1.276,2.475-1.276l0.539,0.338l-3.25,5.178l-16.252-3.732L129.178,236.486z M125.947,234.458
			l-8.72-11.132l-13.967-3.049L125.947,234.458z M117.929,222.208l13.925,3.023l-22.785-14.3L117.929,222.208z"/>
		<path style="fill:none;stroke:#000000;" d="M117.788,256.866l-2.859,5.403l-0.519-0.274c0,0,0.96-1.815-0.133-2.781l-37.11-19.691
			c-1.643-0.869-2.786,1.292-2.786,1.292l-0.519-0.274l4.003-7.565l0.519,0.274c0,0-1.144,2.162,0.499,3.031l35.709,18.784
			l-10.948-11.935l16.092,2.318l-35.707-18.893c-1.643-0.869-2.786,1.292-2.786,1.292l-0.519-0.275l4.002-7.565l0.519,0.275
			c0,0-1.144,2.161,0.499,3.03l37.156,19.604c1.414,0.361,2.374-1.455,2.374-1.455l0.519,0.274l-2.859,5.403l-0.475-0.251
			l-16.654-2.615l11.551,12.364L117.788,256.866z"/>
		<path style="fill:none;stroke:#000000;" d="M110.182,273.029l-14.492,5.668l-2.24-0.98l12.108-4.736L69.137,257.04
			c-1.702-0.745-2.702,1.54-2.702,1.54l-0.538-0.235l3.451-7.885l0.538,0.235c0,0-0.98,2.24,0.722,2.985l36.198,15.843
			l-5.652-12.456l2.24,0.98L110.182,273.029z"/>
		<path style="fill:none;stroke:#000000;" d="M44.479,327.369l1.626-8.403l0.625,0.121c0,0-0.465,2.401,1.36,2.754l40.769,7.889
			c1.825,0.353,2.29-2.048,2.29-2.048l0.576,0.112l-1.626,8.403l-0.576-0.112c0,0,0.465-2.401-1.36-2.754l-22.905-4.433
			L41.812,341.15l0.808-4.178l0.625,0.121c-0.093,0.48-0.307,1.585,0.51,1.743l19.628-10.3l-15.99-3.095
			c-1.825-0.353-2.29,2.048-2.29,2.048L44.479,327.369z"/>
		<path style="fill:none;stroke:#000000;" d="M57.159,357.56l13.654-4.301l15.747,10.128l-14.64,4.726l-12.773-8.202L39.792,366.2
			c-0.571,0.671-0.686,1.643-0.686,1.643l-0.631-0.074l0.79-6.703l0.631,0.074c0,0-0.121,1.02,0.279,1.806l15.857-5.025
			l-14.355-8.979c-0.766,0.648-0.569,1.903-0.569,1.903l-0.631-0.074l0.572-4.857l0.625,0.123c0,0-0.157,0.917,0.194,1.697
			L57.159,357.56z M69.914,365.907l12.583-3.983l-9.756-6.221l-12.486,3.995L69.914,365.907z"/>
		<path style="fill:none;stroke:#000000;" d="M66.597,382.947l15.048,0.658c1.857,0.081,1.963-2.362,1.963-2.362l0.586,0.026
			l-0.374,8.55l-0.586-0.026c0,0,0.107-2.443-1.75-2.524l-16.661-0.729l-3.917,7.857c0.221,0.548,1.295,0.595,1.295,0.595
			l-0.025,0.586l-4.3-0.188l0.026-0.586c0.733,0.032,1.23-0.142,1.689-0.563l3.913-7.759l-23.55-1.03
			c-1.856-0.081-1.915,2.364-1.915,2.364l-0.635-0.028l0.374-8.55l0.635,0.028c0,0-0.156,2.441,1.701,2.522l25.211,1.103
			l3.864-7.761c-0.077-0.493-0.508-0.708-1.192-0.738l0.026-0.586l4.25,0.186l-0.025,0.586c-0.538-0.023-1.275,0.042-1.681,0.367
			L66.597,382.947z"/>
		<path style="fill:none;stroke:#000000;" d="M38.287,421.844l-0.587,0.018l-0.246-8.556l0.587-0.018c0,0,0.07,2.444,1.926,2.343
			l23.224-0.618l-8.341-14.439l26.253-0.754c1.858-0.053,1.739-2.496,1.739-2.496l0.586-0.017l0.246,8.556l-0.586,0.017
			c0,0-0.021-2.446-1.879-2.393l-22.636,0.649l8.39,14.438l-26.889,0.771C38.216,419.399,38.287,421.844,38.287,421.844z"/>
		<path style="fill:none;stroke:#000000;" d="M85.866,437.721l0.62,6.082l-0.584,0.06c0,0-0.208-2.044-1.654-2.24l-41.804,4.211
			c-1.849,0.188-1.602,2.621-1.602,2.621l-0.584,0.06l-0.868-8.516l0.584-0.06c0,0,0.248,2.434,2.097,2.245l40.135-4.188
			l-15.732-3.854l14.675-7.002l-40.193,4.097c-1.849,0.188-1.601,2.621-1.601,2.621l-0.584,0.06l-0.868-8.516l0.584-0.06
			c0,0,0.248,2.433,2.097,2.244l41.794-4.308c1.376-0.485,1.168-2.528,1.168-2.528l0.584-0.06l0.62,6.082l-0.535,0.055
			l-15.308,7.066l16.472,3.877L85.866,437.721z"/>
		<path style="fill:none;stroke:#000000;" d="M42.226,460.479l-1.495-8.428l0.626-0.111c0,0,0.427,2.408,2.257,2.083l40.885-7.254
			c1.83-0.325,1.403-2.733,1.403-2.733l0.578-0.102l1.496,8.427l-0.578,0.103c0,0-0.427-2.407-2.257-2.083l-22.971,4.076
			l-17.491,19.843l-0.744-4.189l0.626-0.111c0.085,0.482,0.282,1.59,1.101,1.444l14.629-16.653l-16.036,2.846
			c-1.83,0.324-1.403,2.732-1.403,2.732L42.226,460.479z"/>
		<path style="fill:none;stroke:#000000;" d="M93.423,478.207l-7.941,13.386l-2.37,0.605l6.635-11.185l-38.531,9.837
			c-1.801,0.46-1.184,2.877-1.184,2.877l-0.568,0.146l-2.13-8.342l0.569-0.145c0,0,0.605,2.369,2.406,1.909l38.294-9.776
			l-12.121-6.346l2.37-0.605L93.423,478.207z"/>
		<path style="fill:none;stroke:#000000;" d="M101.739,505.774l1.947,5.795l-0.556,0.187c0,0-0.654-1.946-2.107-1.819
			l-39.836,13.336c-1.761,0.593-0.982,2.91-0.982,2.91l-0.556,0.187l-2.727-8.112l0.556-0.187c0,0,0.779,2.317,2.541,1.726
			l38.213-12.945l-16.192-0.285l12.765-10.068l-38.291,12.869c-1.761,0.592-0.982,2.909-0.982,2.909l-0.556,0.188l-2.727-8.112
			l0.557-0.188c0,0,0.779,2.318,2.54,1.727l39.805-13.43c1.235-0.776,0.581-2.723,0.581-2.723l0.556-0.188l1.947,5.795l-0.51,0.171
			l-13.367,10.271l16.919,0.144L101.739,505.774z"/>
		<path style="fill:none;stroke:#000000;" d="M108.235,522.43l-5.871,14.412l-2.254,0.949l4.906-12.043l-36.646,15.433
			c-1.713,0.722-0.745,3.021-0.745,3.021l-0.541,0.228l-3.341-7.934l0.541-0.228c0,0,0.949,2.254,2.662,1.532l36.42-15.337
			l-12.925-4.48l2.253-0.949L108.235,522.43z"/>
		<path style="fill:none;stroke:#000000;" d="M82.567,574.817l-0.566,0.289l-2.228-4.354l0.588-0.246c0,0,0.535,1.045,1.325,1.301
			l16.505-8.443l12.815-12.435l3.378-10.904L76.67,559.317c-1.655,0.847-0.52,2.958-0.52,2.958l-0.566,0.289l-3.876-7.577
			l0.566-0.289c0,0,1.158,2.154,2.726,1.353l36.994-18.979c1.655-0.847,0.541-3.024,0.541-3.024l0.522-0.267l2.785,5.443
			l-3.737,12.351l-13.227,12.811l-16.679,8.532C82.055,573.815,82.567,574.817,82.567,574.817z"/>
		<path style="fill:none;stroke:#000000;" d="M96.281,597.721l-0.501,0.305l-0.941-1.546l15.135-25.649l15.582,5.746l-0.116-16.65
			l-36.473,22.206c-1.587,0.966-0.316,3.055-0.316,3.055l-0.501,0.306l-1.272-2.089l-1.908-3.134l-1.272-2.089l0.501-0.305
			c0,0,1.221,2.005,2.776,1.173l35.946-21.942c1.034-1.03-0.035-2.785-0.035-2.785l0.501-0.305l1.246,2.047l1.882,3.092l0.118,0.1
			l0.174,19.192l-16.355-6.077l-14.167,23.572C95.865,596.943,96.052,597.345,96.281,597.721z"/>
		<path style="fill:none;stroke:#000000;" d="M118.993,628.475l-0.452,0.375l-5.495-6.626l0.452-0.374c0,0,1.561,1.882,2.991,0.695
			l31.997-26.536c1.393-1.155-0.168-3.037-0.168-3.037l0.452-0.375l3.934,4.743l3.45,18.486l-3.275,2.716l-0.375-0.451
			c1.054-0.875,2.38-3.182,2.12-4.109l-2.975-15.768l-9.75,8.086l3.45,18.486l-3.313,2.747l-0.375-0.451
			c1.016-0.844,2.387-3.251,2.126-4.178l-3.006-15.806L118.8,625.331c-1.431,1.187,0.162,3.105,0.162,3.105L118.993,628.475z"/>
		<path style="fill:none;stroke:#000000;" d="M175.552,622.929l4.272,4.443l-0.423,0.406c0,0-1.729-1.798-3.069-0.51l-29.974,28.819
			c-1.34,1.288,0.389,3.087,0.389,3.087l-0.423,0.406l-4.272-4.442l11.189-18.359l-18.784,10.46l-4.272-4.443l0.423-0.406
			c0,0,1.695,1.763,3.036,0.475l29.973-28.819c1.305-1.255-0.355-3.052-0.355-3.052l0.423-0.406l4.272,4.442l-11.366,18.529
			L175.552,622.929z M154.492,634.763l9.833-16.241l-26.624,25.599L154.492,634.763z M145.155,652.154l26.765-25.733l-16.58,9.224
			L145.155,652.154z"/>
		<path style="fill:none;stroke:#000000;" d="M188.238,638.255l-27.782,30.934c-1.242,1.383,0.578,3.017,0.578,3.017l-0.393,0.437
			l-6.369-5.72l0.393-0.437c0,0,1.819,1.635,3.062,0.251l27.782-30.933c1.242-1.383-0.578-3.018-0.578-3.018l0.392-0.437l6.369,5.72
			l-0.392,0.437C191.299,638.506,189.479,636.872,188.238,638.255z"/>
		<path style="fill:none;stroke:#000000;" d="M213.72,655.84l1.934,1.496l-0.359,0.465c0,0-1.934-1.496-3.071-0.026l-8.229,10.638
			l-5.713-19.63l-23.669,30.597l20.367,0.607l-8.229,10.637c-1.137,1.47,0.797,2.966,0.797,2.966l-0.359,0.465l-6.77-5.236
			l0.359-0.465c0,0,1.934,1.496,3.071,0.026l5.985-7.736l-20.555-0.443l27.678-35.78l0.748-0.967l5.594,19.784l7.48-9.67
			l2.901,2.244L213.72,655.84z"/>
		<path style="fill:none;stroke:#000000;" d="M225.593,666.866l-22.944,34.668c-1.026,1.551,1.013,2.9,1.013,2.9l-0.324,0.489
			l-7.138-4.724l0.324-0.49c0,0,2.04,1.35,3.065-0.2l22.944-34.668c1.025-1.55-1.014-2.9-1.014-2.9l0.324-0.489l7.138,4.724
			l-0.324,0.49C228.658,666.666,226.618,665.316,225.593,666.866z"/>
		<path style="fill:none;stroke:#000000;" d="M233.022,721.686l-0.287,0.513l-7.466-4.185l0.287-0.512c0,0,2.133,1.195,2.999-0.45
			l11.4-20.241l-16.673-0.262l12.84-22.91c0.909-1.621-1.249-2.774-1.249-2.774l0.287-0.512l7.466,4.185l-0.287,0.512
			c0,0-2.109-1.238-3.018,0.383l-11.07,19.754l16.696,0.219l-13.15,23.465C230.889,720.49,233.022,721.686,233.022,721.686z"/>
		<path style="fill:none;stroke:#000000;" d="M266.695,689.652l-17.587,37.665c-0.786,1.684,1.43,2.718,1.43,2.718l-0.249,0.532
			l-7.754-3.621l0.248-0.532c0,0,2.216,1.035,3.002-0.648l17.587-37.665c0.786-1.684-1.429-2.719-1.429-2.719l0.248-0.531
			l7.754,3.621l-0.248,0.531C269.697,689.003,267.481,687.969,266.695,689.652z"/>
		<path style="fill:none;stroke:#000000;" d="M268.214,738.116l-8.003-3.036l0.226-0.594c0,0,2.287,0.867,2.946-0.87l14.729-38.826
			c0.659-1.737-1.627-2.604-1.627-2.604l0.208-0.549l8.003,3.036l-0.208,0.549c0,0-2.286-0.868-2.946,0.87l-8.275,21.813
			l8.072,25.19l-3.979-1.509l0.226-0.595c0.458,0.173,1.509,0.572,1.804-0.205l-6.8-21.099l-5.777,15.229
			c-0.659,1.737,1.627,2.605,1.627,2.605L268.214,738.116z"/>
		<path style="fill:none;stroke:#000000;" d="M310.724,706.107l-11.816,39.856c-0.528,1.782,1.816,2.477,1.816,2.477l-0.167,0.563
			l-8.206-2.433l0.167-0.563c0,0,2.345,0.695,2.873-1.086l11.815-39.857c0.528-1.781-1.816-2.477-1.816-2.477l0.167-0.563
			l8.206,2.433l-0.167,0.563C313.597,705.021,311.252,704.325,310.724,706.107z"/>
		<path style="fill:none;stroke:#000000;" d="M326.748,725.778l3.196-14.72c0.394-1.815-1.996-2.335-1.996-2.335l0.125-0.573
			l8.363,1.816l-0.125,0.573c0,0-2.39-0.519-2.784,1.297l-3.538,16.297l7.08,5.19c0.578-0.125,0.806-1.177,0.806-1.177l0.573,0.125
			l-0.913,4.205l-0.573-0.124c0.155-0.717,0.068-1.236-0.269-1.76l-6.985-5.17l-5.001,23.035c-0.395,1.816,2.005,2.287,2.005,2.287
			l-0.135,0.621l-8.363-1.815l0.135-0.621c0,0,2.379,0.566,2.773-1.25l5.354-24.66l-6.995-5.121
			c-0.499-0.009-0.783,0.38-0.929,1.049l-0.573-0.124l0.902-4.158l0.574,0.125c-0.114,0.525-0.174,1.263,0.077,1.718
			L326.748,725.778z"/>
		<path style="fill:none;stroke:#000000;" d="M364.95,715.582l-6.332,10.618l2.259,10.64l-4.714,10.351l2.657,12.374
			c0.624,0.483,1.537,0.661,1.537,0.661l-0.082,0.581l-7.265-1.021l0.082-0.581c0,0,1.218,0.121,2.039-0.455l-4.181-19.799
			l-10.59,17.724c0.631,0.78,1.835,0.999,1.835,0.999l-0.082,0.581l-4.843-0.681l0.082-0.581c0,0,0.927,0.08,1.715-0.253
			l6.256-10.431l-2.447-11.407l4.934-10.863l-2.314-10.943c-0.631-0.78-1.842-0.95-1.842-0.95l0.082-0.581l7.265,1.021l-0.082,0.581
			c0,0-1.211-0.17-2.032,0.406l4.25,19.66l10.521-17.585c-0.631-0.78-1.842-0.95-1.842-0.95l0.082-0.581l4.843,0.681l-0.082,0.581
			C366.658,715.378,365.738,715.249,364.95,715.582z M350.621,737.423l-2.427-11.552l-2.842,6.169l2.237,10.439L350.621,737.423z
			 M356.303,730.023l-2.839,4.737l2.314,10.598l2.629-5.705L356.303,730.023z"/>
		<path style="fill:none;stroke:#000000;" d="M406.306,716.229l6.113-0.1l0.01,0.587c0,0-2.055,0.033-2.374,1.457l0.633,42.01
			c0.03,1.858,2.476,1.818,2.476,1.818l0.01,0.587l-8.559,0.14l-0.01-0.587c0,0,2.445-0.04,2.415-1.898l-0.752-40.345l-5.181,15.347
			l-5.726-15.219l0.656,40.396c0.03,1.858,2.475,1.818,2.475,1.818l0.01,0.587l-8.559,0.139l-0.009-0.587
			c0,0,2.445-0.039,2.415-1.897l-0.73-42.009c-0.365-1.412-2.419-1.379-2.419-1.379l-0.009-0.587l6.113-0.099l0.009,0.537
			l5.736,15.854l5.267-16.082L406.306,716.229z"/>
		<path style="fill:none;stroke:#000000;" d="M424.924,761.902l-8.534,0.656l-0.045-0.585c0,0,2.438-0.188,2.296-2.041l-3.19-41.451
			c-0.143-1.854-2.577-1.617-2.577-1.617l-0.045-0.585l6.096-0.47l17.137,7.854l0.281,3.658l-0.585,0.045
			c-0.117-1.512-0.871-3.023-2.135-3.516l-14.586-6.579l3.262,42.379c0.143,1.854,2.581,1.666,2.581,1.666L424.924,761.902z"/>
		<path style="fill:none;stroke:#000000;" d="M449.791,714.903l6.238,41.102c0.279,1.838,2.697,1.471,2.697,1.471l0.088,0.58
			l-8.462,1.285l-0.089-0.581c0,0,2.418-0.366,2.14-2.204l-6.239-41.102c-0.278-1.838-2.696-1.471-2.696-1.471l-0.088-0.58
			l8.462-1.284l0.088,0.58C451.93,712.699,449.512,713.065,449.791,714.903z"/>
		<path style="fill:none;stroke:#000000;" d="M470.56,708.418l13.184,8.273l0.546,2.385l-11.016-6.914l8.87,38.768
			c0.414,1.812,2.847,1.255,2.847,1.255l0.131,0.572l-8.393,1.92l-0.131-0.571c0,0,2.384-0.546,1.97-2.358l-8.815-38.528
			l-6.647,11.959l-0.546-2.385L470.56,708.418z"/>
		<path style="fill:none;stroke:#000000;" d="M566.315,722.032l0.253,0.529l-7.72,3.693l-0.253-0.529c0,0,2.206-1.056,1.359-2.711
			l-9.979-20.975l-9.815,13.478l-11.332-23.689c-0.802-1.676-2.986-0.577-2.986-0.577l-0.253-0.529l7.72-3.692l0.253,0.529
			c0,0-2.227,1.011-1.425,2.688l9.771,20.424l9.794-13.521l11.606,24.263C564.11,723.087,566.315,722.032,566.315,722.032z"/>
		<path style="fill:none;stroke:#000000;" d="M561.475,672.115l5.304-3.039l0.292,0.51c0,0-1.782,1.021-1.374,2.422l20.837,36.476
			c0.924,1.612,3.046,0.397,3.046,0.397l0.291,0.509l-7.426,4.254l-0.292-0.51c0,0,2.122-1.215,1.198-2.827l-20.138-34.96
			l2.873,15.938l-12.36-10.56l20.077,35.051c0.924,1.612,3.046,0.397,3.046,0.397l0.291,0.509l-7.426,4.254l-0.292-0.509
			c0,0,2.122-1.216,1.198-2.828l-20.922-36.428c-1.002-1.06-2.784-0.039-2.784-0.039l-0.292-0.509l5.305-3.039l0.268,0.467
			l12.677,11.111l-3.153-16.623L561.475,672.115z"/>
		<path style="fill:none;stroke:#000000;" d="M581.093,659.438l5.106-3.449l0.328,0.486c0,0-2.067,1.396-1.026,2.937l23.268,34.448
			c1.04,1.54,3.107,0.144,3.107,0.144l0.328,0.486l-5.106,3.449l-16.173-14.158l7.095,20.29l-5.106,3.449l-0.328-0.486
			c0,0,2.026-1.368,0.986-2.908l-23.269-34.448c-1.013-1.5-3.066-0.172-3.066-0.172l-0.328-0.486l5.106-3.449l16.31,14.361
			L581.093,659.438z M589.151,682.204l-14.317-12.46l20.667,30.598L589.151,682.204z M604.688,694.372l-20.776-30.76l6.253,17.907
			L604.688,694.372z"/>
		<path style="fill:none;stroke:#000000;" d="M616.872,630.31l4.555-4.152l0.396,0.434c0,0-1.843,1.681-0.591,3.055l28.016,30.726
			c1.252,1.374,3.096-0.308,3.096-0.308l0.396,0.435l-4.555,4.152l-18.057-11.672l9.959,19.055l-4.555,4.153l-0.396-0.435
			c0,0,1.808-1.647,0.556-3.021l-28.016-30.726c-1.22-1.338-3.06,0.274-3.06,0.274l-0.396-0.434l4.555-4.153l18.221,11.853
			L616.872,630.31z M628.145,651.676l-15.975-10.26l24.884,27.292L628.145,651.676z M645.283,661.47l-25.016-27.437l8.78,16.818
			L645.283,661.47z"/>
		<path style="fill:none;stroke:#000000;" d="M649.756,638.617l-13.516-4.719l-6.565-17.534l14.562,4.967l5.332,14.212l19.273,6.534
			c0.859-0.196,1.532-0.906,1.532-0.906l0.462,0.437l-4.642,4.9l-0.461-0.438c0,0,0.706-0.745,0.855-1.614l-15.716-5.454
			l6.137,15.781c1.002-0.063,1.594-1.186,1.594-1.186l0.462,0.438l-3.363,3.551l-0.428-0.473c0,0,0.674-0.641,0.859-1.477
			L649.756,638.617z M644.524,624.299l-12.468-4.332l4.099,10.82l12.396,4.265L644.524,624.299z"/>
		<path style="fill:none;stroke:#000000;" d="M661.904,577.503l3.517-5.001l0.48,0.338c0,0-1.182,1.68-0.219,2.776l34.339,24.21
			c1.521,1.069,2.928-0.932,2.928-0.932l0.479,0.338l-4.924,7.001l-0.479-0.337c0,0,1.406-2.001-0.114-3.07l-33.063-23.133
			l9.359,13.22l-15.675-4.326l33.048,23.241c1.52,1.069,2.927-0.931,2.927-0.931l0.48,0.338l-4.924,7.001l-0.48-0.338
			c0,0,1.407-2-0.113-3.069l-34.396-24.13c-1.357-0.536-2.539,1.145-2.539,1.145l-0.48-0.338l3.518-5.001l0.439,0.31l16.194,4.691
			l-9.903-13.722L661.904,577.503z"/>
		<path style="fill:none;stroke:#000000;" d="M674.529,562.097l35.68,21.349c1.596,0.954,2.852-1.145,2.852-1.145l0.504,0.301
			l-4.396,7.347l-0.504-0.302c0,0,1.256-2.099-0.339-3.054l-35.681-21.349c-1.596-0.954-2.852,1.145-2.852,1.145l-0.503-0.301
			l4.395-7.347l0.504,0.302C674.189,559.043,672.934,561.142,674.529,562.097z"/>
		<path style="fill:none;stroke:#000000;" d="M728.933,552.122l0.568,0.285l-2.194,4.371l-0.547-0.329c0,0,0.527-1.049,0.266-1.837
			l-16.568-8.315l-17.605-2.98l-10.79,3.724l37.858,19.002c1.661,0.834,2.693-1.33,2.693-1.33l0.568,0.285l-3.818,7.606
			l-0.568-0.285c0,0,1.054-2.207-0.521-2.997l-37.181-18.607c-1.661-0.834-2.759,1.352-2.759,1.352l-0.524-0.263l2.743-5.465
			l12.169-4.291l18.151,3.091l16.743,8.403C728.428,553.127,728.933,552.122,728.933,552.122z"/>
		<path style="fill:none;stroke:#000000;" d="M739.299,527.516l0.542,0.224l-3.263,7.912l-0.543-0.224c0,0,0.933-2.261-0.804-2.924
			l-21.457-8.902l1.73,16.584l-24.279-10.013c-1.718-0.709-2.604,1.57-2.604,1.57l-0.543-0.224l3.263-7.912l0.543,0.224
			c0,0-0.978,2.242,0.74,2.951l20.934,8.633l-1.776-16.603l24.867,10.255C738.366,529.776,739.299,527.516,739.299,527.516z"/>
		<path style="fill:none;stroke:#000000;" d="M702.24,493.612l1.919-5.856l0.604,0.197c0,0-0.594,1.813,0.386,2.752l40.079,13.08
			c1.766,0.578,2.527-1.745,2.527-1.745l0.558,0.183l-2.665,8.134l-0.558-0.183c0,0,0.746-2.277-1.02-2.856l-9.28-3.092l-16.223,0.5
			l12.796,9.957l9.296,3.046c1.766,0.578,2.527-1.745,2.527-1.745l0.558,0.183l-2.665,8.134l-0.558-0.183
			c0,0,0.746-2.277-1.02-2.856l-39.879-13.065c-1.53,0.116-2.094,1.836-2.094,1.836l-0.604-0.198l1.903-5.81l16.672-0.303
			L702.24,493.612z M716.604,504.752l-14.242,0.429l25.563,8.375L716.604,504.752z M705.866,494.8l11.149,8.697l14.289-0.414
			L705.866,494.8z"/>
		<path style="fill:none;stroke:#000000;" d="M734.962,484.698l-14.087,2.565l-14.363-12.015l15.118-2.864l11.652,9.731
			l19.991-3.827c0.65-0.595,0.886-1.544,0.886-1.544l0.617,0.152l-1.619,6.553l-0.617-0.152c0,0,0.246-0.997-0.053-1.827
			l-16.363,3.011l13.126,10.7c0.841-0.548,0.802-1.817,0.802-1.817l0.617,0.152l-1.173,4.749l-0.605-0.2
			c0,0,0.271-0.891,0.019-1.708L734.962,484.698z M723.345,474.823l-12.984,2.385l8.906,7.391l12.889-2.408L723.345,474.823z"/>
		<path style="fill:none;stroke:#000000;" d="M712.72,448.194l1.03-6.076l0.579,0.099c0,0-0.417,2.459,1.415,2.77l40.985,6.952
			c1.832,0.311,2.249-2.148,2.249-2.148l0.579,0.099l-1.031,6.075l-21.408,1.925l19.576,8.876l-1.03,6.075l-0.578-0.098
			c0,0,0.408-2.411-1.424-2.722l-40.985-6.952c-1.784-0.303-2.241,2.1-2.241,2.1l-0.578-0.098l1.03-6.075l21.649-1.884
			L712.72,448.194z M734.754,458.082l-18.899,1.755l36.404,6.175L734.754,458.082z M754.283,455.244l-36.597-6.208l17.271,7.841
			L754.283,455.244z"/>
		<path style="fill:none;stroke:#000000;" d="M716.229,407.69l11.251-10.749l2.444,0.056l-9.4,8.981l39.747,0.906
			c1.857,0.042,1.914-2.451,1.914-2.451l0.587,0.013l-0.196,8.604l-0.587-0.013c0,0,0.057-2.444-1.802-2.487l-39.502-0.899
			l9.96,9.374l-2.444-0.057L716.229,407.69z"/>
		<path style="fill:none;stroke:#000000;" d="M715.665,378.822l-0.303-6.105l0.586-0.029c0,0,0.102,2.051,1.535,2.323l41.959-2.035
			c1.856-0.092,1.735-2.534,1.735-2.534l0.586-0.029l0.424,8.547l-0.586,0.029c0,0-0.121-2.442-1.978-2.35l-40.29,2.1l15.508,4.665
			l-15.016,6.23l40.344-2.004c1.856-0.092,1.735-2.534,1.735-2.534l0.586-0.029l0.425,8.548l-0.586,0.029
			c0,0-0.122-2.442-1.978-2.35l-41.954,2.133c-1.399,0.412-1.298,2.464-1.298,2.464l-0.586,0.029l-0.304-6.105l0.538-0.026
			l15.65-6.262l-16.245-4.726L715.665,378.822z"/>
		<path style="fill:none;stroke:#000000;" d="M713.223,355.576l-0.756-6.116l0.631-0.078c0,0,0.234,1.893,1.52,2.325l41.834-5.218
			c1.845-0.228,1.545-2.655,1.545-2.655l0.582-0.072l1.05,8.494l-0.583,0.072c0,0-0.294-2.378-2.138-2.151l-9.714,1.151
			l-14.467,7.356l15.816,3.565l9.707-1.2c1.845-0.228,1.545-2.655,1.545-2.655l0.582-0.072l1.05,8.494l-0.583,0.072
			c0,0-0.293-2.378-2.138-2.15l-41.646,5.145c-1.336,0.757-1.114,2.553-1.114,2.553l-0.631,0.078l-0.75-6.067l14.958-7.367
			L713.223,355.576z M717.009,355.108l13.79,3.126l12.754-6.455L717.009,355.108z M730.961,359.545l-12.706,6.448l26.696-3.298
			L730.961,359.545z"/>
		<path style="fill:none;stroke:#000000;" d="M708.443,328.96l-0.479-2.398l0.575-0.115c0,0,0.479,2.398,2.302,2.034l13.188-2.635
			l-8.559,18.567l37.935-7.58l-14.979-13.814l13.188-2.635c1.822-0.364,1.343-2.762,1.343-2.762l0.576-0.115l1.677,8.393
			l-0.576,0.115c0,0-0.479-2.398-2.301-2.034l-9.592,1.917l15.229,13.814l-44.361,8.864l-1.199,0.239l8.751-18.605l-11.99,2.396
			l-0.719-3.597L708.443,328.96z"/>
		<path style="fill:none;stroke:#000000;" d="M733.237,308.727l-11.008,9.154l-18.411-3.407l11.759-9.921l14.929,2.751l15.53-13.153
			c0.275-0.838,0.013-1.78,0.013-1.78l0.612-0.17l1.81,6.502l-0.613,0.17c0,0-0.275-0.99-0.942-1.565l-12.772,10.66l16.688,2.871
			c0.463-0.89-0.194-1.976-0.194-1.976l0.612-0.17l1.311,4.712l-0.625,0.123c0,0-0.202-0.908-0.823-1.497L733.237,308.727z
			 M718.27,305.834l-10.137,8.455l11.387,2.062l10.042-8.428L718.27,305.834z"/>
		<path style="fill:none;stroke:#000000;" d="M737.008,266.567l0.552-0.199l0.613,1.702l-19.944,22.11l-14.119-8.738l-3.208,16.336
			l40.163-14.479c1.748-0.63,0.919-2.931,0.919-2.931l0.552-0.199l0.829,2.3l1.244,3.451l0.829,2.3l-0.552,0.199
			c0,0-0.796-2.208-2.485-1.703l-39.594,14.327c-1.218,0.803-0.521,2.735-0.521,2.735l-0.552,0.199l-0.813-2.254l-1.228-3.404
			l-0.096-0.122l3.658-18.837l14.811,9.216l18.582-20.267C737.26,267.412,737.156,266.981,737.008,266.567z"/>
	</g>
</g>
<circle style="fill:none;stroke:#000000;stroke-width:6;stroke-miterlimit:10;" cx="400" cy="400" r="316.087"/>
<polygon style="fill:none;stroke:#000000;stroke-width:2;" points="126.214,559 400,84.789 673.785,559 "/>
<polygon style="fill:none;stroke:#000000;stroke-width:2;" points="126.214,242 400,716.211 673.785,242 "/>
<g>
	<path d="M459.266,514.125l15.692-1.278L458.2,485.134l2.412-1.458l18.468,30.542l-2.412,1.458l-0.02-0.031l-15.672,1.31
		L459.266,514.125z"/>
	<path d="M432.369,497.882l8.282,7.078l1.396-10.806l3.051-1.175l-1.81,14.227l9.373,8.026l-2.624,14.098l-11.402-8.695l1.568-12.24
		l-10.885-9.338L432.369,497.882z M442.839,510.641l-1.118,8.806l6.466,5.079l1.389-8.104L442.839,510.641z"/>
	<path d="M432.057,535.025l-15.26-10.438l7.584-5.295l-12.791-16.654l2.767-0.536l13.891,17.398l-6.662,5.116l9.861,6.662
		l-6.063-31.312l2.804-0.543l6.784,35.036l-1.733,0.336l-1.07,0.207L432.057,535.025z"/>
	<path d="M407.588,502.836l2.817-0.047l0.632,35.688l-2.855,0.048l-0.009-0.563l-5.689-12.193l-5.543,12.418l0.009,0.525
		l-2.855,0.048l-0.557-35.689l2.817-0.047l0.537,29.978l5.396-12.227l5.8,12.04L407.588,502.836z"/>
	<path d="M369.983,535.63l5.61-35.254l2.301,0.366l-1.553,9.76l4.282,11.106l7.778-9.188l1.59-9.754l2.301,0.366l-5.61,35.254
		l-2.301-0.366l-4.319-11.836l-7.742,9.917L369.983,535.63z M375.68,514.658l-2.658,16.699l5.967-7.611L375.68,514.658z
		 M381.772,524.188l3.347,9.094l2.664-16.736L381.772,524.188z"/>
	<path d="M331.768,520.718l17.323-31.21l2.464,1.368l-17.323,31.209L331.768,520.718z"/>
	<path d="M319.413,513.164l-5.021-16.175l-5.92,7.294l-2.188-1.776l9.473-11.67l5.021,16.175l15.393-18.964l-16.861-1.587
		l9.473-11.67l2.188,1.776l-5.92,7.294l16.861,1.587L319.413,513.164z"/>
	<path d="M312.508,483.605l-0.053-0.004l-14.458-6.111l18.813-16.275l1.847,2.128l-15.184,13.177l14.458,6.111l-16.976,14.78
		l-1.872-2.157L312.508,483.605z"/>
	<path d="M283.297,474.991l1.683-10.422l9.189-11.196l13.084-7.837l1.254,2.095l-12.697,7.605l-8.544,10.372l-1.411,8.902
		l0.231,0.387l28.521-17.083l1.467,2.449l-30.615,18.337L283.297,474.991z"/>
	<path d="M267.458,441.601l33.37-12.684l0.828,2.178l-9.238,3.511l-7.501,9.244l11.841,2.172l9.251-3.477l0.828,2.179
		l-33.369,12.684l-0.828-2.178l8.116-9.638l-12.455-1.778L267.458,441.601z M288.482,436.102l-15.807,6.008l9.572,1.387
		L288.482,436.102z M283.25,446.131l-6.221,7.43l15.841-6.021L283.25,446.131z"/>
	<path d="M261,396.478l0.1-2.367l35.759-0.594l0.074,2.367l-14.42,6.328l14.649,5.881l0.042,2.292l-35.686,0.632l-0.038-2.329
		l14.523-6.332L261,396.516V396.478z M290.844,395.986l-22.916,0.419l11.424,4.544L290.844,395.986z M279.359,403.617l-11.303,4.998
		l23.028-0.384L279.359,403.617z"/>
	<path d="M299.114,378.785l-10.278,3.615l8.648,6.627l-0.514,3.229l-11.4-8.701l-11.646,4.083l-10.88-9.341l13.242-5.503
		l9.804,7.496l13.538-4.732L299.114,378.785z M282.825,381.443l-7.057-5.385l-7.638,3.046l6.315,5.267L282.825,381.443z"/>
	<path d="M281.482,350.073l-11.266,11.001l30.594,10.641l-0.926,2.662l-33.717-11.727l0.926-2.662l0.036,0.012l11.23-11.013
		L281.482,350.073z"/>
	<path d="M312.559,345.409l-10.893-0.162l5.823,9.208l-1.598,2.852l-7.688-12.105l-12.338-0.196l-6.978-12.526l14.327-0.584
		l6.606,10.422l14.338,0.24L312.559,345.409z M296.356,342.271l-4.76-7.492l-8.22,0.217l4.104,7.125L296.356,342.271z"/>
	<path d="M289.081,316.617l18.41-1.727l-2.449,8.921l20.485,4.635l-1.785,2.18l-21.807-4.503l1.854-8.194l-11.843,1.179
		l24.679,20.209l-1.809,2.209L287.2,318.913l1.119-1.366l0.69-0.843L289.081,316.617z"/>
	<path d="M332.984,299.225l0.013-0.051l8.542-13.165l12.736,21.363l-2.418,1.446l-10.319-17.249l-8.542,13.165l-11.585-19.293
		l2.451-1.466L332.984,299.225z"/>
	<path d="M351.879,269.941l12.669,33.37l-2.634,1l-12.669-33.369L351.879,269.941z"/>
	<path d="M384.548,274.234l-8.25-5.634l5.657,30.021l-2.77,0.521l-5.65-29.984l-5.604,8.206l-0.696-3.692l6.743-9.874l9.874,6.743
		L384.548,274.234z"/>
	<path d="M428.473,274.6l-12.803-9.157l-1.013,6.343l12.878,9.168l-0.542,2.918l-12.804-9.157l-3.623,22.702l-2.782-0.444
		l5.625-35.239l2.781,0.444l-0.006,0.037l12.81,9.12L428.473,274.6z"/>
	<path d="M453.306,271.715l-11.728,33.717l-2.2-0.765l3.246-9.334l-2.261-11.688l-9.274,7.675l-3.281,9.322l-2.201-0.765
		l11.728-33.718l2.2,0.766l2.169,12.411l9.366-8.399L453.306,271.715z M439.686,280.903l-1.694-9.541l-5.567,16.007L439.686,280.903
		z M444.007,291.357l5.555-15.972l-7.214,6.443L444.007,291.357z"/>
	<path d="M445.219,307.304l-2.457-1.379l17.435-31.141l2.49,1.397l-0.276,0.491l-1.229,13.397l11.044-7.933l0.257-0.458l2.49,1.397
		l-17.501,31.104l-2.457-1.379l14.641-26.161l-10.82,7.842l1.058-13.321L445.219,307.304z"/>
	<path d="M486.457,307.377l-0.987-9.943l-19.364,23.632l-2.181-1.787l19.341-23.603l-9.89,0.981l2.382-2.907l11.899-1.181
		l1.182,11.9L486.457,307.377z"/>
</g>
</svg>
