<?xml version="1.0" encoding="iso-8859-1"?>
<!-- Generator: Adobe Illustrator 15.0.0, SVG Export Plug-In . SVG Version: 6.00 Build 0)  -->
<!DOCTYPE svg PUBLIC "-//W3C//DTD SVG 1.1//EN" "http://www.w3.org/Graphics/SVG/1.1/DTD/svg11.dtd">
<svg version="1.1" id="&#x30EC;&#x30A4;&#x30E4;&#x30FC;_1"
	 xmlns="http://www.w3.org/2000/svg" xmlns:xlink="http://www.w3.org/1999/xlink" x="0px" y="0px" width="800px" height="800px"
	 viewBox="0 0 800 800" style="enable-background:new 0 0 800 800;" xml:space="preserve">
<circle style="fill:none;stroke:#000000;stroke-width:4;stroke-miterlimit:10;" cx="400" cy="400" r="380"/>
<circle style="fill:none;stroke:#000000;stroke-width:6;stroke-miterlimit:10;" cx="400" cy="400" r="339.434"/>
<circle style="fill:none;stroke:#000000;stroke-width:2;stroke-miterlimit:10;" cx="400" cy="400" r="387.546"/>
<circle style="fill:none;stroke:#000000;stroke-width:8;stroke-miterlimit:10;" cx="400" cy="400" r="205"/>
<g>
	<path d="M517.794,67.347l11.067,12.035l11.996-31.423l2.734,1.044l-13.221,34.63l-2.734-1.043l0.015-0.037l-11.082-11.999
		L517.794,67.347z"/>
	<path d="M510.427,37.277l2.106,11.115l8.152-7.842l3.234,1.031l-10.712,10.343l2.372,12.592l-11.287,9.709l-3.581-14.452
		l9.226-8.893l-2.744-14.635L510.427,37.277z M510.612,54.414l-6.629,6.403l1.935,8.316l6.392-5.66L510.612,54.414z"/>
	<path d="M491.58,70.385l-9.654-16.603l9.477-1.581L486.84,30.87l2.834,0.732l5.263,22.521l-8.532,1.825l6.275,10.65l8.291-32.076
		l2.871,0.742l-9.277,35.892l-1.775-0.459l-1.096-0.283L491.58,70.385z"/>
	<path d="M480.546,29.501l2.87,0.573l-7.224,36.363l-2.908-0.581l0.114-0.574l-3.088-13.63l-8.362,11.383l-0.106,0.536l-2.909-0.581
		l7.301-36.348l2.87,0.573l-6.062,30.546l8.171-11.222l3.233,13.5L480.546,29.501z"/>
	<path d="M440.256,60.282l5.232-36.704l2.396,0.341l-1.448,10.161l4.634,11.462l7.923-9.671l1.487-10.156l2.395,0.341l-5.232,36.704
		l-2.396-0.341l-4.684-12.218l-7.873,10.428L440.256,60.282z M445.818,38.408l-2.479,17.386l6.068-8.004L445.818,38.408z
		 M452.306,48.203l3.629,9.387l2.484-17.424L452.306,48.203z"/>
	<path d="M410.15,58.193l1.204-37.052l2.925,0.095l-1.203,37.051L410.15,58.193z"/>
	<path d="M401.575,57.937l-14.837-9.445l0.206,9.754l-2.926,0.062l-0.33-15.606l14.837,9.445l-0.536-25.361l-14.425,10.063
		l-0.33-15.607l2.926-0.062l0.206,9.754l14.425-10.063L401.575,57.937z"/>
	<path d="M378.282,40.181l-0.036,0.042l-14.046,8.27l-1.921-25.761l2.918-0.222l1.583,20.817l14.046-8.27l1.812,23.304l-2.957,0.225
		L378.282,40.181z"/>
	<path d="M359.37,60.411l-9.245-5.905l-6.886-13.382l-2.076-15.711l2.515-0.332l2.014,15.246l6.366,12.427l7.907,5.019l0.464-0.061
		l-4.524-34.246l2.941-0.389l4.856,36.761L359.37,60.411z"/>
	<path d="M327.682,65.592l-6.886-36.428l2.377-0.449L325.08,38.8l8.083,9.354l4.379-11.71l-1.868-10.092l2.377-0.449l6.886,36.428
		l-2.377,0.45l-8.374-10.054l-4.088,12.41L327.682,65.592z M325.892,43.094l3.261,17.255l3.163-9.534L325.892,43.094z
		 M335.192,50.272l6.462,7.714l-3.269-17.293L335.192,50.272z"/>
	<path d="M293.859,74.767l-2.351,0.72l-10.857-35.442l2.351-0.72l10.467,12.586l1.658-16.301l2.276-0.697l10.895,35.431
		l-2.313,0.708l-10.536-12.81l-1.552,16.513L293.859,74.767z M284.864,45.406l7.009,22.746l1.25-12.707L284.864,45.406z
		 M295.783,54.671l8.238,9.841l-7.006-22.87L295.783,54.671z"/>
	<path d="M264.061,46.046l8.498,7.475l1.61-11.202l3.186-1.175l-2.091,14.749l9.616,8.477l-2.936,14.603l-11.713-9.201l1.81-12.69
		l-11.166-9.86L264.061,46.046z M274.746,59.453l-1.292,9.13l6.64,5.372l1.563-8.397L274.746,59.453z"/>
	<path d="M252.015,79.652l16.332,0.877l-13.377-30.87l2.686-1.164l14.742,34.022l-2.686,1.164l-0.015-0.036l-16.316-0.842
		L252.015,79.652z"/>
	<path d="M225.742,63.279l9.272,6.482l0.354-11.308l3.035-1.521l-0.438,14.885l10.495,7.353l-1.293,14.834l-12.66-7.839
		l0.388-12.809L222.707,64.8L225.742,63.279z M237.847,75.411l-0.27,9.214l7.194,4.6l0.62-8.517L237.847,75.411z"/>
	<path d="M235.421,100.125l-18.509-5.135l5.677-7.753L204.42,75.159l2.54-1.456l19.501,12.438l-4.831,7.268l11.932,3.237
		L217.083,67.9l2.573-1.475l18.439,32.167l-1.592,0.912l-0.981,0.563L235.421,100.125z"/>
	<path d="M192.856,104.961l-0.009,0.055l-7.599,14.421l-15.181-20.902l2.365-1.724l12.294,16.874l7.599-14.42l13.796,18.869
		l-2.397,1.747L192.856,104.961z"/>
	<path d="M182.877,135.812l-23.454-28.716l2.267-1.852l23.454,28.716L182.877,135.812z"/>
	<path d="M154.613,143.832l10.364,0.468l-21.399-23.421l2.161-1.974l21.373,23.393l0.465-10.309l2.632,2.881l-0.56,12.404
		l-12.404-0.56L154.613,143.832z"/>
	<path d="M129.503,173.519l15.149-6.164l-5.01-4.41l-15.201,6.223l-2.263-2.096l15.149-6.164l-17.93-15.782l1.934-2.197
		l27.832,24.498l-1.934,2.197l-0.029-0.026l-15.12,6.19L129.503,173.519z"/>
	<path d="M125.815,195.446l-29.137-22.918l1.496-1.901l8.066,6.345l12.239,1.733l-4.399-11.701l-8.042-6.375l1.496-1.901
		l29.136,22.918l-1.496,1.901l-12.918-2.069l5.078,12.037L125.815,195.446z M109.676,179.673l13.801,10.856l-3.885-9.262
		L109.676,179.673z M121.401,178.967l9.94,1.563l-13.833-10.88L121.401,178.967z"/>
	<path d="M92.875,177.758l1.68-2.396l30.377,21.248l-1.703,2.428l-0.479-0.336l-13.719-2.66l7.053,12.236l0.448,0.313l-1.703,2.428
		l-30.332-21.312l1.68-2.396l25.52,17.843l-6.983-11.996l13.658,2.474L92.875,177.758z"/>
	<path d="M94.031,220.369l10.103-2.358L77.19,201.264l1.545-2.486l26.912,16.727l-2.346-10.049l3.314,2.06l2.822,12.092
		l-12.092,2.822L94.031,220.369z"/>
	<path d="M47.593,260.12l15.729-4.078l-12.017-4.944l1.114-2.707l34.283,14.104l-1.114,2.707l-18.477-7.602l-20.943,5.983
		L47.593,260.12z"/>
	<path d="M40.198,280.384l11.169-1.819l-7.632-8.356l1.115-3.207l10.067,10.979l12.654-2.047l9.417,11.539l-14.544,3.207
		l-8.655-9.455l-14.707,2.366L40.198,280.384z M57.34,280.642l6.232,6.795l8.366-1.719l-5.495-6.539L57.34,280.642z"/>
	<path d="M54.771,302.853l-19.699-5.632l0.805-2.814l21.087,6.029l4.482-4.888l3.264,0.933l-4.407,4.91l11.219,3.207l-0.805,2.814
		l-12.645-3.615l-4.445,4.899l-3.302-0.944L54.771,302.853z"/>
	<path d="M49.825,314.117l0.029,0.047l3.77,15.857l-25.184-5.745l0.646-2.854l20.359,4.612l-3.769-15.857l22.804,5.126l-0.655,2.893
		L49.825,314.117z"/>
	<path d="M27.267,330.593l0.486-2.886l36.565,6.123l-0.493,2.924l-0.577-0.097l-13.531,3.498l11.63,8.015l0.539,0.091l-0.493,2.925
		l-36.552-6.199l0.486-2.886l30.715,5.137l-11.463-7.829l13.396-3.639L27.267,330.593z"/>
	<path d="M22.837,361.947l14-8.254L23.92,352.25l0.325-2.909l36.849,4.117l-0.325,2.909l-19.859-2.219l-18.488,11.522
		L22.837,361.947z"/>
	<path d="M45.451,388.223l7.737-6.911l-31.671-1.786l0.165-2.922l31.632,1.784l-6.874-7.695l3.896,0.22l8.271,9.259l-9.26,8.271
		L45.451,388.223z"/>
	<path d="M21.074,393.43l0.047-2.926l37.067,0.555l-0.048,2.965l-0.585-0.009l-12.85,5.492l12.702,6.175l0.546,0.009l-0.047,2.965
		l-37.065-0.633l0.047-2.927l31.136,0.461l-12.509-6.016l12.695-5.611L21.074,393.43z"/>
	<path d="M46.298,427.34l6.945-7.708l-31.684,1.649l-0.152-2.923l31.645-1.647l-7.667-6.908l3.897-0.203l9.225,8.312l-8.312,9.226
		L46.298,427.34z"/>
	<path d="M59.536,432.422l-6.125,9.1l-13.542,6.563l-15.754,1.697l-0.272-2.522l15.289-1.647l12.575-6.065l5.207-7.783l-0.05-0.466
		l-34.34,3.7l-0.318-2.949l36.863-3.972L59.536,432.422z"/>
	<path d="M61.621,449.978l-11.294,15.537l-5.273-8.034l-17.677,12.787l-0.474-2.889l18.482-13.907l5.115,7.071l7.212-10.043
		l-32.697,5.363l-0.48-2.927l36.588-6.001l0.297,1.81l0.183,1.117L61.621,449.978z"/>
	<path d="M62.636,503.526l3.085-16.06l-6.426,1.798l-3.064,16.135l-2.99,0.756l3.085-16.06l-23,6.434l-0.789-2.818l35.704-9.987
		l0.789,2.818l-0.038,0.011l-3.048,16.049L62.636,503.526z"/>
	<path d="M78.246,516.26l0.794,2.326L43.96,530.56l-0.794-2.326l12.249-10.859l-16.345-1.142l-0.769-2.253l35.067-12.01l0.781,2.289
		l-12.47,10.936l16.554,1.028L78.246,516.26z M58.1,514.973l9.575-8.545l-22.636,7.726L58.1,514.973z M49.185,526.179l22.513-7.725
		l-12.74-0.847L49.185,526.179z"/>
	<path d="M83.363,529.371l-34.37,13.916l-1.099-2.713l34.37-13.916L83.363,529.371z"/>
	<path d="M86.66,537.467l-2.581,17.396l8.824-4.161l1.249,2.646l-14.118,6.659l2.581-17.397l-22.94,10.821l15.066,9.073
		l-14.117,6.659l-1.249-2.647l8.823-4.162l-15.066-9.073L86.66,537.467z"/>
	<path d="M99.644,563.601l-32.601,17.656l-1.394-2.574l32.601-17.656L99.644,563.601z"/>
	<path d="M89.647,583.451l0.054,0.013l13.788,8.697l-22.021,13.513l-1.535-2.492l17.78-10.947l-13.788-8.698l19.887-12.29
		l1.555,2.526L89.647,583.451z"/>
	<path d="M119.617,595.814l-30.441,21.149l-1.67-2.403l30.441-21.149L119.617,595.814z"/>
	<path d="M103.772,636.516l4.249-15.687l-10.249,7.992l-1.8-2.308l29.238-22.802l1.8,2.308l-15.758,12.289l-5.176,21.162
		L103.772,636.516z"/>
	<path d="M143.042,625.618L115.108,650l-1.925-2.205l27.934-24.382L143.042,625.618z"/>
	<path d="M144.423,651.464l-14.668,14.3l-2.043-2.096l15.702-15.308l-2.017-6.316l2.431-2.369l2.073,6.262l8.354-8.144l2.043,2.095
		l-9.416,9.18l2.044,6.289l-2.458,2.396L144.423,651.464z"/>
	<path d="M136.993,673.071l10.094-4.873l3.163-8.114l8.33-4.799l3.663-9.351l1.982,1.821l-5.721,14.878l14.341-6.959l2.04,1.874
		l-10.063,4.955l-2.99,7.638l-7.953,4.563l-3.957,10.246l-2.155-1.979l5.854-15.021l-14.473,7.103L136.993,673.071z
		 M150.523,666.534l4.544-2.236l1.92-4.858l-4.583,2.624L150.523,666.534z M157.113,666.282l-1.991,5.165l4.61-2.652l1.736-4.657
		L157.113,666.282z"/>
	<path d="M170.809,701.966l-2.357-1.733l21.93-29.885l2.389,1.757l-0.347,0.472l-2.97,13.653l12.392-6.772l0.324-0.44l2.389,1.757
		l-21.993,29.838l-2.357-1.733l18.416-25.106l-12.15,6.708l2.783-13.597L170.809,701.966z"/>
	<path d="M214.519,700.154l-8.259-14.114l-18.401,28.161l-2.45-1.602l20.279-31.035l2.45,1.601l-0.021,0.033l8.28,14.081
		L214.519,700.154z"/>
	<path d="M230.415,697.019l-18.526,32.108l-2.535-1.463l18.525-32.108L230.415,697.019z"/>
	<path d="M247.961,720.6l-3.242-9.857l-14.304,28.322l-2.612-1.319l14.286-28.287l-9.804,3.225l1.759-3.484l11.796-3.879
		l3.88,11.797L247.961,720.6z"/>
	<path d="M287.008,742.403l0.049-0.025l16.107-2.508l-7.714,24.656l-2.794-0.87l6.204-19.936l-16.107,2.508l6.909-22.331
		l2.832,0.881L287.008,742.403z"/>
	<path d="M301.664,766.193l-2.839-0.711l8.979-35.975l2.877,0.722l-0.142,0.568l2.423,13.765l8.905-10.965l0.133-0.53l2.877,0.722
		l-9.054,35.954l-2.839-0.712l7.536-30.219l-8.706,10.813l-2.575-13.643L301.664,766.193z"/>
	<path d="M341.05,736.946l2.415,0.464l-7.001,36.414l-2.415-0.465l-3.357-16.027l-9.1,13.632l-2.338-0.449l6.963-36.421l2.376,0.457
		l3.313,16.258l9.106-13.87L341.05,736.946z M329.938,753.809l-2.673-12.558l-4.518,23.496L329.938,753.809z M335.25,767.111
		l4.457-23.389l-7.055,10.647L335.25,767.111z"/>
	<path d="M378.24,741.329l2.451,0.197l-2.972,36.95l-2.45-0.197l-5.091-15.559l-7.55,14.542l-2.373-0.19l2.933-36.953l2.412,0.193
		l5.072,15.793l7.53-14.779L378.24,741.329z M369.043,759.302l-4.031-12.186l-1.917,23.843L369.043,759.302z M375.778,771.939
		l1.869-23.729l-5.845,11.352L375.778,771.939z"/>
	<path d="M395.33,779.03l-5.131-10.086l-5.637,9.813l-3.395-0.086l7.396-12.931l-5.8-11.431l8.125-12.481l7.481,12.879
		l-6.373,11.121l6.729,13.289L395.33,779.03z M390.359,762.624l4.576-8.005l-4.183-7.446l-4.557,7.225L390.359,762.624z"/>
	<path d="M425.39,778.234l-2.917,0.239l-3.068-36.946l2.956-0.242l0.048,0.583l6.721,12.253l4.905-13.245l-0.045-0.545l2.956-0.242
		l2.991,36.953l-2.917,0.239l-2.584-31.035l-4.766,13.039l-6.825-12.088L425.39,778.234z"/>
	<path d="M448.43,738.561l5.073,36.718l-2.898,0.4l-5.073-36.718L448.43,738.561z"/>
	<path d="M461.396,736.496l9.588,5.324l7.693,12.931l3.035,15.55l-2.489,0.486l-2.946-15.09l-7.115-12.01l-8.198-4.522l-0.46,0.09
		l6.617,33.895l-2.911,0.568l-7.103-36.385L461.396,736.496z"/>
	<path d="M483.075,750.847l0.028-0.048l12.419-10.56l6.315,25.051l-2.837,0.72l-5.135-20.236l-12.419,10.559l-5.787-22.648
		l2.875-0.729L483.075,750.847z"/>
	<path d="M510.785,723.727l11.119,35.369l-2.309,0.726l-3.078-9.792l-9.127-8.34l-2.974,12.144l3.041,9.804l-2.309,0.726
		l-11.118-35.37l2.309-0.726l9.498,9.002l2.603-12.805L510.785,723.727z M505.127,739.823l-7.324-6.902l5.278,16.791
		L505.127,739.823z M515.207,745.859l-5.267-16.754l-2.021,9.84L515.207,745.859z"/>
	<path d="M538.466,752.972l-8.549-7.412l-1.529,11.211l-3.177,1.197l1.985-14.76l-9.674-8.406l2.829-14.619l11.776,9.114
		l-1.719,12.699l11.233,9.778L538.466,752.972z M527.688,739.645l1.227-9.137l-6.677-5.323l-1.502,8.406L527.688,739.645z"/>
	<path d="M543.702,710.455l2.248-0.993l14.989,33.905l-2.249,0.994l-11.888-11.256l0.289,16.384l-2.178,0.962l-15.024-33.89
		l2.213-0.979l11.982,11.471l-0.419-16.582L543.702,710.455z M544.177,730.64l-9.349-8.795l9.672,21.878L544.177,730.64z
		 M556.119,738.544l-9.66-21.756l0.268,12.767L556.119,738.544z"/>
	<path d="M585.248,702.587l-10.029-2.656l15.941,27.429l-2.53,1.471l-15.921-27.395l-2.643,9.976l-1.961-3.374l3.18-12.003
		l12.002,3.18L585.248,702.587z"/>
	<path d="M602.946,720.229l-2.446,1.607l-20.399-30.956l2.479-1.629l0.321,0.489l11.771,7.532l-2.043-13.976l-0.3-0.456l2.479-1.63
		l20.334,31l-2.446,1.607l-17.141-26l2.066,13.727l-11.783-7.338L602.946,720.229z"/>
	<path d="M610.01,670.022l22.048,29.804l-1.945,1.438l-6.104-8.25l-11.348-4.906l1.151,12.448l6.073,8.274l-1.945,1.438
		l-22.048-29.803l1.944-1.439l11.914,5.409l-1.718-12.952L610.01,670.022z M609.913,687.084l-9.175-4.135l10.467,14.148
		L609.913,687.084z M621.409,689.501l-10.443-14.118l1.3,9.96L621.409,689.501z"/>
	<path d="M611.154,669.142l17.492-1.827l-6.226-7.511l2.253-1.868l9.961,12.018l-17.492,1.827l16.187,19.529l5.041-16.85
		l9.961,12.018l-2.253,1.868l-6.226-7.512l-5.041,16.85L611.154,669.142z"/>
	<path d="M661.336,674.575l-10.713-3.641l2.813,10.96l-2.49,2.307l-3.729-14.418l-12.13-4.136l-2.894-14.607l14.344,4l3.198,12.409
		l14.093,4.818L661.336,674.575z M646.327,666.298l-2.31-8.925l-8.192-2.411l1.78,8.352L646.327,666.298z"/>
	<path d="M641.788,641.881l19.203-0.219l-3.295,9.025l20.809,6.542l-2.033,2.104l-22.188-6.519l2.616-8.323l-12.359,0.212
		l23.824,23.021l-2.061,2.133l-26.658-25.76l1.274-1.318l0.786-0.814L641.788,641.881z"/>
	<path d="M671.195,608.33l29.297,22.715l-1.794,2.313l-29.296-22.715L671.195,608.33z"/>
	<path d="M696.277,601.981l16.863,11.64l-1.663,2.409l-18.052-12.46l-5.811,3.197l-2.795-1.929l5.747-3.242l-9.604-6.629
		l1.663-2.409l10.824,7.472l5.778-3.219l2.827,1.95L696.277,601.981z"/>
	<path d="M726.015,593.493l-16.176,1.545l11.087,6.778l-1.526,2.497l-31.63-19.337l1.526-2.497l17.047,10.422l21.626-2.604
		L726.015,593.493z"/>
	<path d="M701.984,560.578l32.658,17.555l-1.386,2.578l-32.659-17.555L701.984,560.578z"/>
	<path d="M712.493,539.195l1.042-2.228l33.587,15.714l-1.042,2.228l-16.361-0.674l10.985,12.164l-1.009,2.156l-33.604-15.678
		l1.026-2.192l16.573,0.773l-11.215-12.229L712.493,539.195z M726.118,554.103l-12.83-0.486l21.673,10.139L726.118,554.103z
		 M740.317,552.213l-21.583-10.055l8.593,9.45L740.317,552.213z"/>
	<path d="M717.932,526.19l34.399,13.814l-1.091,2.716l-34.398-13.814L717.932,526.19z"/>
	<path d="M725.988,503.77l0.788-2.329l35.123,11.872l-0.787,2.329l-16.333,1.153l12.271,10.862l-0.763,2.256l-35.136-11.835
		l0.774-2.293l16.555-1.078l-12.505-10.9L725.988,503.77z M741.187,517.063l-12.802,0.946l22.664,7.66L741.187,517.063z
		 M755.086,513.604l-22.565-7.586l9.591,8.433L755.086,513.604z"/>
	<path d="M728.365,495.891l9.046-6.204l15.006-1.111l15.271,4.225l-0.676,2.445l-14.819-4.101l-13.925,1.007l-7.707,5.318
		l-0.125,0.451l33.287,9.21l-0.79,2.858l-35.732-9.887L728.365,495.891z"/>
	<path d="M750.716,474.869l20.019,4.35l-0.621,2.859l-21.431-4.656l-4.157,5.166l-3.317-0.721l4.081-5.183l-11.401-2.478
		l0.622-2.859l12.85,2.792l4.12-5.175l3.355,0.729L750.716,474.869z"/>
	<path d="M751.525,447.978l-8.399,6.087l31.324,5l-0.461,2.89l-31.285-4.994l6.055,8.355l-3.853-0.615l-7.286-10.053l10.053-7.285
		L751.525,447.978z"/>
	<path d="M741.31,421.75l7.467-8.03l14.396-4.368l15.822,0.78l-0.125,2.533l-15.354-0.758l-13.363,4.028l-6.355,6.875l-0.023,0.468
		l34.489,1.701l-0.146,2.962l-37.022-1.826L741.31,421.75z"/>
	<path d="M754.498,389.712l-7.218,7.453l31.721-0.509l0.047,2.926l-31.682,0.508l7.413,7.18l-3.901,0.063l-8.919-8.638l8.638-8.92
		L754.498,389.712z"/>
	<path d="M749.444,351.223l-5.597,15.364l33.422-3.801l0.331,2.908l-36.834,4.189l-0.331-2.908l0.039-0.004l5.558-15.36
		L749.444,351.223z"/>
	<path d="M746.235,331.93l-4.739,15.649l6.578-1.119l4.726-15.727l3.052-0.44l-4.738,15.649l23.542-4.006l0.491,2.885l-36.544,6.219
		l-0.491-2.885l0.038-0.006l4.7-15.643L746.235,331.93z"/>
	<path d="M738.598,313.59l3.348-0.764l9.868,9.394l2.96-12.282l2.967-0.677l13.146,12.008l0.651,2.853l-36.139,8.248l-0.65-2.853
		L738.598,313.59z M737.602,328.865l13.353-3.047l0.177-0.801l-10.313-9.413L737.602,328.865z M754.052,324.311l0.668,0.648
		l13.314-3.039l-10.964-9.985L754.052,324.311z"/>
	<path d="M762.861,290.021l-8.075,7.927l11.053,2.425l0.938,3.263l-14.555-3.164l-9.156,8.969l-14.348-3.995l10.032-11.007
		l12.522,2.733l10.649-10.414L762.861,290.021z M748.71,299.695l-9.01-1.957l-5.843,6.229l8.259,2.173L748.71,299.695z"/>
	<path d="M724.869,292.77l8.436-17.252l6.581,7l15.198-15.647l0.966,2.762l-15.797,16.891l-6.259-6.079l-5.366,11.136l31.272-10.934
		l0.979,2.799l-34.992,12.235l-0.605-1.731l-0.374-1.068L724.869,292.77z"/>
	<path d="M752.733,260.884l1.118,2.706l-34.254,14.198l-1.133-2.741l0.541-0.224l9.619-10.142l-14.112-0.629l-0.505,0.208
		l-1.133-2.742l34.282-14.126l1.118,2.705l-28.771,11.933l13.873,0.56l-9.43,10.19L752.733,260.884z"/>
	<path d="M735.366,223.128l1.408,2.566l-32.48,17.878l-1.428-2.6l0.513-0.282l8.444-11.137l-14.095,0.927l-0.479,0.263l-1.428-2.6
		l32.519-17.81l1.408,2.566l-27.28,15.023l13.849-0.97l-8.251,11.164L735.366,223.128z"/>
	<path d="M696.617,205.344l-2.344,10.106l26.92-16.785l1.549,2.483l-26.887,16.764l10.052,2.332l-3.311,2.064l-12.096-2.805
		l2.806-12.095L696.617,205.344z"/>
	<path d="M665.087,183.882l-1.521-1.932l29.122-22.932l1.521,1.931l-7.953,14.308l15.799-4.345l1.473,1.87l-29.099,22.963
		l-1.496-1.9l8.137-14.453l-15.958,4.521L665.087,183.882z M689.212,164.884l-18.675,14.756l12.299-3.428L689.212,164.884z
		 M684.52,178.413l-6.198,11.238l18.791-14.797L684.52,178.413z"/>
	<path d="M681.139,145.737l-3.908,10.617l11.025-2.535l2.243,2.547l-14.506,3.365l-4.439,12.021l-14.674,2.524l4.358-14.237
		l12.485-2.885l5.171-13.964L681.139,145.737z M672.486,160.532l-8.979,2.084l-2.616,8.128l8.393-1.569L672.486,160.532z"/>
	<path d="M645.438,146.596l5.063,15.55l23.979-23.597l2.053,2.086l-26.426,26.006l-2.053-2.086l0.027-0.027l-5.092-15.523
		L645.438,146.596z"/>
	<path d="M651.276,116.184l-2.718,10.984l10.682-3.732l2.511,2.286l-14.052,4.939l-3.092,12.438l-14.311,4.123l2.769-14.633
		l12.095-4.24l3.606-14.451L651.276,116.184z M644.302,131.842l-8.697,3.059l-1.708,8.367l8.171-2.481L644.302,131.842z"/>
	<path d="M620.332,138.416l-1.844-19.117l9.271,2.519l4.758-21.29l2.269,1.848l-4.616,22.662l-8.516-1.903l1.258,12.298
		l20.922-25.689l2.3,1.873l-23.411,28.745l-1.422-1.158l-0.878-0.715L620.332,138.416z"/>
	<path d="M627.4,96.681l2.367,1.72l-21.755,30.015l-2.399-1.743l0.344-0.474l2.89-13.672l-12.353,6.846l-0.321,0.442l-2.398-1.743
		l21.818-29.969l2.368,1.72L599.69,115.04l12.112-6.78l-2.704,13.614L627.4,96.681z"/>
</g>
<polygon style="fill:none;stroke:#000000;stroke-width:4;stroke-miterlimit:10;" points="400,737.25 107.716,231 692.283,231 "/>
<circle style="fill:none;stroke:#000000;stroke-width:2;stroke-miterlimit:10;" cx="400" cy="400" r="168.207"/>
<circle style="fill:none;stroke:#000000;stroke-width:4;stroke-miterlimit:10;" cx="400" cy="400" r="154.057"/>
<polygon style="fill:none;stroke:#000000;stroke-width:4;stroke-miterlimit:10;" points="633.39,601.787 578.664,507 688.115,507 
	"/>
<polygon style="fill:none;stroke:#000000;stroke-width:4;stroke-miterlimit:10;" points="402.39,193.787 347.664,99 457.115,99 "/>
<polygon style="fill:none;stroke:#000000;stroke-width:4;stroke-miterlimit:10;" points="168.39,601.787 113.664,507 223.115,507 
	"/>
<polygon style="fill:none;stroke:#000000;stroke-width:4;stroke-miterlimit:10;" points="269,478 400,251.104 531,478 "/>
</svg>
