<?xml version="1.0" encoding="iso-8859-1"?>
<!-- Generator: Adobe Illustrator 15.0.0, SVG Export Plug-In . SVG Version: 6.00 Build 0)  -->
<!DOCTYPE svg PUBLIC "-//W3C//DTD SVG 1.1//EN" "http://www.w3.org/Graphics/SVG/1.1/DTD/svg11.dtd">
<svg version="1.1" id="&#x30EC;&#x30A4;&#x30E4;&#x30FC;_1"
	 xmlns="http://www.w3.org/2000/svg" xmlns:xlink="http://www.w3.org/1999/xlink" x="0px" y="0px" width="800px" height="800px"
	 viewBox="0 0 800 800" style="enable-background:new 0 0 800 800;" xml:space="preserve">
<circle style="fill:none;stroke:#000000;stroke-width:3;stroke-miterlimit:10;" cx="400" cy="400" r="380"/>
<circle style="fill:none;stroke:#000000;stroke-width:3;stroke-miterlimit:10;" cx="400" cy="400" r="373.044"/>
<g>
	<path d="M145.281,640.885l-3.666-12.98l-20.532,18.664l-1.624-1.787l22.628-20.569l1.624,1.786l-0.024,0.022l3.689,12.959
		L145.281,640.885z"/>
	<path d="M139.316,665.757l2.682-8.942l-8.953,2.646l-1.977-1.985l11.777-3.505l3.048-10.125l11.958-2.821l-2.87,11.946
		l-10.137,3.008l-3.553,11.763L139.316,665.757z M145.693,653.134l7.29-2.171l1.744-6.826l-6.833,1.717L145.693,653.134z"/>
	<path d="M165.781,648.785l0.604,15.833l-7.516-2.518l-4.937,17.307l-1.781-1.631l4.886-18.444l6.923,1.975l-0.448-10.188
		l-18.46,20.157l-1.804-1.652l20.657-22.556l1.116,1.021l0.688,0.631L165.781,648.785z"/>
	<path d="M157.832,682.749l-1.854-1.548l19.574-23.504l1.879,1.568l-0.31,0.371l-3.137,11.095l10.548-4.951l0.289-0.347l1.878,1.568
		l-19.623,23.463l-1.854-1.548l16.438-19.746l-10.347,4.91l2.98-11.059L157.832,682.749z"/>
	<path d="M199.19,676.541l-18.497,24.353l-1.589-1.207l5.121-6.742l1.259-10.119l-9.59,3.792l-5.146,6.722l-1.589-1.207
		l18.497-24.353l1.589,1.207l-1.526,10.685l9.858-4.356L199.19,676.541z M185.659,680.412l1.151-8.222l-8.781,11.562
		L185.659,680.412z M186.405,690.073l8.762-11.535l-7.585,3.334L186.405,690.073z"/>
	<path d="M220.125,690.521l-16.207,25.947l-2.048-1.279l16.207-25.947L220.125,690.521z"/>
	<path d="M226.367,694.409l6.579,12.932l3.944-7.016l2.104,1.184l-6.311,11.225l-6.578-12.932l-10.255,18.239l14.467-1.099
		l-6.311,11.225l-2.104-1.184l3.944-7.015l-14.467,1.099L226.367,694.409z"/>
	<path d="M235.448,716.81l0.043-0.015l13.448,0.132l-9.605,19.027l-2.157-1.085l7.739-15.389l-13.447-0.132l8.636-17.243
		l2.186,1.099L235.448,716.81z"/>
	<path d="M257.537,710.66l3.949,8.141l-0.936,12.377l-5.321,11.938l-1.912-0.853l5.165-11.585l0.889-11.481l-3.392-6.94
		l-0.353-0.157l-11.6,26.022l-2.234-0.996l12.452-27.934L257.537,710.66z"/>
	<path d="M282.119,720.858l-11.147,28.484l-1.859-0.728l3.086-7.886l-1.552-10.081l-8.192,6.268l-3.116,7.874l-1.859-0.728
		l11.147-28.484l1.859,0.728l1.449,10.697l8.295-6.884L282.119,720.858z M270.156,728.278l-1.138-8.225l-5.292,13.522
		L270.156,728.278z M273.513,737.371l5.28-13.492l-6.388,5.279L273.513,737.371z"/>
	<path d="M309.916,729.703l1.948,0.563l-8.48,29.383l-1.948-0.563l-1.556-13.416l-8.496,10.515l-1.887-0.544l8.449-29.393
		l1.917,0.554l1.502,13.602l8.519-10.709L309.916,729.703z M299.525,742.72l-1.254-10.514l-5.472,18.959L299.525,742.72z
		 M302.891,754.045l5.415-18.876l-6.593,8.216L302.891,754.045z"/>
	<path d="M317.378,763.064l-2.414-9.016l-6.228,6.952l-2.724-0.65l8.18-9.167l-2.724-10.216l8.692-8.681l3.832,11.672l-7.045,7.882
		l3.155,11.874L317.378,763.064z M316.175,748.976l5.062-5.675l-2.101-6.724l-4.913,5.049L316.175,748.976z"/>
	<path d="M341.054,745.646l-10.738-8.17l-5.182,27.267l-2.373-0.451l5.711-30.05l2.373,0.451l-0.006,0.031l10.743,8.138
		L341.054,745.646z"/>
	<path d="M351.225,769.099l-3.239-8.756l-5.559,7.5l-2.773-0.396l7.297-9.887l-3.659-9.922l7.853-9.45l4.897,11.27l-6.287,8.503
		l4.242,11.533L351.225,769.099z M348.722,755.179l4.516-6.121l-2.715-6.502l-4.425,5.483L348.722,755.179z"/>
	<path d="M362.128,739.621l10.014,12.276l-7.517,2.515l6.478,16.788l-2.403-0.229l-7.202-17.666l6.715-2.591l-6.491-7.865
		l-2.604,27.205l-2.435-0.233l2.914-30.441l1.506,0.145l0.929,0.089L362.128,739.621z"/>
	<path d="M393.241,756.794l0.033-0.032l12.169-5.729l-0.376,21.313l-2.414-0.039l0.277-17.225l-12.169,5.729l0.278-19.286
		l2.447,0.04L393.241,756.794z"/>
	<path d="M414.914,741.342l1.218,30.558l-2.412,0.096l-1.218-30.557L414.914,741.342z"/>
	<path d="M437.588,750.206l-6.549-5.511l2.245,26.076l-2.405,0.207l-2.242-26.044l-5.481,6.515l-0.276-3.208l6.596-7.838
		l7.838,6.596L437.588,750.206z"/>
	<path d="M469.085,743.781l-12.943-3.804l0.969,5.42l13.007,3.792l0.384,2.516l-12.943-3.804l3.464,19.396l-2.377,0.425
		l-5.378-30.108l2.377-0.424l0.006,0.031l12.938,3.771L469.085,743.781z"/>
	<path d="M482.896,731.609l6.77,29.832l-1.947,0.442l-1.874-8.259l-6.945-7.472l-3.261,9.787l1.843,8.267l-1.947,0.441l-6.77-29.832
		l1.947-0.442l7.206,8.04l3-10.355L482.896,731.609z M477.162,744.467l-5.561-6.167l3.214,14.162L477.162,744.467z M485.046,750.107
		l-3.207-14.131l-2.322,7.956L485.046,750.107z"/>
	<path d="M494.678,760.126l-2.328,0.645l-8.191-29.477l2.358-0.652l0.129,0.466l7.341,8.895l1.931-11.495l-0.12-0.434l2.358-0.653
		l8.13,29.493l-2.327,0.645l-6.887-24.759l-1.85,11.305l-7.399-8.744L494.678,760.126z"/>
	<path d="M516.402,732.502l-7.636-3.867l8.15,24.873l-2.295,0.751l-8.141-24.842l-3.846,7.596l-1.003-3.06l4.628-9.139l9.14,4.628
		L516.402,732.502z"/>
	<path d="M566.76,732.909l-11.939-6.093l4.71,9.629l-2.168,1.061l-13.438-27.47l2.168-1.061l7.242,14.805l16.2,7.771L566.76,732.909
		z"/>
	<path d="M582.33,724.629l-7.842-5.063l0.05,9.334l-2.455,1.346l-0.09-12.285l-8.875-5.744l0.617-12.27l10.674,6.08l0.068,10.572
		l10.308,6.685L582.33,724.629z M571.982,714.992l-0.057-7.604l-6.07-3.574l-0.253,7.039L571.982,714.992z"/>
	<path d="M585.915,702.886l8.796,14.436l-2.063,1.257l-9.416-15.453l-5.452,0.457l-1.458-2.393l5.42-0.512l-5.01-8.221l2.063-1.257
		l5.646,9.266l5.437-0.484l1.474,2.42L585.915,702.886z"/>
	<path d="M595.196,698.863l0.009-0.045l6.695-11.663l11.893,17.686l-2.002,1.351l-9.633-14.278l-6.694,11.663l-10.813-15.968
		l2.028-1.369L595.196,698.863z"/>
	<path d="M617.985,701.81l-1.938,1.442l-18.291-24.522l1.963-1.461l0.289,0.388l10.059,5.64l-2.354-11.414l-0.27-0.362l1.963-1.461
		l18.239,24.561l-1.938,1.442l-15.368-20.596l2.361,11.209l-10.06-5.479L617.985,701.81z"/>
	<path d="M638.477,685.853l-13.018-3.201l6.788,8.298l-1.869,1.528l-19.366-23.672l1.869-1.528l10.438,12.758l17.55,3.86
		L638.477,685.853z"/>
	<path d="M640.385,657.402l-8.546-0.462l17.479,19.477l-1.797,1.612l-17.457-19.452l-0.46,8.5l-2.149-2.396l0.553-10.228
		l10.228,0.553L640.385,657.402z"/>
	<path d="M657.552,668.803l-1.721,1.693l-21.477-21.779l1.744-1.716l0.339,0.344l10.734,4.208l-3.896-10.982l-0.316-0.322
		l1.744-1.716l21.431,21.824l-1.721,1.694L646.37,643.76l3.874,10.777l-10.713-4.048L657.552,668.803z"/>
	<path d="M663.11,634.128l-8.551,0.324l19.19,17.79l-1.641,1.77l-19.168-17.767l0.322,8.506l-2.36-2.188l-0.388-10.234l10.234-0.388
		L663.11,634.128z"/>
	<path d="M658.624,623.283l8.92-1.526l11.631,4.346l9.986,8.438l-1.351,1.599l-9.691-8.188l-10.783-4.052l-7.612,1.325l-0.249,0.295
		l21.769,18.393l-1.58,1.869l-23.367-19.743L658.624,623.283z"/>
	<path d="M668.014,611.963l15.724-1.965l-1.862,7.706l17.67,3.43l-1.472,1.914l-18.799-3.281l1.372-7.068l-10.113,1.323
		l21.673,16.659l-1.491,1.94l-24.252-18.642l0.923-1.2l0.568-0.74L668.014,611.963z"/>
	<path d="M700.117,581.301l-11.548,6.981l4.652,2.945l11.582-7.035l2.115,1.416l-11.548,6.98l16.65,10.543l-1.292,2.04
		l-25.847-16.365l1.292-2.041l0.027,0.018l11.521-6.998L700.117,581.301z"/>
	<path d="M699.483,564.645l1.004-1.762l26.571,15.148l-1.005,1.762l-13.407-1.64l8.226,10.729l-0.973,1.706l-26.587-15.12
		l0.988-1.734l13.575,1.736l-8.409-10.798L699.483,564.645z M709.695,577.805l-10.516-1.252l17.145,9.775L709.695,577.805z
		 M721.495,577.193l-17.077-9.698l6.438,8.34L721.495,577.193z"/>
	<path d="M704.956,554.234l27.238,13.901l-1.098,2.15l-27.238-13.901L704.956,554.234z"/>
	<path d="M708.265,547.69l12.315-7.675l-7.332-3.323l0.997-2.199l11.73,5.316l-12.315,7.675l19.063,8.639l-2.348-14.32l11.731,5.316
		l-0.997,2.199l-7.332-3.322l2.348,14.32L708.265,547.69z"/>
	<path d="M717.894,525.464l28.412,11.321l-0.895,2.242L717,527.706L717.894,525.464z"/>
	<path d="M735.778,521.313l-0.02-0.041l-1.656-13.344l20.132,6.99l-0.789,2.281l-16.277-5.624l1.655,13.344l-18.235-6.267
		l0.799-2.313L735.778,521.313z"/>
	<path d="M728.104,495.629l29.34,8.625l-0.682,2.316l-29.339-8.625L728.104,495.629z"/>
	<path d="M762.531,484.901l-12.323,5.279l10.416,2.541l-0.572,2.346l-29.717-7.248l0.572-2.346l16.016,3.906l16.341-7.481
		L762.531,484.901z"/>
	<path d="M735.488,464.97l30.021,5.871l-0.463,2.37l-30.021-5.871L735.488,464.97z"/>
	<path d="M751.708,451.016l16.719,2.468l-0.353,2.389l-17.897-2.642l-3.135,4.483l-2.771-0.409l3.071-4.492l-9.521-1.405
		l0.353-2.389l10.731,1.584l3.103-4.488l2.803,0.414L751.708,451.016z"/>
	<path d="M769.597,445.203l-8.209-4.259l-6.924,1.922l-7.287-3.13l-7.987,2.202l0.223-2.21l12.656-3.575l-11.686-6.033l0.229-2.274
		l8.247,4.198l6.523-1.801l6.945,2.999l8.725-2.451l-0.243,2.401l-12.816,3.56l11.846,6.049L769.597,445.203z M758.59,439.497
		l-3.724-1.896l-4.158,1.133l3.999,1.73L758.59,439.497z M755.167,435.269l4.396-1.238l-4.031-1.733l-3.935,1.155L755.167,435.269z"
		/>
	<path d="M772.136,409.008l-0.038,2.415l-30.587-0.461l0.039-2.447l0.483,0.008l10.604-4.531l-10.48-5.096l-0.451-0.007l0.039-2.447
		l30.586,0.525l-0.039,2.415l-25.692-0.382l10.321,4.965l-10.477,4.63L772.136,409.008z"/>
	<path d="M750.039,380.48l-5.595,12.279l27.74-0.974l0.084,2.414l-30.571,1.144L741.612,393h0.032l5.563-12.349L750.039,380.48z"/>
	<path d="M740.451,371.076l30.484-2.464l0.194,2.406l-30.484,2.464L740.451,371.076z"/>
	<path d="M748.393,348.059l-5.241,6.767l25.965-3.3l0.304,2.396l-25.933,3.295l6.731,5.213l-3.193,0.406l-8.1-6.272l6.272-8.099
		L748.393,348.059z"/>
	<path d="M745.794,311.214l-0.04-0.022l-8.875-10.101l20.575-5.545l0.632,2.33l-16.621,4.506l8.875,10.1l-18.601,5.077l-0.641-2.361
		L745.794,311.214z"/>
	<path d="M755.944,290.615l0.739,2.299l-29.112,9.395l-0.749-2.33l0.46-0.148l8.585-7.699l-11.563-1.457l-0.429,0.138l-0.749-2.33
		l29.132-9.333l0.739,2.299l-24.453,7.897l11.37,1.383l-8.433,7.751L755.944,290.615z"/>
	<path d="M718.362,275.62l-0.711-1.899l28.644-10.712l0.711,1.899l-9.842,9.249l13.507,0.551l0.688,1.839l-28.633,10.743
		l-0.699-1.87l10.023-9.316l-13.677-0.453L718.362,275.62z M742.091,266.746l-18.381,6.909l10.526,0.394L742.091,266.746z
		 M735.007,276.2l-7.692,7.276l18.482-6.912L735.007,276.2z"/>
	<path d="M705.688,247.135l-0.882-1.826l27.542-13.293l0.882,1.827l-8.953,10.112l13.5-0.689l0.854,1.769l-27.528,13.321
		l-0.867-1.797l9.127-10.195l-13.66,0.802L705.688,247.135z M728.504,236.123l-17.671,8.564l10.518-0.573L728.504,236.123z
		 M722.315,246.187l-6.993,7.951l17.771-8.578L722.315,246.187z"/>
	<path d="M725.561,219.323l-5.107,7.815l9.336,0.001l1.333,2.464l-12.289,0.021l-5.794,8.846l-12.269-0.685l6.141-10.643
		l10.574-0.01l6.742-10.273L725.561,219.323z M715.865,229.62l-7.606,0.015l-3.608,6.052l7.04,0.292L715.865,229.62z"/>
	<path d="M712.837,198.126l1.338,2.01l-25.437,16.972l-1.355-2.036l0.401-0.268l6.157-9.745l-11.518,1.751l-0.375,0.25l-1.355-2.037
		l25.473-16.918l1.338,2.009l-21.364,14.261l11.313-1.769l-5.997,9.754L712.837,198.126z"/>
	<path d="M674.955,197.167l24.658-18.105l1.429,1.947l-24.657,18.105L674.955,197.167z"/>
	<path d="M668.333,188.453l0.182-9.046l6.459-10.6l10.167-8.215l1.314,1.628l-9.865,7.972l-6.011,9.823l-0.133,7.723l0.242,0.301
		l22.16-17.906l1.538,1.903l-23.788,19.222L668.333,188.453z"/>
	<path d="M670.454,167.089l-0.045-0.002l-12.444-5.104l15.972-14.118l1.602,1.807l-12.89,11.429l12.443,5.104l-14.41,12.82
		l-1.624-1.831L670.454,167.089z"/>
	<path d="M640.086,156.828l21.932-21.323l1.392,1.431l-6.071,5.903l-2.757,9.821l10.052-2.317l6.094-5.88l1.392,1.431
		l-21.932,21.324l-1.392-1.432l3.105-10.339l-10.4,2.836L640.086,156.828z M654.752,145.353l-10.389,10.101l8-2.165L654.752,145.353
		z M654.047,155.021l-2.366,7.959l10.412-10.123L654.047,155.021z"/>
	<path d="M651.566,125.601l-2.378,9.029l8.859-2.948l2.043,1.917l-11.654,3.902l-2.704,10.224l-11.857,3.225l2.464-12.039
		l10.031-3.35l3.153-11.878L651.566,125.601z M645.619,138.434l-7.214,2.417l-1.512,6.882l6.772-1.947L645.619,138.434z"/>
	<path d="M618.153,136.999l-1.541-1.319l19.889-23.237l1.541,1.319l-4.14,12.857l12.089-6.054l1.492,1.277l-19.864,23.258
		l-1.517-1.298l4.266-13.004l-12.19,6.221L618.153,136.999z M634.629,117.749l-12.745,14.941l9.404-4.749L634.629,117.749z
		 M633.004,129.452l-3.213,10.091l12.833-14.994L633.004,129.452z"/>
	<path d="M597.69,108.483l1.435,8.439l15.146-21.35l1.97,1.397l-15.128,21.324l8.395-1.427l-1.863,2.626l-10.101,1.717
		l-1.717-10.101L597.69,108.483z"/>
	<path d="M605.04,89.231l2.031,1.304l-16.499,25.748l-2.058-1.322l0.261-0.406l1.733-11.396l-9.85,6.222l-0.243,0.379l-2.059-1.322
		l16.553-25.713l2.031,1.305l-13.854,21.63l9.654-6.156l-1.583,11.34L605.04,89.231z"/>
	<path d="M564.771,100.539l15.322-26.469l1.728,1l-4.241,7.328l0.011,10.199l9.044-4.957l4.27-7.312l1.728,1l-15.321,26.469
		l-1.728-1l0.184-10.792l-9.239,5.551L564.771,100.539z M575.773,85.518l-7.258,12.538l7.111-4.253L575.773,85.518z M577.717,95.013
		l-0.118,8.301l7.274-12.566L577.717,95.013z"/>
	<path d="M563.618,99.896l-7.014-12.701l-3.704,7.145l-2.144-1.111l5.927-11.432l7.014,12.701l9.63-18.577l-14.421,1.589
		l5.927-11.432l2.143,1.111l-3.704,7.145l14.422-1.589L563.618,99.896z"/>
	<path d="M551.774,59.979l0.599,9.315l7.471-5.596l2.544,1.172l-9.819,7.385l0.667,10.551l-10.226,6.807l-1.469-12.196l8.455-6.348
		l-0.765-12.262L551.774,59.979z M550.19,74.03l-6.076,4.572l0.741,7.005l5.808-3.987L550.19,74.03z"/>
	<path d="M532.89,85.104l-6.086-14.627l7.922-0.261l-1.408-17.94l2.237,0.908l1.852,18.989l-7.177,0.563l3.972,9.393L544.475,56.8
		l2.268,0.92L535.246,86.06l-1.401-0.569l-0.865-0.351L532.89,85.104z"/>
	<path d="M498.021,72.609l8.842-29.282l2.312,0.698l-8.842,29.282L498.021,72.609z"/>
	<path d="M485.743,55.069l4.134-16.39l2.341,0.59l-4.425,17.545l4.147,3.569l-0.686,2.716l-4.162-3.507l-2.354,9.334l-2.342-0.59
		l2.654-10.521l-4.155-3.539l0.692-2.747L485.743,55.069z"/>
	<path d="M470.762,34.459l5.755,12.11l2.134-10.508l2.367,0.481l-6.089,29.977l-2.366-0.48l3.281-16.156l-8.111-16.039
		L470.762,34.459z"/>
	<path d="M451.872,62.252l4.697-30.224l2.386,0.371l-4.697,30.224L451.872,62.252z"/>
	<path d="M432.229,59.813l-2.017-0.218l3.29-30.412l2.017,0.218l3.846,12.95l6.559-11.824l1.953,0.211l-3.259,30.416l-1.984-0.215
		l-3.825-13.142l-6.547,12.02L432.229,59.813z M434.954,34.618l-2.081,19.531l5.08-9.231L434.954,34.618z M440.223,45.196
		l3.048,10.143l2.124-19.624L440.223,45.196z"/>
	<path d="M420.493,58.948l1.899-30.528l2.41,0.15l-1.899,30.528L420.493,58.948z"/>
	<path d="M400.705,58l-2.028,0.124l0.507-30.508l2.028,0.073l5.009,12.566l5.455-12.363l1.964,0.038l-0.475,30.589l-1.996-0.032
		l-5.007-12.896L400.737,58H400.705z M401.125,32.976l-0.293,19.64l4.218-9.656L401.125,32.976z M407.335,43.03l3.959,9.824
		l0.327-19.736L407.335,43.03z"/>
	<path d="M393.778,58.38l-7.087-5.625l-4.521-11.561l-0.378-13.065l2.092-0.06l0.367,12.679l4.175,10.733l6.064,4.785l0.386-0.011
		l-0.824-28.48l2.446-0.071l0.884,30.572L393.778,58.38z"/>
	<path d="M371.758,45.765l-1.257-16.854l2.408-0.18l1.346,18.042l5.062,2.076l0.208,2.793l-5.057-2.012l0.716,9.599l-2.408,0.18
		l-0.808-10.819l-5.06-2.043l-0.211-2.825L371.758,45.765z"/>
	<path d="M350.221,51.299l6.736,5.284l-3.139-25.989l2.397-0.29l3.135,25.957l5.256-6.7l0.386,3.197l-6.324,8.062l-8.061-6.324
		L350.221,51.299z"/>
	<path d="M331.476,65.196l-7.994-4.241l-6.552-10.546l-2.75-12.781l2.046-0.44l2.669,12.402l6.061,9.795l6.835,3.601l0.378-0.081
		l-5.996-27.859l2.392-0.515l6.436,29.905L331.476,65.196z"/>
	<path d="M302.892,61.36l7.398,4.306l-6.687-25.307l2.334-0.617l6.678,25.276l4.283-7.359l0.822,3.113l-5.153,8.854l-8.854-5.153
		L302.892,61.36z"/>
	<path d="M273.011,73.119l13.407,1.513l-9.523-26.069l2.268-0.829l10.495,28.731l-2.268,0.829l-0.011-0.03l-13.396-1.482
		L273.011,73.119z"/>
	<path d="M258.053,79.343l13.463,0.884l-2.129-5.078l-13.523-0.859l-0.924-2.371l13.463,0.884l-7.62-18.173l2.227-0.934
		l11.829,28.209l-2.227,0.934l-0.012-0.03l-13.451-0.854L258.053,79.343z"/>
	<path d="M244.602,88.811l-1.215-2.559l5.798-9.632l-10.423-0.183l-1.077-2.269l7.316-12.74l2.181-1.036l13.119,27.629l-2.181,1.036
		L244.602,88.811z M250.468,74.443l0.402-0.654l-4.833-10.179l-6.078,10.62L250.468,74.443z M257.084,87.042L252.237,77h-0.677
		l-5.733,9.91L257.084,87.042z"/>
	<path d="M221.358,73.322l7.785,5.154l0.057-9.336l2.472-1.318L231.62,80.11l8.811,5.847l-0.758,12.265l-10.607-6.204l0.053-10.575
		l-10.233-6.804L221.358,73.322z M231.597,83.079l-0.031,7.606l6.031,3.645l0.333-7.039L231.597,83.079z"/>
	<path d="M229.942,103.567l-15.334-3.997l4.583-6.469l-15.144-9.728l2.076-1.234l16.248,10.008l-3.891,6.058l9.885,2.516
		l-13.965-23.5l2.104-1.25l15.626,26.296l-1.301,0.773l-0.803,0.477L229.942,103.567z"/>
	<path d="M199.716,86.14l2.017-1.328l16.842,25.524l-2.043,1.345l-0.265-0.403l-9.713-6.208l1.692,11.527l0.248,0.376l-2.043,1.345
		l-16.788-25.56l2.016-1.327l14.152,21.437l-1.711-11.321l9.723,6.047L199.716,86.14z"/>
	<path d="M171.964,105.723l1.887-1.506l19.102,23.883l-1.913,1.526l-0.301-0.377l-10.24-5.296l2.737,11.326l0.281,0.352
		l-1.912,1.526l-19.051-23.923l1.887-1.506l16.049,20.059l-2.737-11.119l10.235,5.135L171.964,105.723z"/>
	<path d="M162.824,139.641l8.54,0.565l-17.243-19.688l1.816-1.59l17.222,19.663l0.563-8.495l2.121,2.421l-0.676,10.221
		l-10.221-0.676L162.824,139.641z"/>
	<path d="M149.053,168.095l-1.398,1.469l-22.15-21.091l1.399-1.469l12.62,4.815l-5.404-12.393l1.354-1.422l22.172,21.068
		l-1.377,1.445l-12.759-4.948l5.566,12.502L149.053,168.095z M130.704,150.622l14.245,13.52l-4.244-9.643L130.704,150.622z
		 M142.304,152.866l9.907,3.743l-14.292-13.609L142.304,152.866z"/>
	<path d="M116.021,159.289l9.11,2.027l-3.286-8.736l1.836-2.115l4.348,11.49l10.317,2.307l3.679,11.72l-12.121-1.997l-3.732-9.891
		l-11.987-2.691L116.021,159.289z M129.07,164.734l2.692,7.112l6.933,1.245l-2.206-6.69L129.07,164.734z"/>
	<path d="M120.517,188.32l12.212-5.735l-21.769-17.217l1.498-1.894l23.991,18.975l-1.498,1.894l-0.025-0.02l-12.187,5.755
		L120.517,188.32z"/>
	<path d="M95.015,186.49l9.261,1.181l-4.077-8.399l1.634-2.275l5.388,11.045l10.488,1.349l4.743,11.335l-12.256-0.874l-4.628-9.508
		l-12.188-1.578L95.015,186.49z M108.513,190.713l3.336,6.836l7.021,0.602l-2.813-6.46L108.513,190.713z"/>
	<path d="M116.088,209.802l-15.519,3.187l1.254-7.826l-17.879-2.037l1.317-2.023l18.993,1.802l-0.814,7.152l9.977-2.109
		l-22.904-14.911l1.335-2.05l25.629,16.685l-0.826,1.268l-0.509,0.782L116.088,209.802z"/>
	<path d="M81.271,207.543l1.222-2.083l26.399,15.454l-1.239,2.111l-0.417-0.245l-11.46-1.274l6.616,9.594l0.389,0.229l-1.238,2.11
		L75.176,217.93l1.222-2.083l22.177,12.977l-6.542-9.402l11.398,1.126L81.271,207.543z"/>
	<path d="M87.609,261.259l-27.687-13.002l0.849-1.807l7.665,3.6l10.162-0.884l-5.713-8.588l-7.651-3.629l0.848-1.807l27.688,13.003
		l-0.849,1.807l-10.771,0.74l6.322,8.731L87.609,261.259z M71.7,251.582l13.115,6.159l-4.847-6.723L71.7,251.582z M80.995,248.833
		l8.282-0.592l-13.144-6.173L80.995,248.833z"/>
	<path d="M73.332,272.464l10.179-8.85l-5.085-2.106l-10.204,8.909l-2.325-1.032l10.179-8.85L57.875,253l0.923-2.23l28.252,11.698
		l-0.923,2.23l-0.03-0.012l-10.149,8.862L73.332,272.464z"/>
	<path d="M52.264,266.688l6.929,6.128l7.185-0.181l6.309,4.809l8.286-0.194l-0.754,2.09L67.07,279.73l9.871,8.695l-0.775,2.15
		l-6.981-6.078l-6.767,0.16l-6.009-4.598l-9.061,0.257l0.819-2.271l13.3-0.337l-10.022-8.75L52.264,266.688z M63.849,279.835
		l-4.566,0.133l3.49,2.662l4.099-0.165L63.849,279.835z M61.556,274.9l3.151,2.746l4.311-0.088l-3.459-2.651L61.556,274.9z"/>
	<path d="M60.015,296.335l-16.15-4.991l0.713-2.307l17.288,5.342l3.783-3.953l2.676,0.827l-3.721,3.972l9.198,2.842l-0.713,2.307
		l-10.367-3.204l-3.752,3.963l-2.707-0.836L60.015,296.335z"/>
	<path d="M58.876,318.784l8.851-10.184l-5.331-1.378l-8.867,10.246l-2.447-0.699l8.851-10.184l-19.078-4.931l0.604-2.338
		l29.615,7.654l-0.604,2.338l-0.031-0.008l-8.82,10.192L58.876,318.784z"/>
	<path d="M52.928,350.232l7.883-10.952l-5.435-0.884l-7.894,11.015l-2.5-0.472l7.883-10.952l-19.452-3.166l0.388-2.384l30.195,4.914
		l-0.388,2.384l-0.032-0.005l-7.852,10.957L52.928,350.232z"/>
	<path d="M51.024,366.277l7.365-11.303l-27.569-3.183l0.277-2.398L61.48,352.9l-0.277,2.398l-0.032-0.003l-7.333,11.307
		L51.024,366.277z"/>
	<path d="M59.105,377.022l-30.514-2.117l0.167-2.409l30.514,2.116L59.105,377.022z"/>
	<path d="M58.269,398.837l-30.572-0.725l0.058-2.414l15.286,0.362l7.591-11.895l7.698,12.128l-0.003,0.129L58.269,398.837z
		 M45.905,396.129l9.236,0.219l-4.668-8.16L45.905,396.129z"/>
	<path d="M58.34,403.725l-5.674,7.046l-11.591,4.438l-13.065,0.284l-0.046-2.092l12.679-0.276l10.761-4.098l4.827-6.029
		l-0.008-0.387l-28.48,0.621l-0.053-2.445l30.572-0.667L58.34,403.725z"/>
	<path d="M50.77,430.958l5.194-12.45l-5.493,0.37l-5.189,12.515l-2.542,0.107l5.194-12.45l-19.657,1.326l-0.163-2.409l30.514-2.059
		l0.162,2.409l-0.032,0.002l-5.162,12.448L50.77,430.958z"/>
	<path d="M64.706,466.08l-4.298,7.963l-10.593,6.475l-12.799,2.657l-0.426-2.049l12.421-2.579l9.838-5.989l3.65-6.809l-0.079-0.378
		l-27.899,5.793l-0.498-2.396l29.949-6.219L64.706,466.08z"/>
	<path d="M60.66,494.619l4.36-7.366l-25.356,6.5l-0.6-2.339l25.326-6.492l-7.328-4.337l3.119-0.8l8.816,5.219l-5.219,8.816
		L60.66,494.619z"/>
	<path d="M47.688,520.578l-0.813-2.273l28.792-10.322l0.823,2.304l-0.455,0.163l-8.333,7.969l11.602,1.086l0.424-0.152l0.824,2.305
		L51.74,531.918l-0.813-2.274l24.184-8.675l-11.407-1.019l8.179-8.017L47.688,520.578z"/>
	<path d="M71.704,536.214l-15.637,6.425l-0.918-2.234l16.739-6.877l0.404-5.458l2.591-1.064l-0.344,5.433l8.906-3.658l0.918,2.233
		l-10.038,4.124l-0.374,5.445l-2.621,1.077L71.704,536.214z"/>
	<path d="M90.569,545.079l-27.716,12.916l-1.02-2.188l27.716-12.915L90.569,545.079z"/>
	<path d="M100.403,564.521l-27.093,14.191l-0.926-1.769l7.5-3.929l5.439-8.627l-10.294-0.642l-7.516,3.9l-0.926-1.769l27.093-14.191
		l0.926,1.769l-5.921,9.025l10.776,0.243L100.403,564.521z M86.508,562.277l4.534-6.955L78.18,562.06L86.508,562.277z
		 M83.079,571.342l12.833-6.723l-8.284-0.203L83.079,571.342z"/>
	<path d="M109.263,595.958l-1.501-13.409l-4.624,2.99l1.536,13.464l-2.171,1.327l-1.501-13.41l-16.547,10.702l-1.312-2.027
		l25.687-16.612l1.312,2.027l-0.027,0.018l1.528,13.392L109.263,595.958z"/>
	<path d="M124.65,602.368l1.178,1.65l-24.889,17.771l-1.179-1.65l7.109-11.483l-13.188,2.969l-1.141-1.598l24.871-17.799l1.16,1.625
		l-7.266,11.596l13.327-3.107L124.65,602.368z M108.422,606.123l5.544-9.022l-16.06,11.468L108.422,606.123z M104.031,617.091
		l15.963-11.438l-10.269,2.349L104.031,617.091z"/>
</g>
<circle style="fill:none;stroke:#000000;stroke-width:3;stroke-miterlimit:10;" cx="400" cy="400" r="341.739"/>
<circle style="fill:none;stroke:#000000;stroke-width:2;stroke-miterlimit:10;" cx="400" cy="400" r="337.392"/>
<polygon style="fill:none;stroke:#000000;stroke-width:2;stroke-miterlimit:10;" points="284.909,84 108.58,231.592 68.609,458.093 
	183.7,657.344 400,736.024 616.301,657.275 731.391,457.92 691.42,231.597 515.09,84 "/>
<circle style="fill:none;stroke:#000000;stroke-width:3;stroke-miterlimit:10;" cx="400" cy="400" r="314.783"/>
<g>
	<path d="M400,93.741L665.73,554H134.27L400,93.741 M400,85.741L127.341,558h545.317L400,85.741L400,85.741z"/>
</g>
<g>
	<path d="M665.73,246L400,706.259L134.27,246H666 M672.658,242H127.341L400,714.259L672.658,242L672.658,242z"/>
</g>
</svg>
