<?xml version="1.0" encoding="utf-8"?>
<!-- Generator: Adobe Illustrator 15.0.0, SVG Export Plug-In . SVG Version: 6.00 Build 0)  -->
<!DOCTYPE svg PUBLIC "-//W3C//DTD SVG 1.1//EN" "http://www.w3.org/Graphics/SVG/1.1/DTD/svg11.dtd">
<svg version="1.1" id="レイヤー_1" xmlns="http://www.w3.org/2000/svg" xmlns:xlink="http://www.w3.org/1999/xlink" x="0px"
	 y="0px" width="800px" height="800px" viewBox="0 0 800 800" enable-background="new 0 0 800 800" xml:space="preserve">
<g id="レイヤー_1_1_">
	<g>
		<g>
			<path d="M400,30C195.655,30,30,195.655,30,400c0,204.346,165.655,370,370,370c204.346,0,370-165.654,370-370
				C770,195.655,604.346,30,400,30z M642.535,652.323c-31.022,29.847-66.748,53.448-106.306,70.181
				C493.093,740.749,447.259,750,400,750s-93.093-9.251-136.229-27.496c-41.674-17.628-79.107-42.866-111.257-75.017
				c-32.15-32.149-57.389-69.582-75.016-111.258C59.251,493.093,50,447.259,50,400c0-47.258,9.251-93.093,27.497-136.229
				c17.627-41.675,42.866-79.108,75.016-111.258c32.15-32.149,69.583-57.389,111.257-75.016C306.907,59.251,352.742,50,400,50
				c47.259,0,93.093,9.251,136.229,27.497c41.676,17.627,79.107,42.866,111.258,75.016c32.149,32.15,57.389,69.583,75.017,111.258
				C740.749,306.907,750,352.741,750,400c0,7.807-0.277,15.569-0.781,23.293c5.285,25.725,5.852,52.149,1.051,78.565
				C738.876,564.554,699.175,616.653,642.535,652.323z"/>
		</g>
	</g>
	<g>
		<path d="M400,181.16c34.271,0,67.513,6.711,98.805,19.947c30.228,12.785,57.374,31.088,80.688,54.401
			c23.313,23.313,41.616,50.46,54.4,80.688c13.235,31.293,19.946,64.534,19.946,98.805s-6.711,67.513-19.946,98.805
			c-12.784,30.228-31.089,57.374-54.4,80.688c-23.313,23.313-50.461,41.616-80.688,54.399
			C467.513,682.129,434.271,688.84,400,688.84s-67.512-6.711-98.805-19.947c-30.228-12.783-57.374-31.088-80.688-54.399
			c-23.313-23.313-41.617-50.461-54.401-80.688C152.871,502.513,146.16,469.271,146.16,435s6.711-67.512,19.947-98.805
			c12.785-30.228,31.088-57.374,54.401-80.688c23.313-23.313,50.46-41.617,80.688-54.401C332.488,187.871,365.729,181.16,400,181.16
			 M400,178.16c-141.849,0-256.84,114.991-256.84,256.84c0,141.849,114.991,256.84,256.84,256.84S656.84,576.849,656.84,435
			C656.84,293.151,541.849,178.16,400,178.16L400,178.16z"/>
	</g>
	<g>
		<path d="M387,179v8.6c25,0,50.878,2.33,76.165,6.924c43.87,7.971,85.263,22.318,122.92,42.643
			c36.271,19.578,67.632,43.839,93.151,72.11c25.374,28.108,43.722,58.749,54.507,91.068c11.091,33.236,13.678,66.838,7.675,99.872
			c-5.143,28.307-16.406,54.934-33.483,79.143c-16.595,23.522-38.295,44.271-64.502,61.67
			c-26.116,17.339-55.928,30.84-88.604,40.128c-33.376,9.486-68.789,14.298-105.256,14.298c-25.179,0-50.765-2.329-76.052-6.924
			c-43.87-7.972-85.207-22.318-122.863-42.645c-36.272-19.577-67.604-43.839-93.124-72.109
			c-25.374-28.108-43.707-58.748-54.492-91.068c-11.09-33.235-13.67-66.838-7.668-99.872c5.143-28.306,16.41-54.933,33.487-79.142
			c16.594-23.523,38.296-44.272,64.502-61.669c26.118-17.339,55.817-30.84,88.494-40.128C315.231,192.411,351,187.6,387,187.6V179
			 M387.223,178.6c-151.287,0-278.716,81.598-300.707,202.627C60.843,522.534,188.619,664.083,371.911,697.387
			c26.301,4.778,52.314,7.068,77.661,7.068c151.288,0,278.719-81.598,300.709-202.628
			c25.674-141.307-102.103-282.855-285.396-316.158C438.584,180.89,412.568,178.6,387.223,178.6L387.223,178.6z"/>
	</g>
	<g>
		<path d="M467.453,162.016c41.129,0,78.914,7.791,112.307,23.155c34.307,15.785,62.073,38.768,82.53,68.309
			c19.115,27.604,30.648,59.27,34.282,94.118c3.532,33.888-0.504,69.366-11.996,105.447c-11.56,36.289-30.066,71.328-55.01,104.145
			c-25.895,34.066-57.609,64.213-94.268,89.597c-67.036,46.422-144.456,71.987-218,71.987c-41.132,0-78.919-7.79-112.31-23.153
			c-34.305-15.785-62.072-38.769-82.531-68.313c-19.115-27.603-30.649-59.269-34.282-94.116
			c-3.533-33.889,0.503-69.365,11.996-105.446c11.559-36.29,30.067-71.329,55.009-104.145
			c25.895-34.068,57.611-64.213,94.267-89.598C316.485,187.582,393.905,162.017,467.453,162.016L467.453,162.016 M467.449,153.016
			c-72.653,0.001-151.919,24.28-223.122,73.586C91.171,332.663,33.296,514.359,115.061,632.432
			c43.752,63.182,118.616,95.342,202.239,95.342c72.654,0,151.92-24.28,223.124-73.589
			c153.155-106.059,211.03-287.754,129.267-405.828C625.938,185.177,551.072,153.015,467.449,153.016L467.449,153.016z"/>
	</g>
	<g>
		<path d="M400,189.38c33.16,0,65.326,6.494,95.604,19.301c29.248,12.371,55.517,30.082,78.074,52.64
			c22.559,22.558,40.27,48.826,52.641,78.074C639.126,369.674,645.62,401.84,645.62,435s-6.494,65.326-19.301,95.604
			c-12.371,29.248-30.081,55.517-52.641,78.074c-22.559,22.559-48.826,40.27-78.074,52.641
			C465.326,674.126,433.16,680.62,400,680.62s-65.326-6.494-95.604-19.301c-29.248-12.371-55.517-30.081-78.075-52.641
			c-22.558-22.559-40.269-48.826-52.64-78.074C160.874,500.326,154.38,468.16,154.38,435s6.494-65.326,19.301-95.605
			c12.371-29.248,30.082-55.516,52.64-78.074c22.558-22.559,48.827-40.27,78.075-52.64C334.674,195.874,366.84,189.38,400,189.38
			 M400,186.38c-137.309,0-248.62,111.311-248.62,248.62c0,137.309,111.312,248.62,248.62,248.62
			c137.31,0,248.62-111.313,248.62-248.62C648.62,297.691,537.31,186.38,400,186.38L400,186.38z"/>
	</g>
	<g>
		<path d="M400,200.708c31.63,0,62.313,6.194,91.196,18.411c27.898,11.8,52.955,28.694,74.473,50.211
			c21.518,21.517,38.411,46.574,50.212,74.473c12.217,28.883,18.411,59.566,18.411,91.196s-6.194,62.313-18.411,91.196
			c-11.801,27.898-28.694,52.955-50.212,74.473s-46.573,38.411-74.473,50.212c-28.885,12.217-59.566,18.411-91.196,18.411
			s-62.313-6.194-91.196-18.411c-27.898-11.801-52.956-28.694-74.473-50.212s-38.411-46.573-50.211-74.473
			c-12.217-28.885-18.411-59.566-18.411-91.196s6.194-62.313,18.411-91.196c11.8-27.898,28.694-52.956,50.211-74.473
			c21.517-21.517,46.574-38.411,74.473-50.211C337.687,206.902,368.37,200.708,400,200.708 M400,198.708
			C269.5,198.708,163.708,304.5,163.708,435S269.5,671.292,400,671.292S636.292,565.5,636.292,435S530.5,198.708,400,198.708
			L400,198.708z"/>
	</g>
	<g>
		<path d="M400,286.411c128.638,0,233.292,66.657,233.292,148.589c0,81.933-104.654,148.589-233.292,148.589
			S166.708,516.933,166.708,435C166.708,353.068,271.362,286.411,400,286.411 M400,283.411c-130.5,0-236.292,67.869-236.292,151.589
			S269.5,586.589,400,586.589S636.292,518.72,636.292,435S530.5,283.411,400,283.411L400,283.411z"/>
	</g>
	<path fill="none" stroke="#000000" stroke-width="3" stroke-miterlimit="10" d="M209.301,457.822
		c4.109-1.37,238.356-119.178,238.356-119.178l112.329,158.904L209.301,457.822z"/>
	<polygon fill="none" stroke="#000000" stroke-width="3" stroke-miterlimit="10" points="277.794,353.712 559.986,389.627 
		380.534,531.795 	"/>
</g>
<g id="レイヤー_3">
	<g>
		<path d="M175.424,521.081l0.524-4.876l-9.457,3.512l-0.306-0.821l10.423-3.871l0.305,0.822l-0.011,0.004l-0.513,4.872
			L175.424,521.081z"/>
		<path d="M169.826,528.396l2.176-2.605l-3.372-0.396l-0.377-0.945l4.44,0.513l2.468-2.949l4.402,0.769l-2.669,3.584l-3.82-0.445
			l-2.871,3.426L169.826,528.396z M173.765,525.087l2.749,0.317l1.56-2.033l-2.53-0.404L173.765,525.087z"/>
		<path d="M181.054,526.444l-2.181,5.335l-2.111-1.966l-4.238,4.989l-0.345-0.808l4.394-5.374l1.996,1.695l1.384-3.441l-9.146,3.899
			l-0.349-0.819l10.234-4.363l0.216,0.507l0.133,0.313L181.054,526.444z"/>
		<path d="M173.167,536.229l-0.364-0.799l10.113-4.62l0.369,0.811l-0.16,0.073l-2.774,3.142l4.236,0.038l0.149-0.068l0.369,0.811
			l-10.123,4.599l-0.364-0.799l8.495-3.883l-4.163-0.021l2.717-3.153L173.167,536.229z"/>
		<path d="M187.564,540.69l-10.002,4.854l-0.317-0.652l2.769-1.345l2.072-3.074l-3.733-0.348l-2.774,1.334l-0.317-0.652
			l10.002-4.855l0.317,0.653l-2.252,3.214l3.913,0.208L187.564,540.69z M182.54,539.721l1.725-2.477l-4.748,2.306L182.54,539.721z
			 M181.193,542.977l4.738-2.3l-3.008-0.166L181.193,542.977z"/>
		<path d="M191.744,548.655l-9.77,5.319l-0.42-0.771l9.77-5.319L191.744,548.655z"/>
		<path d="M193.002,550.955l-0.345,5.267l2.537-1.462l0.438,0.763l-4.059,2.338l0.345-5.268l-6.595,3.799l4.728,2.345l-4.059,2.338
			l-0.438-0.761l2.537-1.461l-4.728-2.346L193.002,550.955z"/>
		<path d="M191.551,559.481l0.016,0.004l4.122,2.628l-6.623,4.02l-0.457-0.749l5.347-3.257l-4.122-2.628l5.98-3.657l0.463,0.761
			L191.551,559.481z"/>
		<path d="M199.48,561.791l-0.426,3.263l-2.757,3.574l-4.002,2.564l-0.411-0.642l3.883-2.487l2.564-3.313l0.356-2.786l-0.076-0.118
			l-8.724,5.592l-0.479-0.749l9.364-6.002L199.48,561.791z"/>
		<path d="M204.786,569.804l-9.219,6.232l-0.407-0.603l2.552-1.726l1.616-3.341l-3.748,0.188l-2.559,1.716l-0.407-0.602l9.22-6.232
			l0.407,0.602l-1.774,3.504l3.906-0.35L204.786,569.804z M199.671,569.558l1.356-2.698l-4.376,2.959L199.671,569.558z
			 M198.799,572.975l4.367-2.952l-3.004,0.264L198.799,572.975z"/>
		<path d="M210.943,578.296l0.441,0.592l-8.915,6.653l-0.441-0.591l2.497-4.23l-4.773,1.182l-0.427-0.572l8.908-6.663l0.434,0.581
			l-2.553,4.273l4.823-1.232L210.943,578.296z M205.071,579.786l1.947-3.323l-5.753,4.293L205.071,579.786z M203.558,583.809
			l5.717-4.281l-3.717,0.933L203.558,583.809z"/>
		<path d="M205.493,589.404l1.352-3.116l-3.348,0.572l-0.629-0.803l4.406-0.763l1.535-3.527l4.442-0.508l-1.549,4.194l-3.792,0.652
			l-1.788,4.099L205.493,589.404z M208.338,585.116l2.727-0.474l0.922-2.392l-2.542,0.327L208.338,585.116z"/>
		<path d="M215.988,589.766l-1.104-4.778l-7.787,6.418l-0.558-0.678l8.582-7.073l0.559,0.678l-0.009,0.007l1.112,4.772
			L215.988,589.766z"/>
		<path d="M213.087,598.502l1.2-3.175l-3.314,0.731l-0.667-0.771l4.36-0.972l1.363-3.595l4.408-0.72l-1.344,4.26l-3.753,0.833
			l-1.587,4.177L213.087,598.502z M215.72,594.087l2.699-0.603l0.806-2.432l-2.522,0.448L215.72,594.087z"/>
		<path d="M223.065,592.998l-0.309,5.755l-2.638-1.163l-2.365,6.104l-0.59-0.65l2.385-6.517l2.441,0.945l0.178-3.705l-7.358,6.686
			l-0.598-0.659l8.233-7.479l0.37,0.407l0.229,0.251L223.065,592.998z"/>
		<path d="M226.757,605h0.017l4.626,1.606l-5.493,5.476l-0.621-0.615l4.433-4.423l-4.625-1.583l4.955-4.962l0.628,0.609L226.757,605
			z"/>
		<path d="M236.276,606.652l-7.683,8.029l-0.634-0.605l7.683-8.03L236.276,606.652z"/>
		<path d="M239.495,614.808l-0.144-3.109l-6.414,7.034l-0.649-0.593l6.406-7.024l-3.093,0.143l0.789-0.865l3.722-0.171l0.172,3.723
			L239.495,614.808z"/>
		<path d="M248.537,621.753l-1.978-4.487l-1.279,1.539l1.996,4.502l-0.609,0.696l-1.978-4.487l-4.576,5.511l-0.675-0.562
			l7.103-8.553l0.675,0.561l-0.007,0.011l1.985,4.478L248.537,621.753z"/>
		<path d="M255.021,622.772l-6.9,8.727l-0.569-0.45l1.91-2.416l0.529-3.672l-3.515,1.312l-1.919,2.408l-0.57-0.449l6.9-8.728
			l0.569,0.451l-0.631,3.875l3.616-1.515L255.021,622.772z M250.073,624.085l0.477-2.982l-3.276,4.145L250.073,624.085z
			 M250.276,627.604l3.268-4.135l-2.782,1.159L250.276,627.604z"/>
		<path d="M249.375,632.454l-0.702-0.527l6.673-8.894l0.711,0.535l-0.105,0.141l-0.935,4.085l3.738-1.991l0.1-0.131l0.709,0.534
			l-6.691,8.879l-0.701-0.527l5.604-7.472l-3.666,1.974l0.878-4.068L249.375,632.454z"/>
		<path d="M261.949,632.596l-0.508-3.071l-5.545,7.74l-0.714-0.512l5.539-7.73l-3.056,0.505l0.682-0.952l3.678-0.607l0.606,3.677
			L261.949,632.596z"/>
		<path d="M271.493,647.536l-0.458-4.854l-2.037,3.322l-0.749-0.458l5.813-9.479l0.75,0.459l-3.134,5.108l0.773,6.487
			L271.493,647.536z"/>
		<path d="M276.733,650.632l0.105-3.393l-2.897,1.768l-0.881-0.513l3.811-2.333l0.124-3.843l3.938-2.11l0.109,4.466l-3.28,2.005
			l-0.147,4.467L276.733,650.632z M277.793,645.601l2.358-1.443l-0.026-2.563l-2.24,1.242L277.793,645.601z"/>
		<path d="M283.976,647.638l-2.964,5.385l-0.769-0.425l3.173-5.763l-1.129-1.637l0.491-0.894l1.141,1.617l1.688-3.065l0.77,0.424
			l-1.902,3.455l1.136,1.628l-0.497,0.901L283.976,647.638z"/>
		<path d="M286.749,649.771l0.016-0.005l4.889,0.107l-3.576,6.874l-0.779-0.404l2.882-5.56l-4.888-0.107l3.216-6.229l0.79,0.409
			L286.749,649.771z"/>
		<path d="M289.481,657.447l-0.789-0.386l4.875-9.993l0.799,0.391l-0.077,0.158l-0.146,4.188l3.295-2.661l0.071-0.146l0.8,0.391
			l-4.896,9.982l-0.789-0.386l4.093-8.396l-3.228,2.63l0.095-4.162L289.481,657.447z"/>
		<path d="M297.708,661.35l-1.033-4.763l-1.626,3.542l-0.798-0.366l4.639-10.104l0.799,0.366l-2.5,5.444l1.541,6.349L297.708,661.35
			z"/>
		<path d="M307.11,657.471l-1.153-2.892l-3.759,8.745l-0.808-0.348l3.755-8.733l-2.877,1.146l0.463-1.075l3.461-1.381l1.38,3.461
			L307.11,657.471z"/>
		<path d="M305.678,664.794l-0.814-0.327l4.135-10.325l0.826,0.331l-0.065,0.163l0.159,4.19l3.094-2.896l0.062-0.15l0.826,0.331
			l-4.157,10.316l-0.815-0.328l3.473-8.674l-3.028,2.859l-0.209-4.16L305.678,664.794z"/>
		<path d="M317.845,661.668l-1.288-2.831l-3.337,8.907l-0.822-0.308l3.334-8.896l-2.816,1.281l0.411-1.097l3.388-1.542l1.542,3.39
			L317.845,661.668z"/>
		<path d="M320.802,658.666l1.684,2.828l0.042,4.516l-1.562,4.492l-0.719-0.25l1.515-4.359l-0.032-4.188l-1.442-2.411l-0.132-0.046
			l-3.403,9.79l-0.841-0.292l3.652-10.509L320.802,658.666z"/>
		<path d="M325.783,660.368l2.609,5.14l-2.866,0.313l1.003,6.47l-0.837-0.268l-1.193-6.839l2.588-0.4l-1.699-3.298l-3.031,9.47
			l-0.848-0.271l3.393-10.597l0.523,0.168l0.324,0.104L325.783,660.368z"/>
		<path d="M339.867,667.857l-3.672-3.253l-0.521,1.934l3.695,3.259l-0.262,0.888l-3.672-3.253l-1.858,6.919l-0.849-0.228
			l2.886-10.741l0.848,0.229l-0.003,0.012l3.675,3.241L339.867,667.857z"/>
		<path d="M345.457,665.921l0.716,0.174l-2.624,10.799l-0.716-0.174l-0.771-4.847l-2.923,3.949l-0.692-0.168l2.611-10.804
			l0.705,0.172l0.756,4.914l2.928-4.02L345.457,665.921z M341.885,670.808l-0.618-3.798l-1.692,6.968L341.885,670.808z
			 M343.283,674.867l1.673-6.938l-2.266,3.085L343.283,674.867z"/>
		<path d="M349.576,666.832l-2.363,10.872l-0.858-0.188l2.363-10.872L349.576,666.832z"/>
		<path d="M352.104,667.392l3.756,3.702l0.553-2.872l0.862,0.166l-0.886,4.597l-3.756-3.702l-1.438,7.469l4.861-2.043l-0.885,4.596
			l-0.861-0.166l0.553-2.872l-4.862,2.042L352.104,667.392z"/>
		<path d="M360.707,668.961l-1.841,10.974l-0.867-0.146l1.841-10.974L360.707,668.961z"/>
		<path d="M363.337,675.003l0.013-0.01l4.649-1.508l-1.112,7.665l-0.868-0.124l0.89-6.196l-4.649,1.507l0.984-6.938l0.88,0.126
			L363.337,675.003z"/>
		<path d="M371.923,670.561l-1.318,11.047l-0.873-0.104l1.319-11.046L371.923,670.561z"/>
		<path d="M377.503,682.327l-2.543-4.16l-0.371,3.882l-0.875-0.084l1.059-11.073l0.875,0.082l-0.57,5.97l3.545,5.492
			L377.503,682.327z"/>
		<path d="M383.21,671.626l-0.797,11.09l-0.875-0.063l0.797-11.089L383.21,671.626z"/>
		<path d="M388.774,676.932l-0.297,6.137l-0.875-0.042l0.316-6.569l-1.734-0.974l0.05-1.018l1.734,0.95l0.168-3.494l0.877,0.042
			l-0.189,3.938l1.733,0.963l-0.05,1.027L388.774,676.932z"/>
		<path d="M391.211,683.188l1.314-3.097l-0.892-2.456l0.932-2.729l-1.023-2.834l0.808,0.019l1.651,4.489l1.86-4.406l0.831,0.021
			l-1.291,3.106l0.836,2.315l-0.894,2.602l1.134,3.096l-0.878-0.021l-1.649-4.547l-1.861,4.465L391.211,683.188z M392.971,679.038
			l0.583-1.403l-0.526-1.476l-0.517,1.498L392.971,679.038z M394.408,677.679l0.573,1.56l0.515-1.511l-0.529-1.395L394.408,677.679z
			"/>
		<path d="M404.096,683.3l-0.877,0.021l-0.272-11.118l0.89-0.021l0.004,0.177l1.799,3.785l1.7-3.88l-0.003-0.164l0.89-0.021
			l0.25,11.119l-0.879,0.021l-0.23-9.339l-1.655,3.82l-1.832-3.739L404.096,683.3z"/>
		<path d="M414.022,675.041l-4.485-1.979l0.474,10.075l-0.877,0.041l-0.766-11.104l0.632-0.041v0.012l4.729,1.968L414.022,675.041z"
			/>
		<path d="M417.329,671.588l0.782,11.089l-0.875,0.063l-0.783-11.089L417.329,671.588z"/>
		<path d="M425.543,674.688l-2.397-1.984l0.894,9.478l-0.874,0.082l-0.893-9.466l-1.976,2.385l-0.108-1.165l2.375-2.869l2.87,2.375
			L425.543,674.688z"/>
		<path d="M438.465,674.719l0.009-0.013l3.979-2.847l1.261,7.647l-0.866,0.146l-1.027-6.181l-3.979,2.847l-1.163-6.917l0.878-0.146
			L438.465,674.719z"/>
		<path d="M445.228,679.227l-0.862,0.165l-2.1-10.928l0.874-0.167l0.033,0.173l2.398,3.441l1.039-4.11l-0.03-0.161l0.874-0.167
			l2.076,10.934l-0.863,0.164l-1.765-9.18l-1.005,4.044l-2.425-3.389L445.228,679.227z"/>
		<path d="M452.272,666.439l0.722-0.155l2.349,10.872l-0.721,0.155l-2.811-4.028l-0.909,4.832l-0.698,0.149l-2.359-10.869
			l0.71-0.152l2.825,4.097l0.882-4.896L452.272,666.439z M451.188,672.399l-2.214-3.151l1.516,7.016L451.188,672.399z
			 M454.219,675.446l-1.52-6.979l-0.695,3.769L454.219,675.446z"/>
		<path d="M463.112,663.731l0.712-0.19l2.87,10.741l-0.713,0.189l-3-3.887l-0.675,4.868l-0.688,0.185l-2.882-10.737l0.7-0.188
			l3.02,3.954l0.645-4.933L463.112,663.731z M462.317,669.734l-2.362-3.04l1.852,6.932L462.317,669.734z M465.49,672.63
			l-1.854-6.895l-0.513,3.796L465.49,672.63z"/>
		<path d="M471.396,672.914l-2.392-2.409l-0.709,3.319l-0.978,0.286l0.926-4.37l-2.705-2.731l1.175-4.309l3.317,2.99l-0.799,3.76
			l3.14,3.177L471.396,672.914z M468.47,668.686l0.572-2.704l-1.877-1.742l-0.639,2.479L468.47,668.686z"/>
		<path d="M479.369,670.379l-0.829,0.286l-3.635-10.506l0.841-0.289l0.057,0.165l2.862,3.061l0.441-4.212l-0.054-0.153l0.841-0.29
			l3.612,10.513l-0.829,0.286l-3.056-8.824l-0.416,4.143l-2.881-3.006L479.369,670.379z"/>
		<path d="M483.128,657.233l3.886,10.422l-0.823,0.307l-3.885-10.422L483.128,657.233z"/>
		<path d="M486.795,655.836l3.123,1.031l2.991,3.379l1.766,4.41l-0.706,0.283l-1.714-4.28l-2.769-3.141l-2.669-0.873l-0.131,0.053
			l3.849,9.615l-0.825,0.33l-4.132-10.32L486.795,655.836z"/>
		<path d="M493.826,658.956l0.006-0.015l3.187-3.708l3.039,7.126l-0.807,0.346l-2.465-5.755l-3.188,3.707l-2.771-6.438l0.817-0.351
			L493.826,658.956z"/>
		<path d="M500.817,649.792l4.623,10.118l-0.659,0.302l-1.28-2.802l-3.027-2.145l-0.435,3.727l1.27,2.807l-0.659,0.302
			l-4.625-10.117l0.66-0.303l3.162,2.327l0.301-3.909L500.817,649.792z M499.729,654.795l-2.438-1.783l2.195,4.805L499.729,654.795z
			 M502.956,656.218l-2.19-4.793l-0.235,3.005L502.956,656.218z"/>
		<path d="M509.876,657.762l-2.761-1.977l-0.146,3.392l-0.916,0.446l0.185-4.466l-3.124-2.242l0.438-4.447l3.771,2.396l-0.161,3.842
			l3.629,2.61L509.876,657.762z M506.285,654.079l0.112-2.764l-2.144-1.405l-0.216,2.554L506.285,654.079z"/>
		<path d="M510.304,645.061l0.655-0.338l5.103,9.887l-0.654,0.339l-3.766-3.157l0.383,4.902l-0.635,0.327l-5.112-9.881l0.646-0.333
			l3.796,3.221l-0.425-4.96L510.304,645.061z M510.812,651.099l-2.961-2.466l3.293,6.379L510.812,651.099z M514.53,653.251
			l-3.286-6.343l0.311,3.818L514.53,653.251z"/>
		<path d="M522.629,642.542l-3.006-0.803l4.764,8.236l-0.76,0.439l-4.758-8.229l-0.8,2.99l-0.586-1.013l0.962-3.599l3.598,0.962
			L522.629,642.542z"/>
		<path d="M527.616,648.077l-0.749,0.458l-5.81-9.489l0.761-0.464l0.092,0.15l3.455,2.377l-0.474-4.212l-0.086-0.142l0.76-0.464
			l5.789,9.501l-0.75,0.458l-4.881-7.97l0.482,4.138l-3.461-2.317L527.616,648.077z"/>
		<path d="M530.33,633.249l6.016,9.35l-0.609,0.394l-1.665-2.588l-3.301-1.689l0.102,3.747l1.656,2.595l-0.61,0.394l-6.016-9.351
			l0.608-0.393l3.461,1.852l-0.262-3.908L530.33,633.249z M529.968,638.353l-2.665-1.416l2.855,4.438L529.968,638.353z
			 M533.36,639.301l-2.851-4.429l0.195,3.006L533.36,639.301z"/>
		<path d="M530.679,633.021l5.274-0.037l-1.642-2.423l0.728-0.491l2.625,3.876l-5.274,0.038l4.266,6.298l1.992-4.884l2.625,3.877
			l-0.727,0.49l-1.641-2.422l-1.993,4.883L530.679,633.021z"/>
		<path d="M545.279,636.428l-3.048-1.495l0.416,3.369l-0.83,0.591l-0.556-4.434l-3.45-1.696l-0.3-4.458l4.114,1.741l0.475,3.815
			l4.008,1.976L545.279,636.428z M541.132,633.388l-0.344-2.744l-2.345-1.031l0.208,2.554L541.132,633.388z"/>
		<path d="M540.71,625.993l5.698,0.851l-1.406,2.517l5.853,2.93l-0.702,0.526l-6.263-2.988l1.172-2.341l-3.671-0.526l5.959,7.954
			l-0.712,0.533l-6.668-8.9l0.44-0.329l0.271-0.204L540.71,625.993z"/>
		<path d="M551.223,617.747l7.089,8.582l-0.678,0.56l-7.089-8.582L551.223,617.747z"/>
		<path d="M558.916,617.76l4.021,4.646l-0.664,0.575l-4.305-4.976l-1.928,0.492l-0.666-0.771l1.912-0.51l-2.291-2.646l0.664-0.574
			l2.581,2.982l1.92-0.501l0.674,0.778L558.916,617.76z"/>
		<path d="M568.011,617.872l-4.789-0.918l2.622,2.886l-0.649,0.591l-7.479-8.232l0.65-0.591l4.03,4.438l6.447,1.072L568.011,617.872
			z"/>
		<path d="M563.925,606.463l7.668,8.045l-0.635,0.605l-7.669-8.045L563.925,606.463z"/>
		<path d="M569.015,601.451l0.521-0.521l7.855,7.871l-0.521,0.521l-4.543-1.867l1.85,4.555l-0.505,0.505l-7.865-7.862l0.515-0.514
			l4.593,1.916l-1.908-4.596L569.015,601.451z M571.327,607.049l-3.566-1.452l5.069,5.079L571.327,607.049z M575.522,607.972
			l-5.054-5.046l1.454,3.544L575.522,607.972z"/>
		<path d="M571.933,598.42l8.045,7.683l-0.605,0.637l-8.045-7.685L571.933,598.42z"/>
		<path d="M576.748,593.204l0.496-0.547l8.232,7.479l-0.495,0.546l-4.631-1.643l2.071,4.459l-0.479,0.529l-8.242-7.473l0.488-0.537
			l4.682,1.69l-2.13-4.499L576.748,593.204z M579.332,598.684l-3.635-1.275l5.313,4.826L579.332,598.684z M583.568,599.4
			l-5.296-4.795l1.627,3.471L583.568,599.4z"/>
		<path d="M578.394,591.343l3.252-0.514l4.209,1.635l3.595,3.116l-0.499,0.575l-3.487-3.023l-3.903-1.523l-2.774,0.445l-0.092,0.106
			l7.831,6.792l-0.582,0.673l-8.407-7.291L578.394,591.343z"/>
		<path d="M587.128,588.755l4.734,3.918l-0.561,0.676l-5.066-4.192l-1.82,0.804l-0.784-0.648l1.802-0.818l-2.695-2.23l0.56-0.677
			l3.039,2.516l1.812-0.813l0.793,0.657L587.128,588.755z"/>
		<path d="M591.093,581.907l-3.09,0.369l7.48,5.881l-0.543,0.688l-7.472-5.872l0.368,3.072l-0.92-0.723l-0.443-3.698l3.698-0.442
			L591.093,581.907z"/>
		<path d="M592.428,573.726l3.189-0.818l4.347,1.229l3.872,2.765l-0.442,0.619l-3.758-2.682l-4.029-1.148l-2.722,0.707l-0.082,0.113
			l8.44,6.022l-0.519,0.726l-9.06-6.466L592.428,573.726z"/>
		<path d="M601.067,567.959l-3.06,0.585l7.878,5.347l-0.492,0.728l-7.868-5.34l0.581,3.042l-0.969-0.658l-0.699-3.659l3.658-0.701
			L601.067,567.959z"/>
		<path d="M606.625,558.016l-4.158,2.606l8.615,5.261l-0.458,0.75l-9.494-5.799l0.457-0.749l0.011,0.006l4.147-2.612
			L606.625,558.016z"/>
		<path d="M609.494,553.081l-4.092,2.704l1.731,1.002l4.104-2.726l0.788,0.483l-4.092,2.704l6.2,3.586l-0.438,0.76l-9.626-5.565
			l0.438-0.761l0.012,0.007l4.082-2.71L609.494,553.081z"/>
		<path d="M611.372,547.524l0.903,0.493l0.348,4.071l3.106-2.169l0.802,0.438l0.563,5.312l-0.421,0.771l-9.756-5.334l0.421-0.771
			L611.372,547.524z M608.11,550.756l3.604,1.972l0.199-0.145l-0.444-4.165L608.11,550.756z M612.71,553.005l0.021,0.278
			l3.594,1.965l-0.477-4.422L612.71,553.005z"/>
		<path d="M621.461,547.471l-3.396,0.066l1.912,2.806l-0.468,0.905l-2.523-3.688l-3.847,0.071l-2.308-3.827l4.456-0.335l2.17,3.177
			l4.469-0.079L621.461,547.471z M616.38,546.667l-1.563-2.283l-2.559,0.156l1.354,2.175L616.38,546.667z"/>
		<path d="M612.639,540.258l5.459-1.849l-0.101,2.882l6.546-0.068l-0.385,0.789l-6.938,0.204l-0.028-2.618l-3.507,1.21l8.939,4.354
			l-0.39,0.8l-10.002-4.87l0.239-0.495l0.149-0.306L612.639,540.258z"/>
		<path d="M625.188,539.833l-0.365,0.799l-10.123-4.613l0.37-0.81l0.159,0.072l4.192,0.037l-2.748-3.227l-0.148-0.067l0.37-0.811
			l10.112,4.635l-0.364,0.8l-8.505-3.874l2.716,3.158l-4.166,0.016L625.188,539.833z"/>
		<path d="M629.894,529.081l-0.326,0.814l-10.325-4.136l0.331-0.826l0.163,0.065l4.189-0.159l-2.896-3.093l-0.151-0.063l0.331-0.825
			l10.317,4.156l-0.328,0.814l-8.675-3.472l2.859,3.027l-4.16,0.21L629.894,529.081z"/>
		<path d="M626.744,516.915l-2.832,1.294l8.92,3.324l-0.307,0.823l-8.908-3.321l1.286,2.815l-1.098-0.407l-1.549-3.39l3.389-1.549
			L626.744,516.915z"/>
		<path d="M626.507,505.667l0.225-0.702l10.598,3.393l-0.225,0.702l-4.896,0.426l3.735,3.199l-0.219,0.682l-10.601-3.381
			l0.222-0.692l4.962-0.403l-3.806-3.21L626.507,505.667z M631.132,509.583l-3.837,0.346l6.838,2.188L631.132,509.583z
			 M635.285,508.478l-6.808-2.166l2.918,2.482L635.285,508.478z"/>
		<path d="M638.724,503.638l-3.317,0.709l2.409,2.392l-0.287,0.977l-3.178-3.14l-3.76,0.799l-2.991-3.317l4.311-1.175l2.73,2.705
			l4.37-0.926L638.724,503.638z M633.586,503.813l-1.967-1.943l-2.48,0.639l1.742,1.877L633.586,503.813z"/>
		<path d="M632.922,494.889l-3.247,3.675l9.746,2.604l-0.227,0.848l-10.741-2.87l0.227-0.848l0.011,0.003l3.236-3.678
			L632.922,494.889z"/>
		<path d="M641.728,492.154l-3.284,0.866l2.521,2.274l-0.24,0.99l-3.323-2.988l-3.722,0.979l-3.146-3.175l4.252-1.38l2.859,2.574
			l4.323-1.132L641.728,492.154z M636.599,492.573l-2.059-1.851l-2.449,0.757l1.831,1.794L636.599,492.573z"/>
		<path d="M631.437,487.258l4.865-3.089l0.585,2.823l6.345-1.617l-0.188,0.858l-6.691,1.841l-0.646-2.537l-3.121,2.006l9.716,2.112
			l-0.188,0.869l-10.872-2.362l0.117-0.538l0.07-0.332L631.437,487.258z"/>
		<path d="M643.533,483.837l-0.166,0.863l-10.933-2.091l0.168-0.874l0.174,0.032l4.085-0.956l-3.437-2.485l-0.16-0.03l0.168-0.875
			l10.929,2.113l-0.166,0.863l-9.185-1.754l3.388,2.429l-4.046,0.999L643.533,483.837z"/>
		<path d="M635.155,466.393l11.017,1.58l-0.103,0.72l-3.051-0.438l-3.441,1.388l2.9,2.382l3.05,0.448l-0.104,0.72l-11.017-1.58
			l0.103-0.72l3.669-1.401l-3.128-2.366L635.155,466.393z M638.778,470.013l-2.818,1.087l5.229,0.75L638.778,470.013z
			 M641.721,468.067l-5.219-0.748l2.401,1.822L641.721,468.067z"/>
		<path d="M639.034,461.151l-2.695,4.101l1.988,0.237l2.697-4.123l0.916,0.133l-2.694,4.101l7.116,0.851l-0.104,0.872l-11.046-1.384
			l0.104-0.938h0.013l2.683-4.036L639.034,461.151z"/>
		<path d="M646.954,461.418l-2.996-1.528l-2.515,0.717l-2.658-1.121l-2.899,0.819l0.075-0.805l4.595-1.331l-4.265-2.166l0.078-0.827
			l3.01,1.507l2.368-0.671l2.533,1.073l3.168-0.912l-0.082,0.874l-4.653,1.325l4.323,2.172L646.954,461.418z M642.937,459.37
			l-1.358-0.682l-1.51,0.423l1.459,0.618L642.937,459.37z M641.681,457.84l1.598-0.461l-1.472-0.621l-1.429,0.431L641.681,457.84z"
			/>
		<path d="M641.604,451.881l6.127,0.434l-0.062,0.875l-6.561-0.464l-1.013,1.713l-1.016-0.071l0.989-1.714l-3.49-0.246l0.062-0.876
			l3.935,0.277l1.001-1.713l1.027,0.072L641.604,451.881z"/>
		<path d="M640.278,443.956l-2.393,4.28l1.999,0.094l2.394-4.304l0.922,0.066l-2.393,4.28l7.153,0.336l-0.041,0.877l-11.104-0.616
			l0.041-0.971h0.013l2.38-4.186L640.278,443.956z"/>
		<path d="M640.389,432.517l-2.12,4.424l2.002-0.031l2.119-4.446l0.926,0.009l-2.12,4.424l7.163-0.112l0.014,0.878l-11.118,0.196
			L637.238,437h0.012l2.108-4.445L640.389,432.517z"/>
		<path d="M640.296,426.588l-2.085,4.44l10.088-0.236l0.021,0.877l-11.118,0.235L637.181,431h0.013l2.073-4.414L640.296,426.588z"/>
		<path d="M636.925,423.199l11.104-0.521l0.042,0.877l-11.104,0.521L636.925,423.199z"/>
		<path d="M636.416,415.345l11.09-0.797l0.063,0.875l-5.544,0.398l-2.335,4.567l-3.207-4.123l-0.004-0.046L636.416,415.345z
			 M640.985,415.896l-3.352,0.241l1.973,2.791L640.985,415.896z"/>
		<path d="M636.258,413.646l1.87-2.707l4.087-1.921l4.733-0.451l0.072,0.758l-4.594,0.438l-3.796,1.774l-1.59,2.315l0.014,0.141
			l10.316-0.985l0.085,0.886l-11.075,1.06L636.258,413.646z"/>
		<path d="M638.418,403.707l-1.653,4.62l1.988-0.238l1.65-4.643l0.922-0.087l-1.653,4.62l7.115-0.851l0.104,0.872l-11.046,1.319
			l-0.104-0.872l0.012-0.002l1.643-4.618L638.418,403.707z"/>
		<path d="M633.205,391.318l1.604-2.871l3.883-2.297l4.664-0.898l0.145,0.747l-4.527,0.872l-3.605,2.125l-1.362,2.455l0.026,0.138
			l10.169-1.958l0.168,0.873l-10.915,2.103L633.205,391.318z"/>
		<path d="M634.972,381.095l-1.684,2.619l9.304-2.021l0.188,0.857l-9.293,2.021l2.604,1.675l-1.145,0.249l-3.135-2.016l2.016-3.134
			L634.972,381.095z"/>
		<path d="M640.382,372.418l0.228,0.848l-10.738,2.882l-0.229-0.859l0.17-0.045l3.257-2.639l-4.171-0.739l-0.158,0.042l-0.229-0.859
			l10.744-2.859l0.228,0.849l-9.021,2.422l4.103,0.709l-3.201,2.661L640.382,372.418z"/>
		<path d="M632.271,366.187l5.896-1.729l0.247,0.842l-6.313,1.853l-0.353,1.958l-0.978,0.286l0.33-1.95l-3.357,0.984l-0.247-0.842
			l3.785-1.11l0.341-1.954l0.988-0.29L632.271,366.187z"/>
		<path d="M625.858,362.313l10.597-3.392l0.268,0.836l-10.596,3.392L625.858,362.313z"/>
		<path d="M623.351,354.871l10.511-3.639l0.236,0.686l-2.909,1.007l-2.422,2.808l3.666,0.787l2.914-0.996l0.237,0.686l-10.51,3.639
			l-0.237-0.686l2.617-2.925l-3.862-0.67L623.351,354.871z M629.949,353.354l-4.979,1.724l2.969,0.521L629.949,353.354z
			 M628.226,356.428l-2.006,2.256l4.989-1.728L628.226,356.428z"/>
		<path d="M622.312,343.226l-0.4,4.887l1.856-0.744l0.394-4.909l0.867-0.322l-0.401,4.887l6.649-2.661l0.325,0.813l-10.32,4.131
			l-0.326-0.814l0.011-0.004l0.391-4.883L622.312,343.226z"/>
		<path d="M617.387,339.888l-0.291-0.678l10.22-4.378l0.291,0.678l-3.416,3.526l4.914-0.03l0.28,0.656l-10.215,4.389l-0.286-0.667
			l3.481-3.554l-4.976,0.068L617.387,339.888z M625.853,336.261l-6.558,2.822l3.829-0.036L625.853,336.261z M623.44,339.815
			l-2.67,2.773l6.595-2.825L623.44,339.815z"/>
		<path d="M612.328,329.111l10.002-4.871l0.317,0.653l-2.77,1.348l-2.068,3.079l3.734,0.343l2.774-1.338l0.316,0.653l-10.002,4.871
			l-0.316-0.653l2.249-3.218l-3.915-0.204L612.328,329.111z M618.699,326.815l-4.737,2.307l3.01,0.163L618.699,326.815z
			 M617.356,330.075l-1.725,2.48l4.749-2.313L617.356,330.075z"/>
		<path d="M610.731,325.996l9.887-5.103l0.402,0.781l-9.887,5.103L610.731,325.996z"/>
		<path d="M612.358,318.47l5.392-2.948l0.421,0.77l-5.771,3.156l0.071,1.988l-0.893,0.489l-0.094-1.977l-3.07,1.679l-0.422-0.77
			l3.461-1.892l-0.083-1.982l0.903-0.494L612.358,318.47z"/>
		<path d="M605.293,316.078l9.626-5.566l0.439,0.76l-9.626,5.566L605.293,316.078z"/>
		<path d="M601.234,309.332l9.495-5.798l0.377,0.62l-2.629,1.604l-1.768,3.261l3.752-0.013l2.635-1.595l0.378,0.62l-9.495,5.798
			l-0.377-0.62l1.934-3.417l-3.917,0.169L601.234,309.332z M607.359,306.442l-4.497,2.747l3.012-0.124L607.359,306.442z
			 M606.332,309.814l-1.479,2.633l4.508-2.753L606.332,309.814z"/>
		<path d="M598.021,304.32l-0.491-0.728l4.603-3.117l-4.411-2.34l0.739-0.473l4.398,2.321l1.453-0.984l-4.397-2.321l0.727-0.492
			l4.398,2.321l1.695-1.148l0.491,0.727L598.021,304.32z"/>
		<path d="M603.377,292.457l0.509,0.715l-9.053,6.46l-0.518-0.725l0.145-0.103l2.127-3.613l-4.167,0.768l-0.134,0.095l-0.516-0.725
			l9.065-6.441l0.51,0.715l-7.604,5.428l4.092-0.772l-2.068,3.614L603.377,292.457z"/>
		<path d="M593.599,289.47l4.92-3.685l0.525,0.703l-5.266,3.945l0.354,1.958l-0.814,0.611l-0.374-1.944l-2.802,2.099l-0.525-0.703
			l3.157-2.365l-0.364-1.951l0.823-0.618L593.599,289.47z"/>
		<path d="M586.251,288.103l8.74-6.886l0.544,0.69l-8.741,6.886L586.251,288.103z"/>
		<path d="M583.769,279.942l1.11,4.777l1.542-1.276l-1.127-4.795l0.729-0.571l1.111,4.777l5.52-4.566l0.56,0.676l-8.567,7.088
			l-0.56-0.676l0.01-0.007l-1.12-4.77L583.769,279.942z"/>
		<path d="M577.568,277.708l8.406-7.292l0.477,0.548l-2.327,2.019l-1.205,3.51l3.699-0.634l2.336-2.01l0.476,0.549l-8.407,7.292
			l-0.477-0.549l1.342-3.691l-3.836,0.815L577.568,277.708z M583.133,273.843l-3.981,3.454l2.949-0.621L583.133,273.843z
			 M582.677,277.34l-1.023,2.842l3.99-3.461L582.677,277.34z"/>
		<path d="M565.945,265.479l7.87-7.857l0.621,0.622l-3.937,3.928l1.221,4.984l-5.123-1.023l-0.032-0.033L565.945,265.479z
			 M569.764,262.909l-2.378,2.374l3.319,0.822L569.764,262.909z"/>
		<path d="M564.706,264.297l-0.357-3.271l1.836-4.125l3.282-3.438l0.552,0.526l-3.188,3.336l-1.709,3.825l0.313,2.792l0.103,0.097
			l7.157-7.495l0.644,0.615l-7.683,8.045L564.706,264.297z"/>
		<path d="M559.287,259.237l7.479-8.233l0.65,0.59l-7.479,8.234L559.287,259.237z"/>
		<path d="M560.317,253H560.3l-4.729-1.389l5.09-5.92l0.664,0.541l-4.106,4.717l4.73,1.241l-4.588,5.305l-0.674-0.446L560.317,253z"
			/>
		<path d="M549.358,244.35l3.806-4.831l0.69,0.543l-4.074,5.171l0.849,1.801l-0.631,0.8l-0.862-1.782l-2.167,2.751l-0.689-0.543
			l2.441-3.101l-0.854-1.792l0.638-0.81L549.358,244.35z"/>
		<path d="M547.62,235.291l-0.497,3.358l3.083-1.42l0.814,0.61l-4.055,1.877l-0.566,3.803l-4.154,1.641l0.407-4.449l3.489-1.613
			l0.662-4.418L547.62,235.291z M545.986,240.167l-2.511,1.163l-0.271,2.547l2.369-0.975L545.986,240.167z"/>
		<path d="M542.315,238.327l-0.018,0.003l-4.828-0.797l4.516-6.307l0.716,0.51l-3.643,5.103l4.829,0.797l-4.066,5.719l-0.726-0.517
			L542.315,238.327z"/>
		<path d="M532.978,233.946l0.586,3.058l5.347-7.877l0.727,0.493l-5.34,7.868l3.042-0.582l-0.658,0.969l-3.658,0.7l-0.701-3.66
			L532.978,233.946z"/>
		<path d="M529.739,236.374l-1.189-5.636l2.848,0.439l0.707-6.504l0.737,0.475l-0.618,6.909l-2.602-0.282l0.786,3.623l5.376-8.356
			l0.748,0.481l-6.017,9.35l-0.463-0.297l-0.284-0.184L529.739,236.374z"/>
		<path d="M524.617,233.125l-1.044-3.122l0.916-4.421l2.479-4.058l0.649,0.396l-2.404,3.938l-0.858,4.101l0.899,2.662l0.12,0.073
			l5.401-8.845l0.76,0.464l-5.799,9.495L524.617,233.125z"/>
		<path d="M516.988,228.589l-0.64-0.369l5.566-9.625l0.639,0.369l-0.627,4.87l3.919-2.966l0.618,0.357l-5.556,9.631l-0.63-0.363
			l0.662-4.931l-3.943,3.032L516.988,228.589z M521.6,220.615l-3.563,6.187l3.046-2.322L521.6,220.615z M521.795,224.906
			l-0.479,3.82l3.593-6.211L521.795,224.906z"/>
		<path d="M515.457,215.082l0.78,0.403l-5.092,9.892l-0.791-0.408l0.08-0.156l0.236-4.187l-3.354,2.591l-0.075,0.146l-0.791-0.408
			l5.112-9.881l0.78,0.403l-4.274,8.31l3.285-2.561l-0.186,4.162L515.457,215.082z"/>
		<path d="M504.758,218.549l-2.595,2.305l-0.79-0.384l4.292-3.785l2.559-5.253l0.789,0.384l-2.567,5.275l-0.333,5.686l-0.79-0.385
			l0.216-3.438l-1.396,2.864l-0.79-0.384L504.758,218.549z"/>
		<path d="M504.833,209.813l0.799,0.365l-4.613,10.123l-0.81-0.37l0.072-0.16l0.037-4.193l-3.227,2.749l-0.067,0.149l-0.811-0.37
			l4.635-10.113l0.799,0.365l-3.873,8.504l3.158-2.715l0.016,4.166L504.833,209.813z"/>
		<path d="M495.006,217.571l-2.108-5.359l2.881-0.039l-0.385-6.531l0.807,0.346l0.539,6.915l-2.612,0.154l1.377,3.442l3.912-9.133
			l0.818,0.35l-4.378,10.22l-0.507-0.217l-0.312-0.134L495.006,217.571z"/>
		<path d="M491.006,203.874l1.269,4.705l1.447-3.618l0.815,0.326l-4.132,10.321l-0.814-0.326l2.228-5.563l-1.854-6.263
			L491.006,203.874z"/>
		<path d="M482.515,212.538l3.886-10.422l0.822,0.307l-3.885,10.423L482.515,212.538z"/>
		<path d="M476.337,206.31l1.359,2.8l3.113-8.994l0.829,0.288l-3.108,8.981l2.785-1.353l-0.385,1.106l-3.351,1.627l-1.627-3.351
			L476.337,206.31z"/>
		<path d="M470.687,205.118l3.519,3.419l0.606-1.907l-3.539-3.426l0.303-0.874l3.519,3.419l2.177-6.826l0.836,0.267l-3.377,10.597
			l-0.838-0.267l0.004-0.011l-3.521-3.408L470.687,205.118z"/>
		<path d="M465.359,202.938l1.493,2.728l2.668-9.13l0.843,0.246l-2.664,9.119l2.714-1.487l-0.328,1.123l-3.265,1.789l-1.789-3.265
			L465.359,202.938z"/>
		<path d="M460.93,205.685l2.87-10.742l0.848,0.227l-2.869,10.742L460.93,205.685z"/>
		<path d="M456.896,193.215l0.87,3.282l2.271-2.523l0.99,0.239l-2.983,3.328l0.982,3.718l-3.17,3.15l-1.384-4.249l2.569-2.861
			l-1.138-4.322L456.896,193.215z M457.322,198.341l-1.848,2.06l0.76,2.448l1.791-1.833L457.322,198.341z"/>
		<path d="M450.821,198.158l1.298-6.008l0.858,0.186l-1.391,6.432l1.552,1.245l-0.215,0.996l-1.557-1.223l-0.739,3.422l-0.857-0.186
			l0.832-3.857l-1.554-1.234l0.218-1.007L450.821,198.158z"/>
		<path d="M440.657,201.262l-2.137-2.504l-0.804-4.443l0.781-4.689l0.75,0.125l-0.757,4.551l0.738,4.124l1.828,2.132l0.14,0.023
			l1.701-10.223l0.878,0.146l-1.826,10.973L440.657,201.262z"/>
		<path d="M431.582,196.62l4.041,2.787l1.42-9.997l0.87,0.124l-1.565,11.017l-0.87-0.124l0.002-0.012l-4.041-2.775L431.582,196.62z"
			/>
		<path d="M425.87,195.935l4.104,2.689l1.185-10.022l0.872,0.103l-1.306,11.046l-0.872-0.103l0.002-0.012l-4.104-2.678
			L425.87,195.935z"/>
		<path d="M420.161,195.393l4.166,2.592l0.188-1.993l-4.188-2.594l0.108-0.919l4.168,2.592l0.672-7.134l0.873,0.083l-1.043,11.075
			l-0.875-0.083l0.002-0.012l-4.168-2.58L420.161,195.393z"/>
		<path d="M414.242,198.198l0.769-11.089l0.725,0.05l-0.213,3.07l1.634,3.327l2.16-3.064l0.224-3.069l0.724,0.05l-0.768,11.089
			l-0.724-0.05l-1.666-3.552l-2.129,3.289L414.242,198.198z M415.431,191.536l-0.363,5.253l1.642-2.525L415.431,191.536z
			 M417.583,194.324l1.289,2.729l0.365-5.265L417.583,194.324z"/>
		<path d="M410.261,186.878l2.744,4.026l0.178-3.893l0.877,0.04l-0.508,11.104l-0.876-0.04l0.273-5.984l-3.812-5.304
			L410.261,186.878z"/>
		<path d="M404.141,186.703l1.55,3.02l1.682-2.948l1.019,0.022l-2.206,3.885l1.752,3.423l-2.426,3.752l-2.257-3.855l1.901-3.342
			l-2.031-3.979L404.141,186.703z M405.647,191.619l-1.364,2.405l1.262,2.229l1.359-2.171L405.647,191.619z"/>
		<path d="M391.323,194.714l4.442,2.08l-0.25-10.088l0.878-0.022l0.379,11.118L396,197.824v-0.012l-4.547-2.068L391.323,194.714z"/>
		<path d="M385.589,194.981l4.489,1.974l-0.097-1.999l-4.513-1.973l-0.021-0.924l4.488,1.974l-0.346-7.153l0.876-0.042l0.474,11.104
			l-0.94,0.042v-0.012l-4.424-1.962L385.589,194.981z"/>
		<path d="M379.903,196.417l-0.074-1.027l3.234-2.497l-3.506-1.438l-0.064-0.91l4.159-3.35l0.875-0.063l0.797,11.089l-0.875,0.063
			L379.903,196.417z M383.786,192.325l0.223-0.168l-0.294-4.086l-3.46,2.795L383.786,192.325z M384.386,197.409l-0.294-4.098
			l-0.229-0.089l-3.261,2.628L384.386,197.409z"/>
		<path d="M374.391,187.969l1.894,2.819l1.325-3.126l1.014-0.097l-1.736,4.119l2.142,3.195l-1.971,4.011l-2.692-3.566l1.497-3.542
			l-2.484-3.716L374.391,187.969z M376.464,192.677l-1.074,2.55l1.516,2.067l1.096-2.316L376.464,192.677z"/>
		<path d="M373.125,199.297l-4.515-3.583l2.476-1.479l-3.608-5.462l0.871-0.105l3.936,5.718l-2.186,1.444l2.92,2.29l-1.192-9.872
			l0.884-0.107l1.333,11.046l-0.546,0.066l-0.337,0.041L373.125,199.297z"/>
		<path d="M365.396,200.295l-1.594-11.002l0.869-0.126l1.594,11.002L365.396,200.295z"/>
		<path d="M361.021,195.366l-0.009,0.014l-3.972,2.858l-1.282-7.649l0.867-0.146l1.045,6.18l3.972-2.858l1.182,6.917l-0.878,0.148
			L361.021,195.366z"/>
		<path d="M347.596,198.507l-1.313-6.008l0.857-0.188l1.406,6.432l1.931,0.489l0.218,0.996l-1.925-0.466l0.748,3.422l-0.858,0.188
			l-0.843-3.856l-1.928-0.478l-0.22-1.007L347.596,198.507z"/>
		<path d="M343.303,204.607l-2.639-10.8l0.853-0.208l2.639,10.799L343.303,204.607z"/>
		<path d="M338.467,200.118l-0.008,0.015l-3.679,3.225l-2.01-7.488l0.849-0.229l1.632,6.049l3.679-3.225l1.839,6.77l-0.858,0.232
			L338.467,200.118z"/>
		<path d="M332.356,207.575l-3.146-10.669l0.842-0.248l3.146,10.669L332.356,207.575z"/>
		<path d="M323.365,210.444l-3.074-1.176l-2.834-3.516l-1.562-4.492l0.72-0.25l1.515,4.359l2.624,3.267l2.627,0.996l0.133-0.046
			l-3.402-9.791l0.84-0.292l3.653,10.51L323.365,210.444z"/>
		<path d="M312.981,210.153l2.832,1.288l-3.336-8.907l0.82-0.308l3.333,8.896l1.281-2.816l0.411,1.095l-1.542,3.389l-3.39-1.542
			L312.981,210.153z"/>
		<path d="M302.713,215.054l4.899,0.278l-0.791-1.84l-4.92-0.269l-0.345-0.859l4.898,0.278l-2.829-6.583l0.807-0.347l4.393,10.22
			l-0.807,0.347l-0.006-0.011L303.12,216L302.713,215.054z"/>
		<path d="M297.485,217.443l4.9,0.158l-4.209-9.167l0.797-0.366l4.64,10.104l-0.798,0.366l-0.004-0.011l-4.896-0.147
			L297.485,217.443z"/>
		<path d="M295.716,221.883l-4.885-9.987l0.789-0.386l4.885,9.988L295.716,221.883z"/>
		<path d="M288.705,225.45l-5.117-9.872l0.779-0.404l2.559,4.936l5.12,0.339l-2.52,4.576l-0.042,0.021L288.705,225.45z
			 M287.405,221.035l1.546,2.982l1.784-2.916L287.405,221.035z"/>
		<path d="M287.195,226.265l-3.225-0.646l-3.377-2.99l-2.286-4.163l0.667-0.366l2.22,4.04l3.128,2.78l2.753,0.543l0.123-0.067
			l-4.983-9.075l0.779-0.428l5.349,9.741L287.195,226.265z"/>
		<path d="M280.729,229.903l-5.581-9.611l0.759-0.44l5.581,9.61L280.729,229.903z"/>
		<path d="M278.493,231.214l-5.272-0.2l1.53,2.495l-0.749,0.459l-2.447-3.992l5.272,0.2l-3.979-6.486l-2.212,4.789l-2.447-3.992
			l0.749-0.459l1.529,2.495l2.212-4.79L278.493,231.214z"/>
		<path d="M262.021,228.494l0.727-0.493l6.257,9.184l-0.735,0.5l-0.099-0.146l-3.563-2.203l0.677,4.179l0.092,0.136l-0.735,0.5
			l-6.237-9.197l0.726-0.493l5.258,7.713l-0.683-4.105l3.566,2.145L262.021,228.494z"/>
		<path d="M259.962,239.553l0.789,3.377l-0.714,0.511l-1.279-5.574l-3.396-4.751l0.714-0.511l3.41,4.771l4.836,3.002l-0.714,0.51
			l-2.917-1.828l1.851,2.59l-0.714,0.511L259.962,239.553z"/>
		<path d="M247.708,238.83l0.689-0.544l6.895,8.719l-0.698,0.551l-0.109-0.138l-3.711-1.945l0.972,4.122l0.102,0.129l-0.698,0.551
			l-6.876-8.734l0.689-0.543l5.793,7.323l-0.972-4.047l3.709,1.887L247.708,238.83z"/>
		<path d="M244.743,251.395l4.777-1.112l-1.276-1.542l-4.795,1.126l-0.571-0.727l4.777-1.112l-4.566-5.519l0.676-0.56l7.088,8.567
			l-0.676,0.56l-0.007-0.009l-4.77,1.121L244.743,251.395z"/>
		<path d="M231.804,252.303l4.79,0.909l-2.627-2.881l0.649-0.591l7.494,8.219l-0.649,0.592l-4.039-4.43l-6.449-1.06L231.804,252.303
			z"/>
		<path d="M227.365,256.488l3.231,1.043l-0.894-3.275l0.736-0.704l1.185,4.31l3.658,1.186l0.935,4.37l-4.322-1.135l-1.016-3.709
			l-4.25-1.381L227.365,256.488z M231.906,258.904l0.733,2.667l2.469,0.687l-0.572-2.498L231.906,258.904z"/>
		<path d="M230.31,269.234l-7.871-7.856l0.513-0.514l2.179,2.175l3.585,0.949l-0.897-3.643l-2.17-2.183l0.513-0.514l7.871,7.856
			l-0.513,0.514l-3.776-1.072l1.088,3.765L230.31,269.234z M226.059,263.965l3.729,3.722l-0.831-2.896L226.059,263.965z
			 M229.577,264.168l2.906,0.817l-3.737-3.73L229.577,264.168z"/>
		<path d="M226.399,273.34l-8.06-7.668l0.5-0.526l2.231,2.123l3.608,0.862l-0.984-3.62l-2.223-2.131l0.5-0.526l8.06,7.668
			l-0.5,0.526l-3.802-0.982l1.178,3.739L226.399,273.34z M222.021,268.172l3.818,3.632l-0.9-2.876L222.021,268.172z
			 M225.545,268.292l2.926,0.747l-3.826-3.641L225.545,268.292z"/>
		<path d="M215.017,269.312l3.297,0.812l-1.124-3.204l0.685-0.754l1.487,4.214l3.733,0.923l1.242,4.292l-4.392-0.825l-1.276-3.627
			l-4.337-1.077L215.017,269.312z M219.718,271.399l0.921,2.608l2.511,0.509l-0.748-2.451L219.718,271.399z"/>
		<path d="M219.349,281.251l-0.483,0.558l-8.407-7.277l0.482-0.558l4.666,1.531l-2.177-4.407l0.467-0.54l8.416,7.268l-0.475,0.549
			l-4.719-1.577l2.237,4.444L219.349,281.251z M212.384,275.223l5.406,4.664l-1.708-3.428L212.384,275.223z M216.635,275.837
			l3.662,1.188l-5.425-4.696L216.635,275.837z"/>
		<path d="M207.321,278.323l3.331,0.652l-1.276-3.146l0.648-0.786l1.688,4.137l3.772,0.743l1.447,4.227l-4.425-0.613l-1.449-3.562
			l-4.383-0.867L207.321,278.323z M212.115,280.182l1.045,2.561l2.532,0.388l-0.864-2.411L212.115,280.182z"/>
		<path d="M200.232,287.452l4.875-0.005l-3.12-2.337l0.526-0.703l8.9,6.668l-0.526,0.703l-4.797-3.594l-6.532,0.167L200.232,287.452
			z"/>
		<path d="M196.672,292.392l3.369,0.416l-1.495-3.048l0.591-0.83l1.975,4.008l3.815,0.475l1.741,4.114l-4.457-0.299l-1.697-3.45
			l-4.433-0.555L196.672,292.392z M201.586,293.907l1.223,2.479l2.554,0.208l-1.033-2.345L201.586,293.907z"/>
		<path d="M198.972,299.892l-5.087-3.445l0.492-0.728l5.445,3.688l1.733-0.974l0.843,0.571l-1.714,0.987l2.897,1.961l-0.492,0.727
			l-3.265-2.211l-1.724,0.981l-0.853-0.578L198.972,299.892z"/>
		<path d="M196.609,302.442l0.003,0.016l-0.561,4.862l-6.519-4.202l0.475-0.739l5.273,3.388l0.561-4.861l5.911,3.783l-0.481,0.749
			L196.609,302.442z"/>
		<path d="M188.713,304.443l0.457-0.75l9.5,5.774l-0.462,0.759l-0.15-0.091l-4.157-0.531l2.347,3.526l0.14,0.085l-0.463,0.759
			l-9.489-5.794l0.457-0.75l7.982,4.849l-2.321-3.456l4.135,0.477L188.713,304.443z"/>
		<path d="M193.098,318.885l-9.64-5.552l0.438-0.761l4.82,2.776l4.495-2.479l0.348,5.214l-0.023,0.041L193.098,318.885z
			 M189.619,315.868l2.912,1.677l-0.071-3.419L189.619,315.868z"/>
		<path d="M192.273,320.38l-3.065,1.197l-4.461-0.696l-4.175-2.273l0.364-0.668l4.052,2.206l4.138,0.653l2.614-1.03l0.067-0.124
			l-9.102-4.956l0.426-0.782l9.77,5.32L192.273,320.38z"/>
		<path d="M184.905,327.424l3.954-2.901l-1.779-0.916l-3.965,2.922l-0.813-0.444l3.955-2.901l-6.369-3.278l0.402-0.78l9.886,5.088
			l-0.401,0.781l-0.011-0.005l-3.944,2.906L184.905,327.424z"/>
		<path d="M181.865,332.331l2.94-1.019l-8.56-4.156l0.383-0.79l8.549,4.151l-1.013-2.925l1.053,0.511l1.219,3.519l-3.519,1.219
			L181.865,332.331z"/>
		<path d="M178.943,348.792l-0.273,0.686l-10.336-4.117l0.273-0.685l4.912-0.085l-3.504-3.451l0.264-0.664l10.34,4.106l-0.269,0.675
			l-4.978,0.059l3.574,3.466L178.943,348.792z M170.381,345.381l6.641,2.633l-2.74-2.68L170.381,345.381z M174.601,344.566
			l3.851-0.08l-6.669-2.656L174.601,344.566z"/>
		<path d="M178.06,351.067l-2.862,1.622l-4.512-0.053l-4.454-1.654l0.265-0.713l4.323,1.605l4.186,0.057l2.439-1.391l0.049-0.132
			l-9.709-3.605l0.31-0.834l10.422,3.871L178.06,351.067z"/>
		<path d="M175.541,358.059l-10.51-3.624l0.286-0.83l10.51,3.624L175.541,358.059z"/>
		<path d="M169.162,359.669l0.007,0.015l0.725,4.834l-7.381-2.354l0.266-0.836l5.967,1.894l-0.725-4.834l6.685,2.109l-0.269,0.848
			L169.162,359.669z"/>
		<path d="M166.975,375.493l3.242-3.678l-1.934-0.515l-3.248,3.701l-0.887-0.26l3.242-3.679l-6.92-1.839l0.226-0.848l10.741,2.855
			l-0.225,0.848l-0.011-0.003l-3.23,3.681L166.975,375.493z"/>
		<path d="M169.69,377.957l-2.647,1.953l-4.487,0.489l-4.621-1.109l0.177-0.74l4.485,1.076l4.164-0.445l2.255-1.674l0.033-0.137
			l-10.074-2.417l0.208-0.865l10.814,2.595L169.69,377.957z"/>
		<path d="M163.845,386.56l2.613-1.688l-9.304-1.998l0.184-0.858l9.293,1.995l-1.681-2.6l1.144,0.246l2.022,3.128l-3.128,2.021
			L163.845,386.56z"/>
		<path d="M156.392,386.541l0.164-0.863l10.932,2.063l-0.166,0.875l-0.172-0.033l-4.081,0.966l3.44,2.477l0.161,0.03l-0.166,0.875
			l-10.928-2.084l0.164-0.862l9.183,1.729l-3.391-2.419l4.042-1.009L156.392,386.541z"/>
		<path d="M165.101,401.812l-11.017-1.565l0.124-0.87l11.017,1.566L165.101,401.812z"/>
		<path d="M164.627,405.3l-4.54,3.548l-0.857-2.752l-6.153,2.229l0.102-0.872l6.478-2.484l0.891,2.461l2.909-2.3l-9.872-1.153
			l0.104-0.884l11.046,1.291l-0.064,0.546l-0.04,0.337L164.627,405.3z"/>
		<path d="M163.958,411.31l-2.343,2.312l-4.373,1.122l-4.733-0.439l0.071-0.758l4.593,0.427l4.059-1.033l1.995-1.979l0.013-0.14
			l-10.317-0.959l0.082-0.887l11.075,1.029L163.958,411.31z"/>
		<path d="M163.487,416.563l-4.365,3.755l-0.985-2.707l-6.039,2.514l0.061-0.875l6.351-2.785l1.006,2.415l2.796-2.434l-9.911-0.688
			l0.062-0.887l11.089,0.768l-0.038,0.55l-0.023,0.339L163.487,416.563z"/>
		<path d="M152.016,421.697l0.04-0.877l11.104,0.495l-0.041,0.889l-0.175-0.008l-3.9,1.53l3.752,1.965l0.164,0.008l-0.041,0.888
			l-11.103-0.519l0.04-0.878l9.328,0.416l-3.696-1.914l3.854-1.569L152.016,421.697z"/>
		<path d="M163,437.098l-0.079,0.737l-11.165,0.174l-0.034-0.736l4.488-1.968l-4.564-1.837l-0.014-0.714l11.117-0.186l0.01,0.726
			l-4.479,1.968l4.72,1.824V437.098z M157.188,434.867l3.522-1.554l-7.174,0.112L157.188,434.867z M153.607,437.241l7.139-0.123
			l-3.558-1.419L153.607,437.241z"/>
		<path d="M151.797,442.979l2.942-1.692l-3.027-1.538l-0.026-1.018l3.987,2.016l3.335-1.914l3.865,2.241l-3.743,2.439l-3.43-1.736
			l-3.877,2.221L151.797,442.979z M156.635,441.237l2.469,1.247l2.166-1.368l-2.234-1.253L156.635,441.237z"/>
		<path d="M159.993,449.524l1.968-4.492l-10.075,0.5l-0.043-0.877l11.104-0.542L162.99,445h-0.012l-1.957,4.481L159.993,449.524z"/>
		<path d="M152.45,454.834l2.858-1.829l-3.094-1.393l-0.075-1.017l4.077,1.825l3.24-2.066l3.964,2.057l-3.623,2.612l-3.507-1.574
			l-3.768,2.399L152.45,454.834z M157.2,452.867l2.524,1.129l2.099-1.468l-2.29-1.146L157.2,452.867z"/>
		<path d="M163.74,456.347l-3.689,4.43l-1.42-2.511l-5.547,3.479L153,460.87l5.81-3.799l1.392,2.219l2.358-2.864l-9.897,0.959
			l-0.085-0.886l11.075-1.073l0.053,0.548l0.033,0.338L163.74,456.347z"/>
		<path d="M165.295,469.604l-11.002,1.595l-0.126-0.869l11.002-1.595L165.295,469.604z"/>
		<path d="M161.311,476.194l-6.064,1.024l-0.146-0.866l6.492-1.098l0.581-1.904l1.005-0.17l-0.558,1.9l3.454-0.584l0.146,0.866
			l-3.893,0.657l-0.57,1.902l-1.016,0.172L161.311,476.194z"/>
	</g>
	<g>
		<path d="M425.123,305.421l10.782,6.663l2.367-25.964l2.26,0.206l-2.609,28.615l-2.26-0.206l0.003-0.03l-10.784-6.632
			L425.123,305.421z"/>
		<path d="M413.501,284.39l3.809,7.9l4.53-7.508l2.628,0.124l-5.945,9.895l4.305,8.953l-6.504,9.536l-5.581-10.103l5.123-8.51
			l-4.992-10.408L413.501,284.39z M417.078,297.184l-3.679,6.125l3.116,5.839l3.65-5.521L417.078,297.184z"/>
		<path d="M405.788,313l-10.352-10.722l6.836-2.965l-7.4-15.208l2.269,0.021l8.148,15.964l-6.08,2.959l6.702,6.846l0.271-25.677
			l2.3,0.024l-0.306,28.731l-1.422,0.01L405.879,313H405.788z"/>
		<path d="M390.056,284.271l2.268-0.089l1.161,28.715l-2.298,0.09l-0.018-0.454l-4.802-9.71l-4.234,10.097l0.018,0.423l-2.298,0.09
			l-1.101-28.718l2.267-0.089l0.98,24.12l4.12-9.941l4.889,9.586L390.056,284.271z"/>
		<path d="M365.098,314.619l-2.392-28.629l1.869-0.156l0.662,7.926l5.48,7.857l4.313-8.675l-0.632-7.929l1.868-0.156l2.393,28.629
			l-1.868,0.156l-5.65-8.419l-4.145,9.238L365.098,314.619z M365.519,297.134l1.134,13.562l3.2-7.095L365.519,297.134z
			 M372.112,303.411l4.363,6.463l-1.135-13.591L372.112,303.411z"/>
		<path d="M341.694,317.966l-4.958-28.296l2.233-0.391l4.958,28.296L341.694,317.966z"/>
		<path d="M334.928,319.185l-12.729-4.883l1.663,7.378l-2.213,0.499l-2.661-11.804l12.729,4.883l-4.324-19.182l-9.402,9.873
			l-2.661-11.804l2.213-0.499l1.663,7.377l9.403-9.872L334.928,319.185z"/>
		<path d="M314.497,309.269l-0.021,0.037l-9.43,8.404l-5.345-19.292l2.185-0.609l4.344,15.584l9.43-8.404l4.892,17.439l-2.214,0.617
			L314.497,309.269z"/>
		<path d="M303.154,327.486l-7.91-3.11l-7.231-9.146l-3.921-11.634l1.863-0.628l3.806,11.291l6.693,8.498l6.76,2.636l0.344-0.116
			l-8.548-25.361l2.179-0.734l9.176,27.223L303.154,327.486z"/>
		<path d="M279.815,336.17l-10.684-26.672l1.741-0.697l2.958,7.384l7.545,5.905l1.579-9.56l-2.929-7.396l1.74-0.697l10.684,26.672
			l-1.741,0.697l-7.871-6.393l-1.253,10.048L279.815,336.17z M275.09,319.329l5.062,12.634l0.979-7.723L275.09,319.329z
			 M283.236,323.397l6.067,4.9l-5.072-12.663L283.236,323.397z"/>
		<path d="M255.801,348.314l-1.667,0.924l-13.93-25.136l1.667-0.924l9.961,7.864l-1.362-12.63l1.614-0.894l13.957,25.121
			l-1.641,0.909l-10.049-8.023l1.476,12.774L255.801,348.314z M244.261,327.491l8.971,16.125l-1.095-9.838L244.261,327.491z
			 M254.031,332.764l7.83,6.14l-8.989-16.219L254.031,332.764z"/>
		<path d="M228.493,331.596l7.711,4.172l-0.725-8.738l2.203-1.439l0.976,11.5l8.729,4.735l0.313,11.535l-10.438-4.919l-0.831-9.896
			l-10.14-5.512L228.493,331.596z M238.884,339.87l0.605,7.118l5.945,2.907l-0.274-6.612L238.884,339.87z"/>
		<path d="M225.537,359.263l12.428-2.484l-15.981-20.598l1.792-1.39l17.612,22.7l-1.792,1.391l-0.019-0.024l-12.409,2.508
			L225.537,359.263z"/>
		<path d="M202.54,352.703l8.319,2.777l-2.226-8.483l1.921-1.799l2.951,11.161l9.419,3.155l2.304,11.311l-11.135-3.041l-2.531-9.606
			l-10.943-3.676L202.54,352.703z M214.208,359.057l1.828,6.908l6.36,1.835l-1.414-6.466L214.208,359.057z"/>
		<path d="M218.418,377.509l-14.848,1.015l2.152-7.128l-16.388-4.146l1.481-1.718l17.454,4.067l-1.659,6.556l9.553-0.708
			l-19.445-16.764l1.501-1.74l21.758,18.757l-0.928,1.077l-0.573,0.664L218.418,377.509z"/>
		<path d="M189.744,392.866l0.015,0.041l0.142,12.632l-18.058-8.645l0.976-2.047l14.604,6.964l-0.142-12.632l16.365,7.771
			l-0.989,2.074L189.744,392.866z"/>
		<path d="M195.686,416.461l-27.615-7.915l0.625-2.18l27.615,7.914L195.686,416.461z"/>
		<path d="M183.102,433.865l6.213-5.106l-24.476-2.395l0.221-2.258l24.446,2.392l-5.079-6.181l3.01,0.294l6.111,7.437l-7.437,6.111
			L183.102,433.865z"/>
		<path d="M189.401,462.062l2.483-12.432l-4.992,1.357l-2.467,12.487l-2.322,0.568l2.483-12.431l-17.864,4.855l-0.595-2.188
			l27.73-7.538l0.595,2.188l-0.029,0.009l-2.454,12.423L189.401,462.062z"/>
		<path d="M202.965,471.788l-26.078,12.061l-0.787-1.701l7.22-3.34l5.503-7.843l-9.629-1.078l-7.232,3.312l-0.787-1.701
			l26.078-12.061l0.787,1.7l-5.974,8.194l10.1,0.728L202.965,471.788z M190.032,469.039l4.577-6.315l-12.38,5.727L190.032,469.039z
			 M186.395,477.386l12.353-5.713l-7.763-0.575L186.395,477.386z"/>
		<path d="M180.115,489.322l-1.243-1.897l24.018-15.768l1.259,1.923l-0.379,0.249l-5.854,9.112l10.833-1.564l0.354-0.231
			l1.259,1.923l-24.05,15.717l-1.243-1.897l20.172-13.249l-10.641,1.583l5.702-9.122L180.115,489.322z"/>
		<path d="M211.745,499.854l0.643-8.017l-18.72,15.941l-1.471-1.728l18.697-15.922l-7.973-0.639l2.303-1.961l9.592,0.769
			l-0.769,9.593L211.745,499.854z"/>
		<path d="M233.76,541.865l-0.752-12.569l-5.554,8.399l-1.892-1.251l15.844-23.962l1.892,1.251l-8.539,12.914l1.422,16.817
			L233.76,541.865z"/>
		<path d="M248.383,550.452l0.133-8.771l-7.415,4.686l-2.295-1.287l9.748-6.187l0.162-9.934l10.086-5.614l0.466,11.534l-8.393,5.315
			l-0.198,11.544L248.383,550.452z M250.914,537.408l6.033-3.83l-0.172-6.617l-5.738,3.302L250.914,537.408z"/>
		<path d="M267.516,542.286l-6.833,14.332l-2.047-0.978l7.315-15.342l-3.16-4.053l1.132-2.375l3.188,3.999l3.892-8.162l2.047,0.977
			l-4.386,9.198l3.173,4.026l-1.146,2.402L267.516,542.286z"/>
		<path d="M275.499,547.488l0.039-0.018l12.604-0.909l-7.533,18.556l-2.104-0.851l6.066-15.005l-12.604,0.909l6.764-16.811
			l2.131,0.86L275.499,547.488z"/>
		<path d="M285.3,566.799l-2.147-0.729l9.219-27.22l2.177,0.74l-0.146,0.431l0.999,10.786l7.574-7.904l0.138-0.4l2.176,0.739
			l-9.277,27.199l-2.147-0.73l7.74-22.865l-7.412,7.801l-1.123-10.7L285.3,566.799z"/>
		<path d="M308.695,574.097l-4.545-11.747l-2.733,9.694l-2.184-0.615l7.799-27.658l2.184,0.615l-4.203,14.906l6.479,15.593
			L308.695,574.097z"/>
		<path d="M331.623,560.174l-4.277-6.808l-5.471,23.968l-2.211-0.505l5.464-23.938l-6.771,4.255l0.674-2.947l8.146-5.119
			l5.119,8.146L331.623,560.174z"/>
		<path d="M332.21,579.521l-2.232-0.396l5-28.287l2.262,0.402l-0.079,0.447l2.614,10.508l6.293-8.955l0.073-0.417l2.264,0.402
			l-5.061,28.275l-2.231-0.396l4.194-23.763l-6.146,8.826l-2.727-10.404L332.21,579.521z"/>
		<path d="M361.798,564.916l-4.902-6.371l-3.176,24.376l-2.249-0.293l3.173-24.347l-6.338,4.877l0.392-2.998l7.625-5.868
			l5.866,7.626L361.798,564.916z"/>
		<path d="M367.649,555.587l6.018,6.002l2.993,11.271l-1.035,12.234l-1.959-0.165l1.004-11.874l-2.757-10.462l-5.153-5.108
			l-0.36-0.03l-2.256,26.67l-2.291-0.193l2.422-28.63L367.649,555.587z"/>
		<path d="M381.468,556.64l10.026,10.997l-6.92,2.746l6.942,15.411l-2.266-0.091l-7.667-16.197l6.165-2.776l-6.494-7.041
			l-1.036,25.649l-2.296-0.093l1.16-28.702l1.42,0.058l0.876,0.035L381.468,556.64z"/>
		<path d="M422.344,564.771l-11.584-5.141l0.232,5.167l11.645,5.138l0.047,2.391l-11.584-5.142l0.831,18.49l-2.266,0.103
			l-1.11-28.702l2.445-0.103v0.03l11.404,5.11L422.344,564.771z"/>
		<path d="M434.896,555.352l1.897-0.169l2.551,28.615l-1.896,0.169l-5.919-11.222l-3.87,12.095l-1.838,0.163l-2.581-28.611
			l1.867-0.167l5.936,11.402l3.824-12.272L434.896,555.352z M430.215,570.281l-4.669-8.783l1.646,18.465L430.215,570.281z
			 M437.009,579.057l-1.669-18.37l-2.983,9.436L437.009,579.057z"/>
		<path d="M445.867,553.997l3.842,28.47l-2.248,0.304l-3.841-28.47L445.867,553.997z"/>
		<path d="M452.694,553.051l12.517,5.401l-1.358-7.438l2.231-0.406l2.173,11.9l-12.516-5.4l3.529,19.341l9.802-9.477l2.173,11.901
			l-2.232,0.407l-1.356-7.438l-9.8,9.477L452.694,553.051z"/>
		<path d="M474.952,548.585l6.522,27.977l-2.209,0.516l-6.521-27.978L474.952,548.585z"/>
		<path d="M487.74,560.134l0.021-0.037l9.365-8.479l5.496,19.251l-2.18,0.626l-4.467-15.552l-9.363,8.479l-5.029-17.403l2.209-0.634
			L487.74,560.134z"/>
		<path d="M503.246,540.34l9.394,27.15l-2.144,0.742l-9.394-27.15L503.246,540.34z"/>
		<path d="M530.295,560.684l-10.817-6.44l3.825,9.313l-2.098,0.861l-10.915-26.57l2.098-0.861l5.883,14.319l14.711,8.275
			L530.295,560.684z"/>
		<path d="M530.255,529.097l12.524,25.861l-2.042,0.988l-12.524-25.86L530.255,529.097z"/>
		<path d="M549.79,533.26l7.859,13.795l-1.972,1.123l-8.413-14.768l-5.131,0.278l-1.303-2.286l5.102-0.33l-4.476-7.856l1.971-1.123
			l5.045,8.854l5.116-0.306l1.317,2.313L549.79,533.26z"/>
		<path d="M564.764,542.898l-1.846-8.49l-5.543-3.854l-2.109-7.146l-6.384-4.454l1.731-1.165l10.178,7.007l-2.647-12.069
			l1.782-1.197l1.912,8.481l5.216,3.638l1.998,6.82l7.007,4.838l-1.883,1.267l-10.263-7.133l2.732,12.194L564.764,542.898z
			 M562.286,531.517l-0.862-3.83l-3.313-2.327l1.146,3.93L562.286,531.517z M563.29,526.504l3.532,2.437l-1.164-3.954l-3.196-2.152
			L563.29,526.504z"/>
		<path d="M593.004,521.54l-1.632,1.575l-19.968-20.65l1.652-1.596l0.314,0.326l10.043,4.05l-3.558-10.35l-0.295-0.305l1.653-1.596
			l19.925,20.69l-1.632,1.575l-16.775-17.343l3.538,10.156l-10.022-3.899L593.004,521.54z"/>
		<path d="M596.56,487.635l-11.604,5.104L605,509.415l-1.451,1.744l-22.092-18.38l1.451-1.744l0.022,0.019l11.581-5.121
			L596.56,487.635z"/>
		<path d="M594.49,475.611l24.251,15.409l-1.217,1.914l-24.252-15.408L594.49,475.611z"/>
		<path d="M612.006,462.553l-7.504,2.893l22.479,9.974l-0.922,2.074l-22.449-9.962l2.875,7.465l-2.765-1.229l-3.461-8.98l8.981-3.46
			L612.006,462.553z"/>
		<path d="M621.104,430.146l-0.034-0.025l-6.821-10.632l19.895-2.253l0.258,2.253l-16.073,1.845l6.821,10.633l-17.993,2.096
			l-0.263-2.283L621.104,430.146z"/>
		<path d="M632.571,410.573l0.656,2.171l-27.488,8.364l-0.667-2.2l0.435-0.132l8.184-7.096l-10.836-1.551l-0.404,0.123l-0.667-2.2
			l27.507-8.306l0.658,2.17l-23.09,7.031l10.656,1.479l-8.043,7.146L632.571,410.573z"/>
		<path d="M596.761,397.977l-0.844-1.708l25.759-12.727l0.845,1.708l-8.322,9.577l12.677-0.766l0.817,1.654l-25.745,12.754
			l-0.831-1.681l8.484-9.658l-12.826,0.873L596.761,397.977z M618.101,387.433l-16.525,8.2l9.876-0.629L618.101,387.433z
			 M612.375,396.941l-6.501,7.529l16.621-8.213L612.375,396.941z"/>
		<path d="M580.635,376.511l-1.259-1.43l21.569-18.99l1.26,1.43l-5.549,11.414l12.045-4.034l1.22,1.385l-21.55,19.013l-1.24-1.408
			l5.687-11.533l-12.161,4.178L580.635,376.511z M598.504,360.78l-13.83,12.216l9.375-3.176L598.504,360.78z M595.445,371.452
			l-4.32,8.963l13.918-12.253L595.445,371.452z"/>
		<path d="M590.486,346.229l-2.149,8.503l8.294-2.851l1.938,1.781l-10.91,3.774l-2.445,9.627l-11.106,3.141l2.203-11.331
			l9.391-3.239l2.851-11.187L590.486,346.229z M585.021,358.339l-6.754,2.337l-1.355,6.479l6.343-1.893L585.021,358.339z"/>
		<path d="M571.174,331.352l1.906,1.23l-15.558,24.152l-1.933-1.247l0.246-0.381l1.655-10.703l-9.269,5.824l-0.229,0.355
			l-1.931-1.247l15.607-24.119l1.905,1.23l-13.064,20.291l9.084-5.762l-1.513,10.65L571.174,331.352z"/>
		<path d="M538.409,345.104l13.813-25.193l1.989,1.09l-13.814,25.194L538.409,345.104z"/>
		<path d="M529.507,340.514l-3.584-7.709l1.072-11.614l5.185-11.132l1.782,0.83l-5.031,10.803l-1.014,10.773l3.078,6.573
			l0.329,0.153l11.303-24.267l2.084,0.971l-12.133,26.049L529.507,340.514z"/>
		<path d="M522.457,321.654l-0.039,0.017l-12.595,1.011l7.382-18.616l2.11,0.833l-5.943,15.053l12.596-1.012l-6.626,16.865
			l-2.139-0.844L522.457,321.654z"/>
		<path d="M492.764,326.145l9.03-27.267l1.78,0.589l-2.5,7.549l1.958,9.375l7.37-6.286l2.527-7.539l1.779,0.589l-9.03,27.267
			l-1.779-0.589l-1.894-9.959l-7.436,6.87L492.764,326.145z M500.009,310.23l-4.277,12.916l5.728-5.27L500.009,310.23z
			 M503.61,318.59l1.478,7.656l4.287-12.945L503.61,318.59z"/>
		<path d="M488.646,295.193l1.987,8.543l6.064-6.336l2.538,0.695l-7.968,8.355l2.24,9.679l-8.434,7.882l-3.236-11.081l6.862-7.184
			l-2.594-11.25L488.646,295.193z M489.338,308.463l-4.931,5.173l1.765,6.38l4.771-4.589L489.338,308.463z"/>
		<path d="M465.985,319.401l-1.859-0.41l6.189-28.05l1.859,0.411l2.262,12.482l7.334-10.364l1.802,0.397l-6.16,28.056l-1.83-0.404
			l-2.223-12.659l-7.345,10.548L465.985,319.401z M471.113,296.165l-3.944,18.017l5.688-8.096L471.113,296.165z M474.946,306.578
			l1.805,9.78l3.994-18.099L474.946,306.578z"/>
	</g>
</g>
</svg>
