<?xml version="1.0" encoding="iso-8859-1"?>
<!-- Generator: Adobe Illustrator 15.0.0, SVG Export Plug-In . SVG Version: 6.00 Build 0)  -->
<!DOCTYPE svg PUBLIC "-//W3C//DTD SVG 1.1//EN" "http://www.w3.org/Graphics/SVG/1.1/DTD/svg11.dtd">
<svg version="1.1" id="&#x30EC;&#x30A4;&#x30E4;&#x30FC;_1"
	 xmlns="http://www.w3.org/2000/svg" xmlns:xlink="http://www.w3.org/1999/xlink" x="0px" y="0px" width="800px" height="800px"
	 viewBox="0 0 800 800" style="enable-background:new 0 0 800 800;" xml:space="preserve">
<g>
	<path d="M616.571,284.897l0.072,8.581l15.73-8.01l0.697,1.369l-17.337,8.828l-0.697-1.369l0.019-0.009l-0.091-8.572
		L616.571,284.897z"/>
	<path d="M624.449,270.663l-3.165,5.028l5.94-0.101l0.875,1.553l-7.819,0.147l-3.591,5.691l-7.813-0.303l3.791-6.838l6.728-0.121
		l4.179-6.61L624.449,270.663z M618.392,277.319l-4.839,0.092l-2.23,3.89l4.482,0.109L618.392,277.319z"/>
	<path d="M605.33,276.557l2.355-9.805l4.172,2.837l6.005-9.754l0.81,1.306l-6.169,10.459l-3.902-2.402l-1.479,6.32l14.781-9.172
		l0.821,1.323l-16.54,10.263l-0.508-0.818l-0.313-0.505L605.33,276.557z"/>
	<path d="M616.079,257.138l0.864,1.271l-16.079,10.961l-0.876-1.288l0.255-0.172l3.856-6.24l-7.318,1.188l-0.237,0.161l-0.875-1.287
		l16.102-10.928l0.864,1.271l-13.505,9.21l7.188-1.197l-3.754,6.245L616.079,257.138z"/>
	<path d="M589.683,253.652l15.626-11.611l0.758,1.02l-4.325,3.214l-2.564,5.964l6.536-0.619l4.339-3.198l0.758,1.02l-15.627,11.611
		l-0.758-1.02l2.827-6.262l-6.8,0.917L589.683,253.652z M599.898,247.644l-7.402,5.5l5.229-0.694L599.898,247.644z M598.642,253.684
		l-2.161,4.822l7.419-5.512L598.642,253.684z"/>
	<path d="M579.413,241.3l14.612-12.858l1.015,1.154l-14.611,12.858L579.413,241.3z"/>
	<path d="M576.282,237.777l-1.616-9.094l-3.7,3.543l-1.063-1.11l5.92-5.67l1.616,9.094l9.62-9.214l-9.016-2.006l5.92-5.67
		l1.063,1.11l-3.7,3.544l9.016,2.006L576.282,237.777z"/>
	<path d="M574.926,222h-0.029l-8.149-2.375l9.408-9.649l1.108,1.121l-7.592,7.931l8.149,2.618l-8.485,8.869l-1.122-1.303
		L574.926,222z"/>
	<path d="M560.313,222.01l-0.845-5.695l2.929-7.335l5.507-6.232l0.998,0.882l-5.345,6.048l-2.729,6.801l0.735,4.86l0.185,0.163
		l12.005-13.585l1.167,1.031l-12.887,14.583L560.313,222.01z"/>
	<path d="M547.314,211.073l12.264-15.12l0.986,0.801l-3.395,4.186l-1.007,6.413l6.179-2.218l3.411-4.173l0.986,0.8l-12.263,15.119
		l-0.987-0.8l1.188-6.767l-6.36,2.572L547.314,211.073z M555.724,202.722l-5.809,7.162l4.894-1.967L555.724,202.722z
		 M556.002,208.884l-0.898,5.208l5.821-7.178L556.002,208.884z"/>
	<path d="M532.176,200.186l-1.065-0.728l10.973-16.076l1.066,0.728l-1.729,8.42l7.229-4.666l1.032,0.705l-10.957,16.087
		l-1.049-0.716l1.798-8.521l-7.28,4.779L532.176,200.186z M541.267,186.869l-7.029,10.334l5.621-3.655L541.267,186.869z
		 M541.048,194.385l-1.334,6.606l7.081-10.374L541.048,194.385z"/>
	<path d="M534.368,178.538l-0.358,5.929l5.159-2.943l1.514,0.941l-6.784,3.886l-0.412,6.715l-6.995,3.49l0.037-7.817l5.84-3.339
		l0.486-7.803L534.368,178.538z M532.257,187.284l-4.198,2.407l-0.086,4.482l3.982-2.059L532.257,187.284z"/>
	<path d="M516.583,184.235l4.803,7.118l8.694-15.376l1.338,0.756l-9.582,16.946l-1.337-0.757l0.01-0.018l-4.813-7.1L516.583,184.235
		z"/>
	<path d="M515.319,168.025l0.141,5.94l4.896-3.367l1.588,0.811l-6.436,4.444l0.152,6.729l-6.68,4.066l-0.62-7.795l5.541-3.82
		l-0.17-7.819L515.319,168.025z M513.949,176.922l-3.982,2.752l0.291,4.475l3.797-2.387L513.949,176.922z"/>
	<path d="M502.638,183.486l-3.45-9.472l5.043,0.061l-0.381-11.444l1.396,0.641l0.634,12.123l-4.578,0.153l2.256,6.084l7.255-15.805
		l1.415,0.649l-8.118,17.685l-0.875-0.401l-0.54-0.248L502.638,183.486z"/>
	<path d="M487.688,166.625l-0.026,0.013l-8.507,0.937l4.625-12.751l1.445,0.522l-3.723,10.31l8.508-0.937l-4.149,11.551
		l-1.464-0.529L487.688,166.625z"/>
	<path d="M471.247,171.243l5.827-18.569l1.467,0.46l-5.828,18.569L471.247,171.243z"/>
	<path d="M459.551,161.025l2.725,4.716l4.305-16.09l1.484,0.397l-4.299,16.07l4.69-2.711l-0.529,1.979l-5.645,3.262l-3.262-5.644
		L459.551,161.025z"/>
	<path d="M439.331,157.93l6.879,5.131l0.621-3.447l-6.92-5.139l0.327-1.585l6.88,5.131l2.223-12.336l1.512,0.272l-3.45,19.149
		l-1.512-0.272l0.004-0.02l-6.884-5.111L439.331,157.93z"/>
	<path d="M428.377,162.091l2.639-19.28l1.258,0.172l-0.73,5.337l2.466,6.002l4.13-5.1l0.751-5.334l1.258,0.172l-2.638,19.279
		l-1.259-0.172l-2.494-6.399l-4.102,5.497L428.377,162.091z M431.232,150.594l-1.25,9.132l3.161-4.219L431.232,150.594z
		 M434.666,155.715l1.933,4.916l1.252-9.153L434.666,155.715z"/>
	<path d="M427.777,142.465l1.53,0.144l-1.807,19.383l-1.55-0.146l0.028-0.306l-2.35-6.952l-3.752,6.397l-0.027,0.286l-1.55-0.146
		l1.847-19.379l1.53,0.145l-1.515,16.282l3.661-6.303l2.419,6.876L427.777,142.465z"/>
	<path d="M408.618,153.927l3.646,4.048l0.868-16.636l1.535,0.08l-0.868,16.615l4.026-3.627l-0.106,2.046l-4.845,4.364l-4.363-4.844
		L408.618,153.927z"/>
	<path d="M379.052,141.838l5.59,6.441l-0.482-6.804l1.532-0.108l1.377,19.41l-1.532,0.109l-0.742-10.461l-7.704-8.448
		L379.052,141.838z"/>
	<path d="M367.93,142.966l3.396,4.873l2.222-5.508l1.771-0.201l-2.91,7.256l3.841,5.523l-3.322,7.076l-4.82-6.155l2.509-6.242
		l-4.458-6.422L367.93,142.966z M371.7,151.136l-1.801,4.492l2.713,3.569l1.847-4.085L371.7,151.136z"/>
	<path d="M360.571,154.883l-1.658-10.63l1.519-0.237l1.775,11.38l3.318,1.059l0.274,1.762l-3.312-1.019l0.945,6.055l-1.519,0.237
		l-1.064-6.824l-3.314-1.039l-0.278-1.782L360.571,154.883z"/>
	<path d="M354.131,154.974l-0.016,0.024l-6.801,5.197l-2.626-13.308l1.507-0.3l2.139,10.751l6.8-5.197l2.415,12.034l-1.527,0.304
		L354.131,154.974z"/>
	<path d="M341.542,147.616l1.493-0.364l4.63,18.912l-1.514,0.369l-0.073-0.298l-4.494-5.803l-1.455,7.274l0.068,0.279l-1.514,0.369
		l-4.59-18.922l1.494-0.364l3.892,15.885l1.399-7.155l4.535,5.709L341.542,147.616z"/>
	<path d="M325.6,151.846l6.816,5.132l-1.895-6.555l1.476-0.427l5.407,18.7l-1.477,0.427l-2.914-10.078l-9.303-6.652L325.6,151.846z"
		/>
	<path d="M317.34,167.987l4.877,2.427l-5.297-15.792l1.457-0.489l5.291,15.773l2.414-4.851l0.651,1.943l-2.904,5.836l-5.836-2.905
		L317.34,167.987z"/>
	<path d="M310.234,156.97l1.435-0.55l6.992,18.17l-1.454,0.558l-0.11-0.287l-5.194-5.186l-0.52,7.399l0.103,0.268l-1.454,0.558
		l-6.953-18.185l1.435-0.551l5.876,15.262l0.48-7.274l5.222,5.086L310.234,156.97z"/>
	<path d="M298.164,175.746l5.063,2.005l-6.612-15.283l1.41-0.61l6.604,15.265l1.995-5.037l0.813,1.88l-2.4,6.06l-6.06-2.4
		L298.164,175.746z"/>
	<path d="M297.951,183.212l-5.579-1.417l-5.636-5.53l-3.624-7.484l1.198-0.58l3.517,7.263l5.22,5.141l4.766,1.196l0.221-0.107
		l-7.9-16.313l1.401-0.678l8.48,17.511L297.951,183.212z"/>
	<path d="M289.547,187.388l-9.642-2.96l3.091-3.989l-9.365-6.599l1.354-0.728l10.059,6.808l-2.64,3.746l6.217,1.87l-8.239-15.325
		l1.372-0.738l9.219,17.148l-0.849,0.457l-0.523,0.281L289.547,187.388z"/>
	<path d="M262.833,196.731l8.532-0.976l-1.91-2.938l-8.566,0.998l-0.848-1.38l8.532-0.976l-6.836-10.515l1.289-0.837l10.611,16.322
		l-1.289,0.837l-0.011-0.017l-8.521,0.993L262.833,196.731z"/>
	<path d="M258.709,206.531l-1.051,0.748L246.38,191.42l1.052-0.748l7.298,4.537l-1.873-8.395l1.018-0.724l11.294,15.847
		l-1.035,0.736l-7.37-4.637l1.961,8.483L258.709,206.531z M249.367,193.393l7.258,10.171l-1.481-6.537L249.367,193.393z
		 M256.34,196.201l5.734,3.539l-7.277-10.233L256.34,196.201z"/>
	<path d="M252.737,211.076l-11.93-15.38l1.214-0.942l11.93,15.38L252.737,211.076z"/>
	<path d="M249.037,213.963l-9.173,1.051l3.308,3.91l-1.173,0.992l-5.292-6.256l9.172-1.051l-8.599-10.166l-2.558,8.871l-5.292-6.256
		l1.173-0.992l3.307,3.91l2.558-8.871L249.037,213.963z"/>
	<path d="M237.389,224.125l-13.177-14.322l1.131-1.04l13.177,14.322L237.389,224.125z"/>
	<path d="M226,221.55v0.029l-2.759,8.1l-9.58-9.601l1.087-1.087l7.756,7.747l2.763-8.1l8.698,8.659l-1.104,1.102L226,221.55z"/>
	<path d="M223.182,238.412l-14.322-13.177l1.041-1.13l14.322,13.177L223.182,238.412z"/>
	<path d="M200.521,234.796l8.521,0.491l-5.213-4.405l0.992-1.174l14.873,12.568l-0.992,1.174l-8.016-6.773l-11.435-0.377
		L200.521,234.796z"/>
	<path d="M210.223,253.84l-15.38-11.93l0.942-1.214l15.38,11.93L210.223,253.84z"/>
	<path d="M196.992,257.1l-8.764-6.232l0.89-1.252l9.382,6.672l3.073-1.635l1.453,1.033l-3.04,1.659l4.992,3.55l-0.891,1.252
		l-5.625-4l-3.057,1.647l-1.469-1.045L196.992,257.1z"/>
	<path d="M185.21,255.169l3.405,4.799l4.478,0.928l3.212,3.893l5.161,1.079l-0.77,1.186l-8.202-1.661l4.855,6.816l-0.792,1.22
		l-3.444-4.776l-4.215-0.88l-3.057-3.718l-5.65-1.153l0.836-1.289l8.288,1.717l-4.942-6.872L185.21,255.169z M190.483,264.991
		l-2.848-0.579l1.776,2.154l2.563,0.492L190.483,264.991z M189.777,261.602l1.555,2.157l2.683,0.57l-1.759-2.144L189.777,261.602z"
		/>
	<path d="M173.168,274.873l0.727-1.354l17.158,9.187l-0.736,1.372l-0.271-0.146l-7.317-0.533l4.438,5.94l0.253,0.136l-0.736,1.372
		l-17.139-9.223l0.727-1.354l14.415,7.714l-4.387-5.819l7.274,0.44L173.168,274.873z"/>
	<path d="M177.217,297.431l6.797-5.249l-15.902-7.695l0.67-1.383l17.525,8.48l-0.669,1.383l-0.019-0.009l-6.779,5.258
		L177.217,297.431z"/>
	<path d="M179.785,305.595l-17.859-7.726l0.61-1.41l17.859,7.727L179.785,305.595z"/>
	<path d="M168.419,316.152l4.974-2.22l-15.556-5.955l0.549-1.435l15.537,5.947l-2.208-4.948l1.914,0.732l2.657,5.953l-5.953,2.657
		L168.419,316.152z"/>
	<path d="M158.654,337.528l0.015,0.025l1.836,8.357l-13.167-3.243l0.365-1.492l10.646,2.604l-1.836-8.357l11.923,2.896l-0.37,1.512
		L158.654,337.528z"/>
	<path d="M146.667,345.828l0.301-1.507l19.095,3.792l-0.305,1.527l-0.301-0.06l-7.157,1.622l5.978,4.391l0.281,0.056l-0.305,1.527
		l-19.087-3.833l0.301-1.507l16.041,3.182l-5.893-4.291l7.089-1.698L146.667,345.828z"/>
	<path d="M162.881,365.815l-0.199,1.276l-19.236-3.001l0.199-1.275l8.348-2.058l-7.321-4.522l0.193-1.235l19.239,2.98l-0.196,1.255
		l-8.469,2.039l7.446,4.521L162.881,365.815z M146.946,363.33l12.354,1.907l-5.717-3.505L146.946,363.33z M153.828,360.296
		l6.54-1.635l-12.413-1.936L153.828,360.296z"/>
	<path d="M160.874,385.642l-0.093,1.287l-19.41-1.406l0.093-1.288l8.147-2.737l-7.666-3.903l0.09-1.246l19.412,1.386l-0.092,1.267
		l-8.27,2.728l7.79,3.892L160.874,385.642z M144.794,384.478l12.464,0.882l-5.983-3.021L144.794,384.478z M151.4,380.889l6.38-2.167
		l-12.524-0.908L151.4,380.889z"/>
	<path d="M141.054,394.612l5.308-2.667l-5.135-2.985l0.054-1.782l6.768,3.917l6.015-3.014l6.53,4.299l-6.78,3.892l-5.82-3.375
		L141,396.394L141.054,394.612z M149.68,392.047l4.189,2.423l3.919-2.176l-3.779-2.411L149.68,392.047z"/>
	<path d="M141.189,410.183l-0.078-1.535l19.438-1.006l0.079,1.555l-0.307,0.016l-6.54,3.327l6.87,2.79l0.287-0.015l0.079,1.556
		l-19.44,0.965l-0.078-1.534l16.328-0.849l-6.764-2.714l6.455-3.384L141.189,410.183z"/>
	<path d="M161.568,423.043l-19.381,1.797l-0.142-1.53l19.381-1.797L161.568,423.043z"/>
	<path d="M162.329,430.009l-3.086,4.863l-7.015,3.638l-8.246,1.115l-0.179-1.32l8.002-1.082l6.515-3.363l2.623-4.159l-0.033-0.244
		l-17.974,2.431l-0.209-1.543l19.294-2.609L162.329,430.009z"/>
	<path d="M154.109,440.932l0.024,0.017l5.062,6.902l-13.357,2.364l-0.27-1.514l10.792-1.926l-5.062-6.902l12.08-2.178l0.273,1.533
		L154.109,440.932z"/>
	<path d="M167.166,456.608l-19.004,4.233l-0.276-1.24l5.261-1.172l4.773-4.402l-6.221-2.1l-5.266,1.152l-0.276-1.24l19.004-4.233
		l0.276,1.24l-5.135,4.566l6.583,1.936L167.166,456.608z M158.997,452.927l3.939-3.522l-9.022,2.009L158.997,452.927z
		 M155.387,457.931l9.002-2.006l-5.058-1.498L155.387,457.931z"/>
	<path d="M150.476,469.662l4.316-4.082l-5.777-1.381l-0.461-1.722l7.608,1.803l4.893-4.617l7.491,2.237l-5.373,5.679l-6.545-1.557
		l-5.691,5.361L150.476,469.662z M157.998,464.723l4.709,1.115l3.127-3.212l-4.313-1.222L157.998,464.723z"/>
	<path d="M172.347,474.758l0.387,1.231l-18.569,5.827l-0.386-1.231l6.571-5.54l-8.564-0.813l-0.375-1.192l18.563-5.847l0.38,1.212
		l-6.688,5.577l8.676,0.756L172.347,474.758z M161.789,473.82l5.137-4.361l-11.982,3.761L161.789,473.82z M156.964,479.586
		l11.917-3.762l-6.676-0.61L156.964,479.586z"/>
	<path d="M173.653,497.099l2.111-5.02l-15.42,6.289l-0.58-1.423l15.401-6.281l-4.993-2.101l1.896-0.773l6.008,2.527l-2.527,6.008
		L173.653,497.099z"/>
	<path d="M163.116,504.905l-0.64-1.397l17.691-8.122l0.648,1.416l-0.28,0.128l-4.847,5.509l7.416,0.054l0.261-0.12l0.648,1.416
		l-17.708,8.085l-0.64-1.397l14.859-6.825l-7.289-0.021l4.747-5.531L163.116,504.905z"/>
	<path d="M188.542,512.714l-17.337,8.843l-0.577-1.132l4.8-2.448l3.521-5.452l-6.546-0.479l-4.809,2.43l-0.577-1.132l17.337-8.842
		l0.577,1.131l-3.83,5.702l6.855,0.229L188.542,512.714z M179.717,511.19l2.933-4.394l-8.23,4.197L179.717,511.19z M177.472,516.935
		l8.212-4.188l-5.27-0.188L177.472,516.935z"/>
	<path d="M188.951,513.482l-0.683,9.207l4.459-2.518l0.755,1.337l-7.135,4.028l0.683-9.206l-11.595,6.546l8.236,4.171l-7.135,4.028
		l-0.755-1.338l4.459-2.518l-8.236-4.171L188.951,513.482z"/>
	<path d="M181.314,538.834l2.943-5.159l-5.929,0.358l-0.941-1.514l7.803-0.486l3.339-5.84l7.817-0.037l-3.489,6.995l-6.715,0.413
		l-3.887,6.783L181.314,538.834z M187.075,531.923l4.83-0.303l2.059-3.981l-4.482,0.085L187.075,531.923z"/>
	<path d="M200.167,532.138l-1.937,9.897l-4.289-2.657l-5.585,10.002l-0.865-1.271l5.72-10.714l4.001,2.234l1.21-6.378l-14.38,9.793
		l-0.876-1.287l16.09-10.959l0.542,0.797l0.334,0.491L200.167,532.138z"/>
	<path d="M214.193,551.178l-15.119,12.249l-0.967-1.193l15.119-12.249L214.193,551.178z"/>
	<path d="M214.379,564.824l-8.067,7.113l-1.017-1.152l8.636-7.614l-0.892-3.366l1.336-1.179l0.923,3.339l4.594-4.052l1.016,1.152
		l-5.178,4.566l0.907,3.352l-1.352,1.192L214.379,564.824z"/>
	<path d="M214.756,581.01l1.376-8.422l-4.923,4.726l-1.064-1.108l14.046-13.481l1.064,1.108l-7.57,7.266l-1.566,11.332
		L214.756,581.01z"/>
	<path d="M234.711,573.362l-13.466,14.046l-1.109-1.063l13.467-14.047L234.711,573.362z"/>
	<path d="M244.062,581.847l0.968,0.854l-12.873,14.597l-0.968-0.854l2.754-8.142l-7.748,3.738l-0.938-0.827l12.857-14.61l0.953,0.84
		l-2.836,8.233l7.814-3.843L244.062,581.847z M234.542,586.509l2.139-6.39l-8.306,9.419L234.542,586.509z M233.398,593.939
		l8.25-9.386l-6.028,2.933L233.398,593.939z"/>
	<path d="M249.862,586.651l-12.249,15.119l-1.194-0.967l12.249-15.119L249.862,586.651z"/>
	<path d="M259.885,594.312l1.036,0.77l-11.611,15.627l-1.036-0.771l2.065-8.346l-7.411,4.374l-1.003-0.746l11.595-15.639l1.02,0.758
		l-2.139,8.444l7.468-4.484L259.885,594.312z M250.786,599.754l1.598-6.549l-7.492,10.084L250.786,599.754z M250.266,607.257
		l7.439-10.046l-5.764,3.427L250.266,607.257z"/>
	<path d="M263.52,596.887l1.556,5.543l-1.98,7.646l-4.677,6.876l-1.101-0.748l4.539-6.674l1.85-7.09l-1.342-4.729l-0.203-0.138
		l-10.196,14.989l-1.287-0.876l10.944-16.09L263.52,596.887z"/>
	<path d="M270.158,611.614l-5.664,9.14l-1.306-0.809l6.063-9.785l-1.827-2.963l0.938-1.515l1.848,2.929l3.226-5.206l1.306,0.81
		l-3.635,5.867l1.837,2.945l-0.949,1.532L270.158,611.614z"/>
	<path d="M283.3,616.868l-1.466-5.246l-8.175,14.514l-1.339-0.754l8.165-14.496l-5.219,1.458l1.005-1.786l6.28-1.754l1.754,6.279
		L283.3,616.868z"/>
	<path d="M298.185,616.886l2.462,5.206l-0.674,7.872l-3.463,7.564l-1.211-0.555l3.361-7.341l0.639-7.302l-2.115-4.438l-0.224-0.103
		l-7.548,16.488l-1.416-0.648l8.103-17.699L298.185,616.886z"/>
	<path d="M311.274,629.762l-2.111-5.021l-6.29,15.42l-1.422-0.58l6.282-15.401l-4.993,2.101l0.773-1.896l6.008-2.527l2.527,6.008
		L311.274,629.762z"/>
	<path d="M330.966,635.356l-6.186-5.949l-5.274,16.849l-1.466-0.459l5.813-18.569l1.466,0.459l-0.006,0.02l6.191,5.931
		L330.966,635.356z"/>
	<path d="M340.896,638.033l-6.434-5.681l-0.903,3.384l6.474,5.691l-0.457,1.553l-6.434-5.681l-3.231,12.112l-1.484-0.396
		l5.015-18.802l1.484,0.396l-0.005,0.02l6.439,5.661L340.896,638.033z"/>
	<path d="M351.384,638.541l-0.391,1.76l-6.678,2.569l5.162,4.168l-0.346,1.561l-8.656,3.536l-1.5-0.333l4.218-19.005l1.5,0.333
		L351.384,638.541z M342.819,643.461l-0.458,0.172l-1.554,7.001l7.205-2.955L342.819,643.461z M344.359,634.631l-1.559,7.021
		l0.34,0.265l6.787-2.776L344.359,634.631z"/>
	<path d="M356.941,655.438l-1.87-5.639l-3.698,4.649l-1.755-0.313l4.856-6.128l-2.11-6.39l5.2-5.839l2.869,7.273l-4.183,5.271
		l2.446,7.427L356.941,655.438z M355.653,646.531l3.005-3.794l-1.585-4.194l-2.933,3.391L355.653,646.531z"/>
	<path d="M364.565,636.939l6.066,8.059l-4.844,1.412l3.704,10.842l-1.523-0.206l-4.143-11.418l4.336-1.481l-3.934-5.164
		l-2.332,17.242l-1.544-0.209l2.609-19.294l0.955,0.13l0.589,0.079L364.565,636.939z"/>
	<path d="M372.707,657.587l-1.53-0.142l1.777-19.383l1.55,0.144l-0.028,0.307l2.36,6.947l3.742-6.402l0.027-0.285l1.55,0.144
		l-1.818,19.379l-1.53-0.142l1.49-16.282l-3.651,6.308l-2.429-6.871L372.707,657.587z"/>
	<path d="M394.108,658.922l-1.537-0.025l0.299-19.468l1.557,0.025l-0.005,0.308l2.882,6.75l3.246-6.67l0.005-0.287l1.557,0.025
		l-0.339,19.468l-1.537-0.025l0.247-16.354l-3.162,6.569l-2.945-6.669L394.108,658.922z"/>
	<path d="M412.236,645.929l-3.968-3.732l0.509,16.648l-1.536,0.047l-0.508-16.628l-3.712,3.946l-0.063-2.048l4.467-4.748
		l4.748,4.467L412.236,645.929z"/>
	<path d="M430.585,637.614l1.282-0.146l2.203,19.338l-1.282,0.146l-4.195-7.501l-2.42,8.255l-1.241,0.142l-2.225-19.335l1.263-0.144
		l4.209,7.624l2.386-8.376L430.585,637.614z M427.663,647.803l-3.308-5.87l1.421,12.478L427.663,647.803z M432.41,653.634
		l-1.435-12.414l-1.865,6.439L432.41,653.634z"/>
	<path d="M443.09,655.433l-3.602-4.722l-1.983,5.598l-1.76,0.276l2.596-7.373l-4.074-5.353l3.016-7.21l5.078,5.94l-2.239,6.343
		l4.729,6.224L443.09,655.433z M438.974,647.434l1.606-4.564l-2.863-3.448l-1.669,4.159L438.974,647.434z"/>
	<path d="M452.816,639.492l-8.289-2.247L448,654.567l-1.508,0.302l-3.826-19.091l1.507-0.302l0.004,0.02l8.285,2.228
		L452.816,639.492z"/>
	<path d="M464.387,650.937l-3.987-4.402l-1.505,5.745l-1.73,0.424l1.966-7.566l-4.511-4.991l2.397-7.44l5.562,5.493l-1.697,6.51
		l5.237,5.805L464.387,650.937z M459.611,643.311l1.216-4.684l-3.144-3.195l-1.313,4.285L459.611,643.311z"/>
	<path d="M463.881,630.933l8.808,4.915l-3.858,3.252l7.774,8.415l-1.477,0.429l-8.409-8.765l3.366-3.11l-5.688-3.131l4.846,16.712
		l-1.496,0.434l-5.422-18.699l0.926-0.269l0.57-0.166L463.881,630.933z"/>
	<path d="M479.681,646.521l-1.457,0.49L472,628.563l1.477-0.496l0.098,0.292l4.972,5.397l0.83-7.37l-0.092-0.271l1.477-0.497
		l6.185,18.46l-1.457,0.49l-5.23-15.494l-0.785,7.247l-5.004-5.301L479.681,646.521z"/>
	<path d="M499.174,618.153l7.726,17.858l-1.165,0.505l-2.139-4.944l-5.218-3.858l-0.893,6.501l2.12,4.953l-1.165,0.504
		l-7.727-17.859l1.166-0.504l5.446,4.183l0.663-6.826L499.174,618.153z M497.095,626.863l-4.198-3.205l3.668,8.479L497.095,626.863z
		 M502.685,629.467l-3.66-8.46l-0.52,5.247L502.685,629.467z"/>
	<path d="M510.697,618.85l-8.588-0.103l1.526,3.154l8.624,0.085l0.669,1.475l-8.588-0.102l5.464,11.29l-1.384,0.669l-8.48-17.525
		l1.384-0.669l0.009,0.018l8.578,0.084L510.697,618.85z"/>
	<path d="M518.225,630.539l-0.674-5.847l-3.478-2.97l-0.941-4.959l-4.004-3.432l1.246-0.668l6.39,5.405l-0.975-8.313l1.281-0.688
		l0.72,5.845l3.271,2.802l0.89,4.731l4.397,3.731l-1.354,0.727l-6.438-5.496l1.022,8.403L518.225,630.539z M517.319,622.701
		l-0.324-2.64l-2.077-1.792l0.51,2.727L517.319,622.701z M518.332,619.39l2.218,1.879l-0.52-2.743l-2.01-1.665L518.332,619.39z"/>
	<path d="M527.175,613.225l5.487,9.253l-1.321,0.784l-5.874-9.905l-3.474,0.25l-0.909-1.533l3.452-0.285l-3.125-5.27l1.322-0.784
		l3.521,5.939l3.463-0.267l0.92,1.551L527.175,613.225z"/>
	<path d="M537.335,603.157l-8.528,0.984l1.912,2.936l8.563-1.007l0.85,1.379l-8.529,0.983l6.845,10.506l-1.287,0.839l-10.625-16.308
		l1.287-0.839l0.011,0.018l8.519-1.002L537.335,603.157z"/>
	<path d="M553.739,591.029l-8.419,1.682l2.146,2.769l8.452-1.707l0.96,1.305l-8.42,1.682l7.686,9.908l-1.214,0.941l-11.93-15.38
		l1.214-0.942l0.013,0.017l8.406-1.698L553.739,591.029z"/>
	<path d="M561.621,584.4l-8.34,2.036l11.404,13.482l-1.173,0.992l-12.568-14.858l1.173-0.992l0.014,0.016l8.325-2.052L561.621,584.4
		z"/>
	<path d="M562.574,575.907l13.176,14.322l-1.13,1.04l-13.177-14.322L562.574,575.907z"/>
	<path d="M572.548,566.183l13.771,13.757l-1.086,1.087l-6.886-6.879l-8.721,2.149l1.777-8.97l0.059-0.058L572.548,566.183z
		 M577.057,572.859l-4.16-4.156l-1.432,5.811L577.057,572.859z"/>
	<path d="M574.721,563.867l5.711-0.73l7.275,3.075l6.121,5.631l-0.901,0.979l-5.94-5.465l-6.744-2.865l-4.874,0.639l-0.167,0.181
		l13.343,12.275l-1.055,1.146l-14.321-13.177L574.721,563.867z"/>
	<path d="M590.228,554.736l-7.886,3.391l2.674,2.263l7.913-3.423l1.209,1.076l-7.886,3.392l9.571,8.097l-0.992,1.173l-14.858-12.568
		l0.992-1.173l0.016,0.014l7.87-3.404L590.228,554.736z"/>
	<path d="M599.584,532.521l5.509-1.669l7.684,1.823l6.969,4.534l-0.726,1.116l-6.764-4.4l-7.125-1.704l-4.699,1.438l-0.134,0.205
		l15.192,9.886l-0.85,1.305l-16.308-10.611L599.584,532.521z"/>
	<path d="M614.24,521.453l-5.278,1.348l14.328,8.498l-0.784,1.321l-14.311-8.486l1.341,5.25l-1.763-1.046l-1.613-6.316l6.317-1.614
		L614.24,521.453z"/>
	<path d="M631.775,515.736l-0.671,1.382l-17.52-8.476l0.68-1.401l0.276,0.135l7.333,0.232l-4.678-5.753l-0.259-0.125l0.68-1.401
		l17.502,8.513l-0.67,1.383l-14.719-7.117l4.622,5.635l-7.286-0.142L631.775,515.736z"/>
	<path d="M628.192,497.878l9.869,4.277l-0.611,1.41l-10.564-4.579l-2.668,2.238l-1.635-0.709l2.629-2.255l-5.62-2.436l0.61-1.41
		l6.336,2.746l2.648-2.247l1.654,0.718L628.192,497.878z"/>
	<path d="M623.896,485.314l18.163,6.987l-0.552,1.434l-18.163-6.987L623.896,485.314z"/>
	<path d="M628.494,472.202l18.453,6.204l-0.405,1.204l-5.108-1.718l-6.361,1.299l4.238,5.015l5.103,1.736l-0.405,1.204
		l-18.453-6.204l0.405-1.204l6.756-1.253l-4.634-5.06L628.494,472.202z M633.581,479.576l-5.193,0.979l8.761,2.945L633.581,479.576z
		 M639.258,477.161l-8.741-2.938l3.555,3.897L639.258,477.161z"/>
	<path d="M639.162,454.327l-5.553,6.548l3.402,0.836l5.563-6.589l1.562,0.426l-5.552,6.548l12.178,2.988l-0.366,1.493l-18.903-4.639
		l0.366-1.493l0.021,0.006l5.531-6.554L639.162,454.327z"/>
	<path d="M635.457,444.358l0.255-1.265l19.077,3.841l-0.255,1.266l-8.427,1.688l7.112,4.839l-0.246,1.225l-19.081-3.821l0.251-1.245
		l8.547-1.664l-7.237-4.842L635.457,444.358z M644.256,450.268l-6.603,1.345l12.31,2.479L644.256,450.268z M651.261,447.541
		l-12.253-2.446l5.555,3.751L651.261,447.541z"/>
	<path d="M638.436,423.399l19.337,2.232l-0.146,1.262l-5.354-0.618l-5.95,2.593l5.187,4.023l5.352,0.638l-0.146,1.263l-19.338-2.232
		l0.146-1.263l6.348-2.629l-5.584-3.986L638.436,423.399z M644.944,429.555l-4.876,2.036l9.18,1.06L644.944,429.555z
		 M649.994,426.013l-9.16-1.058l4.286,3.073L649.994,426.013z"/>
	<path d="M638.921,417.179l19.409,1.421l-0.111,1.532l-19.41-1.42L638.921,417.179z"/>
	<path d="M648.137,407.104l10.75,0.345l-0.049,1.535l-11.508-0.368l-1.656,3.063l-1.782-0.058l1.615-3.063l-6.122-0.196l0.049-1.536
		l6.9,0.222l1.636-3.063l1.803,0.058L648.137,407.104z"/>
	<path d="M639.496,397.094l19.468-0.319l0.025,1.537l-19.469,0.319L639.496,397.094z"/>
	<path d="M638.983,383.119l19.439-0.985l0.063,1.269l-5.381,0.273l-5.441,3.538l5.778,3.112l5.383-0.252l0.064,1.269l-19.439,0.986
		l-0.064-1.269l5.826-3.639l-6.163-3.011L638.983,383.119z M650.813,383.791l-9.208,0.467l4.733,2.324L650.813,383.791z
		 M646.417,388.117l-4.474,2.812l9.229-0.468L646.417,388.117z"/>
	<path d="M638.002,372.453l-0.205-1.523l9.647-1.298l-5.092-7.11l1.528-0.164l5.087,7.07l3.046-0.41l-5.086-7.07l1.523-0.205
		l5.086,7.07l3.554-0.478l0.205,1.523L638.002,372.453z"/>
	<path d="M655.544,357.53l0.269,1.513l-19.16,3.427l-0.272-1.533l0.303-0.054l6.073-4.118l-7.165-1.91l-0.283,0.05l-0.272-1.533
		l19.167-3.386l0.27,1.513l-16.094,2.881l7.05,1.848l-5.981,4.164L655.544,357.53z"/>
	<path d="M642.159,345.159l10.503-2.323l0.331,1.5l-11.242,2.487l-0.848,3.377l-1.74,0.385l0.808-3.368l-5.981,1.323l-0.332-1.5
		l6.742-1.491l0.827-3.373l1.761-0.389L642.159,345.159z"/>
	<path d="M631.311,337.548l18.802-5.016l0.396,1.484l-18.801,5.016L631.311,337.548z"/>
	<path d="M632.709,322.509l-1.369,8.477l3.346-1.043l1.356-8.516l1.558-0.443l-1.369,8.477l11.972-3.735l0.458,1.467l-18.584,5.798
		l-0.457-1.467l0.02-0.006l1.35-8.471L632.709,322.509z"/>
	<path d="M623.963,314.729l18.308-6.582l0.43,1.195l-5.068,1.822l-4.179,4.962l6.43,1.301l5.076-1.803l0.429,1.195l-18.308,6.582
		l-0.43-1.195l4.518-5.171l-6.77-1.092L623.963,314.729z M635.474,311.94l-8.673,3.117l5.202,0.851L635.474,311.94z
		 M632.522,317.354l-3.463,3.987l8.691-3.125L632.522,317.354z"/>
</g>
<circle style="fill:none;stroke:#000000;stroke-width:5;stroke-miterlimit:10;" cx="400" cy="400" r="370"/>
<circle style="fill:none;stroke:#000000;stroke-width:5;stroke-miterlimit:10;" cx="400" cy="400" r="259.5"/>
<rect x="137.5" y="139.5" transform="matrix(0.7071 0.7071 -0.7071 0.7071 400.4148 -164.6854)" style="fill:none;stroke:#000000;stroke-width:3;stroke-miterlimit:10;" width="523" height="523"/>
<rect x="137.5" y="139.5" style="fill:none;stroke:#000000;stroke-width:3;stroke-miterlimit:10;" width="523" height="523"/>
<g>
	<path d="M400,162.662c32.041,0,63.123,6.275,92.383,18.65c28.262,11.954,53.644,29.067,75.44,50.864
		c21.798,21.797,38.911,47.18,50.864,75.441c12.375,29.259,18.65,60.341,18.65,92.382c0,32.041-6.275,63.123-18.65,92.383
		c-11.953,28.262-29.066,53.644-50.864,75.44c-21.797,21.798-47.179,38.911-75.44,50.864c-29.26,12.375-60.342,18.65-92.383,18.65
		c-32.042,0-63.124-6.275-92.382-18.65c-28.262-11.953-53.644-29.066-75.441-50.864c-21.797-21.797-38.911-47.179-50.864-75.44
		c-12.375-29.26-18.65-60.342-18.65-92.383c0-32.042,6.275-63.124,18.65-92.382c11.954-28.262,29.067-53.644,50.864-75.441
		s47.18-38.911,75.441-50.864C336.876,168.937,367.958,162.662,400,162.662 M400,160.662
		c-132.183,0-239.338,107.155-239.338,239.338c0,132.184,107.155,239.338,239.338,239.338
		c132.184,0,239.338-107.154,239.338-239.338C639.338,267.817,532.184,160.662,400,160.662L400,160.662z"/>
</g>
<g>
	<path d="M400,169.511c31.117,0,61.302,6.094,89.716,18.112c27.446,11.608,52.096,28.228,73.265,49.396
		c21.168,21.168,37.787,45.818,49.396,73.264c12.019,28.415,18.112,58.6,18.112,89.716c0,31.117-6.094,61.302-18.112,89.716
		c-11.608,27.446-28.228,52.096-49.396,73.265c-21.169,21.168-45.818,37.787-73.265,49.396
		c-28.414,12.019-58.599,18.112-89.716,18.112c-31.117,0-61.302-6.094-89.716-18.112c-27.446-11.608-52.096-28.228-73.264-49.396
		c-21.168-21.169-37.788-45.818-49.396-73.265c-12.019-28.414-18.112-58.599-18.112-89.716c0-31.117,6.094-61.302,18.112-89.716
		c11.608-27.446,28.228-52.096,49.396-73.264c21.168-21.168,45.818-37.788,73.264-49.396
		C338.698,175.605,368.883,169.511,400,169.511 M400,167.511C271.6,167.511,167.511,271.6,167.511,400S271.6,632.488,400,632.488
		S632.488,528.4,632.488,400S528.4,167.511,400,167.511L400,167.511z"/>
</g>
<polygon style="fill:none;stroke:#000000;stroke-width:2;stroke-miterlimit:10;" points="400,632.488 360.046,439.954 167.511,400 
	360.046,360.046 400,167.511 439.954,360.046 632.488,400 439.954,439.954 "/>
<polygon style="fill:none;stroke:#000000;stroke-width:2;stroke-miterlimit:10;" points="564.395,564.394 400,456.504 
	235.605,564.395 343.497,400 235.605,235.606 400,343.497 564.394,235.605 456.504,400 "/>
</svg>
