<?xml version="1.0" encoding="utf-8"?>
<!-- Generator: Adobe Illustrator 15.0.0, SVG Export Plug-In . SVG Version: 6.00 Build 0)  -->
<!DOCTYPE svg PUBLIC "-//W3C//DTD SVG 1.1//EN" "http://www.w3.org/Graphics/SVG/1.1/DTD/svg11.dtd">
<svg version="1.1" xmlns="http://www.w3.org/2000/svg" xmlns:xlink="http://www.w3.org/1999/xlink" x="0px" y="0px" width="1000px"
	 height="1000px" viewBox="0 0 1000 1000" enable-background="new 0 0 1000 1000" xml:space="preserve">
<g id="レイヤー_1">
	<path d="M500,984c-65.339,0-128.724-12.797-188.395-38.036c-57.634-24.377-109.395-59.275-153.844-103.725
		s-79.347-96.21-103.725-153.845C28.797,628.724,16,565.339,16,500s12.797-128.724,38.036-188.395
		c24.377-57.634,59.275-109.395,103.725-153.844s96.21-79.347,153.844-103.725C371.276,28.797,434.661,16,500,16
		s128.724,12.797,188.395,38.036c57.635,24.377,109.396,59.275,153.845,103.725s79.348,96.21,103.725,153.844
		C971.203,371.276,984,434.661,984,500s-12.797,128.724-38.036,188.395c-24.377,57.635-59.275,109.396-103.725,153.845
		s-96.21,79.348-153.845,103.725C628.724,971.203,565.339,984,500,984z M500,19C234.776,19,19,234.776,19,500
		c0,265.225,215.775,481,481,481c265.225,0,481-215.775,481-481C981,234.776,765.225,19,500,19z"/>
	<path d="M500,978.5c-64.596,0-127.261-12.652-186.254-37.604c-56.98-24.101-108.152-58.603-152.096-102.546
		c-43.943-43.944-78.445-95.116-102.545-152.097C34.152,627.261,21.5,564.596,21.5,500c0-64.596,12.652-127.261,37.604-186.254
		c24.1-56.98,58.602-108.152,102.545-152.096c43.944-43.943,95.116-78.445,152.096-102.545C372.739,34.152,435.404,21.5,500,21.5
		c64.596,0,127.261,12.652,186.254,37.604c56.98,24.1,108.152,58.602,152.097,102.545c43.943,43.944,78.445,95.116,102.546,152.096
		C965.848,372.739,978.5,435.404,978.5,500c0,64.596-12.652,127.261-37.604,186.254c-24.101,56.979-58.603,108.152-102.546,152.097
		c-43.944,43.943-95.117,78.445-152.097,102.546C627.261,965.848,564.596,978.5,500,978.5z M500,26.5
		C238.912,26.5,26.5,238.912,26.5,500c0,261.089,212.411,473.5,473.5,473.5c261.089,0,473.5-212.411,473.5-473.5
		C973.5,238.912,761.089,26.5,500,26.5z"/>
	<path d="M500,970.956c-63.578,0-125.255-12.452-183.318-37.011c-56.081-23.721-106.447-57.678-149.698-100.93
		c-43.251-43.251-77.208-93.617-100.929-149.698C41.497,625.255,29.044,563.578,29.044,500s12.452-125.255,37.011-183.318
		c23.72-56.081,57.678-106.447,100.929-149.698c43.251-43.251,93.617-77.208,149.698-100.929
		C374.745,41.497,436.422,29.044,500,29.044s125.255,12.452,183.317,37.011c56.081,23.72,106.447,57.678,149.698,100.929
		c43.252,43.251,77.209,93.617,100.93,149.698c24.559,58.063,37.011,119.74,37.011,183.318s-12.452,125.255-37.011,183.317
		c-23.721,56.081-57.678,106.447-100.93,149.698c-43.251,43.252-93.617,77.209-149.698,100.93
		C625.255,958.504,563.578,970.956,500,970.956z M500,32.044C241.968,32.044,32.044,241.968,32.044,500
		c0,258.032,209.924,467.956,467.956,467.956c258.032,0,467.956-209.924,467.956-467.956C967.956,241.968,758.032,32.044,500,32.044
		z"/>
	<path d="M500,952.478c-61.083,0-120.34-11.964-176.125-35.559c-53.881-22.79-102.271-55.415-143.825-96.97
		c-41.554-41.554-74.179-89.943-96.969-143.824C59.487,620.34,47.523,561.083,47.523,500c0-61.083,11.964-120.34,35.559-176.125
		c22.79-53.881,55.415-102.271,96.969-143.825s89.944-74.179,143.825-96.969C379.66,59.487,438.917,47.523,500,47.523
		c61.083,0,120.34,11.964,176.125,35.559c53.881,22.79,102.271,55.415,143.824,96.969c41.555,41.554,74.18,89.944,96.97,143.825
		C940.514,379.66,952.478,438.917,952.478,500c0,61.083-11.964,120.34-35.559,176.125c-22.79,53.881-55.415,102.271-96.97,143.824
		c-41.554,41.555-89.943,74.18-143.824,96.97C620.34,940.514,561.083,952.478,500,952.478z M500,50.523
		C252.158,50.523,50.523,252.158,50.523,500c0,247.843,201.635,449.478,449.477,449.478c247.843,0,449.478-201.635,449.478-449.478
		C949.478,252.158,747.843,50.523,500,50.523z"/>
	<g>
		<g>
			<path d="M340.038,131.42l-12.544-28.7c-0.501,0.218-1.002,0.438-1.503,0.658l12.544,28.699L340.038,131.42z M316.706,143.275
				l-6.724-13.762l15.726,2.112l-9.227-18.881l-7.998,13.704l-5.836-11.943c-2.375,1.221-4.736,2.468-7.085,3.731l15.25,28.14
				C312.768,145.329,314.73,144.29,316.706,143.275z M314.255,108.762c-2.803,1.336-5.59,2.702-8.36,4.097l2.721,5.567
				L314.255,108.762z M337.918,133.163l-12.841-29.378c-2.446,1.084-4.881,2.187-7.303,3.314l14.077,28.808
				C333.865,134.977,335.887,134.061,337.918,133.163z M316.559,110.625l10.868,22.24l-15.726-2.112l5.553,11.364l1.474-0.72
				l-4.055-8.298l15.726,2.112l-13.531-27.69c-0.338,0.159-0.673,0.321-1.011,0.48l-7.319,12.543l-3.536-7.235
				c-0.488,0.247-0.977,0.491-1.464,0.74l5.023,10.281L316.559,110.625z M349.292,127.477l0.341-15.836l10.917,11.477l1.289-0.5
				l-11.325-29.153c-0.563,0.208-1.123,0.42-1.684,0.629l-0.42,14.395l-9.965-10.36c-0.577,0.233-1.156,0.461-1.732,0.696
				l11.289,29.151L349.292,127.477z M349.985,95.279l9.606,24.807l-9.888-10.271L349.985,95.279z M338.403,99.818l9.967,10.474
				l-0.407,14.212L338.403,99.818z M343.923,130.538c1.146-0.485,2.295-0.958,3.445-1.432l-11.58-29.9
				c-2.471,1.016-4.928,2.058-7.376,3.118l12.842,29.381C342.146,131.32,343.027,130.917,343.923,130.538z M221.056,188.693
				l3.727,7.831l8.477,4.114c1.557-1.39,3.108-2.788,4.685-4.151l-7.641-8.947l-5.782,1.467l-2.736-3.203l5.783-1.467L217.2,172.198
				c-2.076,1.794-4.133,3.61-6.174,5.442l2.976,7.643L221.056,188.693z M408.027,109.607l-15.258-9.334l7.001-5.438l-11.398-13.375
				c-6.602,1.762-13.141,3.678-19.616,5.741l10.307,30.379C388.624,114.555,398.282,111.896,408.027,109.607z M375.56,118.706
				l-14.556-1.953l-1.354-3.991l14.611,1.992l-1.575-4.64L358,108.144l-1.155-3.71l14.589,1.989l-6.143-18.104
				c-4.648,1.524-9.263,3.123-13.84,4.799l11.614,29.897C367.211,121.507,371.376,120.072,375.56,118.706z M347.106,119.521
				l0.252-8.84l-6.199-6.515L347.106,119.521z M350.886,100.376l-0.175,9.043l6.151,6.39L350.886,100.376z M347.819,94.473
				c-2.805,1.056-5.596,2.141-8.373,3.253l8.034,8.354L347.819,94.473z M406.896,104.734l-2.352-9.522l-5.564,4.742L406.896,104.734
				z M269.446,171.872l-10.543-14.671l-16.953-4.858c-2.51,1.868-4.998,3.764-7.466,5.685l19.719,25.134
				C259.2,179.274,264.28,175.51,269.446,171.872z M269.838,170.704l1.332-0.957l-18.208-25.336
				c-0.449,0.313-0.895,0.629-1.342,0.943l6.712,9.34l-13.736-4.305c-0.545,0.399-1.088,0.803-1.631,1.206l16.548,4.743
				L269.838,170.704z M252.98,183.222l-19.286-24.581c-0.431,0.337-0.862,0.672-1.292,1.01l19.288,24.583L252.98,183.222z
				 M237.308,181.899l2.708,3.171l-5.76,1.494l6.466,7.572c3.496-2.971,7.031-5.885,10.617-8.728l-19.72-25.135
				c-3.94,3.12-7.827,6.305-11.655,9.557l11.538,13.509L237.308,181.899z M250.802,145.928c-1.744,1.231-3.48,2.471-5.204,3.726
				l10.172,3.188L250.802,145.928z M223.59,186.377l1.287,1.507l5.782-1.467l7.581,8.875l1.247-1.065l-7.029-8.23l5.76-1.494
				l-1.269-1.485l-5.805,1.44l-11.938-13.978c-0.416,0.355-0.831,0.71-1.246,1.066l11.413,13.362L223.59,186.377z M298.631,153.173
				l-8.248-13.792l-8.028,12.368l-11.444-19.203c-2.257,1.412-4.496,2.85-6.725,4.302l17.545,26.72
				C287.277,159.965,292.91,156.498,298.631,153.173z M290.398,132.315l11.417,19.02c1.921-1.093,3.854-2.168,5.794-3.229
				l-15.246-28.133c-6.211,3.407-12.329,6.962-18.351,10.66l8.382,14.016L290.398,132.315z M289.914,138.269l0.268-1.105l0.639,1
				l8.289,13.862l1.437-0.859l-10.182-16.963l-8.006,12.335l-9.197-15.382c-0.466,0.288-0.934,0.573-1.399,0.862l10.63,17.838
				L289.914,138.269z M309.584,146.211l-14.904-27.502c-0.481,0.26-0.963,0.519-1.442,0.781l14.904,27.503L309.584,146.211z
				 M278.69,165.566l-17.545-26.719c-2.472,1.64-4.929,3.3-7.364,4.989l18.659,25.964
				C274.511,168.37,276.593,166.957,278.69,165.566z M280.503,163.519l-17.154-26.125c-0.458,0.299-0.916,0.597-1.372,0.898
				l17.156,26.127L280.503,163.519z M358.267,105.636l0.499,1.601l14.669,1.968l2.292,6.757l-14.611-1.992l0.636,1.874l14.254,1.912
				l1.848-0.627l-10.051-29.624c-0.521,0.167-1.043,0.329-1.562,0.498l6.659,19.628L358.267,105.636z M508.722,91.274l0.39-24.299
				c-3.03-0.063-6.066-0.103-9.111-0.103c-0.136,0-0.272,0.002-0.408,0.002l-0.359,24.253l4.912-10.212L508.722,91.274z
				 M526.562,82.588l0.835-0.758l-0.024,1.176l-0.819,16.129l1.673,0.085l0.97-19.76l-13.513,5.8l0.918-18.073
				c-0.547-0.021-1.095-0.034-1.642-0.052l-1.094,20.902L526.562,82.588z M526.332,83.774l-13.549,5.815l1.175-22.487
				c-0.402-0.013-0.804-0.026-1.206-0.038l-0.482,32.152c4.428,0.132,8.845,0.329,13.248,0.604L526.332,83.774z M491.927,98.367
				l1.64-0.052l-0.993-31.371c-0.547,0.009-1.093,0.02-1.64,0.031l0.37,11.68l-9.147-11.413c-0.679,0.027-1.357,0.06-2.035,0.09
				l11.246,13.346L491.927,98.367z M495.398,99.055l0.549-32.157c-0.792,0.007-1.583,0.014-2.375,0.025l1.018,32.14
				C494.86,99.061,495.129,99.058,495.398,99.055z M489.933,66.993c-2.183,0.05-4.363,0.112-6.539,0.194l6.814,8.502L489.933,66.993
				z M498.137,98.027l6.047-12.438l5.427,12.657l-0.003,0.17l1.674,0.027l0.47-31.409c-0.546-0.015-1.093-0.026-1.64-0.039
				l-0.462,28.85l-5.544-12.541l-5.94,12.351l0.426-28.772c-0.548,0.002-1.096,0.007-1.644,0.011l-0.535,31.312l1.674,0.027
				L498.137,98.027z M555.208,96.691l4.092-5.119l-2.496-6.65l-4.178,5.745L555.208,96.691z M529.185,100.069
				c2.058,0.147,4.114,0.305,6.166,0.483l1.087-11.711l-5.084-3.123l0.389-4.195l5.084,3.123l1.492-16.092
				c-6.862-0.604-13.771-1.045-20.719-1.325l-0.837,16.479l13.511-5.799L529.185,100.069z M562.135,71.324
				c-2.278-0.329-4.561-0.646-6.851-0.938l2.569,6.8L562.135,71.324z M549.56,90.248l4.993,11.276l7.816-9.539l-4.068-10.801
				l6.851-9.417c-0.632-0.096-1.266-0.186-1.898-0.279l-5.683,7.78l-3.408-9.021c-0.633-0.079-1.267-0.153-1.9-0.23l4.095,10.904
				L549.56,90.248z M560.437,91.753l-5.49,6.867l-3.463-8.081l5.604-7.706L560.437,91.753z M532.59,83.218l-0.184,1.974l5.084,3.123
				l-1.078,11.623l1.633,0.152l1-10.778l5.087,3.087l0.181-1.945l-5.081-3.158l1.716-18.496c-0.545-0.051-1.088-0.106-1.633-0.156
				l-1.641,17.696L532.59,83.218z M545.365,89.931l-0.386,4.153l-5.087-3.087l-0.917,9.894c5.006,0.48,9.995,1.054,14.965,1.72
				l-5.529-12.485l6.82-9.358l-4.089-10.886c-3.058-0.361-6.124-0.688-9.2-0.985l-1.658,17.877L545.365,89.931z M394.524,100.175
				l13.979,8.551l2.011-0.497l-7.509-30.405c-0.544,0.125-1.088,0.252-1.631,0.379l7.072,28.634l-11.17-6.745l6.13-5.224
				l-12.471-14.086c-0.498,0.129-0.994,0.263-1.49,0.394l11.766,13.806L394.524,100.175z M427.642,94.851l0.331,2.079l8.491,6.163
				l6.163-8.491l-0.33-2.08l-5.467,7.533l-4.435-27.905c-0.54,0.085-1.08,0.171-1.619,0.258l4.44,27.939L427.642,94.851z
				 M436.11,104.071l-9.061-6.576l-0.775-4.873l7.574,5.496l-4.061-25.554c-2.646,0.433-5.284,0.892-7.915,1.373l6.375,31.472
				C430.863,104.938,433.483,104.491,436.11,104.071z M415.511,100.892l8.404,4.589l3.195-0.647l-6.221-30.713
				c-0.549,0.102-1.099,0.202-1.647,0.306l5.971,29.478l-1.082,0.22l-7.703-4.179L409.8,88.882l-2.438-12.036
				c-0.42,0.092-0.838,0.189-1.257,0.283l2.499,12.338L415.511,100.892z M477.623,86.667l0.361,4.92l-7.33,8.493
				c6.736-0.484,13.503-0.8,20.296-0.95l-0.572-18.075l-11.518-13.668c-3.08,0.148-6.15,0.333-9.213,0.546l1.895,25.779
				L477.623,86.667z M400.4,78.436c-2.804,0.662-5.6,1.346-8.383,2.062l12.333,13.931L400.4,78.436z M423.369,106.323l-8.574-4.683
				l-7.154-11.89l-2.512-12.402c-0.383,0.086-0.766,0.171-1.148,0.258l7.696,31.16C415.561,107.893,419.458,107.079,423.369,106.323
				z M417.144,99.196l6.848,3.714l-5.733-28.301c-3.32,0.637-6.625,1.314-9.918,2.027l2.423,11.962L417.144,99.196z M462.007,90.235
				l0.154,2.1l7.941,6.854l6.854-7.942l-0.154-2.099l-6.081,7.044l-2.072-28.19c-0.544,0.04-1.091,0.073-1.635,0.115l2.075,28.231
				L462.007,90.235z M469.682,100.147l-8.487-7.326l-0.361-4.92l7.083,6.113l-1.897-25.818c-2.684,0.209-5.359,0.447-8.029,0.706
				l3.726,31.923C464.366,100.576,467.021,100.345,469.682,100.147z M447.52,101.654l-0.012-0.103l4.402-13.228l7.055,12.007
				l1.663-0.192l-3.635-31.141c-0.544,0.054-1.09,0.105-1.634,0.161l3.31,28.617l-7.136-11.708l-4.272,13.021l-3.344-28.597
				c-0.544,0.07-1.086,0.146-1.629,0.218l3.569,31.136L447.52,101.654z M442.904,89.98l0.774,4.873l-6.578,9.063
				c2.613-0.411,5.23-0.803,7.854-1.162l-3.657-31.912c-2.646,0.36-5.285,0.741-7.916,1.148l4.056,25.522L442.904,89.98z
				 M451.259,83.695l5.894,9.67l-2.788-24.099c-3.162,0.333-6.315,0.693-9.457,1.093l2.819,24.103L451.259,83.695z M138.514,279.903
				l19.176,11.138c4.318-7.065,8.86-13.987,13.611-20.771l-11.025,1.928l-4.039-2.836l9.22-1.612l-21.05-14.785
				c-7.51,10.778-14.541,21.912-21.066,33.371l14.119,8.232L138.514,279.903z M107.658,413.203l-0.188-0.092l-10.862-8.561
				l13.522-2.602l0.166,0.039l0.383-1.63l-30.484-7.136c-0.135,0.53-0.267,1.062-0.4,1.592l27.997,6.584l-13.435,2.741l10.799,8.437
				l-28.011-6.551c-0.119,0.535-0.243,1.068-0.359,1.604l30.488,7.204L107.658,413.203z M105.81,426.06l-31.53-6.025
				c-0.493,2.631-0.966,5.27-1.411,7.918l31.774,4.693C105.014,430.447,105.401,428.251,105.81,426.06z M107.82,415.988
				l-31.24-7.382c-0.563,2.609-1.1,5.228-1.615,7.854l31.53,6.025C106.92,420.315,107.359,418.149,107.82,415.988z M80.121,447.043
				l22.063,2.271c0.495-3.938,1.054-7.863,1.665-11.777l-7.322,6.48L83,446.72l-12.633-1.866c-0.604,4.734-1.124,9.493-1.574,14.272
				l16.395,1.715L80.121,447.043z M95.025,440.979l5.818-5.179l-28.564-4.218c-0.53,3.326-1.022,6.664-1.476,10.014l12.089,1.786
				L95.025,440.979z M96.065,443.089l7.171-6.346l0.476-3.225l-31.011-4.58c-0.091,0.551-0.175,1.104-0.264,1.654l29.756,4.395
				l-0.161,1.091l-6.546,5.827l-12.57,2.489l-12.246-1.809c-0.057,0.426-0.116,0.851-0.171,1.277l12.476,1.842L96.065,443.089z
				 M105.614,423.335l-30.844-5.894c-0.104,0.536-0.206,1.074-0.308,1.611l30.844,5.894L105.614,423.335z M89.406,362.018
				c-0.728,2.16-1.436,4.33-2.13,6.505l7.076-1.287L89.406,362.018z M66.9,504.32c0.03,3.029,0.093,6.051,0.185,9.064l10.702-4.732
				L66.9,504.32z M113.056,373.353l-4.296-4.947l-6.988,1.256l4.896,5.143L113.056,373.353z M110.109,364.377l8.843,10.435
				c0.835-2.538,1.688-5.07,2.575-7.593l-30.031-11.262c-0.249,0.704-0.49,1.411-0.736,2.117l7.957,8.363L110.109,364.377z
				 M105.702,377.746l11.987-2.876l-7.97-9.405l-11.354,2.053l-7.973-8.379c-0.208,0.603-0.42,1.203-0.625,1.807l6.582,6.944
				l-9.417,1.712c-0.193,0.61-0.391,1.219-0.582,1.831l11.405-2.052L105.702,377.746z M109.143,367.321l5.763,6.637l-8.571,1.948
				l-6.567-6.901L109.143,367.321z M118.672,375.661l-13.298,3.192l-7.972-8.393l-11.379,2.047
				c-2.011,6.518-3.876,13.1-5.583,19.745l31.251,7.315C113.765,391.535,116.092,383.564,118.672,375.661z M99.114,491.897
				l-11.794,6.924l-10.071-5.71l-10.365,5.309c-0.002,0.527-0.01,1.053-0.01,1.581c0,0.162,0.003,0.323,0.003,0.484l32.152-0.675
				C99.029,497.167,99.062,494.531,99.114,491.897z M87.519,487.84l-6.322,3.236l6.182,3.496l5.69-3.249L87.519,487.84z
				 M67.063,487.316c-0.066,2.307-0.121,4.617-0.151,6.932l6.481-3.335L67.063,487.316z M86.371,508.481l12.883,5.013
				c-0.115-3.504-0.184-7.016-0.209-10.535L86.371,508.481z M121.607,364.704l-11.594-10.795l15.833-0.51l0.485-1.295l-29.292-10.95
				c-0.221,0.558-0.435,1.118-0.653,1.677l10.461,9.892l-14.382,0.542c-0.21,0.583-0.422,1.167-0.63,1.751l29.287,10.982
				L121.607,364.704z M98.036,342.755l24.91,9.341l-14.248,0.543L98.036,342.755z M93.715,354.421l14.452-0.467l10.338,9.763
				L93.715,354.421z M87.636,483.592L99.13,491c0.058-2.676,0.145-5.347,0.255-8.015l-32.092-2.008
				c-0.031,0.722-0.068,1.441-0.096,2.164l10.139,5.737L87.636,483.592z M87.311,497.667l10.633-6.242l-10.364-6.679l-10.267,5.269
				l-10.153-5.745c-0.023,0.638-0.041,1.278-0.061,1.917l8.394,4.771l-8.591,4.42c-0.007,0.638-0.008,1.277-0.012,1.915
				l10.383-5.317L87.311,497.667z M87.568,486.69l7.446,4.673l-7.634,4.358l-8.292-4.69L87.568,486.69z M93.609,468.942
				l-11.982-0.749l5.797,3.696L93.609,468.942z M99.522,479.803c0.173-3.514,0.393-7.019,0.656-10.516l-9.838,4.663L99.522,479.803z
				 M84.103,473.692l-8.484-5.841l-7.524-0.499c-0.259,3.459-0.48,6.93-0.657,10.411l7.538,0.472L84.103,473.692z M101.747,452.964
				l-15.981-1.672l5.082,13.838l-22.381-2.375c-0.041,0.473-0.079,0.946-0.118,1.418l32.08,2.007
				C100.795,461.761,101.235,457.356,101.747,452.964z M84.592,450.999l-0.707-0.874l1.169,0.087l16.059,1.68l0.174-1.665
				l-19.676-2.025l5.068,13.801l-17.981-1.881c-0.05,0.545-0.102,1.09-0.149,1.636l20.805,2.208L84.592,450.999z M81.017,478.613
				l11.927,0.747l-5.758-3.66L81.017,478.613z M98.728,480.482l-10.45-6.662l11.199-5.308l0.086-1.385l-31.296-1.958
				c-0.032,0.395-0.067,0.789-0.098,1.185l7.791,0.517l10.109,6.959l-10.889,5.418l-7.787-0.487
				c-0.02,0.405-0.036,0.811-0.054,1.216l31.299,1.958L98.728,480.482z M77.822,466.953l19.701,1.232l-10.17,4.846L77.822,466.953z
				 M77.075,479.369l10.182-4.809l9.503,6.04L77.075,479.369z M129.125,304.625l11.311,0.606l-21.344-11.268
				c-1.514,2.788-2.997,5.595-4.451,8.418l21.369,11.247L129.125,304.625z M197.666,236.607l-23.617-21.53
				c-0.309,0.353-0.621,0.704-0.928,1.058l24.525,20.494C197.653,236.622,197.66,236.615,197.666,236.607z M180.447,242.896
				l1.519,1.269l13.167-5.79l1.251-1.498l-23.921-19.988c-0.358,0.413-0.71,0.831-1.066,1.246l22.563,18.854L180.447,242.896z
				 M181.535,255.141l-24.784-19.014c-0.333,0.433-0.667,0.866-0.999,1.3l24.785,19.015L181.535,255.141z M563.508,92.172
				l-8.65,10.558c6.728,0.917,13.421,2.003,20.077,3.261l3.179-17.78l-8.424-15.729c-1.141-0.186-2.281-0.371-3.425-0.547
				l-6.839,9.401L563.508,92.172z M158.789,269.931l1.723,1.21l10.338-1.807l-1.808-10.338l-1.723-1.21l1.603,9.171l-22.997-16.151
				c-0.315,0.447-0.629,0.894-0.943,1.342l23.026,16.172L158.789,269.931z M165.918,255.58l4.038,2.836l1.926,11.015
				c2.796-3.97,5.675-7.885,8.619-11.755l-25.353-19.451c-2.946,3.871-5.831,7.792-8.648,11.763l21.021,14.764L165.918,255.58z
				 M195.236,239.422l-13.435,5.908l-3.235-2.703l13.514-5.908l-21.332-17.825c-4.591,5.369-9.053,10.852-13.382,16.442
				l25.35,19.449C186.755,249.571,190.928,244.448,195.236,239.422z M215.311,197.883l-1.083-2.717l-3.055-1.462l1.376,2.896
				L215.311,197.883z M219.721,194.096l-1.354-2.865l-2.548-1.317l1.123,2.822L219.721,194.096z M211.191,198.397l6.673,3.237
				l3.546,8.902l1.046-0.973l-5.582-14.252l13.812,6.597l0.995-0.926l-7.651-3.714l-3.727-7.83l-7.092-3.428l-2.982-7.658
				c-0.381,0.344-0.767,0.685-1.147,1.03l5.223,13.165l-12.753-6.161c-0.375,0.356-0.746,0.716-1.118,1.074l7.217,3.46
				L211.191,198.397z M213.9,187.797l5.227,2.701l2.717,5.75l-5.688-2.782L213.9,187.797z M215.012,194.433l2.159,5.418l-5.37-2.497
				l-2.744-5.771L215.012,194.433z M198.862,234.079l-0.12-0.172l-5.337-12.76l13.21,4.409l1.126-1.238l-23.07-20.943
				c-0.375,0.398-0.752,0.795-1.126,1.195l21.167,19.256l-13.075-4.13l5.343,12.621l-21.189-19.228
				c-0.363,0.41-0.722,0.824-1.083,1.235l23.026,20.993L198.862,234.079z M189.873,218.089l10.799,3.411l-17.809-16.201
				c-2.161,2.324-4.295,4.672-6.405,7.042l17.832,16.182L189.873,218.089z M216.469,216.469c1.479-1.479,2.985-2.925,4.484-4.379
				l-3.874-9.725l-6.641-3.222l-3.539-7.474l-7.233-3.467c-4.881,4.703-9.652,9.518-14.309,14.443l23.663,21.482
				C211.469,221.549,213.946,218.992,216.469,216.469z M117.938,351.287l-15.498-5.812l6.633,6.15L117.938,351.287z
				 M130.538,343.923c1.144-2.705,2.325-5.39,3.525-8.064l-28.954-13.754c-2.7,5.969-5.264,12.013-7.697,18.122l30.038,11.228
				C128.455,348.937,129.48,346.425,130.538,343.923z M134.348,333.356l-10.64-11.739l15.821,0.832l0.593-1.249l-28.236-13.378
				c-0.269,0.541-0.531,1.086-0.798,1.628l9.565,10.717l-14.345-0.676c-0.261,0.568-0.525,1.134-0.784,1.703l28.229,13.411
				L134.348,333.356z M112.716,309.489l24.032,11.416l-14.245-0.664L112.716,309.489z M107.423,320.748l14.441,0.757l9.475,10.604
				L107.423,320.748z M140.965,285.348l-0.285-1.086l1.029,0.559l13.952,8.135l0.844-1.447l-17.108-9.937l-1.054,14.668
				l-15.495-9.035c-0.27,0.477-0.543,0.951-0.811,1.429l17.938,10.495L140.965,285.348z M112.412,322.011l14.878,7.068l-5.894-6.597
				L112.412,322.011z M98.793,355.257l15.42,5.783l-6.431-6.074L98.793,355.257z M95.995,343.837
				c-1.082,2.791-2.139,5.594-3.165,8.413l11.6-0.437L95.995,343.837z M131.828,319.674l-14.953-7.104l6.09,6.69L131.828,319.674z
				 M208.294,180.107c-2.005,1.83-3.992,3.68-5.962,5.546l10.098,4.879L208.294,180.107z M110.613,310.42
				c-1.311,2.682-2.596,5.379-3.853,8.092l11.562,0.544L110.613,310.42z M155.792,294.189l-13.878-8.091l-1.057,14.707
				l-19.31-11.298c-0.235,0.421-0.465,0.844-0.698,1.266l28.326,14.917C151.321,301.818,153.522,297.982,155.792,294.189z
				 M141.309,320.619l-28.317-14.988c-0.218,0.433-0.439,0.864-0.656,1.297l28.958,13.719
				C141.299,320.638,141.304,320.628,141.309,320.619z M141.826,317.866l-0.158-0.136l-8.356-11.025l13.895,0.97l0.782-1.481
				l-27.623-14.545c-0.264,0.479-0.531,0.957-0.793,1.438l25.359,13.388l-13.695-0.734l8.327,10.889l-25.379-13.358
				c-0.25,0.488-0.494,0.979-0.742,1.468l27.602,14.609L141.826,317.866z M92.034,403.592l11.096-2.263l-23.578-5.545
				c-0.763,3.076-1.49,6.165-2.187,9.266l23.598,5.519L92.034,403.592z M863.474,330.52c1.488,3.19,2.937,6.403,4.344,9.64
				l6.543-8.754L863.474,330.52z M882.604,346.791l-11.519-0.633l-0.594,0.239c1.219,2.936,2.401,5.882,3.548,8.839l0.662-0.266
				L882.604,346.791z M839.448,286.445c2.173,3.449,4.289,6.935,6.356,10.452l0.549-14.69L839.448,286.445z M809.493,245.015
				c2.235,2.706,4.429,5.44,6.589,8.199l4.118-10.058L809.493,245.015z M896.906,386.567l-13.226-3.449
				c2.056,6.744,3.929,13.536,5.619,20.372l2.998-14.325l4.08-1.06l-3.053,14.433l27.055-7.027
				c-1.244-5.003-2.573-9.974-3.99-14.907l-11.347-2.272L896.906,386.567z M895.065,389.479l-1.916,0.498l-2.947,14.083l0.49,1.889
				l30.318-7.875c-0.129-0.531-0.257-1.063-0.388-1.593l-28.61,7.431L895.065,389.479z M863.888,329.55l12.355,1.005l-7.42,9.929
				l0.57,1.265l28.49-12.856c-0.157-0.364-0.313-0.729-0.471-1.093l-7.026,3.139l-12.193-1.427l7.096-9.883l7.002-3.16
				c-0.173-0.368-0.35-0.733-0.522-1.1l-28.48,12.851L863.888,329.55z M888.701,331.74l-17.997,8.121l6.728-9.04L888.701,331.74z
				 M883.557,320.412l-6.756,9.013l-11.227-0.898L883.557,320.412z M508.596,99.123l0.011-0.679l-4.479-10.451l-5.042,10.372
				l-0.01,0.668c0.309-0.001,0.617-0.006,0.926-0.006C502.87,99.027,505.735,99.063,508.596,99.123z M457.977,100.488l-5.809-9.774
				l-3.642,10.942l0.072,0.621c3.146-0.401,6.299-0.764,9.459-1.091L457.977,100.488z M915.222,376.595
				c-0.652-2.193-1.327-4.376-2.014-6.554l-5.052,5.125L915.222,376.595z M786.83,219.848c2.463,2.52,4.889,5.066,7.278,7.642
				l5.635-12.644L786.83,219.848z M623.7,106.863l-7.783,8.514l-0.187,0.595c3.038,0.916,6.067,1.868,9.086,2.858l0.21-0.67
				L623.7,106.863z M631.358,121.037c3.321,1.153,6.63,2.349,9.925,3.591l-1.719-10.771L631.358,121.037z M887.893,356.705
				l-7.159,14.741l0.689,1.954l29.496-10.402c-0.177-0.529-0.349-1.061-0.527-1.59l-27.783,9.798l5.633-11.771l5.791,5.595
				l12.789-13.749c-0.177-0.482-0.36-0.961-0.538-1.443l-12.576,13.018L887.893,356.705z M869.063,343.009l29.771-11.908
				c-0.183-0.431-0.371-0.859-0.556-1.289l-29.221,13.187C869.061,343.002,869.062,343.005,869.063,343.009z M870.822,345.186
				l0.097-0.039l13.923,0.765l-9.728,9.97l0.623,1.554l29.014-11.676c-0.195-0.511-0.396-1.02-0.594-1.53l-26.655,10.694
				l9.419-9.969l-13.69-0.694l26.627-10.722c-0.211-0.505-0.419-1.013-0.632-1.517l-29.026,11.61L870.822,345.186z M879.996,328.717
				l10.234,1.198l6.787-3.032c-1.396-3.189-2.83-6.359-4.301-9.508l-6.771,3.056L879.996,328.717z M889.136,344.066l-7.778,8.234
				l22.438-9.003c-1.152-2.96-2.337-5.906-3.553-8.834l-22.426,9.03L889.136,344.066z M869.527,327.839l6.805,0.544l4.094-5.462
				L869.527,327.839z M884.758,332.422l-6.855-0.559l-4.093,5.499L884.758,332.422z M910.066,360.462
				c-0.928-2.719-1.884-5.426-2.863-8.122l-12.641,13.589L910.066,360.462z M883.418,382.25l9.037-10.25l11.351,2.282l8.133-8.217
				c-0.23-0.708-0.47-1.412-0.704-2.118l-30.251,10.667C881.819,377.152,882.634,379.697,883.418,382.25z M895.693,382.495
				l4.996-5.047l-6.964-1.393l-4.393,4.863L895.693,382.495z M892.824,373.093l-8.155,9.249l11.931,3.112l8.111-8.209l11.363,2.275
				c-0.179-0.614-0.355-1.228-0.536-1.84l-9.392-1.899l6.719-6.816c-0.194-0.609-0.386-1.219-0.582-1.827l-8.146,8.231
				L892.824,373.093z M896.004,383.603l-8.532-2.117l5.893-6.523l9.343,1.869L896.004,383.603z M319.958,141.636
				c3.65-1.834,7.334-3.609,11.047-5.335l-14.613-1.962L319.958,141.636z M893.802,366.198l-5.258-5.079l-3.992,8.341
				L893.802,366.198z M879.802,371.075l7.823-16.109l6.09,6.442l12.18-12.608c-0.262-0.702-0.521-1.405-0.787-2.106l-29.752,11.974
				C876.907,362.784,878.39,366.92,879.802,371.075z M350.283,127.919c3.264-1.315,6.541-2.585,9.83-3.812l-9.533-10.02
				L350.283,127.919z M844.548,705.236c-1.798,3.014-3.63,6.006-5.505,8.971l13.627,2.201L844.548,705.236z M815.864,747.07
				c-2.163,2.758-4.366,5.486-6.604,8.191l10.719,1.867L815.864,747.07z M592.081,890.368c-3.138,0.737-6.284,1.438-9.439,2.099
				l7.375,10.908L592.081,890.368z M775.46,792.341l10.554,4.24l-3.751-10.908l-0.449-0.465c-2.261,2.235-4.544,4.442-6.851,6.618
				L775.46,792.341z M559.287,896.639c-3.47,0.513-6.949,0.979-10.437,1.4l6.491,8.736L559.287,896.639z M515.73,901.37
				l5.165,10.133l4.344-10.687l-0.03-0.616c-3.165,0.195-6.336,0.351-9.514,0.472L515.73,901.37z M441.504,896.752
				c-3.472-0.506-6.935-1.056-10.388-1.653l3.186,13.427L441.504,896.752z M910.475,500.572l-9.531-5.472
				c0.02,1.632,0.03,3.265,0.03,4.9c0,1.886-0.016,3.769-0.042,5.65L910.475,500.572z M900.888,491.964l32.168,0.516
				c-0.55-32.107-4.609-63.374-11.813-93.433l-31.063,8.069C896.743,434.767,900.327,463.124,900.888,491.964z M500,102.027
				c-219.443,0-397.973,178.53-397.973,397.973c0,219.443,178.53,397.974,397.973,397.974c219.443,0,397.974-178.53,397.974-397.974
				C897.974,280.557,719.443,102.027,500,102.027z M775.249,775.249c-35.767,35.768-77.402,63.843-123.749,83.445
				c-47.953,20.283-98.926,30.567-151.5,30.567c-52.575,0-103.547-10.284-151.501-30.567
				c-46.346-19.603-87.981-47.678-123.748-83.445c-35.768-35.767-63.842-77.402-83.445-123.748
				c-20.283-47.954-30.567-98.927-30.567-151.501c0-52.575,10.284-103.547,30.567-151.501
				c19.603-46.346,47.678-87.981,83.445-123.748c35.767-35.768,77.402-63.842,123.748-83.445
				c47.954-20.283,98.926-30.567,151.501-30.567c52.574,0,103.547,10.284,151.501,30.567
				c46.346,19.603,87.981,47.678,123.748,83.445c35.768,35.767,63.843,77.402,83.445,123.748
				c20.283,47.954,30.567,98.926,30.567,151.501c0,52.574-10.284,103.547-30.567,151.5
				C839.092,697.847,811.017,739.482,775.249,775.249z M884.963,612.593c-0.984,3.368-2.013,6.724-3.088,10.068l10.651-2.25
				L884.963,612.593z M906.065,570.281l-9.476-6.571l-0.615-0.105c-0.499,3.136-1.036,6.264-1.609,9.385l0.688,0.117
				L906.065,570.281z M223.535,209.573c2.337-2.227,4.698-4.424,7.081-6.59l-11.885-5.677L223.535,209.573z M860.606,675.52
				c-1.542,3.168-3.13,6.31-4.752,9.431l10.902-0.418L860.606,675.52z M92.346,560.259l11.049,3.306l0.612-0.09
				c-0.498-3.133-0.959-6.273-1.382-9.421l-0.687,0.1L92.346,560.259z M383.682,895.389l7.619-8.656l0.176-0.6
				c-3.055-0.857-6.1-1.755-9.135-2.687l-0.199,0.678L383.682,895.389z M110.11,402.97l-11.165,2.148l9.057,7.138l0.604,0.142
				c0.691-3.098,1.419-6.187,2.184-9.268L110.11,402.97z M122.59,364.253c1.189-3.302,2.422-6.592,3.701-9.869l-13.821,0.445
				L122.59,364.253z M205.975,226.326l-10.803-3.545l4.45,10.639l0.483,0.44c2.107-2.369,4.244-4.716,6.411-7.041L205.975,226.326z
				 M146.779,308.58l-11.349-0.735l6.968,9.193l0.55,0.29c1.447-2.828,2.926-5.638,4.438-8.427L146.779,308.58z M135.373,332.997
				c1.466-3.2,2.977-6.374,4.522-9.528l-13.817-0.727L135.373,332.997z M184.638,747.704c-2.17-2.756-4.304-5.536-6.398-8.344
				l-6.928,11.924L184.638,747.704z M350.808,884.195l8.329-7.978l0.233-0.602c-2.969-1.113-5.927-2.264-8.875-3.45l-0.261,0.673
				L350.808,884.195z M107.095,580.537c-0.7-3.436-1.358-6.881-1.968-10.336l-8.364,6.945L107.095,580.537z M110.722,596.596
				c-0.977-3.946-1.9-7.904-2.755-11.879l-5.128,13.728L110.722,596.596z M164.884,720.271c-1.929-2.93-3.819-5.885-5.67-8.865
				l-7.915,11.317L164.884,720.271z M614.998,114.965l0.105-0.181l9.335-10.21l1.605,13.68l-0.051,0.162l1.598,0.502l9.341-29.861
				c-0.519-0.173-1.038-0.346-1.558-0.518l-8.609,27.422l-1.751-13.603l-9.207,10.156l8.577-27.44
				c-0.524-0.158-1.05-0.314-1.575-0.47l-9.409,29.858L614.998,114.965z M716.194,162.207l8.503-13.611l-14.664-1.504l11.87-18.936
				c-2.283-1.368-4.578-2.72-6.889-4.047l-15.789,27.807C704.97,155.205,710.626,158.638,716.194,162.207z M730.991,145.387
				l-11.725,18.837c8.372,5.477,16.538,11.27,24.489,17.374l-2.449-17.725l8.646,1.971l3.101-17.162
				c-9.088-6.564-18.436-12.787-28.031-18.645l-8.651,13.85L730.991,145.387z M725.476,147.67l1.094-0.251l-0.59,1.011
				l-8.555,13.693l1.419,0.887l10.452-16.792l-14.625-1.5l9.499-15.203c-0.469-0.284-0.94-0.563-1.409-0.845l-11.026,17.59
				L725.476,147.67z M698.703,150.812l15.441-27.197c-0.475-0.271-0.95-0.541-1.426-0.81l-15.442,27.197L698.703,150.812z
				 M680.929,130.309l-0.961,1.873l3.214,9.987l9.986-3.213l0.961-1.873l-8.859,2.851l12.846-25.031
				c-0.485-0.251-0.97-0.504-1.457-0.753l-12.863,25.067L680.929,130.309z M696.121,135.391l-2.252,4.39l-10.685,3.437
				c4.337,2.227,8.618,4.546,12.862,6.926l15.803-27.832c-4.239-2.387-8.522-4.702-12.848-6.949l-11.74,22.878L696.121,135.391z
				 M746.81,177.632l5.877-7.855l-7.195-1.3L746.81,177.632z M755.726,176.061l-1.636,12.224l11.649-4.048l2.176-11.335
				l10.579-4.373c-0.489-0.412-0.98-0.82-1.472-1.23l-8.728,3.587l1.77-9.271c-0.499-0.399-0.999-0.797-1.5-1.194l-2.169,11.24
				L755.726,176.061z M764.214,183.028l-8.271,2.986l1.271-8.7l8.806-3.642L764.214,183.028z M682.323,142.767l-3.434-10.673
				l2.252-4.389l2.866,8.907l11.758-22.915c-7.795-3.966-15.725-7.703-23.78-11.202l-12.169,29.677
				C667.441,135.489,674.955,139.005,682.323,142.767z M752.998,188.9l1.813-13.543l10.705-4.415l2.165-11.224
				c-0.604-0.476-1.21-0.946-1.816-1.419l-19.137,25.575C748.836,185.523,750.921,187.207,752.998,188.9z M763.339,182.28
				l1.347-6.974l-6.563,2.715l-0.948,6.485L763.339,182.28z M742.496,165.169l2.243,16.237l1.658,1.241l18.678-24.962
				c-0.441-0.343-0.881-0.688-1.323-1.028l-17.589,23.507l-1.859-12.918l7.927,1.432l2.973-18.44
				c-0.416-0.304-0.834-0.605-1.251-0.908l-3.201,17.721L742.496,165.169z M762.961,156.046c-2.266-1.736-4.553-3.446-6.853-5.138
				l-2.938,18.223L762.961,156.046z M641.562,107.941l7.986-6.504l2.558-6.992c-3.251-1.223-6.52-2.409-9.807-3.555l-2.536,7.016
				L641.562,107.941z M615.535,102.41l-1.277,4.766l-9.701,5.601c2.557,0.689,5.105,1.409,7.649,2.149l9.642-30.601
				c-2.557-0.75-5.121-1.48-7.695-2.185l-6.68,24.923L615.535,102.41z M576.044,105.466l1.614,0.289l5.518-30.862
				c-0.536-0.105-1.072-0.213-1.61-0.316l-2.051,11.477l-6.571-13.03c-0.671-0.114-1.342-0.232-2.014-0.344l8.229,15.365
				L576.044,105.466z M599.611,100.643l-0.546,2.033l5.246,9.087l9.087-5.246l0.545-2.034l-8.061,4.654l7.306-27.263
				c-0.527-0.143-1.058-0.278-1.586-0.419l-7.313,27.292L599.611,100.643z M603.594,112.518l-5.601-9.7l1.276-4.766l4.679,8.104
				l6.688-24.957c-8.723-2.306-17.553-4.346-26.479-6.111l-5.65,31.602C586.932,108.361,595.297,110.302,603.594,112.518z
				 M651.983,109.479l-0.676,1.535l9.773,11.116l-2.707,6.603l-9.714-11.096l-0.751,1.831l9.498,10.802l1.806,0.74l11.854-28.911
				c-0.502-0.216-1.003-0.434-1.506-0.649l-7.849,19.142L651.983,109.479z M625.729,100.082l1.446,11.234l7.25-23.092
				c-3.014-0.986-6.043-1.937-9.085-2.858l-7.225,23.113L625.729,100.082z M580.582,74.395c-2.131-0.403-4.27-0.788-6.411-1.159
				l4.887,9.691L580.582,74.395z M628.354,120.003l10.905-30.166c-0.459-0.156-0.919-0.31-1.378-0.464l-9.575,30.614
				C628.321,119.992,628.338,119.997,628.354,120.003z M647.534,107.108l-5.174,4.526l1.093,6.764L647.534,107.108z
				 M656.077,130.538c0.128,0.054,0.253,0.112,0.38,0.166l-9.708-11.042l1.599-3.9l9.714,11.096l1.859-4.533l-9.785-11.129
				l1.564-3.557l9.699,11.079l7.243-17.663c-4.48-1.901-9.001-3.724-13.557-5.477l-10.902,30.16
				C648.166,127.274,652.133,128.87,656.077,130.538z M776.154,166.573c-1.725-1.431-3.459-2.851-5.206-4.255l-1.325,6.94
				L776.154,166.573z M630.941,120.073l9.326-8.16l1.952,12.237l1.305,0.472l10.628-29.405c-0.369-0.142-0.74-0.281-1.11-0.421
				l-2.65,7.244l-9.516,7.75l-2.145-11.971l2.622-7.255c-0.384-0.133-0.767-0.267-1.15-0.398l-10.632,29.414L630.941,120.073z
				 M649.792,103.804l-6.71,18.563l-1.798-11.12L649.792,103.804z M638.085,99.604l1.759,11.122l-8.463,7.427L638.085,99.604z
				 M637.704,103.599l-4.062,11.238l5.127-4.5L637.704,103.599z M809.601,243.982l12.211-2.12l-4.697,11.469l0.868,1.082
				l24.301-19.529c-0.243-0.313-0.486-0.627-0.729-0.939l-5.956,4.75l-12.16,1.671l4.394-11.342l5.936-4.771
				c-0.259-0.313-0.521-0.622-0.78-0.934l-24.299,19.528L809.601,243.982z M834.166,239.89l-15.388,12.367l4.249-10.435
				L834.166,239.89z M826.351,230.212l-4.283,10.415l-11.093,1.942L826.351,230.212z M826.751,255.842l-0.62,9.554l1.934,2.624
				l25.109-18.498c-0.324-0.455-0.653-0.905-0.979-1.359l-24.089,17.746l-0.654-0.89l0.543-8.745l7.237-10.67l9.762-7.191
				c-0.26-0.341-0.517-0.685-0.777-1.026l-10.018,7.379L826.751,255.842z M828.976,256.607l-0.481,7.773l23.116-17.029
				c-1.974-2.738-3.978-5.452-6.012-8.142l-9.703,7.147L828.976,256.607z M825.137,265.275l0.634-9.767l7.766-11.497l10.073-7.421
				c-0.236-0.307-0.477-0.611-0.713-0.917l-24.914,20.022C820.416,258.855,822.802,262.048,825.137,265.275z M814.631,240.914
				l6.722-1.176l2.596-6.312L814.631,240.914z M830.52,241.538l-6.775,1.175l-2.585,6.347L830.52,241.538z M835.483,280.288
				l13.326-8.979l-12.782-7.348l18.542-12.453c-0.273-0.389-0.546-0.779-0.821-1.168l-25.726,18.952
				C830.575,272.915,833.054,276.585,835.483,280.288z M824.982,239.143l10.207-1.402l5.751-4.585
				c-2.147-2.737-4.326-5.448-6.536-8.131l-5.737,4.61L824.982,239.143z M849.896,270.78l1.111,0.211l-0.959,0.688l-13.392,9.024
				l0.936,1.388l16.387-11.082l-12.748-7.328l14.857-10.011c-0.313-0.45-0.631-0.896-0.944-1.344l-17.225,11.568L849.896,270.78z
				 M849.61,303.51l27.953-15.579c-1.312-2.327-2.645-4.641-3.998-6.941l-27.269,16.742
				C847.417,299.648,848.521,301.574,849.61,303.51z M851.531,305.461l27.322-15.227c-0.266-0.478-0.529-0.957-0.796-1.434
				l-27.325,15.229L851.531,305.461z M871.547,277.601c-1.59-2.646-3.206-5.275-4.851-7.884l-5.251,3.224L871.547,277.601z
				 M855.866,270.942l-18.365,12.419c0.002,0.002,0.003,0.004,0.004,0.006l13.035-8.003l-0.593,15.854l17.907-10.994l-14.406-6.645
				l11.3-6.937c-2.631-4.097-5.331-8.144-8.094-12.145l-13.534,9.119L855.866,270.942z M869.97,280.099l-21.091,12.949l0.593-15.854
				l-10.777,6.617l0.858,1.398l7.869-4.832l-0.593,15.854l26.232-16.104c-0.198-0.335-0.401-0.668-0.601-1.003l-13.131-6.056
				l6.831-4.195c-0.292-0.462-0.583-0.925-0.877-1.386l-9.721,5.968L869.97,280.099z M782.088,198.765l-2.65,12.044l11.946-3.062
				l3.113-11.114l10.903-3.473c-0.454-0.451-0.91-0.899-1.365-1.349l-8.99,2.845l2.535-9.086c-0.464-0.439-0.93-0.877-1.396-1.315
				l-3.098,11.015L782.088,198.765z M789.963,206.417l-8.489,2.285l1.992-8.563l9.078-2.894L789.963,206.417z M789.154,205.598
				l1.925-6.837l-6.768,2.158l-1.486,6.384L789.154,205.598z M803.231,191.018c-1.599-1.569-3.207-3.128-4.829-4.672l-1.898,6.801
				L803.231,191.018z M792.19,208.573l-13.264,3.399c1.54,1.493,3.085,2.978,4.604,4.497c0.373,0.373,0.732,0.756,1.104,1.13
				l23.158-22.035c-0.531-0.536-1.058-1.076-1.592-1.61l-10.886,3.468L792.19,208.573z M766.612,184.991l-12.901,4.483
				c5.445,4.46,10.789,9.064,16.017,13.826l-5.494-13.602l2.801-3.151l5.493,13.686l18.466-20.78
				c-3.816-3.467-7.694-6.869-11.633-10.2l-10.564,4.367L766.612,184.991z M766.708,188.419l-1.314,1.479l5.387,13.337l1.458,1.295
				l20.698-23.292c-0.402-0.37-0.803-0.742-1.207-1.11l-19.528,21.976L766.708,188.419z M778.293,211.354l2.941-13.367l11.036-3.506
				l3.093-10.999c-0.562-0.524-1.126-1.044-1.69-1.565l-21.24,23.902C774.401,207.644,776.357,209.486,778.293,211.354z
				 M793.396,213.705l8.269-3.136l3.66-8.214L793.396,213.705z M807.429,242.574l24.916-20.024
				c-4.212-5.036-8.534-9.976-12.965-14.814l-23.129,22.054C800.078,233.978,803.796,238.246,807.429,242.574z M816.724,204.855
				c-2.024-2.17-4.072-4.317-6.14-6.446l-4.619,10.519L816.724,204.855z M862.134,327.646l29.205-13.179
				c-3.771-7.92-7.773-15.709-12.002-23.357l-27.955,15.58C855.162,313.557,858.751,320.541,862.134,327.646z M786.874,218.758
				l14.77-5.721l-6.447,14.468l0.953,1.001L818.703,207c-0.416-0.452-0.829-0.905-1.246-1.354l-13.365,5.06l5.741-13.075
				c-0.443-0.454-0.892-0.902-1.337-1.354l-22.575,21.48L786.874,218.758z M816.904,207.126l-19.271,18.337l5.727-13.056
				L816.904,207.126z M808.294,198.149l-5.885,13.207l-13.294,5.042L808.294,198.149z M812.535,209.902l-8.426,3.286l-3.563,8.123
				L812.535,209.902z M458.117,910.602l-5.203-11.178l-7.634,9.683l4.269,10.721l-6.671,9.542c0.632,0.084,1.262,0.173,1.895,0.254
				l5.542-7.895l3.577,8.955c0.637,0.067,1.272,0.141,1.91,0.206l-4.304-10.836L458.117,910.602z M447.216,909.302l5.359-6.968
				l3.613,8.014l-5.458,7.81L447.216,909.302z M632.469,897.566l-0.462-1.612l-14.622-2.31l-2.134-6.81l14.563,2.332l-0.593-1.889
				l-14.207-2.244l-1.862,0.583l9.361,29.864c0.524-0.154,1.049-0.309,1.572-0.465l-6.202-19.785L632.469,897.566z M581.271,911.067
				l-0.251-1.658l-14.209-4.154l-1.25-7.026l14.147,4.169l-0.347-1.949l-13.806-4.035l-1.923,0.342l5.488,30.854
				c0.54-0.087,1.081-0.17,1.619-0.259l-3.639-20.459L581.271,911.067z M614.574,902.147l-0.512-1.915l-5.852-1.171l-3.011-11.279
				l-1.584,0.423l2.792,10.459l-5.842-1.137l0.504,1.888l5.859,1.205l4.778,17.898c0.528-0.142,1.058-0.276,1.585-0.42
				l-4.569-17.122L614.574,902.147z M615.501,884.099l14.489,2.289l1.261,4.021l-14.563-2.332l1.466,4.677l14.639,2.312l1.068,3.737
				l-14.541-2.329l5.722,18.251c10.534-3.182,20.899-6.756,31.08-10.704l-12.147-29.676
				C634.585,877.962,625.091,881.214,615.501,884.099z M665.473,884.994l-0.597-1.568l-14.768-1.063l-2.703-6.605l14.711,1.091
				l-0.751-1.832l-14.35-1.033l-1.806,0.739l11.846,28.938c0.509-0.199,1.021-0.394,1.529-0.594l-7.846-19.165L665.473,884.994z
				 M656.077,869.463c-2.879,1.218-5.77,2.397-8.67,3.545l14.649,1.055l1.597,3.902l-14.711-1.091l1.857,4.535l14.785,1.065
				l1.38,3.633l-14.688-1.09l7.236,17.676c4.527-1.8,9.02-3.672,13.471-5.618l-13.404-29.144
				C658.41,868.439,657.252,868.966,656.077,869.463z M597.07,906.249l-4.116-6.17l1.447-9.473l-1.395,0.31l-2.4,15.117
				l-8.572-12.681l-1.326,0.295l4.719,7.075l-0.75,8.64l4.382,6.546l-1.332,8.289c0.505-0.104,1.009-0.215,1.514-0.32l2.184-14.16
				l7.967,11.897c0.503-0.118,1.006-0.238,1.509-0.359l-4.56-6.765L597.07,906.249z M589.367,914.021l-3.14-4.975l0.566-6.334
				l3.498,5.278L589.367,914.021z M595.461,913.207l-3.692-5.472l0.88-5.767l3.368,4.872L595.461,913.207z M590.287,923.655
				c2.696-0.574,5.387-1.17,8.064-1.794l-6.33-9.455L590.287,923.655z M589.245,908.221l-1.709-2.579l-0.283,3.156l1.532,2.426
				L589.245,908.221z M600.264,900.271l-1.076-4.03l5.842,1.137l-2.563-9.599c-2.292,0.604-4.588,1.189-6.89,1.753l-1.576,10.315
				l4.097,6.141l-0.73,8.237l4.572,6.783c2.945-0.714,5.879-1.46,8.801-2.233l-4.617-17.299L600.264,900.271z M583.649,909.626
				l0.75-8.64l-5.207-7.809c-4.319,0.865-8.654,1.656-13.005,2.378l14.051,4.107l0.737,4.15l-14.147-4.169l0.857,4.825l14.227,4.158
				l0.583,3.842l-14.126-4.162l3.358,18.879c5.014-0.839,9.998-1.764,14.951-2.774l1.331-8.273L583.649,909.626z M594.989,907.112
				l-1.731-2.505l-0.442,2.892l1.896,2.808L594.989,907.112z M677.819,869.68l-0.827-1.799l-14.382-0.422l-1.773,0.815
				l13.062,28.397c0.5-0.221,0.998-0.445,1.498-0.667l-12.321-26.79L677.819,869.68z M605.982,886.832l3.035,11.37l5.852,1.171
				l1.086,4.071l-5.851-1.171l4.152,15.558c2.441-0.668,4.872-1.36,7.296-2.069l-9.598-30.614
				C609.969,885.725,607.978,886.286,605.982,886.832z M745.707,827.245l-7.778-0.43l17.192,23.007
				c2.725-1.992,5.427-4.015,8.103-6.069l-7.217-9.658L745.707,827.245z M708.942,842.32l9.674,1.383l0.106,0.083l10.759,8.546
				l6.63,10.626c5.429-3.544,10.773-7.206,16.03-10.982l-19.126-25.594C725.184,831.986,717.156,837.301,708.942,842.32z
				 M426.774,926.928c2.968,0.508,5.946,0.986,8.935,1.433l-2.759-11.354L426.774,926.928z M718.208,844.654l-9.478-1.354
				l-2.767,1.726l16.517,26.474c0.479-0.288,0.96-0.573,1.438-0.862l-15.852-25.406l0.938-0.583l8.679,1.214l10.081,8.04
				l6.43,10.304c0.36-0.232,0.72-0.469,1.08-0.702l-6.594-10.568L718.208,844.654z M754.725,826.291l-3.117-3.825l1.14-11.163
				c-5.147,4.189-10.391,8.243-15.726,12.162l9.763,0.566l11.552,7.688l7.485,10.017c2.034-1.586,4.057-3.187,6.062-4.808
				l-16.214-19.896L754.725,826.291z M746.456,825.014l-9.559-0.555l-2.611,1.951l18.667,24.98c0.453-0.327,0.908-0.651,1.359-0.979
				l-17.913-23.972l0.883-0.661l8.751,0.482l10.723,7.167l7.259,9.712c0.34-0.263,0.678-0.527,1.017-0.79l-7.444-9.962
				L746.456,825.014z M717.274,846.814l-7.714-1.079l15.212,24.383c2.883-1.758,5.744-3.546,8.583-5.368l-6.395-10.246
				L717.274,846.814z M682.076,858.168l14.257,27.849c0.486-0.248,0.973-0.498,1.458-0.748l-14.255-27.848L682.076,858.168z
				 M704.644,844.896l15.772,27.841c0.404-0.239,0.805-0.483,1.208-0.725l-16.936-27.143
				C704.674,844.879,704.658,844.888,704.644,844.896z M694.083,861.292l7.271-14.456c-5.671,3.295-11.426,6.454-17.266,9.472
				l14.589,28.499c6.291-3.262,12.491-6.672,18.598-10.229l-7.267-12.827L694.083,861.292z M702.32,847.143l-6.638,13.194
				l14.918,0.432l7.538,13.306c0.473-0.275,0.946-0.549,1.417-0.826l-15.384-27.154L702.32,847.143z M697.882,859.222l5.897-10.494
				l5.831,10.292L697.882,859.222z M707.911,858.049l-4.128-7.286l-4.175,7.43L707.911,858.049z M562.442,896.156l4.288,31.835
				c0.469-0.073,0.936-0.149,1.404-0.225l-5.626-31.621C562.486,896.149,562.464,896.152,562.442,896.156z M476.597,909.479
				l0.147-1.973l-12.376-7.329l-1.946-0.145l-2.324,31.267c0.544,0.05,1.088,0.102,1.633,0.149l2.194-29.511L476.597,909.479z
				 M478.786,912.152l7.545-11.411c-7.084-0.235-14.14-0.649-21.161-1.251l12.617,7.472l-0.312,4.203l-12.673-7.541l-2.075,27.908
				c5.1,0.437,10.224,0.789,15.372,1.047l5.853-10.067L478.786,912.152z M453.501,898.317l5.766,12.386l-6.642,9.483l4.294,10.81
				c0.727,0.072,1.455,0.141,2.182,0.209l2.383-32.052C458.818,898.9,456.157,898.623,453.501,898.317z M486.579,906.812
				l-3.547,5.509l3.161,6.357l3.568-6.14L486.579,906.812z M482.269,932.765c2.304,0.093,4.612,0.171,6.925,0.229l-3.255-6.514
				L482.269,932.765z M452.35,904.268l-3.995,5.194l2.621,6.6l4.068-5.821L452.35,904.268z M765.477,814.414l-1.33-1.631
				l-10.438-1.065l-1.064,10.438l1.33,1.632l0.944-9.26l17.737,21.769c0.425-0.345,0.849-0.69,1.271-1.036l-17.76-21.795
				L765.477,814.414z M437.448,921.843l2.592-16.263l-4.669,7.512L437.448,921.843z M445.898,929.761
				c2.284,0.286,4.573,0.551,6.868,0.801l-2.694-6.745L445.898,929.761z M431.839,912.494l-2.099-8.619l-2.604,16.345
				L431.839,912.494z M442.156,897.605l-8.267,13.512l-3.657-15.412l-1.365-0.218l-4.899,30.956c0.58,0.104,1.162,0.2,1.743,0.302
				l7.648-12.29l3.417,14.062c0.604,0.089,1.207,0.18,1.811,0.267l4.934-30.961L442.156,897.605z M425.349,925.077l4.187-26.271
				l3.373,13.854L425.349,925.077z M437.641,926.985l-3.34-14.067l7.506-12.076L437.641,926.985z M492.854,912.644l-6.117-10.705
				l-6.799,10.284l5.148,10.326l-5.861,10.08c0.638,0.03,1.276,0.058,1.915,0.085l4.868-8.334l4.316,8.635
				c0.638,0.014,1.276,0.025,1.915,0.036l-5.192-10.438L492.854,912.644z M481.883,912.256l4.759-7.39l4.269,7.684l-4.787,8.235
				L481.883,912.256z M444.138,908.94l8.46-10.729c-2.66-0.313-5.316-0.645-7.965-1.009l-5.056,31.725
				c0.727,0.103,1.457,0.194,2.185,0.293l6.659-9.523L444.138,908.94z M487.22,900.768l6.788,11.88l-5.827,10.002l5.184,10.423
				c0.757,0.012,1.515,0.021,2.273,0.028l-0.516-32.157C492.484,900.912,489.851,900.85,487.22,900.768z M526.244,900.885
				l0.005,0.104l-5.252,12.917l-6.264-12.441l-1.672,0.085l1.61,31.326c0.547-0.019,1.095-0.032,1.641-0.053l-1.449-28.789
				l6.364,12.149l5.109-12.72l1.484,28.781c0.548-0.035,1.093-0.078,1.64-0.114l-1.544-31.33L526.244,900.885z M551.396,916.447
				l2.494-6.407l-4.099-5.493L551.396,916.447z M528.876,899.952l1.583,32.107c6.569-0.458,13.1-1.058,19.586-1.808l-4.291-31.847
				C540.15,899.039,534.523,899.553,528.876,899.952z M557.673,909.529l4.063,5.483l-1.596-11.847L557.673,909.529z
				 M560.113,897.274l-4.496,11.55l-7.391-9.947l-1.375,0.185l4.187,31.07c0.394-0.046,0.786-0.095,1.18-0.143l-1.012-7.726
				l4.854-11.274l7.439,9.624l1.039,7.711c0.401-0.061,0.804-0.115,1.204-0.177l-4.185-31.067L560.113,897.274z M550.922,920.42
				l-2.636-19.564l6.737,9.03L550.922,920.42z M556.542,909.682l4.07-10.5l2.633,19.548L556.542,909.682z M556.308,912.944
				l-4.074,9.462l0.978,7.463c3.459-0.426,6.904-0.893,10.338-1.399l-1.005-7.458L556.308,912.944z M498.879,906.022l0.157,9.807
				l6.485-3.373L498.879,906.022z M499.313,933.124c0.229,0,0.458,0.004,0.687,0.004c2.667,0,5.327-0.033,7.983-0.081l-8.934-16.412
				L499.313,933.124z M521.347,918.567l-5.255-10.034l1.22,24.25c3.18-0.126,6.35-0.287,9.512-0.481l-1.252-24.253L521.347,918.567z
				 M500,900.974c-0.396,0-0.79-0.006-1.185-0.007l12.832,12.57l-8.042,3.729l8.167,15.7c0.634-0.017,1.267-0.041,1.899-0.061
				l-1.651-32.115C508.022,900.908,504.017,900.974,500,900.974z M509.913,913.238l-11.706-11.467l-2.071,0.033l0.502,31.302
				c0.558,0.005,1.116,0.009,1.675,0.011l-0.473-29.493l9.374,9.078l-7.145,3.716l9.042,16.607c0.516-0.011,1.033-0.018,1.55-0.029
				l-8.426-16.196L509.913,913.238z M662.928,866.468l14.715,0.433l1.761,3.83l-14.744-0.465l11.65,25.332
				c6.462-2.892,12.841-5.936,19.131-9.13l-14.591-28.503C674.958,860.941,668.982,863.774,662.928,866.468z M885.849,609.526
				l0.277,0.084l30.404,9.303c1.799-6.292,3.454-12.644,4.972-19.049l-31.374-6.762
				C888.818,598.605,887.394,604.081,885.849,609.526z M913.245,581.882l-1.473-0.318l4.101,14.387l-6.269-1.351l-4.104-14.396
				l-1.45-0.354l4.079,14.432l-16.667-3.593l-0.347,1.603l30.618,6.6c0.124-0.532,0.252-1.063,0.374-1.597l-4.762-1.026
				L913.245,581.882z M885.885,612.107l8.618,8.909l-12.128,2.562l-0.406,1.326l29.928,9.157c0.123-0.377,0.243-0.755,0.365-1.132
				l-7.389-2.292l-8.217-9.118l11.852-2.741l7.402,2.266c0.113-0.391,0.228-0.78,0.341-1.17l-29.939-9.161L885.885,612.107z
				 M903.078,630.127L884.2,624.35l11.02-2.35L903.078,630.127z M906.691,618.223l-11.023,2.312l-7.841-8.084L906.691,618.223z
				 M890.961,589.56l15.754,3.395l-4.093-14.48l3.681,0.896l4.099,14.378l4.054,0.874l-4.101-14.387l3.688,0.795l4.101,14.387
				l4.185,0.901c1.082-4.745,2.091-9.518,3.015-14.319l-31.657-5.398C892.846,580.936,891.942,585.257,890.961,589.56z
				 M902.682,618.041l-11.431-3.497l4.751,4.898L902.682,618.041z M913.057,571.384l-10.938,2.936l23.889,4.099
				c0.572-3.115,1.11-6.243,1.615-9.381l-23.905-4.072L913.057,571.384z M753.505,810.692l11.155,1.138l3.117,3.824l-9.309-0.949
				l16.234,19.922c6.774-5.571,13.378-11.343,19.801-17.308l-22.231-22.988C766.166,799.989,759.913,805.45,753.505,810.692z
				 M873.037,647.334l10.939,4.396l4.442-3.979l3.909,1.57l-4.443,3.979l14.898,5.988c1.736-4.375,3.399-8.786,4.995-13.229
				l-30.232-10.689C876.107,639.377,874.607,643.365,873.037,647.334z M890.463,649.649l-1.839-0.738l-4.444,3.979l-10.828-4.353
				l-0.611,1.521l10.042,4.035l-4.411,3.992l1.812,0.729l4.477-3.966l17.14,6.888c0.204-0.507,0.408-1.014,0.611-1.521
				l-16.391-6.587L890.463,649.649z M896.875,562.744l0.193,0.08l11.364,7.883l-13.339,3.421l-0.167-0.028l-0.283,1.649
				l30.883,5.266c0.102-0.537,0.199-1.075,0.299-1.613l-28.364-4.867l13.242-3.555l-11.294-7.763l28.371,4.832
				c0.086-0.542,0.176-1.081,0.26-1.623l-30.882-5.332L896.875,562.744z M898.535,622.111l6.896,7.653l7.134,2.212
				c1.061-3.308,2.082-6.632,3.064-9.974l-7.157-2.189L898.535,622.111z M888.183,624.523l11.483,3.514l-4.78-4.943L888.183,624.523
				z M878.764,631.942l30.232,10.688c0.885-2.529,1.746-5.069,2.585-7.62l-30.677-9.386
				C880.208,627.735,879.496,629.842,878.764,631.942z M915.405,547.209l-1.967-0.253l-3.301,4.97l-11.577-1.487l-0.209,1.626
				l10.735,1.381l-3.265,4.974l1.938,0.249l3.335-4.965l18.416,2.365c0.07-0.541,0.141-1.083,0.209-1.626l-17.615-2.264
				L915.405,547.209z M907.443,505.725l12.003,0.192l-5.962-3.424L907.443,505.725z M914.747,500.491l10.626-5.917l7.721,0.124
				c-0.004-0.407-0.013-0.812-0.02-1.218l-31.256-0.501l-0.023,1.458l10.746,6.169l-10.938,5.821l-0.022,1.387l31.46,0.505
				c0.008-0.396,0.017-0.791,0.023-1.188l-7.895-0.156L914.747,500.491z M903.753,494.227l19.721,0.317l-9.946,5.275
				L903.753,494.227z M903.568,506.662l9.934-5.312l9.802,5.629L903.568,506.662z M919.571,495.481l-11.947-0.192l5.921,3.388
				L919.571,495.481z M500,54.739C254.089,54.739,54.739,254.089,54.739,500c0,245.91,199.35,445.262,445.261,445.262
				c245.91,0,445.262-199.352,445.262-445.262C945.262,254.089,745.91,54.739,500,54.739z M808.389,808.389
				c-40.053,40.053-86.693,71.499-138.628,93.466C615.992,924.597,558.876,936.128,500,936.128s-115.992-11.531-169.761-34.273
				c-51.934-21.967-98.575-53.413-138.628-93.466s-71.499-86.693-93.465-138.628C75.404,615.992,63.873,558.876,63.873,500
				s11.531-115.992,34.274-169.761c21.966-51.934,53.412-98.575,93.465-138.628s86.694-71.499,138.628-93.465
				C384.008,75.404,441.124,63.873,500,63.873s115.992,11.531,169.761,34.274c51.935,21.966,98.575,53.412,138.628,93.465
				s71.499,86.694,93.466,138.628c22.742,53.769,34.273,110.885,34.273,169.761s-11.531,115.992-34.273,169.761
				C879.888,721.695,848.441,768.336,808.389,808.389z M933.101,495.698l-7.476-0.12l-8.907,4.961l8.746,5.44l7.618,0.15
				c0.028-2.04,0.046-4.083,0.046-6.13C933.128,498.564,933.114,497.13,933.101,495.698z M900.343,522.65l7.096-12.857l4.211,0.185
				l-7.152,12.896l4.895,0.215l7.159-12.974l3.877,0.268l-7.142,12.876l19.172,0.841c0.271-4.906,0.458-9.834,0.563-14.781
				l-32.147-0.516C900.775,513.431,900.597,518.048,900.343,522.65z M899.639,532.989l32.021,2.745
				c0.219-2.661,0.421-5.327,0.591-8.003l-32.125-1.407C899.982,528.549,899.818,530.771,899.639,532.989z M918.791,511.271
				l-1.672-0.115l-7.151,12.958l-7.129-0.313l7.152-12.896l-1.977-0.087l-6.949,12.592l-0.086,1.95l31.327,1.373
				c0.033-0.545,0.063-1.092,0.094-1.637l-20.772-0.911L918.791,511.271z M880.384,659.974l-3.87-1.555l4.411-3.992l-9.242-3.715
				c-0.728,1.792-1.465,3.581-2.22,5.365c-1.029,2.434-2.097,4.847-3.172,7.255l0.225,0.101l28.982,13.1
				c2.054-4.581,4.03-9.203,5.928-13.867l-16.565-6.657L880.384,659.974z M897.979,549.355l11.67,1.5l3.301-4.97l4.178,0.536
				l-3.301,4.97l16.013,2.058c0.578-4.674,1.085-9.37,1.512-14.088l-32.021-2.746C898.947,540.875,898.498,545.122,897.979,549.355z
				 M908.246,559.738l-4.137-0.53l3.265-4.976l-9.855-1.266c-0.308,2.339-0.63,4.675-0.979,7.005l31.652,5.466
				c0.423-2.783,0.815-5.577,1.186-8.378l-17.797-2.286L908.246,559.738z M900.135,535.682l31.307,2.684
				c0.048-0.544,0.09-1.09,0.136-1.635l-31.303-2.683L900.135,535.682z M878.567,634.672l29.55,10.448
				c0.184-0.516,0.371-1.029,0.553-1.545l-29.556-10.449L878.567,634.672z M824.924,760.938l3.56,9.667l5.71,4.63
				c2.212-2.682,4.393-5.391,6.541-8.125l-5.733-4.614L824.924,760.938z M865.883,666.045l28.53,12.895
				c0.227-0.498,0.453-0.995,0.679-1.493L866.56,664.55L865.883,666.045z M802.911,762.742l24.029,21.053
				c1.756-2.02,3.49-4.059,5.209-6.111l-24.904-20.039C805.811,759.351,804.377,761.058,802.911,762.742z M817.809,744.532
				l24.9,20.036c4.008-5.18,7.9-10.452,11.675-15.813l-26.485-17.868C824.639,735.505,821.268,740.049,817.809,744.532z
				 M830.284,758.7l-9.312-7.492l2.591,6.313L830.284,758.7z M816.897,746.953l4.69,11.471l-12.209-2.127l-0.869,1.081
				l24.281,19.538c0.253-0.305,0.509-0.607,0.762-0.912l-5.913-4.795l-4.241-11.519l12.021,1.858l5.93,4.771
				c0.25-0.32,0.497-0.642,0.746-0.962l-24.283-19.54L816.897,746.953z M826.163,770.066l-15.378-12.375l11.103,1.912
				L826.163,770.066z M833.938,760.358l-11.09-1.949l-4.276-10.416L833.938,760.358z M814.418,759.332l9.354,7.527l-2.602-6.365
				L814.418,759.332z M791.873,774.913l8.537,8.134l5.602-2.053l3.049,2.905l-5.601,2.053l11.554,11.008
				c3.23-3.425,6.408-6.9,9.527-10.429l-24.045-21.066C797.674,768.652,794.804,771.806,791.873,774.913z M783.063,785.063
				l0.108,0.18l4.498,13.082l-12.899-5.259l-1.205,1.163l21.671,22.408c0.4-0.373,0.797-0.751,1.195-1.126l-19.874-20.594
				l12.782,4.972l-4.513-12.944l19.896,20.563c0.389-0.386,0.781-0.768,1.169-1.155L784.27,783.9L783.063,785.063z M790.998,801.608
				l-10.558-4.106l16.719,17.324c2.309-2.18,4.593-4.385,6.853-6.614l-16.745-17.308L790.998,801.608z M807.207,783.515
				l-1.436-1.368l-5.602,2.053l-8.449-8.051l-1.132,1.188l7.836,7.465l-5.575,2.077l1.414,1.348l5.627-2.028l13.311,12.682
				c0.378-0.396,0.751-0.795,1.127-1.191l-12.722-12.12L807.207,783.515z M794.021,789.376l-3.02-2.877l5.575-2.077l-7.21-6.867
				c-1.632,1.7-3.279,3.389-4.944,5.064l22.175,23.025c1.99-1.995,3.958-4.012,5.909-6.046l-12.858-12.251L794.021,789.376z
				 M801.712,765.201l23.488,20.578c0.361-0.41,0.722-0.821,1.081-1.232l-23.488-20.578L801.712,765.201z M861.781,687.85
				l10.724,5.403l-3.876-5.68L861.781,687.85z M872.392,687.222l5.504,8.708l6.595,3.355c1.604-3.083,3.173-6.187,4.704-9.312
				l-6.622-3.338L872.392,687.222z M877.166,683.912l-10.675-5.379l3.855,5.631L877.166,683.912z M851.661,727.789l-1.365-0.972
				l-12.869,7.313l-5.916-3.991l12.838-7.26l-1.641-1.107l-12.506,7.107l-1.091,1.618l25.848,17.438
				c0.313-0.447,0.631-0.893,0.942-1.341l-17.097-11.535L851.661,727.789z M861.615,675.226l6.987,10.236l-12.385,0.475
				l-0.624,1.238l27.886,14.052c0.185-0.351,0.365-0.703,0.549-1.054l-6.832-3.476l-6.557-10.376l12.144-0.699l6.852,3.453
				c0.178-0.365,0.358-0.728,0.535-1.094l-27.898-14.058L861.615,675.226z M875.515,695.89l-17.63-8.884l11.258-0.454
				L875.515,695.89z M881.086,684.768l-11.253,0.416l-6.363-9.293L881.086,684.768z M846.149,702.518l27.261,16.759
				c3.326-5.642,6.528-11.364,9.602-17.165l-28.603-14.413C851.759,692.701,849.005,697.641,846.149,702.518z M861.99,672.662
				l28.614,14.418c1.153-2.398,2.281-4.811,3.391-7.232l-29.202-13.198C863.873,668.662,862.941,670.668,861.99,672.662z
				 M830.006,727.841l12.747-7.244l3.494,2.357l-12.838,7.26l4.063,2.741l12.885-7.323l3.164,2.255l-12.817,7.248l15.767,10.638
				c2.776-4.014,5.487-8.076,8.13-12.186l-27.251-16.715C834.967,720.571,832.51,724.222,830.006,727.841z M866.694,730.287
				c1.586-2.517,3.146-5.052,4.683-7.604l-11.393-1.776L866.694,730.287z M846.626,718.841l14.099,8.667l-5.334-7.304
				L846.626,718.841z M866.175,718.604l-14.028-8.623l5.149,7.189L866.175,718.604z M845.592,704.971l9.313,12.813l-15.636-2.527
				l-0.724,1.178l26.594,16.31c0.328-0.513,0.652-1.03,0.979-1.545l-8.332-11.646l14.146,2.207c0.324-0.541,0.651-1.078,0.973-1.62
				l-26.589-16.346L845.592,704.971z M864.527,731.02l-22.661-13.931l14.087,2.191L864.527,731.02z M870.999,720.397l-14.273-2.307
				l-8.278-11.559L870.999,720.397z M199.637,784.807l3.51-3.467l11.249,0.068c-3.322-3.371-6.582-6.789-9.772-10.259l-8.726,7.924
				l1.643,5.736l-3.119,2.832l-1.643-5.736l-11.817,10.73c3.188,3.473,6.429,6.896,9.727,10.263l18.257-18.035L199.637,784.807z
				 M403.688,889.349l5.783,9.595l-1.187,4.79l-4.831-8.015l-6.22,25.092c8.489,2.073,17.075,3.895,25.75,5.457l5.021-31.722
				C419.841,893.067,411.734,891.335,403.688,889.349z M154.12,702.975l-27.646,16.104c1.365,2.319,2.753,4.623,4.161,6.914
				l26.909-17.269C156.383,706.821,155.25,704.898,154.12,702.975z M142.11,682.669l-0.764-1.45l-27.643,14.559
				c0.248,0.487,0.493,0.977,0.742,1.462l10.218-5.381l-6.176,13.05c0.322,0.597,0.642,1.195,0.966,1.79l7-15.783L142.11,682.669z
				 M143.23,683.209l-16.003,8.429l-7.167,16.16c1.499,2.729,3.023,5.444,4.579,8.138l27.632-16.097
				C149.129,694.374,146.117,688.829,143.23,683.209z M137.797,725.147l8.899-1.626l5.042-7.3L137.797,725.147z M132.69,729.315
				c1.582,2.523,3.189,5.028,4.821,7.518l6.554-9.479L132.69,729.315z M157.316,725.049l-8.717,1.509l-5.155,7.373L157.316,725.049z
				 M129.555,655.624l-28.841,12.208c0.213,0.504,0.427,1.006,0.642,1.509l28.839-12.207L129.555,655.624z M114.907,698.127
				c0.983,1.903,1.982,3.798,2.993,5.685l4.577-9.672L114.907,698.127z M124.175,670.392l3.769-1.786l-0.062,5.949l9.018-4.275
				c-1.939-4.136-3.82-8.305-5.625-12.517l-29.524,12.496c1.985,4.626,4.047,9.21,6.187,13.751l16.112-7.639L124.175,670.392z
				 M138.437,673.577l-10.646,5.048l-0.093,5.964l-3.806,1.804l0.093-5.964l-14.486,6.868c1.226,2.544,2.48,5.072,3.753,7.589
				l28.342-14.929C140.53,677.838,139.465,675.719,138.437,673.577z M124.917,684.801l1.791-0.849l0.093-5.964l10.545-5
				l-0.702-1.481l-9.779,4.636l0.062-5.949l-1.765,0.837l-0.125,5.979l-16.67,7.903c0.234,0.493,0.467,0.988,0.704,1.48l15.94-7.557
				L124.917,684.801z M186.458,762.947l0.011-7.789l-22.037,18.391c2.135,2.614,4.299,5.202,6.493,7.766l9.246-7.716
				L186.458,762.947z M184.522,748.77l-15.294,4.11l7.955-13.693l-0.84-1.098l-24.729,18.977c0.363,0.491,0.724,0.985,1.09,1.475
				l13.842-3.605l-7.111,12.394c0.391,0.497,0.789,0.989,1.183,1.485l24.744-18.945L184.522,748.77z M153.427,757.124l21.117-16.168
				l-7.088,12.367L153.427,757.124z M161.027,766.968l7.261-12.5l13.754-3.591L161.027,766.968z M164.68,721.325l-15.591,2.813
				l9.08-12.982l-0.746-1.164l-26.263,16.854c0.319,0.519,0.636,1.038,0.958,1.555l14.124-2.437l-8.141,11.775
				c0.347,0.526,0.701,1.049,1.051,1.574l26.273-16.822L164.68,721.325z M132.981,727.044l22.407-14.346l-8.104,11.733
				L132.981,727.044z M139.732,737.495l8.286-11.852l14.012-2.425L139.732,737.495z M177.499,753.098l-8.555,2.233l-4.516,7.773
				L177.499,753.098z M188.726,763.576l0.041-9.574l-2.088-2.503l-23.937,19.977c0.351,0.436,0.707,0.865,1.059,1.299l22.963-19.164
				l0.708,0.848l-0.012,8.763l-6.58,11.09l-9.302,7.763c0.28,0.326,0.557,0.654,0.838,0.979l9.547-7.968L188.726,763.576z
				 M117.297,620.039l-8.203,15.91l-5.935-6.586l-12.484,12.319c2.962,8.532,6.182,16.944,9.654,25.226l29.518-12.493
				C125.125,643.109,120.94,631.646,117.297,620.039z M186.619,750.165l-0.251,0.193l-25.126,19.238
				c0.292,0.365,0.582,0.733,0.875,1.099l24.542-20.482C186.646,750.197,186.632,750.182,186.619,750.165z M170.378,729.642
				l-25.589,17.936c0.313,0.448,0.628,0.896,0.943,1.342l25.587-17.934L170.378,729.642z M166.619,722.913l-26.912,17.23
				c1.484,2.219,2.983,4.426,4.507,6.616l26.175-18.348C169.122,726.587,167.856,724.76,166.619,722.913z M172.461,731.405
				l-26.154,18.332c1.551,2.19,3.124,4.364,4.714,6.523l25.356-19.458C175.062,735.011,173.745,733.219,172.461,731.405z
				 M153.352,759.405c1.783,2.376,3.59,4.732,5.42,7.07l5.722-9.973L153.352,759.405z M158.067,754.831l8.727-2.365l4.409-7.693
				L158.067,754.831z M103.187,624.573l5.136,5.204l4.19-8.245L103.187,624.573z M100.627,581.743l-6.486-2.12l-5.255,4.353
				L100.627,581.743z M103.423,564.571l-0.103,0.015l-13.357-3.995l11.786-7.421l-0.243-1.656L70.494,556.1
				c0.071,0.543,0.146,1.085,0.218,1.627l28.493-4.183l-11.485,7.491l13.147,3.873l-28.475,4.217c0.087,0.54,0.17,1.083,0.259,1.623
				l31.015-4.521L103.423,564.571z M190.045,772.242l3.088-2.806l1.669,5.714l7.363-6.687c-4.253-4.709-8.389-9.505-12.399-14.39
				l-0.042,9.775l-7.057,11.947l-9.598,8.01c1.794,2.063,3.609,4.108,5.441,6.138l13.151-11.942L190.045,772.242z M90.656,578.442
				l-9.668-3.556l-7.392,1.377c0.612,3.43,1.266,6.846,1.958,10.248l7.383-1.404L90.656,578.442z M86.894,573.729l6.533,2.146
				l5.263-4.39L86.894,573.729z M85.357,561.383l9.486-6.188l-23.999,3.523c0.429,3.15,0.893,6.29,1.389,9.418l23.993-3.552
				L85.357,561.383z M101.243,542.476l-7.07,8.708l-4.907,0.51l5.897-7.264l-25.739,2.67c0.291,2.676,0.598,5.348,0.938,8.01
				l31.786-4.7C101.817,547.771,101.521,545.125,101.243,542.476z M98.509,514.277l-14.761-5.743l14.52-6.326l-0.027-1.382
				l-31.358,0.659c0.002,0.586,0.007,1.172,0.011,1.757l13.477,5.362l-13.25,5.859c0.02,0.607,0.036,1.216,0.058,1.822l31.359-0.626
				L98.509,514.277z M68.497,502.601l26.595-0.53l-13.036,5.771L68.497,502.601z M68.796,515.036l13.253-5.778l13.213,5.249
				L68.796,515.036z M90.286,513.606l-8.219-3.265l-8.244,3.593L90.286,513.606z M87.528,534.946l4.907-0.509l8.706,7.068
				c-0.844-8.241-1.434-16.53-1.771-24.862l-32.153,0.641c0.347,8.802,0.958,17.536,1.826,26.196l25.711-2.668L87.528,534.946z
				 M91.564,550.449l2.093-0.217l6.613-8.145l-8.144-6.613l-2.093,0.218l7.225,5.866l-28.117,2.917
				c0.056,0.544,0.119,1.086,0.176,1.63l28.145-2.92L91.564,550.449z M104.6,567.103l-31.785,4.631
				c0.078,0.464,0.161,0.926,0.239,1.389l31.549-6.001C104.602,567.115,104.601,567.108,104.6,567.103z M104.316,617.667
				l8.369-9.055l-11.854-3.391l-8.3,8.017l-11.316-2.543c0.163,0.617,0.324,1.235,0.49,1.852l9.357,2.121l-6.886,6.666
				c0.179,0.614,0.354,1.229,0.537,1.842l8.348-8.049L104.316,617.667z M101.383,607.087l8.48,2.315l-6.044,6.383l-9.295-2.087
				L101.383,607.087z M101.668,608.202l-5.113,4.928l6.929,1.556l4.505-4.758L101.668,608.202z M113.928,608.741l-9.269,10.027
				l-11.293-2.548l-8.33,8.032c0.216,0.722,0.438,1.439,0.658,2.158l30.501-9.945C115.415,613.897,114.654,611.323,113.928,608.741z
				 M86.781,629.922c0.864,2.742,1.752,5.475,2.669,8.193l12.97-13.292L86.781,629.922z M108.869,634.205l7.51-14.567l-0.642-1.97
				l-29.751,9.7c0.165,0.534,0.326,1.068,0.493,1.602l28.021-9.137l-5.913,11.634l-5.658-5.732L89.81,639.179
				c0.166,0.487,0.337,0.972,0.504,1.457l12.888-12.72L108.869,634.205z M79.757,593.013l24.096-5.653l-5.552,14.862l12.312-2.889
				l-0.375-1.598l-8.991,2.109l5.552-14.861l-30.083,7.058c0.07,0.322,0.141,0.645,0.212,0.966l10.716,10.03l-7.922,1.858
				c0.132,0.531,0.266,1.062,0.4,1.592l11.218-2.633L79.757,593.013z M107.747,583.663l-31.534,5.998
				c0.099,0.468,0.197,0.935,0.297,1.401l31.251-7.332C107.756,583.708,107.751,583.686,107.747,583.663z M81.998,613.639
				c0.602,2.211,1.226,4.412,1.861,6.609l5.179-5.014L81.998,613.639z M77.319,594.742c0.688,3.073,1.406,6.135,2.16,9.183
				l6.118-1.435L77.319,594.742z M106.508,581.396l-11.775-3.863l9.534-7.918l-0.259-1.362l-30.784,5.854
				c0.067,0.391,0.133,0.781,0.202,1.171l7.648-1.424l11.52,4.237l-9.207,7.948l-7.634,1.451c0.082,0.398,0.169,0.795,0.252,1.192
				l30.775-5.854L106.508,581.396z M82.902,573.471l19.392-3.689l-8.652,7.216L82.902,573.471z M85.254,585.685l8.673-7.183
				l10.703,3.497L85.254,585.685z M100.551,604.102l13.134,3.758c-0.718-2.571-1.41-5.149-2.075-7.733l-14.9,3.496l5.552-14.862
				l-20.457,4.8l11.583,10.842l-13.022,3.056c0.184,0.718,0.373,1.434,0.56,2.149l11.298,2.538L100.551,604.102z M152.165,701.059
				L125.144,716.8c0.274,0.473,0.55,0.944,0.827,1.416l27.02-15.74L152.165,701.059z M276.065,832.708l7.354,12.599l-2.317,3.522
				l-7.408-12.754l-15.295,23.244c4.039,2.725,8.126,5.383,12.26,7.974l16.433-27.442
				C283.381,837.523,279.696,835.157,276.065,832.708z M281.154,846.929l1.088-1.653l-7.252-12.424l-1.63-1.073l-17.144,26.054
				c0.452,0.309,0.901,0.62,1.354,0.927l16.177-24.584L281.154,846.929z M362.815,876.896l-11.643,29.885
				c6.157,2.26,12.381,4.378,18.665,6.361l8.996-30.795C373.464,880.645,368.123,878.831,362.815,876.896z M291.458,863.426
				l0.897-1.416l-7.998-12.456l3.667-6.123l7.943,12.428l1.017-1.698l-7.773-12.104l-1.674-1.003l-16.029,26.771
				c0.464,0.29,0.931,0.573,1.396,0.861l10.601-17.705L291.458,863.426z M381.783,902.207l-1.658-11.202l-6.809,23.219
				c3.03,0.929,6.073,1.828,9.131,2.691l6.786-23.245L381.783,902.207z M251.901,828.314l1.301-1.656l-1.251-10.418l-10.418,1.251
				l-1.301,1.656l9.242-1.11l-17.352,22.089c0.429,0.339,0.858,0.677,1.289,1.014l17.374-22.116L251.901,828.314z M252.911,815.85
				l1.333,11.102l-3.048,3.879l-1.116-9.291l-15.879,20.214c6.899,5.379,13.966,10.553,21.189,15.514l17.572-26.705
				C266.139,825.865,259.444,820.975,252.911,815.85z M290.243,841.813l7.917,12.329l-2.166,3.616l-7.943-12.428l-2.517,4.205
				l8.008,12.47l-2.08,3.283l-7.931-12.409l-9.778,16.329c4.143,2.548,8.333,5.029,12.566,7.44l15.269-28.11
				C297.766,846.361,293.988,844.114,290.243,841.813z M194.94,785.819l1.468-1.332l-1.643-5.736l8.644-7.849l-1.103-1.215
				l-8.014,7.277l-1.669-5.712l-1.447,1.313l1.617,5.76l-13.613,12.362c0.367,0.405,0.737,0.808,1.106,1.211l13.012-11.816
				L194.94,785.819z M332.941,870.13l-3.938,8.986l7.304-0.369L332.941,870.13z M322.092,894.885
				c2.61,1.181,5.236,2.331,7.874,3.461l-1.286-18.491L322.092,894.885z M339.976,881.287l-5.876-15.305l-1.898-0.831
				l-12.541,28.617c0.507,0.233,1.014,0.47,1.522,0.701l11.812-26.953l4.749,12.158l-8.045,0.407L331,898.791
				c0.474,0.202,0.949,0.401,1.423,0.602l-0.915-18.062L339.976,881.287z M304.935,875.561l-6.871-9.781l12.839-1.134l1.203-2.214
				l-8.243-11.75l-1.777-0.966l-14.897,27.427c0.476,0.27,0.95,0.542,1.427,0.81l6.459-11.893l1.393-0.111l7.225,10.347
				l-15.062,1.666c0.587,0.33,1.176,0.655,1.765,0.982l13.501-1.473L304.935,875.561z M296.458,863.513l6.434-11.844l8.008,11.438
				l-13.648,1.493L296.458,863.513z M295.695,867.013l-5.294,9.746l11.507-1.272l-5.933-8.495L295.695,867.013z M302.999,853.565
				l-5.36,9.869l0.08,0.108l11.393-1.247L302.999,853.565z M360.026,876.69l-0.118,0.173l-9.988,9.568l-0.697-13.755l0.062-0.158
				l-1.561-0.606l-11.287,29.152c0.506,0.207,1.016,0.407,1.523,0.612l10.394-26.762l0.846,13.688l9.857-9.523l-10.361,26.777
				c0.513,0.191,1.025,0.385,1.54,0.575l11.351-29.136L360.026,876.69z M348.336,890.827l-0.699-11.304l-8.749,22.527
				c2.941,1.183,5.898,2.335,8.872,3.455l8.726-22.552L348.336,890.827z M216.469,783.531c-0.48-0.479-0.943-0.973-1.42-1.454
				l-0.069,11.241l-3.51,3.468l0.058-9.357l-18.281,18.059c6.181,6.206,12.548,12.228,19.093,18.054l20.788-24.294
				C227.452,794.174,221.887,788.949,216.469,783.531z M312,867.477l11.574-7.32c-6.333-3.103-12.57-6.37-18.712-9.793l8.419,12.002
				l-1.755,3.229l-11.647,1.028l6.231,8.869l-1.583,2.916l-12.608,1.375c3.702,2.036,7.433,4.025,11.2,5.956l9.344-6.692
				L312,867.477z M343.923,869.463c-2.99-1.265-5.961-2.563-8.913-3.896l6.417,16.713l-8.868,0.046l0.886,17.493
				c0.689,0.288,1.377,0.577,2.068,0.861l11.576-29.9C346.034,870.343,344.977,869.908,343.923,869.463z M315.804,869.371
				l0.275,7.098l5.774-4.138l-0.553-6.53L315.804,869.371z M235.05,811.843l-1.289-7.685l-18.663,21.812
				c2.539,2.223,5.105,4.415,7.696,6.579l7.832-9.152L235.05,811.843z M306.844,887.621c2.023,1.013,4.055,2.011,6.096,2.992
				l-0.292-7.133L306.844,887.621z M73.596,503.499l8.435,3.261l8.11-3.59L73.596,503.499z M212.485,794.378l1.499-1.479
				l0.064-10.492l-10.492-0.064l-1.498,1.48l9.308,0.057l-19.974,19.73c0.383,0.39,0.768,0.778,1.153,1.166l19.999-19.755
				L212.485,794.378z M237.392,812.086l-1.557-9.449l-2.477-2.12l-20.27,23.689c0.418,0.37,0.84,0.736,1.259,1.104l19.446-22.727
				l0.839,0.719l1.45,8.644l-4.639,12.035l-7.88,9.209c0.331,0.274,0.658,0.553,0.989,0.826l8.088-9.453L237.392,812.086z
				 M324.364,860.548l1.319,13.625l-9.418,6.734l0.448,11.499c0.678,0.317,1.359,0.63,2.04,0.944l12.868-29.364
				C329.189,862.861,326.768,861.72,324.364,860.548z M392.227,887.127l-0.102,0.183l-9.137,10.382l-1.865-13.644l0.048-0.163
				l-1.606-0.471l-8.773,30.032c0.522,0.164,1.045,0.324,1.567,0.485l8.088-27.579l2.008,13.563l9.01-10.326l-8.055,27.593
				c0.527,0.147,1.055,0.295,1.583,0.44l8.839-30.024L392.227,887.127z M407.894,901.149l0.506-2.044l-5.416-8.986l-8.987,5.416
				l-0.507,2.044l7.973-4.806l-6.792,27.396c0.53,0.133,1.06,0.269,1.591,0.399l6.8-27.434L407.894,901.149z M324.632,873.694
				l-1.188-12.273l-10.421,6.593l0.46,11.531l-9.358,6.703c0.57,0.289,1.141,0.577,1.711,0.864l7.736-5.519l0.389,9.505
				c0.577,0.275,1.154,0.55,1.732,0.823l-0.449-11.515L324.632,873.694z M314.782,868.842l7.373-4.789l0.742,8.761l-7.745,5.55
				L314.782,868.842z M391.939,899.683l1.187-4.79l9.596-5.783c-2.574-0.643-5.141-1.308-7.702-2.001l-9.063,30.782
				c2.572,0.702,5.155,1.379,7.746,2.035l6.209-25.049L391.939,899.683z M237.954,820.429l3.048-3.881l11.111-1.334
				c-5.189-4.092-10.282-8.321-15.282-12.681l1.59,9.656l-4.966,12.958l-8.13,9.502c1.989,1.637,3.995,3.253,6.014,4.854
				l15.857-20.185L237.954,820.429z"/>
		</g>
	</g>
	<path d="M500,884.5c-51.907,0-102.261-10.166-149.666-30.217c-45.786-19.365-86.906-47.089-122.217-82.4
		c-35.312-35.312-63.035-76.432-82.401-122.218C125.667,602.262,115.5,551.906,115.5,500c0-51.907,10.167-102.261,30.216-149.666
		c19.366-45.786,47.089-86.906,82.401-122.217c35.311-35.312,76.431-63.035,122.217-82.401C397.739,125.667,448.093,115.5,500,115.5
		c51.906,0,102.262,10.167,149.665,30.216c45.786,19.366,86.906,47.089,122.218,82.401c35.312,35.311,63.035,76.431,82.4,122.217
		C874.334,397.739,884.5,448.093,884.5,500c0,51.906-10.166,102.262-30.217,149.665c-19.365,45.786-47.089,86.906-82.4,122.218
		s-76.432,63.035-122.218,82.4C602.262,874.334,551.906,884.5,500,884.5z M500,118.5c-210.359,0-381.5,171.14-381.5,381.5
		S289.641,881.5,500,881.5S881.5,710.359,881.5,500S710.359,118.5,500,118.5z"/>
	<path d="M647.193,855H352.806l-0.439-0.439L145,647.193V352.806l0.439-0.439L352.806,145h294.387L855,352.806v294.387L647.193,855z
		 M354.049,852h291.902L852,645.951V354.049L645.951,148H354.049L148,354.049v291.902L354.049,852z"/>
	<path d="M519.977,883.786l-0.586-0.207l-276.44-97.893l-0.268-0.562l-126.47-265.148l98.101-277.026l0.561-0.268l265.149-126.47
		l0.585,0.208l276.44,97.893l0.268,0.561l126.47,265.149l-0.207,0.585l-97.893,276.44l-0.562,0.268L519.977,883.786z
		 M245.124,783.272l274.683,97.271l263.466-125.667l97.271-274.684L754.877,216.727l-274.684-97.27L216.727,245.124l-97.271,274.683
		L245.124,783.272z"/>
	<path d="M500,850.305c-93.569,0-181.539-36.438-247.703-102.603c-32.17-32.171-57.429-69.634-75.072-111.348
		C158.958,593.166,149.696,547.29,149.696,500c0-93.57,36.438-181.539,102.602-247.703C318.461,186.134,406.43,149.696,500,149.696
		c47.29,0,93.166,9.262,136.354,27.529c41.714,17.644,79.177,42.902,111.348,75.072C813.866,318.461,850.305,406.431,850.305,500
		c0,47.29-9.263,93.166-27.529,136.354c-17.644,41.714-42.902,79.177-75.073,111.348s-69.634,57.43-111.348,75.073
		C593.166,841.042,547.29,850.305,500,850.305z M500,152.696c-191.504,0-347.304,155.8-347.304,347.304
		c0,191.505,155.8,347.305,347.304,347.305c191.505,0,347.305-155.8,347.305-347.305C847.305,308.496,691.505,152.696,500,152.696z"
		/>
	<path d="M500,157.699L796.932,672H203.068L500,157.699 M500,151.699L197.872,675h604.256L500,151.699L500,151.699z"/>
	<path d="M796.932,328L500,842.301L203.068,328H797 M802.128,325H197.872L500,848.301L802.128,325L802.128,325z"/>
	<path d="M500,176.785L780.139,662H219.861L500,176.785 M500,170.785L214.665,665h570.67L500,170.785L500,170.785z"/>
	<path d="M776.85,341L500,820.518L223.15,341H777 M782.046,338H217.954L500,826.518L782.046,338L782.046,338z"/>
</g>
<g id="レイヤー_4">
</g>
</svg>
