<?xml version="1.0" encoding="iso-8859-1"?>
<!-- Generator: Adobe Illustrator 15.0.0, SVG Export Plug-In . SVG Version: 6.00 Build 0)  -->
<!DOCTYPE svg PUBLIC "-//W3C//DTD SVG 1.1//EN" "http://www.w3.org/Graphics/SVG/1.1/DTD/svg11.dtd">
<svg version="1.1" xmlns="http://www.w3.org/2000/svg" xmlns:xlink="http://www.w3.org/1999/xlink" x="0px" y="0px" width="800px"
	 height="800px" viewBox="0 0 800 800" style="enable-background:new 0 0 800 800;" xml:space="preserve">
<g id="&#x30EC;&#x30A4;&#x30E4;&#x30FC;_1">
	<defs>
		<filter id="Adobe_OpacityMaskFilter" filterUnits="userSpaceOnUse" x="185" y="186" width="429" height="429">
			<feFlood  style="flood-color:white;flood-opacity:1" result="back"/>
			<feBlend  in="SourceGraphic" in2="back" mode="normal"/>
		</filter>
	</defs>
	<mask maskUnits="userSpaceOnUse" x="185" y="186" width="429" height="429" id="SVGID_1_">
		<g style="filter:url(#Adobe_OpacityMaskFilter);">
			<rect x="187" y="188" transform="matrix(0.7071 -0.7071 0.7071 0.7071 -166.1854 399.7929)" width="425" height="425"/>
		</g>
	</mask>
	<path style="mask:url(#SVGID_1_);fill:#000000;" d="M614,615H185V186h429V615z M189,611h421V190H189V611z"/>
	<path style="fill:#000000;" d="M400,784c-51.838,0-102.127-10.153-149.472-30.179c-45.727-19.341-86.793-47.027-122.058-82.292
		s-62.952-76.331-82.292-122.058C26.153,502.127,16,451.838,16,400s10.153-102.127,30.178-149.471
		c19.341-45.727,47.028-86.793,82.292-122.058s76.331-62.952,122.058-82.293C297.873,26.153,348.162,16,400,16
		s102.128,10.153,149.472,30.178c45.727,19.341,86.793,47.028,122.058,82.293s62.952,76.331,82.293,122.058
		C773.847,297.873,784,348.162,784,400s-10.153,102.127-30.178,149.472c-19.341,45.727-47.028,86.793-82.293,122.058
		s-76.331,62.951-122.058,82.292C502.128,773.847,451.838,784,400,784z M400,24C192.673,24,24,192.673,24,400s168.673,376,376,376
		s376-168.673,376-376S607.327,24,400,24z"/>
	<path style="fill:#000000;" d="M400,721.736c-85.939,0-166.734-33.467-227.502-94.234C111.73,566.733,78.264,485.938,78.264,400
		c0-85.939,33.466-166.734,94.234-227.502C233.266,111.73,314.061,78.264,400,78.264c85.939,0,166.734,33.466,227.502,94.234
		S721.736,314.061,721.736,400c0,85.938-33.467,166.733-94.234,227.502C566.734,688.27,485.939,721.736,400,721.736z M400,86.264
		C227.005,86.264,86.264,227.005,86.264,400c0,172.995,140.742,313.736,313.736,313.736c172.995,0,313.736-140.741,313.736-313.736
		C713.736,227.005,572.995,86.264,400,86.264z"/>
	<path style="fill:#000000;" d="M400,706.528c-81.877,0-158.853-31.885-216.749-89.78S93.472,481.877,93.472,400
		s31.884-158.853,89.78-216.749S318.123,93.472,400,93.472s158.853,31.884,216.748,89.78s89.78,134.872,89.78,216.749
		c0,81.876-31.885,158.853-89.78,216.748S481.877,706.528,400,706.528z M400,97.472C233.186,97.472,97.472,233.186,97.472,400
		S233.186,702.528,400,702.528S702.528,566.814,702.528,400S566.814,97.472,400,97.472z"/>
	<path style="fill:#000000;" d="M400,476.339c-42.093,0-76.339-34.245-76.339-76.339c0-42.093,34.246-76.339,76.339-76.339
		c42.094,0,76.339,34.246,76.339,76.339C476.339,442.094,442.094,476.339,400,476.339z M400,327.661
		c-39.888,0-72.339,32.451-72.339,72.339s32.451,72.339,72.339,72.339s72.339-32.451,72.339-72.339S439.888,327.661,400,327.661z"/>
	<path style="fill:#000000;" d="M387.613,783.907l-21.93-64.581l-35.15,58.446l-12.061-67.129l-43.47,52.561l-1.917-68.178
		l-50.816,45.486l8.263-67.7l-57.028,37.408l18.259-65.714l-61.965,28.491l27.849-62.257l-65.52,18.937l36.819-57.411l-67.613,8.959
		l44.964-51.281l-68.191-1.219l52.104-44.007l-67.247-11.367l58.083-35.751l-64.804-21.264l62.761-26.694l-60.909-30.687
		l66.038-17.04l-55.656-39.42l67.842-7.009l-49.161-47.274l68.128,3.178l-41.565-54.072l66.896,13.299l-33.042-59.667l64.164,23.123
		l-23.781-63.923l60.002,32.426l-13.987-66.753l54.499,41.004l-3.881-68.09l47.778,48.67l6.31-67.912l39.99,55.25l16.362-66.212
		l31.309,60.593l26.049-63.034l21.928,64.581l35.15-58.447l12.06,67.128L524.997,36.8l1.917,68.176l50.817-45.492l-8.264,67.702
		l57.03-37.41l-18.263,65.715l61.968-28.49l-27.851,62.257l65.521-18.936l-36.816,57.411l67.608-8.961l-44.962,51.284l68.19,1.215
		l-52.105,44.01l67.249,11.368l-58.078,35.75l64.8,21.264l-62.762,26.694l60.913,30.684l-66.043,17.045l55.659,39.418l-67.844,7.01
		l49.161,47.274l-68.13-3.181l41.565,54.073l-66.894-13.299l33.041,59.665l-64.159-23.121l23.774,63.923l-60.002-32.427
		l13.987,66.754l-54.498-41.006l3.882,68.097l-47.779-48.675l-6.31,67.91l-39.991-55.244l-16.361,66.207l-31.312-60.592
		L387.613,783.907z M366.445,712.238l21.443,63.147l25.468-61.634l30.616,59.246l15.998-64.736l39.104,54.018l6.17-66.404
		l46.719,47.595l-3.796-66.585l53.289,40.096l-13.677-65.271l58.67,31.706l-23.247-62.503l62.735,22.607l-32.309-58.341
		l65.409,13.004l-40.642-52.874l66.616,3.11l-48.069-46.226l66.338-6.854l-54.424-38.543l64.577-16.666l-59.562-30.004
		l61.369-26.102l-63.36-20.791l56.789-34.957l-65.757-11.115l50.948-43.033l-66.677-1.188l43.965-50.146l-66.108,8.762l36-56.136
		l-64.067,18.516l27.233-60.875l-60.593,27.858l17.856-64.256l-55.765,36.579l8.08-66.199l-49.688,44.482l-1.875-66.663
		L479.716,96.25l-11.79-65.638l-34.371,57.15l-21.441-63.148l-25.471,61.635l-30.614-59.248L340.03,91.744L300.927,37.72
		l-6.17,66.404l-46.718-47.59l3.795,66.579l-53.29-40.094l13.677,65.272l-58.671-31.707l23.253,62.505l-62.74-22.609l32.308,58.342
		L80.96,201.817l40.643,52.872l-66.616-3.107l48.07,46.225l-66.336,6.854l54.42,38.545l-64.572,16.662l59.557,30.005l-61.368,26.101
		l63.366,20.793l-56.793,34.956l65.754,11.115l-50.948,43.03l66.678,1.191l-43.966,50.145l66.112-8.762L98.959,624.58l64.066-18.517
		l-27.231,60.876l60.59-27.859l-17.854,64.256l55.764-36.578l-8.08,66.198l49.689-44.478l1.875,66.663l42.505-51.393l11.793,65.639
		L366.445,712.238z"/>
	<path style="fill:#000000;" d="M399.5,703.849L96.151,400.5l1.415-1.414L399.5,97.151l1.414,1.415L702.849,400.5L399.5,703.849z
		 M101.808,400.5L399.5,698.192L697.192,400.5L399.5,102.808L101.808,400.5z"/>
</g>
<g id="&#x30EC;&#x30A4;&#x30E4;&#x30FC;_3">
	<circle style="fill:#000000;" cx="661.078" cy="491.586" r="7.5"/>
	<circle style="fill:#000000;" cx="643.829" cy="519.335" r="5.25"/>
	<circle style="fill:#000000;" cx="431.078" cy="261.586" r="7.5"/>
	<circle style="fill:#000000;" cx="452.078" cy="261.586" r="4.833"/>
	<circle style="fill:#000000;" cx="413.829" cy="289.335" r="5.25"/>
	<ellipse style="fill:#000000;" cx="137.855" cy="292.886" rx="5.25" ry="5.293"/>
	<ellipse style="fill:#000000;" cx="126.854" cy="327.67" rx="9.75" ry="9.83"/>
	<circle style="fill:#000000;" cx="276.744" cy="451.252" r="10.166"/>
	<path style="fill:#000000;" d="M444.618,451.584c0,9.691-7.852,17.543-17.538,17.543c-9.691,0-17.543-7.852-17.543-17.543
		c0-9.684,7.852-17.538,17.543-17.538C436.767,434.046,444.618,441.9,444.618,451.584z"/>
	<circle style="fill:#000000;" cx="313.829" cy="520.335" r="5.25"/>
	<g>
		<path style="fill:#000000;" d="M526.308,227.397l2.053,2.053l-0.141,0.141c0,0-0.587-0.587-1.032-0.141l-9.974,9.974
			c-0.446,0.446,0.152,1.021,0.152,1.021l-0.141,0.141l-1.467-1.467l-1.761-6.148l0.88-0.88l0.142,0.141
			c-0.364,0.364-0.587,0.892-0.435,1.326l1.525,5.21l10.197-10.197c0.445-0.446-0.142-1.033-0.142-1.033L526.308,227.397z"/>
		<path style="fill:#000000;" d="M515.712,225.109l-1.726,4.541l-6.008,2.065l1.819-4.894l4.869-1.678l2.394-6.477
			c-0.059-0.293-0.293-0.528-0.293-0.528l0.152-0.152l1.619,1.619l-0.152,0.153c0,0-0.246-0.247-0.54-0.305l-1.994,5.28l5.409-1.936
			c-0.012-0.34-0.388-0.552-0.388-0.552l0.153-0.152l1.173,1.173l-0.164,0.141c0,0-0.211-0.234-0.493-0.305L515.712,225.109z
			 M510.807,226.752l-1.584,4.189l3.708-1.291l1.561-4.166L510.807,226.752z"/>
		<path style="fill:#000000;" d="M510.637,211.985l0.141-0.141l0.435,0.434l-2.934,9.668l-5.598-0.645l1.373,5.479l10.244-10.244
			c0.445-0.446-0.142-1.033-0.142-1.033l0.142-0.141l0.586,0.586l0.881,0.88l0.586,0.586l-0.141,0.141c0,0-0.563-0.563-1.009-0.165
			l-10.092,10.115c-0.258,0.422,0.235,0.916,0.235,0.916l-0.141,0.141l-0.575-0.575l-0.868-0.869l-0.047-0.023l-1.597-6.313
			l5.879,0.692l2.781-8.906C510.836,212.208,510.742,212.091,510.637,211.985z"/>
		<path style="fill:#000000;" d="M495.096,218.457l-1.467-1.467l0.141-0.141c0,0,0.493,0.493,0.916,0.234l10.091-10.067
			c0.446-0.446-0.141-1.033-0.141-1.033l0.141-0.141l2.054,2.053l-0.141,0.141c0,0-0.587-0.586-1.033-0.141l-9.657,9.704
			l4.964-2.358l-2.358,4.987l9.692-9.692c0.445-0.446-0.141-1.033-0.141-1.033l0.141-0.141l2.053,2.053l-0.141,0.141
			c0,0-0.587-0.587-1.032-0.141l-10.068,10.091c-0.258,0.422,0.235,0.916,0.235,0.916l-0.141,0.141l-1.467-1.467l0.129-0.129
			l2.511-5.14l-5.163,2.511L495.096,218.457z"/>
		<path style="fill:#000000;" d="M489.068,212.454l-1.479-1.479l0.152-0.152c0,0,0.458,0.458,0.893,0.305l10.103-10.126
			c0.446-0.446-0.141-1.033-0.141-1.033l0.141-0.141l2.054,2.053l-0.141,0.141c0,0-0.575-0.575-1.021-0.129l-2.358,2.335
			l-2.335,4.987l4.976-2.347l2.347-2.347c0.445-0.446-0.142-1.033-0.142-1.033l0.142-0.141l2.053,2.053l-0.141,0.141
			c0,0-0.575-0.575-1.021-0.129l-10.068,10.068c-0.199,0.481,0.235,0.916,0.235,0.916l-0.152,0.152l-1.467-1.467l2.464-5.092
			L489.068,212.454z M489.983,211.539l4.342-2.042l2.065-4.388L489.983,211.539z M494.643,209.813l-2.054,4.377l6.453-6.454
			L494.643,209.813z"/>
		<path style="fill:#000000;" d="M478.676,200.864l9.974-9.974c0.446-0.446-0.141-1.032-0.141-1.032l0.141-0.141l2.054,2.054
			l-0.141,0.141c0,0-0.587-0.586-1.032-0.141l-9.975,9.974c-0.445,0.446,0.141,1.033,0.141,1.033l-0.141,0.141l-2.054-2.053
			l0.142-0.141C477.644,200.723,478.229,201.31,478.676,200.864z"/>
		<path style="fill:#000000;" d="M470.308,193.669l-0.587-0.587l0.141-0.141c0,0,0.587,0.586,1.033,0.141l3.227-3.227l1.079,6.853
			l9.282-9.282l-6.829-1.08l3.227-3.227c0.446-0.446-0.141-1.033-0.141-1.033l0.141-0.141l2.054,2.053l-0.141,0.141
			c0,0-0.587-0.586-1.033-0.141l-2.347,2.347l6.899,1.033l-10.854,10.854l-0.294,0.293l-1.032-6.9l-2.934,2.934l-0.88-0.88
			L470.308,193.669z"/>
		<path style="fill:#000000;" d="M474.747,176.096l0.141-0.141l2.054,2.053l-0.141,0.141c0,0-0.587-0.586-1.021-0.129l-5.585,5.562
			l5.421,1.619l-6.301,6.301c-0.446,0.446,0.152,1.021,0.152,1.021l-0.141,0.141l-2.054-2.053l0.141-0.141
			c0,0,0.575,0.599,1.021,0.153l5.434-5.433l-5.434-1.607l6.454-6.454C475.334,176.683,474.747,176.096,474.747,176.096z"/>
		<path style="fill:#000000;" d="M468.719,170.09l0.152-0.152l1.174,1.173l-0.165,0.141c0,0-0.281-0.282-0.563-0.282l-4.447,4.447
			l-2.84,5.351l0.047,3.873l10.161-10.162c0.446-0.446-0.141-1.009-0.141-1.009l0.152-0.152l2.042,2.042l-0.152,0.152
			c0,0-0.599-0.575-1.021-0.152l-9.963,9.986c-0.445,0.446,0.142,1.032,0.142,1.032l-0.142,0.141l-1.467-1.467l-0.082-4.377
			l2.934-5.515l4.494-4.494C468.988,170.36,468.719,170.09,468.719,170.09z"/>
		<path style="fill:#000000;" d="M453.171,176.555l-1.479-1.479l0.152-0.152c0,0,0.458,0.458,0.893,0.305l10.103-10.126
			c0.446-0.446-0.141-1.033-0.141-1.033l0.141-0.141l2.054,2.053l-0.141,0.141c0,0-0.575-0.575-1.021-0.129l-2.358,2.335
			l-2.335,4.987l4.976-2.347l2.347-2.347c0.445-0.446-0.142-1.033-0.142-1.033l0.142-0.141l2.053,2.053l-0.141,0.141
			c0,0-0.575-0.575-1.021-0.129l-10.068,10.068c-0.199,0.481,0.235,0.916,0.235,0.916l-0.152,0.152l-1.467-1.467l2.464-5.092
			L453.171,176.555z M454.086,175.64l4.342-2.042l2.065-4.388L454.086,175.64z M458.745,173.915l-2.054,4.377l6.453-6.454
			L458.745,173.915z"/>
		<path style="fill:#000000;" d="M441.322,164.684l-1.479-1.479l0.141-0.141c0,0,0.599,0.598,1.045,0.152l9.974-9.974
			c0.446-0.446-0.152-1.044-0.152-1.044l0.141-0.141l1.479,1.478l-3.673,6.301l6.301-3.673l1.479,1.479l-0.141,0.141
			c0,0-0.587-0.587-1.032-0.141l-9.974,9.974c-0.435,0.434,0.141,1.033,0.141,1.033l-0.141,0.141l-1.479-1.479l3.731-6.36
			L441.322,164.684z M451.438,154.569l-8.906,8.906l5.562-3.239L451.438,154.569z M448.387,160.53l-3.228,5.574l8.859-8.859
			L448.387,160.53z"/>
		<path style="fill:#000000;" d="M443.92,153.316l-1.726,4.541l-6.008,2.065l1.819-4.894l4.869-1.678l2.394-6.477
			c-0.059-0.293-0.293-0.528-0.293-0.528l0.152-0.152l1.619,1.619l-0.152,0.153c0,0-0.246-0.247-0.54-0.305l-1.994,5.28l5.409-1.936
			c-0.012-0.34-0.388-0.552-0.388-0.552l0.153-0.152l1.173,1.173l-0.164,0.141c0,0-0.211-0.234-0.493-0.305L443.92,153.316z
			 M439.015,154.959l-1.584,4.189l3.708-1.291l1.561-4.166L439.015,154.959z"/>
		<path style="fill:#000000;" d="M442.502,143.592l2.053,2.053l-0.141,0.141c0,0-0.587-0.587-1.032-0.141l-9.974,9.974
			c-0.446,0.446,0.152,1.021,0.152,1.021l-0.141,0.141l-1.467-1.467l-1.761-6.148l0.88-0.88l0.142,0.141
			c-0.364,0.364-0.587,0.892-0.435,1.326l1.525,5.21l10.197-10.197c0.445-0.446-0.142-1.033-0.142-1.033L442.502,143.592z"/>
		<path style="fill:#000000;" d="M431.92,141.317l-1.726,4.541l-6.008,2.065l1.819-4.893l4.869-1.678l2.394-6.477
			c-0.059-0.293-0.293-0.528-0.293-0.528l0.152-0.152l1.619,1.619l-0.152,0.153c0,0-0.246-0.247-0.54-0.305l-1.994,5.28l5.409-1.936
			c-0.012-0.34-0.388-0.552-0.388-0.552l0.153-0.152l1.173,1.173l-0.164,0.141c0,0-0.211-0.234-0.493-0.305L431.92,141.317z
			 M427.015,142.959l-1.584,4.189l3.708-1.291l1.561-4.166L427.015,142.959z"/>
		<path style="fill:#000000;" d="M426.84,128.188l0.141-0.141l0.435,0.434l-2.934,9.668l-5.598-0.645l1.373,5.479l10.244-10.244
			c0.445-0.446-0.142-1.033-0.142-1.033l0.142-0.141l0.586,0.586l0.881,0.88l0.586,0.586l-0.141,0.141c0,0-0.563-0.563-1.009-0.165
			l-10.092,10.115c-0.258,0.422,0.235,0.916,0.235,0.916l-0.141,0.141l-0.575-0.575l-0.868-0.869l-0.047-0.023l-1.597-6.313
			l5.879,0.692l2.781-8.906C427.039,128.412,426.945,128.294,426.84,128.188z"/>
		<path style="fill:#000000;" d="M414.954,116.302l0.141-0.141l2.054,2.053l-0.141,0.141c0,0-0.587-0.586-1.021-0.129l-5.585,5.562
			l5.421,1.619l-6.301,6.301c-0.446,0.446,0.152,1.021,0.152,1.021l-0.141,0.141l-2.054-2.053l0.141-0.141
			c0,0,0.575,0.599,1.021,0.153l5.434-5.433l-5.434-1.607l6.454-6.454C415.541,116.889,414.954,116.302,414.954,116.302z"/>
		<path style="fill:#000000;" d="M400.882,123.07l9.974-9.974c0.446-0.446-0.141-1.032-0.141-1.032l0.141-0.141l2.054,2.054
			l-0.141,0.141c0,0-0.587-0.586-1.032-0.141l-9.975,9.974c-0.445,0.446,0.141,1.033,0.141,1.033l-0.141,0.141l-2.053-2.053
			l0.141-0.141C399.849,122.929,400.436,123.516,400.882,123.07z"/>
		<path style="fill:#000000;" d="M395,118.081v-5.28v-0.587v4.412l9.692-9.54c0.446-0.446-0.076-1.044-0.076-1.044l0.179-0.141
			l2.084,2.065l-0.131,0.141c0,0-0.582-0.586-1.027-0.141l-9.479,9.481l4.636-0.247l-0.445,0.587L395,118.081z"/>
		<path style="fill:#000000;" d="M385.166,115.206l-0.141-0.141L387.09,113l0.141,0.141c0,0-0.587,0.586-0.141,1.032l9.974,9.974
			c0.434,0.434,1.021-0.153,1.021-0.153l0.141,0.141l-1.479,1.479l-6.137,1.748l-1.021-1.021l0.141-0.141
			c0.329,0.329,1.15,0.704,1.455,0.587l5.233-1.502l-3.039-3.039l-6.137,1.748l-1.033-1.032l0.141-0.141
			c0.317,0.317,1.174,0.704,1.479,0.587l5.245-1.514l-6.853-6.853c-0.446-0.446-1.044,0.152-1.044,0.152L385.166,115.206z"/>
		<path style="fill:#000000;" d="M388.125,134.26l-1.479,1.479l-0.152-0.153c0,0,0.458-0.458,0.305-0.892l-10.126-10.103
			c-0.446-0.446-1.033,0.141-1.033,0.141l-0.141-0.141l2.053-2.053l0.141,0.141c0,0-0.575,0.575-0.129,1.021l2.335,2.358
			l4.987,2.335l-2.347-4.975l-2.347-2.347c-0.446-0.446-1.033,0.141-1.033,0.141l-0.141-0.141l2.053-2.054l0.141,0.141
			c0,0-0.575,0.575-0.129,1.021l10.068,10.068c0.481,0.2,0.916-0.235,0.916-0.235l0.152,0.153l-1.467,1.467l-5.092-2.464
			L388.125,134.26z M387.209,133.344l-2.042-4.341l-4.388-2.065L387.209,133.344z M385.484,128.686l4.377,2.053l-6.454-6.454
			L385.484,128.686z"/>
		<path style="fill:#000000;" d="M382.096,140.265l-1.467,1.467l-0.141-0.141c0,0,0.493-0.493,0.234-0.915l-10.067-10.091
			c-0.446-0.446-1.033,0.141-1.033,0.141l-0.141-0.141l2.053-2.053l0.141,0.141c0,0-0.586,0.586-0.141,1.033l9.704,9.657
			l-2.358-4.963l4.987,2.358l-9.692-9.692c-0.446-0.446-1.033,0.141-1.033,0.141l-0.141-0.141l2.053-2.054l0.141,0.141
			c0,0-0.587,0.586-0.141,1.032l10.091,10.068c0.422,0.258,0.916-0.235,0.916-0.235l0.141,0.141l-1.467,1.467l-0.129-0.129
			l-5.14-2.511l2.511,5.163L382.096,140.265z"/>
		<path style="fill:#000000;" d="M377.411,145h-5.28l-0.587-1h4.412l-9.54-9.358c-0.446-0.445-1.044,0.244-1.044,0.244l-0.141-0.096
			l2.065-2.042l0.141,0.152c0,0-0.586,0.592-0.141,1.038l9.481,9.484l-0.247-4.633l0.587,0.612L377.411,145z"/>
		<path style="fill:#000000;" d="M349.132,150.934l2.053-2.054l0.153,0.153c0,0-0.587,0.586-0.141,1.032l9.962,9.962
			c0.446,0.446,1.033-0.141,1.033-0.141l0.141,0.141l-2.053,2.053l-0.141-0.141c0,0,0.587-0.587,0.141-1.033l-5.597-5.597
			l-8.918-1.009l1.021-1.021l0.152,0.152c-0.117,0.118-0.387,0.387-0.188,0.587l7.474,0.833l-3.907-3.907
			c-0.446-0.446-1.033,0.141-1.033,0.141L349.132,150.934z"/>
		<path style="fill:#000000;" d="M346.868,161.53l4.541,1.725l2.065,6.008l-4.893-1.818l-1.678-4.87l-6.477-2.394
			c-0.293,0.059-0.528,0.293-0.528,0.293l-0.152-0.152l1.619-1.62l0.153,0.153c0,0-0.247,0.246-0.305,0.54l5.28,1.995l-1.936-5.409
			c-0.34,0.012-0.552,0.387-0.552,0.387l-0.152-0.152l1.173-1.173l0.141,0.164c0,0-0.234,0.211-0.305,0.493L346.868,161.53z
			 M348.51,166.435l4.189,1.584l-1.291-3.708l-4.166-1.561L348.51,166.435z"/>
		<path style="fill:#000000;" d="M343.775,170.185l3.614,3.614c0.446,0.446,1.033-0.141,1.033-0.141l0.141,0.141l-2.053,2.053
			l-0.141-0.141c0,0,0.586-0.587,0.141-1.033l-4.001-4.001l-2.781,1.068c-0.07,0.188,0.188,0.446,0.188,0.446l-0.141,0.141
			l-1.033-1.033l0.141-0.141c0.176,0.176,0.34,0.247,0.551,0.247l2.757-1.044l-5.656-5.656c-0.446-0.446-1.021,0.153-1.021,0.153
			l-0.153-0.153l2.054-2.053l0.152,0.152c0,0-0.598,0.575-0.152,1.021l6.055,6.055l2.746-1.056c0.094-0.141,0.035-0.293-0.129-0.458
			l0.141-0.141l1.021,1.021l-0.141,0.141c-0.129-0.129-0.329-0.282-0.505-0.293L343.775,170.185z"/>
		<path style="fill:#000000;" d="M327.734,172.614l-0.141-0.141l2.053-2.053l0.141,0.141c0,0-0.586,0.586-0.129,1.021l5.562,5.585
			l1.619-5.421l6.301,6.301c0.446,0.446,1.021-0.153,1.021-0.153l0.141,0.141l-2.053,2.053l-0.141-0.141
			c0,0,0.599-0.575,0.153-1.021l-5.433-5.433l-1.607,5.433l-6.454-6.454C328.32,172.027,327.734,172.614,327.734,172.614z"/>
		<path style="fill:#000000;" d="M334.201,188.16l-1.467,1.467l-0.141-0.141c0,0,0.493-0.493,0.235-0.915l-10.068-10.091
			c-0.446-0.446-1.033,0.141-1.033,0.141l-0.141-0.141l2.053-2.053l0.141,0.141c0,0-0.586,0.586-0.141,1.033l9.704,9.657
			l-2.358-4.963l4.987,2.358l-9.692-9.692c-0.446-0.446-1.033,0.141-1.033,0.141l-0.141-0.141l2.053-2.054l0.141,0.141
			c0,0-0.587,0.586-0.141,1.032l10.091,10.068c0.422,0.258,0.916-0.235,0.916-0.235l0.141,0.141l-1.467,1.467l-0.129-0.129
			l-5.14-2.511l2.511,5.163L334.201,188.16z"/>
		<path style="fill:#000000;" d="M319.103,180.963l2.053-2.054l0.153,0.153c0,0-0.587,0.586-0.141,1.032l9.962,9.962
			c0.446,0.446,1.033-0.141,1.033-0.141l0.141,0.141l-2.053,2.053l-0.141-0.141c0,0,0.587-0.587,0.141-1.033l-5.597-5.597
			l-8.918-1.009l1.021-1.021l0.152,0.152c-0.117,0.118-0.387,0.387-0.188,0.587l7.474,0.833l-3.907-3.907
			c-0.446-0.446-1.033,0.141-1.033,0.141L319.103,180.963z"/>
		<path style="fill:#000000;" d="M323.506,199h-5.28l-0.587-1h4.412l-9.54-9.406c-0.446-0.445-1.044,0.22-1.044,0.22l-0.141-0.108
			l2.065-2.048l0.141,0.149c0,0-0.586,0.591-0.141,1.037l9.481,9.483l-0.247-4.634l0.587,0.66L323.506,199z"/>
		<path style="fill:#000000;" d="M316.179,206.182l-1.467,1.467l-0.141-0.141c0,0,0.493-0.493,0.234-0.915l-10.067-10.091
			c-0.446-0.446-1.033,0.141-1.033,0.141l-0.141-0.141l2.053-2.053l0.141,0.141c0,0-0.586,0.586-0.141,1.033l9.704,9.657
			l-2.358-4.963l4.987,2.358l-9.692-9.692c-0.446-0.446-1.033,0.141-1.033,0.141l-0.141-0.141l2.053-2.054l0.141,0.141
			c0,0-0.587,0.586-0.141,1.032l10.091,10.068c0.422,0.258,0.916-0.235,0.916-0.235l0.141,0.141l-1.467,1.467l-0.129-0.129
			l-5.14-2.511l2.511,5.163L316.179,206.182z"/>
		<path style="fill:#000000;" d="M311.488,211h-5.28l-0.587-1h4.412l-9.54-9.397c-0.446-0.446-1.044,0.224-1.044,0.224l-0.141-0.105
			l2.065-2.047l0.141,0.15c0,0-0.586,0.591-0.141,1.037l9.481,9.483l-0.247-4.633l0.587,0.65L311.488,211z"/>
		<path style="fill:#000000;" d="M291.692,208.679l-0.152-0.152l1.173-1.173l0.141,0.164c0,0-0.282,0.282-0.282,0.563l4.447,4.447
			l5.351,2.839l3.873-0.047l-10.162-10.162c-0.446-0.446-1.009,0.141-1.009,0.141l-0.152-0.152l2.042-2.042l0.152,0.152
			c0,0-0.575,0.599-0.152,1.021l9.986,9.962c0.446,0.446,1.032-0.141,1.032-0.141l0.141,0.141l-1.467,1.467l-4.377,0.082
			l-5.515-2.933l-4.494-4.494C291.962,208.409,291.692,208.679,291.692,208.679z"/>
		<path style="fill:#000000;" d="M285.693,214.654l-0.141-0.141l0.434-0.434l9.668,2.934l-0.645,5.597l5.479-1.373l-10.244-10.244
			c-0.446-0.446-1.033,0.141-1.033,0.141l-0.141-0.141l0.586-0.587l0.88-0.88l0.586-0.587l0.141,0.141c0,0-0.563,0.563-0.165,1.009
			l10.115,10.091c0.422,0.258,0.916-0.235,0.916-0.235l0.141,0.141l-0.575,0.575l-0.869,0.869l-0.023,0.047l-6.313,1.596
			l0.692-5.879l-8.906-2.781C285.917,214.455,285.799,214.549,285.693,214.654z"/>
		<path style="fill:#000000;" d="M277.33,223.041l-0.141-0.141l2.065-2.065l0.141,0.141c0,0-0.587,0.586-0.141,1.032l9.974,9.974
			c0.434,0.434,1.021-0.153,1.021-0.153l0.141,0.141l-1.479,1.479l-6.137,1.748l-1.021-1.021l0.141-0.141
			c0.329,0.329,1.15,0.704,1.455,0.587l5.233-1.502l-3.039-3.039l-6.137,1.748l-1.033-1.032l0.141-0.141
			c0.317,0.317,1.174,0.704,1.479,0.587l5.245-1.514l-6.853-6.853c-0.446-0.446-1.044,0.152-1.044,0.152L277.33,223.041z"/>
		<path style="fill:#000000;" d="M280.285,242.076l-1.479,1.479l-0.141-0.141c0,0,0.598-0.598,0.152-1.044l-9.974-9.974
			c-0.446-0.446-1.044,0.152-1.044,0.152l-0.141-0.141l1.478-1.479l6.301,3.673l-3.673-6.301l1.479-1.479l0.141,0.141
			c0,0-0.587,0.586-0.141,1.032l9.974,9.974c0.434,0.434,1.033-0.141,1.033-0.141l0.141,0.141l-1.479,1.479l-6.36-3.731
			L280.285,242.076z M270.17,231.961l8.906,8.906l-3.239-5.562L270.17,231.961z M276.131,235.012l5.574,3.227l-8.859-8.859
			L276.131,235.012z"/>
		<path style="fill:#000000;" d="M274.564,246.623l-9.974-9.974c-0.446-0.446-1.032,0.141-1.032,0.141l-0.141-0.141l2.054-2.053
			l0.141,0.141c0,0-0.586,0.587-0.141,1.033l9.974,9.974c0.446,0.446,1.033-0.141,1.033-0.141l0.141,0.141l-2.053,2.053
			l-0.141-0.141C274.424,247.656,275.01,247.069,274.564,246.623z"/>
		<path style="fill:#000000;" d="M267.371,254.99l-0.587,0.587l-0.141-0.141c0,0,0.586-0.586,0.141-1.032l-3.227-3.227l6.853-1.08
			l-9.282-9.282l-1.08,6.83l-3.227-3.227c-0.446-0.446-1.033,0.141-1.033,0.141l-0.141-0.141l2.053-2.053l0.141,0.141
			c0,0-0.586,0.586-0.141,1.033l2.347,2.347l1.033-6.899l10.854,10.854l0.293,0.293l-6.9,1.033l2.934,2.934l-0.88,0.88
			L267.371,254.99z"/>
		<path style="fill:#000000;" d="M262.562,258.625l-9.974-9.974c-0.446-0.446-1.032,0.141-1.032,0.141l-0.141-0.141l2.054-2.053
			l0.141,0.141c0,0-0.586,0.587-0.141,1.033l9.974,9.974c0.446,0.446,1.033-0.141,1.033-0.141l0.141,0.141l-2.053,2.053
			l-0.141-0.141C262.421,259.658,263.008,259.071,262.562,258.625z"/>
		<path style="fill:#000000;" d="M243.784,256.563l-0.141-0.141l2.053-2.053l0.141,0.141c0,0-0.586,0.586-0.129,1.021l5.562,5.585
			l1.619-5.421l6.301,6.301c0.446,0.446,1.021-0.153,1.021-0.153l0.141,0.141l-2.053,2.053l-0.141-0.141
			c0,0,0.599-0.575,0.153-1.021l-5.433-5.433l-1.607,5.433l-6.454-6.454C244.371,255.977,243.784,256.563,243.784,256.563z"/>
		<path style="fill:#000000;" d="M250.544,270.644l-9.974-9.974c-0.446-0.446-1.032,0.141-1.032,0.141l-0.141-0.141l2.054-2.053
			l0.141,0.141c0,0-0.586,0.587-0.141,1.033l9.974,9.974c0.446,0.446,1.033-0.141,1.033-0.141l0.141,0.141l-2.053,2.053
			l-0.141-0.141C250.403,271.676,250.99,271.089,250.544,270.644z"/>
		<path style="fill:#000000;" d="M235.149,264.917l2.053-2.054l0.153,0.153c0,0-0.587,0.586-0.141,1.032l9.962,9.962
			c0.446,0.446,1.033-0.141,1.033-0.141l0.141,0.141l-2.053,2.053l-0.141-0.141c0,0,0.587-0.587,0.141-1.033l-5.597-5.597
			l-8.918-1.009l1.021-1.021l0.152,0.152c-0.117,0.118-0.387,0.387-0.188,0.587l7.475,0.833l-3.908-3.907
			c-0.446-0.446-1.033,0.141-1.033,0.141L235.149,264.917z"/>
		<path style="fill:#000000;" d="M238.524,282.664l-9.974-9.974c-0.446-0.446-1.032,0.141-1.032,0.141l-0.141-0.141l2.054-2.053
			l0.141,0.141c0,0-0.586,0.587-0.141,1.033l9.974,9.974c0.446,0.446,1.033-0.141,1.033-0.141l0.141,0.141l-2.053,2.053
			l-0.141-0.141C238.383,283.696,238.97,283.109,238.524,282.664z"/>
		<path style="fill:#000000;" d="M229.78,284.179l3.614,3.614c0.446,0.446,1.033-0.141,1.033-0.141l0.141,0.141l-2.053,2.053
			l-0.141-0.141c0,0,0.586-0.587,0.141-1.033l-4.001-4.001l-2.781,1.068c-0.07,0.188,0.188,0.446,0.188,0.446l-0.141,0.141
			l-1.033-1.033l0.141-0.141c0.176,0.176,0.34,0.246,0.551,0.246l2.757-1.044l-5.656-5.656c-0.446-0.446-1.021,0.153-1.021,0.153
			l-0.153-0.153l2.054-2.053l0.152,0.152c0,0-0.598,0.575-0.152,1.021l6.055,6.055l2.746-1.056c0.094-0.141,0.035-0.293-0.129-0.458
			l0.141-0.141l1.021,1.021l-0.141,0.141c-0.129-0.129-0.329-0.282-0.505-0.293L229.78,284.179z"/>
		<path style="fill:#000000;" d="M224.911,296.958l-1.584-3.884l-3.344-1.561l-1.842-3.391l-3.896-1.807
			c-0.258,0.07-0.493,0.281-0.493,0.281l-0.141-0.141l1.76-1.76l0.141,0.141c0,0-0.282,0.305-0.293,0.645l6.219,2.91l-2.64-6.489
			c-0.34,0.012-0.645,0.293-0.645,0.293l-0.141-0.141l1.173-1.173l0.141,0.141c0,0-0.211,0.234-0.282,0.516l1.549,3.825l3.591,1.667
			l1.936,3.555l3.438,1.607c0.34-0.012,0.634-0.305,0.634-0.305l0.141,0.141l-1.76,1.76l-0.141-0.141c0,0,0.293-0.293,0.305-0.634
			l-6.196-2.863l2.617,6.442c0.34-0.012,0.634-0.305,0.634-0.305l0.141,0.141l-1.173,1.173l-0.141-0.141
			C224.617,297.462,224.84,297.239,224.911,296.958z M222.763,291.666l-0.704-1.737l-3.344-1.537l1.009,1.877L222.763,291.666z
			 M221.918,288.615l3.625,1.701l-1.091-2.03l-3.285-1.525L221.918,288.615z"/>
		<path style="fill:#000000;" d="M214.361,308l-1.467,1.467l-0.141-0.141c0,0,0.493-0.493,0.234-0.915l-10.067-10.091
			c-0.446-0.446-1.033,0.141-1.033,0.141l-0.141-0.141l2.053-2.053l0.141,0.141c0,0-0.586,0.586-0.141,1.033l9.704,9.657
			l-2.358-4.963l4.987,2.358l-9.692-9.692c-0.446-0.446-1.033,0.141-1.033,0.141l-0.141-0.141l2.053-2.054l0.141,0.141
			c0,0-0.587,0.586-0.141,1.032l10.091,10.068c0.422,0.258,0.916-0.235,0.916-0.235l0.141,0.141l-1.467,1.467l-0.129-0.129
			l-5.14-2.511l2.511,5.163L214.361,308z"/>
		<path style="fill:#000000;" d="M199.275,300.814l2.053-2.054l0.141,0.141c0,0-0.587,0.586-0.141,1.032l9.974,9.974
			c0.446,0.446,1.021-0.153,1.021-0.153l0.141,0.141l-1.467,1.467l-6.148,1.76l-0.88-0.88l0.141-0.141
			c0.364,0.364,0.892,0.586,1.326,0.434l5.21-1.525l-10.197-10.197c-0.446-0.446-1.033,0.141-1.033,0.141L199.275,300.814z"/>
		<path style="fill:#000000;" d="M202.625,318.563l-9.974-9.974c-0.446-0.446-1.032,0.141-1.032,0.141l-0.141-0.141l2.054-2.053
			l0.141,0.141c0,0-0.586,0.587-0.141,1.033l9.974,9.974c0.446,0.446,1.033-0.141,1.033-0.141l0.141,0.141l-2.053,2.053
			l-0.141-0.141C202.484,319.595,203.071,319.008,202.625,318.563z"/>
		<path style="fill:#000000;" d="M197.639,325h-5.28l-0.587-1h4.412l-9.54-9.473c-0.446-0.445-1.044,0.187-1.044,0.187l-0.141-0.125
			l2.065-2.056l0.141,0.145c0,0-0.586,0.589-0.141,1.035l9.481,9.482l-0.247-4.634l0.587,0.726L197.639,325z"/>
		<path style="fill:#000000;" d="M165.977,334.371l-0.141-0.141l2.053-2.053l0.141,0.141c0,0-0.586,0.586-0.129,1.021l5.562,5.585
			l1.619-5.421l6.301,6.301c0.446,0.446,1.021-0.153,1.021-0.153l0.141,0.141l-2.053,2.053l-0.141-0.141
			c0,0,0.599-0.575,0.153-1.021l-5.433-5.433l-1.607,5.433l-6.454-6.454C166.563,333.784,165.977,334.371,165.977,334.371z"/>
		<path style="fill:#000000;" d="M172.449,349.912l-1.467,1.467l-0.141-0.141c0,0,0.493-0.493,0.235-0.915l-10.068-10.091
			c-0.446-0.446-1.033,0.141-1.033,0.141l-0.141-0.141l2.053-2.053l0.141,0.141c0,0-0.586,0.586-0.141,1.033l9.704,9.657
			l-2.358-4.963l4.987,2.358l-9.692-9.692c-0.446-0.446-1.033,0.141-1.033,0.141l-0.141-0.141l2.053-2.054l0.141,0.141
			c0,0-0.587,0.586-0.141,1.032l10.091,10.068c0.422,0.258,0.916-0.235,0.916-0.235l0.141,0.141l-1.467,1.467l-0.129-0.129
			l-5.14-2.511l2.511,5.163L172.449,349.912z"/>
		<path style="fill:#000000;" d="M166.452,355.909l-1.479,1.479l-0.141-0.141c0,0,0.598-0.598,0.152-1.044l-9.974-9.974
			c-0.446-0.446-1.044,0.152-1.044,0.152l-0.141-0.141l1.478-1.479l6.301,3.673l-3.673-6.301l1.479-1.479l0.141,0.141
			c0,0-0.587,0.586-0.141,1.032l9.974,9.974c0.434,0.434,1.033-0.141,1.033-0.141l0.141,0.141l-1.479,1.479l-6.36-3.731
			L166.452,355.909z M156.337,345.794l8.906,8.906l-3.239-5.562L156.337,345.794z M162.298,348.845l5.574,3.227l-8.859-8.859
			L162.298,348.845z"/>
		<path style="fill:#000000;" d="M154.573,367.788l-1.479,1.479l-0.141-0.141c0,0,0.598-0.598,0.152-1.044l-9.974-9.974
			c-0.446-0.446-1.044,0.152-1.044,0.152l-0.141-0.141l1.478-1.479l6.301,3.673l-3.673-6.301l1.479-1.479l0.141,0.141
			c0,0-0.587,0.586-0.141,1.032l9.974,9.974c0.434,0.434,1.033-0.141,1.033-0.141l0.141,0.141l-1.479,1.479l-6.36-3.731
			L154.573,367.788z M144.458,357.673l8.906,8.906l-3.239-5.562L144.458,357.673z M150.419,360.724l5.574,3.227l-8.859-8.859
			L150.419,360.724z"/>
		<path style="fill:#000000;" d="M143.208,365.189l4.541,1.725l2.065,6.008l-4.893-1.818l-1.678-4.87l-6.477-2.394
			c-0.293,0.059-0.528,0.293-0.528,0.293l-0.152-0.152l1.619-1.62l0.153,0.153c0,0-0.247,0.246-0.305,0.54l5.28,1.995l-1.936-5.409
			c-0.34,0.012-0.552,0.387-0.552,0.387l-0.152-0.152l1.173-1.173l0.141,0.164c0,0-0.234,0.211-0.305,0.493L143.208,365.189z
			 M144.851,370.094l4.189,1.584l-1.291-3.708l-4.166-1.561L144.851,370.094z"/>
		<path style="fill:#000000;" d="M136.691,385.67l-1.467,1.467l-0.141-0.141c0,0,0.493-0.493,0.235-0.915l-10.068-10.091
			c-0.446-0.446-1.033,0.141-1.033,0.141l-0.141-0.141l2.053-2.053l0.141,0.141c0,0-0.586,0.586-0.141,1.033l9.704,9.657
			l-2.358-4.963l4.987,2.358l-9.692-9.692c-0.446-0.446-1.033,0.141-1.033,0.141l-0.141-0.141l2.053-2.054l0.141,0.141
			c0,0-0.587,0.586-0.141,1.032l10.091,10.068c0.422,0.258,0.916-0.235,0.916-0.235l0.141,0.141l-1.467,1.467l-0.129-0.129
			l-5.14-2.511l2.511,5.163L136.691,385.67z"/>
		<path style="fill:#000000;" d="M130.99,390.197l-9.974-9.974c-0.446-0.446-1.032,0.141-1.032,0.141l-0.141-0.141l2.054-2.053
			l0.141,0.141c0,0-0.586,0.587-0.141,1.033l9.974,9.974c0.446,0.446,1.033-0.141,1.033-0.141l0.141,0.141l-2.053,2.053
			l-0.141-0.141C130.85,391.23,131.436,390.643,130.99,390.197z"/>
		<path style="fill:#000000;" d="M112.2,388.171l-0.152-0.152l1.173-1.173l0.141,0.164c0,0-0.282,0.282-0.282,0.563l4.447,4.447
			l5.351,2.839l3.873-0.047l-10.162-10.162c-0.446-0.446-1.009,0.141-1.009,0.141l-0.152-0.152l2.042-2.042l0.152,0.152
			c0,0-0.575,0.599-0.152,1.021l9.986,9.962c0.446,0.446,1.032-0.141,1.032-0.141l0.141,0.141l-1.467,1.467l-4.377,0.082
			l-5.515-2.933l-4.494-4.494C112.47,387.901,112.2,388.171,112.2,388.171z"/>
		<path style="fill:#000000;" d="M106.213,394.135l-0.141-0.141l2.053-2.053l0.141,0.141c0,0-0.586,0.586-0.129,1.021l5.562,5.585
			l1.619-5.421l6.301,6.301c0.446,0.446,1.021-0.153,1.021-0.153l0.141,0.141l-2.053,2.053l-0.141-0.141
			c0,0,0.599-0.575,0.153-1.021l-5.433-5.433l-1.607,5.433l-6.454-6.454C106.8,393.548,106.213,394.135,106.213,394.135z"/>
		<path style="fill:#000000;" d="M112.259,410.126l-1.479,1.479l-0.152-0.152c0,0,0.458-0.458,0.305-0.893l-10.126-10.103
			c-0.446-0.446-1.033,0.141-1.033,0.141l-0.141-0.141l2.053-2.053l0.141,0.141c0,0-0.575,0.575-0.129,1.021l2.335,2.358
			l4.987,2.335l-2.347-4.975l-2.347-2.347c-0.446-0.446-1.033,0.141-1.033,0.141l-0.141-0.141l2.053-2.054l0.141,0.141
			c0,0-0.575,0.575-0.129,1.021l10.068,10.068c0.481,0.199,0.916-0.235,0.916-0.235l0.152,0.152l-1.467,1.467l-5.092-2.464
			L112.259,410.126z M111.344,409.211l-2.042-4.342l-4.388-2.065L111.344,409.211z M109.619,404.552l4.377,2.054l-6.454-6.454
			L109.619,404.552z"/>
		<path style="fill:#000000;" d="M115.87,408.473l1.725-4.541l6.008-2.065l-1.818,4.893l-4.87,1.679l-2.394,6.477
			c0.059,0.294,0.293,0.528,0.293,0.528l-0.152,0.152l-1.62-1.619l0.153-0.152c0,0,0.246,0.246,0.54,0.305l1.995-5.28l-5.409,1.937
			c0.012,0.34,0.387,0.551,0.387,0.551l-0.152,0.153l-1.173-1.174l0.164-0.141c0,0,0.211,0.234,0.493,0.305L115.87,408.473z
			 M120.774,406.829l1.584-4.188l-3.708,1.291l-1.561,4.165L120.774,406.829z"/>
		<path style="fill:#000000;" d="M130.493,409.132l1.479,1.479l-0.141,0.142c0,0-0.598-0.599-1.044-0.153l-9.974,9.975
			c-0.446,0.445,0.152,1.044,0.152,1.044l-0.141,0.141l-1.479-1.479l3.673-6.301l-6.301,3.673l-1.479-1.479l0.141-0.141
			c0,0,0.586,0.586,1.032,0.141l9.974-9.974c0.434-0.435-0.141-1.033-0.141-1.033l0.141-0.141l1.479,1.479l-3.731,6.359
			L130.493,409.132z M123.429,413.286l3.227-5.573l-8.859,8.858L123.429,413.286z M120.378,419.247l8.906-8.906l-5.562,3.238
			L120.378,419.247z"/>
		<path style="fill:#000000;" d="M141,419.687v5.28l-1,0.586v-4.411l-9.31,9.539c-0.446,0.446,0.268,1.045,0.268,1.045l-0.083,0.141
			l-2.036-2.065l0.155-0.141c0,0,0.594,0.587,1.04,0.141l9.485-9.48l-4.633,0.246l0.564-0.587L141,419.687z"/>
		<path style="fill:#000000;" d="M148.365,427.003l1.467,1.467l-0.141,0.142c0,0-0.493-0.493-0.915-0.235l-10.091,10.068
			c-0.446,0.445,0.141,1.032,0.141,1.032l-0.141,0.141l-2.053-2.054l0.141-0.141c0,0,0.586,0.587,1.033,0.141l9.657-9.703
			l-4.963,2.358l2.358-4.987l-9.692,9.692c-0.446,0.446,0.141,1.032,0.141,1.032l-0.141,0.142l-2.054-2.054l0.141-0.141
			c0,0,0.586,0.586,1.032,0.141l10.068-10.092c0.258-0.422-0.235-0.915-0.235-0.915l0.141-0.141l1.467,1.467l-0.129,0.129
			l-2.511,5.14l5.163-2.511L148.365,427.003z"/>
		<path style="fill:#000000;" d="M154.375,432.99l1.479,1.479l-0.153,0.153c0,0-0.458-0.458-0.892-0.306l-10.103,10.127
			c-0.446,0.445,0.141,1.032,0.141,1.032l-0.141,0.141l-2.053-2.054l0.141-0.141c0,0,0.575,0.575,1.021,0.129l2.358-2.335
			l2.335-4.986l-4.975,2.347l-2.347,2.347c-0.446,0.446,0.141,1.032,0.141,1.032l-0.141,0.142l-2.054-2.054l0.141-0.141
			c0,0,0.575,0.574,1.021,0.129l10.068-10.068c0.2-0.48-0.234-0.915-0.234-0.915l0.152-0.152l1.467,1.467l-2.464,5.093
			L154.375,432.99z M148.802,435.631l2.053-4.377l-6.454,6.454L148.802,435.631z M153.46,433.906l-4.341,2.041l-2.065,4.389
			L153.46,433.906z"/>
		<path style="fill:#000000;" d="M161.28,439.919l0.587,0.586l-0.141,0.142c0,0-0.586-0.587-1.032-0.142l-3.227,3.228l-1.08-6.853
			l-9.282,9.281l6.83,1.079l-3.227,3.228c-0.446,0.445,0.141,1.032,0.141,1.032l-0.141,0.141l-2.053-2.054l0.141-0.141
			c0,0,0.586,0.587,1.033,0.141l2.347-2.347l-6.899-1.032l10.854-10.854l0.293-0.294l1.033,6.899l2.934-2.934l0.88,0.881
			L161.28,439.919z"/>
		<path style="fill:#000000;" d="M157.78,450.382l1.725-4.542l6.008-2.064l-1.818,4.893l-4.87,1.678l-2.394,6.478
			c0.059,0.294,0.293,0.528,0.293,0.528l-0.152,0.152l-1.62-1.619l0.153-0.152c0,0,0.246,0.246,0.54,0.305l1.995-5.28l-5.409,1.937
			c0.012,0.34,0.387,0.551,0.387,0.551l-0.152,0.153l-1.173-1.174l0.164-0.141c0,0,0.211,0.234,0.493,0.305L157.78,450.382z
			 M162.685,448.738l1.584-4.188l-3.708,1.29L159,450.006L162.685,448.738z"/>
		<path style="fill:#000000;" d="M162.85,463.502l-0.141,0.141l-0.434-0.434l2.934-9.669l5.597,0.646l-1.373-5.48l-10.244,10.244
			c-0.446,0.446,0.141,1.032,0.141,1.032l-0.141,0.142l-0.587-0.587l-0.88-0.88l-0.587-0.587l0.141-0.141
			c0,0,0.563,0.563,1.009,0.164l10.091-10.115c0.258-0.422-0.235-0.915-0.235-0.915l0.141-0.141l0.575,0.575l0.869,0.868
			l0.047,0.023l1.596,6.313l-5.879-0.692l-2.781,8.906C162.651,463.279,162.745,463.396,162.85,463.502z"/>
		<path style="fill:#000000;" d="M182.803,462.614l-9.974,9.974c-0.446,0.446,0.141,1.033,0.141,1.033l-0.141,0.141l-2.053-2.054
			l0.141-0.141c0,0,0.587,0.587,1.033,0.141l9.974-9.974c0.446-0.446-0.141-1.033-0.141-1.033l0.141-0.141l2.053,2.054l-0.141,0.141
			C183.835,462.755,183.249,462.168,182.803,462.614z"/>
		<path style="fill:#000000;" d="M184.319,471.359l3.614-3.614c0.446-0.446-0.141-1.033-0.141-1.033l0.141-0.141l2.053,2.054
			l-0.141,0.141c0,0-0.587-0.587-1.033-0.141l-4.001,4.001l1.068,2.781c0.188,0.07,0.446-0.188,0.446-0.188l0.141,0.141
			l-1.033,1.032l-0.141-0.141c0.176-0.176,0.247-0.34,0.247-0.552l-1.044-2.757l-5.656,5.655c-0.446,0.446,0.153,1.021,0.153,1.021
			l-0.153,0.152l-2.053-2.054l0.152-0.152c0,0,0.575,0.599,1.021,0.152l6.055-6.055l-1.056-2.746
			c-0.141-0.094-0.293-0.035-0.458,0.13l-0.141-0.142l1.021-1.021l0.141,0.141c-0.129,0.129-0.282,0.329-0.293,0.505
			L184.319,471.359z"/>
		<path style="fill:#000000;" d="M183.077,484.01l-2.054-2.054l0.153-0.152c0,0,0.586,0.586,1.032,0.141l9.962-9.962
			c0.446-0.446-0.141-1.033-0.141-1.033l0.141-0.141l2.053,2.054l-0.141,0.141c0,0-0.587-0.587-1.033-0.141l-5.597,5.597
			l-1.009,8.918l-1.021-1.021l0.152-0.153c0.118,0.118,0.387,0.388,0.587,0.188l0.833-7.475l-3.907,3.907
			c-0.446,0.446,0.141,1.032,0.141,1.032L183.077,484.01z"/>
		<path style="fill:#000000;" d="M200.823,480.636l-9.974,9.974c-0.446,0.446,0.141,1.033,0.141,1.033l-0.141,0.141l-2.053-2.054
			l0.141-0.141c0,0,0.587,0.587,1.033,0.141l9.974-9.974c0.446-0.446-0.141-1.033-0.141-1.033l0.141-0.141l2.053,2.054l-0.141,0.141
			C201.856,480.776,201.269,480.189,200.823,480.636z"/>
		<path style="fill:#000000;" d="M208.277,486.915l1.479,1.479l-0.141,0.142c0,0-0.598-0.599-1.044-0.153l-9.974,9.975
			c-0.446,0.445,0.152,1.044,0.152,1.044l-0.141,0.141l-1.479-1.479l3.673-6.301l-6.301,3.673l-1.479-1.479l0.141-0.141
			c0,0,0.586,0.586,1.032,0.141l9.974-9.974c0.434-0.435-0.141-1.033-0.141-1.033l0.141-0.141l1.479,1.479l-3.731,6.359
			L208.277,486.915z M201.213,491.069l3.227-5.573l-8.859,8.858L201.213,491.069z M198.162,497.03l8.906-8.906l-5.562,3.238
			L198.162,497.03z"/>
		<path style="fill:#000000;" d="M212.833,492.646l-9.974,9.974c-0.446,0.446,0.141,1.033,0.141,1.033l-0.141,0.141l-2.053-2.054
			l0.141-0.141c0,0,0.587,0.587,1.033,0.141l9.974-9.974c0.446-0.446-0.141-1.033-0.141-1.033l0.141-0.141l2.053,2.054l-0.141,0.141
			C213.865,492.786,213.278,492.199,212.833,492.646z"/>
		<path style="fill:#000000;" d="M220.293,498.931l1.479,1.479l-0.141,0.142c0,0-0.598-0.599-1.044-0.153l-9.974,9.975
			c-0.446,0.445,0.152,1.044,0.152,1.044l-0.141,0.141l-1.479-1.479l3.673-6.301l-6.301,3.673l-1.479-1.479l0.141-0.141
			c0,0,0.586,0.586,1.032,0.141l9.974-9.974c0.434-0.435-0.141-1.033-0.141-1.033l0.141-0.141l1.479,1.479l-3.731,6.359
			L220.293,498.931z M213.229,503.085l3.227-5.573l-8.859,8.858L213.229,503.085z M210.178,509.046l8.906-8.906l-5.562,3.238
			L210.178,509.046z"/>
		<path style="fill:#000000;" d="M216.781,517.41l-0.152,0.152l-1.173-1.173l0.164-0.142c0,0,0.282,0.282,0.563,0.282l4.447-4.447
			l2.839-5.351l-0.047-3.872l-10.162,10.161c-0.446,0.446,0.141,1.01,0.141,1.01l-0.152,0.152l-2.042-2.042l0.152-0.152
			c0,0,0.599,0.575,1.021,0.152l9.962-9.985c0.446-0.446-0.141-1.033-0.141-1.033l0.141-0.141l1.467,1.467l0.082,4.377l-2.933,5.515
			l-4.494,4.494C216.511,517.141,216.781,517.41,216.781,517.41z"/>
		<path style="fill:#000000;" d="M226.341,513.382l3.614-3.614c0.446-0.446-0.141-1.033-0.141-1.033l0.141-0.141l2.053,2.054
			l-0.141,0.141c0,0-0.587-0.587-1.033-0.141l-4.001,4.001l1.068,2.781c0.188,0.07,0.446-0.188,0.446-0.188l0.141,0.141
			l-1.033,1.032l-0.141-0.141c0.176-0.176,0.246-0.34,0.246-0.552l-1.044-2.757l-5.656,5.655c-0.446,0.446,0.153,1.021,0.153,1.021
			l-0.153,0.152l-2.053-2.054l0.152-0.152c0,0,0.575,0.599,1.021,0.152l6.055-6.055l-1.056-2.746
			c-0.141-0.094-0.293-0.035-0.458,0.13l-0.141-0.142l1.021-1.021l0.141,0.141c-0.129,0.129-0.282,0.329-0.293,0.505
			L226.341,513.382z"/>
		<path style="fill:#000000;" d="M237,515.648v5.28l-1,0.586v-4.411l-9.329,9.539c-0.446,0.446,0.258,1.045,0.258,1.045
			l-0.088,0.141l-2.039-2.065l0.154-0.141c0,0,0.593,0.587,1.039,0.141l9.484-9.48l-4.633,0.246l0.583-0.587L237,515.648z"/>
		<path style="fill:#000000;" d="M240.671,541.3l-0.152,0.152l-1.173-1.173l0.164-0.142c0,0,0.282,0.282,0.563,0.282l4.447-4.447
			l2.839-5.351l-0.047-3.872l-10.162,10.161c-0.446,0.446,0.141,1.01,0.141,1.01l-0.152,0.152l-2.042-2.042l0.152-0.152
			c0,0,0.599,0.575,1.021,0.152l9.962-9.985c0.446-0.446-0.141-1.033-0.141-1.033l0.141-0.141l1.467,1.467l0.082,4.377l-2.933,5.515
			l-4.494,4.494C240.402,541.03,240.671,541.3,240.671,541.3z"/>
		<path style="fill:#000000;" d="M255,533.529v5.28l-1,0.586v-4.411l-9.389,9.539c-0.445,0.446,0.229,1.045,0.229,1.045
			l-0.104,0.141l-2.046-2.065l0.15-0.141c0,0,0.591,0.587,1.037,0.141l9.483-9.48l-4.633,0.246l0.642-0.587L255,533.529z"/>
		<path style="fill:#000000;" d="M254.871,555.781l-2.054-2.054l0.141-0.141c0,0,0.586,0.586,1.032,0.141l9.974-9.974
			c0.446-0.446-0.153-1.021-0.153-1.021l0.141-0.141l1.467,1.467l1.76,6.148l-0.88,0.88l-0.141-0.141
			c0.364-0.363,0.586-0.892,0.434-1.326l-1.525-5.21l-10.197,10.197c-0.446,0.446,0.141,1.032,0.141,1.032L254.871,555.781z"/>
		<path style="fill:#000000;" d="M261.038,561.666l-0.141,0.142l-2.065-2.065l0.141-0.141c0,0,0.586,0.586,1.032,0.141l9.974-9.975
			c0.434-0.434-0.153-1.021-0.153-1.021l0.141-0.141l1.479,1.479l1.748,6.137l-1.021,1.021l-0.141-0.141
			c0.329-0.328,0.704-1.149,0.587-1.455l-1.502-5.233l-3.039,3.039l1.748,6.138l-1.032,1.032l-0.141-0.141
			c0.317-0.317,0.704-1.174,0.587-1.479l-1.514-5.245l-6.853,6.853c-0.446,0.446,0.152,1.044,0.152,1.044L261.038,561.666z"/>
		<path style="fill:#000000;" d="M264.818,565.752l0.141-0.141c0,0,0.586,0.586,1.032,0.141l9.974-9.974
			c0.434-0.435-0.141-1.033-0.141-1.033l0.141-0.141l1.467,1.467l1.783,6.172l-0.34,0.341l-7.017-0.939l1.784,6.173l-0.34,0.34
			l-7.017-0.938L264.818,565.752z M266.579,566.925l6.618,0.845l-1.666-5.796L266.579,566.925z M272.176,561.328l6.594,0.845
			l-1.666-5.773L272.176,561.328z"/>
		<path style="fill:#000000;" d="M277.473,570.075l1.725-4.542l6.008-2.064l-1.818,4.893l-4.87,1.678l-2.394,6.478
			c0.059,0.294,0.293,0.528,0.293,0.528l-0.152,0.152l-1.62-1.619l0.153-0.152c0,0,0.246,0.246,0.54,0.305l1.995-5.28l-5.409,1.937
			c0.012,0.34,0.387,0.551,0.387,0.551l-0.152,0.153l-1.173-1.174l0.164-0.141c0,0,0.211,0.234,0.493,0.305L277.473,570.075z
			 M282.377,568.432l1.584-4.188l-3.708,1.29l-1.561,4.166L282.377,568.432z"/>
		<path style="fill:#000000;" d="M282.55,583.201l-0.141,0.141l-0.434-0.434l2.934-9.669l5.597,0.646l-1.373-5.48l-10.244,10.244
			c-0.446,0.446,0.141,1.032,0.141,1.032l-0.141,0.142l-0.587-0.587l-0.88-0.88l-0.587-0.587l0.141-0.141
			c0,0,0.563,0.563,1.009,0.164l10.091-10.115c0.258-0.422-0.235-0.915-0.235-0.915l0.141-0.141l0.575,0.575l0.869,0.868
			l0.047,0.023l1.596,6.313l-5.879-0.692l-2.781,8.906C282.351,582.979,282.444,583.096,282.55,583.201z"/>
		<path style="fill:#000000;" d="M298.09,576.729l1.467,1.467l-0.141,0.142c0,0-0.493-0.493-0.915-0.235l-10.091,10.068
			c-0.446,0.445,0.141,1.032,0.141,1.032l-0.141,0.141l-2.053-2.054l0.141-0.141c0,0,0.586,0.587,1.033,0.141l9.657-9.703
			l-4.963,2.358l2.358-4.987l-9.692,9.692c-0.446,0.446,0.141,1.032,0.141,1.032l-0.141,0.142l-2.054-2.054l0.141-0.141
			c0,0,0.586,0.586,1.032,0.141l10.068-10.092c0.258-0.422-0.235-0.915-0.235-0.915l0.141-0.141l1.467,1.467l-0.129,0.129
			l-2.511,5.14l5.163-2.511L298.09,576.729z"/>
		<path style="fill:#000000;" d="M309.972,588.609l1.467,1.467l-0.141,0.142c0,0-0.493-0.493-0.915-0.235l-10.091,10.068
			c-0.446,0.445,0.141,1.032,0.141,1.032l-0.141,0.141l-2.053-2.054l0.141-0.141c0,0,0.586,0.587,1.033,0.141l9.657-9.703
			l-4.963,2.358l2.358-4.987l-9.692,9.692c-0.446,0.446,0.141,1.032,0.141,1.032l-0.141,0.142l-2.054-2.054l0.141-0.141
			c0,0,0.586,0.586,1.032,0.141l10.068-10.092c0.258-0.422-0.235-0.915-0.235-0.915l0.141-0.141l1.467,1.467l-0.129,0.129
			l-2.511,5.14l5.163-2.511L309.972,588.609z"/>
		<path style="fill:#000000;" d="M315,593.301v5.28l-1,0.586v-4.411l-9.503,9.539c-0.445,0.446,0.172,1.045,0.172,1.045
			l-0.132,0.141l-2.061-2.065l0.143-0.141c0,0,0.588,0.587,1.034,0.141l9.481-9.48l-4.635,0.246l0.756-0.587L315,593.301z"/>
		<path style="fill:#000000;" d="M327.85,606.488l1.479,1.479l-0.141,0.142c0,0-0.598-0.599-1.044-0.153l-9.974,9.975
			c-0.446,0.445,0.152,1.044,0.152,1.044l-0.141,0.141l-1.479-1.479l3.673-6.301l-6.301,3.673l-1.479-1.479l0.141-0.141
			c0,0,0.586,0.586,1.032,0.141l9.974-9.974c0.434-0.435-0.141-1.033-0.141-1.033l0.141-0.141l1.479,1.479l-3.731,6.359
			L327.85,606.488z M320.786,610.643l3.227-5.573l-8.859,8.858L320.786,610.643z M317.735,616.604l8.906-8.906l-5.562,3.238
			L317.735,616.604z"/>
		<path style="fill:#000000;" d="M325.228,617.831l1.725-4.542l6.008-2.064l-1.818,4.893l-4.87,1.678l-2.394,6.478
			c0.059,0.294,0.293,0.528,0.293,0.528l-0.152,0.152l-1.62-1.619l0.153-0.152c0,0,0.246,0.246,0.54,0.305l1.995-5.28l-5.409,1.937
			c0.012,0.34,0.387,0.551,0.387,0.551l-0.152,0.153l-1.173-1.174l0.164-0.141c0,0,0.211,0.234,0.493,0.305L325.228,617.831z
			 M330.133,616.188l1.584-4.188l-3.708,1.29l-1.561,4.166L330.133,616.188z"/>
		<path style="fill:#000000;" d="M326.681,627.591l-2.054-2.054l0.141-0.141c0,0,0.586,0.586,1.032,0.141l9.974-9.975
			c0.446-0.445-0.153-1.021-0.153-1.021l0.141-0.141l1.467,1.467l1.76,6.148l-0.88,0.88l-0.141-0.141
			c0.364-0.363,0.586-0.892,0.434-1.326l-1.525-5.21l-10.197,10.197c-0.446,0.446,0.141,1.032,0.141,1.032L326.681,627.591z"/>
		<path style="fill:#000000;" d="M337.25,629.854l1.725-4.541l6.008-2.065l-1.818,4.893l-4.87,1.679l-2.394,6.477
			c0.059,0.294,0.293,0.528,0.293,0.528l-0.152,0.152l-1.62-1.619l0.153-0.152c0,0,0.246,0.246,0.54,0.305l1.995-5.28l-5.409,1.937
			c0.012,0.34,0.387,0.551,0.387,0.551l-0.152,0.153l-1.173-1.174l0.164-0.141c0,0,0.211,0.234,0.493,0.305L337.25,629.854z
			 M342.155,628.21l1.584-4.188l-3.708,1.291l-1.561,4.165L342.155,628.21z"/>
		<path style="fill:#000000;" d="M342.328,642.979l-0.141,0.141l-0.434-0.434l2.934-9.669l5.597,0.646l-1.373-5.48l-10.244,10.244
			c-0.446,0.446,0.141,1.032,0.141,1.032l-0.141,0.142l-0.587-0.587l-0.88-0.88l-0.587-0.587l0.141-0.141
			c0,0,0.563,0.563,1.009,0.164l10.091-10.115c0.258-0.422-0.235-0.915-0.235-0.915l0.141-0.141l0.575,0.575l0.869,0.868
			l0.047,0.023l1.596,6.313l-5.879-0.692l-2.781,8.906C342.129,642.757,342.223,642.874,342.328,642.979z"/>
		<path style="fill:#000000;" d="M357.873,636.511l1.467,1.467l-0.141,0.142c0,0-0.493-0.493-0.915-0.235l-10.091,10.068
			c-0.446,0.445,0.141,1.032,0.141,1.032l-0.141,0.141l-2.053-2.054l0.141-0.141c0,0,0.586,0.587,1.033,0.141l9.657-9.703
			l-4.963,2.358l2.358-4.987l-9.692,9.692c-0.446,0.446,0.141,1.032,0.141,1.032l-0.141,0.142l-2.054-2.054l0.141-0.141
			c0,0,0.586,0.586,1.032,0.141l10.068-10.092c0.258-0.422-0.235-0.915-0.235-0.915l0.141-0.141l1.467,1.467L355.104,634
			l-2.511,5.14l5.163-2.511L357.873,636.511z"/>
		<path style="fill:#000000;" d="M369.758,648.373l1.479,1.479l-0.153,0.153c0,0-0.458-0.458-0.892-0.306l-10.103,10.127
			c-0.446,0.445,0.141,1.032,0.141,1.032l-0.141,0.141l-2.053-2.054l0.141-0.141c0,0,0.575,0.575,1.021,0.129l2.358-2.335
			l2.335-4.986l-4.975,2.347l-2.347,2.347c-0.446,0.446,0.141,1.032,0.141,1.032l-0.141,0.142l-2.054-2.054l0.141-0.141
			c0,0,0.575,0.574,1.021,0.129l10.068-10.068c0.2-0.48-0.234-0.915-0.234-0.915l0.152-0.152l1.467,1.467l-2.464,5.093
			L369.758,648.373z M364.185,651.014l2.053-4.377l-6.454,6.454L364.185,651.014z M368.843,649.289l-4.341,2.041l-2.065,4.389
			L368.843,649.289z"/>
		<path style="fill:#000000;" d="M362.712,663.341l-0.141,0.142l-2.065-2.065l0.141-0.141c0,0,0.586,0.586,1.032,0.141l9.974-9.974
			c0.434-0.435-0.153-1.021-0.153-1.021l0.141-0.141l1.479,1.479l1.748,6.137l-1.021,1.021l-0.141-0.141
			c0.329-0.328,0.704-1.149,0.587-1.455l-1.502-5.233l-3.039,3.039l1.748,6.138l-1.032,1.032l-0.141-0.141
			c0.317-0.317,0.704-1.174,0.587-1.479l-1.514-5.245l-6.853,6.853c-0.446,0.446,0.152,1.044,0.152,1.044L362.712,663.341z"/>
		<path style="fill:#000000;" d="M382.573,661.704l-3.884,1.584l-1.561,3.345l-3.391,1.842l-1.807,3.896
			c0.07,0.259,0.281,0.493,0.281,0.493l-0.141,0.141l-1.76-1.76l0.141-0.141c0,0,0.305,0.281,0.645,0.293l2.91-6.219l-6.489,2.64
			c0.012,0.341,0.293,0.646,0.293,0.646l-0.141,0.141l-1.173-1.173l0.141-0.141c0,0,0.234,0.211,0.516,0.281l3.825-1.549
			l1.667-3.591l3.555-1.936l1.607-3.438c-0.012-0.34-0.305-0.634-0.305-0.634l0.141-0.141l1.76,1.76l-0.141,0.141
			c0,0-0.293-0.293-0.634-0.305l-2.863,6.195l6.442-2.616c-0.012-0.341-0.305-0.634-0.305-0.634l0.141-0.141l1.173,1.173
			l-0.141,0.142C383.078,661.998,382.855,661.774,382.573,661.704z M374.23,664.696l1.701-3.626l-2.03,1.092l-1.525,3.285
			L374.23,664.696z M377.281,663.852l-1.737,0.704l-1.537,3.344l1.877-1.009L377.281,663.852z"/>
		<path style="fill:#000000;" d="M381.808,668.848l3.614-3.614c0.446-0.446-0.141-1.033-0.141-1.033l0.141-0.141l2.053,2.054
			l-0.141,0.141c0,0-0.587-0.587-1.033-0.141l-4.001,4.001l1.068,2.781c0.188,0.07,0.446-0.188,0.446-0.188l0.141,0.141
			l-1.033,1.032l-0.141-0.141c0.176-0.176,0.247-0.34,0.247-0.552l-1.044-2.757l-5.656,5.655c-0.446,0.446,0.153,1.021,0.153,1.021
			l-0.153,0.152l-2.053-2.054l0.152-0.152c0,0,0.575,0.599,1.021,0.152l6.055-6.055l-1.056-2.746
			c-0.141-0.094-0.293-0.035-0.458,0.13l-0.141-0.142l1.021-1.021l0.141,0.141c-0.129,0.129-0.282,0.329-0.293,0.505
			L381.808,668.848z"/>
		<path style="fill:#000000;" d="M380.747,681.374l-0.141,0.142l-2.065-2.065l0.141-0.141c0,0,0.586,0.586,1.032,0.141l9.974-9.974
			c0.434-0.435-0.153-1.021-0.153-1.021l0.141-0.141l1.479,1.479l1.748,6.137l-1.021,1.021l-0.141-0.141
			c0.329-0.328,0.704-1.149,0.587-1.455l-1.502-5.233l-3.039,3.039l1.748,6.138l-1.032,1.032l-0.141-0.141
			c0.317-0.317,0.704-1.174,0.587-1.479l-1.514-5.245l-6.853,6.853c-0.446,0.446,0.152,1.044,0.152,1.044L380.747,681.374z"/>
		<path style="fill:#000000;" d="M392.611,693.238l-0.141,0.142l-2.065-2.065l0.141-0.141c0,0,0.586,0.586,1.032,0.141l9.974-9.975
			c0.435-0.434-0.152-1.021-0.152-1.021l0.141-0.141l1.479,1.479l1.749,6.137l-1.021,1.021l-0.141-0.141
			c0.329-0.328,0.704-1.149,0.587-1.455l-1.502-5.233l-3.039,3.039l1.748,6.138l-1.032,1.032l-0.141-0.141
			c0.317-0.317,0.704-1.174,0.587-1.479l-1.514-5.245l-6.853,6.853c-0.446,0.446,0.152,1.044,0.152,1.044L392.611,693.238z"/>
		<path style="fill:#000000;" d="M408.151,691.759l-2.054,2.053l-0.141-0.141c0,0,0.586-0.587,0.141-1.032l-9.974-9.974
			c-0.446-0.446-1.021,0.152-1.021,0.152l-0.141-0.141l1.467-1.467l6.148-1.761l0.88,0.88l-0.141,0.142
			c-0.363-0.364-0.892-0.587-1.326-0.435l-5.209,1.525l10.197,10.197c0.446,0.445,1.032-0.142,1.032-0.142L408.151,691.759z"/>
		<path style="fill:#000000;" d="M404.798,674.014l9.974,9.974c0.446,0.446,1.033-0.141,1.033-0.141l0.141,0.141l-2.054,2.054
			l-0.141-0.141c0,0,0.587-0.587,0.141-1.032l-9.974-9.975c-0.446-0.445-1.033,0.141-1.033,0.141l-0.141-0.141l2.054-2.054
			l0.141,0.142C404.938,672.981,404.352,673.567,404.798,674.014z"/>
		<path style="fill:#000000;" d="M411.99,665.648l0.586-0.587l0.142,0.141c0,0-0.587,0.587-0.142,1.033l10.01,10.032l-0.035-0.059
			c0.445,0.446,1.032-0.141,1.032-0.141l0.141,0.141l-0.61,0.61l-0.868,0.868l-0.587,0.587l-0.141-0.141
			c0,0,0.505-0.505,0.247-0.928l-5.128-5.128l-7.146,0.764l1.607-6.302l0.739-0.739L411.99,665.648z M411.438,666.881l-1.396,5.456
			l6.207-0.646L411.438,666.881z"/>
		<path style="fill:#000000;" d="M429.578,670.05l0.152,0.152l-1.173,1.174l-0.142-0.165c0,0,0.282-0.281,0.282-0.563l-4.447-4.447
			l-5.351-2.84l-3.872,0.047l10.161,10.161c0.446,0.446,1.01-0.141,1.01-0.141l0.152,0.152l-2.042,2.042l-0.152-0.152
			c0,0,0.575-0.599,0.152-1.021l-9.985-9.963c-0.446-0.445-1.033,0.142-1.033,0.142l-0.141-0.142l1.467-1.467l4.377-0.082
			l5.515,2.934l4.494,4.494C429.309,670.319,429.578,670.05,429.578,670.05z"/>
		<path style="fill:#000000;" d="M432.056,667.571l0.142,0.142l-2.065,2.064l-0.141-0.141c0,0,0.586-0.587,0.141-1.032l-9.974-9.974
			c-0.435-0.435-1.021,0.152-1.021,0.152l-0.141-0.141l1.479-1.479l6.137-1.749l1.021,1.021l-0.141,0.141
			c-0.328-0.329-1.149-0.704-1.455-0.587l-5.233,1.502l3.039,3.039l6.138-1.748l1.032,1.032l-0.141,0.141
			c-0.317-0.316-1.174-0.704-1.479-0.586l-5.245,1.514l6.853,6.853c0.446,0.445,1.044-0.153,1.044-0.153L432.056,667.571z"/>
		<path style="fill:#000000;" d="M453.46,646.168l0.152,0.152l-1.173,1.174l-0.142-0.165c0,0,0.282-0.281,0.282-0.563l-4.447-4.447
			l-5.351-2.84l-3.872,0.047l10.161,10.161c0.446,0.446,1.01-0.141,1.01-0.141l0.152,0.152l-2.042,2.042l-0.152-0.152
			c0,0,0.575-0.599,0.152-1.021l-9.985-9.963c-0.446-0.445-1.033,0.142-1.033,0.142l-0.141-0.142l1.467-1.467l4.377-0.082
			l5.515,2.934l4.494,4.494C453.19,646.438,453.46,646.168,453.46,646.168z"/>
		<path style="fill:#000000;" d="M445.667,632h5.28l0.586,1h-4.411l9.539,9.318c0.446,0.446,1.045-0.263,1.045-0.263l0.141,0.085
			l-2.065,2.038l-0.141-0.154c0,0,0.587-0.594,0.141-1.039l-9.48-9.485l0.246,4.634l-0.587-0.574L445.667,632z"/>
		<path style="fill:#000000;" d="M458.863,618.774l1.467-1.467l0.142,0.141c0,0-0.493,0.493-0.235,0.916l10.068,10.091
			c0.445,0.446,1.032-0.141,1.032-0.141l0.141,0.141l-2.054,2.054l-0.141-0.141c0,0,0.587-0.587,0.141-1.033l-9.703-9.657
			l2.358,4.964l-4.987-2.358l9.692,9.692c0.446,0.445,1.032-0.142,1.032-0.142l0.142,0.142l-2.054,2.053l-0.141-0.141
			c0,0,0.586-0.587,0.141-1.032l-10.092-10.068c-0.422-0.258-0.915,0.235-0.915,0.235l-0.141-0.141l1.467-1.467l0.129,0.129
			l5.14,2.511l-2.511-5.163L458.863,618.774z"/>
		<path style="fill:#000000;" d="M467.301,618.739l-3.614-3.614c-0.446-0.445-1.033,0.141-1.033,0.141l-0.141-0.141l2.054-2.053
			l0.141,0.141c0,0-0.587,0.586-0.141,1.032l4.001,4.001l2.781-1.067c0.07-0.188-0.188-0.446-0.188-0.446l0.141-0.141l1.032,1.033
			l-0.141,0.141c-0.176-0.176-0.34-0.247-0.552-0.247l-2.757,1.045l5.655,5.655c0.446,0.446,1.021-0.152,1.021-0.152l0.152,0.152
			l-2.054,2.054l-0.152-0.152c0,0,0.599-0.575,0.152-1.021l-6.055-6.056l-2.746,1.057c-0.094,0.141-0.035,0.293,0.13,0.457
			l-0.142,0.142l-1.021-1.021l0.141-0.141c0.129,0.129,0.329,0.281,0.505,0.293L467.301,618.739z"/>
		<path style="fill:#000000;" d="M470.583,608.229l9.974,9.974c0.446,0.446,1.033-0.141,1.033-0.141l0.141,0.141l-2.054,2.054
			l-0.141-0.141c0,0,0.587-0.587,0.141-1.032l-9.974-9.975c-0.446-0.445-1.033,0.141-1.033,0.141l-0.141-0.141l2.054-2.054
			l0.141,0.142C470.724,607.196,470.137,607.782,470.583,608.229z"/>
		<path style="fill:#000000;" d="M476.871,600.743l1.479-1.479l0.153,0.152c0,0-0.458,0.458-0.306,0.893l10.127,10.103
			c0.445,0.446,1.032-0.141,1.032-0.141l0.141,0.141l-2.054,2.054l-0.141-0.141c0,0,0.575-0.575,0.129-1.021l-2.335-2.358
			l-4.986-2.335l2.347,4.976l2.347,2.347c0.446,0.445,1.032-0.142,1.032-0.142l0.142,0.142l-2.054,2.053l-0.141-0.141
			c0,0,0.574-0.575,0.129-1.021l-10.068-10.068c-0.48-0.199-0.915,0.235-0.915,0.235l-0.152-0.152l1.467-1.467l5.093,2.464
			L476.871,600.743z M479.512,606.317l-4.377-2.054l6.454,6.453L479.512,606.317z M477.787,601.658l2.041,4.342l4.389,2.065
			L477.787,601.658z"/>
		<path style="fill:#000000;" d="M497.7,601.927l0.142,0.142l-2.065,2.064l-0.141-0.141c0,0,0.586-0.587,0.141-1.032l-9.974-9.974
			c-0.435-0.435-1.021,0.152-1.021,0.152l-0.141-0.141l1.479-1.479l6.137-1.749l1.021,1.021l-0.141,0.141
			c-0.328-0.329-1.149-0.704-1.455-0.587l-5.233,1.502l3.039,3.039l6.138-1.748l1.032,1.032l-0.141,0.141
			c-0.317-0.316-1.174-0.704-1.479-0.586l-5.245,1.514l6.853,6.853c0.446,0.445,1.044-0.153,1.044-0.153L497.7,601.927z"/>
		<path style="fill:#000000;" d="M494.754,582.884l1.479-1.479l0.142,0.141c0,0-0.599,0.599-0.153,1.045l9.975,9.974
			c0.445,0.446,1.044-0.152,1.044-0.152l0.141,0.141l-1.479,1.479l-6.301-3.673l3.673,6.301l-1.479,1.479l-0.141-0.141
			c0,0,0.586-0.587,0.141-1.032l-9.974-9.974c-0.435-0.435-1.033,0.141-1.033,0.141l-0.141-0.141l1.479-1.479l6.359,3.731
			L494.754,582.884z M498.908,589.948l-5.573-3.228l8.858,8.859L498.908,589.948z M504.869,592.999l-8.906-8.906l3.238,5.562
			L504.869,592.999z"/>
		<path style="fill:#000000;" d="M506.611,571.003l1.479-1.479l0.153,0.152c0,0-0.458,0.458-0.306,0.893l10.127,10.103
			c0.445,0.446,1.032-0.141,1.032-0.141l0.141,0.141l-2.054,2.054l-0.141-0.141c0,0,0.575-0.575,0.129-1.021l-2.335-2.358
			l-4.986-2.335l2.347,4.976l2.347,2.347c0.446,0.445,1.032-0.142,1.032-0.142l0.142,0.142l-2.054,2.053l-0.141-0.141
			c0,0,0.574-0.575,0.129-1.021l-10.068-10.068c-0.48-0.199-0.915,0.235-0.915,0.235l-0.152-0.152l1.467-1.467l5.093,2.464
			L506.611,571.003z M509.252,576.577l-4.377-2.054l6.454,6.453L509.252,576.577z M507.527,571.918l2.041,4.342l4.389,2.065
			L507.527,571.918z"/>
		<path style="fill:#000000;" d="M512.327,566.484l9.974,9.974c0.446,0.446,1.033-0.141,1.033-0.141l0.141,0.141l-2.054,2.054
			l-0.141-0.141c0,0,0.587-0.587,0.141-1.032l-9.974-9.975c-0.446-0.445-1.033,0.141-1.033,0.141l-0.141-0.141l2.054-2.054
			l0.141,0.142C512.468,565.452,511.881,566.038,512.327,566.484z"/>
		<path style="fill:#000000;" d="M521.073,564.967l-3.614-3.614c-0.446-0.445-1.033,0.141-1.033,0.141l-0.141-0.141l2.054-2.054
			l0.141,0.142c0,0-0.587,0.586-0.141,1.032l4.001,4.001l2.781-1.067c0.07-0.188-0.188-0.446-0.188-0.446l0.141-0.141l1.032,1.033
			l-0.141,0.141c-0.176-0.176-0.34-0.247-0.552-0.247l-2.757,1.045l5.655,5.655c0.446,0.446,1.021-0.152,1.021-0.152l0.152,0.152
			l-2.054,2.054l-0.152-0.152c0,0,0.599-0.575,0.152-1.021l-6.055-6.056l-2.746,1.057c-0.094,0.141-0.035,0.293,0.13,0.457
			l-0.142,0.142l-1.021-1.021l0.141-0.141c0.129,0.129,0.329,0.281,0.505,0.294L521.073,564.967z"/>
		<path style="fill:#000000;" d="M524.354,554.458l9.974,9.974c0.446,0.446,1.033-0.141,1.033-0.141l0.141,0.141l-2.054,2.054
			l-0.141-0.141c0,0,0.587-0.587,0.141-1.032l-9.974-9.975c-0.446-0.445-1.033,0.141-1.033,0.141l-0.141-0.141l2.054-2.053
			l0.141,0.141C524.494,553.426,523.907,554.012,524.354,554.458z"/>
		<path style="fill:#000000;" d="M530.643,546.972l1.479-1.479l0.153,0.152c0,0-0.458,0.458-0.306,0.893l10.127,10.103
			c0.445,0.446,1.032-0.141,1.032-0.141l0.141,0.141l-2.054,2.054l-0.141-0.141c0,0,0.575-0.575,0.129-1.021l-2.335-2.358
			l-4.986-2.335l2.347,4.976l2.347,2.347c0.446,0.445,1.032-0.142,1.032-0.142l0.142,0.142l-2.054,2.053l-0.141-0.141
			c0,0,0.574-0.575,0.129-1.021l-10.068-10.068c-0.48-0.199-0.915,0.235-0.915,0.235l-0.152-0.152l1.467-1.467l5.093,2.464
			L530.643,546.972z M533.283,552.546l-4.377-2.054l6.454,6.453L533.283,552.546z M531.559,547.887l2.041,4.342l4.389,2.065
			L531.559,547.887z"/>
		<path style="fill:#000000;" d="M546.206,536.125l0.692,0.692l0.329,0.329l-1.772,6.184l3.051,3.051l1.549-5.397
			c-0.047-0.446-0.293-1.021-0.621-1.35l0.141-0.141l0.704,0.704l0.328,0.328l-1.771,6.185l1.607,1.607
			c0.446,0.445,1.032-0.142,1.032-0.142l0.142,0.142l-2.054,2.053l-0.141-0.141c0,0,0.586-0.587,0.141-1.032l-9.974-9.974
			c-0.446-0.446-1.021,0.152-1.021,0.152l-0.141-0.141l2.054-2.054l0.141,0.141c0,0-0.599,0.575-0.152,1.021l4.658,4.659l1.561-5.41
			c-0.047-0.445-0.305-1.009-0.622-1.325L546.206,536.125z"/>
		<path style="fill:#000000;" d="M548.528,529.109l1.467-1.467l0.142,0.141c0,0-0.493,0.493-0.235,0.916l10.068,10.091
			c0.445,0.446,1.032-0.141,1.032-0.141l0.141,0.141l-2.054,2.054l-0.141-0.141c0,0,0.587-0.587,0.141-1.033l-9.703-9.657
			l2.358,4.964l-4.987-2.358l9.692,9.692c0.446,0.445,1.032-0.141,1.032-0.141l0.142,0.141l-2.054,2.053l-0.141-0.141
			c0,0,0.586-0.587,0.141-1.032l-10.092-10.068c-0.422-0.258-0.915,0.235-0.915,0.235l-0.141-0.141l1.467-1.467l0.129,0.129
			l5.14,2.511l-2.511-5.163L548.528,529.109z"/>
		<path style="fill:#000000;" d="M556.979,529.062l-3.614-3.614c-0.446-0.445-1.033,0.141-1.033,0.141l-0.141-0.141l2.054-2.053
			l0.141,0.141c0,0-0.587,0.586-0.141,1.032l4.001,4.001l2.781-1.067c0.07-0.188-0.188-0.446-0.188-0.446l0.141-0.141l1.032,1.033
			l-0.141,0.141c-0.176-0.176-0.34-0.247-0.552-0.247l-2.757,1.045l5.655,5.655c0.446,0.446,1.021-0.152,1.021-0.152l0.152,0.152
			l-2.054,2.054l-0.152-0.152c0,0,0.599-0.575,0.152-1.021l-6.055-6.056l-2.746,1.057c-0.094,0.141-0.035,0.293,0.13,0.457
			l-0.142,0.142L553.505,530l0.141-0.141c0.129,0.129,0.329,0.281,0.505,0.293L556.979,529.062z"/>
		<path style="fill:#000000;" d="M560.244,518.567l9.974,9.974c0.446,0.446,1.033-0.141,1.033-0.141l0.141,0.141l-2.054,2.054
			l-0.141-0.141c0,0,0.587-0.587,0.141-1.032l-9.974-9.975c-0.446-0.445-1.033,0.141-1.033,0.141l-0.141-0.141l2.054-2.053
			l0.141,0.141C560.385,517.535,559.798,518.121,560.244,518.567z"/>
		<path style="fill:#000000;" d="M575.487,524.14l0.142,0.142l-2.065,2.064l-0.141-0.141c0,0,0.586-0.587,0.141-1.032l-9.974-9.974
			c-0.435-0.435-1.021,0.152-1.021,0.152l-0.141-0.141l1.479-1.479l6.137-1.749l1.021,1.021l-0.141,0.141
			c-0.328-0.329-1.149-0.704-1.455-0.587l-5.233,1.502l3.039,3.039l6.138-1.748l1.032,1.032l-0.141,0.141
			c-0.317-0.316-1.174-0.704-1.479-0.586l-5.245,1.514l6.853,6.853c0.446,0.445,1.044-0.153,1.044-0.153L575.487,524.14z"/>
		<path style="fill:#000000;" d="M572.548,505.066l1.479-1.479l0.153,0.152c0,0-0.458,0.458-0.306,0.893l10.127,10.103
			c0.445,0.446,1.032-0.141,1.032-0.141l0.141,0.141l-2.054,2.054l-0.141-0.141c0,0,0.575-0.575,0.129-1.021l-2.335-2.358
			l-4.986-2.335l2.347,4.976l2.347,2.347c0.446,0.445,1.032-0.142,1.032-0.142l0.142,0.142l-2.054,2.053l-0.141-0.141
			c0,0,0.574-0.575,0.129-1.021l-10.068-10.068c-0.48-0.199-0.915,0.235-0.915,0.235l-0.152-0.152l1.467-1.467l5.093,2.464
			L572.548,505.066z M575.188,510.641l-4.377-2.054l6.454,6.453L575.188,510.641z M573.464,505.981l2.041,4.342l4.389,2.065
			L573.464,505.981z"/>
		<path style="fill:#000000;" d="M591.326,486.313l0.586-0.587l0.142,0.141c0,0-0.587,0.587-0.142,1.033l10.01,10.032l-0.035-0.059
			c0.445,0.446,1.032-0.141,1.032-0.141l0.141,0.141l-0.61,0.61l-0.868,0.868l-0.587,0.587l-0.141-0.141
			c0,0,0.505-0.505,0.247-0.928l-5.128-5.128l-7.146,0.764l1.607-6.302l0.739-0.739L591.326,486.313z M590.774,487.545l-1.396,5.456
			l6.207-0.646L590.774,487.545z"/>
		<path style="fill:#000000;" d="M608.91,490.718l0.152,0.152l-1.173,1.174l-0.142-0.165c0,0,0.282-0.281,0.282-0.563l-4.447-4.447
			l-5.351-2.84l-3.872,0.047l10.161,10.161c0.446,0.446,1.01-0.141,1.01-0.141l0.152,0.152l-2.042,2.042l-0.152-0.152
			c0,0,0.575-0.599,0.152-1.021l-9.985-9.963c-0.446-0.445-1.033,0.142-1.033,0.142l-0.141-0.142l1.467-1.467l4.377-0.082
			l5.515,2.934l4.494,4.494C608.641,490.987,608.91,490.718,608.91,490.718z"/>
		<path style="fill:#000000;" d="M602.154,476.657l9.974,9.974c0.446,0.446,1.033-0.141,1.033-0.141l0.141,0.141l-2.054,2.054
			l-0.141-0.141c0,0,0.587-0.587,0.141-1.032l-9.974-9.975c-0.446-0.445-1.033,0.141-1.033,0.141l-0.141-0.141l2.054-2.053
			l0.141,0.141C602.295,475.625,601.708,476.211,602.154,476.657z"/>
		<path style="fill:#000000;" d="M620.923,478.729l0.141,0.141l-2.054,2.054l-0.141-0.141c0,0,0.587-0.587,0.129-1.021l-5.562-5.585
			l-1.619,5.421l-6.301-6.301c-0.446-0.446-1.021,0.152-1.021,0.152l-0.141-0.141l2.054-2.054l0.141,0.141
			c0,0-0.599,0.575-0.152,1.021l5.433,5.434l1.607-5.434l6.454,6.454C620.336,479.315,620.923,478.729,620.923,478.729z"/>
		<path style="fill:#000000;" d="M622.754,463.286l-3.614-3.614c-0.446-0.445-1.033,0.141-1.033,0.141l-0.141-0.141l2.054-2.053
			l0.141,0.141c0,0-0.587,0.586-0.141,1.032l4.001,4.001l2.781-1.067c0.07-0.188-0.188-0.446-0.188-0.446l0.141-0.141l1.032,1.033
			l-0.141,0.141c-0.176-0.176-0.34-0.247-0.552-0.247l-2.757,1.045l5.655,5.655c0.446,0.446,1.021-0.152,1.021-0.152l0.152,0.152
			l-2.054,2.054l-0.152-0.152c0,0,0.599-0.575,0.152-1.021l-6.055-6.056l-2.746,1.057c-0.094,0.141-0.035,0.293,0.13,0.457
			l-0.142,0.142l-1.021-1.021l0.141-0.141c0.129,0.129,0.329,0.281,0.505,0.293L622.754,463.286z"/>
		<path style="fill:#000000;" d="M631.673,459.93l-4.542-1.726l-2.064-6.008l4.893,1.819l1.678,4.869l6.478,2.394
			c0.294-0.059,0.528-0.293,0.528-0.293l0.152,0.152l-1.619,1.619l-0.152-0.152c0,0,0.246-0.246,0.305-0.54l-5.28-1.994l1.937,5.409
			c0.34-0.012,0.551-0.388,0.551-0.388l0.153,0.153l-1.174,1.173l-0.141-0.164c0,0,0.234-0.211,0.305-0.493L631.673,459.93z
			 M630.029,455.024l-4.188-1.584l1.29,3.708l4.166,1.561L630.029,455.024z"/>
		<path style="fill:#000000;" d="M644.799,454.853l0.141,0.141l-2.054,2.054l-0.141-0.141c0,0,0.587-0.587,0.129-1.021l-5.562-5.585
			l-1.619,5.421l-6.301-6.301c-0.446-0.446-1.021,0.152-1.021,0.152l-0.141-0.141l2.054-2.054l0.141,0.141
			c0,0-0.599,0.575-0.152,1.021l5.433,5.434l1.607-5.434l6.454,6.454C644.212,455.439,644.799,454.853,644.799,454.853z"/>
		<path style="fill:#000000;" d="M637.021,441h5.28h0.586h-4.411l9.539,9.642c0.446,0.446,1.045-0.101,1.045-0.101l0.141,0.166
			l-2.065,2.078l-0.141-0.135c0,0,0.587-0.583,0.141-1.028l-9.48-9.48l0.246,4.636l-0.587-0.396L637.021,441z"/>
		<path style="fill:#000000;" d="M656.818,442.833l0.141,0.141l-0.434,0.435l-9.669-2.934l0.646-5.598l-5.48,1.373l10.244,10.244
			c0.446,0.445,1.032-0.141,1.032-0.141l0.142,0.141l-0.587,0.586l-0.88,0.881l-0.587,0.586l-0.141-0.141
			c0,0,0.563-0.563,0.164-1.009l-10.115-10.092c-0.422-0.258-0.915,0.235-0.915,0.235l-0.141-0.141l0.575-0.575l0.868-0.868
			l0.023-0.047l6.313-1.597l-0.692,5.879l8.906,2.781C656.596,443.032,656.713,442.938,656.818,442.833z"/>
		<path style="fill:#000000;" d="M662.817,436.811l0.152,0.152l-1.173,1.174l-0.142-0.165c0,0,0.282-0.281,0.282-0.563l-4.447-4.447
			l-5.351-2.84l-3.872,0.047l10.161,10.161c0.446,0.446,1.01-0.141,1.01-0.141l0.152,0.152l-2.042,2.042l-0.152-0.152
			c0,0,0.575-0.599,0.152-1.021l-9.985-9.963c-0.446-0.445-1.033,0.142-1.033,0.142l-0.141-0.142l1.467-1.467l4.377-0.082
			l5.515,2.934l4.494,4.494C662.548,437.08,662.817,436.811,662.817,436.811z"/>
		<path style="fill:#000000;" d="M656.353,421.285l1.479-1.479l0.142,0.141c0,0-0.599,0.599-0.153,1.045l9.975,9.974
			c0.445,0.446,1.044-0.152,1.044-0.152l0.141,0.141l-1.479,1.479l-6.301-3.673l3.673,6.301l-1.479,1.479l-0.141-0.141
			c0,0,0.586-0.587,0.141-1.032l-9.974-9.974c-0.435-0.435-1.033,0.141-1.033,0.141l-0.141-0.141l1.479-1.479l6.359,3.731
			L656.353,421.285z M660.507,428.35l-5.573-3.228l8.858,8.859L660.507,428.35z M666.468,431.4l-8.906-8.906l3.238,5.562
			L666.468,431.4z"/>
		<path style="fill:#000000;" d="M668.227,409.411l1.467-1.467l0.142,0.141c0,0-0.493,0.493-0.235,0.916l10.068,10.091
			c0.445,0.446,1.032-0.141,1.032-0.141l0.141,0.141l-2.054,2.054l-0.141-0.141c0,0,0.587-0.587,0.141-1.033l-9.703-9.657
			l2.358,4.964l-4.987-2.358l9.692,9.692c0.446,0.445,1.032-0.142,1.032-0.142l0.142,0.142l-2.054,2.053l-0.141-0.141
			c0,0,0.586-0.587,0.141-1.032l-10.092-10.068c-0.422-0.258-0.915,0.235-0.915,0.235l-0.141-0.141l1.467-1.467l0.129,0.129
			l5.14,2.511l-2.511-5.163L668.227,409.411z"/>
		<path style="fill:#000000;" d="M677.273,408.203l-2.3-5.539l0.587-0.587l0.129,0.153c0,0-0.211,0.188-0.293,0.457l2.593,6.23
			l5.926,5.926c0.446,0.446,1.045-0.152,1.045-0.152l0.141,0.141l-2.065,2.065l-0.141-0.141c0,0,0.587-0.587,0.141-1.032
			l-5.926-5.926l-6.184-2.594c-0.281,0.07-0.493,0.306-0.493,0.306l-0.152-0.153l0.587-0.586l5.515,2.3l-3.332-3.333
			c-0.446-0.445-1.021,0.152-1.021,0.152l-0.141-0.141l2.054-2.053l0.141,0.141c0,0-0.599,0.574-0.152,1.021l3.332,3.332
			L677.273,408.203z"/>
		<path style="fill:#000000;" d="M680.229,397.409l1.467-1.467l0.142,0.141c0,0-0.493,0.493-0.235,0.915l10.068,10.091
			c0.445,0.446,1.032-0.141,1.032-0.141l0.141,0.141l-2.054,2.054l-0.141-0.141c0,0,0.587-0.587,0.141-1.033l-9.703-9.657
			l2.358,4.963l-4.987-2.358l9.692,9.692c0.446,0.445,1.032-0.142,1.032-0.142l0.142,0.142l-2.054,2.053l-0.141-0.141
			c0,0,0.586-0.587,0.141-1.032l-10.092-10.068c-0.422-0.258-0.915,0.235-0.915,0.235l-0.141-0.141l1.467-1.467l0.129,0.129
			l5.14,2.511l-2.511-5.163L680.229,397.409z"/>
		<path style="fill:#000000;" d="M699.102,400.55l0.141,0.141l-0.434,0.435l-9.669-2.934l0.646-5.597l-5.48,1.373l10.244,10.244
			c0.446,0.445,1.032-0.141,1.032-0.141l0.142,0.141l-0.587,0.586l-0.88,0.881l-0.587,0.586l-0.141-0.141
			c0,0,0.563-0.563,0.164-1.009l-10.115-10.091c-0.422-0.258-0.915,0.235-0.915,0.235l-0.141-0.141l0.575-0.575l0.868-0.869
			l0.023-0.047l6.313-1.596l-0.692,5.879l8.906,2.781C698.879,400.749,698.996,400.655,699.102,400.55z"/>
		<path style="fill:#000000;" d="M687.802,388.869l2.053,2.053l-0.152,0.153c0,0-0.587-0.587-1.032-0.141l-9.962,9.962
			c-0.446,0.446,0.141,1.033,0.141,1.033l-0.141,0.141l-2.054-2.053l0.141-0.141c0,0,0.587,0.587,1.032,0.141l5.598-5.597
			l1.009-8.918l1.021,1.021l-0.153,0.152c-0.117-0.117-0.387-0.387-0.586-0.188l-0.834,7.474l3.908-3.907
			c0.445-0.446-0.142-1.033-0.142-1.033L687.802,388.869z"/>
		<path style="fill:#000000;" d="M670.059,392.247l9.974-9.974c0.446-0.446-0.141-1.032-0.141-1.032l0.141-0.141l2.054,2.054
			l-0.141,0.141c0,0-0.587-0.586-1.032-0.141l-9.975,9.974c-0.445,0.446,0.141,1.033,0.141,1.033l-0.141,0.141l-2.054-2.053
			l0.142-0.141C669.026,392.106,669.612,392.692,670.059,392.247z"/>
		<path style="fill:#000000;" d="M664,387.257v-5.28v-0.587v4.412l9.781-9.54c0.445-0.446-0.032-1.044-0.032-1.044l0.201-0.141
			l2.096,2.065l-0.126,0.141c0,0-0.579-0.586-1.024-0.141l-9.478,9.481l4.637-0.247l-0.534,0.587L664,387.257z"/>
		<path style="fill:#000000;" d="M669.621,370.994l0.142-0.141l2.064,2.065l-0.141,0.141c0,0-0.587-0.587-1.032-0.141l-9.974,9.974
			c-0.435,0.434,0.152,1.021,0.152,1.021l-0.141,0.141l-1.479-1.479l-1.749-6.137l1.021-1.021l0.141,0.141
			c-0.329,0.329-0.704,1.15-0.587,1.455l1.502,5.233l3.039-3.039l-1.748-6.137l1.032-1.033l0.141,0.141
			c-0.316,0.317-0.704,1.174-0.586,1.479l1.514,5.245l6.853-6.853c0.445-0.446-0.153-1.044-0.153-1.044L669.621,370.994z"/>
		<path style="fill:#000000;" d="M652,375.254v-5.28v-0.587v4.412l9.779-9.54c0.445-0.446-0.033-1.044-0.033-1.044l0.201-0.141
			l2.095,2.065l-0.125,0.141c0,0-0.58-0.586-1.025-0.141l-9.478,9.481l4.637-0.247l-0.532,0.587L652,375.254z"/>
		<path style="fill:#000000;" d="M646.043,368.23l9.974-9.974c0.446-0.446-0.141-1.032-0.141-1.032l0.141-0.141l2.054,2.054
			l-0.141,0.141c0,0-0.587-0.586-1.032-0.141l-9.975,9.974c-0.445,0.446,0.141,1.033,0.141,1.033l-0.141,0.141l-2.054-2.053
			l0.142-0.141C645.011,368.09,645.597,368.676,646.043,368.23z"/>
		<path style="fill:#000000;" d="M647.184,356.581l-1.726,4.541l-6.008,2.065l1.819-4.893l4.869-1.678l2.394-6.477
			c-0.059-0.293-0.293-0.528-0.293-0.528l0.152-0.152l1.619,1.619l-0.152,0.153c0,0-0.246-0.247-0.54-0.305l-1.994,5.28l5.409-1.936
			c-0.012-0.34-0.388-0.552-0.388-0.552l0.153-0.152l1.173,1.173l-0.164,0.141c0,0-0.211-0.234-0.493-0.305L647.184,356.581z
			 M642.278,358.223l-1.584,4.189l3.708-1.291l1.561-4.166L642.278,358.223z"/>
		<path style="fill:#000000;" d="M638.524,353.484l-3.614,3.614c-0.445,0.446,0.141,1.033,0.141,1.033l-0.141,0.141l-2.053-2.053
			l0.141-0.141c0,0,0.586,0.586,1.032,0.141l4.001-4.001l-1.067-2.781c-0.188-0.07-0.446,0.188-0.446,0.188l-0.141-0.141
			l1.033-1.033l0.141,0.141c-0.176,0.176-0.247,0.34-0.247,0.551l1.045,2.757l5.655-5.656c0.446-0.446-0.152-1.021-0.152-1.021
			l0.152-0.153l2.054,2.054l-0.152,0.152c0,0-0.575-0.598-1.021-0.152l-6.056,6.055l1.057,2.746
			c0.141,0.094,0.293,0.035,0.457-0.129l0.142,0.141l-1.021,1.021l-0.141-0.141c0.129-0.129,0.281-0.329,0.293-0.505
			L638.524,353.484z"/>
		<path style="fill:#000000;" d="M630.202,331.573l0.152-0.152l1.174,1.173l-0.165,0.141c0,0-0.281-0.282-0.563-0.282l-4.447,4.447
			l-2.84,5.351l0.047,3.873l10.161-10.162c0.446-0.446-0.141-1.009-0.141-1.009l0.152-0.152l2.042,2.042l-0.152,0.152
			c0,0-0.599-0.575-1.021-0.152l-9.963,9.986c-0.445,0.446,0.142,1.032,0.142,1.032l-0.142,0.141l-1.467-1.467l-0.082-4.377
			l2.934-5.515l4.494-4.494C630.472,331.843,630.202,331.573,630.202,331.573z"/>
		<path style="fill:#000000;" d="M627.872,328.961l2.053,2.053l-0.141,0.141c0,0-0.587-0.587-1.032-0.141l-9.974,9.974
			c-0.446,0.446,0.152,1.021,0.152,1.021l-0.141,0.141l-1.467-1.467l-1.761-6.148l0.88-0.88l0.142,0.141
			c-0.364,0.364-0.587,0.892-0.435,1.326l1.525,5.21l10.197-10.197c0.445-0.446-0.142-1.033-0.142-1.033L627.872,328.961z"/>
		<path style="fill:#000000;" d="M621.859,322.95l2.053,2.053l-0.141,0.141c0,0-0.587-0.587-1.032-0.141l-9.974,9.974
			c-0.446,0.446,0.152,1.021,0.152,1.021l-0.141,0.141l-1.467-1.467l-1.761-6.148l0.88-0.88l0.142,0.141
			c-0.364,0.364-0.587,0.892-0.435,1.326l1.525,5.21l10.197-10.197c0.445-0.446-0.142-1.033-0.142-1.033L621.859,322.95z"/>
		<path style="fill:#000000;" d="M615.709,317.081l0.142-0.141l2.064,2.065l-0.141,0.141c0,0-0.587-0.587-1.032-0.141l-9.974,9.974
			c-0.435,0.434,0.152,1.021,0.152,1.021l-0.141,0.141l-1.479-1.479l-1.749-6.137l1.021-1.021l0.141,0.141
			c-0.329,0.329-0.704,1.15-0.587,1.455l1.502,5.233l3.039-3.039l-1.748-6.137l1.032-1.033l0.141,0.141
			c-0.316,0.317-0.704,1.174-0.586,1.479l1.514,5.245l6.853-6.853c0.445-0.446-0.153-1.044-0.153-1.044L615.709,317.081z"/>
		<path style="fill:#000000;" d="M596.646,320.031l-1.479-1.479l0.152-0.152c0,0,0.458,0.458,0.893,0.305l10.103-10.126
			c0.446-0.446-0.141-1.033-0.141-1.033l0.141-0.141l2.054,2.053l-0.141,0.141c0,0-0.575-0.575-1.021-0.129l-2.358,2.335
			l-2.335,4.987l4.976-2.347l2.347-2.347c0.445-0.446-0.142-1.033-0.142-1.033l0.142-0.141l2.053,2.053l-0.141,0.141
			c0,0-0.575-0.575-1.021-0.129l-10.068,10.068c-0.199,0.481,0.235,0.916,0.235,0.916l-0.152,0.152l-1.467-1.467l2.464-5.092
			L596.646,320.031z M597.562,319.116l4.342-2.042l2.065-4.388L597.562,319.116z M602.221,317.391l-2.054,4.377l6.453-6.454
			L602.221,317.391z"/>
		<path style="fill:#000000;" d="M603.859,304.926l2.053,2.053l-0.152,0.153c0,0-0.587-0.587-1.032-0.141l-9.962,9.962
			c-0.446,0.446,0.141,1.033,0.141,1.033l-0.141,0.141l-2.054-2.053l0.141-0.141c0,0,0.587,0.587,1.032,0.141l5.598-5.597
			l1.009-8.918l1.021,1.021l-0.153,0.152c-0.117-0.117-0.387-0.387-0.586-0.188l-0.834,7.475l3.908-3.908
			c0.445-0.446-0.142-1.033-0.142-1.033L603.859,304.926z"/>
		<path style="fill:#000000;" d="M593.261,302.658l-1.726,4.541l-6.008,2.065l1.819-4.894l4.869-1.678l2.394-6.477
			c-0.059-0.293-0.293-0.528-0.293-0.528l0.152-0.152l1.619,1.619l-0.152,0.153c0,0-0.246-0.247-0.54-0.305l-1.994,5.28l5.409-1.936
			c-0.012-0.34-0.388-0.552-0.388-0.552l0.153-0.152l1.173,1.173l-0.164,0.141c0,0-0.211-0.234-0.493-0.305L593.261,302.658z
			 M588.355,304.301l-1.584,4.189l3.708-1.291l1.561-4.166L588.355,304.301z"/>
		<path style="fill:#000000;" d="M585.972,287.062l2.053,2.053l-0.141,0.141c0,0-0.587-0.587-1.032-0.141l-9.974,9.974
			c-0.446,0.446,0.152,1.021,0.152,1.021l-0.141,0.141l-1.467-1.467l-1.761-6.148l0.88-0.88l0.142,0.141
			c-0.364,0.364-0.587,0.892-0.435,1.326l1.525,5.21l10.197-10.197c0.445-0.446-0.142-1.033-0.142-1.033L585.972,287.062z"/>
		<path style="fill:#000000;" d="M579.814,281.187l0.142-0.141l2.064,2.065l-0.141,0.141c0,0-0.587-0.587-1.032-0.141l-9.974,9.974
			c-0.435,0.434,0.152,1.021,0.152,1.021l-0.141,0.141l-1.479-1.479l-1.749-6.137l1.021-1.021l0.141,0.141
			c-0.329,0.329-0.704,1.15-0.587,1.455l1.502,5.233l3.039-3.039l-1.748-6.137l1.032-1.033l0.141,0.141
			c-0.316,0.317-0.704,1.174-0.586,1.479l1.514,5.245l6.853-6.853c0.445-0.446-0.153-1.044-0.153-1.044L579.814,281.187z"/>
		<path style="fill:#000000;" d="M576.011,277.078l-0.141,0.141c0,0-0.587-0.587-1.032-0.141l-9.974,9.974
			c-0.435,0.434,0.141,1.033,0.141,1.033l-0.141,0.141l-1.467-1.467l-1.784-6.172l0.341-0.34l7.017,0.938l-1.783-6.172l0.34-0.34
			l7.017,0.938L576.011,277.078z M568.654,281.502l-6.595-0.845l1.666,5.773L568.654,281.502z M574.251,275.905l-6.618-0.845
			l1.666,5.796L574.251,275.905z"/>
		<path style="fill:#000000;" d="M563.369,272.767l-1.726,4.541l-6.008,2.065l1.819-4.894l4.869-1.678l2.394-6.477
			c-0.059-0.293-0.293-0.528-0.293-0.528l0.152-0.152l1.619,1.619l-0.152,0.153c0,0-0.246-0.247-0.54-0.305l-1.994,5.28l5.409-1.936
			c-0.012-0.34-0.388-0.552-0.388-0.552l0.153-0.152l1.173,1.173l-0.164,0.141c0,0-0.211-0.234-0.493-0.305L563.369,272.767z
			 M558.464,274.409l-1.584,4.189l3.708-1.291l1.561-4.166L558.464,274.409z"/>
		<path style="fill:#000000;" d="M558.297,259.645l0.141-0.141l0.435,0.434l-2.934,9.668l-5.598-0.645l1.373,5.479l10.244-10.244
			c0.445-0.446-0.142-1.033-0.142-1.033l0.142-0.141l0.586,0.586l0.881,0.88l0.586,0.586l-0.141,0.141c0,0-0.563-0.563-1.009-0.165
			l-10.092,10.115c-0.258,0.422,0.235,0.916,0.235,0.916l-0.141,0.141l-0.575-0.575l-0.868-0.869l-0.047-0.023l-1.597-6.313
			l5.879,0.692l2.781-8.906C558.496,259.868,558.402,259.75,558.297,259.645z"/>
		<path style="fill:#000000;" d="M544.207,266.395l9.974-9.974c0.446-0.446-0.141-1.032-0.141-1.032l0.141-0.141l2.054,2.054
			l-0.141,0.141c0,0-0.587-0.586-1.032-0.141l-9.975,9.974c-0.445,0.446,0.141,1.033,0.141,1.033l-0.141,0.141l-2.054-2.053
			l0.142-0.141C543.175,266.254,543.761,266.841,544.207,266.395z"/>
		<path style="fill:#000000;" d="M546.283,247.632l0.141-0.141l2.054,2.053l-0.141,0.141c0,0-0.587-0.586-1.021-0.129l-5.585,5.562
			l5.421,1.619l-6.301,6.301c-0.446,0.446,0.152,1.021,0.152,1.021l-0.141,0.141l-2.054-2.053l0.141-0.141
			c0,0,0.575,0.599,1.021,0.153l5.434-5.433l-5.434-1.607l6.454-6.454C546.87,248.219,546.283,247.632,546.283,247.632z"/>
	</g>
</g>
</svg>
