<?xml version="1.0" encoding="iso-8859-1"?>
<!-- Generator: Adobe Illustrator 15.0.0, SVG Export Plug-In . SVG Version: 6.00 Build 0)  -->
<!DOCTYPE svg PUBLIC "-//W3C//DTD SVG 1.1//EN" "http://www.w3.org/Graphics/SVG/1.1/DTD/svg11.dtd">
<svg version="1.1" id="&#x30EC;&#x30A4;&#x30E4;&#x30FC;_1"
	 xmlns="http://www.w3.org/2000/svg" xmlns:xlink="http://www.w3.org/1999/xlink" x="0px" y="0px" width="800px" height="800px"
	 viewBox="0 0 800 800" style="enable-background:new 0 0 800 800;" xml:space="preserve">
<circle style="fill:none;stroke:#000000;stroke-width:5;stroke-miterlimit:10;" cx="400" cy="400" r="386"/>
<circle style="fill:none;stroke:#000000;stroke-width:2;stroke-miterlimit:10;" cx="400" cy="400" r="375.564"/>
<circle style="fill:none;stroke:#000000;stroke-width:5;stroke-miterlimit:10;" cx="400" cy="400" r="365.13"/>
<g>
	<path d="M743.398,351.724l-3.689,10.407l22.544-2.762l0.24,1.961l-24.846,3.044l-0.24-1.961l0.026-0.003l3.663-10.404
		L743.398,351.724z"/>
	<path d="M759.243,338.044l-6.051,4.658l7.209,2.518l0.365,2.262l-9.496-3.296l-6.859,5.269l-9.29-3.836l7.611-6.564l8.169,2.844
		l7.977-6.116L759.243,338.044z M748.98,343.382l-5.879-2.04l-4.418,3.701l5.358,2.123L748.98,343.382z"/>
	<path d="M733.57,336.583l7.241-10.749l3.749,5.29l11.612-9.048l0.389,1.937l-12.128,9.823l-3.619-4.645l-4.621,6.945l21.92-4.405
		l0.394,1.962l-24.526,4.928l-0.244-1.213l-0.15-0.749L733.57,336.583z"/>
	<path d="M755.249,318.064l0.464,1.92l-24.317,5.896l-0.47-1.946l0.384-0.093l7.47-5.759l-9.343-1.89l-0.359,0.086l-0.469-1.946
		l24.33-5.845l0.463,1.92l-20.426,4.958l9.191,1.819l-7.35,5.811L755.249,318.064z"/>
	<path d="M725.109,301.881l24.077-6.813l0.445,1.571l-6.666,1.886l-5.805,5.995l8.136,2.242l6.673-1.861l0.444,1.571l-24.078,6.813
		l-0.444-1.572l6.257-6.232l-8.588-2.004L725.109,301.881z M740.127,299.329l-11.405,3.227l6.6,1.555L740.127,299.329z
		 M735.858,306.012l-4.799,4.807l11.431-3.234L735.858,306.012z"/>
	<path d="M718.459,282.183l23.483-8.625l0.681,1.854l-23.483,8.625L718.459,282.183z"/>
	<path d="M716.347,276.484l2.329-11.639l-6.088,2.506l-0.752-1.827l9.741-4.01l-2.329,11.639l15.829-6.517l-9.848-6.626l9.741-4.01
		l0.752,1.826l-6.088,2.506l9.848,6.626L716.347,276.484z"/>
	<path d="M721.878,257.473l-0.034-0.013l-8.517-6.968l15.87-7.229l0.821,1.797l-12.816,5.861l8.517,6.968l-14.339,6.586
		l-0.833-1.821L721.878,257.473z"/>
	<path d="M704.612,249.995l1.704-7.204l6.992-7.366l9.547-4.819l0.771,1.528l-9.265,4.677l-6.499,6.822l-1.438,6.155l0.143,0.282
		l20.81-10.506l0.902,1.787l-22.338,11.278L704.612,249.995z"/>
	<path d="M694.334,230.695l21.889-12.133l0.792,1.429l-6.06,3.359l-4.282,7.163l8.433,0.326l6.072-3.336l0.792,1.428l-21.889,12.133
		l-0.792-1.429l4.67-7.498l-8.82,0.009L694.334,230.695z M708.374,224.78l-10.368,5.748l6.78,0.006L708.374,224.78z
		 M705.744,232.262l-3.574,5.777l10.391-5.76L705.744,232.262z"/>
	<path d="M681.555,210.283l-0.912-1.386l20.902-13.756l0.913,1.386l-6.17,9.168l10.876-2.018l0.883,1.342l-20.889,13.778
		l-0.897-1.364l6.302-9.255l-10.993,2.126L681.555,210.283z M698.871,198.887l-13.407,8.855l8.469-1.601L698.871,198.887z
		 M694.939,207.718l-4.813,7.204l13.487-8.877L694.939,207.718z"/>
	<path d="M694.811,185.625l-3.354,6.861l7.579-0.944l1.331,1.865l-9.973,1.262l-3.809,7.768l-10.028,0.687l3.906-9.262l8.583-1.079
		l4.434-9.023L694.811,185.625z M687.983,194.965l-6.174,0.782l-2.316,5.278l5.745-0.476L687.983,194.965z"/>
	<path d="M670.902,183.558l2.145,10.83l17.967-13.89l1.209,1.563l-19.802,15.308l-1.208-1.563l0.021-0.016l-2.165-10.813
		L670.902,183.558z"/>
	<path d="M677.53,163.709l-2.821,7.096l7.483-1.52l1.469,1.757l-9.845,2.019l-3.204,8.033l-9.944,1.449l3.188-9.53l8.474-1.73
		l3.73-9.332L677.53,163.709z M671.437,173.541l-6.094,1.25l-1.906,5.438l5.689-0.913L671.437,173.541z"/>
	<path d="M654.705,175.568l0.732-12.942l5.927,2.632l5.36-13.714l1.323,1.466l-5.406,14.644l-5.486-2.144l-0.424,8.333
		l16.596-14.988l1.342,1.485L656.1,177.112l-0.83-0.919l-0.512-0.567L654.705,175.568z"/>
	<path d="M645.657,148h-0.037l-10.497-3.307l12.05-12.609l1.431,1.362l-9.723,10.204l10.497,3.305l-10.867,11.443l-1.449-1.379
		L645.657,148z"/>
	<path d="M623.902,144.851l16.554-18.757l1.481,1.307l-16.555,18.758L623.902,144.851z"/>
	<path d="M615.555,126.708l0.703,6.968l13.547-16.586l1.53,1.25l-13.53,16.565l6.931-0.699l-1.666,2.04l-8.34,0.841l-0.841-8.339
		L615.555,126.708z"/>
	<path d="M593.509,112.229l5.277,9.691l2.578-3.692l-5.321-9.721l1.234-1.675l5.277,9.691l9.227-13.214l1.619,1.131l-14.321,20.511
		l-1.62-1.13l0.016-0.021l-5.293-9.669L593.509,112.229z"/>
	<path d="M578.467,111.135l13.525-21.048l1.373,0.883l-3.744,5.827l-0.378,8.334l7.579-3.708l3.766-5.813l1.374,0.883
		l-13.524,21.048l-1.374-0.883l0.561-8.812l-7.761,4.185L578.467,111.135z M588.027,99.278l-6.407,9.97l5.973-3.205L588.027,99.278z
		 M589.255,107.11l-0.412,6.779l6.421-9.992L589.255,107.11z"/>
	<path d="M588.439,87.933l1.701,1.003l-12.689,21.569l-1.725-1.017l0.2-0.34l1.063-9.374l-7.86,5.395l-0.188,0.318l-1.725-1.017
		l12.735-21.542l1.702,1.003l-10.656,18.12l7.703-5.335l-0.941,9.323L588.439,87.933z"/>
	<path d="M559.874,90.745l2.008,6.707l10.16-18.844l1.738,0.938l-10.147,18.82l6.672-1.997l-1.25,2.318l-8.027,2.403l-2.402-8.027
		L559.874,90.745z"/>
	<path d="M532.242,60.248l2.863,10.587l3.252-8.146l1.835,0.732l-9.277,23.237l-1.835-0.732l5-12.523l-4.186-14.092L532.242,60.248z
		"/>
	<path d="M518.795,55.311l1.177,7.548l5.675-5.114l2.16,0.768l-7.457,6.745l1.324,8.55l-7.832,6.305l-2.099-9.833l6.422-5.799
		l-1.53-9.938L518.795,55.311z M518.543,66.88l-4.615,4.176l1.122,5.655l4.438-3.679L518.543,66.88z"/>
	<path d="M503.584,64.905l4.126-13.202l1.886,0.589l-4.416,14.132l3.225,3.106l-0.684,2.188l-3.24-3.055l-2.35,7.519l-1.887-0.589
		l2.648-8.474l-3.232-3.081l0.691-2.213L503.584,64.905z"/>
	<path d="M496.095,61.343l-0.032,0.019l-10.799,2.097l4.581-16.822l1.906,0.516l-3.682,13.601l10.8-2.097l-4.097,15.234
		l-1.933-0.523L496.095,61.343z"/>
	<path d="M485.844,45.672l1.926,0.441L482.2,70.516l-1.951-0.447l0.088-0.385l-1.823-9.258l-5.861,7.522l-0.082,0.359l-1.952-0.448
		l5.621-24.391l1.926,0.442l-4.674,20.499l5.729-7.417l1.924,9.172L485.844,45.672z"/>
	<path d="M465.141,41.319l4.838,9.842l1.632-8.618l1.94,0.367l-4.653,24.585l-1.94-0.367l2.508-13.25l-6.809-13.03L465.141,41.319z"
		/>
	<path d="M446.265,54.984l4.162,5.631l3.176-21.176l1.954,0.293l-3.172,21.15l5.601-4.141l-0.391,2.605l-6.739,4.981l-4.981-6.739
		L446.265,54.984z"/>
	<path d="M444.622,38.21l1.964,0.217l-2.729,24.878l-1.99-0.22l0.044-0.393l-2.875-8.985l-4.957,8.145l-0.041,0.366l-1.989-0.22
		l2.78-24.872l1.964,0.218l-2.287,20.897l4.838-8.025l2.965,8.89L444.622,38.21z"/>
	<path d="M419.722,52.493l4.581,5.298l1.551-21.362l1.971,0.143l-1.549,21.336l5.271-4.557l-0.19,2.628l-6.342,5.483l-5.482-6.341
		L419.722,52.493z"/>
	<path d="M415.016,60.86l-5.496-4.958l-3.096-9.672l0.366-10.687l1.71,0.059l-0.354,10.371l2.855,8.979l4.704,4.219l0.316,0.011
		l0.797-23.294l2,0.069l-0.855,25.005L415.016,60.86z"/>
	<path d="M403.055,60.486l-9.262-9.07l5.883-2.73l-6.797-13.062l1.975-0.032l7.467,13.709l-5.225,2.719l5.996,5.804l-0.363-22.36
		l2.002-0.033l0.405,25.02l-1.237,0.02l-0.764,0.012L403.055,60.486z"/>
	<path d="M366.899,54.817l10.23,4.144l-0.35-4.491l-10.282-4.14l-0.109-2.079l10.23,4.144l-1.251-16.071l1.969-0.153l1.942,24.947
		l-1.969,0.153l-0.002-0.026l-10.228-4.118L366.899,54.817z"/>
	<path d="M356.177,63.333l-1.648,0.192l-2.899-24.86l1.649-0.192l5.42,9.633l3.084-10.625l1.596-0.187l2.925,24.857l-1.623,0.189
		l-5.438-9.79l-3.04,10.779L356.177,63.333z M353.775,42.739l1.888,15.96l2.376-8.288L353.775,42.739z M359.9,50.221l4.274,7.538
		l-1.871-16.041L359.9,50.221z"/>
	<path d="M346.574,64.729L342.732,40l1.953-0.304l3.841,24.73L346.574,64.729z"/>
	<path d="M340.554,65.677l-10.956-4.568l1.263,6.462l-1.938,0.378l-2.021-10.339l10.956,4.568l-3.283-16.802l-8.43,8.356
		l-2.021-10.339l1.939-0.379l1.263,6.462l8.43-8.356L340.554,65.677z"/>
	<path d="M321.069,69.768l-5.74-24.353l1.922-0.453l5.741,24.353L321.069,69.768z"/>
	<path d="M309.897,59.707l-0.018,0.032l-8.23,7.304l-4.622-16.815l1.904-0.526l3.755,13.584l8.23-7.304l4.23,15.202l-1.93,0.534
		L309.897,59.707z"/>
	<path d="M296.03,76.765l-7.596-23.846l1.882-0.6l7.596,23.846L296.03,76.765z"/>
	<path d="M273.071,58.224l9.174,6.007l-2.983-8.247l1.857-0.672l8.509,23.527l-1.857,0.671l-4.586-12.68l-12.492-7.748
		L273.071,58.224z"/>
	<path d="M271.607,85.666l-9.422-23.179l1.83-0.744l9.422,23.179L271.607,85.666z"/>
	<path d="M254.742,80.762l-5.695-12.601l1.8-0.814l6.097,13.489l4.473,0.175l0.944,2.088l-4.451-0.127l3.244,7.177l-1.8,0.813
		l-3.656-8.089l-4.462-0.151l-0.955-2.112L254.742,80.762z"/>
	<path d="M242.937,70.957l0.643,7.542l4.356,3.951l1.02,6.411l5.016,4.564l-1.627,0.812l-8.007-7.194l0.935,10.723l-1.674,0.835
		l-0.701-7.542l-4.098-3.727l-0.961-6.116l-5.51-4.965l1.768-0.882l8.065,7.312l-0.993-10.841L242.937,70.957z M242.372,85.285
		l-2.779-2.5l0.563,3.547l2.52,2.217L242.372,85.285z M243.801,81.067l0.315,3.406l2.602,2.382l-0.551-3.523L243.801,81.067z"/>
	<path d="M216.779,84.834l1.696-1.014l12.866,21.469l-1.719,1.027l-0.203-0.339l-7.722-5.42l0.975,9.485l0.189,0.317l-1.718,1.027
		l-12.821-21.497l1.696-1.014l10.811,18.032l-0.997-9.319l7.736,5.29L216.779,84.834z"/>
	<path d="M206.302,112.368l10.968-1.261l-12.39-19.033l1.656-1.078l13.655,20.976l-1.656,1.078l-0.015-0.022l-10.953,1.283
		L206.302,112.368z"/>
	<path d="M203.648,123.066l-14.438-20.439l1.614-1.14l14.438,20.439L203.648,123.066z"/>
	<path d="M184.05,127.013l6.942,0.923l-13.014-17.008l1.569-1.2l12.997,16.987l0.919-6.905l1.601,2.092l-1.105,8.309l-8.309-1.105
		L184.05,127.013z"/>
	<path d="M159,143.69v0.038l-3.832,10.345l-12.124-12.574l1.401-1.371l9.77,10.147l3.744-10.345l10.966,11.343l-1.36,1.389
		L159,143.69z"/>
	<path d="M140.111,144.434l1.37-1.424l18.051,17.333l-1.388,1.442l-0.285-0.274l-8.874-3.201l3.431,8.895l0.266,0.256l-1.388,1.443
		l-18.015-17.371l1.37-1.424l15.166,14.556l-3.41-8.728l8.853,3.071L140.111,144.434z"/>
	<path d="M143.743,177.34l-1.104,1.239l-18.686-16.642l1.104-1.239l10.449,3.593l-4.756-9.985l1.068-1.2l18.703,16.622l-1.086,1.22
		l-10.567-3.698l4.892,10.071L143.743,177.34z M128.264,163.554l12.016,10.666l-3.733-7.769L128.264,163.554z M137.81,165.072
		l8.202,2.79l-12.057-10.738L137.81,165.072z"/>
	<path d="M127.621,197.36l-1.007,1.319l-19.888-15.192l1.007-1.319l10.692,2.797l-5.495-9.601l0.975-1.277l19.904,15.17
		l-0.991,1.298L122,187.663l5.637,9.676L127.621,197.36z M111.146,184.775l12.786,9.733l-4.308-7.467L111.146,184.775z
		 M120.78,185.571l8.391,2.166l-12.833-9.802L120.78,185.571z"/>
	<path d="M99.956,193.002l7.585,0.9l-3.395-6.843l1.321-1.873l4.486,8.998l8.59,1.029l3.961,9.24l-10.034-0.628l-3.854-7.747
		l-9.982-1.204L99.956,193.002z M111.029,196.362l2.778,5.569l5.748,0.443l-2.347-5.266L111.029,196.362z"/>
	<path d="M89.023,209.771l1.014-1.696l21.496,12.821l-1.027,1.719l-0.339-0.203l-9.369-1.12l5.349,7.895l0.317,0.189l-1.028,1.719
		l-21.469-12.866l1.014-1.696l18.059,10.766l-5.29-7.736l9.319,0.997L89.023,209.771z"/>
	<path d="M101.566,238.115l-21.961-12.002l0.948-1.734l21.961,12.002L101.566,238.115z"/>
	<path d="M97.32,246.125l-6.79,2.945l-10.083-1.195l-9.571-4.764l0.763-1.532l9.289,4.623l9.353,1.125l5.79-2.531l0.141-0.283
		l-20.864-10.385l0.892-1.792l22.396,11.147L97.32,246.125z"/>
	<path d="M80.685,251.831l0.013,0.035l0.362,10.997l-15.889-7.186l0.812-1.801l12.85,5.788l-0.362-10.998l14.397,6.457l-0.822,1.825
		L80.685,251.831z"/>
	<path d="M83.092,277.96l-23.193-9.394l0.613-1.514l6.421,2.601l8.262-1.172l-5.048-6.762l-6.411-2.625l0.613-1.514l23.193,9.394
		l-0.613,1.514l-8.765,1.083l5.551,6.852L83.092,277.96z M69.667,270.761l10.986,4.45l-4.257-5.277L69.667,270.761z M77.138,268.103
		l6.739-0.851l-11.011-4.459L77.138,268.103z"/>
	<path d="M55.88,279.559l7.553-1.14l-5.085-5.7l0.778-2.156l6.708,7.489l8.557-1.281l6.265,7.862l-9.842,2.05l-5.767-6.45
		l-9.945,1.481L55.88,279.559z M67.447,279.868l4.153,4.635l5.66-1.095l-3.657-4.456L67.447,279.868z"/>
	<path d="M75.175,301.01l-0.502,1.581l-23.846-7.581l0.503-1.582l11.006-0.978l-8.413-7.18l0.487-1.531l23.854,7.556l-0.495,1.556
		l-11.157,0.93l8.572,7.203L75.175,301.01z M55.421,294.729l15.319,4.843l-6.575-5.573L55.421,294.729z M64.757,292.225l8.627-0.795
		l-15.387-4.892L64.757,292.225z"/>
	<path d="M59.924,325.511l5.955-3.683l-20.841-4.913l0.453-1.923l20.815,4.907l-3.664-5.924l2.563,0.604l4.408,7.127l-7.127,4.408
		L59.924,325.511z"/>
	<path d="M43.068,325.775l0.379-1.938l24.561,4.772l-0.384,1.964l-0.388-0.076l-9.189,2.122l7.705,5.611l0.362,0.071l-0.384,1.964
		l-24.551-4.824l0.379-1.938l20.632,4.004l-7.596-5.483l9.102-2.22L43.068,325.775z"/>
	<path d="M63.725,353.057l-24.729-3.841l0.25-1.614l6.846,1.063l7.775-3.031l-6.461-5.429l-6.842-1.089l0.25-1.614l24.73,3.841
		l-0.25,1.614l-8.287,3.059l6.972,5.402L63.725,353.057z M49.007,349.118l11.714,1.82l-5.352-4.164L49.007,349.118z M55.673,344.822
		l6.366-2.37l-11.74-1.824L55.673,344.822z"/>
	<path d="M63.561,354.217l-7.687,9.05l6.542,0.763l-0.229,1.963l-10.467-1.221l7.687-9.05l-17.01-1.984l5.398,10.576l-10.468-1.221
		l0.229-1.962l6.542,0.763l-5.397-10.576L63.561,354.217z"/>
	<path d="M36.375,374.736l6.979-3.103l-6.414-4.146l0.178-2.285l8.453,5.44l7.908-3.506l8.126,5.917l-8.944,4.587l-7.27-4.688
		l-9.194,4.066L36.375,374.736z M47.607,371.965l5.233,3.367l5.166-2.557l-4.708-3.325L47.607,371.965z"/>
	<path d="M60.988,382.198l-9.577,8.738l-2.395-6.027l-13.424,6.054l0.079-1.974l14.108-6.686l2.421,5.37l6.132-5.66l-22.347-0.894
		l0.08-2l25.005,1l-0.05,1.237l-0.03,0.763L60.988,382.198z"/>
	<path d="M60.777,412.551l-25.005,0.855l-0.067-1.975l25.005-0.855L60.777,412.551z"/>
	<path d="M50.357,426.687l-13.794,0.993l-0.142-1.971l14.767-1.063l1.709-4.138l2.286-0.165l-1.657,4.134l7.856-0.565l0.142,1.971
		l-8.855,0.638l-1.683,4.136l-2.313,0.166L50.357,426.687z"/>
	<path d="M38.083,443.512l7.998-7.506l-8.719,0.96l-0.216-1.964l24.875-2.739l0.216,1.963l-13.406,1.477L38.36,446.025
		L38.083,443.512z"/>
	<path d="M64.407,451.378l-24.744,3.696l-0.292-1.953l24.745-3.696L64.407,451.378z"/>
	<path d="M67.216,467.45l0.308,1.63l-24.585,4.639l-0.308-1.63l9.224-6.082l-10.811-2.329l-0.298-1.578l24.58-4.664l0.303,1.604
		l-9.379,6.111l10.961,2.273L67.216,467.45z M53.879,464.66l7.216-4.792l-15.864,2.993L53.879,464.66z M46.849,471.293l15.781-3.004
		l-8.431-1.787L46.849,471.293z"/>
	<path d="M69.304,476.943l-24.396,5.581l-0.441-1.926l24.397-5.581L69.304,476.943z"/>
	<path d="M73.342,492.722l0.433,1.603l-24.165,6.522l-0.433-1.602l8.731-6.778l-10.963-1.489l-0.419-1.552l24.158-6.548l0.426,1.577
		l-8.884,6.818l11.109,1.423L73.342,492.722z M59.824,490.967l6.828-5.336L51.06,489.84L59.824,490.967z M53.324,498.125
		l15.509-4.214l-8.547-1.131L53.324,498.125z"/>
	<path d="M74.963,498.24l-2.865,6.826l-8.108,6.116l-10.209,3.185l-0.51-1.635l9.908-3.09l7.533-5.661l2.429-5.835l-0.094-0.302
		l-22.254,6.941l-0.596-1.911l23.889-7.451L74.963,498.24z"/>
	<path d="M69.847,518.411l-13.034,4.622l-0.66-1.861l13.952-4.948l0.549-4.443l2.16-0.766l-0.499,4.425l7.423-2.632l0.66,1.861
		l-8.366,2.968l-0.524,4.434l-2.185,0.774L69.847,518.411z"/>
	<path d="M78.774,534.251l2.763-6.435l-19.886,7.939l-0.732-1.834l19.861-7.93l-6.4-2.748l2.446-0.977l7.701,3.307l-3.306,7.7
		L78.774,534.251z"/>
	<path d="M93.63,546.388l-1.788,7.184l-7.078,7.284l-9.603,4.709l-0.753-1.538l9.318-4.568l6.579-6.747l1.509-6.138l-0.139-0.283
		l-20.931,10.263l-0.881-1.797l22.468-11.018L93.63,546.388z"/>
	<path d="M96.162,569.907l2.011-6.71l-18.856,10.16l-0.938-1.739l18.833-10.147l-6.674-2l2.319-1.25l8.03,2.407l-2.407,8.03
		L96.162,569.907z"/>
	<path d="M111.01,591.671l-1.187-10.974l-19.111,12.259l-1.067-1.662l21.063-13.511l1.067,1.663l-0.022,0.014l1.209,10.96
		L111.01,591.671z"/>
	<path d="M118.586,602.603l-1.604-10.924l-3.697,2.575l1.634,10.968l-1.738,1.146l-1.604-10.925l-13.233,9.218l-1.129-1.622
		l20.541-14.308l1.13,1.622l-0.022,0.015l1.626,10.909L118.586,602.603z"/>
	<path d="M128.417,611.845l-1.85,1.396l-8.676-3.056l1.574,8.383l-1.64,1.237l-11.417-3.759l-1.19-1.577l19.975-15.075l1.19,1.576
		L128.417,611.845z M115.934,609.517l-0.591-0.214l-7.359,5.554l9.514,3.117L115.934,609.517z M124.805,602.161l-7.38,5.57
		l0.112,0.542l8.955,2.944L124.805,602.161z"/>
	<path d="M119.709,633.01l2.903-7.064l-7.501,1.434l-1.45-1.774l9.871-1.906l3.296-7.998l9.963-1.335l-3.298,9.495l-8.495,1.633
		l-3.839,9.291L119.709,633.01z M125.917,623.246l6.109-1.181l1.969-5.418l-5.702,0.848L125.917,623.246z"/>
	<path d="M142.667,621.405l-0.887,12.936l-5.896-2.703l-5.524,13.652l-1.307-1.481l5.582-14.583l5.461,2.21l0.523-8.33
		L123.842,637.9l-1.324-1.502l18.772-16.555l0.819,0.929l0.505,0.573L142.667,621.405z"/>
	<path d="M133.154,648.297l-1.362-1.431l18.102-17.27l1.38,1.45l-0.286,0.272l-3.586,8.722l9.034-3.037l0.267-0.254l1.38,1.449
		l-18.138,17.23l-1.362-1.43l15.202-14.51l-8.866,3.023l3.455-8.707L133.154,648.297z"/>
	<path d="M152.694,667.762l-1.466-1.323l16.752-18.587l1.486,1.342l-0.265,0.293l-2.919,8.969l8.781-3.71l0.247-0.273l1.485,1.342
		l-16.791,18.552l-1.466-1.324l14.069-15.616l-8.615,3.684l2.79-8.944L152.694,667.762z"/>
	<path d="M181.261,670.748l-0.62-6.977l-13.745,16.424l-1.515-1.268l13.729-16.404l-6.939,0.616l1.69-2.021l8.35-0.741l0.742,8.35
		L181.261,670.748z"/>
	<path d="M205.977,678.594l1.35,0.966l-14.568,20.353l-1.35-0.967l2.464-10.774l-9.427,5.791l-1.307-0.936l14.547-20.367l1.328,0.95
		l-2.556,10.903l9.498-5.935L205.977,678.594z M194.404,685.798l1.904-8.455l-9.4,13.133L194.404,685.798z M193.908,695.453
		l9.333-13.083l-7.331,4.537L193.908,695.453z"/>
	<path d="M202.488,706.383l0.662-7.606l-6.73,3.606l-1.913-1.262l8.851-4.764l0.759-8.616l9.109-4.247l-0.313,10.046l-7.62,4.093
		l-0.891,10.012L202.488,706.383z M205.499,695.214l5.478-2.95l0.263-5.757l-5.188,2.51L205.499,695.214z"/>
	<path d="M225.54,699.728l-5.892-9.333l-11.772,19.414l-1.689-1.024l12.974-21.396l1.689,1.023l-0.014,0.023l5.906,9.31
		L225.54,699.728z"/>
	<path d="M226.508,720.624l0.077-7.638l-6.437,4.113l-2.004-1.111l8.461-5.43l0.097-8.651l8.759-4.934l0.458,10.042l-7.285,4.667
		l-0.121,10.053L226.508,720.624z M228.654,709.254l5.237-3.362l-0.179-5.762l-4.982,2.901L228.654,709.254z"/>
	<path d="M243.516,701.33l3.976,12.343l-6.479-0.323l-0.065,14.729l-1.764-0.892l-0.226-15.613l5.891,0.025l-2.604-7.93
		l-10.092,19.963l-1.787-0.903l11.292-22.338l1.105,0.559l0.682,0.345L243.516,701.33z"/>
	<path d="M244.657,729.83l-1.795-0.823l10.398-22.755l1.819,0.834l-0.165,0.359l-0.092,9.43l7.262-6.174l0.154-0.335l1.819,0.834
		l-10.446,22.732l-1.796-0.822l8.731-19.116l-7.111,6.099l-0.023-9.368L244.657,729.83z"/>
	<path d="M287.941,720.568l-8.654,23.483l-1.533-0.565l2.396-6.501l-1.434-8.222l-6.6,5.262l-2.42,6.491l-1.533-0.564l8.654-23.483
		l1.533,0.565l1.36,8.728l6.674-5.768L287.941,720.568z M278.277,726.833l-1.065-6.709l-4.108,11.148L278.277,726.833z
		 M281.171,734.217l4.099-11.123l-5.139,4.423L281.171,734.217z"/>
	<path d="M298.072,731.513l-7.872-7.741l-1.393,4.285l7.922,7.757l-0.694,1.963l-7.872-7.741l-4.987,15.334l-1.879-0.611
		l7.741-23.802l1.879,0.611l-0.008,0.024l7.88,7.716L298.072,731.513z"/>
	<path d="M294.603,749.054l4.601-6.007l-0.561-5.853l3.561-5.426l-0.636-6.75l1.749,0.495l1.077,10.707l6.527-8.556l1.799,0.51
		l-4.558,6.046l0.521,5.513l-3.406,5.168l0.732,7.379l-1.901-0.537l-1.041-10.834l-6.563,8.683L294.603,749.054z M300.77,740.998
		l2.059-2.729l-0.32-3.512l-1.964,2.975L300.77,740.998z M304.664,738.843l0.372,3.719l1.971-3.001l-0.37-3.335L304.664,738.843z"/>
	<path d="M318.355,741.091l-3.252,13.442l-1.92-0.465l3.481-14.39l-3.421-2.888l0.539-2.228l3.433,2.836l1.853-7.655l1.92,0.465
		l-2.088,8.629l3.427,2.861l-0.545,2.253L318.355,741.091z"/>
	<path d="M336.754,740.992l-8.708-6.779l-0.89,4.415l8.761,6.789l-0.463,2.029l-8.708-6.779l-3.185,15.801l-1.937-0.391
		l4.943-24.526l1.936,0.39l-0.005,0.026l8.714,6.753L336.754,740.992z"/>
	<path d="M362.733,744.766l-9.197-6.102l-0.553,4.47l9.249,6.107l-0.308,2.059l-9.197-6.101l-1.979,15.996l-1.96-0.242l3.073-24.832
		l1.96,0.243l-0.003,0.026l9.2,6.074L362.733,744.766z"/>
	<path d="M375.976,745.919l-9.425-5.743l-1.92,22.623l-1.968-0.167l2.116-24.933l1.968,0.167l-0.002,0.026l9.428,5.717
		L375.976,745.919z"/>
	<path d="M384.652,739.114l-1.174,24.991l-1.973-0.093l1.174-24.991L384.652,739.114z"/>
	<path d="M402.662,739.28l-0.406,25.145l-1.975,0.03l0.203-12.479l-9.779-6.37l9.876-6.605h0.105L402.662,739.28z M400.521,749.662
		l0.123-7.559l-6.649,3.87L400.521,749.662z"/>
	<path d="M406.663,739.392l5.798,4.605l3.695,9.463l0.304,10.693l-1.712,0.049l-0.295-10.377l-3.412-8.786l-4.961-3.918
		l-0.316,0.009l0.662,23.308l-2.002,0.058l-0.71-25.021L406.663,739.392z"/>
	<path d="M429.046,745.538l-10.185-4.265l0.298,4.496l10.236,4.261l0.085,2.08l-10.184-4.264l1.064,16.09l-1.972,0.13l-1.653-24.976
		l1.972-0.131l0.002,0.026l10.183,4.237L429.046,745.538z"/>
	<path d="M458.109,734.518l6.424,3.676l5.08,8.792l1.914,10.52l-1.684,0.306l-1.857-10.208l-4.698-8.166l-5.494-3.122l-0.311,0.057
		l4.173,22.93l-1.969,0.358l-4.479-24.614L458.109,734.518z"/>
	<path d="M481.442,738.484l-5.906-3.761l4.64,20.903l-1.929,0.428l-4.634-20.878l-3.74,5.876l-0.571-2.571l4.501-7.069l7.069,4.501
		L481.442,738.484z"/>
	<path d="M502.166,749.981l-1.891,0.575l-7.302-23.939l1.915-0.582l0.115,0.378l6.186,7.124l1.344-9.439l-0.107-0.354l1.916-0.582
		l7.252,23.955l-1.891,0.574l-6.138-20.107l-1.282,9.283l-6.229-7.001L502.166,749.981z"/>
	<path d="M515.908,731.04l4.526,13.065l-1.867,0.647l-4.845-13.987l-4.438-0.581l-0.75-2.165l4.421,0.531l-2.577-7.441l1.866-0.646
		l2.905,8.388l4.43,0.556l0.759,2.19L515.908,731.04z"/>
	<path d="M524.102,716.053l9.104,23.31l-1.841,0.719l-9.104-23.31L524.102,716.053z"/>
	<path d="M540.65,709.088l9.987,22.947l-1.498,0.651l-2.765-6.353l-6.721-4.946l-1.13,8.363l2.741,6.363l-1.498,0.651l-9.987-22.946
		l1.498-0.652l7.018,5.364l0.832-8.781L540.65,709.088z M538.001,720.297l-5.409-4.11l4.742,10.894L538.001,720.297z
		 M545.197,723.629l-4.73-10.87l-0.654,6.749L545.197,723.629z"/>
	<path d="M567.025,703.942l-11.034,0.264l2.105,3.981l11.081-0.288l0.927,1.864l-11.035,0.264l7.536,14.25l-1.746,0.924
		l-11.698-22.121l1.746-0.924l0.013,0.023l11.022-0.286L567.025,703.942z"/>
	<path d="M573.479,691.868l1.437-0.831l12.538,21.656l-1.436,0.832l-8.801-6.685l1.392,10.975l-1.391,0.805l-12.562-21.644
		l1.413-0.818l8.88,6.821l-1.493-11.098L573.479,691.868z M575.273,705.379l-6.917-5.218l8.091,13.974L575.273,705.379z
		 M583.866,709.81l-8.074-13.893l1.113,8.548L583.866,709.81z"/>
	<path d="M596.38,676.968l14.147,20.642l-1.347,0.924l-3.917-5.715l-7.535-3.586l0.474,8.426l3.895,5.729l-1.347,0.924
		l-14.148-20.643l1.348-0.923l7.905,3.938l-0.844-8.778L596.38,676.968z M595.899,688.475l-6.089-3.013l6.717,9.8L595.899,688.475z
		 M603.596,690.385l-6.701-9.777l0.635,6.75L603.596,690.385z"/>
	<path d="M602.875,672.168l14.931,20.092l-1.586,1.179l-14.931-20.092L602.875,672.168z"/>
	<path d="M620.439,672.701l8.668,10.774l-1.539,1.238l-9.278-11.534l-4.375,0.949l-1.437-1.785l4.342-0.99l-4.937-6.137l1.539-1.238
		l5.563,6.916l4.358-0.97l1.453,1.806L620.439,672.701z"/>
	<path d="M623.112,655.835l16.409,18.889l-1.491,1.295l-16.409-18.888L623.112,655.835z"/>
	<path d="M636.32,643.739l17.119,18.25l-1.191,1.118l-4.739-5.053l-7.992-2.398l1.749,8.255l4.72,5.07l-1.19,1.117l-17.12-18.25
		l1.191-1.117l8.411,2.691l-2.168-8.548L636.32,643.739z M637.594,655.185l-6.475-2.052l8.127,8.664L637.594,655.185z
		 M645.491,655.903l-8.109-8.646l1.653,6.575L645.491,655.903z"/>
	<path d="M646.109,633.865l1.335-1.456l9.22,8.458l2.831-10.878l1.42,1.374l-2.795,10.84l2.911,2.671l2.796-10.84l1.455,1.336
		l-2.796,10.84l3.397,3.116l-1.336,1.455L646.109,633.865z"/>
	<path d="M675.265,638.932l-1.279,1.507l-19.094-16.187l1.297-1.526l0.301,0.256l9.058,2.646l-3.977-8.667l-0.281-0.239l1.297-1.526
		l19.06,16.227l-1.28,1.506l-16.041-13.593l3.944,8.502l-9.028-2.519L675.265,638.932z"/>
	<path d="M676.582,615.563l10.87,8.547l-1.221,1.553l-11.637-9.149l-4.049,1.91l-1.801-1.417l4.007-1.942l-6.191-4.868l1.222-1.553
		l6.978,5.486l4.027-1.926l1.822,1.433L676.582,615.563z"/>
	<path d="M675.38,598.52l20.25,14.698l-1.16,1.599l-20.251-14.698L675.38,598.52z"/>
	<path d="M691.573,587.729l-9.588,5.472l3.744,2.505l9.617-5.516l1.7,1.201l-9.588,5.472l13.4,8.965l-1.099,1.642l-20.801-13.916
		l1.099-1.642l0.021,0.015l9.566-5.486L691.573,587.729z"/>
	<path d="M692.383,572.669l21.309,13.104l-0.855,1.391l-5.898-3.628l-8.34-0.213l3.856,7.503l5.886,3.65l-0.855,1.391l-21.31-13.104
		l0.855-1.391l8.82,0.386l-4.337-7.676L692.383,572.669z M696.619,583.373l-6.785-0.277l10.116,6.222L696.619,583.373z
		 M704.425,581.991l-10.094-6.207l3.322,5.907L704.425,581.991z"/>
	<path d="M710.155,538.287l22.671,10.597l-0.836,1.789l-11.336-5.298l-9.601,6.417l-1.78-11.62l0.045-0.095L710.155,538.287z
		 M718.53,544.383l-6.849-3.202l0.814,7.651L718.53,544.383z"/>
	<path d="M711.778,534.501l6.593-3.369l10.142,0.556l9.855,4.15l-0.664,1.578l-9.565-4.028l-9.407-0.532l-5.62,2.893l-0.123,0.292
		l21.485,9.047l-0.777,1.846l-23.063-9.713L711.778,534.501z"/>
	<path d="M718.091,518.774l23.425,8.813l-0.695,1.85l-23.426-8.814L718.091,518.774z"/>
	<path d="M732.666,515.141l-0.017-0.033l-1.479-10.903l16.537,5.53l-0.624,1.875l-13.371-4.449l1.48,10.902l-14.98-4.956
		l0.633-1.899L732.666,515.141z"/>
	<path d="M740.468,484.215l13.418,3.356l-0.479,1.917l-14.364-3.594l-2.914,3.399l-2.224-0.557l2.863-3.411l-7.643-1.912
		l0.479-1.917l8.613,2.155l2.889-3.406l2.25,0.563L740.468,484.215z"/>
	<path d="M757.442,471.681l-7.321,2.182l5.83,4.936l-0.47,2.244l-7.687-6.482l-8.295,2.461l-7.301-6.913l9.461-3.401l6.61,5.584
		l9.642-2.853L757.442,471.681z M745.943,472.987l-4.759-4.012l-5.453,1.872l4.243,3.904L745.943,472.987z"/>
	<path d="M746.254,463.306l-0.021-0.03l-3.124-10.551l17.188,2.945l-0.331,1.948l-13.894-2.359l3.125,10.55l-15.562-2.615
		l0.336-1.974L746.254,463.306z"/>
	<path d="M745.814,439.712l-5.551,4.271l21.237,2.767l-0.255,1.959l-21.212-2.763l4.249,5.521l-2.612-0.34l-5.112-6.644l6.644-5.112
		L745.814,439.712z"/>
	<path d="M737.652,435.383l10.01-8.237l2.084,6.142l13.714-5.36l-0.18,1.968l-14.43,5.955l-2.144-5.485l-6.412,5.339l22.269,2.034
		l-0.182,1.993l-24.919-2.275l0.113-1.233l0.069-0.761L737.652,435.383z"/>
	<path d="M738.788,421.534l5.063-5.401l9.731-2.91l10.68,0.569l-0.091,1.71l-10.364-0.553l-9.034,2.684l-4.31,4.624l-0.017,0.315
		l23.281,1.242l-0.107,2l-24.99-1.334L738.788,421.534z"/>
	<path d="M739,401.372l0.262-1.659l25.139,0.406l0.032,1.659L754.2,405.88l10.138,4.458l-0.02,1.606l-25.017-0.38l0.029-1.633
		l10.185-4.099L739,401.398V401.372z M751.976,406.791l-8.034,3.242l16.144,0.262L751.976,406.791z M760.198,401.709l-16.065-0.234
		l7.899,3.447L760.198,401.709z"/>
</g>
<circle style="fill:none;stroke:#000000;stroke-width:2;stroke-miterlimit:10;" cx="400" cy="400" r="339.912"/>
<circle style="fill:none;stroke:#000000;stroke-width:5;stroke-miterlimit:10;" cx="400" cy="400" r="299.042"/>
<rect x="190.5" y="190.5" transform="matrix(0.7071 -0.7071 0.7071 0.7071 -165.6855 399.9998)" style="fill:none;stroke:#000000;stroke-width:5;stroke-miterlimit:10;" width="418.999" height="419"/>
</svg>
