<?xml version="1.0" encoding="iso-8859-1"?>
<!-- Generator: Adobe Illustrator 15.0.0, SVG Export Plug-In . SVG Version: 6.00 Build 0)  -->
<!DOCTYPE svg PUBLIC "-//W3C//DTD SVG 1.1//EN" "http://www.w3.org/Graphics/SVG/1.1/DTD/svg11.dtd">
<svg version="1.1" id="&#x30EC;&#x30A4;&#x30E4;&#x30FC;_1"
	 xmlns="http://www.w3.org/2000/svg" xmlns:xlink="http://www.w3.org/1999/xlink" x="0px" y="0px" width="800px" height="800px"
	 viewBox="0 0 800 800" style="enable-background:new 0 0 800 800;" xml:space="preserve">
<g>
	<path d="M218.2383,160.0049l-18.354,4.0801l24.3599,30.0415l-2.6143,2.1196l-26.8462-33.1084l2.6138-2.1196l0.0283,0.0347
		l18.3257-4.1147L218.2383,160.0049z"/>
	<path d="M252.4829,173.0327l-11.5703-5.958l1.3403,12.9448l-3.2241,2.2021l-1.7974-17.0352l-13.0977-6.7622l-0.8145-17.1089
		l15.6396,6.9829l1.5342,14.6606l15.2139,7.8716L252.4829,173.0327z M236.812,161.0703l-1.1143-10.5439l-8.9106-4.1328
		l0.6084,9.8027L236.812,161.0703z"/>
	<path d="M239.5327,130.8613l21.2598,5.9849l-6.5615,8.8901l20.8394,13.9653l-2.9263,1.6631l-22.3691-14.3867l5.5859-8.3359
		l-13.7061-3.7734l18.8232,33.125l-2.9653,1.6851l-21.062-37.0659l1.8335-1.042l1.1313-0.6431L239.5327,130.8613z"/>
	<path d="M280.0625,157.269l-3.0542,1.4146l-17.9575-38.6709l3.0952-1.4331l0.2827,0.6108l12.1133,10.5635l0.0449-16.2432
		l-0.2642-0.5703l3.0952-1.4336l17.876,38.7085l-3.0542,1.4146l-15.0908-32.4805l0.0234,15.9648L265.0127,124.77L280.0625,157.269z"
		/>
	<path d="M301.5405,102.4038l14.6553,40.0376l-2.6128,0.9565l-4.0571-11.0845l-10.9282-9.0947l-2.769,14.1084l4.0151,11.0996
		l-2.6128,0.9565l-14.6553-40.0376l2.6128-0.9565l11.3896,9.834l2.3076-14.8477L301.5405,102.4038z M295.8979,121.1963
		l-8.7813-7.5391l6.9575,19.0073L295.8979,121.1963z M307.7979,127.5933l-6.9419-18.9648l-1.7969,11.4106L307.7979,127.5933z"/>
	<path d="M342.9541,91.9541l7.9146,41.8931l-3.3071,0.625l-7.915-41.8931L342.9541,91.9541z"/>
	<path d="M356.856,89.5532l17.9004,9.4126l-1.1631-11.1582l3.3472-0.3486l1.8613,17.8525l-17.9004-9.4126l3.0254,29.0107
		L379.5,112.0063l1.8618,17.853l-3.3477,0.3486l-1.1636-11.1577l-15.5732,12.9033L356.856,89.5532z"/>
	<path d="M386.3872,108.23l0.0439-0.0459l16.6401-8.6265l0.6113,29.6987l-3.3643,0.0747l-0.5303-24.001l-16.6406,8.6265
		l-0.6387-26.8706l3.4092-0.0752L386.3872,108.23z"/>
	<path d="M413.3682,87.0049l9.1543,8.6768l4.8662,16.6055l-1.0723,18.1885l-2.9121-0.1714l1.04-17.6514l-4.4863-15.4141
		l-7.8359-7.3853l-0.5381-0.0313l-2.3359,39.6475l-3.4053-0.2007l2.5078-42.5596L413.3682,87.0049z"/>
	<path d="M454.083,91.2734l-6.001,42.2119l-2.7549-0.3916l1.6611-11.686l-5.334-13.1792l-9.1074,11.1265l-1.7051,11.6797
		l-2.7549-0.3921l6.001-42.2119l2.7549,0.3921l5.3916,14.0483l9.0498-11.9956L454.083,91.2734z M440.2305,105.1704l-4.1777-10.7935
		l-2.8486,20.0396L440.2305,105.1704z M447.6953,116.4312l2.8428-19.9951l-6.9756,9.208L447.6953,116.4312z"/>
	<path d="M500.875,103.3013l2.6973,0.8496l-12.8145,40.6606l-2.6973-0.8496l-1.7129-18.749l-12.1973,14.3652l-2.6104-0.8228
		l12.7715-40.6743l2.6533,0.8364l1.6328,19.0059l12.2354-14.6357L500.875,103.3013z M485.9531,121.0894l-1.3916-14.6953
		l-8.2686,26.2368L485.9531,121.0894z M490.2598,136.9854l8.1855-26.1221l-9.4668,11.2266L490.2598,136.9854z"/>
	<path d="M507.8613,151.6826l-1.4014-12.9351l-10.0625,8.2476l-3.6133-1.4775l13.2236-10.8818l-1.5713-14.6528l13.8271-10.1021
		l2.7871,16.8955l-11.3877,9.354l1.8115,17.0298L507.8613,151.6826z M509.2109,132.019l8.1846-6.7373l-1.459-9.7104l-7.8447,5.9063
		L509.2109,132.019z"/>
	<path d="M545.1768,136.2046l-11.1875-15.1177l-17.5596,34.4741l-3-1.5278l19.3525-37.9937l2.999,1.5278l-0.0205,0.04
		l11.209,15.0776L545.1768,136.2046z"/>
	<path d="M547.1553,172.8022l0.7529-12.9888l-11.2861,6.4741l-3.3203-2.0537l14.8389-8.5503l0.8691-14.7109l15.3037-7.6816
		l-0.0391,17.1235l-12.7754,7.3467l-1.0244,17.0947L547.1553,172.8022z M551.7324,153.6313l9.1836-5.2939l0.1641-9.8184
		l-8.7129,4.5308L551.7324,153.6313z"/>
	<path d="M580.4355,143.8423l3.1611,21.8589l-10.7881-2.3877l-4.3027,24.7158l-2.708-1.9995l4.0664-26.2842l9.8867,1.7212
		l-2.1162-14.0581l-22.6318,30.6509l-2.7432-2.0264l25.3242-34.2969l1.6963,1.2529l1.0469,0.7729L580.4355,143.8423z"/>
	<path d="M604.2598,191.2104l0.0635,0.0005l17.6602,6.2866l-21.3047,20.7061l-2.3496-2.4102l17.1924-16.7593l-17.6602-6.2866
		l19.2168-18.7969l2.3809,2.4424L604.2598,191.2104z"/>
	<path d="M642.5039,201.7197l-32.877,27.1509l-2.1436-2.5957l32.877-27.1504L642.5039,201.7197z"/>
	<path d="M650.8652,237.5957l2.1035-11.7471l-29.9473,20.8535l-1.9238-2.7627l29.9102-20.8276l-11.6846-2.0913l3.6836-2.5654
		l14.0586,2.5166l-2.5166,14.0591L650.8652,237.5957z"/>
	<path d="M675.9668,279.5127l0.332-18.8042l-6.9277,3.3032l-0.293,18.8857l-3.2393,1.4448l0.332-18.8042l-24.7939,11.8223
		l-1.4482-3.0386l38.4863-18.3516l1.4482,3.0381l-0.04,0.0195l-0.291,18.7852L675.9668,279.5127z"/>
	<path d="M696.4883,298.2607l-39.8779,15.0903l-0.9854-2.6025l11.04-4.1777l8.9756-11.0264l-14.1377-2.6162l-11.0566,4.1357
		l-0.9844-2.6025l39.8779-15.0903l0.9854,2.6025l-9.7109,11.4966l14.873,2.146L696.4883,298.2607z M677.6348,292.8223l7.4434-8.8628
		l-18.9316,7.1636L677.6348,292.8223z M671.3662,304.792l18.8896-7.1479l-11.4307-1.6733L671.3662,304.792z"/>
	<path d="M658.2676,318.708l-0.9258-3.2363l40.9824-11.7705l0.9385,3.2798l-0.6475,0.1851l-12.3086,10.3369l16.042,2.5532
		l0.6045-0.1729l0.9385,3.2793l-41.0068,11.6841l-0.9258-3.2363l34.4229-9.894l-15.7773-2.4424l12.0986-10.417L658.2676,318.708z"/>
	<path d="M694.8467,351.2544l6.6357-9.9165l-35.79,7.0957l-0.6543-3.3018l35.7451-7.0869l-9.8643-6.6001l4.4023-0.8726
		l11.8691,7.9409l-7.9414,11.8687L694.8467,351.2544z"/>
	<path d="M670.0273,418.5117l15.4658-10.4912l-14.9287-0.7168l0.1621-3.3623l42.5889,2.0439l-0.1621,3.3623l-22.9531-1.1016
		l-20.3799,14.5693L670.0273,418.5117z"/>
	<path d="M667.5264,441.3125l12.1504-4.6533l-10.541-7.627l0.5068-3.8711l13.8945,10.0127l13.7686-5.2568l13.2949,10.793
		l-15.626,7.0049l-11.9502-8.626l-16.0049,6.0947L667.5264,441.3125z M686.8848,437.6035l8.6025,6.1953l9.0176-3.8877
		l-7.7119-6.0791L686.8848,437.6035z"/>
	<path d="M687.1045,464.3496l-23.0313-4.9746l0.7109-3.29l24.6543,5.3252l4.7744-5.9482l3.8164,0.8252l-4.6865,5.9668l13.1172,2.833
		l-0.7109,3.29l-14.7842-3.1934l-4.7305,5.958l-3.8604-0.834L687.1045,464.3496z"/>
	<path d="M681.3916,478.5732l0.0293,0.0566l2.9883,18.5049l-28.4014-8.71l0.9814-3.2197l22.9639,7.0049l-2.9883-18.5049
		l25.7246,7.7988l-0.9951,3.2617L681.3916,478.5732z"/>
	<path d="M654.0605,493.6221l1.2451-3.126l39.6191,15.7295l-1.2617,3.168l-0.625-0.249l-16.0557,0.6582l11.1338,11.8232
		l0.583,0.2324l-1.2617,3.168l-39.5859-15.8125l1.2451-3.127l33.2832,13.2061l-10.9912-11.5732l15.9385-0.8496L654.0605,493.6221z"
		/>
	<path d="M640.0078,525.2129l18.3799-3.3828l-13.3789-6.6611l1.501-3.0137l38.167,19.0039l-1.5,3.0137l-20.5703-10.2422
		l-24.5186,5.1387L640.0078,525.2129z"/>
	<path d="M650.5078,562.9541l11.5898-2.8457l-31.2119-18.9063l1.7441-2.8789l31.1729,18.8818l-2.8301-11.5273l3.8389,2.3252
		l3.4063,13.8701l-13.8711,3.4063L650.5078,562.9541z"/>
	<path d="M623.3467,552.9756l1.9746-2.7256l34.5557,24.9834l-2.002,2.7627l-0.5449-0.3955l-15.7305-3.3057l7.8926,14.1992
		l0.5088,0.3691l-2.002,2.7627l-34.5029-25.0566l1.9756-2.7256l29.0303,20.9805l-7.8154-13.9229l15.6641,3.0908L623.3467,552.9756z"
		/>
	<path d="M620.3047,601.877l11.8994-0.9063l-27.6885-23.7686l2.1924-2.5547l27.6553,23.7393l-0.9023-11.8359l3.4063,2.9238
		l1.085,14.2412l-14.2412,1.085L620.3047,601.877z"/>
	<path d="M623.9688,619.0391l-12.5713,1.0029l-15.5986-7.4873l-12.8057-12.96l2.0752-2.0498l12.4268,12.5771l14.459,6.9727
		l10.7305-0.8877l0.3838-0.3779l-27.9131-28.251l2.4258-2.3965l29.9629,30.3252L623.9688,619.0391z"/>
	<path d="M606.2998,635.7998l-21.9883-2.0645l4.8555-9.9248l-23.0098-9.9912l2.5791-2.1611l24.5908,10.1299l-3.9961,9.2041
		l14.1611,1.2471L579.0205,603.04l2.6133-2.1914l27.3828,32.6738l-1.6162,1.3545l-0.9971,0.8359L606.2998,635.7998z"/>
	<path d="M544.6992,664.0488l18.7539-1.3584l-3.9111-6.6006l-18.8311,1.4033l-1.7305-3.0957l18.7549-1.3574l-13.999-23.627
		l2.8955-1.7148l21.7295,36.6748l-2.8955,1.7148l-0.0225-0.0381l-18.7314,1.3965L544.6992,664.0488z"/>
	<path d="M530.3828,684.9707l-2.5439,1.2354l-18.627-38.3555l2.543-1.2354l14.1289,12.4482l-1.0068-18.8213l2.4629-1.1953
		l18.668,38.3359l-2.5039,1.2158l-14.2461-12.6904l1.165,19.043L530.3828,684.9707z M514.9512,653.1963l12.001,24.6084
		l-0.834-14.6631L514.9512,653.1963z M529.0039,661.79l11.1094,9.7236l-12.0195-24.75L529.0039,661.79z"/>
	<path d="M511.6699,692.7295L496.29,652.9668l3.1387-1.2139l15.3799,39.7617L511.6699,692.7295z"/>
	<path d="M498.46,697.6191l-19.3135-6.0166l3.166,10.7656l-3.2295,0.9502l-5.0654-17.2246l19.3135,6.0156l-8.2324-27.9893
		l-12.9814,15.5146l-5.0654-17.2246l3.2295-0.9492l3.166,10.7646l12.9814-15.5137L498.46,697.6191z"/>
	<path d="M462.0508,707.085l-8.5967-41.7617l3.2969-0.6787l8.5967,41.7627L462.0508,707.085z"/>
	<path d="M442.3135,689.043l-0.0391,0.0498l-15.7168,10.2188l-3.5215-29.501l3.3418-0.4043l2.8818,23.8369l15.7168-10.2178
		l3.2715,26.6836l-3.3867,0.4092L442.3135,689.043z"/>
	<path d="M410.7891,713.0527l-1.6377-42.6035l3.3633-0.1299l1.6377,42.6035L410.7891,713.0527z"/>
	<path d="M382.8979,670.1162l10.5674,15.4092l0.6401-14.9277l3.3623,0.1436l-1.8267,42.5889l-3.3623-0.1445l0.9844-22.9531
		l-14.6689-20.3008L382.8979,670.1162z"/>
	<path d="M359.2754,710.6035l5.3052-42.2988l3.3394,0.418l-5.3052,42.2998L359.2754,710.6035z"/>
	<path d="M337.1587,687.4326l4.8545-23.0547l3.2939,0.6934l-5.1968,24.6797l5.9722,4.7432l-0.8047,3.8203l-5.9907-4.6553
		l-2.7646,13.1309l-3.2935-0.6934l3.1162-14.7998l-5.9819-4.6982l0.814-3.8652L337.1587,687.4326z"/>
	<path d="M332.252,662.252l-7.9927,10.1182l0.8076,9.9854l-6.2046,9.1533l0.9116,11.5156l-2.9668-0.8877l-1.562-18.2686
		l-11.3379,14.4102l-3.0532-0.9131l7.9194-10.1865l-0.7466-9.4053l5.9341-8.7188l-1.0586-12.5908l3.2246,0.9648l1.4976,18.4844
		l11.4023-14.625L332.252,662.252z M314.8506,679.3926l-0.5381-6.3447l-3.4355,5.0625l0.5464,5.6914L314.8506,679.3926z
		 M321.541,675.8193l-3.5776,4.5986l0.4561,5.9922l3.4224-5.0195L321.541,675.8193z"/>
	<path d="M287.5264,646.2852l3.0234,1.4785l-18.6885,38.3184l-3.0635-1.499l0.2954-0.6045l0.561-16.0605L257.02,678.124
		l-0.2764,0.5645l-3.0635-1.498l18.7686-38.2783l3.0239,1.4785l-15.6919,32.1904l12.3745-10.084l-0.3608,15.959L287.5264,646.2852z"
		/>
	<path d="M237.7007,653.5889l10.1567,15.8252l19.8086-33.2246l2.8906,1.7227l-21.8306,36.6172l-2.8911-1.7236l0.0229-0.0391
		l-10.1797-15.7861L237.7007,653.5889z"/>
	<path d="M217.0537,654.2852l24.7734-34.7031l2.7397,1.9561l-24.7734,34.7031L217.0537,654.2852z"/>
	<path d="M199.7256,621.7656l0.9956,11.8906l23.5581-27.8623l2.5703,2.1729l-23.5288,27.8281l11.8271-0.9902l-2.8979,3.4277
		l-14.2305,1.1904l-1.1914-14.2305L199.7256,621.7656z"/>
	<path d="M167.0308,576.2021l-0.063-0.0098l-16.5352-8.8262l24.1284-17.3281l1.9668,2.7305l-19.478,14.0332l16.5356,8.8262
		l-21.7822,15.748l-1.9932-2.7666L167.0308,576.2021z"/>
	<path d="M171.5986,545.3359l1.7363,2.8838l-36.5063,22.0283l-1.7593-2.9219l0.5767-0.3477l9.1943-13.1836l-16.1538,1.71
		l-0.5386,0.3242l-1.7593-2.9229l36.5527-21.9521l1.7363,2.8848l-30.6616,18.5098l15.8687-1.7471l-8.9707,13.2061L171.5986,545.3359
		z"/>
	<path d="M115.9863,532.4326l-1.2534-2.5332l38.2109-18.9033l1.2539,2.5342l-12.3428,14.2168l18.8091-1.1445l1.2139,2.4541
		L123.687,547.999l-1.2339-2.4941l12.584-14.335l-19.0308,1.3037L115.9863,532.4326z M147.6416,516.7734l-24.5156,12.1777
		l14.6538-0.9404L147.6416,516.7734z M139.1523,530.8857l-9.6406,11.1777l24.6563-12.1973L139.1523,530.8857z"/>
	<path d="M98.2329,484.5371l-0.8228-2.7061l40.791-12.4082l0.8232,2.7051l-14.5015,12.0107l18.7461,1.9443l0.7969,2.6191
		l-40.7783,12.4512l-0.8096-2.6621l14.7588-12.0889l-18.9907-1.8232L98.2329,484.5371z M132.0254,474.2568l-26.1792,8.0107
		l14.6128,1.4658L132.0254,474.2568z M121.3438,486.7949l-11.3389,9.4541l26.3213-8.0068L121.3438,486.7949z"/>
	<path d="M134.2158,451.4219l-9.8833,8.4629l12.4897,3.6455l0.8218,3.8164l-16.4492-4.7666l-11.2051,9.5732l-16.1465-5.7041
		l12.3687-11.8438l14.1514,4.1143l13.0308-11.1143L134.2158,451.4219z M117.2256,461.4141l-10.1826-2.9482l-7.1895,6.6895
		l9.3052,3.1377L117.2256,461.4141z"/>
	<path d="M130.0747,420.4648l0.166,3.3623l-42.5864,2.1465l-0.1685-3.4072l0.6724-0.0332l14.3364-7.2686l-15.0425-6.1328
		l-0.6279,0.0303l-0.168-3.4063l42.5908-2.0576l0.166,3.3623l-35.7725,1.8105l14.8101,5.9648l-14.1504,7.3945L130.0747,420.4648z"/>
	<path d="M86.9697,388.4141l42.6177,1.3623l-0.1074,3.3647l-42.6177-1.3628L86.9697,388.4141z"/>
	<path d="M88.2051,369.3672l9.166-8.6636l16.8472-3.9463l18.1021,2.0688l-0.3311,2.8984l-17.5674-2.0083l-15.6367,3.6328
		l-7.8042,7.4194l-0.061,0.5347l39.4585,4.5103l-0.3872,3.3887l-42.3569-4.8413L88.2051,369.3672z"/>
	<path d="M112.2598,349.5508l-0.0352-0.0527l-4.813-18.1143l29.1235,5.8423l-0.6567,3.3008l-23.5435-4.686l4.8125,18.1138
		l-26.3682-5.2021l0.6655-3.3447L112.2598,349.5508z"/>
	<path d="M101.6055,303.9941l40.9795,11.771l-0.7681,2.6743l-11.3452-3.2588l-13.7891,3.4639l9.7627,10.5557l11.3325,3.3018
		l-0.7686,2.6743l-40.9795-11.7705l0.7681-2.6743l14.6587-3.4009l-10.6318-10.6187L101.6055,303.9941z M113.457,319.6328
		l-11.2671,2.6475l19.4546,5.5879L113.457,319.6328z M125.6406,313.793l-19.4116-5.5752l8.1572,8.1797L125.6406,313.793z"/>
	<path d="M149.0283,298.4653l-12.8984,1.7285l8.502,9.8525l-1.3862,3.6509l-11.2158-12.9478l-14.6118,1.9424l-10.4517-13.5698
		l16.8237-3.2148l9.6416,11.1499l16.9824-2.2427L149.0283,298.4653z M129.332,297.6128l-6.9438-8.0132l-9.6729,1.7051l6.1045,7.6943
		L129.332,297.6128z"/>
	<path d="M120.2554,258.7715l1.2192-2.5513l38.4717,18.3809l-1.2188,2.5513l-18.8066-0.9272l12.5186,14.0889l-1.1802,2.4702
		l-38.4912-18.3403l1.1992-2.5107l19.0498,1.0435l-12.7808-14.1646L120.2554,258.7715z M135.7822,276.0386l-14.7471-0.6792
		l24.8242,11.8604L135.7822,276.0386z M152.1265,273.9985l-24.7222-11.7617l9.792,10.9458L152.1265,273.9985z"/>
</g>
<circle style="fill:none;stroke:#000000;stroke-width:4;stroke-miterlimit:10;" cx="400" cy="400" r="380.001"/>
<circle style="fill:none;stroke:#000000;stroke-width:4;stroke-miterlimit:10;" cx="400" cy="400" r="360.7031"/>
<defs>
	<filter id="Adobe_OpacityMaskFilter" filterUnits="userSpaceOnUse" x="4.5435" y="312.3335" width="679.0356" height="454.7241">
		
			<feColorMatrix  type="matrix" values="-1 0 0 0 1  0 -1 0 0 1  0 0 -1 0 1  0 0 0 1 0" color-interpolation-filters="sRGB" result="source"/>
	</filter>
</defs>
<mask maskUnits="userSpaceOnUse" x="4.5435" y="312.3335" width="679.0356" height="454.7241" id="SVGID_1_">
	<g style="filter:url(#Adobe_OpacityMaskFilter);">
		<circle cx="400" cy="400" r="360.7031"/>
	</g>
</mask>
<g style="mask:url(#SVGID_1_);">
	<path d="M70.9282,567.9219l5.0132,4.9355l4.9932,4.8037c3.3486,3.1807,6.7344,6.3193,10.1572,9.4141
		c6.8472,6.1875,13.8457,12.1953,20.9941,18.0078c14.2954,11.626,29.1934,22.4688,44.6646,32.3887
		c30.9282,19.8438,64.2017,35.9893,99.1519,47.2676c34.9248,11.2822,71.5371,17.667,108.4473,18.1563
		c36.8838,0.5078,74.0605-4.9004,109.4014-16.7188c35.3223-11.7813,68.7861-30.0107,97.6807-54.292
		c28.9033-24.2266,53.123-54.5576,70.166-89.0537c8.5361-17.2305,15.2979-35.4629,20.1631-54.3135
		c4.8701-18.8496,7.8398-38.3115,8.9658-57.9902c2.2783-39.3901-2.9033-79.499-13.6924-118.1938
		c14.7246,37.3662,24.2959,77.2808,26.1924,118.2485c0.9531,20.4619-0.0088,41.1426-3.0869,61.6445
		c-3.0713,20.5-8.2598,40.8145-15.5713,60.4697c-7.3037,19.6563-16.7256,38.6436-28.0654,56.5254
		c-11.335,17.8857-24.5801,34.6621-39.4063,50.0049c-29.6523,30.7188-65.5986,55.585-104.873,73.4131
		c-39.2871,17.877-81.8779,28.7646-125.1846,32.6982c-43.3291,3.9639-87.3569,0.9893-130.0869-8.0322
		c-42.7593-9.0049-84.2085-24.0137-123.1831-43.6182c-19.4971-9.7979-38.394-20.7393-56.624-32.6396
		c-9.1157-5.9502-18.0664-12.1396-26.8472-18.5479c-4.3896-3.2051-8.7373-6.4639-13.0435-9.7734l-6.4253-5.0049l-6.2856-5.0127
		L70.9282,567.9219z"/>
</g>
<circle style="fill:none;stroke:#000000;stroke-width:4;stroke-miterlimit:10;" cx="400" cy="400" r="269.4756"/>
<g>
	<path d="M751.1592,478.4238l-41.8643-8.0449l0.6348-3.3057l11.417-14.9414l1.2773,0.2461l-11.46,14.9326l40.6299,7.8086
		L751.1592,478.4238z"/>
	<path d="M757.6875,437.6992l-15.585,5.8242l13.6787,9.7646l-0.1367,1.1133l-14.749-10.6191l-12.6338,4.6035l-14.2861-10.3369
		l13.5391-4.9893l11.5986,8.29l18.9824-6.9912L757.6875,437.6992z M726.5635,446.0078l11.5049-4.2441l-8.7666-6.3154
		l-11.6377,4.2275L726.5635,446.0078z"/>
	<path d="M715.9131,427.8076l0.1816-3.3604l9.873-16.3203l9.1543,14.3838l24.4492-12.4297l-0.0703,1.2988l-24.8203,12.6348
		l-8.7451-13.6426l-8.6729,14.0928l41.4092,2.2422l-0.1826,3.3613L715.9131,427.8076z"/>
	<path d="M732.6279,395.9546l-15.8164-6.4751l-0.0557-3.3657l42.6328-0.6958l0.0547,3.3657l-40.4785,0.6606l15.9063,6.4736
		l-15.5068,6.9414l40.2979-0.6582l0.0557,3.4111l-42.6318,0.6953l-0.0557-3.4102L732.6279,395.9546z"/>
	<path d="M715.1416,364.5356l42.502-3.3921l0.2715,3.3999l-10.3799,0.8286l-14.3213,7.8516l15.2959,5.4878l10.4688-0.8354
		l0.2715,3.3999l-42.502,3.3921l-0.2676-3.3555l14.4521-7.9067l-15.5195-5.4702L715.1416,364.5356z M745.3877,365.5435
		l-27.7373,2.2139l14.4434,4.9702L745.3877,365.5435z M746.3174,378.8862l-14.1309-4.9956l-13.4688,7.2437L746.3174,378.8862z"/>
	<path d="M709.4043,330.8857l41.6611-9.0601l0.7148,3.2891l-41.6611,9.0601L709.4043,330.8857z"/>
	<path d="M707.2939,321.3188l6.0752-19.291l-10.7725,3.1318l-0.9395-3.2319l14.0039-4.0713l-6.0742,19.291l34.4727-10.022
		l-15.4707-13.0273l14.0049-4.0713l0.9395,3.2314l-10.7734,3.1318l15.4707,13.0273L707.2939,321.3188z"/>
	<path d="M700.1025,297.4785l22.5391-8.2612l-13.585-12.9419l25.2783-9.2651l1.1572,3.1597l-22.4814,8.2881l13.4854,12.9307
		l-25.2207,9.292L700.1025,297.4785z"/>
	<path d="M692.3428,277.1455l3.5654-13.0439l12.2676-11.7183l16.5166-7.373l0.5488,1.2295l-16.2705,7.2632l-11.8486,11.335
		l-3.2715,11.8311l37.502-16.7402l1.3896,3.1147l-38.9355,17.3809L692.3428,277.1455z"/>
	<path d="M675.5234,242.9038l37.6602-19.9897l1.5996,3.0132l-9.1973,4.8813l-10.0254,12.8926l16.2168-1.0371l9.2764-4.9238
		l1.5986,3.0132l-37.6602,19.9897l-1.5781-2.9731l10.124-12.9956l-16.415,1.1426L675.5234,242.9038z M703.6836,231.8188
		l-24.5781,13.0459l15.2295-1.1738L703.6836,231.8188z M709.835,243.6953l-14.9531,1.0264l-9.4854,11.9961L709.835,243.6953z"/>
	<path d="M653.9639,210.229l-1.9883-2.7705l34.6299-24.8604l1.9629,2.7339l-12.541,17.2339l20.3652-6.334l1.9629,2.7339
		l-34.6045,24.8965l-1.9883-2.77l12.4316-17.1553L653.9639,210.229z M655.8594,208.8682l19.084-5.9658l11.7656-16.2354
		L655.8594,208.8682z M675.2783,203.6006l-11.8027,16.2617l30.9492-22.2173L675.2783,203.6006z"/>
	<path d="M673.3008,166.2251l-6.499,15.3208l16.502-3.208l0.7139,0.8647l-17.8584,3.3975l-5.3525,12.3374l-17.335,3.2563
		l5.6963-13.2612l13.999-2.7134l7.9902-18.5894L673.3008,166.2251z M657.9121,194.5342l4.8369-11.271l-10.6172,2.0161
		l-4.9414,11.3564L657.9121,194.5342z"/>
	<path d="M668.3672,160.4434l-30.9629,29.2964l-2.3125-2.4448l-5.4697-17.9888l0.9453-0.8945l5.4365,18.02l30.0508-28.4326
		L668.3672,160.4434z"/>
	<path d="M639.1006,131.3496l-4.376,16.0537l15.917-5.3994l0.8252,0.7612l-17.2373,5.7695l-3.6436,12.9443l-16.7363,5.5591
		l3.8594-13.9053l13.5049-4.5728l5.4141-19.4937L639.1006,131.3496z M627.6641,161.4688l3.2754-11.8179l-10.248,3.4263
		l-3.3662,11.917L627.6641,161.4688z"/>
	<path d="M606.6826,159.4922l-2.6221-2.1113l-7.4785-17.5488l17.0234,0.9736l4.1953-27.1074l1.0137,0.8164l-4.2461,27.5278
		l-16.1826-0.8726l6.3721,15.2739l26.0127-32.3008l2.6221,2.1113L606.6826,159.4922z"/>
	<path d="M569.7158,132.1807l12.4248-20.5479l-18.6982-1.6035l13.9346-23.0439l2.8799,1.7417l-12.3633,20.5322l18.6143,1.6577
		l-13.873,23.0283L569.7158,132.1807z"/>
	<path d="M543.6914,117.4155l19.5254-37.9067l2.9932,1.5415l-19.5264,37.9067L543.6914,117.4155z"/>
	<path d="M540.3193,100.585l-0.8887,2.0601l-13.7139,6.2998l-5.2695-13.2695l0.8887-2.0596l4.4033,11.0869l15.3408-35.5542
		l3.0898,1.333l-15.252,35.3486L540.3193,100.585z"/>
	<path d="M506.791,56.3848l-11.4521,41.0669l-3.2422-0.9043l-13.9561-12.604l0.3496-1.2534l13.9443,12.647l2.7969-10.0288
		l-13.9688-12.561l0.3496-1.2534l13.9561,12.604l7.9805-28.6167L506.791,56.3848z"/>
	<path d="M454.8008,87.6055l8.6104-41.748l3.3398,0.689l-2.1025,10.1953l3.5381,15.9399l9.5391-13.1514l2.1211-10.2832l3.3398,0.689
		l-8.6104,41.748l-3.2959-0.6797l-3.5557-16.0815l-9.584,13.3716L454.8008,87.6055z M464.2129,58.8511l-5.6191,27.2461
		l8.8047-12.4785L464.2129,58.8511z M477.2813,61.6836l-8.7402,12.1709l3.1924,14.9526L477.2813,61.6836z"/>
	<path d="M445.5654,70.4355l-8.7842,14.6563l-3.335-0.4531l5.7402-42.2412l3.335,0.4536l-5.4502,40.1064l8.7959-14.7451
		l4.5225,16.374l5.4268-39.9287l3.3789,0.459l-5.7402,42.2412l-3.3789-0.4595L445.5654,70.4355z"/>
	<path d="M433.002,71.0498l-0.1514,2.2383l-10.833,10.5093l-9.3896-10.7563l0.1523-2.2388l7.8457,8.9878l2.6201-38.6362
		l3.3574,0.228l-2.6045,38.4121L433.002,71.0498z"/>
	<path d="M343.9204,44.6694l16.373,15.8823l-2.3618-17.7471l3.3359-0.4443l5.624,42.2559l-3.3359,0.4438l-3.0313-22.7734
		L342.5415,44.853L343.9204,44.6694z"/>
	<path d="M321.6104,48.9277l10.4614,12.939l4.9302-16.0688l1.0991-0.2236l-5.4009,17.3555l8.3682,10.5254l-5.2793,16.8267
		l-9.022-11.2627l4.1895-13.6284L318.312,49.5981L321.6104,48.9277z M339.3511,75.8188l-7.6699-9.5684l-3.2144,10.3164
		l7.6963,9.7002L339.3511,75.8188z"/>
	<path d="M316.853,94.1011l-3.2441,0.895l-4.7373-17.1738l-7.3838-1.4546l-0.334-1.2114l7.3838,1.4546l-6.2646-22.7104l3.2446-0.895
		l6.7061,24.3115l7.4819,1.4736l0.3223,1.168l-7.4702-1.4307L316.853,94.1011z"/>
	<path d="M301.5552,98.543l-7.9512-22.6538l-13.1294,13.4067l-8.917-25.4058l3.1753-1.1147l7.979,22.5962l13.1167-13.3071
		l8.9443,25.3486L301.5552,98.543z"/>
	<path d="M268.9385,94.1538l0.0215,17.0898l-3.0923,1.3296l-16.8442-39.168l3.0923-1.3296l15.9932,37.189l-0.0571-17.1724
		l12.3135,11.7056l-15.9219-37.0234l3.1333-1.3477l16.8442,39.1675l-3.1338,1.3477L268.9385,94.1538z"/>
	<path d="M228.603,83.7114l20.7563,9.4668l-8.1826-15.9268l2.9937-1.5381l19.4824,37.9209l-2.9937,1.5381l-10.5-20.4375
		l-22.7939-10.3877L228.603,83.7114z"/>
	<path d="M238.5024,111.4932l1.1592,1.9219l-2.854,14.8242l-13.8633-3.4331l-1.1587-1.9219l11.5835,2.8687L213.3662,92.582
		l2.8828-1.7388l19.8872,32.979L238.5024,111.4932z"/>
	<path d="M209.7363,127.0908l3.4878,16.73l-2.7578,1.9292l-24.4399-34.9351l2.7578-1.9292l23.2051,33.1699l-3.5396-16.8032
		l14.4321,8.9639l-23.1021-33.0229l2.7944-1.9551l24.4404,34.9351l-2.7949,1.9551L209.7363,127.0908z"/>
	<path d="M200.9121,136.0723l1.4077,1.7471l-0.8242,15.0703l-14.1963-1.5278l-1.4077-1.7476l11.8618,1.2769l-24.2954-30.1558
		l2.6206-2.1113l24.1548,29.981L200.9121,136.0723z"/>
	<path d="M189.9507,162.5483l-13.4966,0.8013l-15.0283-7.8657l-12.2739-13.2822l0.9888-0.9136l12.0913,13.0845l14.5308,7.5918
		l12.2539-0.6914l-27.8677-30.1577l2.5049-2.3145l28.9336,31.311L189.9507,162.5483z"/>
	<path d="M176.7661,174.7749l-2.313,2.4453l-18.0859,6.0605l2.3228-16.8911l-26.686-6.335l0.894-0.9458l27.1011,6.4189
		l-2.1553,16.061l15.731-5.1377l-30.1299-28.4941l2.3125-2.4458L176.7661,174.7749z"/>
	<path d="M113.9731,181.8076l34.6016,24.9038l-1.9663,2.7319l-16.6416,8.7563l-1.0562-0.7603l16.6782-8.7305l-8.4502-6.0815
		l-16.605,8.7827l-1.0566-0.7603l16.6416-8.7563l-24.1118-17.354L113.9731,181.8076z"/>
	<path d="M127.1436,238.4897l-1.7998,2.897l-36.2104-22.4976l1.7764-2.8589l20.7188,5.0015l-13.6382-16.3979l1.7764-2.8589
		l36.2339,22.4595l-1.7998,2.897l-20.6045-4.9302L127.1436,238.4897z M125.1616,237.2583l-12.8076-15.3535l-19.5005-4.6665
		L125.1616,237.2583z M112.8706,221.3281l19.5386,4.6899l-32.3608-20.1055L112.8706,221.3281z"/>
	<path d="M119.1558,252.9214l-37.6602-19.9756l1.5767-2.9731l37.6606,19.9756L119.1558,252.9214z"/>
	<path d="M114.585,261.6001l-17.1011,10.7993l10.2461,4.5703l-1.3711,3.0737l-13.3198-5.9409l17.1011-10.7998l-32.7881-14.624
		l3.3911,19.9395l-13.3198-5.9409l1.3706-3.0737l10.2466,4.5698l-3.3911-19.9395L114.585,261.6001z"/>
	<path d="M101.7979,292.3271l-40.0376-14.6553l1.1572-3.1611l40.0376,14.6553L101.7979,292.3271z"/>
	<path d="M97.5166,304.7783l-23.062-6.686l3.2886,18.4771l-25.8638-7.4985l0.9375-3.2329l23.0308,6.6304l-3.2144-18.4087
		l25.833,7.4429L97.5166,304.7783z"/>
	<path d="M89.9785,333.7271l-41.6611-9.0454l0.7139-3.2891l41.6611,9.0454L89.9785,333.7271z"/>
	<path d="M43.0503,355.4937l19.769-11.3872l-17.7168-2.5996l0.4888-3.3301l42.1826,6.1895l-0.4888,3.3301l-22.7344-3.3359
		l-21.7026,12.5098L43.0503,355.4937z"/>
	<path d="M83.9116,376.3613l-42.502-3.3198l0.2622-3.3555l42.5015,3.3198L83.9116,376.3613z"/>
	<path d="M83.1406,395.2085l-0.0547,3.3657l-17.8159-0.291l-3.4756,6.6768l-1.2568-0.0205l3.4756-6.6768l-23.5596-0.3843
		l0.0547-3.3657l25.2202,0.4116l3.522-6.7656l1.2119,0.02l-3.4771,6.7661L83.1406,395.2085z"/>
	<path d="M59.8052,418.4316l-19.335-7.3271l-0.0625-1.1201l11.5288,4.3916l9.8208-4.46l10.7168,2.7285l10.5229-4.7686l0.1724,3.0928
		l-18.2324,8.3906l19.1084,7.2939l0.0527,0.9414l-11.5264-4.3467l-9.3379,4.2529l-10.2163-2.6211l-11.4839,5.2715l-0.1875-3.3613
		L59.8052,418.4316z M63.7544,419.9199l-9.2036,4.2451l5.6997,1.4346l8.4639-3.7988L63.7544,419.9199z M61.0327,417.8691
		l9.8628-4.5068l-6.1572-1.5898l-8.9873,4.0986L61.0327,417.8691z"/>
	<path d="M73.2759,462.8965l16.6938,3.6465l0.6353,3.3047l-41.8638,8.0459l-0.6353-3.3057l39.7485-7.6387l-16.7817-3.6289
		l14.0732-9.5137l-39.5723,7.6055l-0.6436-3.3496l41.8638-8.0449l0.6436,3.3496L73.2759,462.8965z"/>
	<path d="M49.6704,482.0605l41.2261-10.8867l0.8594,3.2549l-3.8179,18.416l-1.2583,0.332l3.8613-18.4277l-40.0112,10.5654
		L49.6704,482.0605z"/>
	<path d="M100.1938,503.1563l-40.3711,13.6836l-1.0801-3.1865l40.3706-13.6846L100.1938,503.1563z"/>
	<path d="M90.939,517.583l2.0703-0.8652l14.2432,4.9961l-5.4282,13.208l-2.0703,0.8643l4.5352-11.0361l-35.7388,14.9199
		l-1.2969-3.1055l35.5322-14.834L90.939,517.583z"/>
	<path d="M133.9272,572.458l-19.8374,13.5186l16.3354,9.2295l-22.2471,15.1611l-1.8955-2.7803l19.7749-13.5313l-16.2358-9.2432
		l22.1851-15.1729L133.9272,572.458z"/>
	<path d="M138.1006,605.1289l16.5117-4.4102l2.0791,2.6475l-33.5288,26.3389l-2.0791-2.6475l31.8345-25.0078l-16.582,4.4658
		l8.1514-14.9072l-31.6938,24.8965l-2.1069-2.6816l33.5288-26.3389l2.1069,2.6816L138.1006,605.1289z"/>
	<path d="M168.8057,616.9014l2.2837,2.5332l-31.6738,28.543l-2.2529-2.501l10.5596-18.5176l-19.543,8.5488l-2.2534-2.5
		l31.6436-28.5762l2.2832,2.5342l-10.46,18.4277L168.8057,616.9014z M148.3521,625.8477l9.9336-17.4697l-28.3062,25.5078
		L148.3521,625.8477z M167.0723,618.4629l-18.3096,8.042l-9.8999,17.4395L167.0723,618.4629z"/>
	<path d="M199.9531,645.9258l2.6016,2.207l-27.5859,32.5146l-2.5669-2.1777l7.9966-19.7627l-18.23,11.0801l-2.5669-2.1777
		l27.5513-32.543l2.6011,2.2061l-7.9092,19.6602L199.9531,645.9258z M180.874,657.5215l7.5151-18.6396l-24.6528,29.0566
		L180.874,657.5215z M198.4434,647.7061l-17.0742,10.4121l-7.4863,18.6055L198.4434,647.7061z"/>
	<path d="M191.8179,693.2939l2.5967-16.4365l-15.2324,7.1064l-0.9028-0.667l16.5034-7.6182l2.2075-13.2646l16.0293-7.3545
		l-2.3169,14.2441l-12.9248,6.0205l-3.2524,19.9688L191.8179,693.2939z M199.896,662.1055l-1.9648,12.1045l9.8125-4.5254
		l2.0449-12.2129L199.896,662.1055z"/>
	<path d="M240.0317,691.7393l13.4541-10.5371l2.9517,1.6182l-20.4971,37.3848l-2.9517-1.6182l19.4614-35.4961l-13.4976,10.6162
		l1.645-16.9102l-19.375,35.3389l-2.9907-1.6396l20.4971-37.3848l2.9907,1.6396L240.0317,691.7393z"/>
	<path d="M268.2979,688.3896l-17.9028,38.6895l-3.0542-1.4141l17.9023-38.6895L268.2979,688.3896z"/>
	<path d="M280.5581,693.7656l6.7061,11.7393l-0.3804,16.9561l-6.4565,16.8926l-1.2578-0.4805l6.3608-16.6406l0.356-16.3896
		l-6.0566-10.6748l-14.6597,38.3535l-3.186-1.2178l15.2207-39.8203L280.5581,693.7656z"/>
	<path d="M300.5454,701.1211l-7.0122,22.9639l18.521-3.0254l-7.8643,25.7539l-3.2192-0.9834l6.9561-22.9336l-18.4517,2.9521
		l7.8081-25.7236L300.5454,701.1211z"/>
	<path d="M337.6318,710.9795l-9.6396,41.5303l-3.3223-0.7705l2.354-10.1426l-3.145-16.0254l-9.8623,12.9141l-2.3745,10.2295
		l-3.3223-0.7705l9.6396-41.5313l3.2788,0.7617l3.1582,16.167l9.9131-13.1338L337.6318,710.9795z M314.5137,736.3438l9.0405-11.9541
		l-2.8232-15.0293L314.5137,736.3438z M327.5107,739.498l6.2915-27.1035l-9.1113,12.2588L327.5107,739.498z"/>
	<path d="M348.7988,756.0176l-5.2329-15.7969l-10.2764,13.3027l-1.1074-0.1777l11.1704-14.3408l-4.124-12.8008l10.8706-13.8887
		l4.4756,13.7207l-8.7231,11.2793l6.2705,19.2373L348.7988,756.0176z M341.6689,724.5967l3.8076,11.6582l6.6436-8.5225
		l-3.7861-11.792L341.6689,724.5967z"/>
	<path d="M376.9648,716.1846l3.3965,0.3115l-3.8994,42.458l-3.3516-0.3076l-4.8081-20.7676l-8.5552,19.54l-3.3521-0.3076
		l3.8545-42.4619l3.397,0.3115l4.8203,20.6338L376.9648,716.1846z M368.0107,736.6348l-4.5571-19.5732l-3.4849,37.9443
		L368.0107,736.6348z M376.7515,718.5078l-7.9932,18.3311l4.561,19.5283L376.7515,718.5078z"/>
	<path d="M403.3418,730.5498l-0.0908-2.2422l9.6318-11.624l10.5029,9.6787l0.0908,2.2422l-8.7744-8.0869l1.5801,38.7021
		l-3.3633,0.1367l-1.5713-38.4775L403.3418,730.5498z"/>
	<path d="M436.0908,730.7227l5-16.3418l3.3457-0.3623l4.5957,42.3857l-3.3467,0.3633l-4.3633-40.2451l-4.9893,16.4307
		l-8.3311-14.8057l4.3438,40.0664l-3.3916,0.3672l-4.5947-42.3857l3.3906-0.3682L436.0908,730.7227z"/>
	<path d="M465.6621,710.293l7.4795,41.9795l-3.3584,0.5986l-1.8262-10.252l-9.1982-13.498l-3.9863,15.7559l1.8428,10.3398
		l-3.3584,0.5986l-7.4805-41.9795l3.3145-0.5908l9.2666,13.6221l3.9463-15.9766L465.6621,710.293z M454.3867,742.7119
		l3.6084-14.5488l-8.5107-12.708L454.3867,742.7119z M467.5791,740.498l-4.8818-27.3975l-3.5537,14.8574L467.5791,740.498z"/>
	<path d="M466.9922,710.0313l19.0469,6.8135l-2.7158-10.8877l3.2656-0.8145l3.5313,14.1533l-19.0469-6.8135l8.6914,34.8389
		l13.6143-14.9609l3.5313,14.1533l-3.2666,0.8145l-2.7158-10.8867l-13.6143,14.9609L466.9922,710.0313z"/>
	<path d="M517.0264,740.1709l-11.8496-11.6826l-3.0938,16.5205l-1.0674,0.3457l3.418-17.8525l-9.498-9.5186l3.3564-17.3135
		l10.2295,10.1777l-2.6318,14.0137l14.3389,14.2725L517.0264,740.1709z M496.377,715.4414l8.6963,8.6465l2.0352-10.6123
		l-8.7373-8.7744L496.377,715.4414z"/>
	<path d="M508.3789,698.1309l3.123-1.2539l18.96,2.0566l-9.1709,14.3701l21.5889,16.9111l-1.207,0.4854l-21.9316-17.1611
		l8.6729-13.6855l-16.4355-1.9111l15.4531,38.4766l-3.123,1.2549L508.3789,698.1309z"/>
	<path d="M557.54,675.0967l21.0625,37.0654l-2.9268,1.6631l-21.0615-37.0654L557.54,675.0967z"/>
	<path d="M573.5088,665.2344l2.8076-1.8574l9.8311,14.8594l7.4727-0.9072l0.6934,1.0479l-7.4727,0.9072l13.002,19.6514
		l-2.8076,1.8574l-13.917-21.0361l-7.5723,0.9199l-0.668-1.0107l7.5459-0.957L573.5088,665.2344z"/>
	<path d="M624.6592,680.8965l-22.1064-5.6436l10.873,14.2285l-2.6738,2.0439l-25.8896-33.877l2.6738-2.0439l13.9531,18.2578
		l24.2754,6.1895L624.6592,680.8965z"/>
	<path d="M609.9717,637.4209l28.1221,32.0508l-2.5303,2.2197l-28.1221-32.0498L609.9717,637.4209z"/>
	<path d="M629.1611,619.0352l2.4063-2.418l30.2236,30.0791l-2.375,2.3857l-19.0654-9.5391l9.5986,19.0518l-2.374,2.3857
		l-30.2559-30.0469l2.4063-2.418l18.9707,9.4443L629.1611,619.0352z M639.2061,638.9746l-17.9854-8.9707l27.0107,26.8809
		L639.2061,638.9746z M630.8154,620.6816l9.0244,17.8467l17.9541,8.9395L630.8154,620.6816z"/>
	<path d="M640.2285,606.7637l32.1807,27.9619l-2.207,2.541l-32.1807-27.9629L640.2285,606.7637z"/>
	<path d="M656.7656,585.9678l2.0586-2.7188l33.9932,25.7295l-2.0313,2.6836l-20.1738-6.8828l12.0752,17.582l-2.0313,2.6836
		l-34.0195-25.6943l2.0586-2.7197l20.0654,6.8027L656.7656,585.9678z M669.4023,604.3701l-19.0254-6.4658l30.3789,22.9941
		L669.4023,604.3701z M658.627,587.377l11.3438,16.4658l18.9902,6.4385L658.627,587.377z"/>
	<path d="M661.5879,579.1484l12.9004-4.0479l16.4873,3.9893l15.127,9.9131l-0.7373,1.126l-14.9023-9.7646l-15.9385-3.8447
		l-11.7207,3.6406l34.3457,22.5059l-1.8691,2.8525l-35.6602-23.3672L661.5879,579.1484z"/>
	<path d="M675.7803,556.2461l1.6494-2.9346l15.5313,8.7295l6.2334-4.2197l1.0947,0.6152l-6.2324,4.2197l20.54,11.5439
		l-1.6494,2.9346L690.96,564.7773l-6.3154,4.2754l-1.0566-0.5938l6.2773-4.2979L675.7803,556.2461z"/>
	<path d="M694.123,551.0674l-2.0264-0.9639l-5.7959-13.9365l13.4551-4.7822l2.0264,0.9629l-11.2422,3.9961l34.9746,16.6318
		l-1.4453,3.04l-34.7725-16.5352L694.123,551.0674z"/>
</g>
<g>
	<path d="M416.333,476.7197h-2c-0.001,31.4873-12.7568,59.9736-33.3901,80.6104c-20.6362,20.6328-49.124,33.3887-80.6104,33.3896
		c-31.4863-0.001-59.9736-12.7568-80.6099-33.3896c-20.6328-20.6367-33.3887-49.123-33.3896-80.6104
		c0.001-31.4873,12.7568-59.9746,33.3896-80.6104c20.6362-20.6328,49.123-33.3887,80.6099-33.3896
		c31.4863,0.001,59.9741,12.7568,80.6104,33.3896c20.6333,20.6367,33.3892,49.123,33.3901,80.6104H416.333h2
		c-0.001-65.1709-52.8301-117.9985-118.0005-118c-65.1704,0.0015-117.998,52.8291-117.9995,118
		c0.0015,65.1709,52.8291,117.999,117.9995,118c65.1704-0.001,117.9995-52.8291,118.0005-118H416.333"/>
	<polygon points="200.8647,533 202.5942,534.0039 299.8267,366.5762 395.3145,531 200.8647,531 200.8647,533 202.5942,534.0039 
		200.8647,533 200.8647,535 402.2627,535 299.8267,358.6113 197.3901,535 200.8647,535 	"/>
	<polyline points="200.8647,420 199.1328,421 299.8267,595.4072 402.2529,418 197.4009,418 199.1328,421 200.8647,420 200.8647,422 
		395.3242,422 299.8267,587.4072 202.5967,419 200.8647,420 200.8647,422 200.8647,420 	"/>
	<path d="M400,360.0781c-14.2529,0.0005-26.7607,7.4688-33.8237,18.7061c0.5522,0.3721,1.105,0.751,1.6504,1.1323
		c1.5293-2.4438,3.3296-4.7021,5.3584-6.7314c6.8657-6.8643,16.3398-11.1064,26.8149-11.1069
		c10.4756,0.0005,19.9492,4.2427,26.8145,11.1069c6.8643,6.8657,11.1064,16.3398,11.1074,26.8149h1h1l0,0
		C439.9209,377.9512,422.0488,360.0786,400,360.0781"/>
	<path d="M366.1763,378.7842c-0.2466,0.3926-0.4863,0.7886-0.7197,1.1904c0.5547,0.374,1.1055,0.7524,1.6533,1.1357
		c0.2319-0.4028,0.4707-0.8003,0.7168-1.1938C367.2813,379.5352,366.7285,379.1563,366.1763,378.7842"/>
	<path d="M439.9219,400h-1h-1c-0.001,10.4756-4.2432,19.9492-11.1074,26.8145c-4.3076,4.3076-9.6436,7.583-15.6084,9.4248
		c0.2285,0.625,0.4521,1.2559,0.6709,1.8857C428.126,433.0693,439.9209,417.9131,439.9219,400 M439.9219,400L439.9219,400
		L439.9219,400"/>
	<path d="M411.2061,436.2393c-0.4424,0.1367-0.8887,0.2656-1.3389,0.3867c0.2305,0.6279,0.4541,1.2568,0.6738,1.8896
		c0.4482-0.123,0.8936-0.2529,1.3359-0.3906C411.6582,437.4951,411.4346,436.8643,411.2061,436.2393"/>
	<g>
		<defs>
			<polyline id="SVGID_2_" points="183.7222,360.1094 416.9434,360.1094 416.9434,593.3301 183.7222,593.3301 183.7222,360.1094 			
				"/>
		</defs>
		<clipPath id="SVGID_3_">
			<use xlink:href="#SVGID_2_"  style="overflow:visible;"/>
		</clipPath>
		<path style="clip-path:url(#SVGID_3_);fill:#FFFFFF;" d="M364.2139,382.2856c-2.6479,5.3379-4.1357,11.3516-4.1357,17.7144
			c0,6.4756,1.542,12.5918,4.2788,18h2.2568c-2.8936-5.3545-4.5352-11.4834-4.5356-18c0.0005-5.9414,1.3652-11.561,3.7993-16.5649
			C365.3271,383.0474,364.7715,382.6636,364.2139,382.2856"/>
		<path style="clip-path:url(#SVGID_3_);" d="M365.4565,379.9746c-0.438,0.7544-0.8535,1.5264-1.2427,2.311
			c0.5576,0.3779,1.1133,0.7617,1.6636,1.1494c0.3843-0.7905,0.7959-1.5659,1.2324-2.3247
			C366.562,380.7271,366.0112,380.3486,365.4565,379.9746"/>
		<path style="clip-path:url(#SVGID_3_);" d="M366.6138,418h-2.2568c0.3428,0.6777,0.7051,1.3447,1.085,2h2.3325
			C367.3682,419.3467,366.9805,418.6797,366.6138,418"/>
		<path style="clip-path:url(#SVGID_3_);fill:#FFFFFF;" d="M391.3262,436.9258l-1.0425,1.8057
			c3.1099,0.7773,6.3652,1.1904,9.7163,1.1904c2.7363,0,5.4072-0.2754,7.9883-0.7998c-0.2227-0.6367-0.4502-1.2715-0.6836-1.9033
			c-2.3633,0.4609-4.8057,0.7031-7.3047,0.7031C397.0146,437.9219,394.1113,437.5771,391.3262,436.9258"/>
		<path style="clip-path:url(#SVGID_3_);" d="M409.8672,436.626c-0.8428,0.2266-1.6973,0.4248-2.5625,0.5928
			c0.2334,0.6318,0.4609,1.2666,0.6836,1.9033c0.8613-0.1748,1.7129-0.3779,2.5527-0.6064
			C410.3213,437.8828,410.0977,437.2539,409.8672,436.626"/>
		<path style="clip-path:url(#SVGID_3_);" d="M389.7661,436.5254l-1.0308,1.7852c0.5122,0.1504,1.0273,0.29,1.5483,0.4209
			l1.0425-1.8057C390.8018,436.8027,390.2817,436.6689,389.7661,436.5254"/>
		<path style="clip-path:url(#SVGID_3_);fill:#FFFFFF;" d="M369.1084,422h-2.4268c4.686,7.082,11.5674,12.582,19.6763,15.5303
			l1.0166-1.7607c-5.3926-1.9033-10.2261-4.9922-14.1895-8.9551C371.6973,425.3271,370.333,423.7168,369.1084,422"/>
		<path style="clip-path:url(#SVGID_3_);" d="M387.3745,435.7695l-1.0166,1.7607c0.7808,0.2832,1.5747,0.5439,2.3774,0.7803
			l1.0308-1.7852C388.9575,436.2988,388.1602,436.0469,387.3745,435.7695 M367.7744,420h-2.3325
			c0.394,0.6797,0.8076,1.3467,1.2397,2h2.4268C368.6436,421.3486,368.1982,420.6816,367.7744,420"/>
	</g>
</g>
<g>
	<path d="M566.333,210.7261l2.9561,7.626l11.3252-12.4429l1.082,0.9854l-12.4805,13.7134l-1.083-0.9854l0.0137-0.0146
		l-2.9697-7.6113L566.333,210.7261z"/>
	<path d="M568.5713,195.3633l-1.1406,5.5425l5.2637-2.0767l1.2998,1.0928l-6.9229,2.7461l-1.2988,6.2764l-7.0693,2.3433
		l1.0938-7.3667l5.959-2.3579l1.5156-7.2925L568.5713,195.3633z M565.3965,203.3257l-4.2852,1.7007l-0.6875,4.2148l4.0332-1.4019
		L565.3965,203.3257z"/>
	<path d="M553.4766,206.9771l-1.1455-9.5327l4.6641,1.1504l2.1289-10.6963l1.1553,0.897l-2.042,11.3809l-4.2783-0.8516
		l0.7725,6.1318l10.1563-13.084l1.1709,0.9092l-11.3643,14.6406l-0.7246-0.5625l-0.4473-0.3467L553.4766,206.9771z"/>
	<path d="M556.6563,186.0835l1.1895,0.8525l-10.7832,15.0869l-1.2061-0.8638l0.1709-0.2378l1.4004-6.8491l-6.1572,3.4658
		l-0.1592,0.2222l-1.2061-0.8638l10.8154-15.0645l1.1904,0.8525l-9.0557,12.6748l6.0361-3.4316l-1.3066,6.8193L556.6563,186.0835z"
		/>
	<path d="M531.9082,191.5957l10.1914-15.4814l1.0098,0.665l-2.8213,4.2861l-0.3477,6.1709l5.6445-2.6846l2.8369-4.2754l1.0107,0.665
		l-10.1904,15.4814l-1.0107-0.665l0.4863-6.5229l-5.7822,3.0366L531.9082,191.5957z M539.0869,182.8906l-4.8271,7.3335
		l4.4502-2.3262L539.0869,182.8906z M539.9326,188.7026l-0.3604,5.0181l4.8379-7.3496L539.9326,188.7026z"/>
	<path d="M518.6211,183.7788l8.9727-16.2207l1.2813,0.708l-8.9736,16.2212L518.6211,183.7788z"/>
	<path d="M514.6367,181.5869l-4.3408-7.6465l-2.1934,4.3564l-1.3076-0.6582l3.5098-6.9702l4.3418,7.6465l5.7021-11.3267
		l-8.7275,1.0664l3.5098-6.9702l1.3066,0.6582l-2.1934,4.3564l8.7275-1.0664L514.6367,181.5869z"/>
	<path d="M508.5264,168.271l-0.0264,0.0098l-8.1455,0.2412l5.3613-11.75l1.332,0.6055l-4.3184,9.5024l8.1455-0.2412l-4.8164,10.647
		l-1.3506-0.6138L508.5264,168.271z"/>
	<path d="M495.2178,172.4673l-2.5498-4.8545l0.3262-7.5161l2.9922-7.335l1.1748,0.479l-2.9043,7.1182l-0.3154,6.9727l2.1895,4.1382
		l0.2168,0.0889l6.5225-15.9888l1.373,0.5601l-7.002,17.1631L495.2178,172.4673z"/>
	<path d="M480.0977,166.6831l6.3203-17.4238l1.1377,0.4126l-1.75,4.8232l1.0938,6.0835l4.8672-3.9209l1.7686-4.8174l1.1367,0.4126
		l-6.3203,17.4238l-1.1367-0.4121l-1.041-6.4585l-4.9199,4.2964L480.0977,166.6831z M485.0605,156.5498l-2.9941,8.2534l3.79-3.2954
		L485.0605,156.5498z M487.2324,162.0068l0.8135,4.9648l3.001-8.2715L487.2324,162.0068z"/>
	<path d="M463.0293,161.5269l-1.1846-0.3276l4.9434-17.8589l1.1846,0.3276l1.0313,8.1182l5.0781-6.4272l1.1465,0.3174
		l-4.9238,17.8643l-1.166-0.3228l-1-8.2305l-5.0908,6.5449L463.0293,161.5269z M467.124,146.7324l-3.1553,11.4722l3.9404-5.0215
		L467.124,146.7324z M469.2383,153.5713l0.8301,6.3623l3.1895-11.5239L469.2383,153.5713z"/>
	<path d="M458.3398,141.3203l1.4854,5.459l3.7578-4.229l1.6533,0.3877l-4.9355,5.5762l1.6758,6.1855l-5.248,5.2827l-2.3516-7.0649
		l4.252-4.7954l-1.9414-7.1895L458.3398,141.3203z M459.1035,149.8569l-3.0547,3.4526l1.29,4.0703l2.9658-3.0723L459.1035,149.8569z
		"/>
	<path d="M444,151.8472l6.4873,4.9717l3.1963-16.5073l1.4365,0.2783l-3.5225,18.1919l-1.4365-0.2778l0.0039-0.019l-6.4912-4.9526
		L444,151.8472z"/>
	<path d="M437.9297,137.5698l1.9072,5.3267l3.416-4.5098l1.6777,0.2578l-4.4854,5.9448l2.1533,6.0356l-4.8193,5.6763l-2.8955-6.8604
		l3.8643-5.1123l-2.4961-7.0161L437.9297,137.5698z M439.3574,146.021l-2.7764,3.6802l1.6035,3.9575l2.7168-3.2944L439.3574,146.021
		z"/>
	<path d="M431.0674,155.3525l-5.9414-7.5483l4.583-1.4448l-3.749-10.2466l1.4541,0.165l4.1797,10.7861l-4.0986,1.5l3.8525,4.8364
		l1.8652-16.4658l1.4736,0.167l-2.0869,18.4243l-0.9121-0.103l-0.5625-0.064L431.0674,155.3525z"/>
	<path d="M412.5039,144.4824l-0.0195,0.0186l-7.4424,3.3252l0.4844-12.9087l1.4629,0.0522l-0.376,10.4331l7.4424-3.3247
		l-0.4014,11.6816l-1.4824-0.0537L412.5039,144.4824z"/>
	<path d="M399.0884,153.4434l-0.3047-18.54l1.4639-0.0244l0.3042,18.5405L399.0884,153.4434z"/>
	<path d="M385.355,147.4663l3.812,3.52l-0.6323-15.854l1.4624-0.0586l0.6318,15.835l3.501-3.7925l0.0781,1.9502l-4.2124,4.5625
		l-4.563-4.2124L385.355,147.4663z"/>
	<path d="M366.0166,150.2944l7.6919,2.771l-0.3887-3.3135l-7.731-2.7666l-0.1406-1.5356l7.6919,2.7715l-1.3911-11.8599
		l1.4531-0.1704l2.1602,18.4097l-1.4536,0.1704l-0.0024-0.0195l-7.6895-2.752L366.0166,150.2944z"/>
	<path d="M357.1533,157.0972l-2.8848-18.3086l1.1948-0.188l0.7988,5.0684l3.896,4.7979l2.3672-5.7847l-0.7793-5.0713l1.1948-0.1885
		l2.8848,18.3081l-1.1948,0.1885l-4.0313-5.1519l-2.2319,6.1387L357.1533,157.0972z M356.6021,145.8276l1.3667,8.6724l1.7256-4.7158
		L356.6021,145.8276z M361.1396,149.5562l3.1118,3.9536l-1.3696-8.6914L361.1396,149.5562z"/>
	<path d="M351.2085,139.3535l1.4351-0.2837l3.6143,18.1743l-1.4546,0.2876l-0.0566-0.2871l-4.0313-5.7046l-1.686,6.855
		l0.0527,0.2681l-1.4541,0.2876l-3.5757-18.1816l1.4351-0.2837l3.0386,15.2656l1.6289-6.7446l4.0732,5.6167L351.2085,139.3535z"/>
	<path d="M336.8008,155.0049l4.4209,2.7168l-3.6846-15.4321l1.4238-0.3403l3.6797,15.4136l2.7021-4.397l0.4531,1.8979
		l-3.2515,5.2905l-5.2905-3.251L336.8008,155.0049z"/>
	<path d="M306.4497,151.8599l6.8184,4.415l-2.2407-6.0977l1.373-0.5044l6.3926,17.395l-1.373,0.5044l-3.4453-9.375l-9.2827-5.6914
		L306.4497,151.8599z"/>
	<path d="M296.5693,155.814l4.3877,3.5718l0.5898-5.627l1.5693-0.6475l-0.7627,7.4077l4.9658,4.0508l-1.1875,7.3511l-6.0269-4.3726
		l0.6616-6.374L295,156.4619L296.5693,155.814z M302.1631,162.3076l-0.4712,4.5854l3.4199,2.5566l0.6201-4.2246L302.1631,162.3076z"
		/>
	<path d="M292.9302,168.646l-4.2778-9.3086l1.3301-0.6108l4.5791,9.9644l3.3145,0.1089l0.709,1.543l-3.2983-0.0737l2.4365,5.3013
		l-1.3296,0.6113l-2.7461-5.9751l-3.3062-0.0913l-0.7173-1.5605L292.9302,168.646z"/>
	<path d="M287.042,170.4028l-0.0088,0.0264l-4.8975,6.5137l-5.8315-11.5244l1.3047-0.6626l4.7271,9.3066l4.8975-6.5142
		l5.3091,10.4111l-1.3218,0.6714L287.042,170.4028z"/>
	<path d="M273.5972,166.8877l1.2783-0.7129l9.0479,16.1821l-1.2954,0.7227l-0.1426-0.2559l-5.5967-4.1855l0.5103,7.0449
		l0.1333,0.2388l-1.2954,0.7227l-9.0142-16.2017l1.2783-0.7129l7.603,13.5918l-0.5308-6.9219l5.6099,4.0889L273.5972,166.8877z"/>
	<path d="M260.0347,174.7993l7.5508,2.999l-3.3892-5.5435l1.249-0.7632l9.6685,15.8149l-1.2485,0.7632l-5.2109-8.5234l-10.2178-3.77
		L260.0347,174.7993z"/>
	<path d="M256.4746,191.6851l5.0859,1.0181l-8.7954-13.1992l1.2178-0.8115l8.7847,13.1831l1.0127-5.0591l1.082,1.6235
		l-1.2188,6.0874l-6.0874-1.2188L256.4746,191.6851z"/>
	<path d="M247.2012,183.3081l1.1855-0.8584l10.8877,15.0063l-1.2012,0.8696l-0.1719-0.2373l-6.0503-3.4985l1.335,6.936
		l0.1606,0.2217l-1.2017,0.8696l-10.856-15.0293l1.1855-0.8584l9.1479,12.6035l-1.3408-6.811l6.0518,3.4009L247.2012,183.3081z"/>
	<path d="M240.6445,203.5415l5.1489,0.6226l-9.7876-12.48l1.1514-0.9028l9.7759,12.4644l0.6191-5.1216l1.2036,1.5352l-0.7451,6.1626
		l-6.1626-0.7451L240.6445,203.5415z"/>
	<path d="M242.2207,210.502l-5.4854,0.0234l-6.5205-3.7578l-5.1294-6.0405l0.9668-0.8208l4.978,5.8613l6.043,3.4976l4.6831-0.0337
		l0.1787-0.1514l-11.1812-13.1665l1.1304-0.96l12.0024,14.1333L242.2207,210.502z"/>
	<path d="M235.4053,216.3823l-9.5928-0.4644l1.9141-4.4067l-10.1929-3.8872l1.0781-0.9902l10.8823,3.917l-1.5552,4.0771
		l6.1763,0.2632l-11.2056-12.2036l1.0923-1.0029l12.5391,13.6548l-0.6758,0.6206l-0.417,0.3828L235.4053,216.3823z"/>
	<path d="M212.8633,231.2681l7.6631-2.8594l-2.4395-2.2778l-7.6899,2.8877l-1.1006-1.0811l7.6631-2.8589l-8.7314-8.1523
		l0.999-1.0698l13.5537,12.6548l-0.999,1.0698l-0.0142-0.0132l-7.6489,2.8726L212.8633,231.2681z"/>
	<path d="M211.2695,241.2861l-0.8037,0.9307l-14.0317-12.1187l0.8037-0.9307l7.7827,2.5439l-3.6372-7.3442l0.7783-0.9009
		l14.0449,12.1035l-0.791,0.916l-7.8716-2.6206l3.7383,7.4063L211.2695,241.2861z M199.6455,231.2471l9.0225,7.7666l-2.8535-5.7139
		L199.6455,231.2471z M206.7354,232.2642l6.1079,1.9741l-9.0542-7.8193L206.7354,232.2642z"/>
	<path d="M206.7285,246.8696l-14.4961-11.5532l0.9121-1.144l14.4961,11.5532L206.7285,246.8696z"/>
	<path d="M203.9146,250.4185l-8.2666,3.002l3.9292,2.8916l-0.8677,1.1787l-6.2866-4.6265l8.2666-3.002l-10.2158-7.5181
		l-0.4082,8.7852l-6.2866-4.6265l0.8677-1.1787l3.9292,2.8916l0.4077-8.7852L203.9146,250.4185z"/>
	<path d="M195.3472,262.4229l-15.3511-10.3936l0.8203-1.2119l15.3511,10.3936L195.3472,262.4229z"/>
	<path d="M184.1953,262.5615l0.0063,0.0269l-0.8135,8.1094l-10.9595-6.835l0.7725-1.2432l8.8652,5.5103l0.8135-8.1089l9.9365,6.1528
		l-0.7827,1.2593L184.1953,262.5615z"/>
	<path d="M185.2153,278.8154l-16.1196-9.1611l0.7236-1.2725l16.1191,9.1611L185.2153,278.8154z"/>
	<path d="M163.3867,280.2803l8.0103-1.3423l-5.7671-2.9878l0.6729-1.2988l16.4531,8.5239l-0.6729,1.2988l-8.8672-4.5938
		l-10.6904,2.0625L163.3867,280.2803z"/>
	<path d="M176.3872,295.9595l-16.7861-7.8711l0.6211-1.3252l16.7861,7.8711L176.3872,295.9595z"/>
	<path d="M164.7402,301.7886l-9.437-3.9814l0.5688-1.3481l10.1016,4.2622l2.519-2.1558l1.564,0.6597l-2.4829,2.1709l5.3745,2.2676
		l-0.5688,1.3481l-6.0576-2.5557l-2.501,2.1631l-1.5815-0.667L164.7402,301.7886z"/>
	<path d="M153.3857,302.4199l4.1484,3.769l4.3555-0.0508l3.7842,2.9648l5.022-0.0503l-0.4736,1.2603l-7.9707,0.1304l5.9106,5.3486
		l-0.4873,1.2969l-4.1812-3.7397l-4.1016,0.0425l-3.604-2.835l-5.4927,0.0825l0.5151-1.3701l8.062-0.0962l-6.002-5.3833
		L153.3857,302.4199z M160.2988,310.4805l-2.7681,0.0435l2.0928,1.6416l2.4849-0.0669L160.2988,310.4805z M158.9492,307.4717
		l1.8872,1.689l2.6128-0.0181l-2.0747-1.6348L158.9492,307.4717z"/>
	<path d="M146.1699,323.1924l0.4072-1.4053l17.8066,5.1416l-0.4131,1.4243l-0.2813-0.0815l-6.9199,0.9595l5.3145,4.6484
		l0.2627,0.0762l-0.4131,1.4238l-17.7954-5.1792l0.4072-1.4053l14.9585,4.3164l-5.2432-4.5469l6.8618-1.0371L146.1699,323.1924z"/>
	<path d="M154.3979,343.4146l5.2979-6.2251l-16.3232-4.0381l0.3516-1.4204l17.9893,4.4502l-0.3516,1.4204l-0.0186-0.0049
		l-5.2788,6.23L154.3979,343.4146z"/>
	<path d="M158.377,350.5474l-18.1489-3.7402l0.2954-1.4326l18.1489,3.7397L158.377,350.5474z"/>
	<path d="M149.7974,362.6045l4.2197-3.0205l-15.6558-2.5928l0.2393-1.4443l15.6367,2.5894l-3.0049-4.1973l1.9258,0.3188
		l3.6152,5.0503l-5.0503,3.6152L149.7974,362.6045z"/>
	<path d="M144.6436,384.4492l0.0186,0.02l3.2363,7.4785L135,391.312l0.0698-1.4614l10.4248,0.498l-3.2363-7.4785l11.6729,0.5381
		l-0.0708,1.481L144.6436,384.4492z"/>
	<path d="M134.9536,394.3286l0.0239-1.4634l18.5405,0.2847l-0.0244,1.4834l-0.2925-0.0049l-6.4287,2.7446l6.3521,3.0908
		l0.2734,0.0044l-0.0244,1.4829l-18.5396-0.3232l0.0239-1.4639l15.5737,0.2363l-6.2559-3.0117l6.3516-2.8042L134.9536,394.3286z"/>
	<path d="M153.6182,410.2793l0.0356,1.2285l-18.5254,0.5371l-0.0356-1.2285l7.4551-3.3779l-7.6387-2.96l-0.0342-1.1895
		l18.5249-0.5557l0.0352,1.209l-7.5723,3.3809l7.7549,2.9365L153.6182,410.2793z M144.1851,406.6885l5.8364-2.667l-11.9536,0.3457
		L144.1851,406.6885z M138.2715,410.7236l11.8945-0.3633l-5.96-2.2871L138.2715,410.7236z"/>
	<path d="M155.1299,429.2881l0.1284,1.2227l-18.4385,1.9424l-0.1289-1.2227l7.1802-3.9355l-7.8447-2.3721l-0.1245-1.1846
		l18.4365-1.9619l0.127,1.2041l-7.2969,3.9473l7.959,2.3408L155.1299,429.2881z M145.4473,426.4229l5.6191-3.1045l-11.8979,1.2539
		L145.4473,426.4229z M139.8545,430.8975l11.8379-1.2666l-6.1196-1.8281L139.8545,430.8975z"/>
	<path d="M138.0361,441.042l4.5347-3.3799l-5.3096-1.9473l-0.2441-1.6797l6.9937,2.5508l5.1406-3.8223l6.8345,2.9473l-5.7114,4.7734
		l-6.0166-2.2002l-5.9771,4.4375L138.0361,441.042z M145.6978,437.208l4.3296,1.5771l3.3145-2.6895l-3.9434-1.6338L145.6978,437.208
		z"/>
	<path d="M140.728,455.667l-0.3228-1.4277l18.0723-4.1064l0.3271,1.4463l-0.2856,0.0645l-5.5938,4.1846l6.8994,1.5l0.2666-0.0596
		l0.3267,1.4453l-18.0806,4.0693l-0.3228-1.4268l15.1797-3.4531l-6.7871-1.4453l5.5049-4.2246L140.728,455.667z"/>
	<path d="M161.9316,464.4814l-17.9023,4.7832l-0.3779-1.4131l17.9023-4.7832L161.9316,464.4814z"/>
	<path d="M163.769,470.9521l-2.1289,5.0527l-6.0112,4.5205l-7.564,2.3486l-0.376-1.2109l7.3403-2.2793l5.585-4.1846l1.8052-4.3184
		l-0.0698-0.2236l-16.4883,5.1182l-0.4395-1.416l17.6992-5.4941L163.769,470.9521z"/>
	<path d="M157.7798,482.5283l0.0249,0.0117l5.8262,5.6963l-12.1782,4.2949l-0.4888-1.3799l9.8369-3.4854l-5.8267-5.6963
		l11.0073-3.9209l0.4951,1.3975L157.7798,482.5283z"/>
	<path d="M172.4702,495.2783l-17.2212,6.8701l-0.4482-1.123l4.7676-1.9023l3.8169-4.8643l-6.1675-1.0273l-4.7749,1.8838
		l-0.4482-1.124l17.2207-6.8711l0.4487,1.124l-4.1323,5.0742l6.4829,0.8174L172.4702,495.2783z M164.2305,493.0596l3.1675-3.9111
		l-8.1753,3.2617L164.2305,493.0596z M161.5986,498.3125l8.1572-3.2549l-4.9829-0.6377L161.5986,498.3125z"/>
	<path d="M158.748,510.0996l3.4502-4.4824l-5.6396-0.4365l-0.6904-1.5508l7.4243,0.5596l3.9126-5.0732l7.3794,0.9863l-4.2056,6.1426
		l-6.3882-0.4873l-4.5522,5.8926L158.748,510.0996z M165.085,504.3311l4.5957,0.3457l2.4619-3.4873l-4.2393-0.5049L165.085,504.3311
		z"/>
	<path d="M180.0879,511.6748l0.5439,1.1025l-16.6265,8.2051l-0.5444-1.1025l5.374-6.1777l-8.1807,0.4893l-0.5269-1.0674
		l16.6182-8.2227l0.5352,1.0859l-5.479,6.2285l8.2773-0.5586L180.0879,511.6748z M170.0117,512.3379l4.1978-4.8574l-10.7285,5.2949
		L170.0117,512.3379z M166.314,518.4717l10.6675-5.2852l-6.374,0.4023L166.314,518.4717z"/>
	<path d="M184.5552,532.6045l1.2822-5.0283l-13.646,8.1006l-0.7471-1.2588l13.6289-8.0908l-5.002-1.2754l1.6782-0.9971
		l6.0186,1.5352l-1.5347,6.0186L184.5552,532.6045z"/>
	<path d="M175.7007,541.4229l-0.7954-1.2285l15.5435-10.0908l0.8062,1.2441l-0.2456,0.1592l-3.8057,5.8584l6.9927-0.9736
		l0.229-0.1484l0.8062,1.2451l-15.5645,10.0576l-0.7954-1.2275l13.0547-8.4795l-6.8687,0.9863l3.7085-5.8652L175.7007,541.4229z"/>
	<path d="M200.7412,545.3242l-15.1484,10.6836l-0.6973-0.9893l4.1938-2.957l2.5811-5.6172l-6.2358,0.4346l-4.2051,2.9414
		l-0.6973-0.9883l15.1484-10.6836l0.6973,0.9883l-2.8394,5.8945l6.4941-0.7119L200.7412,545.3242z M192.2139,545.082l2.1709-4.5391
		l-7.1914,5.0713L192.2139,545.082z M190.875,550.8018l7.1758-5.0605l-4.9937,0.5371L190.875,550.8018z"/>
	<path d="M201.2607,546.0381l0.5703,8.7773l3.876-2.9639l0.8892,1.1631l-6.2012,4.7422l-0.5703-8.7783l-10.0771,7.707l8.3218,2.8496
		l-6.2012,4.7422l-0.8892-1.1631l3.876-2.9639l-8.3218-2.8496L201.2607,546.0381z"/>
	<path d="M197.375,570.9824l2.1143-5.249l-5.5508,1.1006l-1.0835-1.3076l7.3037-1.4629l2.4014-5.9434l7.375-1.041l-2.3945,7.0527
		l-6.2861,1.2539l-2.7964,6.9043L197.375,570.9824z M201.9238,563.7158l4.521-0.9063l1.4312-4.0244l-4.2202,0.6572
		L201.9238,563.7158z"/>
	<path d="M214.3164,562.2773l-0.5811,9.582l-4.3813-1.9668l-4.0093,10.1387l-0.9761-1.0889l4.0474-10.8281l4.0557,1.6035
		l0.3384-6.1689l-12.333,11.0498l-0.9893-1.1035l13.8003-12.3652l0.6113,0.6826l0.3779,0.4209L214.3164,562.2773z"/>
	<path d="M229.9834,578.584l-12.8145,13.3936l-1.0576-1.0117l12.8145-13.3936L229.9834,578.584z"/>
	<path d="M231.7939,591.4746l-6.793,7.6748l-1.0967-0.9707l7.272-8.2148l-1.2383-3.0781l1.1255-1.2715l1.2646,3.0479l3.8687-4.3701
		l1.0967,0.9697l-4.3608,4.9268l1.2515,3.0635l-1.1387,1.2861L231.7939,591.4746z"/>
	<path d="M234.0342,606.7578l0.3394-8.1201l-4.1157,5.0303l-1.1328-0.9277l11.7417-14.3506l1.1328,0.9268l-6.3281,7.7344
		l-0.187,10.8936L234.0342,606.7578z"/>
	<path d="M252.0674,597.2754l-11.1763,14.8008l-1.1685-0.8828l11.1768-14.7998L252.0674,597.2754z"/>
	<path d="M261.8765,604.3057l1.0093,0.7021l-10.582,15.2207l-1.0093-0.7021l1.7153-8.0049l-6.9224,4.3848l-0.9775-0.6797
		l10.5659-15.2314l0.9937,0.6904l-1.7822,8.1016l6.9731-4.4922L261.8765,604.3057z M253.3799,609.7588l1.3242-6.2803l-6.8281,9.8213
		L253.3799,609.7588z M253.1104,616.915l6.7783-9.7842l-5.3823,3.4346L253.1104,616.915z"/>
	<path d="M267.8984,608.2471l-9.9873,15.6123l-1.2329-0.7881l9.9878-15.6123L267.8984,608.2471z"/>
	<path d="M278.2388,614.4775l1.061,0.6211l-9.3643,16.0029l-1.061-0.6211l1.0854-8.1162l-6.5605,4.9131l-1.0273-0.6016
		l9.3472-16.0127l1.0444,0.6104l-1.1445,8.2178l6.6025-5.0234L278.2388,614.4775z M270.1914,620.5781l0.8306-6.3662l-6.0425,10.3262
		L270.1914,620.5781z M270.481,627.7354l5.9961-10.2861l-5.0991,3.8457L270.481,627.7354z"/>
	<path d="M281.9878,616.5693l2.0381,5.0908l-1.0967,7.4414l-3.7295,6.9883l-1.1187-0.5967l3.6191-6.7813l1.0303-6.9033
		l-1.7524-4.3408l-0.2065-0.1104l-8.1294,15.2324l-1.3081-0.6973l8.7261-16.3516L281.9878,616.5693z"/>
	<path d="M289.7656,629.8604l-4.4697,9.2207l-1.3174-0.6387l4.7852-9.8701l-2.0225-2.6289l0.7407-1.5283l2.0396,2.5938l2.5459-5.251
		l1.3169,0.6387l-2.8691,5.9189l2.0308,2.6113l-0.749,1.5449L289.7656,629.8604z"/>
	<path d="M302.7593,633.585l-1.8936-4.8311l-6.3516,14.5391l-1.3413-0.5859l6.3438-14.5215l-4.8047,1.8838l0.7813-1.7881
		l5.7813-2.2666l2.2661,5.7822L302.7593,633.585z"/>
	<path d="M316.9063,632.2402l2.8057,4.7109l0.0757,7.5215l-2.5957,7.4844l-1.1982-0.416l2.519-7.2627l-0.0571-6.9785l-2.4072-4.0146
		l-0.2212-0.0771l-5.6582,16.3125l-1.4009-0.4854l6.0737-17.5107L316.9063,632.2402z"/>
	<path d="M330.5234,643.2871l-2.4473-4.5752l-4.6021,15.1846l-1.4009-0.4248l4.5967-15.166l-4.5513,2.4346l0.5664-1.8682
		l5.4756-2.9287l2.9287,5.4766L330.5234,643.2871z"/>
	<path d="M349.7202,646.9561l-6.3618-5.1377l-3.6172,16.4287l-1.4292-0.3145l3.9863-18.1055l1.4292,0.3145l-0.0044,0.0186
		l6.3667,5.1191L349.7202,646.9561z"/>
	<path d="M359.4287,648.7246l-6.5591-4.8857l-0.5898,3.2852l6.5977,4.8926l-0.311,1.5107l-6.5591-4.8857l-2.1104,11.7568
		l-1.4409-0.2588l3.2764-18.25l1.4404,0.2588l-0.0034,0.0195l6.563,4.8662L359.4287,648.7246z"/>
	<path d="M369.4341,648.4043l-0.2363,1.7012l-6.1445,2.9502l5.2202,3.5625l-0.2095,1.5078l-7.9482,4.0195l-1.4502-0.2012
		l2.5513-18.3662l1.4502,0.2012L369.4341,648.4043z M361.6787,653.7314l-0.4219,0.1973l-0.9399,6.7666l6.6147-3.3574
		L361.6787,653.7314z M362.4653,645.2295l-0.9424,6.7861l0.3433,0.2246l6.2314-3.1543L362.4653,645.2295z"/>
	<path d="M375.9761,664.0508l-2.1841-5.2168l-3.1729,4.6816l-1.6885-0.168l4.1641-6.1709l-2.4678-5.9121l4.5117-5.9199l3.252,6.6953
		l-3.5879,5.3076l2.8618,6.8721L375.9761,664.0508z M374.106,655.6895l2.5767-3.8193l-1.8096-3.8662l-2.5381,3.4316
		L374.106,655.6895z"/>
	<path d="M381.8945,645.9424l6.3257,7.2207l-4.4985,1.6836l4.2803,10.0283l-1.4604-0.0879l-4.7373-10.5449l4.0112-1.7119
		l-4.0981-4.625l-0.9971,16.5303l-1.48-0.0889l1.1162-18.4971l0.915,0.0557l0.5645,0.0332L381.8945,645.9424z"/>
	<path d="M391.0659,664.9785l-1.4629-0.0322l0.3867-18.5264l1.4819,0.0332l-0.0063,0.292l2.707,6.4395l3.124-6.3311l0.0059-0.2734
		l1.4819,0.0332l-0.4253,18.5254l-1.4624-0.0322l0.3213-15.5625l-3.0435,6.2354l-2.7676-6.3623L391.0659,664.9785z"/>
	<path d="M411.4697,664.8818l-1.4609,0.0791l-1.0195-18.5098l1.4805-0.0801l0.0156,0.292l3.1895,6.2178l2.6357-6.5518
		l-0.0146-0.2734l1.4814-0.0791l0.9805,18.5117l-1.4619,0.0791l-0.8594-15.5488l-2.5635,6.4512l-3.2432-6.1367L411.4697,664.8818z"
		/>
	<path d="M427.96,651.4277l-3.9902-3.3125l1.4639,15.792l-1.457,0.1348l-1.4619-15.7725l-3.2959,3.9688l-0.1807-1.9424
		l3.9658-4.7754l4.7754,3.9648L427.96,651.4277z"/>
	<path d="M445.0088,642.5029l1.2109-0.207l3.1309,18.2646l-1.2109,0.207l-4.3906-6.9063l-1.8584,7.9775l-1.1719,0.2012
		l-3.1504-18.2617l1.1914-0.2041l4.4102,7.0215l1.8193-8.0889L445.0088,642.5029z M442.7773,652.3457l-3.46-5.4033l2.0205,11.7852
		L442.7773,652.3457z M447.6025,657.6338l-2.0303-11.7246l-1.4268,6.2217L447.6025,657.6338z"/>
	<path d="M457.8428,658.791l-3.6689-4.3076l-1.5996,5.4277l-1.6602,0.3525l2.0908-7.1484l-4.1504-4.8828l2.498-7.0156l5.1377,5.3916
		l-1.8057,6.1504l4.8193,5.6787L457.8428,658.791z M453.5166,651.3906l1.293-4.4248l-2.9004-3.1338l-1.375,4.043L453.5166,651.3906z
		"/>
	<path d="M466.3047,643.1631l-7.9883-1.7334l4.1436,16.2969l-1.418,0.3604l-4.5664-17.96l1.418-0.3613l0.0049,0.0195l7.9834,1.7139
		L466.3047,643.1631z"/>
	<path d="M477.8896,653.4961l-3.9941-4.0059l-1.1689,5.5352l-1.6279,0.4814l1.5254-7.2881l-4.5195-4.542l1.9414-7.1875l5.542,4.9717
		l-1.3184,6.2705l5.2471,5.2832L477.8896,653.4961z M472.998,646.46l0.9434-4.5117l-3.1367-2.8965l-1.0537,4.1377L472.998,646.46z"
		/>
	<path d="M476.5264,634.4893l8.5879,4.2979l-3.5303,3.2588l7.7549,7.6719l-1.3857,0.4697l-8.374-7.9766l3.0684-3.1016
		l-5.5439-2.7344l5.3252,15.6875l-1.4053,0.4766l-5.957-17.5537l0.8682-0.2949l0.5361-0.1816L476.5264,634.4893z"/>
	<path d="M492.2178,648.6484l-1.3662,0.5254l-6.6719-17.3008l1.3848-0.5322l0.1045,0.2734l4.9502,4.9346l0.4902-7.0469
		l-0.0977-0.2559l1.3848-0.5322l6.6348,17.3154l-1.3662,0.5254l-5.6074-14.5322l-0.4521,6.9287l-4.9766-4.8408L492.2178,648.6484z"
		/>
	<path d="M509.7344,620.9199l7.9727,16.7285l-1.0918,0.5205l-2.207-4.6318l-5.0996-3.4902l-0.623,6.2178l2.1895,4.6396
		l-1.0918,0.5205l-7.9727-16.7285l1.0918-0.5205l5.3291,3.792l0.3936-6.5186L509.7344,620.9199z M508.0586,629.2822l-4.1074-2.9053
		l3.7852,7.9414L508.0586,629.2822z M513.4678,631.5654l-3.7764-7.9238l-0.3125,5.0107L513.4678,631.5654z"/>
	<path d="M520.7939,621.1885l-8.1758,0.1748l1.5527,2.9531l8.21-0.1924l0.6826,1.3828l-8.1748,0.1738l5.5557,10.5713l-1.2949,0.6807
		l-8.625-16.4092l1.2949-0.6807l0.0098,0.0176l8.166-0.1924L520.7939,621.1885z"/>
	<path d="M528.3154,632.0879l-0.8115-5.5479l-3.3975-2.7266l-1.04-4.6953l-3.9121-3.1504l1.166-0.6729l6.2412,4.9619l-1.1689-7.8867
		l1.2002-0.6924l0.8555,5.5449l3.1953,2.5723l0.9844,4.4795l4.2959,3.4258l-1.2686,0.7305l-6.2891-5.0459l1.2178,7.9717
		L528.3154,632.0879z M527.2256,624.6504l-0.3848-2.5039l-2.0303-1.6455l0.5645,2.5811L527.2256,624.6504z M528.0947,621.4688
		l2.166,1.7246l-0.5742-2.5977l-1.9629-1.5273L528.0947,621.4688z"/>
	<path d="M536.3633,615.3545l5.4629,8.667l-1.2383,0.7813l-5.8477-9.2793l-3.3008,0.3271l-0.9053-1.4365l3.2793-0.3594
		l-3.1113-4.9365l1.2383-0.7803l3.5068,5.5635l3.29-0.3438l0.916,1.4531L536.3633,615.3545z"/>
	<path d="M545.8311,605.5137l-8.0996,1.127l1.8867,2.752l8.1318-1.1484l0.8389,1.2939l-8.0996,1.127l6.752,9.8516l-1.207,0.8271
		l-10.4805-15.293l1.207-0.8271l0.0107,0.0166l8.0889-1.1436L545.8311,605.5137z"/>
	<path d="M561.2539,593.6299l-7.9873,1.7471l2.0928,2.5986l8.0176-1.7715l0.9365,1.2256l-7.9873,1.7471l7.4893,9.3008l-1.1396,0.918
		l-11.626-14.4385l1.1396-0.918l0.0127,0.0156l7.9756-1.7627L561.2539,593.6299z"/>
	<path d="M568.7021,587.1729l-7.9131,2.0557l11.0488,12.6797l-1.1035,0.9609l-12.1758-13.9736l1.1025-0.9609l0.0127,0.0146
		l7.9004-2.0713L568.7021,587.1729z"/>
	<path d="M569.5381,579.0371l12.7129,13.4961l-1.0654,1.0029l-12.7129-13.4951L569.5381,579.0371z"/>
	<path d="M578.9697,569.6543l13.2344,12.9883l-1.0254,1.0449l-6.6172-6.4941l-8.2891,2.1201l1.6172-8.5586l0.0547-0.0557
		L578.9697,569.6543z M583.3223,575.9766l-3.999-3.9238l-1.3145,5.5469L583.3223,575.9766z"/>
	<path d="M581.0352,567.4131l5.4365-0.7314l6.9512,2.8848l5.8672,5.3281l-0.8525,0.9395l-5.6934-5.1709l-6.4453-2.6875
		l-4.6396,0.6377l-0.1572,0.1729l12.7881,11.6143l-0.9971,1.0977l-13.7275-12.4658L581.0352,567.4131z"/>
	<path d="M595.8027,558.6182l-7.4971,3.2568l2.5547,2.1445l7.5215-3.2861l1.1553,1.0205l-7.4971,3.2568l9.1426,7.6758
		l-0.9404,1.1201l-14.1914-11.915l0.9404-1.1201l0.0146,0.0117l7.4824-3.2686L595.8027,558.6182z"/>
	<path d="M604.8027,537.3799l5.2559-1.5625l7.3096,1.7754l6.6162,4.3555l-0.6973,1.0596l-6.4209-4.2266l-6.7783-1.6592
		l-4.4834,1.3467l-0.1289,0.1953l14.4219,9.4932l-0.8154,1.2383l-15.4814-10.1904L604.8027,537.3799z"/>
	<path d="M618.8564,526.9053l-5.0371,1.2451l13.583,8.1992l-0.7559,1.2539l-13.5674-8.1904l1.2383,5.0107l-1.6709-1.0088
		l-1.4902-6.0283l6.0293-1.4902L618.8564,526.9053z"/>
	<path d="M635.6348,521.6475l-0.6582,1.3066l-16.5625-8.3174l0.667-1.3242l0.2607,0.1318l6.9795,0.3242l-4.373-5.543l-0.2441-0.123
		l0.667-1.3242l16.5449,8.3525l-0.6572,1.3066l-13.915-6.9844l4.3213,5.4307l-6.9355-0.2373L635.6348,521.6475z"/>
	<path d="M632.5029,504.5654l9.3242,4.2373l-0.6055,1.332l-9.9814-4.5361l-2.5771,2.0859l-1.5449-0.7021l2.541-2.1025
		l-5.3105-2.4131l0.6055-1.332l5.9854,2.7197l2.5586-2.0938l1.5635,0.71L632.5029,504.5654z"/>
	<path d="M628.6387,492.5078l17.1631,7.002l-0.5527,1.3545l-17.1631-7.001L628.6387,492.5078z"/>
	<path d="M633.3262,480.0742l17.4248,6.3193l-0.4131,1.1377l-4.8232-1.75l-6.083,1.0938l3.9209,4.8672l4.8164,1.7676l-0.4121,1.1377
		l-17.4238-6.3203l0.4121-1.1367l6.458-1.041l-4.2959-4.9199L633.3262,480.0742z M638.0029,487.208l-4.9648,0.8135l8.2715,3.001
		L638.0029,487.208z M643.46,485.0361l-8.2529-2.9932l3.2949,3.7891L643.46,485.0361z"/>
	<path d="M643.9854,463.2285l-5.4668,6.0762l3.2148,0.8896l5.4766-6.1143l1.4746,0.4492l-5.4658,6.0762l11.5049,3.1846
		l-0.3906,1.4102l-17.8594-4.9434l0.3906-1.4102l0.0186,0.0049l5.4482-6.0811L643.9854,463.2285z"/>
	<path d="M640.7451,453.627l0.2803-1.1973l18.0479,4.2334l-0.2813,1.1963l-8.0732,1.3535l6.626,4.8213l-0.2725,1.1582
		l-18.0518-4.2139l0.2764-1.1777l8.1875-1.3262l-6.7441-4.8291L640.7451,453.627z M648.9434,459.5176l-6.3262,1.082l11.6455,2.7314
		L648.9434,459.5176z M655.6963,457.1338l-11.5928-2.6992l5.1758,3.7393L655.6963,457.1338z"/>
	<path d="M644.3301,433.6768l18.3223,2.8262l-0.1836,1.1963l-5.0732-0.7832l-5.7578,2.252l4.791,4.0166l5.0693,0.8018
		l-0.1846,1.1963l-18.3223-2.8271l0.1846-1.1953l6.1357-2.2725l-5.1689-3.9961L644.3301,433.6768z M650.3008,439.7715
		l-4.7139,1.7607l8.6982,1.3418L650.3008,439.7715z M655.2354,436.583l-8.6787-1.3389l3.9678,3.0801L655.2354,436.583z"/>
	<path d="M645.0381,427.7422l18.4092,2.1016l-0.166,1.4531l-18.4092-2.1016L645.0381,427.7422z"/>
	<path d="M654.207,418.5098l10.2139,0.7695l-0.1104,1.459l-10.9336-0.8232l-1.7012,2.8457l-1.6924-0.127l1.6621-2.8486
		l-5.8164-0.4385l0.1094-1.459l6.5566,0.4932l1.6816-2.8467l1.7119,0.1289L654.207,418.5098z"/>
	<path d="M646.4277,408.498l18.5254,0.667l-0.0527,1.4629l-18.5254-0.667L646.4277,408.498z"/>
	<path d="M646.4971,395.3315l18.54-0.3047l0.0195,1.21l-5.1328,0.0845l-5.2959,3.1909l5.4004,3.1519l5.1328-0.0645l0.0205,1.21
		l-18.541,0.3037l-0.0195-1.21l5.666-3.2749l-5.7705-3.0674L646.4971,395.3315z M657.7383,396.3569l-8.7822,0.1445l4.4316,2.3672
		L657.7383,396.3569z M653.4111,400.3325l-4.3506,2.5308l8.8018-0.1445L653.4111,400.3325z"/>
	<path d="M646.1563,384.9141l-0.1143-1.459l9.2412-0.7251l-4.4668-7.0293l1.4629-0.0757l4.4629,6.9907l2.918-0.229l-4.4629-6.9902
		l1.459-0.1147l4.4629,6.9907l3.4053-0.2671l0.1143,1.459L646.1563,384.9141z"/>
	<path d="M663.627,371.6514l0.1719,1.4531l-18.4072,2.1938l-0.1738-1.4727l0.29-0.0342l6.0029-3.5781l-6.7061-2.2139l-0.2715,0.0317
		l-0.1738-1.4727l18.4121-2.1548l0.1709,1.4531l-15.4619,1.8462l6.6006,2.1479l-5.918,3.6265L663.627,371.6514z"/>
	<path d="M651.6113,359.1392l10.1182-1.5942l0.2275,1.4453l-10.8311,1.7065l-1.0029,3.1602l-1.6768,0.2642l0.9648-3.1543
		l-5.7627,0.9082l-0.2275-1.4453l6.4951-1.0234l0.9834-3.1572l1.6963-0.2671L651.6113,359.1392z"/>
	<path d="M641.7559,351.1934l18.1777-3.5947l0.2842,1.4351l-18.1777,3.5952L641.7559,351.1934z"/>
	<path d="M644.0215,336.9629l-1.8447,7.9688l3.2461-0.7778l1.8359-8.0063l1.5078-0.3213l-1.8438,7.9688l11.6162-2.7832
		l0.3418,1.4238l-18.0332,4.3198l-0.3408-1.4238l0.0186-0.0044l1.8262-7.9639L644.0215,336.9629z"/>
	<path d="M636.2256,328.9331l17.8447-5.0156l0.3271,1.1646l-4.9404,1.3887l-4.3066,4.4331l6.0225,1.6714l4.9453-1.3696
		l0.3271,1.1646l-17.8438,5.0156l-0.3271-1.1646l4.6426-4.6089l-6.3584-1.4956L636.2256,328.9331z M647.3535,327.062l-8.4531,2.3755
		l4.8867,1.1602L647.3535,327.062z M644.1826,332.0063l-3.5605,3.5547l8.4717-2.3809L644.1826,332.0063z"/>
	<path d="M626.3672,301.98l17.1338-7.0737l0.5586,1.3525l-8.5664,3.5371l-1.3018,8.4536l-7.2363-4.8442l-0.0293-0.0723
		L626.3672,301.98z M633.8877,300.4585l-5.1768,2.1372l4.585,3.3848L633.8877,300.4585z"/>
	<path d="M625.1172,299.2139l1.457-5.2871l5.377-5.2627l7.1982-3.3081l0.5303,1.1523l-6.9863,3.2104l-4.9971,4.8735l-1.2314,4.5171
		l0.0977,0.2129l15.6914-7.2109l0.6191,1.3472l-16.8438,7.7407L625.1172,299.2139z"/>
	<path d="M619.6738,287.8774l16.5254-8.3931l0.6631,1.3047l-16.5254,8.3931L619.6738,287.8774z"/>
	<path d="M624.9502,278.0703l-0.0264-0.0078l-6.7041-4.6338l11.2832-6.2861l0.7139,1.2773l-9.1104,5.0938l6.7041,4.6338
		l-10.1914,5.7207l-0.7236-1.2944L624.9502,278.0703z"/>
</g>
</svg>
