<?xml version="1.0" encoding="utf-8"?>
<!-- Generator: Adobe Illustrator 15.0.0, SVG Export Plug-In . SVG Version: 6.00 Build 0)  -->
<!DOCTYPE svg PUBLIC "-//W3C//DTD SVG 1.1//EN" "http://www.w3.org/Graphics/SVG/1.1/DTD/svg11.dtd">
<svg version="1.1" id="レイヤー_1" xmlns="http://www.w3.org/2000/svg" xmlns:xlink="http://www.w3.org/1999/xlink" x="0px"
	 y="0px" width="1000px" height="1000px" viewBox="0 0 1000 1000" enable-background="new 0 0 1000 1000" xml:space="preserve">
<g>
	
		<rect x="211.911" y="211.91" transform="matrix(0.7071 -0.7071 0.7071 0.7071 -207.1067 499.9993)" fill="none" stroke="#000000" stroke-width="5" width="576.179" height="576.179"/>
	
		<rect x="232.062" y="232.062" transform="matrix(0.7071 -0.7071 0.7071 0.7071 -207.1068 499.9992)" fill="none" stroke="#000000" stroke-width="5" width="535.877" height="535.877"/>
</g>
<g>
	<g>
		<path d="M587.923,209H412.078l-5,5h185.845L587.923,209z M230,608.922l5,5V386.078l-5,5V608.922z M391.078,230l-5,5h227.845l-5-5
			H391.078z M214,407.078l-5,5v175.844l5,5V407.078z M391.078,770h217.844l5-5H386.078L391.078,770z M770,230H637.421l5,5H765
			v122.579l5,5V230z M412.078,791h175.844l5-5H407.078L412.078,791z M230,770h132.58l-5-5H235V642.42l-5-5V770z M616.421,209l5,5
			H786v164.579l5,5V209H616.421z M214,786V621.42l-5-5V791h174.58l-5-5H214z M214,214h164.58l5-5H209v174.58l5-5V214z M786,786
			H621.42l-5,5H791V616.421l-5,5V786z M765,613.923l5-5V391.077l-5-5V613.923z M770,770V637.421l-5,5V765H642.42l-5,5H770z M235,235
			h122.58l5-5H230v132.58l5-5V235z M786,592.923l5-5V412.077l-5-5V592.923z"/>
	</g>
</g>
<circle fill="none" stroke="#000000" stroke-width="5" stroke-miterlimit="10" cx="500" cy="500" r="485"/>
<circle fill="none" stroke="#000000" stroke-width="5" stroke-miterlimit="10" cx="500" cy="500" r="469.783"/>
<g>
	<path fill="none" stroke="#000000" stroke-width="2" d="M106.085,756.238l-2.529-3.722l47.14-32.035l2.529,3.722l-0.05,0.033
		l3.417,24.881l-4.367,2.967l-3.367-24.914L106.085,756.238z"/>
	<path fill="none" stroke="#000000" stroke-width="2" d="M135.112,796.033l6.937-15.952l-17.149,2.918l-3.219-4.108l22.565-3.885
		l7.876-18.062l22.749-2.58l-7.948,21.471l-19.421,3.326l-9.17,20.981L135.112,796.033z M149.699,774.086l13.967-2.407l4.687-12.208
		l-12.976,1.63L149.699,774.086z"/>
	<path fill="none" stroke="#000000" stroke-width="2" d="M171.88,792.837l-12.28,31.212l-3.008-3.347l12.392-33.33l12.485,4.912
		l1.008-18.98l-37.879,34.058l-3.049-3.391l42.386-38.109l1.885,2.097l1.164,1.294l0.121,0.134l-1.736,29.478L171.88,792.837z"/>
	<path fill="none" stroke="#000000" stroke-width="2" d="M202.771,786.74l3.271,3.178l-0.669,0.688l-7.345,20.137l20.299-7.722
		l0.585-0.603l3.271,3.178l-39.762,40.851l-3.229-3.136l33.321-34.392l-19.918,7.674l7.091-20.133l-33.364,34.35l-3.229-3.136
		L202.771,786.74z"/>
	<path fill="none" stroke="#000000" stroke-width="2" d="M243.574,823.766l-36.863,43.487l-2.884-2.444l10.167-11.994l3.392-18.758
		l-18.224,6.186l-10.212,11.955l-2.838-2.406l36.863-43.487l2.838,2.406l-3.954,19.698l18.785-7.126l0.045,0.038L243.574,823.766z
		 M217.954,829.582l3.009-15.15l-17.5,20.646L217.954,829.582z M218.378,847.642l17.461-20.599l-14.407,5.488L218.378,847.642z"/>
	<path fill="none" stroke="#000000" stroke-width="2" d="M276.58,847.168l3.795,2.419l-30.63,48.067l-3.794-2.418L276.58,847.168z"
		/>
	<path fill="none" stroke="#000000" stroke-width="2" d="M310.612,866.999l3.951,2.153l-11.487,21.069l-12.573-23.937
		l-18.666,34.237l26.932-2.399l-11.487,21.069l-3.951-2.153l7.179-13.169l-26.932,2.399l27.281-50.039l12.573,23.937
		L310.612,866.999z"/>
	<path fill="none" stroke="#000000" stroke-width="2" d="M332.938,896.651l-16.641,36.067l-4.089-1.879l13.405-29.169l-25.055,0.637
		l14.954-32.683l4.143,1.904l-11.851,25.788l0.08-0.03L332.938,896.651z"/>
	<path fill="none" stroke="#000000" stroke-width="2" d="M355.2,921.594l-8.629,22.779l-3.647-1.382l8.375-22.105l0.43-21.459
		l-7.05-12.552l-0.673-0.255l-18.811,49.654l-4.264-1.615l20.192-53.301l6.284,2.38l8.216,14.726L355.2,921.594z"/>
	<path fill="none" stroke="#000000" stroke-width="2" d="M393.282,899.099l-16.496,54.563l-3.619-1.094l4.55-15.048l-4.357-18.556
		l-14.252,12.93l-4.607,15.03l-3.561-1.076l16.496-54.563l3.561,1.076l4.216,19.642l14.392-14.016l0.058,0.018L393.282,899.099z
		 M372.099,914.634l-3.272-15.093l-7.831,25.902L372.099,914.634z M379.679,931.029l7.814-25.845l-11.029,10.769L379.679,931.029z"
		/>
	<path fill="none" stroke="#000000" stroke-width="2" d="M448.447,909.827l-8.886,56.303l-3.733-0.59l-5.981-24.451l-13.28,21.411
		l-3.615-0.57l8.827-56.312l3.733,0.59l5.925,24.807l13.277-21.776L448.447,909.827z M428.507,935.715l-4.692-19.146l-5.734,36.33
		L428.507,935.715z M437.352,955.88l5.706-36.151l-10.352,16.71L437.352,955.88z"/>
	<path fill="none" stroke="#000000" stroke-width="2" d="M466.219,968.659l-6.898-15.972l-9.599,14.51l-5.2-0.46l12.597-19.124
		l-7.793-18.1l13.674-18.365l10.233,20.483l-10.854,16.447l9.039,21.04L466.219,968.659z M460.179,943.005l7.795-11.839
		l-5.704-11.77l-7.685,10.583L460.179,943.005z"/>
	<path fill="none" stroke="#000000" stroke-width="2" d="M480.861,969.485l-4.499-0.096l1.203-56.982l4.499,0.095l-0.001,0.06
		l22.257,11.632l-0.111,5.278l-22.256-11.691L480.861,969.485z"/>
	<path fill="none" stroke="#000000" stroke-width="2" d="M530.123,968.903l-8.972-14.905l-7.571,15.663l-5.215,0.239l9.926-20.636
		l-10.144-16.894l11.095-20.028l12.88,18.93l-8.557,17.75l11.771,19.642L530.123,968.903z M520.706,944.289l6.142-12.775
		l-7.227-10.9l-6.199,11.516L520.706,944.289z"/>
	<path fill="none" stroke="#000000" stroke-width="2" d="M548.828,937.105l18.299,28.11l-4.471,0.51l-19.96-29.432l11.245-7.319
		l-14.875-11.833l5.765,50.614l-4.531,0.516l-6.45-56.635l2.802-0.319l1.729-0.197l0.179-0.021l23.004,18.517L548.828,937.105z"/>
	<path fill="none" stroke="#000000" stroke-width="2" d="M619.946,913.351l9.771,38.501l-4.359,1.113l-7.943-31.103l-19.069,16.264
		l-8.951-34.809l4.418-1.128l7.022,27.498l0.044-0.072L619.946,913.351z"/>
	<path fill="none" stroke="#000000" stroke-width="2" d="M627.316,892.801l4.273-1.409l17.859,54.127l-4.273,1.41L627.316,892.801z"
		/>
	<path fill="none" stroke="#000000" stroke-width="2" d="M675.719,895.313l-14.707-6.182l18.435,45.168L675.279,936l-18.412-45.113
		l-6.148,14.63l-2.268-5.556l7.398-17.603l17.602,7.398L675.719,895.313z"/>
	<path fill="none" stroke="#000000" stroke-width="2" d="M706.273,875.591l25.197-1.607l2.269,4.163l-25.093,1.548l18.378,31.788
		l-3.896,2.252l-28.528-49.344l3.896-2.252l0.03,0.052l25.063-1.6l2.643,4.57l-25.094,1.548L706.273,875.591z"/>
	<path fill="none" stroke="#000000" stroke-width="2" d="M741.343,835.201l31.818,47.285l-3.136,2.11l-8.775-13.041l-17.124-8.362
		l0.997,19.214l8.726,13.074l-3.086,2.077l-31.818-47.286l3.086-2.076l17.877,9.158l-1.75-20.01l0.05-0.034L741.343,835.201z
		 M739.975,861.431l-13.758-7.013l15.105,22.448L739.975,861.431z M757.466,865.931l-15.072-22.398l1.364,15.353L757.466,865.931z"
		/>
	<path fill="none" stroke="#000000" stroke-width="2" d="M742.237,834.535l3.603-2.797l0.589,0.758l18.917,10.077l-4.82-21.176
		l-0.516-0.664l3.603-2.797l34.916,45.061l-3.554,2.761l-29.418-37.783l4.826,20.792l-18.949-9.824l29.37,37.82l-3.555,2.76
		L742.237,834.535z"/>
	<path fill="none" stroke="#000000" stroke-width="2" d="M797.576,813.85l-15.924-0.915l32.453,36.41l-3.359,2.993l-32.412-36.364
		l-0.91,15.839l-3.992-4.479l1.096-19.058l19.058,1.095L797.576,813.85z"/>
	<path fill="none" stroke="#000000" stroke-width="2" d="M852.305,810.868l-2.925,3.42l-43.313-37.052l2.925-3.42l23.344,19.969
		l33.465,1.308l-3.744,4.377l-24.934-1.589L852.305,810.868z"/>
	<path fill="none" stroke="#000000" stroke-width="2" d="M882.081,773.514l-17.219-2.489l7.334,15.776l-3.115,4.188l-9.693-20.747
		l-19.5-2.84l-8.483-21.268l22.809,2.011l8.326,17.86l22.657,3.319L882.081,773.514z M857.063,765.224l-6.002-12.841l-13.014-1.306
		l4.991,12.089L857.063,765.224z"/>
	<path fill="none" stroke="#000000" stroke-width="2" d="M894.531,755.137l-28.358-18.249l-8.771,5.202l-4.391-2.824l8.67-5.268
		l-15.088-9.709l2.436-3.784l17.005,10.942l8.721-5.234l4.44,2.857l-8.721,5.234l26.492,17.047L894.531,755.137z"/>
	<path fill="none" stroke="#000000" stroke-width="2" d="M883.498,695.33l34.76,19.225l-2.172,3.941l-28.115-15.494l-1.191,25.035
		l-31.507-17.295l2.201-3.994l24.856,13.699l-0.023-0.082L883.498,695.33z"/>
	<path fill="none" stroke="#000000" stroke-width="2" d="M868.828,686.058l1.923-4.136l0.87,0.405l21.433,0.303l-13.977-16.623
		l-0.762-0.354l1.923-4.136l51.666,24.089l-1.896,4.081l-43.447-20.135l13.806,16.279l-21.345-0.064l43.422,20.188l-1.897,4.081
		L868.828,686.058z"/>
	<path fill="none" stroke="#000000" stroke-width="2" d="M936.021,675.374l-1.613,4.201l-53.215-20.439l1.614-4.201l28.68,11.016
		l31.979-9.957l-2.065,5.377l-24.032,6.84L936.021,675.374z"/>
	<path fill="none" stroke="#000000" stroke-width="2" d="M917.268,614.203l-14.097,7.47l46.632,14.328l-1.321,4.302l-46.574-14.311
		l7.43,14.021l-5.735-1.762l-8.94-16.871l16.871-8.94L917.268,614.203z"/>
	<path fill="none" stroke="#000000" stroke-width="2" d="M898.916,607.413l1.036-4.44l0.935,0.219l21.039-4.084l-17.077-13.413
		l-0.817-0.191l1.036-4.44l55.491,13.019l-1.023,4.382l-46.637-10.827l16.839,13.111l-20.904,4.299l46.624,10.886l-1.023,4.382
		L898.916,607.413z"/>
	<path fill="none" stroke="#000000" stroke-width="2" d="M928.848,556.488l-12.94,9.326l48.146,7.815l-0.721,4.441l-48.086-7.806
		l9.276,12.872l-5.922-0.962l-11.162-15.487l15.487-11.161L928.848,556.488z"/>
	<path fill="none" stroke="#000000" stroke-width="2" d="M944.774,527.981l24.253,2.255l-0.36,3.883l-23.537-2.188l-20.798,5.297
		l-10.222,10.137l-0.067,0.717l52.868,4.916l-0.422,4.54l-56.751-5.276l0.622-6.691l12.007-11.838L944.774,527.981z"/>
	<path fill="none" stroke="#000000" stroke-width="2" d="M939.6,512.909l30.372-14.233l-0.114,4.499l-31.91,15.694l-5.693-12.149
		l-13.777,13.095l50.925,1.295l-0.116,4.559l-56.983-1.449l0.072-2.819l0.044-1.739l0.005-0.18l21.521-20.22L939.6,512.909z"/>
	<path fill="none" stroke="#000000" stroke-width="2" d="M926.74,461.812l8.697-23.705l4.726-0.396l-8.711,23.586l36.504-3.988
		l0.488,4.474l-56.664,6.19l-0.488-4.474l0.06-0.006l8.65-23.58l5.249-0.573l-8.711,23.586L926.74,461.812z"/>
	<path fill="none" stroke="#000000" stroke-width="2" d="M903.923,413.437l56.114-10.045l0.666,3.721l-21.146,13.661l24.582,5.536
		l0.645,3.603l-56.103,10.104l-0.666-3.721l21.5-13.725l-24.926-5.413L903.923,413.437z M951.075,408.836l-36.031,6.45l19.182,4.308
		L951.075,408.836z M934.917,423.799l-16.554,10.706l36.207-6.482L934.917,423.799z"/>
	<path fill="none" stroke="#000000" stroke-width="2" d="M900.971,401.46l-1.094-4.365l55.287-13.858l1.094,4.365L900.971,401.46z"
		/>
	<path fill="none" stroke="#000000" stroke-width="2" d="M889.858,363.693l-1.392-4.28l22.827-7.422l-7.309,26.039l37.094-12.061
		l-21.225-16.762l22.827-7.422l1.392,4.28l-14.267,4.639l21.225,16.762l-54.215,17.627l7.31-26.039L889.858,363.693z"/>
	<path fill="none" stroke="#000000" stroke-width="2" d="M883.908,347.95l-1.682-4.174l52.866-21.294l1.682,4.174L883.908,347.95z"
		/>
	<path fill="none" stroke="#000000" stroke-width="2" d="M881.296,300.422l35.765-17.28l1.964,4.049l-28.882,14.008l19.752,15.427
		l-32.312,15.738l-1.989-4.103l25.535-12.385l-0.08-0.028L881.296,300.422z"/>
	<path fill="none" stroke="#000000" stroke-width="2" d="M859.675,297.278l-2.235-3.906l49.475-28.31l2.235,3.906L859.675,297.278z"
		/>
	<path fill="none" stroke="#000000" stroke-width="2" d="M895.348,246.021l2.496,3.745l-47.431,31.615l-2.496-3.745l25.563-17.039
		l10.354-31.851l3.195,4.793l-8.306,23.564L895.348,246.021z"/>
	<path fill="none" stroke="#000000" stroke-width="2" d="M828.77,250.343l-2.745-3.566l45.169-34.761l2.745,3.566L828.77,250.343z"
		/>
	<path fill="none" stroke="#000000" stroke-width="2" d="M853.202,190.239l-25.272,22.322l2.62,9.854l-3.912,3.456l-2.71-9.774
		l-13.445,11.875l-2.979-3.373l15.154-13.385l-2.665-9.814l3.957-3.496l2.665,9.814l23.607-20.852L853.202,190.239z"/>
	<path fill="none" stroke="#000000" stroke-width="2" d="M839.835,175.364l-15.784,6.924l-5.315,12.293l-13.069,6.909l-6.153,14.165
		l-2.944-2.91l9.624-22.544l-22.428,9.892l-3.03-2.995l15.741-7.052l5.022-11.57l12.478-6.565l6.654-15.526l3.201,3.163
		l-9.836,22.758l22.64-10.105L839.835,175.364z M808.536,184.672l3.348-7.827l-7.232,3.819l-2.929,7.061L808.536,184.672z
		 M818.676,184.654l-7.108,3.182l-3.224,7.359l7.19-3.776L818.676,184.654z"/>
	<path fill="none" stroke="#000000" stroke-width="2" d="M758.39,177.783l-3.646-2.738l0.577-0.768l4.74-20.899l-19.157,10.223
		l-0.504,0.672l-3.646-2.738l34.273-45.539l3.598,2.702l-28.701,38.319l18.785-10.128l-4.488,20.864l28.748-38.283l3.599,2.702
		L758.39,177.783z"/>
	<path fill="none" stroke="#000000" stroke-width="2" d="M763.169,110.69l3.773,2.452l-31.05,47.792l-3.773-2.451l0.033-0.05
		l-12.787-21.614l2.877-4.427l12.753,21.664L763.169,110.69z"/>
	<path fill="none" stroke="#000000" stroke-width="2" d="M702.462,140.187l-3.932-2.189l27.73-49.808l3.932,2.189L702.462,140.187z"
		/>
	<path fill="none" stroke="#000000" stroke-width="2" d="M671.549,102.851l5.405,15.009l20.767-44.139l4.071,1.916l-20.741,44.084
		l14.93-5.376l-2.555,5.429l-17.963,6.468l-6.468-17.963L671.549,102.851z"/>
	<path fill="none" stroke="#000000" stroke-width="2" d="M615.354,85.355l11.886-37.902l4.296,1.34l-9.559,30.646l24.768-3.839
		l-10.646,34.33l-4.354-1.358l8.452-27.094l-0.075,0.039L615.354,85.355z"/>
	<path fill="none" stroke="#000000" stroke-width="2" d="M609.17,101.559l-4.436-1.057l0.223-0.934l-3.99-21.057l-13.489,17.017
		l-0.194,0.817l-4.436-1.056l13.264-55.433l4.378,1.043l-11.035,46.589l13.187-16.781l4.207,20.923l11.093-46.575l4.377,1.042
		L609.17,101.559z"/>
	<path fill="none" stroke="#000000" stroke-width="2" d="M555.187,90.652l9.379-56.229l3.729,0.622l5.768,24.505l13.469-21.297
		l3.61,0.602l-9.319,56.239l-3.729-0.622l-5.708-24.861l-13.469,21.662L555.187,90.652z M566.685,44.693l-6.022,36.105
		l10.499-16.621L566.685,44.693z M575.354,64.937l4.525,19.188l6.052-36.283L575.354,64.937z"/>
	<path fill="none" stroke="#000000" stroke-width="2" d="M499.063,86.996l1.696-56.969l3.778,0.113l9.023,23.496l10.466-22.916
		l3.657,0.109l-1.636,56.97l-3.777-0.112l-9.014-23.856l-10.416,23.277L499.063,86.996z M504.246,39.915l-1.09,36.58l8.155-17.883
		L504.246,39.915z M515.567,58.798l7.075,18.397l1.094-36.76L515.567,58.798z"/>
	<path fill="none" stroke="#000000" stroke-width="2" d="M474.04,30.847l8.837,14.982l7.709-15.593l5.216-0.192l-10.107,20.544
		l9.992,16.981l-11.271,19.927l-12.709-19.042l8.713-17.671L468.824,31.04L474.04,30.847z M483.235,55.542l-6.254,12.718
		l7.128,10.963l6.301-11.458L483.235,55.542z"/>
	<path fill="none" stroke="#000000" stroke-width="2" d="M441.824,91.057l-4.492,0.783l-0.165-0.946l-11.988-17.767l-5.666,20.965
		l0.144,0.828l-4.493,0.783l-9.726-56.167l4.434-0.773l8.278,47.162l5.481-20.628l12.135,17.559l-8.219-47.172l4.433-0.772
		L441.824,91.057z"/>
	<path fill="none" stroke="#000000" stroke-width="2" d="M403.224,98.598l-4.369,1.075l-13.612-55.345l4.37-1.075L403.224,98.598z"
		/>
	<path fill="none" stroke="#000000" stroke-width="2" d="M350.772,79.951l-7.428-23.201l3.714-1.189l7.208,22.515l13.022,17.062
		l13.332,5.434l0.686-0.22l-16.191-50.573l4.343-1.39l17.381,54.287l-6.4,2.049l-15.598-6.41L350.772,79.951z"/>
	<path fill="none" stroke="#000000" stroke-width="2" d="M328.549,105.227l-14.622-36.933l4.182-1.663l11.861,29.83l16.829-18.573
		l13.336,33.375l-4.237,1.685l-10.487-26.373l-0.034,0.078L328.549,105.227z"/>
	<path fill="none" stroke="#000000" stroke-width="2" d="M309.641,133.377l-24.643-51.402l3.409-1.634l6.796,14.176l15.737,10.755
		l1.794-19.16l-6.742-14.202l3.355-1.608l24.643,51.402l-3.354,1.608l-16.366-11.651l-1.165,20.056l-0.054,0.026L309.641,133.377z
		 M298.134,100.631l11.673,24.349l0.873-15.391L298.134,100.631z M314.792,107.617l12.6,8.932l-11.699-24.402L314.792,107.617z"/>
	<path fill="none" stroke="#000000" stroke-width="2" d="M261.578,95.044l14.745,9.23l-0.337-17.392l4.542-2.573l0.488,22.892
		l16.689,10.473l-0.829,22.879l-20.051-11.051l-0.403-19.699l-19.384-12.187L261.578,95.044z M281.113,112.731l0.305,14.169
		l11.376,6.449l0.316-13.073L281.113,112.731z"/>
	<path fill="none" stroke="#000000" stroke-width="2" d="M261.64,162.673l-31.398-47.575l3.155-2.083l20.903,14.027l-4.627-24.768
		l3.055-2.016l31.448,47.542l-3.155,2.082l-21.102-14.327l4.876,25.036L261.64,162.673z M238.784,121.179l20.161,30.548
		l-3.622-19.321L238.784,121.179z M258.912,130.109l16.375,10.977l-20.26-30.699L258.912,130.109z"/>
	<path fill="none" stroke="#000000" stroke-width="2" d="M205.215,183.525l15.916,1.056L189,147.885l3.385-2.964l32.091,36.65
		l1.05-15.831l3.952,4.514l-1.264,19.047l-19.047-1.264L205.215,183.525z"/>
	<path fill="none" stroke="#000000" stroke-width="2" d="M217.22,198.977l-3.219,3.229l-0.68-0.678l-20.033-7.606l7.453,20.393
		l0.595,0.593l-3.219,3.229l-40.314-40.283l3.177-3.186l33.942,33.759l-7.41-20.011l20.032,7.352l-33.899-33.802l3.177-3.186
		L217.22,198.977z"/>
	<path fill="none" stroke="#000000" stroke-width="2" d="M179.67,239.293l-42.995-37.428l2.482-2.852l11.857,10.322l18.71,3.639
		l-5.945-18.302l-11.818-10.368l2.443-2.806l42.995,37.428l-2.443,2.806l-19.643-4.212l6.878,18.875l-0.04,0.045L179.67,239.293z
		 M156.129,213.788l20.366,17.729l-5.297-14.476L156.129,213.788z M174.191,213.601l15.107,3.208l-20.411-17.769L174.191,213.601z"
		/>
	<path fill="none" stroke="#000000" stroke-width="2" d="M165.359,258.11l-2.718,3.586l-19.128-14.496l25.545-8.873l-31.083-23.556
		l-1.635,26.993l-19.128-14.496l2.718-3.586l11.956,9.06l1.635-26.993l45.43,34.428l-25.545,8.873L165.359,258.11z"/>
	<path fill="none" stroke="#000000" stroke-width="2" d="M102.38,249.562l17.336,1.469l-8.252-15.316l2.864-4.365l10.9,20.14
		l19.634,1.685l9.723,20.731l-22.888-0.663l-9.365-17.338l-22.815-1.978L102.38,249.562z M127.843,256.363l6.75,12.465l13.068,0.536
		l-5.695-11.774L127.843,256.363z"/>
	<path fill="none" stroke="#000000" stroke-width="2" d="M117.169,283.38l-33.501-1.636l2.207-3.922l35.543,1.064l-0.655,13.4
		l18.303-5.124l-44.396-24.977l2.236-3.974l49.677,27.948l-1.383,2.458l-0.853,1.517l-0.088,0.157l-28.481,7.796L117.169,283.38z"/>
	<path fill="none" stroke="#000000" stroke-width="2" d="M116.667,346.525l-1.65,4.186L61.99,329.808l1.65-4.187L116.667,346.525z"
		/>
	<path fill="none" stroke="#000000" stroke-width="2" d="M52.548,356.459l32.141,10.188l7.102-7.315l4.976,1.577l-6.988,7.352
		l17.1,5.42l-1.36,4.289l-19.273-6.109l-7.044,7.333l-5.033-1.595l7.044-7.333l-30.025-9.517L52.548,356.459z"/>
	<path fill="none" stroke="#000000" stroke-width="2" d="M45.245,381.435l1.062-4.373l55.389,13.452l-1.062,4.373l-29.852-7.25
		l-30.437,13.971l1.359-5.597l22.955-9.86L45.245,381.435z"/>
	<path fill="none" stroke="#000000" stroke-width="2" d="M93.565,427.432l-0.76,4.436l-56.186-9.625l0.76-4.436L93.565,427.432z"/>
	<path fill="none" stroke="#000000" stroke-width="2" d="M88.001,470.975l-56.708-5.784l0.384-3.761l24.087-7.314l-22.109-12.086
		l0.372-3.641l56.714,5.724l-0.384,3.76l-24.445,7.278l22.473,12.063L88.001,470.975z M41.407,462.423l36.412,3.714l-17.254-9.419
		L41.407,462.423z M61.057,452.485l18.86-5.736l-36.591-3.732L61.057,452.485z"/>
	<path fill="none" stroke="#000000" stroke-width="2" d="M87.542,483.341l-0.153,4.498l-56.969-1.942l0.153-4.498L87.542,483.341z"
		/>
	<path fill="none" stroke="#000000" stroke-width="2" d="M87.878,527.253l-56.969,1.855l-0.123-3.778l22.891-10.47l-23.525-9.02
		l-0.119-3.657L87,500.268l0.123,3.778l-23.25,10.482l23.883,8.946L87.878,527.253z M58.704,512.535l17.922-8.208l-36.76,1.197
		L58.704,512.535z M40.561,525.012l36.58-1.191l-18.358-7.025L40.561,525.012z"/>
	<path fill="none" stroke="#000000" stroke-width="2" d="M58.217,558.936l-24.235,2.435l-0.39-3.88l23.519-2.362l19.396-9.185
		l8.089-11.906l-0.072-0.717l-52.828,5.308l-0.456-4.537l56.708-5.696l0.671,6.686l-9.515,13.919L58.217,558.936z"/>
	<path fill="none" stroke="#000000" stroke-width="2" d="M36.616,577.744l33.247-5.643l2.97-9.755l5.146-0.874l-2.852,9.735
		l17.688-3.002l0.753,4.437l-19.936,3.384l-2.911,9.745l-5.206,0.884l2.911-9.745l-31.058,5.271L36.616,577.744z"/>
	<path fill="none" stroke="#000000" stroke-width="2" d="M82.917,614.896l8.319-13.608l-47.414,11.438l-1.055-4.374l47.355-11.424
		l-13.536-8.274l5.832-1.407l16.287,9.957L88.75,613.49L82.917,614.896z"/>
	<path fill="none" stroke="#000000" stroke-width="2" d="M90.302,675.644l-22.674,8.902l-1.425-3.63l22.004-8.639l16.189-14.092
		l4.566-13.652l-0.263-0.67l-49.424,19.405l-1.667-4.244l53.055-20.831l2.456,6.255l-5.394,15.977L90.302,675.644z"/>
	<path fill="none" stroke="#000000" stroke-width="2" d="M114.921,697.115l5.362-15.023l-44.077,20.891l-1.927-4.066l44.022-20.864
		l-14.943-5.333l5.421-2.57l17.98,6.417l-6.417,17.979L114.921,697.115z"/>
</g>
<circle fill="none" stroke="#000000" stroke-width="5" stroke-miterlimit="10" cx="500" cy="500" r="413.261"/>
</svg>
