<?xml version="1.0" encoding="iso-8859-1"?>
<!-- Generator: Adobe Illustrator 15.0.0, SVG Export Plug-In . SVG Version: 6.00 Build 0)  -->
<!DOCTYPE svg PUBLIC "-//W3C//DTD SVG 1.1//EN" "http://www.w3.org/Graphics/SVG/1.1/DTD/svg11.dtd">
<svg version="1.1" id="&#x30EC;&#x30A4;&#x30E4;&#x30FC;_1"
	 xmlns="http://www.w3.org/2000/svg" xmlns:xlink="http://www.w3.org/1999/xlink" x="0px" y="0px" width="800px" height="800px"
	 viewBox="0 0 800 800" style="enable-background:new 0 0 800 800;" xml:space="preserve">
<polygon style="fill:none;stroke:#000000;stroke-width:4;stroke-miterlimit:10;" points="400.055,128.476 241.16,617.431 
	657.056,315 143.056,315 558.869,617.406 "/>
<circle style="fill:none;stroke:#000000;stroke-width:8;stroke-miterlimit:10;" cx="400" cy="400" r="380"/>
<circle style="fill:none;stroke:#000000;stroke-width:2;stroke-miterlimit:10;" cx="400" cy="400" r="369.501"/>
<polygon style="fill:none;stroke:#000000;stroke-width:2;stroke-miterlimit:10;" points="215.227,720 30.454,400 215.227,80 
	584.773,80 769.546,400 584.773,720 "/>
<polygon style="fill:none;stroke:#000000;stroke-width:2;stroke-miterlimit:10;" points="399.982,769.515 79.964,584.773 
	79.982,215.258 400.019,30.485 720.036,215.228 720.019,584.741 "/>
<circle style="fill:none;stroke:#000000;stroke-width:4;stroke-miterlimit:10;" cx="400" cy="400" r="319.354"/>
<circle style="fill:none;stroke:#000000;stroke-width:2;stroke-miterlimit:10;" cx="400" cy="400" r="313.355"/>
<circle style="fill:none;stroke:#000000;stroke-width:2;stroke-miterlimit:10;" cx="400" cy="400" r="274.358"/>
<g>
	<path style="fill:#000000;" d="M658.422,304.709l3.547-10.379l11.367-9.858l14.77-5.737l0.918,2.365l-14.332,5.567l-10.563,9.127
		l-3.002,8.87l0.169,0.437l32.193-12.505l1.074,2.765l-34.558,13.423L658.422,304.709z"/>
	<path style="fill:#000000;" d="M657.214,270.037l-3.523,9.759l28.719-13.484l1.244,2.649l-28.684,13.468l9.708,3.504l-3.533,1.659
		l-11.68-4.216l4.217-11.68L657.214,270.037z"/>
	<path style="fill:#000000;" d="M635.801,237.81l1.813,16.251l28.253-18.256l1.589,2.458l-31.138,20.121l-1.588-2.458l0.032-0.021
		l-1.846-16.23L635.801,237.81z"/>
	<path style="fill:#000000;" d="M624.205,222.162l2.914,16.093l5.347-3.995l-2.961-16.156l2.517-1.783l2.914,16.093l19.134-14.297
		l1.753,2.345l-29.702,22.193l-1.752-2.345l0.031-0.023l-2.945-16.07L624.205,222.162z"/>
	<path style="fill:#000000;" d="M608.951,209.538l2.605-2.237l13.114,3.712l-3.107-12.25l2.311-1.983l17.233,4.497l1.906,2.221
		l-28.137,24.15l-1.906-2.222L608.951,209.538z M615.192,223.521l10.396-8.923l-0.217-0.792l-13.516-3.522L615.192,223.521z
		 M627.626,211.82l0.894,0.262l10.366-8.897l-14.358-3.725L627.626,211.82z"/>
	<path style="fill:#000000;" d="M619.17,177.353l-3.321,10.817l10.873-3.136l2.38,2.421l-14.304,4.155l-3.775,12.249l-14.517,3.325
		l3.573-14.458l12.312-3.565l4.399-14.23L619.17,177.353z M611.34,192.602l-8.854,2.573l-2.168,8.261l8.297-2.026L611.34,192.602z"
		/>
	<path style="fill:#000000;" d="M587.187,198.037l-1.021-19.181l9.157,2.916l5.669-21.069l2.188,1.944l-5.587,22.446l-8.428-2.268
		l0.729,12.342l22.01-24.77l2.217,1.97l-24.628,27.716l-1.371-1.218l-0.847-0.752L587.187,198.037z"/>
	<path style="fill:#000000;" d="M595.817,156.524l2.313,1.791l-22.655,29.334l-2.345-1.815l0.358-0.463l3.305-13.575l-12.554,6.466
		l-0.334,0.432l-2.345-1.815l22.717-29.287l2.313,1.791l-19.025,24.645l12.311-6.408l-3.116,13.524L595.817,156.524z"/>
	<path style="fill:#000000;" d="M561.413,132.432l2.533,1.466l-18.535,32.113l-2.567-1.485l0.293-0.507l1.459-13.901l-11.58,8.09
		l-0.273,0.473l-2.567-1.485l18.604-32.074l2.533,1.466l-15.564,26.979l11.348-8l-1.28,13.824L561.413,132.432z"/>
	<path style="fill:#000000;" d="M519.005,137.524l3.354,9.819l13.981-28.483l2.627,1.29l-13.964,28.448l9.768-3.335l-1.72,3.503
		l-11.752,4.014l-4.014-11.752L519.005,137.524z"/>
	<path style="fill:#000000;" d="M481.11,136.755l-2.333-0.774l11.684-35.182l2.333,0.775l1.24,16.324l10.796-12.327l2.259,0.75
		l-11.646,35.194l-2.296-0.763l-1.166-16.546l-10.833,12.562L481.11,136.755z M490.79,107.61l-7.466,22.603l8.381-9.634
		L490.79,107.61z M494.322,121.488l1.014,12.795l7.539-22.701L494.322,121.488z"/>
	<path style="fill:#000000;" d="M473.166,96.192l2.733,10.981l7.698-8.294l3.288,0.847l-10.112,10.938l3.083,12.441l-10.723,10.337
		l-4.396-14.231l8.71-9.404l-3.57-14.461L473.166,96.192z M474.322,113.297l-6.258,6.771l2.402,8.196l6.063-6.015L474.322,113.297z"
		/>
	<path style="fill:#000000;" d="M444.183,117.226l13.059,9.848l6.143-33.08l2.878,0.535l-6.77,36.457l-2.878-0.534l0.007-0.039
		l-13.065-9.81L444.183,117.226z"/>
	<path style="fill:#000000;" d="M431.277,89.122l4.201,10.504l6.496-9.262l3.372,0.392l-8.528,12.208l4.746,11.903l-9.215,11.696
		l-6.288-13.497l7.347-10.499l-5.503-13.837L431.277,89.122z M434.749,105.905l-5.277,7.558l3.494,7.791l5.188-6.782
		L434.749,105.905z"/>
	<path style="fill:#000000;" d="M419.358,125.306l-12.838-14.289l8.958-3.48l-8.816-19.958l2.925,0.14l9.743,20.979l-7.983,3.526
		l8.316,9.15l1.58-33.099l2.963,0.142l-1.769,37.037l-1.832-0.087l-1.131-0.054L419.358,125.306z"/>
	<path style="fill:#000000;" d="M399.996,87.563l2.926-0.056l0.75,37.065l-2.966,0.057l-0.011-0.585l-5.941-12.649l-5.724,12.912
		l0.01,0.546l-2.965,0.057l-0.671-37.066l2.926-0.056l0.636,31.135l5.572-12.714l6.055,12.491L399.996,87.563z"/>
	<path style="fill:#000000;" d="M349.383,129.203l-5.639-36.646l2.392-0.368l1.561,10.145l7.76,9.626l4.777-11.555l-1.522-10.151
		l2.392-0.368l5.639,36.646l-2.392,0.368l-8.026-10.334l-4.51,12.264L349.383,129.203z M348.361,106.655l2.671,17.358l3.486-9.421
		L348.361,106.655z M357.412,114.147l6.196,7.931l-2.677-17.397L357.412,114.147z"/>
	<path style="fill:#000000;" d="M328.716,122.771l15.875,3.915l-1.461-6.51l-15.951-3.898l-0.599-3.025l15.875,3.915l-5.229-23.299
		l2.855-0.641l8.118,36.167l-2.855,0.641l-0.009-0.038l-15.866-3.877L328.716,122.771z"/>
	<path style="fill:#000000;" d="M319.338,97.999l-0.99,11.167l5.347,6.877l-0.15,9.613l6.151,7.94l-2.581,0.769l-9.843-12.541
		l-1.377,15.883l-2.655,0.791l0.904-11.182l-5.026-6.484l0.16-9.168l-6.771-8.651l2.805-0.835l9.898,12.728l1.321-16.07
		L319.338,97.999z M314.853,118.756l-3.415-4.357l-0.085,5.319l3.109,3.878L314.853,118.756z M318.015,112.969l-0.41,5.049
		l3.188,4.14l0.096-5.281L318.015,112.969z"/>
	<path style="fill:#000000;" d="M296.121,127.118l-7.178-19.186l2.741-1.025l7.684,20.538l6.594,0.699l1.189,3.18l-6.566-0.626
		l4.088,10.927l-2.741,1.025l-4.607-12.316l-6.58-0.663l-1.203-3.216L296.121,127.118z"/>
	<path style="fill:#000000;" d="M274.023,142.972l16.34,0.588l-2.76-6.074l-16.411-0.556l-1.204-2.839l16.34,0.589l-9.88-21.74
		l2.664-1.211l15.336,33.747l-2.664,1.21l-0.016-0.035l-16.324-0.553L274.023,142.972z"/>
	<path style="fill:#000000;" d="M240.724,162.211l16.272-1.61l-3.551-5.649l-16.338,1.652l-1.575-2.651l16.272-1.61l-12.709-20.217
		l2.478-1.558l19.729,31.383l-2.478,1.558l-0.021-0.033l-16.251,1.643L240.724,162.211z"/>
	<path style="fill:#000000;" d="M224.921,173.62l16.127-2.711l-19.795-27.2l2.367-1.723l21.816,29.978l-2.367,1.723l-0.023-0.032
		l-16.104,2.742L224.921,173.62z"/>
	<path style="fill:#000000;" d="M222.459,189.58l-23.802-28.426l2.244-1.879l23.802,28.426L222.459,189.58z"/>
	<path style="fill:#000000;" d="M203.266,207.219l-25.658-26.759l2.113-2.026l12.829,13.38l16.694-3.734l-3.752,17.005l-0.112,0.108
		L203.266,207.219z M194.953,194.32l7.751,8.084l2.963-11.005L194.953,194.32z"/>
	<path style="fill:#000000;" d="M199.485,211.296l-10.872,1.448l-13.89-5.787l-11.715-10.667l1.708-1.876l11.368,10.353
		l12.877,5.392l9.278-1.263l0.315-0.346l-25.536-23.254l1.997-2.193l27.412,24.962L199.485,211.296z"/>
	<path style="fill:#000000;" d="M170.508,229.015l14.813-6.924l-5.227-4.148l-14.862,6.985l-2.366-1.978l14.813-6.924
		l-18.705-14.848l1.82-2.292l29.035,23.048l-1.82,2.292l-0.03-0.024l-14.783,6.949L170.508,229.015z"/>
	<path style="fill:#000000;" d="M156.287,271.732l-10.092,4.296l-14.931-1.871l-14.137-7.155l1.146-2.263l13.719,6.944l13.849,1.761
		l8.605-3.693l0.211-0.418l-30.816-15.597l1.339-2.646l33.08,16.743L156.287,271.732z"/>
	<path style="fill:#000000;" d="M131.3,295.774l9.613-3.898l-29.215-12.355l1.14-2.695l29.179,12.34l-3.877-9.562l3.593,1.52
		l4.666,11.504l-11.505,4.666L131.3,295.774z"/>
	<path style="fill:#000000;" d="M100.045,312.272l0.766-2.825l35.801,9.66l-0.776,2.863l-0.565-0.153l-13.81,2.162l10.795,9.112
		l0.527,0.143l-0.776,2.863l-35.78-9.735l0.766-2.826l30.074,8.108l-10.647-8.911l13.689-2.316L100.045,312.272z"/>
	<path style="fill:#000000;" d="M113.372,344.508l-20.1-3.989l0.57-2.872l21.516,4.271l4.064-5.242l3.331,0.661l-3.988,5.257
		l11.447,2.272l-0.57,2.871l-12.902-2.561l-4.026,5.249l-3.369-0.668L113.372,344.508z"/>
	<path style="fill:#000000;" d="M126.807,365.713l-36.776-4.726l0.373-2.903l36.776,4.726L126.807,365.713z"/>
	<path style="fill:#000000;" d="M124.688,391.658l-37.008-2.232l0.146-2.416l10.245,0.618l11.047-5.55l-10.284-7.11l-10.243-0.657
		l0.146-2.415l37.008,2.232l-0.146,2.415l-11.797,5.662l11.033,6.999L124.688,391.658z M102.434,387.892l17.53,1.058l-8.471-5.398
		L102.434,387.892z M111.669,380.629l9.061-4.379l-17.569-1.06L111.669,380.629z"/>
	<path style="fill:#000000;" d="M115.34,429.509l6.221-15.125l-6.656,0.482l-6.215,15.203l-3.081,0.145l6.22-15.124l-23.822,1.728
		l-0.211-2.92l36.979-2.682l0.212,2.92l-0.039,0.002l-6.182,15.122L115.34,429.509z"/>
	<path style="fill:#000000;" d="M128.25,444.872l0.343,2.435l-36.704,5.175l-0.343-2.435l14.069-8.367l-15.84-4.189l-0.333-2.356
		l36.698-5.214l0.337,2.396l-14.301,8.4l16.066,4.118L128.25,444.872z M108.704,439.826l11.009-6.596l-23.683,3.339L108.704,439.826
		z M97.844,449.159l23.562-3.361l-12.354-3.223L97.844,449.159z"/>
	<path style="fill:#000000;" d="M137.341,483.224l-35.674,10.074l-0.657-2.328l9.876-2.789l8.603-8.876l-12.049-3.328l-9.887,2.751
		l-0.657-2.328l35.674-10.074l0.657,2.328l-9.274,9.229l12.721,2.976L137.341,483.224z M121.419,477.097l7.113-7.118l-16.936,4.783
		L121.419,477.097z M115.091,486.993l16.898-4.772l-9.774-2.308L115.091,486.993z"/>
	<path style="fill:#000000;" d="M141.159,494.016l-34.906,12.51l-0.987-2.756l34.906-12.51L141.159,494.016z"/>
	<path style="fill:#000000;" d="M133.151,518.501l-18.77,8.211l-1.173-2.681l20.092-8.79l0.34-6.623l3.11-1.36l-0.268,6.592
		l10.689-4.677l1.173,2.682l-12.048,5.271l-0.304,6.607l-3.146,1.376L133.151,518.501z"/>
	<path style="fill:#000000;" d="M156.301,528.233l-32.862,17.148l-1.354-2.595l32.862-17.148L156.301,528.233z"/>
	<path style="fill:#000000;" d="M169.421,550.717l-31.63,19.352l-1.263-2.064l8.756-5.357l5.884-10.875l-12.504,0.055l-8.777,5.324
		l-1.263-2.064l31.63-19.353l1.263,2.064l-6.435,11.396l13.055-0.574L169.421,550.717z M152.431,549.123l4.924-8.778l-15.016,9.187
		L152.431,549.123z M149.014,560.365l14.982-9.167l-10.038,0.422L149.014,560.365z"/>
	<path style="fill:#000000;" d="M180.666,566.659l1.847,2.271l-14.38,11.698l15.339,6.487l-2.32,1.786l-15.29-6.427l-4.541,3.694
		l15.29,6.427l-2.271,1.848l-15.29-6.428l-5.298,4.311l-1.847-2.271L180.666,566.659z"/>
	<path style="fill:#000000;" d="M167.441,608.651l-1.997-2.14l27.081-25.324l2.023,2.169l-0.428,0.399l-5.443,12.873l13.433-4.368
		l0.399-0.372l2.023,2.168l-27.134,25.267l-1.997-2.14l22.744-21.276l-13.184,4.349l5.249-12.853L167.441,608.651z"/>
	<path style="fill:#000000;" d="M201.84,614.331l-14.003,14.956l-2.137-2l14.99-16.011l-2.303-6.219l2.321-2.479l2.356,6.162
		l7.975-8.518l2.136,2l-8.988,9.601l2.33,6.19l-2.347,2.508L201.84,614.331z"/>
	<path style="fill:#000000;" d="M226.958,614.14l-23.455,28.717l-2.267-1.852l23.455-28.717L226.958,614.14z"/>
	<path style="fill:#000000;" d="M241.693,638.432l-7.713-14.421l-3.862,5.442l7.777,14.467l-1.848,2.469l-7.713-14.421
		l-13.821,19.48l-2.387-1.694l21.454-30.238l2.388,1.694l-0.023,0.031l7.736,14.39L241.693,638.432z"/>
	<path style="fill:#000000;" d="M263.828,639.478l-19.352,31.63l-2.064-1.263l5.357-8.757l0.288-12.361l-11.108,5.741l-5.391,8.736
		l-2.064-1.264l19.352-31.63l2.064,1.264l-0.542,13.075l11.362-6.455L263.828,639.478z M247.975,645.794l0.388-10.059l-9.187,15.017
		L247.975,645.794z M250.051,657.359l9.167-14.983l-8.745,4.945L250.051,657.359z"/>
	<path style="fill:#000000;" d="M314.758,662.012l-12.553,34.877l-2.753-0.99l6.276-17.438l-10.768-13.289l16.897-4.203l0.147,0.054
		L314.758,662.012z M306.904,675.192l3.792-10.537l-11.174,2.24L306.904,675.192z"/>
	<path style="fill:#000000;" d="M320.089,663.583l6.14,9.087l1.008,15.013l-4.33,15.239l-2.44-0.693l4.202-14.789l-0.91-13.93
		l-5.264-7.743l-0.451-0.128l-9.439,33.22l-2.853-0.811l10.133-35.66L320.089,663.583z"/>
	<path style="fill:#000000;" d="M343.901,669.6l-7.668,36.269l-2.863-0.605l7.668-36.269L343.901,669.6z"/>
	<path style="fill:#000000;" d="M352.547,690.021l0.044-0.033l15.491-5.065l-3.645,25.571l-2.897-0.409l2.915-20.67l-15.491,5.066
		l3.224-23.148l2.937,0.414L352.547,690.021z"/>
	<path style="fill:#000000;" d="M400.002,691.915l-0.329,20.483l-2.926-0.047l0.352-21.927l-5.883-3.061l0.054-3.395l5.884,2.982
		l0.187-11.666l2.926,0.047l-0.211,13.148l5.883,3.021l-0.055,3.434L400.002,691.915z"/>
	<path style="fill:#000000;" d="M424.209,711.495l-5.975-9.609l-4.776,10.258l-3.39,0.205l6.262-13.515l-6.757-10.892l7.028-13.131
		l8.555,12.19l-5.398,11.625l7.841,12.664L424.209,711.495z M417.854,695.575l3.874-8.366l-4.805-7.061l-3.921,7.587
		L417.854,695.575z"/>
	<path style="fill:#000000;" d="M431.803,692.126l0.034-0.044l13.602-8.988l3.254,25.632l-2.903,0.373l-2.661-20.71l-13.602,8.988
		l-3.019-23.184l2.942-0.378L431.803,692.126z"/>
	<path style="fill:#000000;" d="M464.835,680.798l-8.626-5.769l6.178,31.125l-2.871,0.569l-6.171-31.087l-5.738,8.58l-0.76-3.828
		l6.904-10.323l10.324,6.904L464.835,680.798z"/>
	<path style="fill:#000000;" d="M466.467,667.296l16.608,9.654l-7.456,6.064l14.522,16.284l-2.825,0.766l-15.72-16.972l6.514-5.809
		l-10.726-6.152l8.667,31.985l-2.863,0.775l-9.697-35.79l1.771-0.479l1.093-0.296L466.467,667.296z"/>
	<path style="fill:#000000;" d="M485.707,661.752l10.24,3.93l9.431,11.727l5.186,14.974l-2.397,0.83l-5.031-14.53l-8.73-10.896
		l-8.753-3.33l-0.442,0.153l11.303,32.64l-2.803,0.971l-12.133-35.036L485.707,661.752z"/>
	<path style="fill:#000000;" d="M513.164,651.132l2.264-0.962l14.495,34.124l-2.263,0.961l-11.724-11.429l0.05,16.388l-2.19,0.931
		l-14.532-34.107l2.228-0.946l11.815,11.645l-0.178-16.589L513.164,651.132z M513.347,671.322l-9.222-8.931l9.354,22.019
		L513.347,671.322z M525.173,679.4l-9.344-21.896l0.083,12.77L525.173,679.4z"/>
	<path style="fill:#000000;" d="M554.309,671.735l-2.516,1.497l-18.994-31.842l2.549-1.517l0.3,0.503l11.423,8.053l-1.415-14.054
		l-0.279-0.47l2.549-1.517l18.927,31.882l-2.515,1.496l-15.961-26.743l1.449,13.807l-11.443-7.859L554.309,671.735z"/>
	<path style="fill:#000000;" d="M563.391,634.769l-2.451-11.304l2.408-1.664l3.971,18.65l11.07,16.021l-2.407,1.664l-11.116-16.085
		L548.9,631.785l2.408-1.664l9.63,6.248l-6.034-8.732l2.407-1.664L563.391,634.769z"/>
	<path style="fill:#000000;" d="M589.714,648.266l-2.29,1.823l-23.123-28.981l2.32-1.848l0.365,0.458l12.406,6.436l-3.302-13.734
		l-0.34-0.427l2.32-1.848l23.062,29.03l-2.29,1.823l-19.428-24.341l3.302,13.484l-12.4-6.241L589.714,648.266z"/>
	<path style="fill:#000000;" d="M581.214,607.348l19.18,0.977l-3.85,8.803l20.363,7.824l-2.161,1.974l-21.741-7.886l3.13-8.146
		l-12.35-0.557l22.348,24.458l-2.189,2.001l-25.006-27.368l1.354-1.237l0.835-0.764L581.214,607.348z"/>
	<path style="fill:#000000;" d="M628.982,612.535l-16.135-1.934l9.391,8.983l-2.023,2.114l-26.789-25.628l2.023-2.115l14.438,13.813
		l21.686,2.06L628.982,612.535z"/>
	<path style="fill:#000000;" d="M612.27,575.321l28.47,23.758l-1.876,2.248l-28.47-23.759L612.27,575.321z"/>
	<path style="fill:#000000;" d="M638.297,561.999l-10.247,1.63l25.68,18.633l-1.719,2.368l-25.647-18.609l1.62,10.192l-3.158-2.292
		l-1.95-12.264l12.264-1.95L638.297,561.999z"/>
	<path style="fill:#000000;" d="M647.118,544.408l-13.953,8.524l5.654,3.543l13.995-8.591l2.57,1.703l-13.954,8.525l20.236,12.682
		l-1.554,2.479l-31.412-19.686l1.554-2.479l0.033,0.021l13.921-8.546L647.118,544.408z"/>
	<path style="fill:#000000;" d="M658.088,528.214l-9.932,3.007l27.975,14.973l-1.382,2.581l-27.939-14.955l2.99,9.879l-3.44-1.842
		l-3.599-11.886l11.886-3.599L658.088,528.214z"/>
	<path style="fill:#000000;" d="M651.651,511.837l33.804,15.235l-1.203,2.669l-33.804-15.235L651.651,511.837z"/>
	<path style="fill:#000000;" d="M694.811,503.669l-11.201,1.595l7.461,8.505l-1.179,3.183l-9.842-11.175l-12.688,1.792
		l-9.182-11.722l14.602-2.915l8.461,9.624l14.747-2.07L694.811,503.669z M677.683,503.068l-6.094-6.916l-8.396,1.551l5.361,6.646
		L677.683,503.068z"/>
	<path style="fill:#000000;" d="M680.545,480.888l19.659,5.784l-0.826,2.809l-21.044-6.191l-4.521,4.854l-3.258-0.958l4.445-4.876
		l-11.196-3.295l0.826-2.808l12.619,3.712l4.483-4.865l3.295,0.97L680.545,480.888z"/>
	<path style="fill:#000000;" d="M671.473,446.355l8.242-7.232l14.764-2.888l15.662,2.379l-0.381,2.507l-15.199-2.309l-13.702,2.654
		l-7.019,6.195l-0.07,0.463l34.139,5.186l-0.445,2.932l-36.646-5.566L671.473,446.355z"/>
	<path style="fill:#000000;" d="M685.748,415.531l-8.486,13.98l33.527,2.788l-0.243,2.917l-36.95-3.072l0.243-2.918l0.039,0.004
		l8.447-13.984L685.748,415.531z"/>
	<path style="fill:#000000;" d="M686.138,396.11l-7.53,14.514l33.632,0.54l-0.047,2.926l-37.065-0.379l0.047-2.711h0.039
		l7.491-14.73L686.138,396.11z"/>
	<path style="fill:#000000;" d="M685.221,376.583l-6.538,14.988l6.664-0.342l6.534-15.066l3.083-0.08l-6.538,14.988l23.851-1.223
		l0.149,2.923l-37.022,1.899l-0.149-2.923l0.039-0.002l6.499-14.986L685.221,376.583z"/>
	<path style="fill:#000000;" d="M672.339,358.569l36.819-4.392l0.286,2.403l-10.193,1.216l-9.884,7.43l11.387,5.167l10.198-1.177
		l0.286,2.403l-36.819,4.392l-0.286-2.403l10.602-7.672l-12.104-4.924L672.339,358.569z M694.91,358.314l-17.44,2.081l9.299,3.804
		L694.91,358.314z M687.115,367.105l-8.139,5.924l17.48-2.085L687.115,367.105z"/>
	<path style="fill:#000000;" d="M706.078,337.088l-10.957,12l12.769-2.414l0.544,2.876l-36.429,6.886l-0.543-2.876l19.633-3.711
		l14.287-16.442L706.078,337.088z"/>
	<path style="fill:#000000;" d="M700.972,315.892l-8.271,7.726l10.991,2.698l0.857,3.286l-14.474-3.523l-9.376,8.74l-14.246-4.35
		l10.303-10.757l12.452,3.043l10.905-10.148L700.972,315.892z M686.584,325.214l-8.96-2.18l-5.995,6.083l8.203,2.376
		L686.584,325.214z"/>
</g>
</svg>
