<?xml version="1.0" encoding="utf-8"?>
<!-- Generator: Adobe Illustrator 15.0.0, SVG Export Plug-In . SVG Version: 6.00 Build 0)  -->
<!DOCTYPE svg PUBLIC "-//W3C//DTD SVG 1.1//EN" "http://www.w3.org/Graphics/SVG/1.1/DTD/svg11.dtd">
<svg version="1.1" id="レイヤー_1" xmlns="http://www.w3.org/2000/svg" xmlns:xlink="http://www.w3.org/1999/xlink" x="0px"
	 y="0px" width="800px" height="800px" viewBox="0 0 800 800" enable-background="new 0 0 800 800" xml:space="preserve">
<circle fill="none" stroke="#000000" stroke-width="10" stroke-miterlimit="10" cx="400" cy="400" r="380"/>
<circle fill="none" stroke="#000000" stroke-width="4" stroke-miterlimit="10" cx="400" cy="400" r="308.3018"/>
<ellipse fill="none" stroke="#000000" stroke-width="4" stroke-miterlimit="10" cx="400" cy="400" rx="308.3398" ry="380"/>
<circle fill="none" stroke="#000000" stroke-width="4" stroke-miterlimit="10" cx="400" cy="400" r="300.7539"/>
<g>
	<path d="M630.4512,592.0908l-25.4404-20.1201l1.5879-2.0078l12.9502-6.082l0.7764,0.6143l-12.9775,6.0605l24.6904,19.5273
		L630.4512,592.0908z"/>
	<path d="M649.1787,567.0117l-12.5566-1.623l5.7305,11.4346l-0.4863,0.7002l-6.1484-12.3896l-10.1367-1.3945l-5.9375-12.0342
		l10.8838,1.457l4.8555,9.7012l15.2578,2.0459L649.1787,567.0117z M625.2842,561.5361l9.249,1.2344l-3.6523-7.3662l-9.333-1.293
		L625.2842,561.5361z"/>
	<path d="M624.6406,545.4521l1.3301-2.1885l12.4834-7.3945l0.9688,12.9336l20.8594,0.4521l-0.5156,0.8457l-21.1807-0.4463
		l-0.9609-12.29l-10.8799,6.332l26.958,16.3838l-1.3301,2.1875L624.6406,545.4521z"/>
	<path d="M647.3379,530.1172l-8.1885-10.0967l1.1924-2.2676l28.7012,15.1055l-1.1924,2.2656l-27.252-14.3418l8.25,10.1289
		l-12.8828-1.0313l27.1309,14.2773l-1.208,2.2969l-28.7021-15.1055l1.208-2.2959L647.3379,530.1172z"/>
	<path d="M647.1484,502.7207l29.5859,13.3076l-1.0645,2.3672l-7.2256-3.25l-12.4277-0.0107l8.1904,9.2637l7.2871,3.2764
		l-1.0645,2.3672l-29.5859-13.3066l1.0508-2.3359l12.5342,0.0205l-8.3457-9.333L647.1484,502.7207z M662.6816,523.7109
		l-7.5928-8.5078l-11.6357-0.1045L662.6816,523.7109z M666.9502,514.4727l-19.3105-8.6846l7.8125,8.6045L666.9502,514.4727z"/>
	<path d="M655.9004,478.0645l30.9912,9.5811l-0.7568,2.4473l-30.9922-9.582L655.9004,478.0645z"/>
	<path d="M658.0996,470.8662l11.3135-10.4365l-8.2969-2.0098l0.6035-2.4893l10.7852,2.6133l-11.3125,10.4355l26.5508,6.4336
		l-5.2813-14.4561l10.7861,2.6143l-0.6045,2.4873l-8.2969-2.0098l5.2813,14.4561L658.0996,470.8662z"/>
	<path d="M662.4141,452.3193l17.9834,3.1914l-3.9814-13.71l20.1689,3.5801l-0.4473,2.5215l-17.9561-3.1523l3.9199,13.6631
		l-20.1416-3.54L662.4141,452.3193z"/>
	<path d="M665.1338,435.8789l7.3818-7.1631l12.5674-2.9277l13.6699,1.5615l-0.1162,1.0186l-13.4668-1.5381l-12.1445,2.8389
		l-6.7207,6.4824l31.0361,3.5469l-0.2939,2.5771l-32.2246-3.6826L665.1338,435.8789z"/>
	<path d="M667.4766,406.8516l32.3984,1.7119l-0.1367,2.5918l-7.9121-0.418l-11.5908,4.4834l10.9844,5.6748l7.9805,0.4229
		l-0.1377,2.5918l-32.3975-1.7109l0.1357-2.5586l11.6943-4.5117l-11.1563-5.6846L667.4766,406.8516z M689.5498,420.8076
		l-10.1563-5.1875l-10.8867,4.1104L689.5498,420.8076z M690.1885,410.6504l-21.1445-1.1162l10.3965,5.1992L690.1885,410.6504z"/>
	<path d="M666.5186,376.8457l-0.1738-2.5898l32.3691-2.1738l0.1719,2.5557l-15.0244,6.1094l15.71,4.0791l0.1719,2.5557
		l-32.3672,2.208L667.2021,387l14.9238-6.1016L666.5186,376.8457z M668.291,376.7266l14.7334,3.8027l14.124-5.7744L668.291,376.7266
		z M682.9609,381.1152l-14.1582,5.7764l28.9287-1.9424L682.9609,381.1152z"/>
	<path d="M696.7773,356.2842l-10.3916,7.23l11.9238,4.6196l0.1094,0.8477l-12.874-5.0483l-8.4443,5.7739l-12.4795-4.9268
		l9.04-6.2305l10.1113,3.9253l12.6768-8.731L696.7773,356.2842z M675.4014,368.2744l7.6807-5.2964l-7.6523-3.0039l-7.7813,5.3101
		L675.4014,368.2744z"/>
	<path d="M695.9619,350.6279l-31.8477,6.146l-0.4844-2.5142l3.8428-13.7808l0.9727-0.188l-3.876,13.7881l30.9072-5.9648
		L695.9619,350.6279z"/>
	<path d="M689.1797,320.0908l-9.4199,8.46l12.4053,3.1133l0.2129,0.8271l-13.4004-3.4204l-7.6699,6.7739l-12.9941-3.3477
		l8.2021-7.2998l10.5215,2.6455l11.5029-10.2319L689.1797,320.0908z M669.4434,334.6328l6.9688-6.2061l-7.9658-2.0356l-7.0684,6.231
		L669.4434,334.6328z"/>
	<path d="M656.8252,324.6338l-0.7939-2.4346l2.5283-14.292l10.4434,7.6968l13.9414-15.5298l0.3066,0.9419l-14.1484,15.7769
		l-9.9482-7.2832l-2.2891,12.3813l30.0029-9.771l0.793,2.4351L656.8252,324.6338z"/>
	<path d="M644.6885,291.6831l16.5469-7.7393l-11.1465-8.9229l18.5586-8.6792l1.085,2.3203l-16.5029,7.7549l11.0703,8.9199
		l-18.5127,8.6963L644.6885,291.6831z"/>
	<path d="M634.4678,271.2109l28.4844-15.54l1.2266,2.249l-28.4834,15.54L634.4678,271.2109z"/>
	<path d="M639.5078,259.1382l-1.4443,0.9087l-11.3174-1.9619l2.417-10.5947l1.4453-0.9092l-2.0205,8.853l24.9541-15.6831
		l1.3633,2.168l-24.8105,15.5928L639.5078,259.1382z"/>
	<path d="M637.8184,217.0981l-25.1797,20.4536l-1.6143-1.9878l-3.1172-13.9648l0.7686-0.624l3.0908,13.9868l6.1494-4.9951
		l-3.1455-13.9438l0.7695-0.625l3.1182,13.9653l17.5459-14.2534L637.8184,217.0981z"/>
	<path d="M591.8213,213.4629l23.874-21.9609l1.7578,1.9102l-5.8311,5.3628l-4.8994,11.4189l11.7383-3.8838l5.8809-5.4102
		l1.7568,1.9102l-23.875,21.9609l-1.7324-1.8853l4.9512-11.5137l-11.8633,4L591.8213,213.4629z M610.416,199.8838l-15.5811,14.333
		l10.9844-3.7949L610.416,199.8838z M617.2295,207.4429l-10.8096,3.6333l-4.6738,10.6548L617.2295,207.4429z"/>
	<path d="M593.7754,198.6958l-11.9756,5.064l-1.8457-1.7749l22.4824-23.3809l1.8467,1.7749l-21.3486,22.2002l12.0225-5.1143
		l-4.5684,12.0923l21.2529-22.1021l1.8701,1.7979l-22.4824,23.3818l-1.8701-1.7979L593.7754,198.6958z"/>
	<path d="M585.7666,193.4189l-1.1045,1.3008l-11.3818,1.5293l-0.8789-10.8291l1.1045-1.3008l0.7344,9.0479l19.0811-22.4521
		l1.9512,1.6582l-18.9707,22.3223L585.7666,193.4189z"/>
	<path d="M543.7627,136.6621l2.5361,17.1699l6.7891-11.811l2.2197,1.2759l-16.1631,28.1221l-2.2197-1.2759l8.7109-15.1563
		l-2.79-18.853L543.7627,136.6621z"/>
	<path d="M528.4688,128.8882l0.249,12.6606l10.4639-7.3579l0.7666,0.3779l-11.3496,7.9121l0.1182,10.2329l-11.0283,7.6514
		l-0.166-10.9814l8.8809-6.2368l-0.2295-15.396L528.4688,128.8882z M526.5801,153.334l-0.1436-9.332l-6.748,4.7012l0.0986,9.4238
		L526.5801,153.334z"/>
	<path d="M504.4463,153.7241l-2.3613-0.9922l5.252-12.4971l-3.7285-4.3447l0.3691-0.8813l3.7295,4.3452l6.9453-16.5259
		l2.3604,0.9917l-7.4346,17.6909l3.7793,4.4033L513,146.7642l-3.793-4.3721L504.4463,153.7241z"/>
	<path d="M493.1406,149.1367l6.0176-17.2485l-14.1719,1.7476l6.748-19.3447l2.418,0.8428l-5.9736,17.2295l14.1162-1.6943
		l-6.7041,19.3242L493.1406,149.1367z"/>
	<path d="M475.8213,130.9961l-8.1582,10.126l-2.4668-0.6909l8.7559-31.2393l2.4658,0.6909l-8.3125,29.6602l8.1758-10.1919
		l1.6914,12.8159l8.2764-29.5288l2.499,0.7007l-8.7549,31.2383l-2.499-0.7002L475.8213,130.9961z"/>
	<path d="M457.0713,105.458l7.6621,15.5762l2.8545-13.3213l2.5039,0.5371l-6.7988,31.7168l-2.5039-0.5366l3.6641-17.0942
		l-8.417-17.0991L457.0713,105.458z"/>
	<path d="M449.5,126.5771l-0.2539,1.688l-8.8682,7.2988l-6.4541-8.7407l0.2539-1.6885l5.3945,7.3042l4.3848-29.1421l2.5322,0.3809
		l-4.3594,28.9731L449.5,126.5771z"/>
	<path d="M425.0498,121.6929l-6.1475,11.4561l-2.5518-0.2251l2.8418-32.311l2.5508,0.2241l-2.6973,30.6792l6.1543-11.5229
		l4.0264,12.2817l2.6865-30.542l2.585,0.2271l-2.8418,32.312l-2.585-0.228L425.0498,121.6929z"/>
	<path d="M415.4824,122.6079l-0.0459,1.707l-7.9082,8.3281l-7.4756-7.8862l0.0459-1.707l6.2451,6.5894l0.79-29.458l2.5615,0.0679
		l-0.7861,29.2871L415.4824,122.6079z"/>
	<path d="M396.0596,132.5259l-8.1719-6.2529l-4.7422-12.0059l-0.4609-13.7563l1.0244-0.0347l0.4551,13.5508l4.5918,11.6011
		l7.4014,5.6982l-1.0469-31.2334l2.5938-0.0869l1.0869,32.4272L396.0596,132.5259z"/>
	<path d="M382.2871,133.001l-2.5498,0.2422l-13.3936-5.5923l9.793-8.5078l-12.1055-16.999l0.9854-0.0933l12.3027,17.2554
		l-9.2822,8.1157l11.582,4.9399l-2.9756-31.4126l2.5508-0.2422L382.2871,133.001z"/>
	<path d="M342.9844,105.4072l6.9727,31.6875l-2.502,0.5513l-13.8809-3.4849l-0.2129-0.9673l13.8877,3.519l-1.7031-7.7378
		l-13.874-3.4521l-0.2129-0.9668l13.8809,3.4849l-4.8584-22.082L342.9844,105.4072z"/>
	<path d="M321.5811,144.1611l-2.4941,0.7139l-8.9297-31.1812l2.4619-0.7046l9.1289,13.4019l0.6836-16.2119l2.4619-0.7051
		l8.9629,31.1709l-2.4941,0.7139l-9.1025-13.3037L321.5811,144.1611z M321.0918,142.4551l0.6191-15.2002l-8.6133-12.5908
		L321.0918,142.4551z M322.2969,127.1938l8.623,12.624l-7.9795-27.8647L322.2969,127.1938z"/>
	<path d="M309.5898,148.1929l-10.8428-30.5718l2.4141-0.856l10.8428,30.5718L309.5898,148.1929z"/>
	<path d="M302.4727,150.7441l-15.127-2.8359l3.3467,7.854l-2.3564,1.0029l-4.3486-10.2109l15.127,2.8359l-10.7061-25.1343
		l-8.4365,12.873l-4.3486-10.21l2.3564-1.0039l3.3447,7.854l8.4365-12.873L302.4727,150.7441z"/>
	<path d="M279.3184,161.231l-14.54-28.9917l2.2891-1.1484l14.5391,28.9922L279.3184,161.231z"/>
	<path d="M270.3633,165.9258l-9.1846-15.7876l-7.8906,11.897l-10.3003-17.707l2.2134-1.2881l9.1958,15.7422l7.896-11.8213
		l10.3115,17.6602L270.3633,165.9258z"/>
	<path d="M250.897,177.9219l-18.0029-26.9907l2.1309-1.4214l18.0029,26.9912L250.897,177.9219z"/>
	<path d="M213.7451,164.8501l16.8091,4.3408l-8.2432-10.8491l2.0391-1.5488l19.627,25.832l-2.04,1.5488l-10.5781-13.9219
		l-18.457-4.7607L213.7451,164.8501z"/>
	<path d="M224.7329,197.9609l-21.1787-24.5698l1.9399-1.6724l21.1777,24.5713L224.7329,197.9609z"/>
	<path d="M214.1631,207.6982l-1.834,1.7876l-9.4619-9.71l-5.457,1.7412l-0.667-0.6851l5.457-1.7412L189.687,186.25l1.834-1.7881
		l13.395,13.7471l5.5288-1.7642l0.644,0.6602l-5.5059,1.7891L214.1631,207.6982z"/>
	<path d="M188.9761,207.6611l-6.353-14.3901l0.5742-0.6318l3.7759,8.5918l7.6597,2.9409l4.2432,7.2642l8.2031,3.1558l-1.583,1.7451
		l-14.2822-5.3999l6.25,14.25l-0.4819,0.5308l-3.7988-8.5669l-7.291-2.79l-4.0342-6.936l-8.9878-3.4087l1.7207-1.896
		L188.9761,207.6611z M190.2778,210.5947l-7.2139-2.7207l2.2651,3.854l6.5781,2.5581L190.2778,210.5947z M189.936,208.0249
		l7.708,2.938l-2.4263-4.186l-7.0195-2.6821L189.936,208.0249z"/>
	<path d="M171.8828,238.6162l6.7983,11.0869l-1.48,2.0908l-26.4844-18.7432l1.4805-2.0908l25.1455,17.7959l-6.8535-11.126
		l12.6406,2.7119l-25.0337-17.7168l1.5-2.1191l26.4839,18.7432l-1.5,2.1191L171.8828,238.6162z"/>
	<path d="M148.9839,235.6421l27.5859,17.0757l-1.3477,2.1782l-12.1714,7.5278l-0.8418-0.521l12.2002-7.5098l-26.7734-16.5732
		L148.9839,235.6421z"/>
	<path d="M163.6689,274.6431l-28.585-15.3359l1.21-2.2573l28.5859,15.3359L163.6689,274.6431z"/>
	<path d="M150.8052,277.019l1.5508,0.7119l4.5488,10.543l-10.187,3.7729l-1.5508-0.7119l8.5107-3.1528l-26.7705-12.2993
		l1.0688-2.3267l26.6157,12.228L150.8052,277.019z"/>
	<path d="M141.8652,329.5269l-17.7231-4.4487l3.0098,13.9609l-19.876-4.9893l0.624-2.4849l17.6982,4.4082l-2.9521-13.9111
		l19.8521,4.9478L141.8652,329.5269z"/>
	<path d="M125.335,348.4092l10.813,7.2197l-0.4678,2.5181l-31.8911-5.9292l0.4678-2.5176l30.2803,5.6289l-10.8799-7.2319
		l12.6118-2.8301l-30.145-5.604l0.4741-2.5508l31.8911,5.9287l-0.4751,2.5508L125.335,348.4092z"/>
	<path d="M133.9482,371.9121l-0.3154,2.5752l-32.1948-3.9434l0.311-2.542l15.9028-3.1777l-14.6616-6.9551l0.3105-2.542
		l32.2002,3.9087l-0.3149,2.5762l-15.8013,3.1899L133.9482,371.9121z M132.1851,371.6963l-13.7539-6.5l-14.9551,3.0186
		L132.1851,371.6963z M118.603,364.6318l14.9888-3.0146l-28.772-3.5234L118.603,364.6318z"/>
	<path d="M132.4639,404.9033l-0.042,2.5957L99.98,406.9775l0.041-2.5615l15.4829-4.8398l-15.3188-5.3701l0.041-2.5605
		l32.4419,0.4863l-0.042,2.5957l-15.3799,4.8428L132.4639,404.9033z M130.688,404.875l-14.3682-5.0127l-14.5566,4.583
		L130.688,404.875z M116.4321,399.2832l14.5908-4.582l-28.9932-0.4658L116.4321,399.2832z"/>
	<path d="M100.9199,422.916l10.8711-6.4922l-11.5752-5.4375l-0.0508-0.8535l12.4941,5.9336l8.8276-5.1748l12.1094,5.7832
		l-9.4531,5.5869l-9.8159-4.6191l-13.2539,7.8301L100.9199,422.916z M123.083,412.4385l-8.0322,4.751l7.4263,3.5283l8.1338-4.7568
		L123.083,412.4385z"/>
	<path d="M125.105,450.3594l12.6748,2.8906l0.4604,2.5186l-31.9053,5.8281l-0.46-2.5195l30.293-5.5322l-12.7422-2.8789
		l10.7734-7.1387l-30.1592,5.5078l-0.4658-2.5518l31.9048-5.8271l0.4658,2.5518L125.105,450.3594z"/>
	<path d="M140.6201,465.5635l-31.4854,7.7988l-0.6157-2.4854l31.4849-7.7988L140.6201,465.5635z"/>
	<path d="M143.2852,475.4854l-3.833,9.5488l-10.2949,7.7881l-13.1294,4.1328l-0.3076-0.9785l12.9326-4.0703l9.9463-7.5342
		l3.5049-8.6582l-29.8091,9.3828l-0.7788-2.4766l30.9487-9.7412L143.2852,475.4854z"/>
	<path d="M148.3579,491.0088l-17.0537,6.5557l10.4917,9.6865l-19.125,7.3535l-0.9189-2.3916l17.0088-6.5752l-10.4155-9.6797
		l19.0806-7.3711L148.3579,491.0088z"/>
	<path d="M159.7671,517.9688l-29.499,13.4961l-1.0801-2.3604l7.2041-3.2959l8.1919-9.3428l-12.3638,0.0625l-7.2661,3.3232
		l-1.0801-2.3594l29.499-13.4951l1.0649,2.3281l-8.271,9.417l12.519-0.1318L159.7671,517.9688z M133.7422,515.8311l11.4028-0.1094
		l7.7422-8.6865L133.7422,515.8311z M137.8828,525.127l19.252-8.8076l-11.6196,0.209L137.8828,525.127z"/>
	<path d="M137.6841,545.5615l7.1519-10.4434l-12.7861-0.0928l-0.4019-0.752l13.8262,0.1543l5.8491-8.3926l13.4146,0.1826
		l-6.2437,9.0293l-10.8472-0.085l-8.7559,12.6572L137.6841,545.5615z M153.4199,526.7725l-5.3027,7.6748l8.2197,0.0957l5.394-7.7236
		L153.4199,526.7725z"/>
	<path d="M174.7578,544.3691l1.3623,2.209l-27.6143,17.0332l-1.3447-2.1816l10.438-12.417l-15.7993,3.7266l-1.3447-2.1807
		l27.5967-17.0615l1.3633,2.209l-10.3511,12.3633L174.7578,544.3691z M158.2231,548.2686l9.8257-11.7188l-24.6787,15.2227
		L158.2231,548.2686z M173.2461,545.3018l-14.8062,3.5156l-9.7969,11.6992L173.2461,545.3018z"/>
	<path d="M178.0142,567.0771l1.334-1.0664l11.4639,0.6729l-1.2051,10.7979l-1.333,1.0654l1.0073-9.0215l-23.0181,18.3955l-1.5991-2
		l22.8848-18.29L178.0142,567.0771z"/>
	<path d="M192.645,587.2832l12.2979-4.2256l1.7192,1.8984l-24.0493,21.7715l-1.7188-1.8975l22.833-20.6729l-12.3481,4.2705
		l5.394-11.748l-22.7319,20.5811l-1.7422-1.9238l24.0483-21.7715l1.7417,1.9238L192.645,587.2832z"/>
	<path d="M218.4141,596.5244l-22.6709,23.1924l-1.855-1.8125l5.5366-5.6641l4.2852-11.6621l-11.5127,4.501l-5.5845,5.7129
		l-1.855-1.8125l22.6714-23.1934l1.8306,1.79l-4.333,11.7578l11.6323-4.6221L218.4141,596.5244z M193.3652,603.8828l10.5986-4.2002
		l4.1011-10.8867L193.3652,603.8828z M200.5688,611.0684l14.7964-15.1377l-10.7661,4.3711L200.5688,611.0684z"/>
	<path d="M219.2529,597.3096l4.1069,14.8291l5.5811-6.458l1.938,1.6738l-7.2549,8.3965l-4.106-14.8301l-17.8589,20.667
		l15.2686,1.9131l-7.2549,8.3965l-1.938-1.6758l5.5811-6.458l-15.2681-1.9131L219.2529,597.3096z"/>
	<path d="M222.2749,641.6416l2.168-12.4766l-11.6738,5.2285l-0.6792-0.5176l12.647-5.6035l1.834-10.0684l12.2842-5.4092
		l-1.9292,10.8135l-9.9058,4.4307l-2.708,15.1563L222.2749,641.6416z M228.7871,618.0029l-1.6362,9.1885l7.52-3.3291l1.6992-9.2705
		L228.7871,618.0029z"/>
	<path d="M244.8931,618.0557l2.1279,1.4258l6.8442,12.8008l-12.9683,0.4014l-1.3647,20.8262l-0.8232-0.5508l1.375-21.1484
		l12.3242-0.4229l-5.8521-11.1494l-17.5542,26.2246l-2.1279-1.4248L244.8931,618.0557z"/>
	<path d="M280.4824,639.3525l-14.626,28.9482l-2.2861-1.1553l14.626-28.9473L280.4824,639.3525z"/>
	<path d="M293.5459,645.4111l2.3535,1.0117l-5.3555,12.4541l3.6943,4.377l-0.377,0.8779l-3.6943-4.376l-7.082,16.4717
		l-2.3535-1.0127l7.582-17.6318l-3.7441-4.4346l0.3633-0.8477l3.7578,4.4033L293.5459,645.4111z"/>
	<path d="M304.7627,684.5293l-5.5371-16.4521l-4.5898,12.8281l-2.4121-0.8633l10.9307-30.543l2.4111,0.8633l-5.8916,16.4609
		l6.085,18.0625L304.7627,684.5293z"/>
	<path d="M326.5156,657.2451l-9.0156,31.166l-2.46-0.7109l9.0156-31.167L326.5156,657.2451z"/>
	<path d="M346.2236,662.1064l2.5332,0.5645l-7.0596,31.6582l-2.5-0.5566l-1.6143-16.1387l-8.3496,13.915l-2.5-0.5566l7.0254-31.667
		l2.5332,0.5645l1.6357,16.0361L346.2236,662.1064z M337.4844,676.6699l-1.541-15.2109l-6.3096,28.293L337.4844,676.6699z
		 M345.8369,663.8398l-7.8086,13.0557l1.5479,15.1787L345.8369,663.8398z"/>
	<path d="M358.6865,664.2979l-5.0879,32.0361l-2.5283-0.4023l5.0879-32.0342L358.6865,664.2979z"/>
	<path d="M378.8682,666.6758l2.583,0.248l-3.1025,32.2969l-2.5498-0.2451l-3.5928-15.8174L365.6338,698l-2.5498-0.2441
		l3.0684-32.3008l2.583,0.249l3.6025,15.7168L378.8682,666.6758z M371.9893,682.209l-3.4063-14.9082l-2.7715,28.8633
		L371.9893,682.209z M378.6982,668.4434l-6.1416,13.9238l3.4092,14.875L378.6982,668.4434z"/>
	<path d="M385.3164,667.1221l7.7227,6.7939l3.9092,12.2969l-0.4795,13.75l-1.0225-0.0352l0.4717-13.5449l-3.7871-11.8838
		l-6.9922-6.1875l-1.0889,31.2188l-2.5928-0.0908l1.1299-32.4131L385.3164,667.1221z"/>
	<path d="M405.8545,667.3662l2.5605-0.0645l0.3457,13.5508l5.1865,2.4307l0.0225,0.9561l-5.1846-2.4307l0.4561,17.9209
		l-2.5605,0.0645l-0.4883-19.1836l-5.2539-2.4619l-0.0234-0.9229l5.2529,2.4287L405.8545,667.3662z"/>
	<path d="M416.3916,677.335l-0.1465-1.7012l6.9199-9.1699l8.3184,6.9941l0.1465,1.7012l-6.9512-5.8438l2.542,29.3643l-2.5527,0.2227
		l-2.5264-29.1953L416.3916,677.335z"/>
	<path d="M450.541,662.7549l9.1318,4.7344l6.7568,10.9932l2.8486,13.4609l-1.002,0.2119l-2.8066-13.2617l-6.5381-10.6201
		l-8.2764-4.3213l6.4648,30.5625l-2.5391,0.5371l-6.7109-31.7305L450.541,662.7549z"/>
	<path d="M466.7314,669.751l-0.457-1.6465l5.125-10.2803l9.458,5.3516l0.4561,1.6465l-7.9023-4.4736l7.874,28.4043l-2.4688,0.6846
		l-7.8281-28.2393L466.7314,669.751z"/>
	<path d="M507.5254,680.1602l-12.4238-29.9629l2.3652-0.9814l14.2725,0.9951l0.3799,0.9141l-14.2861-1.0254l12.0566,29.0801
		L507.5254,680.1602z"/>
	<path d="M524.5947,672.9883l-14.2637-29.1367l2.2998-1.127l14.3096,0.1055l0.4355,0.8896l-14.3242-0.1357l3.4844,7.1152
		l14.2939,0.0732l0.4346,0.8906l-14.3086-0.1055l9.9395,20.3047L524.5947,672.9883z"/>
	<path d="M541.7051,634.5098l0.4893,0.8604l-0.0762,0.0049l0.0166,0.0293l-6.7588,14.0156l14.3447-0.8125l0.4893,0.8594
		l-6.8164,14.0488l-2.2266,1.2666l-16.0322-28.1943l2.2266-1.2656L541.7051,634.5098z M527.833,636.1533l7.1035,12.4941
		l6.2959-13.2412L527.833,636.1533z M535.8486,650.25l7.1221,12.5244l6.3252-13.2588L535.8486,650.25z"/>
	<path d="M567.9121,648.5674l-11.0313-6.209l1.0283,12.7461l-0.7139,0.4668l-1.0586-13.7871l-8.874-5.0908l-0.9941-13.3799
		l9.543,5.4277l0.8662,10.8125l13.377,7.6133L567.9121,648.5674z M547.8145,634.5391l8.1094,4.6104l-0.625-8.1973l-8.167-4.6953
		L547.8145,634.5391z"/>
	<path d="M553.2539,619.3662l2.0537-1.5303l14.3525-2.1719l-3.9551,12.3564l19.1738,8.2451l-0.7939,0.5928l-19.4736-8.3633
		l3.7197-11.7568l-12.4639,1.79l18.8496,25.3076l-2.0537,1.5303L553.2539,619.3662z"/>
	<path d="M580.0635,613.6689l-3.8008-12.4326l1.9561-1.6523l20.9326,24.7734l-1.9561,1.6514l-19.874-23.5205l3.8438,12.4834
		l-11.5527-5.792l19.7861,23.418l-1.9814,1.6748l-20.9326-24.7734l1.9814-1.6738L580.0635,613.6689z"/>
</g>
<circle fill="none" stroke="#000000" stroke-width="4" stroke-miterlimit="10" cx="400" cy="400" r="266.792"/>
<polygon fill="none" stroke="#000000" stroke-width="4" stroke-miterlimit="10" points="170.7749,534 400,136.9722 629.2236,534 "/>
<polygon fill="none" stroke="#000000" stroke-width="4" stroke-miterlimit="10" points="170.7749,266 400,663.0273 629.2236,266 "/>
<path opacity="0.5" d="M241.2739,56.2871l6.5249,13.166c1.3574-0.9512,2.7217-1.8906,4.0918-2.8174l-6.2236-12.5259
	L241.2739,56.2871z M256.1099,49.8091l-3.7876,1.4399l4.5859,12.0649c1.1592-0.7495,2.3228-1.4897,3.4902-2.2212L256.1099,49.8091z
	 M521.3809,50.5835c1.4893,0.7871,2.9727,1.5874,4.4502,2.4023l2.915-9.207l-4.7363-1.499L521.3809,50.5835z M500.7041,34.9019
	l0.9902,6.2559c1.6465,0.7085,3.2861,1.4326,4.9189,2.1743l-1.2354-6.9512L500.7041,34.9019z M276.0264,42.2378l3.0459,8.106
	c1.2139-0.6387,2.4312-1.2686,3.6533-1.8882l-2.9111-7.6577L276.0264,42.2378z M310.1914,32.2119l1.0293,3.7803
	c1.5376-0.5684,3.0791-1.1255,4.6265-1.665l-0.9263-3.4033L310.1914,32.2119z M219.3721,67.1411l8.6191,17.439
	c1.3027-1.0811,2.6143-2.1475,3.9312-3.2051l-8.1582-16.4111L219.3721,67.1411z M89.959,243.3882l-0.0308-0.0874l24.9678,11.7354
	c0.5298-1.5801,1.0679-3.1543,1.6143-4.7231l-31.9521-14.9512l0.46,27.3003l-31.6499-14.874l-2.085,4.437L90.418,270.688
	L89.959,243.3882z M98.8052,302.7109l-0.8623-0.3081L81.106,285.7861l23.3359-1.814l0.9243,0.3296l1.667-4.6797L48.52,258.8389
	l-1.646,4.6182l49.1318,17.5098l-23.1558,2.0859l16.6187,16.2603l-49.1538-17.4478l-1.646,4.6177l58.4692,20.9072L98.8052,302.7109z
	 M93.2271,233.0537l4.9448,2.9385l9.29-6.0381l13.5464,8.0474c0.5933-1.5493,1.1953-3.0923,1.8052-4.6299l-10.7114-6.3638
	l9.2329-6.0718l-4.8892-2.9048l-9.3457,6.0049l-31.583-18.7632l-2.5039,4.2153l29.5039,17.5278L93.2271,233.0537z
	 M154.6567,169.8071c0.8735-1.4116,1.7524-2.8174,2.6416-4.2134l-30.7622-27.4336l-3.2632,3.6587l16.2451,14.4863l-27.1201-2.291
	l-4.1768,4.6841l36.418,2.1758L154.6567,169.8071z M120.0571,210.9609l11.959,0.9683c0.7104-1.5337,1.4272-3.063,2.1548-4.5835
	l-10.7148-1.0225l-6.6382-13.9414l15.293,2.1323l3.8633,9.1108c0.9312-1.897,1.876-3.7817,2.833-5.6567l-3.2964-8.0942
	l-21.2627-2.9409l-10.7212-22.5239l-3.3608,4.5869l8.1118,17.127l-18.7749-2.5771l-3.3608,4.5859l24.707,3.439L120.0571,210.9609z
	 M198.5908,79.6299l12.479,20.0464c1.2061-1.1543,2.4189-2.2988,3.6396-3.4316l-11.9556-19.2056L198.5908,79.6299z
	 M668.9932,211.9678l-0.1885,1.7446c1.166,2.5498,2.3076,5.1187,3.4268,7.7046l0.8271-7.8511l13.9053-18.7988l21.3721-14.3691
	l-2.3701-3.5259l-22.0225,14.8057L668.9932,211.9678z M710.4014,244.1108l0.0889,0.0259l-24.5918,13.291
	c0.5254,1.5972,1.04,3.2002,1.5479,4.8076l32.6211-17.7012l-22.2373-15.8472l30.7676-16.6289l-2.3311-4.313l-38.1025,20.519
	L710.4014,244.1108z M617.7842,668.999l1.209,0.5908l-0.4072-1.583C618.3184,668.3379,618.0527,668.6699,617.7842,668.999z
	 M676.8242,232.459l45.8076-30.7959l-2.7705-4.123l-44.9463,30.2158C675.5605,229.3174,676.1963,230.8853,676.8242,232.459z
	 M743.7773,266.457l-39.1572,16.4941l5.5449-28.9351l-22.3438,9.4116c0.4893,1.5659,0.9707,3.1362,1.4443,4.7119l13.7666-5.7988
	l-5.5449,28.9351l57.2285-24.1069l-24.5762-16.2471l15.0615-6.3438l-1.9033-4.5181L719.2012,250.21L743.7773,266.457z
	 M716.0889,385.9775l0.915-0.0156l21.5967,9.6543l-21.2168,9.8857l-0.9795,0.0156l0.0801,4.9678l62.085-1.0654l-0.0791-4.9014
	l-52.1523,0.8389l20.9531-10.0781l-21.2676-9.3975l52.1514-0.9063l-0.0791-4.9004l-62.0869,0.9346L716.0889,385.9775z
	 M702.9297,308.7251l59.3037-18.4243l-1.4551-4.6816l-59.3027,18.4238L702.9297,308.7251z M713.2383,354.8032l20.1953,8.4287
	l-17.8701,12.687l0.4434,4.0283l61.7236-6.7979l-0.4434-4.0283l-17.0947,1.8174l-18.9902-8.8257l16.665-12.2915l17.0879-1.8823
	l-0.4443-4.0278l-61.7236,6.7979L713.2383,354.8032z M752.9883,371.7949l-29.3037,3.2285l13.7178-9.7969L752.9883,371.7949z
	 M750.5898,350.623l-13.7227,9.731l-15.5146-6.5112L750.5898,350.623z M151.1528,635.6494l4.4736-3.8975
	c-2.1602-3.4541-4.272-6.957-6.3364-10.5039L151.1528,635.6494z M602.8711,106.9092l22.1328-11.5063l-4.7021-3.1978l-16.8311,8.709
	l1.915-18.854l-4.7021-3.1992l-2.5674,24.813l-3.3428,1.7339c2.5186,2.5322,5.0059,5.1099,7.457,7.7373L602.8711,106.9092z
	 M580.083,91.5181c1.2549,1.1143,2.5029,2.2383,3.7432,3.375l10.8213-19.769l-4.3018-2.354L580.083,91.5181z M613.915,126.3311
	l13.0898-15.8052l-6.4834,20.791l-1.7451,0.9136c1.4385,1.7852,2.8652,3.5854,4.2754,5.4053l0.998-3.3018l19.3857-10.2378
	l-16.0273,19.2876c0.8115,1.0908,1.6162,2.1875,2.417,3.29l23.3955-28.2148l-3.0664-2.5488l-24.3633,12.647l8.0234-26.2261
	l-3.1689-2.6318l-19.4648,23.4248C612.0977,124.1865,613.0088,125.2554,613.915,126.3311z M95.2441,314.6479l1.189-4.7559
	l-60.2451-15.061l-1.189,4.7559l21.1172,5.2793l-25.0811,10.5747l-1.521,6.0879l33.2607-14.9976L95.2441,314.6479z
	 M651.5811,180.2485l15.4229-12.6826l-6.1699,15.6538l-6.8545,1.2549c0.6836,1.2222,1.3623,2.4487,2.0352,3.6812l3.5186-0.6519
	l-1.6318,4.147c0.8184,1.5352,1.625,3.0801,2.4258,4.6309l3.6201-9.2759l16.6416-3.021l-18.6885,15.3687
	c0.624,1.2354,1.2441,2.4746,1.8574,3.7197l38.29-31.4863l-2.5742-3.1299l-13.3193,10.8691l-20.7285,2.9951l7.2334-19.4043
	l13.2783-10.9199l-2.5732-3.1299l-33.8516,27.8359C650.208,177.8799,650.8975,179.0615,651.5811,180.2485z M535.4072,46.2949
	l1.1709,12.9258c1.7959,1.0957,3.5811,2.2153,5.3574,3.3525l-1.2998-14.0444L535.4072,46.2949z M545.5225,64.9067
	c1.4668,0.9692,2.9277,1.9492,4.3809,2.9468l12.5508-10.0024l-5.2295-2.2339L545.5225,64.9067z M473.207,769.2246l0.4092,1.9941
	l4.8018-0.9844l-0.5078-2.4746C476.3467,768.2617,474.7803,768.752,473.207,769.2246z M608.502,679.9443l18.7627,22.9619
	l3.8008-3.0986L611.79,676.1689C610.7021,677.4365,609.6055,678.6953,608.502,679.9443z M259.6592,751.4971l4.5654,1.7842
	l3.8105-9.752c-1.4292-0.835-2.8525-1.6816-4.2695-2.543L259.6592,751.4971z M507.1934,756.4014l1.8604,6.0234l4.6855-1.4453
	l-2.0625-6.6768C510.1885,755.0156,508.6934,755.7158,507.1934,756.4014z M64.083,363.9209l6.4629,0.9639l16.7173-12.376
	L74.8857,335.793l-6.4648-0.9639l10.2871,13.8931l-52.4971-7.8311l-0.7231,4.8491l52.562,7.8398L64.083,363.9209z
	 M317.6514,769.6895l4.8242,0.8672l1.3721-2.2402c-1.4878-0.4658-2.9731-0.9404-4.4526-1.4336L317.6514,769.6895z
	 M341.6113,773.1963l0.1641,0.8359l4.8242,0.8682l-0.1216-0.6113C344.8521,773.9385,343.229,773.5781,341.6113,773.1963z
	 M602.1582,686.9336l15.2666,22.9014l4.0781-2.7197l-15.9014-23.9297C604.4609,684.4443,603.3145,685.6953,602.1582,686.9336z
	 M734.4668,447.3398l-23.2139,9.1309l18.6113,16.6084l20.3906-6.7129l19.5381,15.5117l1.001-5.5977l-14.8203-11.8135l17.9961-5.9463
	l1.001-5.5986l-23.7031,7.7813L734.4668,447.3398z M730.877,467.417l-10.8086-9.3691l13.3857-5.0439l12.0957,9.6006L730.877,467.417
	z M739.0508,415.0498l-24.6211,20.707l-0.0156,0.1953l-0.1523,1.8896l-0.2461,3.0625l61.8965,4.9863l0.3984-4.9521l-55.3154-4.4551
	l15.7705-13.4199l5.4668,13.5566l35.6484-15.1621l0.3945-4.8867l-33.8906,13.6641L739.0508,415.0498z M624.333,660.6914
	l21.8789,26.7656l3.7988-3.0977l-22.5879-27.7627C626.4014,657.9707,625.3711,659.3359,624.333,660.6914z M725.6865,476.8818
	l-5.5371-1.5566l-18.3359,20.3086l-0.0635-0.0176l-1.3262,4.7188l59.7813,16.8008l1.3262-4.7188l-54.2432-15.2451L725.6865,476.8818
	z M644.0264,632.3037l21.7959,21.9717l-20.0596-8.4795l-4.0107-9.9131c-0.957,1.4883-1.9238,2.9668-2.8984,4.4365l1.2842,3.1348
	l-2.6318-1.1123c-0.8174,1.2148-1.6416,2.4238-2.4707,3.626l7.3828,3.0459l8.2979,20.291l-18.748-18.96
	c-0.7773,1.0928-1.5586,2.1797-2.3457,3.2607l25.751,25.9863l2.835-2.8037l-10.21-25.4795l25.3154,10.541l2.9277-2.8955
	l-29.9561-30.2939C645.5381,629.8799,644.7852,631.0947,644.0264,632.3037z M672.2031,578.6484l9.7441,14.9199l-15.0322-3.209
	c-0.6445,1.3701-1.2959,2.7344-1.9541,4.0938l20.2734,4.1436l11.9736,18.3594l-32.3857-22.2178
	c-0.5859,1.2061-1.1748,2.4072-1.7705,3.6045l40.6689,27.8369l2.2549-3.2881l-14.8301-23.0928l26.8467,5.5771l2.3301-3.3965
	l-44.9551-30.8379C674.334,573.6602,673.2803,576.1621,672.2031,578.6484z M709.208,599.3496l-21.2949-4.543l-11.6172-17.9561
	L709.208,599.3496z M701.7568,551.9063l-19.3662,0.9063c-0.7305,2.0498-1.4785,4.0889-2.2383,6.1191l8.959,15.8564l21.4648,0.2139
	l13.498,20.9766l2.751-4.9766l-10.2256-15.957l18.9502,0.168l2.751-4.9756l-24.9424-0.2695L701.7568,551.9063z M691.8926,569.7549
	l-7.2139-12.3506l14.2959-0.4629l8.3574,12.9824L691.8926,569.7549z M294.9941,763.6094l4.7178,1.332l1.3867-4.9111
	c-1.5205-0.6338-3.0342-1.2871-4.5435-1.9502L294.9941,763.6094z M86.751,558.2578l4.7529-2.0225l0.8999-27.4941l10.1714-4.6367
	l-0.9551,27.375l5.2358-2.3867l0.895-27.3477l0.0591-0.0273l-2.0342-4.4609L49.272,543.0166l2.0332,4.46l36.4009-16.5938
	L86.751,558.2578z M73.1729,491.8057l16.9692-27.3359l-0.0459-0.1895l-0.4424-1.8447l-0.7168-2.9863l-60.3901,14.4961l1.1602,4.8311
	l53.9688-12.9551L72.855,483.4775L63.4458,472.29L34.269,497.7822l1.144,4.7676l27.9697-23.5205L73.1729,491.8057z
	 M123.3257,567.918l-19.7788,2.6553l13.9316-18.1221c-0.6733-1.8926-1.3311-3.7939-1.98-5.7012l-50.7646,29.4355l1.9971,3.4521
	l27.231-3.4434l-16.5938,21.832l2.062,3.5635l46.6426-26.9814C125.1401,572.3906,124.2236,570.1611,123.3257,567.918z
	 M75.8618,574.2783l34.6841-20.0635L97.5918,571.374L75.8618,574.2783z M86.5889,592.6904l13.27-17.2666l21.2109-2.7549
	L86.5889,592.6904z M63.4141,429.0029l6.5308-0.2803l14.0659-15.3223L68.689,399.3359l-6.5308,0.2793l12.7349,11.6895
	l-53.0303,2.2686l0.209,4.8965l53.0952-2.2705L63.4141,429.0029z M75.939,452.04l9.7759-15.5547l-1.0107-7.251l-61.5059,8.5811
	l0.6865,4.9209l57.2983-7.9951l0.1079,0.7764l-8.3091,13.3047L52.248,459.6348l-25.5093,3.5605l0.5874,4.208l26.2856-3.668
	L75.939,452.04z M83.6812,392.6543l-0.9141-0.0469L61.874,381.5078l21.8398-8.4229l0.979,0.0508l0.2573-4.9609l-62.0171-3.1523
	l-0.2539,4.8955l52.0928,2.7041l-21.5889,8.6318l20.5801,10.8203l-52.0952-2.6377l-0.2539,4.8955l62.0098,3.2832L83.6812,392.6543z
	 M131.8892,587.7949l-41.5439,29.707l2.8516,3.9883l40.8101-29.1816C133.2925,590.8105,132.5874,589.3057,131.8892,587.7949z
	 M192.8037,681.4209l-17.8608,22.9063l3.8662,3.0146l17.3687-22.2061C195.0464,683.9063,193.9204,682.6699,192.8037,681.4209z
	 M231.9414,718.6396l3.9614,22.4717l5.5952,2.8389l-4.2676-21.1533C235.4546,721.4336,233.6929,720.0459,231.9414,718.6396z
	 M194.8979,718.0225l4.1372,2.6299l12.5869-19.7998c-1.2061-1.1494-2.4053-2.3096-3.5972-3.4795L194.8979,718.0225z
	 M115.3369,634.3408l27.7437-24.1699c-0.7959-1.4736-1.584-2.9541-2.3633-4.4424l-35.9932,31.3584l28.4229,7.7471l-12.3218,10.7344
	l3.2207,3.6953l19.7139-17.1748L115.3369,634.3408z M216.959,731.5l4.3721,2.2178l8.5107-16.7764
	c-1.2959-1.0596-2.5845-2.1309-3.8667-3.2139L216.959,731.5z M137.7861,672.791l3.5591,3.3711l25.7305-27.1631
	c-0.96-1.3623-1.9121-2.7334-2.8564-4.1123L137.7861,672.791z M181.6299,668.2754l-2.8867-0.6035l-0.0923,0.0107l1.2344-1.583
	c-1.0508-1.3203-2.0962-2.6475-3.1318-3.9863l-7.0322,9.0498l17.2988,3.6172C185.2021,672.6387,183.4053,670.4707,181.6299,668.2754
	z"/>
</svg>
