<?xml version="1.0" encoding="iso-8859-1"?>
<!-- Generator: Adobe Illustrator 15.0.0, SVG Export Plug-In . SVG Version: 6.00 Build 0)  -->
<!DOCTYPE svg PUBLIC "-//W3C//DTD SVG 1.1//EN" "http://www.w3.org/Graphics/SVG/1.1/DTD/svg11.dtd">
<svg version="1.1" id="&#x30EC;&#x30A4;&#x30E4;&#x30FC;_1"
	 xmlns="http://www.w3.org/2000/svg" xmlns:xlink="http://www.w3.org/1999/xlink" x="0px" y="0px" width="800px" height="800px"
	 viewBox="0 0 800 800" style="enable-background:new 0 0 800 800;" xml:space="preserve">
<g>
	<path d="M642.38,359.911l1.96,10.751l-0.737,0.134c0,0-0.56-3.072-2.895-2.646l-52.217,9.52c-2.335,0.425-1.713,3.486-1.713,3.486
		l-0.737,0.134l-1.4-7.679l7.714-22.797l4.607-0.84l0.134,0.737c-1.904,0.347-3.725,1.504-4.182,3.174l-6.431,19.39l53.385-9.733
		c2.334-0.426,1.774-3.497,1.774-3.497L642.38,359.911z"/>
	<path d="M612.18,329.536l-13.345,12.486l-23.716-2.968l14.245-13.52l19.229,2.392l18.809-17.92c0.288-1.088-0.116-2.27-0.116-2.27
		l0.768-0.263l2.79,8.151l-0.768,0.263c0,0-0.425-1.24-1.319-1.924l-15.479,14.537l21.479,2.414
		c0.524-1.169-0.395-2.504-0.395-2.504l0.768-0.263l2.021,5.907l-0.788,0.204c0,0-0.325-1.143-1.159-1.846L612.18,329.536z
		 M592.89,326.967l-12.286,11.53l14.664,1.777l12.168-11.49L592.89,326.967z"/>
	<path d="M610.818,274.452l0.665-0.346l1.065,2.05L591.06,307.52l-19.349-8.662l-1.289,21.217l48.369-25.137
		c2.104-1.094,0.665-3.864,0.665-3.864l0.665-0.345l1.439,2.77l2.16,4.155l1.439,2.771l-0.665,0.345c0,0-1.382-2.659-3.435-1.733
		l-47.674,24.846c-1.405,1.223-0.196,3.55-0.196,3.55l-0.665,0.346l-1.411-2.715l-2.13-4.1l-0.143-0.137l1.434-24.459l20.307,9.15
		l20.076-28.799C611.281,275.478,611.077,274.951,610.818,274.452z"/>
	<path d="M547.096,285.395l-4.581-6.319l0.606-0.44c0,0,1.539,2.124,3.262,1.415l43.461-31.433c1.922-1.393,0.089-3.92,0.089-3.92
		l0.606-0.44l6.414,8.847l-0.606,0.44c0,0-1.833-2.528-3.754-1.135l-41.632,30.339l19.841-5.824l-11.719,17.134l41.757-30.274
		c1.921-1.393,0.088-3.92,0.088-3.92l0.607-0.44l6.413,8.847l-0.606,0.44c0,0-1.832-2.528-3.753-1.135l-43.388,31.534
		c-1.21,1.417,0.329,3.54,0.329,3.54l-0.606,0.44l-4.581-6.319l0.556-0.403l12.375-17.61l-20.672,6.272L547.096,285.395z"/>
	<path d="M528.476,264.958l-5.504-5.622l0.58-0.568c0,0,1.703,1.74,3.343,1.184l38.416-37.702c1.695-1.66-0.488-3.891-0.488-3.891
		l0.535-0.524l7.645,7.808l-0.535,0.524c0,0-2.141-2.186-3.836-0.526l-8.967,8.692l-8.984,18.672l18.813-8.633l8.923-8.737
		c1.696-1.66-0.488-3.891-0.488-3.891l0.535-0.524l7.646,7.808l-0.536,0.524c0,0-2.141-2.186-3.836-0.526l-38.281,37.483
		c-0.77,1.802,0.847,3.453,0.847,3.453l-0.58,0.568l-5.46-5.577l9.474-19.064L528.476,264.958z M531.956,261.55l16.417-7.51
		l7.944-16.431L531.956,261.55z M549.553,255.245l-7.9,16.387l24.539-24.027L549.553,255.245z"/>
	<path d="M489.609,232.995l25.629-46.472c1.146-2.077-1.588-3.585-1.588-3.585l0.361-0.656l9.568,5.277l-0.362,0.656
		c0,0-2.733-1.507-3.879,0.57l-25.629,46.471c-1.146,2.078,1.588,3.585,1.588,3.585l-0.362,0.656l-9.567-5.276l0.362-0.656
		C485.73,233.564,488.464,235.072,489.609,232.995z"/>
	<path d="M454.05,221.23l-2.927-1.084l0.26-0.703c0,0,2.928,1.084,3.752-1.141l5.963-16.101l14.455,21.731l17.15-46.311
		l-25.043,7.037l5.963-16.101c0.824-2.225-2.104-3.309-2.104-3.309l0.261-0.703l10.246,3.794l-0.261,0.703
		c0,0-2.928-1.084-3.751,1.141l-4.337,11.709l25.21-7.308l-20.057,54.157l-0.542,1.464l-14.368-21.966l-5.421,14.637l-4.392-1.626
		L454.05,221.23z"/>
	<path d="M436.034,157.288l0.152-0.733l10.697,2.227l-0.152,0.733c0,0-3.057-0.636-3.479,1.7l-6.105,29.022l20.399-6.085
		l-6.834,32.825c-0.483,2.323,2.586,2.898,2.586,2.898l-0.153,0.733l-10.696-2.227l0.152-0.733c0,0,3.044,0.697,3.527-1.625
		l5.892-28.302l-20.412,6.146l6.999-33.62C439.09,157.925,436.034,157.288,436.034,157.288z"/>
	<path d="M399.707,154.731l0.046-0.811l6.233,0.355l-0.108,0.807c0,0-1.496-0.085-2.287,0.62l-1.348,23.624l5.429,22.134
		l9.83,10.754l3.079-53.979c0.135-2.369-2.923-2.48-2.923-2.48l0.046-0.811l10.846,0.619l-0.046,0.811c0,0-3.12-0.116-3.248,2.128
		l-2.96,52.986c-0.135,2.369,2.981,2.546,2.981,2.546l-0.042,0.748l-7.792-0.444l-11.192-12.083l-5.577-22.831l1.362-23.873
		C401.141,154.813,399.707,154.731,399.707,154.731z"/>
	<path d="M376.575,215.061l-7.836,0.7l-0.072-0.809c0,0,2.426-0.216,3.033-1.838l-4.85-53.606c-0.211-2.364-3.321-2.086-3.321-2.086
		l-0.066-0.746l10.884-0.972l0.067,0.747c0,0-3.048,0.272-2.836,2.635l1.048,12.445l8.761,18.777l5.233-20.027l-1.111-12.439
		c-0.211-2.363-3.321-2.085-3.321-2.085l-0.067-0.747l10.884-0.972l0.066,0.746c0,0-3.047,0.272-2.836,2.636L395,210.782
		c0.907,1.737,3.208,1.531,3.208,1.531l0.072,0.809l-7.774,0.694l-8.754-19.405L376.575,215.061z M376.142,210.209l4.584-17.461
		l-7.685-16.554L376.142,210.209z M382.406,192.598l7.679,16.491l-3.055-34.207L382.406,192.598z"/>
	<path d="M324.125,229.6l-7.294,2.945l-0.281-0.694c0,0,2.953-1.192,2.064-3.392l-19.87-49.208c-0.888-2.2-3.841-1.008-3.841-1.008
		l-0.281-0.695l7.294-2.945l16.419,21.986l-3.451-27.222l7.294-2.945l0.281,0.694c0,0-2.895,1.169-2.006,3.369l19.87,49.208
		c0.865,2.142,3.783,1.031,3.783,1.031l0.28,0.695l-7.294,2.945l-16.536-22.275L324.125,229.6z M303.975,179.697l17.743,43.94
		l-3.035-24.023L303.975,179.697z M320.13,199.029l14.555,19.372l-17.649-43.708L320.13,199.029z"/>
	<path d="M288.436,206.289l14.925,10.555l1.876,23.832l-16.119-11.227l-1.536-19.321l-21.35-14.812
		c-1.124-0.062-2.2,0.572-2.2,0.572l-0.413-0.699l7.423-4.378l0.412,0.699c0,0-1.129,0.667-1.619,1.68l17.364,12.233l-1.969-21.531
		c-1.251-0.277-2.374,0.893-2.374,0.893l-0.412-0.699l5.378-3.172l0.359,0.731c0,0-1.054,0.549-1.575,1.509L288.436,206.289z
		 M289.81,225.706l13.774,9.71l-1.217-14.725l-13.71-9.603L289.81,225.706z"/>
	<path d="M248.892,206.329l8.492-6.876l0.471,0.583c0,0-2.426,1.964-0.933,3.809l33.398,41.244c1.493,1.844,3.88-0.169,3.88-0.169
		l0.472,0.582l-6.065,4.912l-23.7,4.167l-2.947-3.639l0.583-0.472c1.218,1.504,3.106,2.546,4.791,2.146l20.095-3.658l-34.145-42.167
		c-1.493-1.844-3.919,0.121-3.919,0.121L248.892,206.329z"/>
	<path d="M236.718,247.376l17.346,5.754l8.728,22.25l-18.684-6.05l-7.089-18.034l-24.73-7.958c-1.093,0.268-1.938,1.188-1.938,1.188
		l-0.598-0.549l5.827-6.347l0.598,0.549c0,0-0.887,0.966-1.06,2.078l20.168,6.65l-8.146-20.021
		c-1.277,0.099-2.011,1.544-2.011,1.544l-0.598-0.549l4.222-4.599l0.556,0.595c0,0-0.848,0.832-1.068,1.901L236.718,247.376z
		 M243.681,265.549l16,5.281l-5.447-13.73l-15.908-5.197L243.681,265.549z"/>
	<path d="M188.973,274.801l-0.621-0.42l1.295-1.913l37.807,3.96l1.597,21.137l19.268-8.97l-45.131-30.559
		c-1.964-1.33-3.714,1.255-3.714,1.255l-0.621-0.42l1.75-2.585l2.625-3.877l1.75-2.584l0.62,0.42c0,0-1.68,2.481,0.111,3.845
		l44.546,30.087c1.744,0.653,3.214-1.518,3.214-1.518l0.621,0.42l-1.715,2.533l-2.59,3.825l-0.053,0.19l-22.187,10.386l-1.624-22.21
		l-34.881-3.939C189.654,273.905,189.288,274.336,188.973,274.801z"/>
	<path d="M161.757,341.175l-0.716-0.222l3.236-10.438l0.716,0.222c0,0-0.925,2.982,1.36,3.625l28.313,8.844l-4.115-20.89
		l32.03,9.931c2.267,0.703,3.132-2.298,3.132-2.298l0.716,0.222l-3.236,10.438l-0.716-0.222c0,0,0.984-2.964-1.282-3.667
		l-27.617-8.563l4.174,20.908l-32.806-10.171C162.682,338.193,161.757,341.175,161.757,341.175z"/>
	<path d="M212.417,373.053l-52.463-7.99c-2.346-0.357-2.815,2.729-2.815,2.729l-0.741-0.113l1.645-10.801l0.741,0.113
		c0,0-0.47,3.086,1.875,3.443l52.464,7.989c2.345,0.357,2.815-2.729,2.815-2.729l0.741,0.113l-1.645,10.801l-0.741-0.113
		C214.292,376.497,214.762,373.41,212.417,373.053z"/>
	<path d="M213.651,400.056l-14.272,13.819l-3.121-0.051l11.925-11.546l-50.75-0.819c-2.372-0.038-2.423,3.146-2.423,3.146
		l-0.749-0.012l0.177-10.987l0.749,0.012c0,0-0.05,3.121,2.322,3.16l50.438,0.813l-12.796-11.883l3.121,0.05L213.651,400.056z"/>
	<path d="M164.01,465.631l-0.718,0.213l-3.123-10.535l0.718-0.213c0,0,0.887,2.993,3.162,2.318l50.881-15.084
		c2.215-0.656,1.328-3.649,1.328-3.649l0.718-0.213l2.236,7.542l-5.231,23.432l-5.208,1.544l-0.213-0.718
		c1.676-0.497,4.392-2.54,4.551-3.759l4.425-20.002l-15.504,4.597l-5.231,23.432l-5.268,1.562l-0.213-0.719
		c1.616-0.479,4.434-2.617,4.593-3.836l4.407-20.062l-34.958,10.363c-2.275,0.675-1.37,3.728-1.37,3.728L164.01,465.631z"/>
	<path d="M233.971,484.836l3.336,7.125l-0.735,0.345c0,0-1.032-2.205-2.764-2.223l-48.719,22.878
		c-2.149,1.006-0.825,3.833-0.825,3.833l-0.679,0.317l-4.633-9.896l0.678-0.317c0,0,1.297,2.771,3.446,1.765l11.336-5.238
		l14.651-14.65l-20.608,1.927l-11.31,5.295c-2.149,1.006-0.825,3.833-0.825,3.833l-0.679,0.318l-4.633-9.896l0.679-0.317
		c0,0,1.297,2.771,3.446,1.765l48.519-22.715c1.322-1.446,0.343-3.539,0.343-3.539l0.735-0.344l3.309,7.068l-15.244,14.858
		L233.971,484.836z M210.87,487.033l12.874-12.852l-31.102,14.561L210.87,487.033z M229.561,486.901l-17.976,1.659l-12.93,12.879
		L229.561,486.901z"/>
	<path d="M248.29,508.448l4.318,6.5l-0.624,0.415c0,0-1.451-2.185-3.201-1.547l-44.704,29.623c-1.976,1.313-0.249,3.913-0.249,3.913
		l-0.624,0.414l-6.045-9.1l0.624-0.415c0,0,1.727,2.601,3.703,1.287l42.833-28.604l-20.059,5.006l12.407-16.638l-42.954,28.535
		c-1.976,1.313-0.249,3.913-0.249,3.913l-0.624,0.414l-6.046-9.1l0.624-0.415c0,0,1.728,2.601,3.704,1.287l44.635-29.727
		c1.266-1.366-0.185-3.55-0.185-3.55l0.624-0.415l4.318,6.501l-0.572,0.38l-13.083,17.086l20.908-5.42L248.29,508.448z"/>
	<path d="M261.328,524.48l-1.02,19.841l-2.318,2.091l0.852-16.578l-37.688,34.003c-1.762,1.59,0.372,3.954,0.372,3.954l-0.557,0.502
		l-7.361-8.159l0.556-0.502c0,0,2.091,2.318,3.853,0.729l37.456-33.794l-17.463,0.031l2.318-2.092L261.328,524.48z"/>
	<path d="M301.288,625.063l-10.081-4.217l0.313-0.748c0,0,2.88,1.204,3.795-0.984l20.456-48.904
		c0.916-2.188-1.964-3.394-1.964-3.394l0.289-0.691l10.08,4.217l-0.289,0.691c0,0-2.88-1.205-3.795,0.984l-11.493,27.476
		l9.22,32.485l-5.012-2.097l0.313-0.748c0.576,0.24,1.901,0.795,2.311-0.185l-7.772-27.21l-8.023,19.182
		c-0.916,2.189,1.964,3.394,1.964,3.394L301.288,625.063z"/>
	<path d="M343.26,616.246l-3.195-17.995l15.416-18.268l3.572,19.313l-12.487,14.819l4.773,25.539
		c0.756,0.834,1.967,1.139,1.967,1.139l-0.198,0.787l-8.355-2.104l0.198-0.787c0,0,1.271,0.32,2.332-0.057l-3.751-20.903
		l-13.732,16.695c0.695,1.076,2.315,1.033,2.315,1.033l-0.198,0.787l-6.055-1.524l0.259-0.771c0,0,1.135,0.35,2.181,0.034
		L343.26,616.246z M355.929,601.473l-2.971-16.587l-9.483,11.326l3.001,16.466L355.929,601.473z"/>
	<path d="M376.582,607.422l1.88-19.137c0.231-2.361-2.875-2.666-2.875-2.666l0.073-0.746l10.874,1.068l-0.073,0.745
		c0,0-3.107-0.305-3.339,2.057l-2.081,21.188l9.744,5.536c0.714-0.243,0.848-1.61,0.848-1.61l0.746,0.073l-0.537,5.468l-0.746-0.073
		c0.092-0.932-0.096-1.577-0.6-2.191l-9.62-5.524l-2.942,29.948c-0.232,2.361,2.881,2.604,2.881,2.604l-0.079,0.809l-10.874-1.068
		l0.08-0.808c0,0,3.101,0.367,3.332-1.994l3.149-32.061l-9.626-5.463c-0.634,0.063-0.937,0.599-1.022,1.468l-0.746-0.073
		l0.531-5.405l0.746,0.073c-0.067,0.684-0.035,1.628,0.352,2.167L376.582,607.422z"/>
	<path d="M426.423,643.928l0.036,0.748l-10.914,0.526l-0.036-0.748c0,0,3.118-0.15,2.941-2.518l-1.365-29.625l-18.222,11.005
		l-1.614-33.489c-0.114-2.369-3.229-2.157-3.229-2.157l-0.036-0.748l10.914-0.526l0.036,0.749c0,0-3.121,0.088-3.008,2.457
		l1.393,28.874l18.219-11.066l1.653,34.299C423.305,644.078,426.423,643.928,426.423,643.928z"/>
	<path d="M443.096,581.476l7.653-1.522l0.146,0.735c0,0-2.572,0.511-2.647,2.372l10.398,52.611c0.463,2.327,3.524,1.719,3.524,1.719
		l0.146,0.734l-10.716,2.131l-0.146-0.734c0,0,3.062-0.609,2.599-2.936l-10.168-50.494l-2.998,20.457l-10.669-17.803l10.058,50.579
		c0.463,2.327,3.524,1.718,3.524,1.718l0.146,0.735l-10.716,2.131l-0.146-0.735c0,0,3.062-0.608,2.599-2.936l-10.521-52.587
		c-0.781-1.69-3.354-1.18-3.354-1.18l-0.146-0.734l7.654-1.522l0.134,0.674l10.828,18.599l2.938-21.399L443.096,581.476z"/>
	<path d="M479.221,632.646l-10.28,3.704l-0.275-0.764c0,0,2.938-1.059,2.134-3.291l-17.969-49.875
		c-0.804-2.232-3.741-1.175-3.741-1.175l-0.254-0.704l10.28-3.704l0.254,0.705c0,0-2.938,1.058-2.133,3.29l10.095,28.022
		l28.75,17.718l-5.11,1.841l-0.275-0.764c0.588-0.212,1.938-0.698,1.579-1.697l-24.117-14.807l7.047,19.563
		c0.805,2.232,3.742,1.174,3.742,1.174L479.221,632.646z"/>
	<path d="M488.015,564.297l19.037,5.689l1.483,2.747l-15.907-4.753l24.116,44.671c1.127,2.089,3.93,0.575,3.93,0.575l0.355,0.66
		l-9.67,5.221l-0.356-0.66c0,0,2.747-1.482,1.62-3.57l-23.968-44.397l-4.104,16.976l-1.483-2.747L488.015,564.297z"/>
	<path d="M516.925,545.263l6.245-4.681l0.449,0.6c0,0-2.098,1.573-1.362,3.283l32.116,42.951c1.423,1.898,3.92,0.026,3.92,0.026
		l0.449,0.6L550,594.595l-0.449-0.6c0,0,2.498-1.872,1.075-3.771l-30.992-41.14l6.138,19.743l-17.315-11.443l30.93,41.265
		c1.423,1.898,3.921,0.026,3.921,0.026l0.449,0.6l-8.743,6.553l-0.449-0.6c0,0,2.498-1.872,1.075-3.771l-32.216-42.876
		c-1.436-1.187-3.533,0.386-3.533,0.386l-0.449-0.599l6.244-4.681l0.412,0.549l17.803,12.093l-6.6-20.567L516.925,545.263z"/>
	<path d="M532.183,531.34l19.868-0.106l2.22,2.196l-16.601,0.089l36.087,35.702c1.687,1.669,3.927-0.595,3.927-0.595l0.532,0.527
		l-7.729,7.812l-0.533-0.526c0,0,2.196-2.22,0.509-3.889l-35.865-35.482l1.021,17.435l-2.219-2.196L532.183,531.34z"/>
	<path d="M606.142,532.965l0.654,0.479l-3.692,5.035l-0.617-0.53c0,0,0.886-1.208,0.725-2.256l-19.084-13.995l-21.524-7.499
		l-14.375,2.391l43.606,31.978c1.914,1.403,3.673-1.101,3.673-1.101l0.654,0.479l-6.425,8.762l-0.654-0.479
		c0,0,1.796-2.555-0.017-3.885l-42.838-31.337c-1.914-1.403-3.76,1.114-3.76,1.114l-0.604-0.442l4.615-6.295l16.231-2.81
		l22.189,7.755l19.285,14.143C605.292,534.123,606.142,532.965,606.142,532.965z"/>
	<path d="M623.589,501.138l0.663,0.349l-1.076,2.044l-38.018,0.24l-3.922-20.834l-18.161,11.044l48.235,25.39
		c2.1,1.105,3.554-1.657,3.554-1.657l0.663,0.349l-1.454,2.763l-2.182,4.145l-1.454,2.763l-0.663-0.35c0,0,1.396-2.652-0.535-3.81
		l-47.601-24.985c-1.807-0.457-3.027,1.864-3.027,1.864l-0.663-0.35l1.425-2.707l2.152-4.089l0.032-0.194l20.906-12.774
		l4.067,21.897l35.106,0.063C623.01,502.103,623.327,501.635,623.589,501.138z"/>
</g>
<circle style="fill:none;stroke:#000000;stroke-width:3;stroke-miterlimit:10;" cx="400" cy="400" r="370"/>
<circle style="fill:none;stroke:#000000;stroke-width:4;stroke-miterlimit:10;" cx="400" cy="400" r="247.22"/>
<circle style="fill:none;stroke:#000000;stroke-width:2;stroke-miterlimit:10;" cx="400" cy="400" r="363.043"/>
<g>
	<path d="M606.898,109.154l1.714,3.255l4.419-6.143l0.534,0.384l-4.87,6.77l-0.534-0.384l0.005-0.007l-1.719-3.248L606.898,109.154z
		"/>
	<path d="M607.33,102.208l-0.296,2.529l2.279-1.136l0.626,0.439l-2.998,1.501l-0.339,2.865l-3.078,1.326l0.204-3.346l2.58-1.29
		l0.396-3.329L607.33,102.208z M606.216,105.902l-1.855,0.929l-0.145,1.917l1.755-0.785L606.216,105.902z"/>
	<path d="M600.997,107.97l-0.772-4.252l2.127,0.391l0.668-4.864l0.543,0.372l-0.61,5.169l-1.945-0.267l0.513,2.734l4.21-6.154
		l0.552,0.377l-4.712,6.886l-0.341-0.233l-0.21-0.144L600.997,107.97z"/>
	<path d="M602.034,98.584l0.549,0.365l-4.617,6.948l-0.556-0.37l0.073-0.11l0.524-3.101l-2.715,1.652l-0.068,0.103l-0.555-0.37
		l4.631-6.938l0.549,0.365l-3.877,5.837l2.661-1.636l-0.483,3.086L602.034,98.584z"/>
	<path d="M591.021,101.333l4.538-7.001l0.456,0.296l-1.256,1.938l-0.137,2.779l2.532-1.227l1.264-1.934l0.457,0.296l-4.537,7.001
		l-0.457-0.296l0.197-2.938l-2.593,1.386L591.021,101.333z M594.224,97.392l-2.148,3.316l1.995-1.062L594.224,97.392z
		 M594.623,100.005l-0.146,2.26l2.154-3.324L594.623,100.005z"/>
	<path d="M585.09,97.61l4.363-7.103l0.561,0.345l-4.363,7.103L585.09,97.61z"/>
	<path d="M583.317,96.528l-1.701-3.572l-1.126,1.884l-0.565-0.337l1.801-3.015l1.701,3.572l2.926-4.899l-3.951,0.196l1.8-3.015
		l0.565,0.337l-1.125,1.885l3.952-0.197L583.317,96.528z"/>
	<path d="M581.101,90.382l-0.012,0.003l-3.661-0.255l2.927-5.026l0.57,0.331l-2.359,4.065l3.661,0.255l-2.634,4.556l-0.578-0.335
		L581.101,90.382z"/>
	<path d="M574.936,91.615l-0.861-2.312l0.573-3.336l1.753-3.104l0.497,0.281l-1.701,3.012l-0.538,3.095l0.742,1.972l0.091,0.052
		l3.822-6.766l0.581,0.328l-4.103,7.263L574.936,91.615z"/>
	<path d="M568.524,88.064l4.016-7.321l0.478,0.262l-1.111,2.027l0.066,2.783l2.438-1.41l1.119-2.022l0.478,0.262l-4.015,7.32
		l-0.479-0.262l-0.018-2.947l-2.486,1.573L568.524,88.064z M571.433,83.895l-1.902,3.468l1.914-1.206L571.433,83.895z
		 M572.022,86.474l0.021,2.267l1.905-3.476L572.022,86.474z"/>
	<path d="M561.385,84.293l-0.491-0.254l3.826-7.408l0.491,0.254l-0.296,3.67l2.83-2.361l0.476,0.246l-3.818,7.411l-0.484-0.25
		l0.32-3.717l-2.846,2.412L561.385,84.293z M564.555,78.157l-2.449,4.76l2.198-1.847L564.555,78.157z M564.854,81.364l-0.223,2.878
		l2.47-4.78L564.854,81.364z"/>
	<path d="M561.386,74.952l0.078,2.543l2.087-1.457l0.682,0.342l-2.742,1.923l0.086,2.88l-2.848,1.762l-0.289-3.336l2.361-1.653
		l-0.098-3.348L561.386,74.952z M560.826,78.766l-1.697,1.19l0.139,1.916l1.618-1.034L560.826,78.766z"/>
	<path d="M554.085,77.986l2.245,2.92l3.314-6.813l0.593,0.289l-3.652,7.509l-0.593-0.289l0.004-0.008l-2.249-2.912L554.085,77.986z"
		/>
	<path d="M553.328,71.071l0.144,2.543l2.051-1.511l0.691,0.325l-2.695,1.994l0.16,2.881l-2.806,1.836l-0.375-3.331l2.321-1.714
		l-0.183-3.348L553.328,71.071z M552.866,74.902l-1.668,1.235l0.188,1.914l1.593-1.076L552.866,74.902z"/>
	<path d="M548.068,77.832l-1.489-4.061l2.163,0.021l-0.175-4.909l0.6,0.273l0.284,5.201l-1.964,0.07l0.974,2.608l3.097-6.788
		l0.607,0.277L548.7,78.12l-0.376-0.171l-0.231-0.106L548.068,77.832z"/>
	<path d="M541.859,70.508l-0.012,0.005l-3.661,0.192l2.291-5.34l0.604,0.258l-1.845,4.319l3.662-0.192l-2.058,4.838l-0.614-0.262
		L541.859,70.508z"/>
	<path d="M534.68,71.995l3.175-7.712l0.608,0.251l-3.175,7.711L534.68,71.995z"/>
	<path d="M530.151,67.101l0.924,2.146l2.643-6.637l0.612,0.244l-2.64,6.628l2.135-0.918L533.5,69.38l-2.568,1.105l-1.105-2.568
		L530.151,67.101z"/>
	<path d="M521.856,64.444l2.521,2.679l0.52-1.409l-2.539-2.686l0.257-0.645l2.522,2.679l1.858-5.042l0.617,0.228l-2.885,7.828
		l-0.617-0.228l0.003-0.008l-2.525-2.671L521.856,64.444z"/>
	<path d="M516.904,65.235l2.797-7.856l0.513,0.183l-0.774,2.175l0.509,2.734l2.18-1.777l0.782-2.172l0.513,0.183l-2.797,7.856
		l-0.514-0.183l-0.484-2.903l-2.203,1.946L516.904,65.235z M519.11,60.662l-1.325,3.722l1.696-1.493L519.11,60.662z M520.102,63.112
		l0.379,2.232l1.328-3.73L520.102,63.112z"/>
	<path d="M518.578,56.993l0.624,0.213l-2.688,7.903l-0.633-0.216l0.043-0.125l-0.286-3.134l-2.203,2.293l-0.04,0.116l-0.632-0.215
		l2.704-7.897l0.624,0.213l-2.257,6.639l2.156-2.263l0.322,3.109L518.578,56.993z"/>
	<path d="M509.499,59.75l1.056,2.083l2.221-6.786l0.626,0.205l-2.218,6.778l2.071-1.05l-0.272,0.834l-2.493,1.264l-1.263-2.493
		L509.499,59.75z"/>
	<path d="M499.307,50.932l1.302,3.417l0.808-2.81l0.633,0.182l-2.305,8.016l-0.633-0.182l1.242-4.32l-1.856-4.535L499.307,50.932z"
		/>
	<path d="M494.891,49.709l0.577,2.479l1.76-1.839l0.737,0.202l-2.313,2.426l0.651,2.809l-2.448,2.289l-0.939-3.216l1.991-2.085
		l-0.754-3.266L494.891,49.709z M495.092,53.56l-1.431,1.502l0.513,1.852l1.385-1.333L495.092,53.56z"/>
	<path d="M490.159,53.228l1.161-4.462l0.638,0.166l-1.243,4.776l1.124,0.982l-0.193,0.739l-1.128-0.965l-0.661,2.542l-0.638-0.166
		l0.746-2.864l-1.126-0.974l0.194-0.748L490.159,53.228z"/>
	<path d="M487.667,52.156l-0.011,0.006l-3.586,0.78l1.402-5.645l0.64,0.158l-1.126,4.563l3.586-0.78l-1.253,5.112l-0.648-0.16
		L487.667,52.156z"/>
	<path d="M484.328,47.025l0.641,0.15l-1.89,8.12l-0.649-0.152l0.029-0.128l-0.594-3.086l-1.963,2.497l-0.028,0.12l-0.649-0.152
		l1.908-8.116l0.641,0.15l-1.587,6.821l1.919-2.462l0.628,3.058L484.328,47.025z"/>
	<path d="M477.629,45.5l1.514,3.329l0.631-2.855l0.643,0.142l-1.797,8.147l-0.644-0.142l0.969-4.391l-2.139-4.411L477.629,45.5z"/>
	<path d="M471.268,49.762l1.279,1.951l1.452-6.984l0.644,0.134l-1.449,6.976l1.94-1.272l-0.179,0.859l-2.335,1.531l-1.531-2.334
		L471.268,49.762z"/>
	<path d="M471.235,44.166l0.647,0.126l-1.586,8.192l-0.655-0.127l0.024-0.129l-0.71-3.064l-1.869,2.571l-0.023,0.121l-0.655-0.127
		l1.604-8.188l0.646,0.125l-1.331,6.882l1.827-2.535l0.742,3.035L471.235,44.166z"/>
	<path d="M462.608,48.125l1.328,1.919l1.278-7.021l0.647,0.118l-1.276,7.013l1.909-1.321l-0.157,0.864l-2.297,1.59l-1.59-2.297
		L462.608,48.125z"/>
	<path d="M460.721,50.69l-1.596-1.881l-0.593-3.331l0.595-3.513l0.563,0.095l-0.577,3.409l0.545,3.091l1.366,1.602l0.104,0.018
		l1.297-7.657l0.657,0.111l-1.392,8.219L460.721,50.69z"/>
	<path d="M456.691,50.016l-2.523-3.503l2.086-0.561l-1.487-4.673l0.649,0.102l1.671,4.924l-1.869,0.595l1.637,2.246l1.153-7.358
		l0.658,0.103l-1.29,8.234l-0.407-0.064l-0.251-0.04L456.691,50.016z"/>
	<path d="M445.236,45.933l3.048,2.056l0.195-1.487l-3.064-2.058l0.107-0.685l3.048,2.056l0.7-5.323l0.652,0.086l-1.179,8.263
		L448,48.754v-0.009l-2.957-2.047L445.236,45.933z"/>
	<path d="M441.134,48l-0.549-0.13l0.986-8.309l0.549,0.049l1.01,3.531l1.821-3.207l0.531,0.062l-0.977,8.277l-0.54-0.065
		l-1.004-3.528L441.143,48H441.134z M441.95,41.014l-0.624,5.316l1.411-2.5L441.95,41.014z M443.355,43.912l0.801,2.772l0.636-5.341
		L443.355,43.912z"/>
	<path d="M437.889,47.517l0.884-8.292l0.654,0.07l-0.884,8.292L437.889,47.517z"/>
	<path d="M435.83,47.302l-3.073-2.495l-0.206,2.186l-0.655-0.062l0.329-3.497l3.073,2.495l0.535-5.683l-3.484,1.877l0.329-3.498
		l0.656,0.062l-0.206,2.186l3.484-1.877L435.83,47.302z"/>
	<path d="M429.19,46.71l0.682-8.321l0.656,0.054l-0.681,8.321L429.19,46.71z"/>
	<path d="M426.759,42.346l-0.009,0.008l-3.396,1.383l0.412-5.797l0.657,0.045l-0.327,4.686l3.397-1.383l-0.357,5.247l-0.665-0.046
		L426.759,42.346z"/>
	<path d="M420.456,46.092l0.479-8.321l0.657,0.038l-0.479,8.32L420.456,46.092z"/>
	<path d="M415.713,37.51l2.061,3.021l0.133-2.922l0.658,0.03l-0.377,8.335l-0.658-0.03l0.203-4.492l-2.862-3.98L415.713,37.51z"/>
	<path d="M411.733,45.708l0.275-8.335l0.658,0.021l-0.275,8.335L411.733,45.708z"/>
	<path d="M407.315,41.857l0.096-4.606l0.658,0.014l-0.104,4.931l1.32,0.695l-0.016,0.763l-1.32-0.677l-0.055,2.624l-0.658-0.014
		l0.062-2.957l-1.32-0.686l0.017-0.772L407.315,41.857z"/>
	<path d="M405.344,37.224l-0.967,2.328l0.682,1.836l-0.681,2.052l0.782,2.119l-0.605-0.01l-1.264-3.354l-1.368,3.313l-0.623-0.01
		l0.949-2.337l-0.64-1.73l0.653-1.956l-0.867-2.313l0.658,0.01l1.263,3.398l1.369-3.357L405.344,37.224z M402.979,41.374
		l-0.438-1.166l-0.377,1.135l0.404,1.042L402.979,41.374z M404.049,40.346l-0.43,1.055l0.404,1.104l0.378-1.126L404.049,40.346z"/>
	<path d="M395.648,37.198l0.658-0.01l0.139,8.335l-0.667,0.01l-0.002-0.132l-1.326-2.849l-1.297,2.898l0.002,0.123l-0.667,0.01
		l-0.122-8.335l0.658-0.01l0.118,7.001l1.263-2.854l1.352,2.813L395.648,37.198z"/>
	<path d="M388.059,43.293l3.336,1.549l-0.21-7.563l0.658-0.018l0.024,8.335L391,45.615v-0.009l-3.127-1.541L388.059,43.293z"/>
	<path d="M385.418,45.814l-0.333-8.335l0.658-0.026l0.333,8.335L385.418,45.814z"/>
	<path d="M379.239,43.257l1.736,1.563l-0.373-7.133l0.658-0.034l0.372,7.125l1.555-1.727l0.046,0.877l-1.871,2.077l-2.077-1.871
		L379.239,43.257z"/>
	<path d="M369.329,42.655l-0.008,0.01l-3.135,1.9l-0.507-5.789l0.656-0.059l0.417,4.678l3.136-1.9l0.475,5.236l-0.665,0.059
		L369.329,42.655z"/>
	<path d="M364.507,38.889l0.656-0.066l0.85,8.305l-0.665,0.067l-0.014-0.131l-1.566-2.73l-1.047,3.003l0.013,0.123l-0.665,0.067
		l-0.832-8.307l0.656-0.066l0.715,6.976l1.017-2.956l1.588,2.692L364.507,38.889z"/>
	<path d="M358.273,48l-0.55,0.037l-0.942-8.304l0.55-0.069l1.798,3.213l1.039-3.541l0.532-0.061l0.951,8.29l-0.542,0.061
		l-1.804-3.244L358.282,48H358.273z M357.493,41.081l0.614,5.323l0.8-2.761L357.493,41.081z M359.527,43.582l1.418,2.518
		l-0.608-5.351L359.527,43.582z"/>
	<path d="M349.718,49l-0.548,0.104l-1.145-8.249l0.548-0.069l1.875,3.174l0.951-3.561l0.531-0.072l1.154,8.262l-0.54,0.075
		l-1.883-3.25L349.727,49H349.718z M348.77,42.211l0.744,5.304l0.732-2.778L348.77,42.211z M350.864,44.66l1.479,2.481l-0.739-5.332
		L350.864,44.66z"/>
	<path d="M344.356,41.417l1.533,2.033l0.864-2.395l0.755-0.114l-1.131,3.155l1.734,2.304l-1.31,3.084l-2.163-2.56l0.976-2.714
		l-2.013-2.68L344.356,41.417z M346.102,44.856l-0.7,1.953l1.219,1.485l0.726-1.779L346.102,44.856z"/>
	<path d="M338.126,42.43l0.648-0.115l1.458,8.218l-0.658,0.116l-0.023-0.129l-1.762-2.606l-0.823,3.071l0.021,0.121l-0.657,0.116
		L334.891,43l0.649-0.114l1.226,6.902l0.796-3.021l1.782,2.567L338.126,42.43z"/>
	<path d="M333.646,51.713l-1.551-8.19l0.646-0.123l1.551,8.19L333.646,51.713z"/>
	<path d="M330.663,52.293l-2.165-1.184l-1.75-2.898l-0.706-3.494l0.559-0.113l0.686,3.391l1.619,2.692l1.851,1.005l0.104-0.021
		l-1.54-7.617l0.654-0.132l1.653,8.175L330.663,52.293z"/>
	<path d="M325.817,49.047l-0.007,0.011l-2.882,2.273l-1.213-5.689l0.644-0.139l0.988,4.596l2.882-2.273l1.114,5.144l-0.653,0.14
		L325.817,49.047z"/>
	<path d="M319.217,54.76l-1.855-8.132l0.531-0.121l0.514,2.251l1.896,2.035l0.886-2.67l-0.505-2.253l0.531-0.121l1.855,8.132
		l-0.531,0.121l-1.967-2.19l-0.814,2.825L319.217,54.76z M318.625,49.717l0.879,3.853l0.631-2.17L318.625,49.717z M320.776,51.252
		l1.518,1.68l-0.881-3.861L320.776,51.252z"/>
	<path d="M313.753,47.492l1.702,1.891l0.652-2.459l0.742-0.179l-0.852,3.239l1.926,2.144l-1.037,3.184l-2.375-2.36l0.735-2.786
		l-2.236-2.493L313.753,47.492z M315.789,50.764l-0.527,2.005l1.343,1.373l0.568-1.834L315.789,50.764z"/>
	<path d="M311.263,56.709l-0.537,0.136l-2.044-8.089l0.537-0.136l2.212,2.947l0.555-3.646l0.52-0.131l2.052,8.087l-0.528,0.133
		l-2.225-2.998l-0.534,3.695L311.263,56.709z M309.569,50.009l1.321,5.191l0.423-2.842L309.569,50.009z M311.92,52.213l1.742,2.305
		l-1.319-5.219L311.92,52.213z"/>
	<path d="M301.612,56.372l2.034,1.145l-1.923-6.873l0.634-0.177l1.92,6.864l1.139-2.023l0.236,0.845l-1.37,2.435l-2.435-1.37
		L301.612,56.372z"/>
	<path d="M298.991,51.421l0.632-0.186l2.357,7.999l-0.64,0.188l-0.037-0.126l-2.038-2.393l-0.478,3.141l0.035,0.118l-0.64,0.188
		l-2.34-8.004l0.632-0.186l1.981,6.719l0.457-3.089l2.053,2.352L298.991,51.421z"/>
	<path d="M294.026,61.623l-2.45-7.973l0.521-0.16l0.678,2.207l2.041,1.89l0.687-2.728l-0.67-2.209l0.521-0.16l2.45,7.973
		l-0.521,0.16l-2.124-2.039l-0.604,2.876L294.026,61.623z M293.064,56.638l1.161,3.776l0.469-2.21L293.064,56.638z M295.323,58.01
		l1.638,1.563l-1.163-3.785L295.323,58.01z"/>
	<path d="M293.633,61.747l-3.807-1.083l0.672,2.09l-0.627,0.201l-1.074-3.345l3.807,1.083l-1.746-5.435l-2.464,3.098l-1.074-3.345
		l0.627-0.202l0.672,2.09l2.464-3.097L293.633,61.747z"/>
	<path d="M283.783,56.184l1.858,1.741l0.441-2.507l0.725-0.242l-0.575,3.302l2.103,1.975l-0.764,3.263l-2.569-2.152l0.497-2.841
		l-2.441-2.297L283.783,56.184z M286.091,59.274l-0.355,2.044l1.455,1.255l0.411-1.877L286.091,59.274z"/>
	<path d="M284.675,64.688l-3.876-1.902l1.576-1.477l-3.513-3.422l0.621-0.216l3.792,3.557l-1.369,1.405l2.502,1.21l-2.448-7.034
		l0.629-0.219l2.74,7.871l-0.389,0.136l-0.24,0.083L284.675,64.688z"/>
	<path d="M275.029,68.173l-2.928-7.813l0.617-0.231l2.928,7.813L275.029,68.173z"/>
	<path d="M269.468,66.31l-1.674-4.294l0.614-0.239l1.792,4.597l1.485,0.137l0.278,0.711l-1.479-0.12l0.954,2.445l-0.613,0.239
		l-1.075-2.756l-1.482-0.129l-0.281-0.72L269.468,66.31z"/>
	<path d="M263.049,63.913l3.131,1.884l-1.098-2.708l0.61-0.247l3.131,7.727l-0.61,0.247l-1.688-4.164l-4.258-2.422L263.049,63.913z"
		/>
	<path d="M262.852,73.021l-3.218-7.697l0.608-0.254l3.218,7.697L262.852,73.021z"/>
	<path d="M257.822,75.179l-0.507,0.22l-3.32-7.654l0.508-0.22l2.657,2.552l-0.039-3.688l0.492-0.213l3.328,7.65l-0.5,0.217
		l-2.679-2.6l0.068,3.732L257.822,75.179z M255.072,68.838l2.14,4.911l-0.04-2.873L255.072,68.838z M257.747,70.636l2.09,1.994
		l-2.142-4.938L257.747,70.636z"/>
	<path d="M254.832,76.513l-3.421-7.61l0.601-0.27l3.421,7.61L254.832,76.513z"/>
	<path d="M249.866,78.782l-0.502,0.233l-3.508-7.567l0.501-0.232l2.72,2.484l-0.131-3.684l0.486-0.226l3.516,7.563l-0.494,0.229
		l-2.741-2.532l0.161,3.729L249.866,78.782z M246.959,72.514l2.26,4.855l-0.111-2.871L246.959,72.514z M249.678,74.244l2.138,1.94
		l-2.264-4.882L249.678,74.244z"/>
	<path d="M248.091,79.617l-2.388-0.62l-2.403-2.383l-1.537-3.215l0.515-0.246l1.491,3.12l2.226,2.215l2.04,0.523l0.095-0.045
		l-3.349-7.009l0.602-0.288l3.595,7.523L248.091,79.617z"/>
	<path d="M241.215,79l-2.042-4.227l0.59-0.339l2.187,4.401l1.492-0.004l0.338,0.679l-1.484,0.006l1.163,2.353l-0.59,0.538
		L241.558,80h-1.489l-0.342-1H241.215z"/>
	<path d="M236.301,82.274l2.22,0.723l-3.238-6.364l0.587-0.299l3.234,6.356l0.719-2.208l0.398,0.783l-0.865,2.658l-2.658-0.865
		L236.301,82.274z"/>
	<path d="M232.612,87.446l-2.417-0.499l-2.521-2.259l-1.698-3.135l0.502-0.271l1.647,3.042l2.335,2.1l2.064,0.42l0.093-0.05
		l-3.7-6.833l0.587-0.318l3.972,7.335L232.612,87.446z"/>
	<path d="M224.772,88.5l2.246,0.64l-3.474-6.24l0.576-0.32l3.469,6.232l0.637-2.234l0.427,0.768l-0.766,2.688l-2.688-0.766
		L224.772,88.5z"/>
	<path d="M217.468,93.241l3.671-0.255l-3.841-6.524l0.568-0.334l4.232,7.19l-0.567,0.334l-0.004-0.007l-3.667,0.263L217.468,93.241z
		"/>
	<path d="M213.698,95.518l3.666-0.301l-0.778-1.284l-3.681,0.31l-0.344-0.602l3.666-0.301l-2.783-4.594l0.563-0.341l4.32,7.132
		l-0.563,0.341l-0.004-0.007l-3.661,0.309L213.698,95.518z"/>
	<path d="M210.359,98.5l-0.408-0.655l1.271-2.787l-2.827,0.273l-0.362-0.581l1.586-3.676l0.559-0.348l4.407,7.074l-0.558,0.348
		L210.359,98.5z M211.502,94.429l0.089-0.19l-1.624-2.606l-1.317,3.063L211.502,94.429z M213.678,97.59l-1.628-2.614l-0.183,0.021
		l-1.243,2.883L213.678,97.59z"/>
	<path d="M203.694,94.813l2.227,1.234l-0.185-2.54l0.644-0.412l0.25,3.343l2.521,1.401l0.057,3.351l-3.017-1.459l-0.213-2.876
		l-2.929-1.631L203.694,94.813z M206.688,97.247l0.155,2.069l1.718,0.862l-0.061-1.921L206.688,97.247z"/>
	<path d="M206.615,102.863l-4.227-0.9l1.169-1.819l-4.246-2.464l0.55-0.361l4.55,2.527l-0.985,1.698l2.724,0.564l-4.094-6.231
		l0.558-0.366l4.581,6.972l-0.345,0.227l-0.213,0.14L206.615,102.863z"/>
	<path d="M198.327,98.341l0.546-0.369l4.675,6.91l-0.553,0.374l-0.074-0.109l-2.669-1.663l0.498,3.139l0.068,0.102l-0.553,0.373
		l-4.661-6.919l0.546-0.368l3.928,5.803l-0.502-3.083l2.671,1.619L198.327,98.341z"/>
	<path d="M191.047,103.348l0.537-0.382l4.849,6.793l-0.544,0.387l-0.076-0.107l-2.711-1.596l0.577,3.127l0.071,0.1l-0.544,0.387
		l-4.834-6.804l0.537-0.382l4.074,5.706l-0.58-3.071l2.712,1.552L191.047,103.348z"/>
	<path d="M187.994,112.312l2.306,0.362l-4.206-5.769l0.532-0.388l4.2,5.762l0.36-2.294l0.517,0.709l-0.433,2.76l-2.76-0.433
		L187.994,112.312z"/>
	<path d="M183.214,119.497l-0.438,0.336l-5.073-6.61l0.438-0.336l3.194,1.827l-0.933-3.563l0.424-0.326l5.081,6.604l-0.432,0.331
		l-3.226-1.869l0.972,3.6L183.214,119.497z M179.011,114.021l3.265,4.239l-0.736-2.774L179.011,114.021z M182.039,115.113
		l2.509,1.425l-3.273-4.266L182.039,115.113z"/>
	<path d="M174.793,115.511l2.337,1.009l-0.434-2.508l0.6-0.473l0.577,3.301l2.646,1.146l0.386,3.328l-3.145-1.155l-0.494-2.841
		l-3.073-1.334L174.793,115.511z M178.01,117.637l0.357,2.043l1.794,0.688l-0.249-1.905L178.01,117.637z"/>
	<path d="M174.434,123.411l3.596-0.793l-4.761-5.893l0.513-0.414l5.248,6.494l-0.513,0.414l-0.006-0.007l-3.591,0.8L174.434,123.411
		z"/>
	<path d="M167.847,121.157l2.361,0.951l-0.495-2.496l0.588-0.487l0.658,3.285l2.673,1.08l0.468,3.317l-3.172-1.077l-0.564-2.827
		l-3.105-1.257L167.847,121.157z M171.115,123.203l0.408,2.033l1.81,0.644l-0.296-1.898L171.115,123.203z"/>
	<path d="M171.732,128.782l-4.305-0.381l0.939-1.947l-4.513-1.93l0.502-0.426l4.822,1.956l-0.772,1.805l2.772,0.229l-4.819-5.687
		l0.509-0.431l5.392,6.363l-0.314,0.267l-0.194,0.165L171.732,128.782z"/>
	<path d="M162.943,125.316l0.497-0.433l5.486,6.286l-0.503,0.438l-0.086-0.099l-2.853-1.323l0.879,3.055l0.081,0.092l-0.503,0.438
		l-5.473-6.297l0.497-0.433l4.609,5.279l-0.876-2.999l2.85,1.28L162.943,125.316z"/>
	<path d="M159.527,139.547l-5.625-6.161l0.402-0.367l1.557,1.705l2.653,0.836l-0.545-2.76l-1.551-1.711l0.402-0.367l5.625,6.161
		l-0.402,0.367l-2.792-0.935l0.684,2.859L159.527,139.547z M156.524,135.451l2.664,2.918l-0.521-2.199L156.524,135.451z
		 M159.153,135.726l2.149,0.713l-2.67-2.925L159.153,135.726z"/>
	<path d="M154.69,140.759l3.525-1.05l-1.025-1.096l-3.538,1.062l-0.461-0.518l3.525-1.05l-3.67-3.922l0.48-0.45l5.697,6.088
		l-0.48,0.45l-0.006-0.006l-3.519,1.057L154.69,140.759z"/>
	<path d="M150.264,136.793l0.95,2.334l1.776,0.825l0.958,1.938l2.047,0.955l-0.437,0.419l-3.258-1.495l1.358,3.317l-0.45,0.431
		l-0.969-2.329l-1.672-0.779l-0.911-1.85l-2.243-1.034l0.475-0.456l3.288,1.527l-1.388-3.349L150.264,136.793z M151.502,141.405
		l-1.131-0.52l0.53,1.072l1.021,0.456L151.502,141.405z M151.539,139.922l0.437,1.052l1.063,0.5l-0.523-1.066L151.539,139.922z"/>
	<path d="M148.556,144.872l-3.236-3.284l0.469-0.462l3.464,3.516l1.419-0.462l0.536,0.544l-1.407,0.474l1.843,1.871l-0.469,0.462
		l-2.078-2.108l-1.413,0.468l-0.542-0.551L148.556,144.872z"/>
	<path d="M145.288,149.99l3.482-1.179l-1.065-1.057l-3.494,1.191l-0.479-0.5l3.481-1.179l-3.81-3.782l0.463-0.467l5.915,5.871
		l-0.463,0.467l-0.006-0.006l-3.476,1.185L145.288,149.99z"/>
	<path d="M139.272,156.272l3.453-1.265l-1.091-1.031l-3.465,1.278l-0.492-0.489l3.453-1.265l-3.903-3.688l0.452-0.479l6.059,5.726
		l-0.452,0.478l-0.007-0.006l-3.446,1.271L139.272,156.272z"/>
	<path d="M136.277,159.52l3.438-1.308l-5.563-5.129l0.446-0.484l6.132,5.653l-0.446,0.484l-0.007-0.006l-3.432,1.314L136.277,159.52
		z"/>
	<path d="M136.245,163.167l-6.205-5.581l0.441-0.49l6.204,5.581L136.245,163.167z"/>
	<path d="M132.23,167.689l-6.262-5.509l0.435-0.494l3.131,2.754l3.671-1.155l-0.517,3.883l-0.023,0.026L132.23,167.689z
		 M130.121,164.957l1.892,1.665l0.454-2.524L130.121,164.957z"/>
	<path d="M131.334,168.734l-2.434,0.401l-3.163-1.205l-2.707-2.317l0.371-0.434l2.627,2.249l2.932,1.123l2.077-0.348l0.068-0.08
		l-5.901-5.051l0.434-0.506l6.335,5.421L131.334,168.734z"/>
	<path d="M124.738,172.814l3.373-1.477l-1.153-0.962l-3.384,1.49l-0.521-0.458l3.373-1.476l-4.127-3.446l0.422-0.506l6.407,5.349
		l-0.422,0.506l-0.007-0.005l-3.366,1.482L124.738,172.814z"/>
	<path d="M120.309,182.195l-2.415,0.518l-3.221-1.053l-2.819-2.187l0.35-0.451l2.736,2.122l2.986,0.982l2.061-0.448l0.064-0.083
		l-6.145-4.767l0.41-0.528l6.595,5.117L120.309,182.195z"/>
	<path d="M113.58,186.29l2.312-0.321l-5.694-4.305l0.397-0.525l5.687,4.299l-0.32-2.3l0.701,0.529l0.384,2.768l-2.767,0.384
		L113.58,186.29z"/>
	<path d="M105.91,187.459l0.385-0.534l6.774,4.863l-0.39,0.542l-0.107-0.077l-3.079-0.636l1.553,2.772l0.1,0.072l-0.39,0.542
		l-6.765-4.877l0.385-0.535l5.691,4.084l-1.538-2.718l3.065,0.594L105.91,187.459z"/>
	<path d="M106.075,195.181l-3.773-2.644l0.378-0.539l4.039,2.83l1.312-0.709l0.625,0.438l-1.297,0.72l2.148,1.505l-0.377,0.539
		l-2.422-1.697l-1.305,0.715l-0.632-0.443L106.075,195.181z"/>
	<path d="M106.717,200.819l-6.886-4.697l0.371-0.543l6.885,4.697L106.717,200.819z"/>
	<path d="M103.375,205.81l-6.943-4.609l0.301-0.453l1.922,1.276l2.774,0.167l-1.197-2.543l-1.917-1.283l0.301-0.453l6.943,4.609
		l-0.301,0.453l-2.933-0.23l1.355,2.605L103.375,205.81z M99.474,202.567l3.289,2.184l-1.038-2.005L99.474,202.567z
		 M102.089,202.197l2.256,0.171l-3.296-2.188L102.089,202.197z"/>
	<path d="M96.683,211.816l3.141-1.914l-1.271-0.798l-3.15,1.928l-0.578-0.384l3.141-1.914l-4.548-2.857l0.35-0.557l7.06,4.436
		l-0.35,0.557l-0.007-0.004l-3.133,1.918L96.683,211.816z"/>
	<path d="M96.733,216.359l-0.289,0.472l-7.118-4.349l0.289-0.472l3.641,0.558l-2.153-2.993l0.279-0.457l7.122,4.341l-0.284,0.465
		l-3.686-0.585l2.203,3.013L96.733,216.359z M90.836,212.757l4.575,2.785l-1.686-2.327L90.836,212.757z M94.058,212.688l2.856,0.428
		l-4.593-2.806L94.058,212.688z"/>
	<path d="M92.073,224.256l-7.219-4.175l0.272-0.471l1.999,1.156l2.781-0.004l-1.353-2.465l-1.994-1.164l0.272-0.471l7.219,4.175
		l-0.272,0.471l-2.942-0.049l1.514,2.519L92.073,224.256z M87.977,221.258l3.419,1.978l-1.16-1.939L87.977,221.258z M90.565,220.727
		l2.263,0.031l-3.427-1.982L90.565,220.727z"/>
	<path d="M90.717,226.643l-7.263-4.088l0.323-0.574l7.263,4.088L90.717,226.643z"/>
	<path d="M85.287,228.764l-4.045-2.211l0.316-0.578l4.331,2.367l1.226-0.852l0.67,0.367l-1.21,0.859l2.304,1.259l-0.316,0.578
		l-2.597-1.419l-1.218,0.855l-0.678-0.371L85.287,228.764z"/>
	<path d="M86.532,234.322l-7.364-3.914l0.309-0.582l7.364,3.914L86.532,234.322z"/>
	<path d="M83.778,239.638l-7.422-3.813l0.249-0.484l2.055,1.056l2.779-0.143l-1.475-2.396l-2.051-1.063l0.249-0.484l7.422,3.813
		l-0.249,0.484l-2.943,0.098l1.639,2.441L83.778,239.638z M79.535,236.847l3.516,1.806l-1.256-1.879L79.535,236.847z
		 M82.096,236.187l2.263-0.082l-3.523-1.81L82.096,236.187z"/>
	<path d="M81.677,243.833l-0.288,0.593l-3.754-1.819l0.137,3.746l-0.585-0.303l-0.145-3.73l-1.186-0.574l0.145,3.73l-0.593-0.287
		l-0.145-3.73l-1.383-0.67l0.288-0.593L81.677,243.833z"/>
	<path d="M71.938,244.825l0.279-0.596l7.556,3.529l-0.283,0.604l-0.119-0.056l-3.143-0.057l2.038,2.438l0.111,0.052l-0.283,0.604
		l-7.549-3.545l0.279-0.596l6.348,2.963l-2.013-2.387l3.123,0.018L71.938,244.825z"/>
	<path d="M73.521,252.378l-4.198-1.907l0.272-0.6l4.494,2.041l1.16-0.939l0.695,0.316l-1.144,0.946l2.391,1.086l-0.272,0.6
		l-2.694-1.224l-1.152,0.943l-0.704-0.32L73.521,252.378z"/>
	<path d="M75.188,257.809l-7.639-3.349l0.264-0.603l7.64,3.349L75.188,257.809z"/>
	<path d="M70.584,262.417l2.8-2.391l-1.383-0.587l-2.807,2.407l-0.632-0.288l2.8-2.391l-4.949-2.101l0.257-0.606l7.683,3.262
		l-0.258,0.606l-0.008-0.003l-2.792,2.394L70.584,262.417z"/>
	<path d="M71.15,267.366l-7.711-3.16l0.206-0.503l2.135,0.875l2.753-0.379l-1.672-2.259l-2.131-0.883l0.206-0.503l7.712,3.16
		l-0.207,0.503l-2.92,0.349l1.839,2.29L71.15,267.366z M66.688,264.95l3.653,1.497l-1.411-1.763L66.688,264.95z M69.18,264.075
		l2.246-0.274l-3.661-1.5L69.18,264.075z"/>
	<path d="M66.504,279.532l-7.828-2.87l0.227-0.618l3.914,1.435l3.003-2.404l0.923,3.806l-0.012,0.033L66.504,279.532z
		 M63.55,277.748l2.365,0.867l-0.489-2.516L63.55,277.748z"/>
	<path d="M66.038,280.867l-2.13,1.251l-3.388,0.014l-3.364-1.189l0.19-0.539l3.265,1.154l3.144-0.007l1.815-1.074l0.035-0.099
		l-7.333-2.593l0.223-0.63l7.872,2.783L66.038,280.867z"/>
	<path d="M64.165,286.243l-7.9-2.682l0.211-0.624l7.9,2.682L64.165,286.243z"/>
	<path d="M59.353,287.52l0.005,0.011l0.518,3.63l-5.523-1.806l0.204-0.626l4.466,1.453l-0.518-3.629l5.002,1.619l-0.207,0.634
		L59.353,287.52z"/>
	<path d="M56.61,297.668l-4.414-1.322l0.188-0.631l4.725,1.415l1.022-1.086l0.731,0.219l-1.005,1.092l2.514,0.753l-0.189,0.63
		l-2.833-0.849l-1.013,1.089l-0.74-0.222L56.61,297.668z"/>
	<path d="M50.737,301.382l2.484-0.55l-1.819-1.779l0.21-0.734l2.398,2.337l2.815-0.62l2.26,2.471l-3.225,0.904l-2.063-2.013
		l-3.271,0.717L50.737,301.382z M54.588,301.223l1.485,1.446l1.856-0.492l-1.316-1.398L54.588,301.223z"/>
	<path d="M54.253,304.359l0.006,0.011l0.694,3.6l-5.604-1.534l0.173-0.635l4.531,1.233l-0.694-3.6l5.075,1.372l-0.175,0.644
		L54.253,304.359z"/>
	<path d="M53.536,312.151l2.011-1.185l-6.91-1.787l0.165-0.637l6.901,1.784l-1.178-2l0.85,0.22l1.418,2.407l-2.407,1.418
		L53.536,312.151z"/>
	<path d="M56.038,313.929l-3.709,2.22l-0.382-2.128l-4.788,1.087l0.157-0.64l5.053-1.249l0.435,1.915l2.379-1.442l-7.242-1.775
		l0.159-0.648l8.103,1.986l-0.098,0.401l-0.061,0.248L56.038,313.929z"/>
	<path d="M54.948,318.448l-1.976,1.481l-3.365,0.393l-3.476-0.805l0.129-0.557l3.373,0.782l3.123-0.359l1.683-1.27l0.024-0.103
		l-7.576-1.756l0.151-0.65l8.132,1.884L54.948,318.448z"/>
	<path d="M53.449,325.063l-0.118,0.541l-8.147-1.783l0.118-0.54l3.623-0.663l-3.013-2.124l0.114-0.523l8.148,1.774l-0.116,0.532
		l-3.674,0.651l3.066,2.127L53.449,325.063z M46.7,323.586l5.233,1.137l-2.353-1.647L46.7,323.586z M49.721,322.468l2.838-0.529
		l-5.256-1.15L49.721,322.468z"/>
	<path d="M44.062,329.285l0.125-0.646l8.192,1.571l-0.126,0.655l-0.129-0.025l-3.062,0.715l2.573,1.865l0.121,0.023l-0.126,0.655
		l-8.188-1.588l0.125-0.646l6.881,1.318l-2.537-1.822l3.032-0.747L44.062,329.285z"/>
	<path d="M48.773,336.325l2.19,1.402l-0.117,0.647l-3.603-2.325l-4.31-0.777l0.117-0.648l4.327,0.78l4.169-0.916l-0.117,0.648
		l-2.523,0.544l2.349,0.423l-0.117,0.647L48.773,336.325z"/>
	<path d="M42.439,338.066l0.109-0.649l8.221,1.369l-0.11,0.657l-0.13-0.021l-3.041,0.789l2.616,1.799l0.121,0.021l-0.11,0.658
		l-8.218-1.386l0.108-0.649l6.906,1.148l-2.579-1.757l3.011-0.821L42.439,338.066z"/>
	<path d="M49.953,343.788l-3.503,2.534l-0.566-2.087l-4.677,1.499l0.101-0.651l4.927-1.683l0.6,1.871l2.246-1.644l-7.371-1.14
		l0.102-0.66l8.248,1.276l-0.063,0.408l-0.039,0.252L49.953,343.788z"/>
	<path d="M40.695,349.279l3.205-1.763l-2.896-0.412l0.093-0.652l8.263,1.174l-0.093,0.652l-4.453-0.633l-4.237,2.468L40.695,349.279
		z"/>
	<path d="M48.477,354.035l-8.277-1.073l0.085-0.653l8.277,1.073L48.477,354.035z"/>
	<path d="M44.906,359.673l1.83-1.446l-7.083-0.831l0.077-0.654l7.075,0.83l-1.438-1.82l0.871,0.102l1.73,2.19l-2.19,1.73
		L44.906,359.673z"/>
	<path d="M44.879,364.109l1.976-3.102l-1.493-0.157l-1.977,3.119l-0.688-0.09l1.976-3.102l-5.342-0.561l0.069-0.654l8.292,0.826
		L47.623,361h-0.009l-1.967,3.146L44.879,364.109z"/>
	<path d="M44.036,368.436l1.796-1.492l-7.108-0.657l0.061-0.656l7.099,0.656l-1.483-1.786l0.874,0.081l1.786,2.149l-2.149,1.786
		L44.036,368.436z"/>
	<path d="M46.661,371.405l-8.32-0.667l0.053-0.657l8.32,0.667L46.661,371.405z"/>
	<path d="M37.952,376.086l2.315-1.057l-2.151-1.361l0.052-0.762l2.835,1.785l2.624-1.194l2.728,1.945l-2.965,1.558l-2.438-1.538
		l-3.05,1.385L37.952,376.086z M41.686,375.125l1.755,1.105l1.713-0.869l-1.58-1.093L41.686,375.125z"/>
	<path d="M42.337,380.054l-4.606-0.256l0.037-0.658l4.931,0.274l0.741-1.296l0.764,0.042l-0.724,1.297l2.624,0.146l-0.037,0.658
		l-2.957-0.165l-0.732,1.297l-0.772-0.043L42.337,380.054z"/>
	<path d="M45.733,387.447l-1.647,1.837l-3.221,1.041l-3.562-0.111l0.018-0.57l3.457,0.108l2.99-0.96l1.402-1.572l0.003-0.105
		l-7.765-0.243l0.021-0.667l8.335,0.261L45.733,387.447z"/>
	<path d="M43.136,394.749l1.704-3.259l-7.563-0.145l0.013-0.658l8.335,0.407L45.611,392h-0.009l-1.695,3.011L43.136,394.749z"/>
	<path d="M43.081,399.21l1.692-3.265l-7.563-0.118l0.01-0.658l8.335,0.151l-0.01,0.68h-0.009l-1.683,3.243L43.081,399.21z"/>
	<path d="M43.132,403.659l1.589-3.316l-1.5,0.023l-1.589,3.334l-0.693-0.007l1.589-3.316l-5.37,0.084l-0.01-0.658l8.335-0.296
		l0.01,0.493h-0.009l-1.581,3.48L43.132,403.659z"/>
	<path d="M45.6,408.102l-8.335,0.146l-0.009-0.544l2.308-0.04l2.379-1.438l-2.429-1.414l-2.308,0.031l-0.009-0.544l8.335-0.146
		l0.009,0.544l-2.545,1.476l2.595,1.376L45.6,408.102z M42.489,405.856l1.955-1.14l-3.957,0.068L42.489,405.856z M40.545,407.646
		l3.948-0.068l-1.993-1.063L40.545,407.646z"/>
	<path d="M37.366,411.839l2.857-2.28l-2.922,0.086l-0.02-0.657l8.335-0.247l0.019,0.658l-4.492,0.133l-3.753,3.149L37.366,411.839z"
		/>
	<path d="M37.542,416.419l2.187-1.305l-2.288-1.117l-0.032-0.764l3.014,1.465l2.479-1.475l2.925,1.636l-2.778,1.874l-2.593-1.263
		l-2.882,1.711L37.542,416.419z M41.15,415.055l1.866,0.907l1.608-1.052l-1.69-0.914L41.15,415.055z"/>
	<path d="M44.004,425.622l1.42-3.394l-7.55,0.5l-0.043-0.657l8.321-0.64L46.196,422h-0.009l-1.412,3.48L44.004,425.622z"/>
	<path d="M44.348,430.02l1.38-3.413l-1.498,0.117l-1.379,3.431l-0.693,0.037l1.38-3.413l-5.36,0.42l-0.051-0.656l8.32-0.425
		L46.5,427h-0.009l-1.372,3.186L44.348,430.02z"/>
	<path d="M45.506,434.335l-0.77,0.07l-1.918-2.392l-1.029,2.65l-0.682,0.062l-2.571-3.072l-0.06-0.655l8.306-0.754l0.06,0.655
		L45.506,434.335z M42.382,431.48l-0.13-0.164l-3.06,0.277l2.145,2.556L42.382,431.48z M46.187,430.959l-3.069,0.278l-0.063,0.174
		l2.017,2.408L46.187,430.959z"/>
	<path d="M39.208,438.623l2.102-1.435l-2.35-0.975l-0.078-0.76l3.096,1.277l2.382-1.621l3.017,1.453l-2.657,2.038l-2.663-1.102
		l-2.77,1.882L39.208,438.623z M42.724,437.043l1.916,0.79l1.54-1.146l-1.742-0.809L42.724,437.043z"/>
	<path d="M47.711,439.63l-2.707,3.372l-1.1-1.862l-4.112,2.686l-0.076-0.655l4.305-2.929l1.074,1.645l1.729-2.181l-7.41,0.855
		l-0.077-0.663l8.292-0.957l0.047,0.41l0.029,0.253L47.711,439.63z"/>
	<path d="M48.422,445.564l-8.277,1.059l-0.083-0.653l8.277-1.059L48.422,445.564z"/>
	<path d="M44.664,448.856l0.01,0.008l2.058,3.037l-5.759,0.799l-0.092-0.652l4.653-0.653l-2.058-3.036l5.208-0.74l0.093,0.661
		L44.664,448.856z"/>
	<path d="M46.653,459.169l-4.55,0.753l-0.107-0.65l4.871-0.806l0.441-1.427l0.754-0.125l-0.423,1.424l2.591-0.429l0.107,0.649
		l-2.92,0.483l-0.432,1.426l-0.763,0.126L46.653,459.169z"/>
	<path d="M51.063,462.753l-8.219,1.464l-0.116-0.648l8.219-1.464L51.063,462.753z"/>
	<path d="M47.459,466.203l0.01,0.007l2.204,2.93l-5.708,1.082l-0.124-0.646l4.612-0.882l-2.204-2.93l5.163-0.995l0.125,0.655
		L47.459,466.203z"/>
	<path d="M52.702,471.342l-8.176,1.667l-0.132-0.646l8.176-1.667L52.702,471.342z"/>
	<path d="M54.231,478.484l-1.129,2.193l-2.854,1.822l-3.476,0.793l-0.127-0.557l3.373-0.77l2.65-1.686l0.958-1.875l-0.023-0.104
		l-7.576,1.729l-0.148-0.65l8.132-1.855L54.231,478.484z"/>
	<path d="M53.146,486.318l1.216-1.991l-6.935,1.675l-0.154-0.64l6.926-1.673l-1.98-1.21l0.853-0.206l2.383,1.456l-1.456,2.383
		L53.146,486.318z"/>
	<path d="M55.776,494.626l0.734-3.606l-1.451,0.389l-0.729,3.623l-0.675,0.163l0.734-3.606l-5.192,1.392l-0.17-0.637l8.06-2.16
		l0.17,0.637l-0.008,0.002l-0.726,3.604L55.776,494.626z"/>
	<path d="M56.959,498.831l0.688-3.614l-7.287,2.052l-0.178-0.635l8.031-2.261l0.178,0.634l-0.008,0.003l-0.68,3.612L56.959,498.831z
		"/>
	<path d="M60.055,500.801l-8.002,2.363l-0.187-0.632l8.002-2.363L60.055,500.801z"/>
	<path d="M61.813,506.567l-7.973,2.465l-0.194-0.63l3.986-1.232l0.932-3.735l3.044,2.47l0.01,0.034L61.813,506.567z M58.379,506.939
		l2.409-0.744l-1.916-1.707L58.379,506.939z"/>
	<path d="M62.238,507.888l-0.933,2.286l-2.684,2.067l-3.395,1.097l-0.175-0.544l3.294-1.063l2.494-1.914l0.791-1.954l-0.033-0.101
		l-7.4,2.391l-0.206-0.636l7.944-2.565L62.238,507.888z"/>
	<path d="M64.003,513.313l-7.9,2.652l-0.209-0.623l7.9-2.653L64.003,513.313z"/>
	<path d="M64.663,515.248l-0.984,3.831l2.072-0.725l0.217,0.622l-3.314,1.159l0.984-3.832l-5.386,1.885l3.159,2.382l-3.314,1.16
		l-0.218-0.621l2.071-0.726l-3.158-2.382L64.663,515.248z"/>
	<path d="M60.003,526.954l-0.232-0.616l7.796-2.95l0.235,0.623l-0.123,0.047l-2.232,2.212l3.167,0.239l0.115-0.043l0.235,0.624
		l-7.802,2.935l-0.232-0.616l6.548-2.479l-3.113-0.223l2.19-2.224L60.003,526.954z"/>
	<path d="M67.73,530.515l2.603,0.047l0.24,0.613l-4.291-0.093l-4.081,1.6l-0.24-0.614l4.098-1.604l3.073-2.969l0.24,0.613
		l-1.865,1.788l2.225-0.872l0.24,0.613L67.73,530.515z"/>
	<path d="M64.893,539.336l-0.255-0.606l7.68-3.24l0.258,0.614l-0.121,0.051l-2.148,2.294l3.173,0.121l0.113-0.048l0.259,0.615
		l-7.687,3.224l-0.255-0.606l6.45-2.723l-3.119-0.106l2.105-2.304L64.893,539.336z"/>
	<path d="M73.394,544.111l0.19-3.678l-1.377,0.601l-0.184,3.693l-0.644,0.262l0.19-3.678l-4.931,2.147l-0.263-0.604l7.654-3.334
		l0.263,0.604l-0.008,0.004l-0.183,3.674L73.394,544.111z"/>
	<path d="M71.26,553.73l1.725-3.227l-2.652,1.234l-0.278-0.597l7.567-3.522l0.278,0.597l-4.078,1.898l-2.206,4.381L71.26,553.73z"/>
	<path d="M73.233,557.881l1.495-2.062l-2.544-0.124l-0.331-0.689l3.349,0.157l1.696-2.333l3.334,0.349l-1.814,2.818l-2.881-0.137
		l-1.973,2.71L73.233,557.881z M76.011,555.204l2.073,0.097l1.063-1.602l-1.915-0.173L76.011,555.204z"/>
	<path d="M83.017,558.873l-7.48,3.696l-0.241-0.488l2.071-1.023l1.539-2.317l-2.803-0.241l-2.075,1.016l-0.241-0.488l7.48-3.696
		l0.241,0.488l-1.673,2.423l2.938,0.136L83.017,558.873z M79.242,558.172l1.281-1.867l-3.551,1.755L79.242,558.172z M78.249,560.622
		l3.543-1.751l-2.258-0.108L78.249,560.622z"/>
	<path d="M84.992,562.744l-7.422,3.798l-0.248-0.484l2.055-1.052l1.505-2.338l-2.804-0.201l-2.059,1.044l-0.248-0.484l7.422-3.798
		l0.248,0.484l-1.637,2.444l2.937,0.095L84.992,562.744z M81.21,562.096l1.254-1.884l-3.523,1.804L81.21,562.096z M80.251,564.559
		l3.516-1.8l-2.257-0.077L80.251,564.559z"/>
	<path d="M79.291,569.826l1.416-2.114l-2.544-0.029l-0.356-0.676l3.35,0.032l1.607-2.394l3.342,0.224l-1.706,2.883l-2.883-0.029
		l-1.869,2.779L79.291,569.826z M81.965,567.049l2.074,0.02l1.002-1.639l-1.918-0.101L81.965,567.049z"/>
	<path d="M88.855,569.997l0.263,0.486l-7.334,3.972l-0.264-0.486l2.311-2.868l-3.669,0.359l-0.255-0.471l7.331-3.98l0.259,0.479
		l-2.357,2.894l3.711-0.393L88.855,569.997z M84.337,570.467l1.804-2.255l-4.733,2.563L84.337,570.467z M82.779,573.287l4.706-2.558
		l-2.859,0.29L82.779,573.287z"/>
	<path d="M83.585,577.676l1.362-2.15l-2.545,0.036l-0.373-0.667l3.35-0.054l1.545-2.435l3.347,0.139l-1.632,2.926l-2.882,0.044
		l-1.798,2.827L83.585,577.676z M86.188,574.83l2.074-0.033l0.959-1.664l-1.92-0.052L86.188,574.83z"/>
	<path d="M87.946,585.212l1.397-3.377l-2.515,1.489l-0.335-0.566l7.176-4.248l0.335,0.566l-3.867,2.289l-1.761,4.572L87.946,585.212
		z"/>
	<path d="M90.324,589.159l1.285-2.199l-2.544,0.127l-0.397-0.653l3.348-0.174l1.458-2.489l3.353,0.019l-1.528,2.984l-2.881,0.147
		l-1.696,2.892L90.324,589.159z M92.825,586.221l2.072-0.108l0.9-1.698l-1.922,0.017L92.825,586.221z"/>
	<path d="M96.186,589.863l-3.909,2.443l-0.349-0.559l4.185-2.615l-0.141-1.485l0.647-0.405l0.157,1.477l2.226-1.392l0.349,0.559
		l-2.509,1.568l0.149,1.48l-0.655,0.41L96.186,589.863z"/>
	<path d="M97.249,592.343l0.012,0.003l3.139,1.896l-4.894,3.135l-0.356-0.554l3.951-2.539l-3.139-1.896l4.419-2.85l0.361,0.561
		L97.249,592.343z"/>
	<path d="M96.156,598.373l-0.363-0.55l6.953-4.603l0.368,0.557l-0.11,0.072l-1.689,2.651l3.143-0.466l0.103-0.067l0.367,0.557
		l-6.963,4.588l-0.362-0.55l5.84-3.867l-3.086,0.471l1.645-2.653L96.156,598.373z"/>
	<path d="M107.37,600.132l-6.9,4.683l-0.37-0.545l3.45-2.341l-0.2-3.843l3.63,1.473l0.02,0.028L107.37,600.132z M104.197,601.489
		l2.084-1.414l-2.329-1.071L104.197,601.489z"/>
	<path d="M108.165,601.282l-0.224,2.457l-1.962,2.759l-2.924,2.038l-0.326-0.468l2.838-1.979l1.825-2.556l0.185-2.099l-0.06-0.086
		l-6.374,4.442l-0.381-0.547l6.842-4.77L108.165,601.282z"/>
	<path d="M110.426,608.685l-0.576-3.631l-1.221,0.872l0.586,3.645l-0.574,0.389l-0.576-3.631l-4.371,3.119l-0.382-0.536l6.784-4.841
		l0.382,0.535l-0.007,0.005l0.583,3.626L110.426,608.685z"/>
	<path d="M112.669,612.487l0.355-2.307l-5.756,4.218l-0.389-0.531l5.749-4.213l-2.294-0.354l0.708-0.519l2.76,0.426l-0.426,2.76
		L112.669,612.487z"/>
	<path d="M122.562,620.675l0.343,0.434l-6.538,5.175l-0.343-0.434l1.781-3.223l-3.551,0.986l-0.333-0.42l6.532-5.182l0.338,0.426
		l-1.822,3.256l3.587-1.025L122.562,620.675z M118.193,621.916l1.388-2.531l-4.218,3.339L118.193,621.916z M117.146,624.962
		l4.192-3.33l-2.765,0.778L117.146,624.962z"/>
	<path d="M123.802,622.228l-0.047,2.466l-1.758,2.893l-2.769,2.242l-0.359-0.443l2.687-2.176l1.636-2.681l0.034-2.105l-0.066-0.082
		l-6.036,4.889l-0.42-0.519l6.479-5.247L123.802,622.228z"/>
	<path d="M127.406,626.609l-6.421,5.335l-0.421-0.507l6.422-5.335L127.406,626.609z"/>
	<path d="M126,631h0.012l3.364,1.666l-4.43,3.864l-0.427-0.449l3.576-3.019l-3.364-1.446l3.998-3.41l0.433,0.305L126,631z"/>
	<path d="M135.21,639.299l-0.973-3.551l-1.119,1.002l0.985,3.563l-0.529,0.45l-0.973-3.551l-4.006,3.586l-0.439-0.49l6.219-5.566
		l0.439,0.49l-0.006,0.006l0.979,3.545L135.21,639.299z"/>
	<path d="M137.949,638.726l0.105,2.466l-1.577,2.996l-2.626,2.409l-0.386-0.42l2.549-2.339l1.468-2.776l-0.096-2.104l-0.071-0.078
		l-5.726,5.253l-0.451-0.491l6.146-5.64L137.949,638.726z"/>
	<path d="M140.853,646.042l0.072-2.332l-5.198,4.888l-0.451-0.479l5.191-4.882l-2.32-0.071l0.639-0.602l2.792,0.086l-0.086,2.792
		L140.853,646.042z"/>
	<path d="M137.69,650.673l-0.457-0.474l5.995-5.79l0.462,0.48l-0.095,0.091l-1.177,2.913l3.003-1.03l0.089-0.085l0.462,0.48
		l-6.007,5.777l-0.457-0.474l5.035-4.865l-2.948,1.025l1.133-2.908L137.69,650.673z"/>
	<path d="M150.907,652.21l-5.871,5.929l-0.468-0.463l5.871-5.929L150.907,652.21z"/>
	<path d="M152.868,654.133l0.049,4.323l-2.032-0.742l-1.472,4.685l-0.474-0.458l1.467-4.995l1.874,0.59l-0.048-2.782l-5.182,5.363
		l-0.48-0.464l5.798-6.002l0.297,0.287l0.183,0.177L152.868,654.133z"/>
	<path d="M156.244,657.368l0.284,2.453l-1.357,3.104l-2.447,2.596l-0.416-0.392l2.375-2.519l1.264-2.878l-0.249-2.094l-0.077-0.072
		l-5.334,5.658l-0.486-0.458l5.726-6.074L156.244,657.368z"/>
	<path d="M159.196,660.142l0.161,4.318l-2.049-0.689l-1.35,4.719l-0.485-0.444l1.337-5.029l1.888,0.54l-0.12-2.778l-5.04,5.492
		l-0.492-0.451l5.639-6.146l0.304,0.278l0.188,0.173L159.196,660.142z"/>
	<path d="M156.837,669.29l-0.49-0.439l5.56-6.21l0.497,0.445l-0.088,0.098l-0.962,2.991l2.921-1.246l0.082-0.091l0.497,0.445
		l-5.573,6.198l-0.49-0.439l4.669-5.218l-2.866,1.236l0.919-2.982L156.837,669.29z"/>
	<path d="M170.96,670.554l0.421,0.359l-5.421,6.35l-0.421-0.359l1.126-3.512l-3.298,1.656l-0.408-0.348l5.415-6.355l0.414,0.354
		l-1.16,3.551l3.326-1.702L170.96,670.554z M166.909,672.618l0.874-2.755l-3.498,4.097L166.909,672.618z M166.469,675.813
		l3.475-4.083l-2.565,1.3L166.469,675.813z"/>
	<path d="M168.817,679.647l0.501-2.494l-2.363,0.944l-0.586-0.488l3.107-1.25l0.571-2.825l3.174-1.068l-0.476,3.314l-2.675,1.073
		l-0.666,3.283L168.817,679.647z M170.228,676.061l1.923-0.774l0.3-1.896l-1.811,0.639L170.228,676.061z"/>
	<path d="M176.605,678.351l-1.522-3.353l-4.775,5.88l-0.511-0.416l5.262-6.479l0.512,0.415l-0.005,0.007l1.527,3.346
		L176.605,678.351z"/>
	<path d="M175.783,685.271l0.439-2.507l-2.339,1.004l-0.599-0.475l3.076-1.326l0.5-2.839l3.147-1.146l-0.394,3.326l-2.648,1.139
		l-0.585,3.298L175.783,685.271z M177.104,681.649l1.904-0.821l0.253-1.904l-1.795,0.684L177.104,681.649z"/>
	<path d="M182.434,679.89l0.522,4.289l-2.099-0.515l-0.95,4.814l-0.521-0.403l0.91-5.122l1.926,0.38l-0.352-2.758l-4.56,5.895
		l-0.528-0.408l5.103-6.596l0.327,0.252l0.201,0.156L182.434,679.89z"/>
	<path d="M190.626,686.067l-4.943,6.727l-0.531-0.391l4.943-6.726L190.626,686.067z"/>
	<path d="M192.076,691.727l-2.684,3.75l-0.536-0.384l2.873-4.014l-0.697-1.319l0.445-0.621l0.708,1.305l1.528-2.135l0.536,0.384
		l-1.723,2.406l0.702,1.313l-0.45,0.628L192.076,691.727z"/>
	<path d="M199.901,692.653l0.788,4.248l-2.127-0.383l-0.648,4.863l-0.545-0.369l0.59-5.169l1.945,0.26l-0.523-2.731l-4.184,6.167
		l-0.552-0.375l4.682-6.899l0.341,0.231l0.211,0.143L199.901,692.653z"/>
	<path d="M198.901,702.043l-0.549-0.363l4.603-6.963l0.557,0.368l-0.073,0.11l-0.518,3.104l2.712-1.66l0.068-0.103l0.557,0.369
		l-4.617,6.953l-0.549-0.364l3.865-5.85l-2.659,1.643l0.476-3.089L198.901,702.043z"/>
	<path d="M206.599,697.124l1.58,3.632l1.19-1.846l0.554,0.356l-1.904,2.954l-1.58-3.632l-3.094,4.801l3.959-0.061l-1.904,2.954
		l-0.554-0.357l1.19-1.847l-3.959,0.062L206.599,697.124z"/>
	<path d="M210.864,699.857l0.942,4.222l-2.142-0.306l-0.473,4.89l-0.559-0.35l0.404-5.193l1.956,0.189l-0.622-2.714l-3.964,6.321
		l-0.566-0.354l4.436-7.074l0.35,0.22l0.216,0.136L210.864,699.857z"/>
	<path d="M210.204,709.287l-0.562-0.344l4.341-7.122l0.569,0.348l-0.068,0.112l-0.403,3.119l2.648-1.758l0.064-0.104l0.569,0.348
		l-4.356,7.113l-0.562-0.344l3.646-5.983l-2.595,1.738l0.362-3.103L210.204,709.287z"/>
	<path d="M214.033,711.598l-0.566-0.336l4.262-7.176l0.566,0.337l-1.251,2.107l1.606,2.456l1.911-3.218l0.566,0.336l-4.262,7.176
		l-0.567-0.337l1-1.684l-1.638-2.403L214.033,711.598z M216.011,708.267l1.638,2.403l0.664-1.117l-1.602-2.464L216.011,708.267z"/>
	<path d="M217.882,713.877l-0.571-0.328l4.152-7.238l0.579,0.333l-0.066,0.114l-0.32,3.129l2.601-1.827l0.062-0.106l0.579,0.333
		l-4.168,7.229l-0.571-0.328l3.487-6.081l-2.549,1.808l0.28-3.112L217.882,713.877z"/>
	<path d="M225.534,712.932l-2.251,4.021l-0.575-0.321l2.41-4.305l-0.838-1.234l0.373-0.666l0.847,1.219l1.282-2.291l0.575,0.322
		l-1.445,2.581l0.843,1.227l-0.377,0.674L225.534,712.932z"/>
	<path d="M232.048,712.261l0.485,0.265l-3.986,7.32l-0.485-0.265l0.375-3.662l-2.88,2.299l-0.47-0.257l3.979-7.324l0.478,0.26
		l-0.401,3.709l2.897-2.349L232.048,712.261z M228.516,715.113l0.285-2.872l-2.572,4.724L228.516,715.113z M228.745,718.325
		l2.552-4.705l-2.238,1.799L228.745,718.325z"/>
	<path d="M229.602,720.406l-0.583-0.309l3.892-7.382l0.59,0.312l-0.062,0.117l-0.208,3.139l2.535-1.92l0.058-0.108l0.59,0.312
		l-3.907,7.375l-0.583-0.309l3.268-6.201l-2.483,1.896l0.168-3.12L229.602,720.406z"/>
	<path d="M237.374,715.068l1.304,4.117l-2.158-0.118l-0.045,4.906l-0.586-0.3l-0.05-5.201l1.962,0.018l-0.854-2.646l-3.394,6.633
		l-0.594-0.304l3.798-7.422l0.367,0.188l0.227,0.115L237.374,715.068z"/>
	<path d="M242.718,717.775l-3.711,7.466l-0.589-0.293l3.711-7.466L242.718,717.775z"/>
	<path d="M246.907,722.986l-0.769-2.203l-3.102,6.426l-0.593-0.286l3.098-6.418l-2.191,0.765l0.381-0.791l2.637-0.92l0.92,2.637
		L246.907,722.986z"/>
	<path d="M254.477,723.34l-3.436,7.596l-0.6-0.271l3.436-7.596L254.477,723.34z"/>
	<path d="M257.069,728.566l-1.843,4.222l-0.603-0.263l1.973-4.52l-0.956-1.145l0.305-0.699l0.962,1.128l1.049-2.404l0.603,0.264
		l-1.183,2.71l0.959,1.136l-0.309,0.708L257.069,728.566z"/>
	<path d="M264.282,727.581l0.61,0.248l-1.573,3.863l3.729-0.378l-0.265,0.603l-3.712,0.386l-0.497,1.22l3.712-0.385l-0.249,0.609
		l-3.712,0.385l-0.58,1.424l-0.61-0.248L264.282,727.581z"/>
	<path d="M268.263,738.172l-0.306-2.525l-1.948,1.637l-0.71-0.28l2.559-2.16l-0.343-2.861l2.679-2.009l0.586,3.297l-2.204,1.857
		l0.396,3.325L268.263,738.172z M268.479,734.323l1.584-1.337l-0.309-1.896l-1.52,1.174L268.479,734.323z"/>
	<path d="M275.251,734.495l-2.496-2.703l-2.683,7.077l-0.616-0.233l2.957-7.799l0.616,0.233l-0.003,0.008l2.5,2.694L275.251,734.495
		z"/>
	<path d="M277.417,732.713l1.231,2.141l-0.018,3.387l-1.22,3.352l-0.537-0.195l1.184-3.252l0.022-3.143l-1.056-1.825l-0.099-0.035
		l-2.661,7.306l-0.627-0.229l2.855-7.843L277.417,732.713z"/>
	<path d="M280.611,733.88l2.378,3.165l0.729-2.072l0.622,0.219l-1.166,3.314l-2.378-3.164l-1.895,5.386l3.836-0.979l-1.166,3.313
		l-0.621-0.218l0.729-2.071l-3.836,0.979L280.611,733.88z"/>
	<path d="M287.568,739.3l-1.036-2.091l-2.282,6.761l-0.624-0.21l2.28-6.753l-2.08,1.03l0.281-0.832l2.503-1.239l1.239,2.503
		L287.568,739.3z"/>
	<path d="M291.878,740.226l-2.63-2.576l-0.462,1.43l2.647,2.582l-0.23,0.655l-2.63-2.577l-1.653,5.118l-0.627-0.203l2.566-7.943
		l0.627,0.202l-0.002,0.009l2.633,2.567L291.878,740.226z"/>
	<path d="M295.967,741.957l-1.09-2.065l-2.109,6.823l-0.629-0.195l2.106-6.814l-2.054,1.084l0.259-0.839l2.472-1.305l1.304,2.472
		L295.967,741.957z"/>
	<path d="M295.476,747.544l-0.632-0.187l2.354-8.005l0.64,0.189l-0.038,0.126l0.417,3.117l2.104-2.382l0.035-0.118l0.64,0.189
		l-2.371,7.999l-0.632-0.187l1.977-6.724l-2.059,2.35l-0.452-3.091L295.476,747.544z"/>
	<path d="M305.508,741.751l0.636,0.172l-1.087,4.03l3.656-0.834l-0.188,0.632l-3.639,0.838l-0.343,1.272l3.639-0.838l-0.172,0.636
		l-3.639,0.839l-0.4,1.484l-0.636-0.172L305.508,741.751z"/>
	<path d="M308.277,751.133l-0.638-0.163l2.064-8.077l0.646,0.166l-0.033,0.128l0.527,3.098l2.016-2.454l0.031-0.119l0.646,0.166
		l-2.081,8.072l-0.638-0.164l1.733-6.784l-1.971,2.42l-0.562-3.07L308.277,751.133z"/>
	<path d="M317.224,747.257l-2.811-2.373l-1.789,7.353l-0.64-0.155l1.971-8.104l0.64,0.155l-0.002,0.009l2.813,2.365L317.224,747.257
		z"/>
	<path d="M320.437,745.517l-1.87,8.132l-0.642-0.147l1.87-8.132L320.437,745.517z"/>
	<path d="M325.706,749.611l-1.262-1.963l-1.513,6.973l-0.643-0.14l1.511-6.964l-1.952,1.256l0.186-0.857l2.349-1.511l1.511,2.349
		L325.706,749.611z"/>
	<path d="M329.979,756.075l-0.647-0.124l1.557-8.191l0.655,0.125l-0.025,0.129l0.72,3.061l1.86-2.576l0.023-0.12l0.655,0.125
		l-1.574,8.188l-0.646-0.124l1.306-6.881l-1.816,2.539l-0.752-3.03L329.979,756.075z"/>
	<path d="M335.125,752.789l0.01-0.007l3.522-1.011l-1.029,5.716l-0.647-0.116l0.824-4.62l-3.522,1.011l0.915-5.175l0.656,0.117
		L335.125,752.789z"/>
	<path d="M339.479,753.551l0.01-0.008l3.514-1.057l-0.958,5.736l-0.65-0.107l0.768-4.637l-3.514,1.057l0.851-5.193l0.659,0.109
		L339.479,753.551z"/>
	<path d="M343.189,758.404l-0.651-0.1l1.252-8.249l0.66,0.101l-0.02,0.13l0.833,3.033l1.764-2.645l0.019-0.122l0.66,0.102
		l-1.27,8.246l-0.651-0.1l1.051-6.93l-1.722,2.607l-0.865-3.003L343.189,758.404z"/>
	<path d="M354.322,759.975l-1.808-3.181l-0.371,2.901l-0.654-0.083l1.059-8.277l0.653,0.084l-0.57,4.461l2.527,4.201
		L354.322,759.975z"/>
	<path d="M358.961,752.127l-0.957,8.292l-0.655-0.076l0.957-8.291L358.961,752.127z"/>
	<path d="M364.706,755.182l-3.104-1.97l-0.776,7.523l-0.655-0.067l1.015-8.292l0.814,0.067v0.009l2.945,1.961L364.706,755.182z"/>
	<path d="M369.075,755.58l-3.13-1.933l-0.684,7.536l-0.656-0.06l0.747-8.306l0.648,0.06v0.009l3.138,1.924L369.075,755.58z"/>
	<path d="M370.706,753.286l1.759,1.732l0.889,3.269l-0.279,3.557l-0.569-0.045l0.271-3.451l-0.819-3.034l-1.506-1.475l-0.105-0.009
		l-0.607,7.752l-0.666-0.053l0.652-8.32L370.706,753.286z"/>
	<path d="M378.003,753.817l-0.551,8.32l-0.543-0.036l0.152-2.303l-1.233-2.492l-1.613,2.304l-0.162,2.303l-0.543-0.036l0.551-8.32
		l0.543,0.036l1.258,2.66l1.589-2.472L378.003,753.817z M375.505,756.73l-0.973-2.043l-0.262,3.95L375.505,756.73z M377.126,758.817
		l0.261-3.941l-1.226,1.898L377.126,758.817z"/>
	<path d="M386.093,754l0.553,0.129l-0.348,8.39l-0.553,0.004l-1.28-3.442l-1.572,3.343l-0.535-0.019l0.339-8.334l0.544,0.023
		l1.277,3.401l1.565-3.495H386.093z M384.181,758.335l-1.012-2.705l-0.224,5.378L384.181,758.335z M385.805,761.118l0.215-5.352
		l-1.216,2.604L385.805,761.118z"/>
	<path d="M390.006,762.688l-1.145-2.272l-1.277,2.201l-0.764-0.022l1.675-2.901l-1.293-2.576l1.839-2.799l1.67,2.903l-1.443,2.495
		l1.5,2.995L390.006,762.688z M388.904,758.993l1.037-1.796l-0.934-1.678l-1.031,1.62L388.904,758.993z"/>
	<path d="M395.36,756.872l-3.262-1.698l-0.131,7.563l-0.658-0.012l0.089-8.335l0.603,0.012v0.009l3.317,1.689L395.36,756.872z"/>
	<path d="M398.958,762.834l-1.176-2.256l-1.246,2.218l-0.764-0.012l1.634-2.923l-1.329-2.558l1.799-2.824l1.71,2.879l-1.409,2.515
		l1.542,2.973L398.958,762.834z M397.805,759.156l1.012-1.81l-0.957-1.665l-1.009,1.635L397.805,759.156z"/>
	<path d="M400.988,755l3.084,2.773l-1.961,0.785l2.263,4.29l-0.658-0.021l-2.485-4.584l1.741-0.913l-1.996-1.938l0.116,7.447
		l-0.667,0.01l-0.13-8.335l0.413,0.241l0.254,0.245H400.988z"/>
	<path d="M405.595,762.783l-0.658,0.013l-0.168-8.335l0.667-0.013l0.002,0.132l1.336,2.844l1.288-2.903l-0.003-0.123l0.667-0.013
		l0.15,8.336l-0.658,0.013l-0.143-7.002l-1.253,2.859l-1.361-2.81L405.595,762.783z"/>
	<path d="M414.41,762.545l-0.658,0.028l-0.371-8.335l0.667-0.028l0.005,0.132l1.406,2.813l1.217-2.936l-0.005-0.123l0.667-0.029
		l0.354,8.336l-0.658,0.028l-0.313-7.001l-1.184,2.891l-1.431-2.777L414.41,762.545z"/>
	<path d="M418.74,753.989l1.975,1.482l1.318,3.122l0.198,3.562l-0.57,0.032l-0.192-3.457l-1.218-2.898l-1.689-1.261l-0.105,0.006
		l0.433,7.765l-0.667,0.037l-0.464-8.335L418.74,753.989z"/>
	<path d="M427.315,756.739l1.263-0.76l1.099-2.73l0.657-0.051l-1.293,2.985l0.002-0.184h-0.009l-0.288,0.348l-1.379,0.947
		l0.344,4.431l-0.657,0.076l-0.661-8.308l0.666-0.046l0.177,2.263l0.563-0.236l0.96-2.154l0.521-0.053L428,755.751v0.018l0.162,0.01
		l-0.211,0.146l-0.713,0.376L427.315,756.739z M428.342,756.007l0.009-0.01v0.009L428.342,756.007z"/>
	<path d="M431.724,753.086l2.023,1.412l1.425,3.071l0.322,3.55l-0.568,0.051l-0.313-3.444l-1.316-2.852l-1.731-1.2l-0.104,0.01
		l0.702,7.737l-0.664,0.061l-0.754-8.307L431.724,753.086z"/>
	<path d="M435.973,761.068l0.681-2.428l-0.897-1.741l0.431-2.118l-1.031-2.01l0.603-0.063l1.657,3.18l0.961-3.454l0.62-0.065
		l-0.663,2.435l0.843,1.642l-0.414,2.02l1.139,2.192l-0.654,0.069l-1.662-3.224L436.627,761L435.973,761.068z M436.885,757.813
		l0.299-1.099l-0.533-1.047l-0.24,1.163L436.885,757.813z M437.822,756.665l0.575,1.104l0.239-1.172l-0.527-0.986L437.822,756.665z"
		/>
	<path d="M441.71,752.046l0.972,8.292l-0.654,0.077l-0.972-8.292L441.71,752.046z"/>
	<path d="M447.996,753.696l-3.479-1.205l0.192,1.489l3.496,1.204l0.072,0.69l-3.479-1.206l0.69,5.332l-0.653,0.085l-1.281-8.277
		l0.444-0.084v0.008l3.688,1.197L447.996,753.696z"/>
	<path d="M452.44,753.517l-1.868-1.403l1.005,7.071l-0.652,0.093l-1.003-7.063l-1.396,1.857l-0.124-0.869l1.68-2.235l2.234,1.679
		L452.44,753.517z"/>
	<path d="M459.651,753.265l0.761,4.551l-0.649,0.108l-0.814-4.871l-1.428-0.438l-0.126-0.755l1.424,0.422l-0.433-2.592l0.649-0.108
		l0.488,2.92l1.427,0.43l0.127,0.763L459.651,753.265z"/>
	<path d="M461.929,749.099l2.139,1.229l1.688,2.933l0.632,3.507l-0.562,0.101l-0.613-3.402l-1.561-2.724l-1.829-1.044l-0.104,0.019
		l1.377,7.644l-0.656,0.118l-1.479-8.204L461.929,749.099z"/>
	<path d="M469.604,750.116l-3.544-0.988l1.434,7.432l-0.646,0.125l-1.58-8.19l0.646-0.125l0.002,0.009l3.542,0.979L469.604,750.116z
		"/>
	<path d="M473.916,749.232l-3.558-0.945l1.525,7.418l-0.646,0.133l-1.682-8.176l0.646-0.132l0.002,0.008l3.557,0.938
		L473.916,749.232z"/>
	<path d="M478.221,748.303l-3.567-0.899l0.321,1.466l3.584,0.896l0.131,0.682l-3.566-0.9l1.148,5.248l-0.644,0.141l-1.782-8.146
		l0.643-0.141l0.002,0.009l3.565,0.891L478.221,748.303z"/>
	<path d="M482.271,744.896l3.718,1.354l-0.519-2.133l0.64-0.155l0.83,3.411l-3.718-1.354l1.35,5.544l2.68-2.91l0.83,3.411
		l-0.64,0.156l-0.52-2.133l-2.68,2.911L482.271,744.896z"/>
	<path d="M490.927,745.221l-3.596-0.771l0.374,1.453l3.611,0.767l0.156,0.676l-3.596-0.771l1.335,5.201l-0.637,0.164l-2.073-8.074
		l0.638-0.164l0.002,0.009l3.593,0.763L490.927,745.221z"/>
	<path d="M491.415,742.581l3.737,2.178l-1.681,1.363l3.266,3.67l-0.637,0.171l-3.534-3.824l1.468-1.307l-2.413-1.388l1.943,7.203
		l-0.645,0.174l-2.175-8.06l0.398-0.107l0.246-0.066L491.415,742.581z"/>
	<path d="M497.182,740.992l2.275,8.031l-0.634,0.18l-2.276-8.031L497.182,740.992z"/>
	<path d="M503.646,741.617l-3.626-0.637l0.428,1.44l3.644,0.632l0.181,0.671l-3.627-0.637l1.531,5.154l-0.631,0.188l-2.378-8.001
		l0.632-0.188l0.003,0.009l3.624,0.628L503.646,741.617z"/>
	<path d="M507.969,740.735l-2.068-1.087l2.122,6.822l-0.63,0.196l-2.118-6.814l-1.082,2.057l-0.261-0.839l1.301-2.476l2.476,1.302
		L507.969,740.735z"/>
	<path d="M508.449,737.599l2.284,0.93l2.065,2.679l1.096,3.389l-0.542,0.176l-1.064-3.288l-1.911-2.489l-1.952-0.788l-0.1,0.032
		l2.39,7.387l-0.634,0.205l-2.566-7.929L508.449,737.599z"/>
	<path d="M512.338,736.32l3.859,1.939l-1.59,1.463l3.482,3.456l-0.624,0.211l-3.761-3.594l1.383-1.394l-2.492-1.233l2.384,7.061
		l-0.632,0.213l-2.667-7.9l0.391-0.132l0.241-0.081L512.338,736.32z"/>
	<path d="M527.538,739.777l-0.615,0.233l-2.966-7.796l0.624-0.236l0.047,0.123l2.217,2.23l0.234-3.169l-0.043-0.115l0.624-0.236
		l2.948,7.802l-0.615,0.233l-2.492-6.548l-0.218,3.115l-2.229-2.188L527.538,739.777z"/>
	<path d="M531.05,732.064l0.04-2.601l0.612-0.241l-0.082,4.286l1.606,4.074l-0.612,0.241l-1.613-4.09l-2.972-3.063l0.611-0.241
		l1.79,1.859l-0.875-2.22l0.612-0.242L531.05,732.064z"/>
	<path d="M538.092,735.621l-3.142-1.877l1.108,2.708l-0.61,0.25l-3.16-7.727l0.61-0.249l1.703,4.164l4.271,2.411L538.092,735.621z"
		/>
	<path d="M540.006,734.828l-0.606,0.257l-3.255-7.68l0.614-0.26l0.051,0.122l2.299,2.145l0.116-3.175l-0.048-0.113l0.614-0.26
		l3.239,7.686l-0.606,0.257l-2.735-6.45l-0.102,3.121l-2.309-2.103L540.006,734.828z"/>
	<path d="M540.173,725.698l3.896,0.688l-0.881-2.01l0.603-0.265l1.41,3.217l-3.896-0.688l2.291,5.227l2.134-3.332l1.41,3.217
		l-0.603,0.264l-0.882-2.01l-2.134,3.332L540.173,725.698z"/>
	<path d="M548.931,724.928l-2.183-0.823l2.939,6.501l-0.6,0.271l-2.937-6.492l-0.818,2.172l-0.362-0.8l0.985-2.613l2.613,0.985
		L548.931,724.928z"/>
	<path d="M552.274,729.421l-0.597,0.279l-3.545-7.548l0.604-0.283l0.056,0.119l2.378,2.056l-0.005-3.177l-0.052-0.111l0.604-0.283
		l3.528,7.557l-0.596,0.278l-2.979-6.34l0.019,3.123l-2.387-2.014L552.274,729.421z"/>
	<path d="M552.981,719.871l2.39,0.611l2.413,2.373l1.549,3.209l-0.515,0.248l-1.503-3.114l-2.233-2.206l-2.042-0.516l-0.095,0.046
		l3.376,6.995l-0.601,0.29l-3.624-7.509L552.981,719.871z"/>
	<path d="M556.638,718.088l4.091,1.394l-1.376,1.668l3.926,2.948l-0.59,0.295l-4.22-3.048l1.18-1.57l-2.639-0.882l3.329,6.672
		l-0.597,0.298l-3.726-7.465l0.369-0.185l0.228-0.113L556.638,718.088z"/>
	<path d="M566.27,717.849l0.004-0.012l2.157-2.968l2.71,5.146l-0.583,0.308l-2.196-4.155l-2.157,2.969l-2.466-4.648l0.59-0.313
		L566.27,717.849z"/>
	<path d="M569.632,711.346l3.986,7.321l-0.578,0.314l-3.986-7.32L569.632,711.346z"/>
	<path d="M575.372,712.419l2.259,4.021l-0.574,0.323l-2.419-4.306l-1.491,0.072l-0.374-0.666l1.482-0.088l-1.286-2.29l0.574-0.323
		l1.45,2.582l1.487-0.08l0.378,0.675L575.372,712.419z"/>
	<path d="M580.107,708.7l-2.255-0.603l3.573,6.178l-0.57,0.329l-3.568-6.17l-0.599,2.243l-0.439-0.76l0.721-2.699l2.698,0.722
		L580.107,708.7z"/>
	<path d="M589.768,709.3l-2.202-1.278l0.134,2.542l-0.651,0.398l-0.183-3.346l-2.491-1.451l0.011-3.351l2.985,1.52l0.154,2.879
		l2.895,1.689L589.768,709.3z M586.824,706.808l-0.113-2.071l-1.699-0.896l0.021,1.921L586.824,706.808z"/>
	<path d="M593.462,706.998l-3.412-1.308l1.555,2.475l-0.558,0.35l-4.436-7.059l0.558-0.351l2.391,3.805l4.616,1.64L593.462,706.998z
		"/>
	<path d="M597.236,704.584l-3.432-1.27l1.585,2.459l-0.554,0.357l-4.523-7.016l0.555-0.357l2.438,3.781l4.641,1.588L597.236,704.584
		z"/>
	<path d="M598.436,696.692l-3.653,0.45l0.829,1.252l3.669-0.46l0.369,0.589l-3.654,0.45l2.97,4.482l-0.55,0.363l-4.609-6.958
		l0.549-0.363l0.005,0.007l3.649-0.457L598.436,696.692z"/>
	<path d="M602.694,700.975l-0.545,0.37l-4.704-6.895l0.552-0.376l0.074,0.109l2.677,1.653l-0.51-3.139l-0.069-0.103l0.552-0.375
		l4.689,6.904l-0.545,0.371l-3.952-5.791l0.515,3.083l-2.679-1.609L602.694,700.975z"/>
	<path d="M608.35,697.081l-3.473-1.144l1.672,2.398l-0.54,0.377l-4.77-6.843l0.54-0.376l2.57,3.688l4.691,1.418L608.35,697.081z"/>
	<path d="M609.258,689.154l-3.634,0.581l0.874,1.222l3.648-0.592l0.39,0.574l-3.634,0.582l3.128,4.37l-0.535,0.383l-4.856-6.784
		l0.536-0.383l0.005,0.007l3.629-0.589L609.258,689.154z"/>
	<path d="M613.056,686.904l-2.309-0.354l4.23,5.757l-0.531,0.39l-4.226-5.749l-0.351,2.297l-0.521-0.708l0.423-2.764l2.764,0.423
		L613.056,686.904z"/>
	<path d="M622.646,686.501l-3.523-0.969l1.788,2.312l-0.521,0.403l-5.103-6.596l0.521-0.403l2.75,3.555l4.755,1.183L622.646,686.501
		z"/>
	<path d="M619.332,678.495l2.468,0.071l2.878,1.788l2.218,2.794l-0.447,0.354l-2.152-2.711l-2.667-1.664l-2.107-0.055l-0.083,0.065
		l4.835,6.091l-0.523,0.415l-5.189-6.538L619.332,678.495z"/>
	<path d="M622.005,676.385l3.937-0.376l-1.385-1.701l0.511-0.416l2.216,2.723l-3.937,0.376l3.6,4.423l1.168-3.778l2.215,2.723
		l-0.51,0.415l-1.385-1.701l-1.168,3.778L622.005,676.385z"/>
	<path d="M627.144,672.151l5.349,6.407l-0.506,0.422l-5.349-6.407L627.144,672.151z"/>
	<path d="M631.331,668.611l0.42-0.359l5.421,6.335l-0.42,0.359l-3.289-1.656l1.122,3.511l-0.407,0.348l-5.428-6.329l0.413-0.354
		l3.323,1.696l-1.162-3.545L631.331,668.611z M632.738,672.929l-2.583-1.29l3.498,4.088L632.738,672.929z M635.822,673.859
		l-3.488-4.063l0.884,2.733L635.822,673.859z"/>
	<path d="M636.627,667.193l-3.559,0.934l0.988,1.13l3.573-0.945l0.443,0.534l-3.56,0.933l3.54,4.044l-0.496,0.434l-5.494-6.277
		l0.496-0.434l0.006,0.007l3.553-0.939L636.627,667.193z"/>
	<path d="M640.186,664.579l-2.332-0.124l4.776,5.31l-0.49,0.44l-4.77-5.303l-0.123,2.32l-0.588-0.653l0.148-2.791l2.791,0.147
		L640.186,664.579z"/>
	<path d="M643.131,661.277l-3.533,1.024l1.018,1.104l3.546-1.036l0.457,0.521l-3.533,1.024l3.643,3.95l-0.484,0.446l-5.653-6.131
		l0.484-0.447l0.006,0.007l3.527-1.031L643.131,661.277z"/>
	<path d="M646.636,658.583l-2.333-0.066l4.9,5.186l-0.479,0.452l-4.894-5.179l-0.065,2.319l-0.604-0.638l0.079-2.791l2.791,0.079
		L646.636,658.583z"/>
	<path d="M652.381,654.206l3.244,3.276l-0.468,0.463l-3.474-3.507l-1.418,0.465l-0.538-0.543l1.406-0.478l-1.848-1.866l0.468-0.463
		l2.083,2.103l1.412-0.471l0.544,0.549L652.381,654.206z"/>
	<path d="M659.334,653.75l-2.446-0.709l0.745,2.436l-0.536,0.544l-0.986-3.204l-2.77-0.805l-0.801-3.255l3.267,0.752l0.846,2.758
		l3.218,0.938L659.334,653.75z M655.875,652.042l-0.611-1.982l-1.866-0.458l0.485,1.859L655.875,652.042z"/>
	<path d="M658.57,647.908l3.324,3.196l-0.456,0.475l-3.56-3.422l-1.406,0.5l-0.551-0.529l1.394-0.512l-1.894-1.821l0.457-0.475
		l2.134,2.052l1.4-0.506l0.558,0.536L658.57,647.908z"/>
	<path d="M660.159,640.792l3.843-0.942l-1.617-1.483l0.445-0.485l2.588,2.374l-3.844,0.942l4.205,3.858l0.608-3.91l2.588,2.374
		l-0.444,0.485l-1.618-1.483l-0.608,3.909L660.159,640.792z"/>
	<path d="M663.565,637.062l4.313-0.22l-0.661,2.058l4.734,1.285l-0.438,0.491l-5.044-1.268l0.515-1.894l-2.775,0.157l5.558,4.961
		l-0.444,0.498l-6.219-5.552l0.274-0.308l0.17-0.19L663.565,637.062z"/>
	<path d="M674.396,637.388l-2.484-0.557l0.893,2.385l-0.502,0.576l-1.181-3.137l-2.814-0.634l-0.998-3.199l3.306,0.55l1.014,2.7
		l3.27,0.739L674.396,637.388z M670.838,635.896l-0.731-1.941l-1.891-0.343l0.599,1.826L670.838,635.896z"/>
	<path d="M670.371,629.271l6.35,5.407l-0.428,0.501l-6.349-5.406L670.371,629.271z"/>
	<path d="M673.881,625.07l0.353-0.426l6.422,5.32l-0.353,0.426l-3.523-1.072l1.703,3.269L678.141,633l-6.427-5.313l0.347-0.419
		l3.563,1.105l-1.749-3.296L673.881,625.07z M676.003,629.086l-2.765-0.832l4.144,3.433L676.003,629.086z M679.2,629.478
		l-4.129-3.409l1.336,2.543L679.2,629.478z"/>
	<path d="M681.4,629.054l-0.415,0.512l-6.484-5.24l0.42-0.519l0.102,0.083l3.037,0.81l-1.392-2.854l-0.096-0.078l0.42-0.518
		l6.474,5.254l-0.414,0.512l-5.448-4.401l1.38,2.801l-3.026-0.769L681.4,629.054z"/>
	<path d="M681.676,621.329l3.621,2.852l-0.407,0.518l-3.876-3.053l-1.35,0.636l-0.601-0.473l1.336-0.646l-2.062-1.625l0.407-0.517
		l2.324,1.83l1.343-0.641l0.607,0.479L681.676,621.329z"/>
	<path d="M684.626,616.095l-2.315,0.301l5.657,4.354l-0.401,0.521l-5.65-4.349l0.3,2.303l-0.696-0.535l-0.36-2.771l2.771-0.36
		L684.626,616.095z"/>
	<path d="M691.519,608.94l-0.002-0.012l0.595-3.621l4.732,3.381l-0.383,0.536l-3.828-2.727l-0.595,3.622l-4.292-3.046l0.388-0.544
		L691.519,608.94z"/>
	<path d="M690.844,602.705l2.383-0.646l3.271,0.879l2.93,2.032l-0.325,0.469l-2.844-1.972l-3.032-0.821l-2.032,0.558l-0.061,0.087
		l6.388,4.429l-0.381,0.549l-6.856-4.755L690.844,602.705z"/>
	<path d="M697.215,600.015l3.821,2.579l-0.368,0.546l-4.091-2.761l-1.3,0.732l-0.634-0.428l1.286-0.742l-2.177-1.469l0.369-0.546
		l2.452,1.655l1.293-0.737l0.641,0.432L697.215,600.015z"/>
	<path d="M699.769,594.573l-2.286,0.473l5.967,3.921l-0.361,0.55l-5.96-3.915l0.471,2.274l-0.733-0.482l-0.566-2.736l2.736-0.566
		L699.769,594.573z"/>
	<path d="M701.146,587.096l7.074,4.421l-0.349,0.559l-7.074-4.421L701.146,587.096z"/>
	<path d="M706.678,585.215l3.941,2.387l-0.342,0.563l-4.219-2.556l-1.262,0.796l-0.653-0.396l1.247-0.805l-2.245-1.36l0.342-0.563
		l2.529,1.532l1.255-0.8l0.66,0.4L706.678,585.215z"/>
	<path d="M715.42,579.433l-3.626,0.45l2.535,1.453l-0.327,0.571l-7.233-4.146l0.327-0.571l3.898,2.234l4.845-0.723L715.42,579.433z"
		/>
	<path d="M709.314,573.278l2.309-0.877l3.341,0.553l3.116,1.734l-0.277,0.499l-3.024-1.683l-3.099-0.52l-1.969,0.755l-0.051,0.092
		l6.792,3.781l-0.324,0.583l-7.292-4.059L709.314,573.278z"/>
	<path d="M714.966,568.009l-3.012,2.113l6.655,3.604l-0.313,0.579l-7.335-3.972l0.314-0.579l0.007,0.004l3.004-2.117
		L714.966,568.009z"/>
	<path d="M713.055,566.468l3.476-1.89l-1.941-1.022l0.307-0.583l3.106,1.636l-3.476,1.891l5.049,2.658l-0.408-3.935l3.106,1.636
		l-0.307,0.582l-1.941-1.022l0.408,3.935L713.055,566.468z"/>
	<path d="M719.014,560.192l-2.957,2.19l1.339,0.682l2.965-2.207l0.61,0.33l-2.957,2.191l4.79,2.437l-0.298,0.588l-7.437-3.784
		l0.299-0.587l0.008,0.004l2.949-2.194L719.014,560.192z"/>
	<path d="M720.652,551.334l7.523,3.609l-0.284,0.594l-3.762-1.805l-3.223,2.107l-0.555-3.881l0.016-0.031L720.652,551.334z
		 M723.425,553.395l-2.273-1.091l0.246,2.554L723.425,553.395z"/>
	<path d="M721.246,550.072l2.235-1.044l3.371,0.305l3.234,1.499l-0.24,0.518l-3.139-1.455l-3.127-0.288l-1.906,0.896l-0.044,0.096
		l7.049,3.269l-0.28,0.605l-7.567-3.509L721.246,550.072z"/>
	<path d="M723.614,544.892l7.61,3.422l-0.27,0.601l-7.61-3.421L723.614,544.892z"/>
	<path d="M735.09,539.377l-2.536,0.25l1.597,1.986l-0.296,0.704l-2.106-2.609l-2.873,0.28l-1.952-2.726l3.313-0.515l1.811,2.247
		l3.339-0.323L735.09,539.377z M731.241,539.076l-1.305-1.615l-1.904,0.268l1.143,1.547L731.241,539.076z"/>
	<path d="M731.279,535.675l-0.18-1.467l-1.98-2.2l0.23-0.61l2.262,2.577l0.013,0.007l-0.006,0.008l0.001,0.322l0.143,1.611
		l4.065,1.647l-0.247,0.61l-7.729-3.123l0.251-0.618l2.098,0.851l0.039-0.609l-1.498-1.819l0.261-0.643l1.725,2.101l0.143,0.007
		l0.132,0.011v0.331v0.843L731.279,535.675z M730.955,534.431l-0.005-0.011l0.008,0.003L730.955,534.431z"/>
	<path d="M732.792,531.591l-0.133-1.467l-1.976-2.181l0.24-0.613l2.302,2.553l0.016,0.007l-0.003,0.008l0.006,0.323l0.161,1.61
		l4.09,1.603l-0.24,0.613l-7.773-3.036l0.243-0.621l2.11,0.826l0.031-0.61l-1.52-1.803l0.253-0.646l1.751,2.082l0.016,0.007
		l0.005,0.011l0.003,0.332l0.009,0.843L732.792,531.591z M732.581,530.348l-0.005-0.012l0.008,0.004L732.581,530.348z"/>
	<path d="M731.897,524.805l7.799,2.942l-0.232,0.616l-7.799-2.943L731.897,524.805z"/>
	<path d="M741.516,522.8l-3.496,1.067l2.748,0.996l-0.224,0.619l-7.843-2.841l0.225-0.619l4.227,1.531l4.65-1.547L741.516,522.8z"/>
	<path d="M734.886,516.545l7.871,2.755l-0.218,0.621l-7.871-2.754L734.886,516.545z"/>
	<path d="M739.092,511.635l-2.604,2.603l1.425,0.478l2.61-2.619l0.652,0.237l-2.604,2.602l5.099,1.709l-0.21,0.625l-7.914-2.652
		l0.209-0.625l0.008,0.003l2.598-2.605L739.092,511.635z"/>
	<path d="M739.239,503.168l0.162-0.529l7.973,2.45l-0.162,0.528l-3.665,0.362l2.827,2.365l-0.157,0.513l-7.976-2.441l0.16-0.521
		l3.716-0.347l-2.881-2.373L739.239,503.168z M742.74,506.063l-2.873,0.292l5.145,1.581L742.74,506.063z M745.844,505.197
		l-5.122-1.564l2.21,1.836L745.844,505.197z"/>
	<path d="M747.715,503.956l-0.187,0.632l-8.005-2.354l0.189-0.64l0.126,0.037l3.117-0.417l-2.382-2.104l-0.118-0.034l0.189-0.641
		l7.999,2.371l-0.187,0.632l-6.724-1.976l2.35,2.058l-3.091,0.452L747.715,503.956z"/>
	<path d="M744.934,498.535l-0.006-0.011l-0.663-3.608l5.594,1.584l-0.178,0.635l-4.522-1.273l0.662,3.607l-5.065-1.417l0.181-0.643
		L744.934,498.535z"/>
	<path d="M750.169,495.346l-0.171,0.637l-8.062-2.151l0.173-0.645l0.127,0.034l3.106-0.496l-2.435-2.043l-0.119-0.032l0.173-0.645
		l8.058,2.168l-0.171,0.637l-6.772-1.806l2.401,1.998l-3.079,0.53L750.169,495.346z"/>
	<path d="M743.235,488.925l3.729-2.188l0.364,2.132l4.799-1.045l-0.162,0.639l-5.066,1.204l-0.418-1.92l-2.393,1.422l7.229,1.84
		l-0.165,0.647l-8.088-2.059l0.102-0.4l0.063-0.247L743.235,488.925z"/>
	<path d="M744.378,484.423l1.986-1.461l3.364-0.361l3.463,0.836l-0.134,0.555l-3.36-0.812l-3.122,0.329l-1.692,1.252l-0.024,0.103
		l7.549,1.823l-0.157,0.648l-8.103-1.957L744.378,484.423z"/>
	<path d="M749.337,479.61l4.494,1.025l-0.146,0.643l-4.811-1.098l-0.948,1.152l-0.744-0.17l0.93-1.156l-2.559-0.584l0.146-0.643
		l2.885,0.658l0.938-1.154l0.753,0.172L749.337,479.61z"/>
	<path d="M749.749,473.609l-1.962,1.268l6.984,1.501l-0.139,0.645l-6.976-1.499l1.261,1.951l-0.858-0.185l-1.518-2.349l2.348-1.517
		L749.749,473.609z"/>
	<path d="M748.633,464.543l8.19,1.552l-0.102,0.534l-2.268-0.43l-2.621,0.924l2.091,1.878l2.266,0.438l-0.102,0.534l-8.189-1.551
		l0.101-0.534l2.793-0.927l-2.262-1.875L748.633,464.543z M751.223,467.374l-2.146,0.719l3.888,0.736L751.223,467.374z
		 M753.489,466.017l-3.88-0.734l1.735,1.444L753.489,466.017z"/>
	<path d="M757.475,462.418l-2.417,0.806l1.996,1.583l-0.133,0.752l-2.631-2.078l-2.738,0.908l-2.507-2.226l3.117-1.234l2.262,1.79
		l3.184-1.053L757.475,462.418z M753.656,462.977l-1.629-1.287l-1.798,0.683l1.456,1.256L753.656,462.977z"/>
	<path d="M752.485,456.298l-2.153,2.985l7.471,1.223l-0.106,0.65l-8.233-1.428l0.106-0.729h0.009l2.145-2.906L752.485,456.298z"/>
	<path d="M753.15,451.938l-2.116,3.011l7.484,1.131l-0.099,0.651l-8.248-1.163l0.099-0.568h0.009l2.106-3.094L753.15,451.938z"/>
	<path d="M751.137,448.902l8.263,1.146l-0.091,0.652l-8.263-1.146L751.137,448.902z"/>
	<path d="M754.743,443.298l-1.845,1.432l7.084,0.893l-0.083,0.653l-7.074-0.892l1.424,1.835l-0.871-0.11l-1.714-2.207l2.208-1.714
		L754.743,443.298z"/>
	<path d="M755.252,434.589l-1.964,3.107l1.492,0.151l1.966-3.125l0.688,0.088l-1.965,3.107l5.342,0.542l-0.066,0.654l-8.291-0.65
		l0.066-0.464h0.009l1.955-3.299L755.252,434.589z"/>
	<path d="M756.817,431.866l4.59,0.408l-0.059,0.656l-4.913-0.438l-0.783,1.27l-0.761-0.067l0.766-1.271l-2.614-0.232l0.059-0.656
		l2.946,0.263l0.774-1.271l0.769,0.068L756.817,431.866z"/>
	<path d="M753.445,427.275l8.32,0.638l-0.05,0.656l-8.321-0.638L753.445,427.275z"/>
	<path d="M753.861,421.29l8.321,0.536l-0.035,0.543l-2.304-0.148l-2.489,1.238l2.306,1.608l2.303,0.157l-0.034,0.543l-8.321-0.536
		l0.035-0.543l2.658-1.263l-2.475-1.584L753.861,421.29z M756.779,423.782l-2.042,0.977l3.95,0.255L756.779,423.782z
		 M758.863,422.158l-3.941-0.255l1.899,1.223L758.863,422.158z"/>
	<path d="M754.198,414.293l8.336,0.334l-0.026,0.657l-8.336-0.333L754.198,414.293z"/>
	<path d="M754,408.822l0.205-0.553l8.43,0.231l0.031,0.553l-3.41,1.327l3.367,1.524l-0.009,0.535l-8.333-0.223l0.018-0.544
		l3.298-1.326L754,408.831V408.822z M758.524,410.676l-2.689,1.049l5.378,0.15L758.524,410.676z M761.284,409.014l-5.353-0.14
		l2.619,1.179L761.284,409.014z"/>
	<path d="M762.798,402.936l-0.011,0.658l-8.335-0.122l0.01-0.667l0.132,0.003l2.89-1.236l-2.857-1.388l-0.123-0.002l0.011-0.667
		l8.335,0.139l-0.01,0.658l-7.002-0.101l2.813,1.352l-2.854,1.263L762.798,402.936z"/>
	<path d="M758.648,398.358l-0.009-0.008l-1.666-3.265l5.809-0.082l0.01,0.658l-4.694,0.073l1.666,3.265l-5.255,0.091l-0.011-0.667
		L758.648,398.358z"/>
	<path d="M757.222,390.617l-1.615,1.684l7.134-0.149l0.014,0.658l-7.125,0.149l1.675,1.606l-0.877,0.018l-2.016-1.933l1.934-2.015
		L757.222,390.617z"/>
	<path d="M756.449,381.96l-1.492,3.364l7.563-0.342l0.029,0.658l-8.335,0.198L754.186,385h0.009l1.482-3.185L756.449,381.96z"/>
	<path d="M756.198,377.537l-1.452,3.384l1.501-0.086l1.45-3.402l0.694-0.022l-1.452,3.384l5.37-0.308l0.038,0.658l-8.336,0.495
		L753.975,381h0.009l1.442-3.401L756.198,377.537z"/>
	<path d="M755.135,373.217l0.771-0.054l1.868,2.431l1.084-2.628l0.684-0.047l2.506,3.125l0.046,0.657l-8.32,0.58l-0.046-0.657
		L755.135,373.217z M754.384,376.578l3.074-0.214l0.067-0.172l-1.967-2.45L754.384,376.578z M758.198,376.136l0.127,0.167
		l3.065-0.214l-2.092-2.6L758.198,376.136z"/>
	<path d="M761.521,369.056l-2.135,1.392l2.333,1.026l0.062,0.762l-3.072-1.344l-2.419,1.574l-2.99-1.519l2.703-1.985l2.643,1.159
		l2.813-1.827L761.521,369.056z M757.968,370.563l-1.902-0.832l-1.565,1.116l1.727,0.846L757.968,370.563z"/>
	<path d="M753.046,367.858l2.775-3.313l1.06,1.885l4.165-2.598l0.063,0.656l-4.364,2.837l-1.039-1.667l-1.773,2.143l7.423-0.699
		l0.063,0.665l-8.306,0.783l-0.039-0.411l-0.024-0.253L753.046,367.858z"/>
	<path d="M752.601,363.221l1.38-2.045l3.048-1.473l3.543-0.378l0.061,0.567l-3.438,0.367l-2.83,1.361l-1.173,1.75l0.012,0.104
		l7.724-0.824l0.071,0.664l-8.292,0.884L752.601,363.221z"/>
	<path d="M751.78,355.931l8.276-0.986l0.064,0.54l-2.291,0.273l-2.223,1.67l2.56,1.162l2.293-0.264l0.063,0.54l-8.276,0.986
		l-0.064-0.541l2.384-1.724l-2.722-1.107L751.78,355.931z M756.854,355.875l-3.92,0.467l2.09,0.855L756.854,355.875z
		 M755.102,357.851l-1.83,1.332l3.93-0.468L755.102,357.851z"/>
	<path d="M752.978,346.926l-1.157,3.496l7.497-1.079l0.094,0.652l-8.263,1.423L751.055,351h0.009l1.148-3.729L752.978,346.926z"/>
	<path d="M758.278,342.401l-2.026,1.544l2.401,0.852l0.118,0.755l-3.163-1.115l-2.297,1.747l-3.094-1.295l2.55-2.178l2.722,0.962
		l2.671-2.028L758.278,342.401z M754.846,344.166l-1.958-0.69l-1.48,1.228l1.784,0.717L754.846,344.166z"/>
	<path d="M749.746,341.855l2.521-3.506l1.194,1.8l3.96-2.895l0.11,0.648l-4.14,3.148l-1.158-1.584l-1.61,2.266l7.346-1.244
		l0.111,0.658l-8.219,1.392l-0.069-0.407l-0.042-0.251L749.746,341.855z"/>
	<path d="M757.214,336.084l0.118,0.648l-8.203,1.501l-0.119-0.656l0.129-0.023l2.595-1.775l-3.073-0.806l-0.12,0.022l-0.12-0.656
		l8.206-1.484l0.118,0.647l-6.891,1.263l3.024,0.779l-2.556,1.794L757.214,336.084z"/>
	<path d="M747.587,330.059l8.19-1.595l0.104,0.535l-2.268,0.441l-2.095,1.831l2.641,0.971l2.269-0.433l0.104,0.535l-8.19,1.595
		l-0.104-0.535l2.252-1.897l-2.798-0.905L747.587,330.059z M752.648,329.628l-3.88,0.755l2.149,0.7L752.648,329.628z
		 M751.044,331.729l-1.729,1.464l3.889-0.757L751.044,331.729z"/>
	<path d="M746.146,323.234l8.146-1.798l0.143,0.644l-8.146,1.797L746.146,323.234z"/>
	<path d="M745.708,321.216l1.386-3.704l-2.136,0.5l-0.15-0.641l3.418-0.8l-1.386,3.704l5.554-1.299l-2.886-2.705l3.418-0.799
		l0.15,0.641l-2.137,0.5l2.886,2.705L745.708,321.216z"/>
	<path d="M748.576,315.3l-0.011-0.006l-2.359-2.811l5.648-1.386l0.158,0.64l-4.563,1.127l2.359,2.811l-5.107,1.27l-0.16-0.648
		L748.576,315.3z"/>
	<path d="M743.415,311.745l1.066-2.225l2.799-1.902l3.451-0.892l0.143,0.552l-3.349,0.866l-2.601,1.76l-0.904,1.902l0.026,0.102
		l7.521-1.945l0.167,0.646l-8.074,2.087L743.415,311.745z"/>
	<path d="M741.527,304.656l8.045-2.189l0.143,0.525l-2.228,0.606l-1.954,1.978l2.703,0.774l2.229-0.598l0.144,0.525l-8.046,2.189
		l-0.143-0.525l2.105-2.055l-2.854-0.697L741.527,304.656z M746.539,303.856l-3.811,1.037l2.193,0.541L746.539,303.856z
		 M745.095,306.068l-1.615,1.585l3.819-1.039L745.095,306.068z"/>
	<path d="M739.261,296.892l-0.159-0.53l7.987-2.392l0.159,0.53l-2.847,2.336l3.664,0.396l0.154,0.513l-7.985,2.4l-0.155-0.521
		l2.896-2.352l-3.712-0.373L739.261,296.892z M745.877,294.91l-5.126,1.544l2.856,0.299L745.877,294.91z M743.777,297.353
		l-2.225,1.839l5.153-1.543L743.777,297.353z"/>
	<path d="M745.988,290.437l-1.774,1.825l2.499,0.487l0.228,0.729l-3.289-0.634l-2.012,2.065l-3.248-0.822l2.198-2.529l2.83,0.548
		l2.34-2.398L745.988,290.437z M742.857,292.688l-2.037-0.393l-1.28,1.432l1.868,0.445L742.857,292.688z"/>
	<path d="M738.745,287.312l-0.537,3.641l7.195-2.354l0.204,0.626l-7.929,2.595l-0.205-0.626l0.009-0.003l0.528-3.638
		L738.745,287.312z"/>
	<path d="M743.188,281.94l-1.731,1.868l2.51,0.428l0.246,0.724l-3.306-0.557l-1.963,2.113l-3.267-0.746l2.138-2.581l2.844,0.481
		l2.283-2.454L743.188,281.94z M740.108,284.265l-2.046-0.344l-1.247,1.462l1.88,0.4L740.108,284.265z"/>
	<path d="M734.68,282.849l1.881-3.887l1.486,1.568l3.402-3.532l0.22,0.62l-3.536,3.813l-1.413-1.361l-1.196,2.509l7.021-2.487
		l0.223,0.629l-7.856,2.783l-0.138-0.389l-0.085-0.24L734.68,282.849z"/>
	<path d="M735.608,273.281l-0.012-0.005l-2.684-2.503l5.438-2.063l0.235,0.616L734.193,271l2.684,2.502l-4.914,1.882l-0.237-0.624
		L735.608,273.281z"/>
	<path d="M729.561,269.17l7.755-3.073l0.243,0.612l-7.756,3.073L729.561,269.17z"/>
	<path d="M729.927,262.496l-0.897,2.154l6.6-2.717l0.251,0.609l-6.592,2.713l2.143,0.893l-0.812,0.334l-2.578-1.075l1.074-2.578
		L729.927,262.496z"/>
	<path d="M726.071,254.68l-0.176,3.678l1.375-0.605l0.169-3.693l0.643-0.264l-0.177,3.677l4.922-2.167l0.266,0.604l-7.64,3.363
		l-0.266-0.603l0.008-0.003l0.168-3.674L726.071,254.68z"/>
	<path d="M722.066,251.686l7.596-3.45l0.225,0.496l-2.103,0.956l-1.613,2.266l2.793,0.332l2.106-0.947l0.226,0.496l-7.596,3.45
		l-0.226-0.496l1.751-2.367l-2.931-0.231L722.066,251.686z M726.889,250.093l-3.598,1.634l2.253,0.183L726.889,250.093z
		 M725.815,252.509l-1.341,1.825l3.605-1.638L725.815,252.509z"/>
	<path d="M729.161,247.164l0.28,0.596l-7.549,3.56l-0.284-0.604l0.119-0.056l2.054-2.383l-3.179,0.01l-0.111,0.052l-0.284-0.604
		l7.556-3.543l0.28,0.596l-6.34,2.991l3.125-0.023l-2.011,2.392L729.161,247.164z"/>
	<path d="M720.87,242.542l-0.766,2.206l6.426-3.114l0.287,0.593l-6.418,3.11l2.194,0.762l-0.79,0.383l-2.641-0.917l0.917-2.64
		L720.87,242.542z"/>
	<path d="M720.138,229.103l-1.552,3.31l2.581-1.372l0.31,0.582l-7.364,3.914l-0.309-0.582l3.969-2.109l1.97-4.486L720.138,229.103z"
		/>
	<path d="M717.936,225.046l-1.383,2.137l2.546-0.011l0.366,0.67l-3.352,0.021l-1.57,2.419l-3.346-0.172l1.661-2.91l2.885-0.015
		l1.826-2.81L717.936,225.046z M715.304,227.865l-2.074,0.013l-0.977,1.655l1.92,0.071L715.304,227.865z"/>
	<path d="M712.129,224.094l4.013-2.259l0.323,0.574l-4.297,2.418l0.073,1.489l-0.665,0.374l-0.088-1.48l-2.286,1.287l-0.322-0.574
		l2.576-1.45l-0.081-1.485l0.673-0.379L712.129,224.094z"/>
	<path d="M711.165,221.563l-0.012-0.003l-3.052-2.038l5.035-2.912l0.33,0.57l-4.065,2.359l3.052,2.038l-4.547,2.649l-0.335-0.578
		L711.165,221.563z"/>
	<path d="M712.544,215.611l0.338,0.565l-7.156,4.284l-0.342-0.573l0.112-0.067l1.809-2.573l-3.161,0.323l-0.106,0.063l-0.342-0.573
		l7.166-4.269l0.337,0.565l-6.011,3.6l3.105-0.331l-1.764,2.577L712.544,215.611z"/>
	<path d="M708.987,209.722l-1.347,3.402l2.495-1.529l0.345,0.562l-7.118,4.363l-0.344-0.562l3.836-2.352l1.692-4.604
		L708.987,209.722z"/>
	<path d="M701.495,208.105l-0.516,2.278l6.041-3.809l0.352,0.557l-6.034,3.804l2.266,0.513l-0.743,0.469l-2.726-0.618l0.617-2.726
		L701.495,208.105z"/>
	<path d="M705.497,204.178l0.358,0.553l-6.996,4.544l-0.363-0.56l0.11-0.071l1.713-2.638l-3.148,0.439l-0.103,0.067l-0.363-0.56
		l7.006-4.53l0.358,0.553l-5.876,3.819l3.092-0.445l-1.669,2.641L705.497,204.178z"/>
	<path d="M696.668,200.739l-0.459,2.289l5.941-3.958l0.365,0.548l-5.935,3.952l2.277,0.457l-0.731,0.487l-2.739-0.549l0.549-2.74
		L696.668,200.739z"/>
	<path d="M693.508,201.164l0.246-2.456l1.986-2.742l2.942-2.014l0.322,0.471l-2.855,1.954l-1.848,2.541l-0.204,2.097l0.06,0.087
		l6.415-4.389l0.377,0.551l-6.886,4.711L693.508,201.164z"/>
	<path d="M691.2,197.792l0.773-4.249l1.852,1.113l2.335-4.314l0.378,0.539l-2.389,4.62l-1.726-0.934l-0.482,2.738l6.102-4.275
		l0.383,0.546l-6.827,4.784l-0.237-0.338l-0.146-0.208L691.2,197.792z"/>
	<path d="M686.173,186.698l0.636,3.625l1.208-0.893l-0.646-3.639l0.568-0.398l0.636,3.625l4.324-3.194l0.392,0.53l-6.712,4.958
		l-0.392-0.53l0.007-0.005l-0.643-3.62L686.173,186.698z"/>
	<path d="M681.935,185.084l-0.334-0.441l6.653-5.03l0.334,0.441l-1.853,3.184l3.573-0.908l0.323,0.427l-6.648,5.037l-0.328-0.434
		l1.895-3.216l-3.61,0.946L681.935,185.084z M687.446,180.917l-4.268,3.237l2.783-0.716L687.446,180.917z M686.33,183.94l-1.444,2.5
		l4.294-3.246L686.33,183.94z"/>
	<path d="M679.949,182.512l6.581-5.117l0.403,0.52l-6.581,5.117L679.949,182.512z"/>
	<path d="M678.659,180.866l-0.337-3.944l-1.717,1.369l-0.411-0.515l2.747-2.191l0.337,3.944l4.464-3.561l-3.771-1.206l2.747-2.191
		l0.41,0.515l-1.716,1.37l3.771,1.206L678.659,180.866z"/>
	<path d="M674.479,175.669l6.465-5.277l0.417,0.511l-6.465,5.276L674.479,175.669z"/>
	<path d="M675.934,171h-0.013l-3.355-1.535l4.461-3.756l0.423,0.492l-3.6,3.014l3.355,1.481l-4.025,3.387l-0.429-0.462L675.934,171z
		"/>
	<path d="M668.857,168.972l6.335-5.436l0.429,0.5l-6.335,5.436L668.857,168.972z"/>
	<path d="M671.764,159.603l-0.746,3.579l2.195-1.931l0.435,0.494l-6.262,5.509l-0.435-0.495l3.375-2.969l0.881-4.82L671.764,159.603
		z"/>
	<path d="M663.089,162.409l6.19-5.581l0.44,0.489l-6.189,5.581L663.089,162.409z"/>
	<path d="M662.811,156.59l3.38-3.132l0.448,0.483l-3.619,3.353l0.417,1.432l-0.56,0.519l-0.431-1.42l-1.926,1.784l-0.447-0.483
		l2.17-2.011l-0.424-1.426l0.567-0.525L662.811,156.59z"/>
	<path d="M664.781,151.934l-2.344,0.937l-0.837,1.773l-1.946,0.948l-0.969,2.043l-0.417-0.44l1.518-3.252l-3.33,1.339l-0.429-0.453
		l2.338-0.956l0.79-1.669l1.858-0.901l1.049-2.24l0.453,0.478l-1.55,3.283l3.362-1.37L664.781,151.934z M660.156,153.145
		l0.527-1.129l-1.077,0.524l-0.463,1.019L660.156,153.145z M661.64,153.191l-1.056,0.432l-0.507,1.062l1.07-0.518L661.64,153.191z"
		/>
	<path d="M658.188,145.084l0.465,0.467l-5.908,5.892l-0.471-0.473l0.093-0.093l1.132-2.935l-2.99,1.08l-0.087,0.086l-0.471-0.473
		l5.92-5.879l0.465,0.467l-4.962,4.95l2.935-1.074l-1.088,2.929L658.188,145.084z"/>
	<path d="M648.543,143.867l1.201,3.479l5.301-5.406l0.471,0.461l-5.842,5.958l-0.471-0.461l0.007-0.006l-1.208-3.472
		L648.543,143.867z"/>
	<path d="M644.876,143.698l5.77-6.03l0.477,0.456l-5.77,6.03L644.876,143.698z"/>
	<path d="M642.449,137.497l0.08,2.335l4.876-5.223l0.481,0.45l-4.869,5.216l2.322-0.08l-0.6,0.642l-2.795,0.096l-0.096-2.794
		L642.449,137.497z"/>
	<path d="M636.015,130h-0.012l-3.548-0.955l3.814-4.397l0.498,0.427l-3.078,3.549l3.548,0.935l-3.438,3.981l-0.505-0.418
		L636.015,130z"/>
	<path d="M635.354,123.853l0.502,0.426l-5.386,6.369l-0.509-0.431l0.085-0.101l0.878-3.019l-2.887,1.329l-0.079,0.094l-0.509-0.432
		l5.398-6.358l0.503,0.426l-4.523,5.351l2.832-1.318l-0.835,3.009L635.354,123.853z"/>
	<path d="M624.531,125.681l-0.427-0.352l5.306-6.436l0.427,0.352l-1.063,3.526l3.265-1.711l0.414,0.34l-5.299,6.442l-0.42-0.346
		l1.097-3.567l-3.292,1.758L624.531,125.681z M628.927,120.349l-3.4,4.138l2.54-1.342L628.927,120.349z M628.542,123.548
		l-0.825,2.768l3.424-4.153L628.542,123.548z"/>
	<path d="M617.768,120.265l-0.435-0.342l5.16-6.552l0.435,0.342l-0.984,3.549l3.227-1.784l0.42,0.332l-5.153,6.558l-0.428-0.337
		l1.018-3.59l-3.252,1.831L617.768,120.265z M622.043,114.837l-3.308,4.212l2.51-1.398L622.043,114.837z M621.729,118.043
		l-0.763,2.785l3.329-4.228L621.729,118.043z"/>
	<path d="M619.558,111.122l-0.399,2.515l2.324-1.041l0.606,0.465l-3.057,1.376l-0.456,2.849l-3.13,1.198l0.341-3.334l2.631-1.182
		l0.532-3.31L619.558,111.122z M618.293,114.767l-1.893,0.852l-0.223,1.909l1.785-0.713L618.293,114.767z"/>
</g>
<circle style="fill:none;stroke:#000000;stroke-miterlimit:10;" cx="400" cy="400" r="354.348"/>
<circle style="fill:none;stroke:#000000;stroke-miterlimit:10;" cx="400" cy="400" r="350.871"/>
<rect x="151.5" y="152.5" transform="matrix(0.7071 0.7071 -0.7071 0.7071 400.2065 -165.1855)" style="fill:none;stroke:#000000;stroke-miterlimit:10;" width="496" height="496"/>
<circle style="fill:none;stroke:#000000;stroke-width:3;stroke-miterlimit:10;" cx="400" cy="400" r="186.353"/>
<rect x="154.283" y="156.674" transform="matrix(0.9427 -0.3336 0.3336 0.9427 -51.7099 72.158)" style="fill:none;stroke:#000000;stroke-width:3;stroke-miterlimit:10;" width="59.956" height="59.956"/>
<rect x="154.283" y="156.674" transform="matrix(0.6496 -0.7603 0.7603 0.6496 -77.343 205.483)" style="fill:none;stroke:#000000;stroke-width:3;stroke-miterlimit:10;" width="59.956" height="59.956"/>
<rect x="584.283" y="156.674" transform="matrix(0.9427 -0.3336 0.3336 0.9427 -27.0795 215.6011)" style="fill:none;stroke:#000000;stroke-width:3;stroke-miterlimit:10;" width="59.956" height="59.956"/>
<rect x="584.283" y="156.674" transform="matrix(0.6496 -0.7603 0.7603 0.6496 73.3179 532.392)" style="fill:none;stroke:#000000;stroke-width:3;stroke-miterlimit:10;" width="59.956" height="59.957"/>
<rect x="584.283" y="573.674" transform="matrix(0.9427 -0.3336 0.3336 0.9427 -166.1882 239.4932)" style="fill:none;stroke:#000000;stroke-width:3;stroke-miterlimit:10;" width="59.956" height="59.957"/>
<rect x="584.283" y="573.674" transform="matrix(0.6496 -0.7603 0.7603 0.6496 -243.7081 678.4979)" style="fill:none;stroke:#000000;stroke-width:3;stroke-miterlimit:10;" width="59.956" height="59.956"/>
<rect x="147.283" y="573.674" transform="matrix(0.6496 -0.7603 0.7603 0.6496 -396.823 346.2706)" style="fill:none;stroke:#000000;stroke-width:3;stroke-miterlimit:10;" width="59.956" height="59.956"/>
<rect x="147.283" y="573.674" transform="matrix(0.9427 -0.3336 0.3336 0.9427 -191.221 93.7123)" style="fill:none;stroke:#000000;stroke-width:3;stroke-miterlimit:10;" width="59.956" height="59.957"/>
</svg>
