<?xml version="1.0" encoding="iso-8859-1"?>
<!-- Generator: Adobe Illustrator 15.0.0, SVG Export Plug-In . SVG Version: 6.00 Build 0)  -->
<!DOCTYPE svg PUBLIC "-//W3C//DTD SVG 1.1//EN" "http://www.w3.org/Graphics/SVG/1.1/DTD/svg11.dtd">
<svg version="1.1" id="&#x30EC;&#x30A4;&#x30E4;&#x30FC;_1"
	 xmlns="http://www.w3.org/2000/svg" xmlns:xlink="http://www.w3.org/1999/xlink" x="0px" y="0px" width="800px" height="800px"
	 viewBox="0 0 800 800" style="enable-background:new 0 0 800 800;" xml:space="preserve">
<g>
	<path d="M635.762,296.324l7.527-10.087l-5.637-1.006l0.236-0.316l5.629,1.017l0.822,0.611l-7.758,10.395L635.762,296.324z"/>
	<path d="M626.053,289.078l5.529-2.707l0.615-4.293l3.943-1.929l-0.73,5.315l-3.668,1.811l-0.766,5.477l-0.272-0.204l0.728-5.062
		l-4.558,2.203L626.053,289.078z M635.723,281.303l-3.377,1.671l-0.453,3.255l3.352-1.638L635.723,281.303z"/>
	<path d="M625.352,288.551l-0.822-0.612l7.546-10.11l-4.981-0.72l1.482,4.7l-7.788,3.337l-0.317-0.237l7.668-3.289l-1.576-4.941
		l5.734,0.875l0.822,0.611L625.352,288.551z"/>
	<path d="M626.684,273.36l0.832,0.62l-7.756,10.395l-0.832-0.62l7.332-9.825l-4.472,2.59l1.232-5.075l-7.364,9.869l-0.821-0.612
		l7.757-10.395l0.821,0.613l-1.217,5.053L626.684,273.36z"/>
	<path d="M617.822,266.744l-1.104,4.883l4.375-2.44l0.822,0.612l-7.758,10.394l-0.832-0.62l1.911-2.561l1.064-4.827l-4.341,2.417
		l-1.895,2.537l-0.832-0.62l7.758-10.395L617.822,266.744z M616.355,271.815l1.059-4.524l-5.063,6.784L616.355,271.815z
		 M620.688,269.732l-4.048,2.297l-1.002,4.446L620.688,269.732z"/>
	<path d="M608.796,260.003l-7.757,10.395l-0.82-0.612l7.756-10.396L608.796,260.003z"/>
	<path d="M597.481,267.74l-2.062-5.799l-2.041,2.736l-0.821-0.613l2.654-3.555l2.062,5.797l6.532-8.754l-6.145-0.325l2.653-3.557
		l0.821,0.612l-2.042,2.735l6.146,0.327L597.481,267.74z"/>
	<path d="M599.635,253.16l-4.902,6.545l-2.598-5.057l-4.371,5.836l-0.821-0.613l4.899-6.564l2.593,5.086l4.368-5.854L599.635,253.16
		z"/>
	<path d="M594.019,248.966l-7.758,10.394l-0.831-0.619l7.471-10.012l-3.729,0.18l-4.155,2.761l-3.241,4.344l-0.328-0.245l3.29-4.41
		l4.297-2.857l4.108-0.188L594.019,248.966z"/>
	<path d="M584.328,241.73l-1.105,4.883l4.377-2.439l0.82,0.611l-7.758,10.395l-0.831-0.62l1.911-2.562l1.064-4.826l-4.342,2.416
		l-1.895,2.539l-0.832-0.621l7.758-10.395L584.328,241.73z M582.859,246.803l1.061-4.524l-5.063,6.784L582.859,246.803z
		 M587.19,244.721l-4.046,2.295l-1.002,4.447L587.19,244.721z"/>
	<path d="M571.216,239.572l5.288-3.686l0.832,0.621l-7.769,10.386l-0.821-0.612l2.042-6.16l-5.313,3.719l-0.821-0.613l7.757-10.394
		l0.832,0.62L571.216,239.572z M565.891,243.281l5.006-3.486l1.922-5.772L565.891,243.281z M569.188,245.691l6.933-9.29
		l-5.013,3.499L569.188,245.691z"/>
	<path d="M559.059,239.05l5.529-2.706l0.614-4.293l3.944-1.93l-0.73,5.315l-3.668,1.812l-0.766,5.477l-0.273-0.205l0.729-5.061
		l-4.557,2.203L559.059,239.05z M568.729,231.275l-3.377,1.67l-0.453,3.256l3.352-1.639L568.729,231.275z"/>
	<path d="M557.563,237.93l7.528-10.088l-5.638-1.006l0.236-0.316l5.63,1.016l0.821,0.612l-7.758,10.395L557.563,237.93z"/>
	<path d="M547.844,230.674l5.527-2.707l0.615-4.293l3.944-1.929l-0.729,5.315l-3.67,1.811l-0.765,5.477l-0.272-0.204l0.727-5.062
		l-4.557,2.203L547.844,230.674z M557.513,222.898l-3.376,1.671l-0.454,3.255l3.353-1.638L557.513,222.898z"/>
	<path d="M547.155,230.156l-0.821-0.611l7.545-10.11l-4.981-0.72l1.483,4.7l-7.789,3.337l-0.316-0.236l7.668-3.289l-1.576-4.941
		l5.735,0.873l0.821,0.612L547.155,230.156z"/>
	<path d="M543.847,211.499l-4.902,6.546l-2.597-5.057l-4.371,5.836l-0.822-0.613l4.9-6.564l2.592,5.086l4.368-5.854L543.847,211.499
		z"/>
	<path d="M536.202,205.793l-7.757,10.395l-0.82-0.612l7.756-10.396L536.202,205.793z"/>
	<path d="M529.824,202.598l-7.004,9.387l-0.822-0.611l7.046-9.443l-3.591,0.522l0.408-0.547l4.299-0.625l0.42,4.573l-0.408,0.547
		L529.824,202.598z"/>
	<path d="M512.971,204.63l5.404-7.243l-5.629-1.016l0.237-0.317l5.621,1.026l1.894-2.537l-5.637-1.006l0.236-0.317l5.63,1.017
		l0.821,0.611l-7.758,10.395L512.971,204.63z"/>
	<path d="M511.861,187.617l-1.104,4.883l4.376-2.441l0.821,0.611l-7.757,10.396l-0.832-0.62l1.91-2.561l1.064-4.827l-4.342,2.416
		l-1.893,2.538l-0.832-0.621l7.756-10.395L511.861,187.617z M510.395,192.688l1.059-4.523l-5.063,6.783L510.395,192.688z
		 M514.726,190.605l-4.048,2.295l-1.002,4.447L514.726,190.605z"/>
	<path d="M509.507,185.856l0.831,0.62l-7.757,10.395l-0.832-0.62l7.333-9.825l-4.472,2.59l1.233-5.075l-7.365,9.868l-0.822-0.611
		l7.758-10.395l0.82,0.613l-1.216,5.053L509.507,185.856z"/>
	<path d="M501.936,181.772l-7.006,9.388l-0.82-0.611l7.046-9.443l-3.592,0.521l0.408-0.547l4.3-0.625l0.42,4.572l-0.408,0.548
		L501.936,181.772z"/>
	<path d="M475.425,176.594l7.361-1.967l4.181-5.602l0.821,0.611l-7.757,10.395l-0.82-0.613l3.258-4.365l-6.705,1.795
		L475.425,176.594z"/>
	<path d="M469.769,172.373l5.529-2.706l0.614-4.294l3.943-1.93l-0.729,5.315l-3.668,1.812l-0.766,5.477l-0.273-0.205l0.728-5.061
		l-4.557,2.203L469.769,172.373z M479.438,164.598l-3.376,1.671l-0.454,3.255l3.353-1.638L479.438,164.598z"/>
	<path d="M471.732,163.767l2.275,0.421l-0.221,0.295l-2.283-0.408l-4.588,6.148l-0.822-0.612l4.287-5.745l-2.253-0.403l0.229-0.307
		l2.254,0.404l3.241-4.344l0.82,0.612L471.732,163.767z"/>
	<path d="M471.252,157.289l-4.902,6.547l-2.598-5.057l-4.371,5.834l-0.82-0.611l4.898-6.565l2.594,5.086l4.367-5.853
		L471.252,157.289z"/>
	<path d="M464.812,152.48l0.832,0.62l-7.757,10.395l-0.832-0.62l7.332-9.825l-4.471,2.591l1.232-5.076l-7.365,9.869l-0.82-0.612
		l7.756-10.395l0.821,0.612l-1.216,5.054L464.812,152.48z"/>
	<path d="M447.408,155.674l7.363-1.967l4.18-5.602l0.821,0.611l-7.757,10.395l-0.82-0.612l3.258-4.366l-6.705,1.794L447.408,155.674
		z"/>
	<path d="M451.626,144.202l-7.006,9.389l-0.821-0.612l7.047-9.443l-3.592,0.522l0.408-0.548l4.3-0.625l0.42,4.574l-0.409,0.547
		L451.626,144.202z"/>
	<path d="M447.998,139.925l0.831,0.62l-7.757,10.395l-0.832-0.62l7.332-9.825l-4.471,2.59l1.232-5.075l-7.365,9.868l-0.82-0.611
		l7.757-10.395l0.82,0.612l-1.216,5.054L447.998,139.925z"/>
	<path d="M440.426,135.838l-7.005,9.389l-0.821-0.613l7.047-9.441l-3.592,0.521l0.408-0.547l4.299-0.625l0.42,4.572l-0.408,0.547
		L440.426,135.838z"/>
	<path d="M437.603,132.161l-7.757,10.394l-0.832-0.619l7.471-10.012l-3.729,0.181l-4.155,2.76l-3.241,4.345l-0.328-0.246l3.29-4.41
		l4.297-2.857l4.108-0.188L437.603,132.161z"/>
	<path d="M424.252,138.379l-0.82-0.611l7.545-10.111l-4.982-0.72l1.483,4.701l-7.788,3.337l-0.317-0.237l7.667-3.29l-1.576-4.941
		l5.736,0.875l0.82,0.611L424.252,138.379z"/>
</g>
<path d="M400,794c-53.188,0-104.787-10.418-153.364-30.964c-46.918-19.845-89.053-48.253-125.236-84.437
	c-36.183-36.183-64.591-78.318-84.436-125.236C16.418,504.787,6,453.188,6,400c0-53.188,10.418-104.787,30.964-153.364
	C56.809,199.718,85.217,157.583,121.4,121.4s78.318-64.591,125.236-84.436C295.213,16.418,346.812,6,400,6
	c53.188,0,104.787,10.418,153.363,30.964C600.281,56.809,642.417,85.217,678.6,121.4c36.184,36.183,64.592,78.318,84.437,125.236
	C783.582,295.213,794,346.812,794,400c0,53.188-10.418,104.787-30.964,153.363c-19.845,46.918-48.253,89.054-84.437,125.236
	c-36.183,36.184-78.318,64.592-125.236,84.437C504.787,783.582,453.188,794,400,794z M400,14C187.159,14,14,187.159,14,400
	c0,212.841,173.159,386,386,386c212.841,0,386-173.159,386-386C786,187.159,612.841,14,400,14z"/>
<defs>
	<filter id="Adobe_OpacityMaskFilter" filterUnits="userSpaceOnUse" x="15.074" y="15.064" width="770.323" height="770.331">
		
			<feColorMatrix  type="matrix" values="-1 0 0 0 1  0 -1 0 0 1  0 0 -1 0 1  0 0 0 1 0" color-interpolation-filters="sRGB" result="source"/>
	</filter>
</defs>
<mask maskUnits="userSpaceOnUse" x="15.074" y="15.064" width="770.323" height="770.331" id="SVGID_1_">
	<g style="filter:url(#Adobe_OpacityMaskFilter);">
		<circle cx="400" cy="400" r="315"/>
		<circle style="fill:#FFFFFF;" cx="400" cy="400" r="277.5"/>
	</g>
</mask>
<path style="mask:url(#SVGID_1_);" d="M396.123,785.395l-7.973-0.163l-10.077-168.786l-43.722,163.336l-7.843-1.439l17.129-168.217
	L274.28,764.333l-7.511-2.679l43.891-163.292l-93.195,141.086l-6.984-3.85l69.517-154.137l-114.621,124.31l-6.276-4.92
	l93.342-140.989L119.367,664.176l-5.406-5.863L228.71,534.123L80.624,615.738l-4.395-6.653l133.185-104.176l-159.26,56.804
	l-3.271-7.272l148.171-81.462L28.743,503.5l-2.062-7.703L186,439.158l-169.052,3.447l-0.799-7.934l166.342-30.349L15.074,380.608
	l0.483-7.959l169.056-3.272L23.169,319.113l1.754-7.779l167.391,23.889l-151.29-75.51l2.979-7.397l161.392,50.43l-137.219-98.8
	l4.127-6.823l151.212,75.667L103.923,153.256l5.168-6.073l137.116,98.943l-98.869-137.169l6.075-5.165l119.469,119.657
	L197.296,72.196l6.825-4.124l98.728,137.271L252.505,43.925l7.398-2.975l75.429,151.331l-23.8-167.404l7.78-1.75l50.177,161.471
	l3.363-169.054l7.96-0.479l23.625,167.429l30.438-166.326l7.934,0.804l-3.538,169.05l56.723-159.289l7.702,2.066l-30.608,166.294
	l81.54-148.127l7.271,3.275l-56.888,159.23L609.257,76.34l6.651,4.399l-81.694,148.043l124.251-114.683l5.859,5.409L559.94,252.529
	l141.04-93.267l4.916,6.279L581.525,280.095l154.174-69.435l3.846,6.986l-141.136,93.12l163.315-43.804l2.675,7.512l-154.245,69.274
	l168.227-17.039l1.436,7.844l-163.36,43.635l168.781,10.167l0.159,7.973l-168.245,16.865l164.965,37.109l-1.123,7.895
	l-168.77-10.341l156.875,63.091l-2.374,7.612l-164.927-37.28l144.724,87.439l-3.564,7.134l-156.811-63.255L714.97,622.119
	l-4.663,6.47L565.675,541l109.586,128.768l-5.64,5.638l-128.71-109.656l87.512,144.681l-6.472,4.659L512.498,586.207l63.17,156.845
	l-7.135,3.561l-87.361-144.771l37.192,164.946l-7.614,2.37l-63.007-156.909l10.251,168.776l-7.896,1.118l-37.021-164.984
	L396.123,785.395z M383.115,566.668l10.048,168.304l16.906-167.754l36.916,164.514l-10.223-168.295l62.827,156.462l-37.086-164.475
	l87.112,144.356l-62.989-156.396l109.14,128.514l-87.262-144.268l128.341,109.342L527.573,508.574l144.22,87.338L543.338,486.703
	l156.361,63.073l-144.31-87.188l164.455,37.173l-156.428-62.91l168.287,10.312L567.212,410.16l167.765-16.817l-168.3-10.138
	l162.893-43.51l-167.745,16.991l153.804-69.077L552.78,331.288l140.731-92.854L539.779,307.67l124.016-114.227l-140.636,93
	l104.084-132.64L503.349,268.158l81.461-147.621L480.86,253.287l56.726-158.774l-81.307,147.703l30.521-165.818L430.24,235.231
	l3.527-168.568l-30.351,165.85L379.859,65.565l-3.353,168.57L326.473,73.126l23.731,166.925L274.99,89.152l50.201,160.958
	l-98.445-136.879l75.37,150.82L182.989,144.736l98.587,136.777l-136.724-98.66l119.251,119.191l-150.78-75.451l136.826,98.518
	L89.219,274.825l150.858,75.294l-166.912-23.82l160.982,50.12l-168.573,3.263l166.938,23.647L66.646,433.591l168.569-3.438
	L76.351,486.629l165.834-30.434L94.439,537.424l158.804-56.642L120.439,584.66l147.663-81.383L153.681,627.112l132.696-104.014
	l-93.075,140.586l114.292-123.953l-69.317,153.694l92.929-140.683L287.44,715.568l69.159-153.767l-17.08,167.735L383.115,566.668z"
	/>
<path d="M400,717c-84.674,0-164.279-32.974-224.153-92.847C115.974,564.279,83,484.674,83,400s32.974-164.279,92.847-224.153
	S315.326,83,400,83s164.279,32.974,224.153,92.847C684.026,235.721,717,315.326,717,400s-32.974,164.279-92.847,224.153
	C564.279,684.026,484.674,717,400,717z M400,87C227.411,87,87,227.411,87,400s140.411,313,313,313s313-140.411,313-313
	S572.589,87,400,87z"/>
<path d="M400,729.5c-88.013,0-170.757-34.274-232.992-96.509S70.5,488.013,70.5,400s34.274-170.757,96.508-232.992
	S311.987,70.5,400,70.5s170.757,34.274,232.991,96.508S729.5,311.987,729.5,400c0,88.012-34.274,170.757-96.509,232.991
	S488.012,729.5,400,729.5z M400,74.5C220.519,74.5,74.5,220.519,74.5,400S220.519,725.5,400,725.5S725.5,579.481,725.5,400
	S579.481,74.5,400,74.5z"/>
<path d="M400,679.5c-74.657,0-144.846-29.073-197.636-81.863C149.573,544.846,120.5,474.657,120.5,400
	s29.073-144.846,81.864-197.636S325.343,120.5,400,120.5s144.846,29.073,197.637,81.864C650.427,255.154,679.5,325.343,679.5,400
	s-29.073,144.846-81.863,197.637C544.846,650.427,474.657,679.5,400,679.5z M400,124.5c-151.911,0-275.5,123.589-275.5,275.5
	S248.089,675.5,400,675.5S675.5,551.911,675.5,400S551.911,124.5,400,124.5z"/>
<g>
	<path d="M640.77,653.007l-23.692,6.348l33.435,37.789l-3.288,2.909l-36.849-41.646l3.288-2.909l0.039,0.044l23.654-6.392
		L640.77,653.007z"/>
	<path d="M685.987,663.116l-16.368-4.487l5.195,16.157l-3.521,3.679l-6.88-21.255l-18.534-5.103l-5.646-21.613l21.838,4.7
		l5.904,18.295l21.534,5.949L685.987,663.116z M662.77,652.07l-4.261-13.155l-12.483-2.875l3.416,12.347L662.77,652.07z"/>
	<path d="M653.206,616.369l28.665-2.835l-3.744,13.916l31.948,7.057l-2.764,3.411l-34.007-6.842l2.823-12.779l-18.439,1.931
		l38.604,31.286l-2.801,3.456l-43.197-35.008l1.731-2.138l1.069-1.318L653.206,616.369z"/>
	<path d="M716.188,626.031l-2.472,3.627l-45.984-31.263l2.505-3.676l0.726,0.494l20.629,3.716l-10.823-18.211l-0.677-0.462
		l2.505-3.676l45.919,31.359l-2.472,3.628l-38.633-26.253l10.713,17.853l-20.534-3.438L716.188,626.031z"/>
	<path d="M696.268,552.58l48.401,27.383l-1.787,3.158l-13.399-7.58l-18.543,0.203l9.175,16.355l13.371,7.631l-1.787,3.159
		l-48.401-27.383l1.787-3.159l19.626,0.142l-10.259-16.699L696.268,552.58z M706.548,576.017l-15.096-0.065l22.979,12.999
		L706.548,576.017z M723.776,572.313l-22.928-12.971l7.861,12.854L723.776,572.313z"/>
	<path d="M713.532,512.317l52.243,19.048l-1.504,4.124l-52.243-19.047L713.532,512.317z"/>
	<path d="M717.729,500.703l19.884-17.342l-14.122-3.842l1.152-4.236l22.596,6.146l-19.885,17.342l36.718,9.987l-8.36-25.024
		l22.596,6.146l-1.152,4.236l-14.122-3.841l8.359,25.024L717.729,500.703z"/>
	<path d="M753.008,474.631l-0.047-0.068l-6.622-23.537l38.102,7.067l-0.794,4.318l-30.801-5.666l6.622,23.538l-34.496-6.286
		l0.805-4.375L753.008,474.631z"/>
	<path d="M730.604,440.161l11.781-11.484l21.896-5.485l23.653,2.335l-0.374,3.787l-22.954-2.267l-20.323,5.053l-10.03,9.833
		l-0.068,0.699l51.559,5.091l-0.438,4.428l-55.346-5.465L730.604,440.161z"/>
	<path d="M733.09,392.796l55.605,0.913l-0.06,3.629l-15.394-0.253l-16.191,9.044l15.879,9.979l15.393,0.312l-0.06,3.629
		l-55.605-0.913l0.06-3.629l17.307-9.26l-16.994-9.764L733.09,392.796z M753.324,408.468l-13.291,7.159l26.398,0.434
		L753.324,408.468z M766.687,396.978l-26.34-0.433l13.05,7.533L766.687,396.978z"/>
	<path d="M728.011,341.874l-0.539-3.648l55.012-8.118l0.539,3.648l-21.026,12.688l23.803,6.132l0.521,3.532l-55.003,8.176
		l-0.53-3.59l21.373-12.739l-24.142-6.023L728.011,341.874z M773.583,335.149l-35.314,5.271l18.564,4.716L773.583,335.149z
		 M757.382,349.255l-16.452,10.001l35.497-5.238L757.382,349.255z"/>
	<path d="M776.535,303.482l-12.69,11.27l16.376,4.46l1.161,4.958l-21.565-5.83l-14.388,12.749l-21.192-7.059l15.852-15.737
		l18.554,5.032l16.732-14.802L776.535,303.482z M754.612,316.915l-13.35-3.606l-9.219,8.893l12.21,3.873L754.612,316.915z"/>
	<path d="M728.057,279.849l-3.631,24.261l47.995-15.586l1.356,4.176l-52.896,17.178l-1.356-4.176l0.056-0.018l3.576-24.243
		L728.057,279.849z"/>
	<path d="M755.332,242.41l-10.628,13.231l16.89,1.66l1.975,4.694l-22.236-2.142l-12.053,14.975l-22.073-3.417l12.997-18.165
		l19.133,1.859l14.021-17.39L755.332,242.41z M735.964,259.317l-13.764-1.323l-7.603,10.309l12.685,1.777L735.964,259.317z"/>
	<path d="M699.389,253.906l8.776-27.44l11.289,8.961l19.161-26.527l2.034,3.891l-19.78,28.502l-10.611-7.665l-5.548,17.695
		l44.047-23.021l2.061,3.943l-49.286,25.759l-1.274-2.438l-0.786-1.504L699.389,253.906z"/>
	<path d="M693.631,190.413l-0.082-0.011l-21.817-11.041l30.976-23.288l2.644,3.505l-25.005,18.858l21.818,11.041l-27.961,21.16
		l-2.679-3.552L693.631,190.413z"/>
	<path d="M647.223,177.009l41.486-37.037l2.925,3.275l-41.487,37.037L647.223,177.009z"/>
	<path d="M632.932,135.85l0.407,15.56l32.763-34.524l3.186,3.022l-32.723,34.481l15.477-0.405l-4.029,4.247l-18.622,0.488
		l-0.487-18.622L632.932,135.85z"/>
	<path d="M584.909,103.646l12.032,21.376l5.615-8.287l-12.13-21.442l2.691-3.763l12.032,21.376l20.097-29.659l3.635,2.463
		l-31.195,46.039l-3.635-2.462l0.033-0.048l-12.065-21.328L584.909,103.646z"/>
	<path d="M551.816,103.342l27.267-48.474l3.163,1.78l-7.549,13.419l0.249,18.544l16.335-9.216l7.6-13.391l3.163,1.78l-27.267,48.474
		l-3.163-1.78l0.092-19.629L555.03,105.15L551.816,103.342z M571.483,75.782l-12.916,22.961l12.836-7.893L571.483,75.782z
		 M575.23,93.003l-0.029,15.097l12.945-23.013L575.23,93.003z"/>
	<path d="M569.625,50.229l3.993,1.825l-23.068,50.6l-4.046-1.85l0.365-0.798l0.186-20.962l-16.128,13.739l-0.341,0.745l-4.046-1.85
		l23.174-50.552l3.993,1.825L534.339,85.46l15.793-13.569l0.071,20.822L569.625,50.229z"/>
	<path d="M506.994,64.35l6.636,14.076l16.09-44.783l4.131,1.484l-16.069,44.728l14.001-6.6l-1.979,5.508l-16.848,7.941l-7.94-16.847
		L506.994,64.35z"/>
	<path d="M430.82,12.605l12.698,20.809l1.87-19.405l4.37,0.421l-5.334,55.36l-4.371-0.421l2.875-29.836l-17.703-27.466
		L430.82,12.605z"/>
	<path d="M397.84,11.378l7.836,15.057l8.319-14.795l5.092,0.082l-10.912,19.496l8.857,17.063l-12.014,18.834L393.62,47.903
		l9.405-16.769l-10.277-19.838L397.84,11.378z M405.522,35.917l-6.752,12.069l6.378,11.11l6.733-10.898L405.522,35.917z"/>
	<path d="M372.784,43.201l-2.083-30.658l4.38-0.297l2.229,32.818l9.178,3.835l0.345,5.08l-9.169-3.718l1.186,17.46l-4.379,0.297
		l-1.337-19.679l-9.174-3.776l-0.349-5.139L372.784,43.201z"/>
	<path d="M354.349,42.128l-0.049,0.066L334.213,56.14l-5.76-38.323l4.341-0.659l4.702,30.964l20.086-13.945l5.322,34.659
		l-4.398,0.668L354.349,42.128z"/>
	<path d="M318.218,19.976l4.27-1.02l12.973,54.07l-4.327,1.033l-0.204-0.854l-12.758-16.631l-4.251,20.753l0.19,0.797l-4.327,1.034
		l-12.859-54.098l4.27-1.02l10.906,45.417l4.091-20.414l12.874,16.363L318.218,19.976z"/>
	<path d="M271.724,33.073l20,13.929l-6.103-18.511l4.169-1.375l17.41,52.809L303.03,81.3l-9.383-28.461l-27.26-18.007
		L271.724,33.073z"/>
	<path d="M250.526,81.004l14.435,5.818l-18.633-43.791l4.04-1.719l18.61,43.737l5.787-14.358l2.292,5.386l-6.962,17.276
		l-17.276-6.962L250.526,81.004z"/>
	<path d="M226.806,51.986l3.882-2.051l26.028,49.143l-3.934,2.078l-0.41-0.776l-16.498-12.933l1.05,21.16l0.383,0.725l-3.934,2.078
		l-25.925-49.197l3.882-2.051l21.872,41.275l-1.12-20.792l16.544,12.644L226.806,51.986z"/>
	<path d="M199.787,110.221l15.201,3.336l-25.654-40.082l3.697-2.367l25.623,40.032l3.318-15.12l3.156,4.93l-3.993,18.193
		l-18.192-3.993L199.787,110.221z"/>
	<path d="M203.672,130.996l-16.433-0.784l-18.942-12.27l-14.422-18.889l3.024-2.309l13.996,18.331l17.554,11.416l14.031,0.629
		l0.558-0.426L171.6,85.52l3.536-2.7l33.746,44.198L203.672,130.996z"/>
	<path d="M183.438,146.978l-28.767-1.615l5.845-13.176l-30.487-11.898l3.257-2.944l32.554,12.002l-4.759,12.195l18.522,0.933
		l-33.333-36.869l3.301-2.983l37.298,41.255l-2.041,1.845l-1.26,1.139L183.438,146.978z"/>
	<path d="M118.774,192.84l22.233-10.355l-7.83-6.233l-22.306,10.447l-3.544-2.972l22.233-10.355l-28.024-22.309l2.734-3.435
		l43.502,34.63l-2.734,3.435l-0.046-0.037l-22.187,10.392L118.774,192.84z"/>
	<path d="M117.933,222.81l-2.049,3.065L69.656,194.97l2.049-3.065l24.102,4.707L82.278,176.09l1.984-2.968l46.26,30.856
		l-2.017,3.017l-24.394-4.902l13.854,20.668L117.933,222.81z M79.637,197.207l29.715,19.795l-10.597-15.956L79.637,197.207z
		 M101.114,197.625l18.908,3.628l-29.829-19.942L101.114,197.625z"/>
	<path d="M107.699,240.454l-48.634-26.962l2.129-3.839l48.633,26.962L107.699,240.454z"/>
	<path d="M101.725,251.296l-22.348,14.021l13.348,6l-1.8,4.004l-21.356-9.601L91.917,251.7l-34.704-15.601l4.347,26.022
		l-21.356-9.601l1.8-4.004l13.348,6l-4.347-26.021L101.725,251.296z"/>
	<path d="M85.286,291.042L32.839,272.56l1.459-4.141l52.446,18.482L85.286,291.042z"/>
	<path d="M53.296,300.008l0.042,0.071l4.889,23.955l-37.481-9.825l1.106-4.248l30.303,7.894L47.266,293.9l33.942,8.782l-1.122,4.305
		L53.296,300.008z"/>
	<path d="M71.633,344.662l-54.794-9.466l0.747-4.326l54.794,9.466L71.633,344.662z"/>
	<path d="M12.368,372.346l20.701-12.863l-19.416-1.712l0.386-4.373l55.389,4.885l-0.386,4.373l-29.852-2.633l-27.316,17.921
		L12.368,372.346z"/>
	<path d="M67.048,400.215l-55.606-0.898l0.071-4.39l55.606,0.899L67.048,400.215z"/>
	<path d="M43.442,430.239l-30.642,2.34l-0.334-4.378l32.801-2.504l3.758-9.21l5.078-0.388l-3.642,9.201l17.451-1.332l0.334,4.377
		l-19.669,1.502l-3.7,9.205l-5.136,0.393L43.442,430.239z"/>
	<path d="M14.255,448.757l16.417,3.65l11.271-6.612l14.27,2.098l13.009-7.603l0.64,3.988l-20.573,12.195l23.356,5.146l0.659,4.104
		l-16.456-3.525l-10.624,6.212l-13.606-2.026l-14.188,8.385l-0.696-4.336l20.862-12.241l-23.645-5.099L14.255,448.757z
		 M36.266,453.644l7.43,1.594l6.78-3.934l-7.836-1.174L36.266,453.644z M44.257,459.476l-7.147,4.23l7.894,1.163L51.379,461
		L44.257,459.476z"/>
	<path d="M28.814,515.522l-1.402-4.16l52.674-17.813l1.42,4.215l-0.832,0.28l-15.408,14.211l21.053,2.355l0.776-0.262l1.421,4.215
		l-52.711,17.702l-1.402-4.16l44.243-14.972l-20.701-2.227l15.13-14.302L28.814,515.522z"/>
	<path d="M84.67,550.381l1.318-24.493l-46.299,20.059l-1.746-4.028l51.025-22.105l1.746,4.028l-0.054,0.022l-1.264,24.47
		L84.67,550.381z"/>
	<path d="M107.253,558.724L58.257,585.02l-2.076-3.868l48.996-26.296L107.253,558.724z"/>
	<path d="M111.533,602.092l3.239-15.224l-39.92,25.915l-2.391-3.683l39.871-25.884l-15.143-3.221l4.91-3.188l18.22,3.876
		l-3.876,18.22L111.533,602.092z"/>
	<path d="M147.934,658.044l0.083-0.003l23.416,7.048l-26.417,28.354l-3.217-2.987l21.315-22.948l-23.416-7.048l23.822-25.732
		l3.26,3.028L147.934,658.044z"/>
	<path d="M153.046,700.108l-3.453-2.713l34.309-43.77l3.499,2.748l-0.542,0.69l-5.104,20.334l18.905-9.567l0.506-0.645l3.499,2.749
		l-34.401,43.697l-3.453-2.712l28.813-36.772l-18.54,9.48l4.821-20.258L153.046,700.108z"/>
	<path d="M224.656,683.215l3.079,2.03l-30.615,46.431l-3.079-2.03l4.554-24.135l-20.438,13.661l-2.981-1.966l30.566-46.463
		l3.03,1.998l-4.748,24.429l20.583-13.987L224.656,683.215z M199.574,700.196l3.509-18.935l-19.755,29.96L199.574,700.196z
		 M199.293,721.679l19.609-29.845l-15.891,10.699L199.293,721.679z"/>
	<path d="M273.343,708.139l3.37,1.497l-22.57,50.822l-3.371-1.496l0.528-24.553l-17.915,16.831l-3.263-1.449l22.517-50.847
		l3.317,1.474l-0.67,24.873l18.003-17.176L273.343,708.139z M251.394,729.007l0.351-19.251l-14.563,32.794L251.394,729.007z
		 M254.645,750.241l14.439-32.657l-13.916,13.163L254.645,750.241z"/>
	<path d="M279.832,769.679l-2.736-16.75l-12.526,11.452l-4.811-1.67l16.458-15.105l-3.079-18.976l17.298-14.133l4.821,21.811
		l-14.174,12.986l3.56,22.055L279.832,769.679z M280.206,743.971l10.186-9.353l-2.585-12.546l-9.802,8.246L280.206,743.971z"/>
	<path d="M325.457,781.501l-4.328-0.735l9.263-54.833l4.386,0.745l-0.147,0.866l5.217,20.303l12.047-17.427l0.137-0.809l4.386,0.746
		l-9.379,54.813l-4.328-0.736l7.772-46.061l-11.768,17.178l-5.43-20.102L325.457,781.501z"/>
	<path d="M373.033,731.865l-4.74,55.402l-4.374-0.374l4.74-55.403L373.033,731.865z"/>
	<path d="M392.204,732.813l12.413,10.798l7.266,21.37l-0.384,23.765l-3.805-0.062l0.373-23.063l-6.705-19.839l-10.625-9.188
		l-0.703-0.011l-0.837,51.801l-4.449-0.071l0.899-55.606L392.204,732.813z"/>
	<path d="M419.603,760.21l0.054-0.063l21.036-12.459l2.982,38.632l-4.377,0.345l-2.457-31.217l-21.036,12.458l-2.81-34.946
		l4.435-0.35L419.603,760.21z"/>
	<path d="M466.64,726.524l8.944,54.881l-3.582,0.584l-2.476-15.193l-11.765-14.332l-7.011,17.392l2.418,15.203l-3.581,0.584
		l-8.944-54.882l3.582-0.583l12.175,15.392l6.601-18.452L466.64,726.524z M454.8,749.211l-9.397-11.813l4.246,26.055L454.8,749.211z
		 M468.472,760.326l-4.236-25.997l-5.104,14.175L468.472,760.326z"/>
	<path d="M502.156,775.045l-11.462-12.516l-4.209,16.44l-4.94,1.237l5.499-21.651l-12.968-14.19l6.734-21.297l15.978,15.608
		l-4.748,18.628l15.056,16.503L502.156,775.045z M488.391,753.331l3.4-13.402l-9.032-9.081l-3.686,12.267L488.391,753.331z"/>
	<path d="M516.357,712.175l3.49-1.192l17.989,52.619l-3.49,1.193l-16.301-18.368l-1.7,24.522l-3.379,1.155l-18.045-52.602
		l3.435-1.174l16.415,18.7l1.531-24.835L516.357,712.175z M514.442,742.4l-12.828-14.359l11.608,33.954L514.442,742.4z
		 M531.261,755.767l-11.606-33.769l-1.261,19.113L531.261,755.767z"/>
</g>
<path d="M563.459,627H236.54L135.523,315.08l1.461-1.068L400,121.904L664.476,315.08L563.459,627z M240.177,622h319.646
	l98.782-305.018L400,128.096L141.395,316.982L240.177,622z"/>
<g>
	<path d="M659.093,334.377l13.191,4.407l-0.349,1.042l-4.336,4.34l-0.402-0.135l4.35-4.335l-12.803-4.277L659.093,334.377z"/>
	<path d="M654.983,346.673l5.362-0.848l-3.738-4.012l0.116-0.347l4.024,4.354l4.339-0.65l3.895,4.234l-4.653,0.715l-3.169-3.405
		l-6.523,1L654.983,346.673z M665.475,346.042l-3.954,0.608l2.392,2.59l3.996-0.595L665.475,346.042z"/>
	<path d="M667.543,352.973l-0.349,1.042l-4.517,4.279l-1.635-5.315l-8.766,1.795l0.135-0.403l8.899-1.827l1.57,5.047l3.947-3.682
		l-12.83-4.286l0.348-1.042L667.543,352.973z"/>
	<path d="M659.259,361.599l4.164,3.706l-0.348,1.042l-13.191-4.407l0.348-1.041l12.525,4.184l-4.192-3.715l5.523-0.455
		l-12.469-4.166l0.353-1.056l13.191,4.407l-0.353,1.056L659.259,361.599z"/>
	<path d="M660.702,373.448l-13.191-4.407l0.353-1.055l3.222,1.076l5.301-0.529l-3.891-3.6l-3.249-1.085l0.353-1.056l13.191,4.407
		l-0.349,1.042l-5.347,0.529l3.96,3.623L660.702,373.448z M651.751,369.285l8.609,2.876l-3.701-3.335L651.751,369.285z
		 M653.176,365.161l3.604,3.303l4.968-0.455L653.176,365.161z"/>
	<path d="M656.875,384.905l-13.191-4.407l0.348-1.042l13.191,4.407L656.875,384.905z"/>
	<path d="M655.718,388.372l-5.211,4.047l3.471,1.16l-0.348,1.041l-4.513-1.507l5.211-4.047l-11.108-3.711l1.731,6.367l-4.513-1.508
		l0.348-1.042l3.472,1.16l-1.731-6.367L655.718,388.372z"/>
	<path d="M652.998,396.509l-7.429-2.481l0.829,6.065l-8.331-2.783l0.348-1.042l7.42,2.463l-0.807-6.042l8.322,2.765L652.998,396.509
		z"/>
	<path d="M650.599,403.697l-3.733,2.35l-5.532,0.111l-5.596-1.869l0.139-0.416l5.513,1.842l5.348-0.113l3.395-2.123l-12.705-4.244
		l0.353-1.056l13.191,4.407L650.599,403.697z"/>
	<path d="M646.508,415.941l-13.191-4.406l0.353-1.057l3.222,1.076l5.301-0.529l-3.891-3.6l-3.249-1.084l0.353-1.057l13.191,4.408
		l-0.349,1.041l-5.348,0.529l3.961,3.623L646.508,415.941z M637.557,411.777l8.609,2.877l-3.701-3.336L637.557,411.777z
		 M638.981,407.654l3.604,3.303l4.968-0.455L638.981,407.654z"/>
	<path d="M642.169,428.926l-0.353,1.055l-13.191-4.406l0.348-1.041l6.954,0.023l-5.566-4.176l0.348-1.041l13.196,4.393l-0.353,1.055
		l-6.912-0.008L642.169,428.926z M641.447,428.686l-5.225-3.906l-6.541-0.01L641.447,428.686z M636.344,424.557l6.555,0.014
		l-11.788-3.939L636.344,424.557z"/>
	<path d="M626.595,431.654l5.362-0.848l-3.738-4.012l0.116-0.348l4.024,4.354l4.339-0.648l3.895,4.232l-4.653,0.715l-3.169-3.404
		l-6.523,1L626.595,431.654z M637.086,431.021l-3.954,0.609l2.392,2.59l3.996-0.596L637.086,431.021z"/>
	<path d="M625.966,433.539l13.191,4.406l-0.349,1.041l-4.336,4.34l-0.402-0.135l4.35-4.334l-12.803-4.277L625.966,433.539z"/>
	<path d="M621.845,445.873l5.362-0.848l-3.738-4.012l0.116-0.348l4.024,4.354l4.339-0.648l3.895,4.232l-4.653,0.715l-3.169-3.404
		l-6.523,1L621.845,445.873z M632.336,445.24l-3.954,0.609l2.392,2.59l3.996-0.596L632.336,445.24z"/>
	<path d="M634.407,452.164l-0.349,1.041l-4.517,4.279l-1.635-5.316l-8.766,1.795l0.135-0.402l8.899-1.828l1.57,5.049l3.947-3.684
		l-12.83-4.285l0.348-1.043L634.407,452.164z"/>
	<path d="M629.359,467.271l-7.429-2.48l0.829,6.064l-8.331-2.783l0.348-1.041l7.42,2.463l-0.807-6.043l8.322,2.766L629.359,467.271z
		"/>
	<path d="M626.126,476.951l-13.191-4.406l0.348-1.043l13.191,4.408L626.126,476.951z"/>
	<path d="M620.797,479.043l0.694,0.232l2.428,4.283l-4.168,2.08l-0.694-0.23l3.482-1.738l-11.983-4.004l0.348-1.041l11.914,3.98
		L620.797,479.043z"/>
	<path d="M607.073,490.092l13.191,4.408l-0.349,1.041l-4.336,4.34l-0.402-0.135l4.35-4.336l-3.222-1.076l-4.322,4.346l-0.402-0.135
		l4.336-4.34l-9.192-3.07L607.073,490.092z"/>
	<path d="M615.805,507.846l-13.191-4.406l0.353-1.055l3.222,1.076l5.301-0.529l-3.891-3.6l-3.249-1.086l0.353-1.055l13.191,4.406
		l-0.349,1.041l-5.348,0.529l3.961,3.623L615.805,507.846z M606.854,503.684l8.609,2.875l-3.701-3.336L606.854,503.684z
		 M608.278,499.559l3.604,3.305l4.968-0.455L608.278,499.559z"/>
	<path d="M609.616,510.201l4.164,3.707l-0.348,1.041l-13.191-4.406l0.348-1.041l12.525,4.184l-4.192-3.715l5.523-0.455
		l-12.469-4.166l0.353-1.055l13.191,4.406l-0.353,1.055L609.616,510.201z"/>
	<path d="M608.978,514.424l0.694,0.23l2.428,4.285l-4.168,2.08l-0.694-0.232l3.482-1.738l-11.983-4.002l0.348-1.043l11.914,3.98
		L608.978,514.424z"/>
	<path d="M590.964,538.314l7.002-2.523l-5.541-1.852l0.349-1.041l13.191,4.406l-0.349,1.041l-7.109-2.375l-7.687,2.773
		L590.964,538.314z"/>
	<path d="M588.768,544.889l5.362-0.848l-3.738-4.012l0.116-0.348l4.024,4.354l4.339-0.648l3.895,4.232l-4.653,0.715l-3.169-3.404
		l-6.523,1L588.768,544.889z M599.259,544.256l-3.954,0.609l2.392,2.59l3.996-0.596L599.259,544.256z"/>
	<path d="M600.418,553.953l-0.349,1.043l-5.512-1.842l-1.737,1.734l-0.389-0.131l1.737-1.734l-7.29-2.436l0.348-1.041l7.804,2.607
		l1.76-1.758l0.375,0.125l-1.746,1.762L600.418,553.953z"/>
	<path d="M598.605,559.332l-7.429-2.482l0.829,6.066l-8.331-2.783l0.348-1.043l7.42,2.465l-0.807-6.043l8.322,2.764L598.605,559.332
		z"/>
	<path d="M590.673,566.904l4.164,3.707l-0.348,1.041l-13.191-4.406l0.348-1.043l12.525,4.186l-4.192-3.717l5.523-0.455
		l-12.469-4.164l0.353-1.057l13.191,4.408l-0.353,1.055L590.673,566.904z"/>
	<path d="M579.096,573.84l7.002-2.523l-5.541-1.85l0.349-1.043l13.191,4.408l-0.349,1.041l-7.109-2.375l-7.687,2.773L579.096,573.84
		z"/>
	<path d="M587.666,578.217l0.694,0.23l2.428,4.285l-4.168,2.08l-0.694-0.232l3.482-1.738l-11.983-4.002l0.348-1.043l11.914,3.98
		L587.666,578.217z"/>
	<path d="M583.55,588.227l4.164,3.707l-0.348,1.041l-13.191-4.406l0.348-1.043l12.525,4.186l-4.192-3.717l5.523-0.455l-12.469-4.164
		l0.353-1.057l13.191,4.408l-0.353,1.055L583.55,588.227z"/>
	<path d="M582.918,592.432l0.694,0.23l2.428,4.285l-4.168,2.08l-0.694-0.232l3.482-1.738l-11.983-4.002l0.348-1.043l11.914,3.98
		L582.918,592.432z"/>
	<path d="M584.335,602.051l-3.733,2.35l-5.532,0.113l-5.596-1.871l0.139-0.416l5.513,1.842l5.348-0.111l3.395-2.123l-12.705-4.244
		l0.353-1.057l13.191,4.408L584.335,602.051z"/>
	<path d="M582.331,608.051l-0.349,1.041l-4.517,4.279l-1.635-5.314l-8.766,1.795l0.135-0.402l8.899-1.828l1.57,5.047l3.947-3.682
		l-12.83-4.287l0.348-1.041L582.331,608.051z"/>
</g>
<g>
	<path d="M141.216,335.418l-12.803,4.277l4.35,4.335l-0.402,0.135l-4.336-4.34l-0.349-1.042l13.191-4.407L141.216,335.418z"/>
	<path d="M145.324,347.715l-6.523-1l-3.169,3.405l-4.653-0.715l3.895-4.234l4.339,0.65l4.024-4.354l0.116,0.347l-3.738,4.012
		l5.362,0.848L145.324,347.715z M132.052,348.645l3.996,0.595l2.392-2.59l-3.954-0.608L132.052,348.645z"/>
	<path d="M145.613,348.581l0.348,1.042l-12.83,4.286l3.947,3.682l1.57-5.047l8.899,1.827l0.135,0.403l-8.766-1.795l-1.635,5.315
		l-4.517-4.279l-0.349-1.042L145.613,348.581z"/>
	<path d="M135.149,361.154l-0.353-1.056l13.191-4.407l0.353,1.056l-12.469,4.166l5.523,0.455l-4.192,3.715l12.525-4.184l0.348,1.041
		l-13.191,4.407l-0.348-1.042l4.164-3.706L135.149,361.154z"/>
	<path d="M138.905,372.393l3.96-3.623l-5.347-0.529l-0.349-1.042l13.191-4.407l0.353,1.056l-3.249,1.085l-3.891,3.6l5.301,0.529
		l3.222-1.076l0.353,1.055l-13.191,4.407L138.905,372.393z M138.213,368.009l4.968,0.455l3.604-3.303L138.213,368.009z
		 M143.301,368.826l-3.701,3.335l8.609-2.876L143.301,368.826z"/>
	<path d="M142.737,383.863l13.191-4.407l0.348,1.042l-13.191,4.407L142.737,383.863z"/>
	<path d="M157.434,383.965l-1.731,6.367l3.472-1.16l0.348,1.042l-4.513,1.508l1.731-6.367l-11.108,3.711l5.211,4.047l-4.513,1.507
		l-0.348-1.041l3.471-1.16l-5.211-4.047L157.434,383.965z"/>
	<path d="M146.609,395.454l8.322-2.765l-0.807,6.042l7.42-2.463l0.348,1.042l-8.331,2.783l0.829-6.065l-7.429,2.481L146.609,395.454
		z"/>
	<path d="M148.99,402.586l13.191-4.407l0.353,1.056l-12.705,4.244l3.395,2.123l5.348,0.113l5.513-1.842l0.139,0.416l-5.596,1.869
		l-5.532-0.111l-3.733-2.35L148.99,402.586z"/>
	<path d="M153.1,414.887l3.961-3.623l-5.348-0.529l-0.349-1.041l13.191-4.408l0.353,1.057l-3.249,1.084l-3.891,3.6l5.301,0.529
		l3.222-1.076l0.353,1.057l-13.191,4.406L153.1,414.887z M152.407,410.502l4.968,0.455l3.604-3.303L152.407,410.502z
		 M157.495,411.318l-3.701,3.336l8.609-2.877L157.495,411.318z"/>
	<path d="M163.32,424.779l-6.912,0.008l-0.353-1.055l13.196-4.393l0.348,1.041l-5.566,4.176l6.954-0.023l0.348,1.041l-13.191,4.406
		l-0.353-1.055L163.32,424.779z M168.85,420.631l-11.788,3.939l6.555-0.014L168.85,420.631z M170.278,424.77l-6.541,0.01
		l-5.225,3.906L170.278,424.77z"/>
	<path d="M173.713,432.695l-6.523-1l-3.169,3.404l-4.653-0.715l3.895-4.232l4.339,0.648l4.024-4.354l0.116,0.348l-3.738,4.012
		l5.362,0.848L173.713,432.695z M160.44,433.625l3.996,0.596l2.392-2.59l-3.954-0.609L160.44,433.625z"/>
	<path d="M174.343,434.58l-12.803,4.277l4.35,4.334l-0.402,0.135l-4.336-4.34l-0.349-1.041l13.191-4.406L174.343,434.58z"/>
	<path d="M178.463,446.914l-6.523-1l-3.169,3.404l-4.653-0.715l3.895-4.232l4.339,0.648l4.024-4.354l0.116,0.348l-3.738,4.012
		l5.362,0.848L178.463,446.914z M165.19,447.844l3.996,0.596l2.392-2.59l-3.954-0.609L165.19,447.844z"/>
	<path d="M178.749,447.77l0.348,1.043l-12.83,4.285l3.947,3.684l1.57-5.049l8.899,1.828l0.135,0.402l-8.766-1.795l-1.635,5.316
		l-4.517-4.279l-0.349-1.041L178.749,447.77z"/>
	<path d="M170.248,466.217l8.322-2.766l-0.807,6.043l7.42-2.463l0.348,1.041l-8.331,2.783l0.829-6.064l-7.429,2.48L170.248,466.217z
		"/>
	<path d="M173.486,475.91l13.191-4.408l0.348,1.043l-13.191,4.406L173.486,475.91z"/>
	<path d="M177.143,482.605l11.914-3.98l0.348,1.041l-11.983,4.004l3.482,1.738l-0.694,0.23l-4.168-2.08l2.428-4.283l0.694-0.232
		L177.143,482.605z"/>
	<path d="M193.235,491.135l-9.192,3.07l4.336,4.34l-0.402,0.135l-4.322-4.346l-3.222,1.076l4.35,4.336l-0.402,0.135l-4.336-4.34
		l-0.349-1.041l13.191-4.408L193.235,491.135z"/>
	<path d="M183.803,506.791l3.961-3.623l-5.348-0.529l-0.349-1.041l13.191-4.406l0.353,1.055l-3.249,1.086l-3.891,3.6l5.301,0.529
		l3.222-1.076l0.353,1.055l-13.191,4.406L183.803,506.791z M183.11,502.408l4.968,0.455l3.604-3.305L183.11,502.408z
		 M188.198,503.223l-3.701,3.336l8.609-2.875L188.198,503.223z"/>
	<path d="M184.792,509.756l-0.353-1.055l13.191-4.406l0.353,1.055l-12.469,4.166l5.523,0.455l-4.192,3.715l12.525-4.184l0.348,1.041
		l-13.191,4.406l-0.348-1.041l4.164-3.707L184.792,509.756z"/>
	<path d="M188.962,517.984l11.914-3.98l0.348,1.043l-11.983,4.002l3.482,1.738l-0.694,0.232l-4.168-2.08l2.428-4.285l0.694-0.23
		L188.962,517.984z"/>
	<path d="M209.14,538.744l-7.687-2.773l-7.109,2.375l-0.349-1.041l13.191-4.406l0.349,1.041l-5.541,1.852l7.002,2.523
		L209.14,538.744z"/>
	<path d="M211.54,545.93l-6.523-1l-3.169,3.404l-4.653-0.715l3.895-4.232l4.339,0.648l4.024-4.354l0.116,0.348l-3.738,4.012
		l5.362,0.848L211.54,545.93z M198.268,546.859l3.996,0.596l2.392-2.59l-3.954-0.609L198.268,546.859z"/>
	<path d="M204.541,552.283l-1.746-1.762l0.375-0.125l1.76,1.758l7.804-2.607l0.348,1.041l-7.29,2.436l1.737,1.734l-0.389,0.131
		l-1.737-1.734l-5.512,1.842l-0.349-1.043L204.541,552.283z"/>
	<path d="M201.002,558.275l8.322-2.764l-0.807,6.043l7.42-2.465l0.348,1.043l-8.331,2.783l0.829-6.066l-7.429,2.482L201.002,558.275
		z"/>
	<path d="M203.735,566.459l-0.353-1.055l13.191-4.408l0.353,1.057l-12.469,4.164l5.523,0.455l-4.192,3.717l12.525-4.186l0.348,1.043
		l-13.191,4.406l-0.348-1.041l4.164-3.707L203.735,566.459z"/>
	<path d="M221.008,574.271l-7.687-2.773l-7.109,2.375l-0.349-1.041l13.191-4.408l0.349,1.043l-5.541,1.85l7.002,2.523
		L221.008,574.271z"/>
	<path d="M210.273,581.777l11.914-3.98l0.348,1.043l-11.983,4.002l3.482,1.738l-0.694,0.232l-4.168-2.08l2.428-4.285l0.694-0.23
		L210.273,581.777z"/>
	<path d="M210.858,587.781l-0.353-1.055l13.191-4.408l0.353,1.057l-12.469,4.164l5.523,0.455l-4.192,3.717l12.525-4.186l0.348,1.043
		l-13.191,4.406l-0.348-1.041l4.164-3.707L210.858,587.781z"/>
	<path d="M215.021,595.992l11.914-3.98l0.348,1.043l-11.983,4.002l3.482,1.738l-0.694,0.232l-4.168-2.08l2.428-4.285l0.694-0.23
		L215.021,595.992z"/>
	<path d="M215.254,600.941l13.191-4.408l0.353,1.057l-12.705,4.244l3.395,2.123l5.348,0.111l5.513-1.842l0.139,0.416l-5.596,1.871
		l-5.532-0.113l-3.733-2.35L215.254,600.941z"/>
	<path d="M230.825,603.658l0.348,1.041l-12.83,4.287l3.947,3.682l1.57-5.047l8.899,1.828l0.135,0.402l-8.766-1.795l-1.635,5.314
		l-4.517-4.279l-0.349-1.041L230.825,603.658z"/>
</g>
<g>
	<path d="M531.69,627.227l-0.043,12.047l-0.951-0.004l-4.747-2.389l0.002-0.367l4.746,2.402l0.042-11.691L531.69,627.227z"/>
	<path d="M520.432,627.189l2.153,4.18l2.285-4.164l0.316,0.002l-2.488,4.492l1.712,3.393l-2.425,4.354l-1.851-3.635l1.939-3.529
		l-2.594-5.096L520.432,627.189z M523.8,635.646l-1.574-3.086l-1.48,2.67l1.573,3.125L523.8,635.646z"/>
	<path d="M518.646,639.232l-0.951-0.004l-4.746-2.553l3.929-2.787l-3.856-6.723l0.368,0.002l3.919,6.822l-3.726,2.662l4.101,2.246
		l0.042-11.715l0.951,0.002L518.646,639.232z"/>
	<path d="M509.313,634.764l-1.918,4.432l-0.951-0.004l0.043-12.047l0.951,0.004l-0.041,11.438l1.918-4.457l1.873,4.42l0.041-11.387
		l0.964,0.004l-0.043,12.047l-0.964-0.004L509.313,634.764z"/>
	<path d="M499.961,639.172l0.043-12.047l0.964,0.004l-0.011,2.941l1.874,4.217l1.904-4.178l0.011-2.967l0.964,0.004l-0.043,12.047
		l-0.951-0.004l-1.887-4.256l-1.904,4.242L499.961,639.172z M500.955,630.68l-0.028,7.861l1.738-3.949L500.955,630.68z
		 M504.733,630.73l-1.738,3.861l1.723,3.963L504.733,630.73z"/>
	<path d="M489.5,639.141l0.043-12.047l0.951,0.004l-0.043,12.047L489.5,639.141z"/>
	<path d="M486.322,639.133l-4.744-3.188l-0.011,3.17l-0.951-0.004l0.015-4.119l4.743,3.186l0.037-10.143l-4.767,3.152l0.015-4.121
		l0.951,0.004l-0.012,3.17l4.767-3.154L486.322,639.133z"/>
	<path d="M478.858,639.107l0.024-6.783l-4.764,2.328l0.027-7.607l0.951,0.004l-0.012,6.771l4.751-2.305l-0.015,7.596
		L478.858,639.107z"/>
	<path d="M472.318,639.088l-2.945-2.432l-1.595-4.52l0.019-5.111l0.381,0.002l-0.019,5.033l1.544,4.367l2.668,2.217l0.041-11.602
		l0.964,0.002l-0.043,12.047L472.318,639.088z"/>
	<path d="M461.131,639.051l0.043-12.047l0.964,0.004l-0.011,2.941l1.874,4.217l1.904-4.178l0.011-2.967l0.964,0.004l-0.043,12.047
		l-0.951-0.004l-1.887-4.256l-1.904,4.242L461.131,639.051z M462.125,630.559l-0.028,7.861l1.738-3.949L462.125,630.559z
		 M465.903,630.609l-1.738,3.861l1.723,3.963L465.903,630.609z"/>
	<path d="M449.257,639.014l-0.964-0.004l0.043-12.045l0.951,0.004l1.869,5.725l1.922-5.711l0.951,0.002l-0.03,12.047l-0.964-0.004
		l-1.869-5.688L449.257,639.014z M449.259,638.355l1.795-5.357l-1.769-5.383L449.259,638.355z M451.269,633.037l1.769,5.395
		l0.039-10.766L451.269,633.037z"/>
	<path d="M442.781,626.949l2.153,4.197L447.22,627h0.316l-2.488,4.477l1.712,3.382l-2.425,4.349l-1.851-3.635l1.939-3.532
		l-2.594-5.094L442.781,626.949z M446.149,635.406l-1.574-3.088l-1.48,2.67l1.573,3.125L446.149,635.406z"/>
	<path d="M441.045,626.945l-0.043,12.047l-0.951-0.004l-4.747-2.389l0.002-0.367l4.746,2.4l0.042-11.691L441.045,626.945z"/>
	<path d="M429.798,626.908l2.153,4.18l2.285-4.164l0.316,0.002l-2.488,4.492l1.712,3.393l-2.425,4.354l-1.851-3.635L431.44,632
		l-2.594-5.096L429.798,626.908z M433.166,635.365l-1.574-3.086l-1.48,2.67l1.573,3.125L433.166,635.365z"/>
	<path d="M427.999,638.951l-0.951-0.004l-4.746-2.553l3.929-2.789l-3.856-6.723l0.368,0.002l3.919,6.824l-3.726,2.662l4.101,2.246
		l0.042-11.717l0.951,0.004L427.999,638.951z"/>
	<path d="M414.216,638.908l0.024-6.785l-4.764,2.33l0.027-7.609l0.951,0.004l-0.012,6.771l4.751-2.303l-0.015,7.596L414.216,638.908
		z"/>
	<path d="M405.369,638.879l0.043-12.047l0.951,0.004l-0.043,12.047L405.369,638.879z"/>
	<path d="M402.191,635.066l-0.003,0.633l-2.864,3.16l-2.843-2.863l0.003-0.633l2.375,2.393l0.039-10.943l0.951,0.004l-0.039,10.879
		L402.191,635.066z"/>
	<path d="M389.382,626.785l-0.043,12.047l-0.951-0.004l-4.747-2.389l0.002-0.367l4.746,2.4l0.184-2.941L384,633.154v-0.367
		l4.573,2.389l-0.056-8.395L389.382,626.785z"/>
	<path d="M377.149,638.789l0.043-12.045l0.964,0.004l-0.011,2.941l1.874,4.217l1.904-4.178l0.011-2.967l0.964,0.002l-0.043,12.047
		l-0.951-0.004l-1.887-4.254l-1.904,4.24L377.149,638.789z M378.144,630.299l-0.028,7.861l1.738-3.951L378.144,630.299z
		 M381.922,630.35l-1.738,3.861l1.723,3.963L381.922,630.35z"/>
	<path d="M373.506,634.344l-1.918,4.43l-0.951-0.004l0.043-12.045l0.951,0.004l-0.041,11.438l1.918-4.457l1.873,4.42l0.041-11.387
		l0.964,0.002l-0.043,12.047l-0.964-0.004L373.506,634.344z"/>
	<path d="M369.855,634.967l-0.003,0.633l-2.864,3.16l-2.843-2.863l0.003-0.633l2.375,2.393l0.039-10.943l0.951,0.004l-0.039,10.879
		L369.855,634.967z"/>
	<path d="M345.301,626.646l3.976,5.074l0.019-5.061l0.951,0.004l-0.044,12.045l-0.951-0.002l0.023-6.492l-4.367-5.57
		L345.301,626.646z"/>
	<path d="M339.305,626.627l2.153,4.18l2.285-4.164l0.316,0.002l-2.488,4.492l1.712,3.393l-2.425,4.354l-1.851-3.635l1.939-3.529
		l-2.594-5.096L339.305,626.627z M342.673,635.084l-1.574-3.086l-1.48,2.67l1.573,3.125L342.673,635.084z"/>
	<path d="M334.979,638.674l-0.951-0.004l0.019-5.033l-1.899-0.959l0.002-0.355l1.898,0.959l0.023-6.656l0.951,0.002l0.015,7.127
		l1.964,0.971v0.342l-1.964-0.957L334.979,638.674z"/>
	<path d="M330.094,638.646l0.024-6.783l-4.764,2.328l0.027-7.607l0.951,0.004l-0.012,6.771l4.751-2.305l-0.015,7.596
		L330.094,638.646z"/>
	<path d="M321.709,634.182l-1.918,4.43l-0.951-0.004l0.043-12.045l0.951,0.004l-0.041,11.438l1.918-4.457l1.873,4.42l0.041-11.387
		l0.964,0.002l-0.043,12.047l-0.964-0.004L321.709,634.182z"/>
	<path d="M312.836,626.545l3.976,5.074l0.019-5.061l0.951,0.004l-0.044,12.045l-0.951-0.002l0.023-6.492l-4.367-5.57
		L312.836,626.545z"/>
	<path d="M311.569,634.785l-0.003,0.633l-2.864,3.16l-2.843-2.863l0.003-0.633l2.375,2.393l0.039-10.943l0.951,0.004l-0.039,10.879
		L311.569,634.785z"/>
	<path d="M302.209,634.121l-1.918,4.432l-0.951-0.004l0.043-12.047l0.951,0.004l-0.041,11.438l1.918-4.457l1.873,4.42l0.041-11.387
		l0.964,0.004l-0.043,12.047l-0.964-0.004L302.209,634.121z"/>
	<path d="M298.586,634.744l-0.003,0.635l-2.864,3.16l-2.843-2.863l0.003-0.635l2.375,2.393l0.039-10.943l0.951,0.004l-0.039,10.879
		L298.586,634.744z"/>
	<path d="M291.051,638.525l-2.945-2.432l-1.595-4.52l0.019-5.111l0.381,0.002l-0.019,5.033l1.544,4.367l2.668,2.217l0.041-11.602
		l0.964,0.002l-0.043,12.047L291.051,638.525z"/>
	<path d="M285.562,638.51l-0.951-0.004l-4.746-2.553l3.929-2.789l-3.856-6.723l0.368,0.002l3.919,6.824l-3.726,2.662l4.101,2.246
		l0.042-11.717l0.951,0.004L285.562,638.51z"/>
</g>
<g>
	<path d="M163.434,297.371l-7.757-10.395l0.821-0.612l5.629-1.017l0.237,0.317l-5.638,1.005l7.528,10.088L163.434,297.371z"/>
	<path d="M173.146,290.119l-4.557-2.203l0.728,5.061l-0.273,0.205l-0.765-5.477l-3.668-1.811l-0.73-5.316l3.944,1.93l0.614,4.293
		l5.529,2.707L173.146,290.119z M164.776,285.021l3.352,1.638l-0.454-3.255l-3.376-1.671L164.776,285.021z"/>
	<path d="M166.882,278.607l0.821-0.611l5.735-0.874l-1.576,4.941l7.667,3.289l-0.318,0.236l-7.787-3.337l1.483-4.7l-4.982,0.72
		l7.545,10.11l-0.821,0.612L166.882,278.607z"/>
	<path d="M177.812,276.412l-1.217-5.054l0.821-0.612l7.757,10.394l-0.821,0.612l-7.364-9.869l1.232,5.076l-4.472-2.591l7.333,9.825
		l-0.832,0.621l-7.757-10.395l0.832-0.621L177.812,276.412z"/>
	<path d="M183.029,266.553l7.757,10.395l-0.833,0.621l-1.894-2.538l-4.341-2.416l1.064,4.827l1.911,2.561l-0.832,0.62l-7.757-10.394
		l0.821-0.612l4.376,2.44l-1.105-4.883L183.029,266.553z M184.382,276.905l-1.001-4.447l-4.047-2.296L184.382,276.905z
		 M187.668,274.505l-5.063-6.784l1.06,4.524L187.668,274.505z"/>
	<path d="M192.047,259.816l7.757,10.396l-0.821,0.612l-7.757-10.395L192.047,259.816z"/>
	<path d="M194.79,257.768l6.145-0.326l-2.041-2.734l0.821-0.613l2.654,3.557l-6.145,0.326l6.532,8.754l2.062-5.798l2.654,3.556
		l-0.821,0.612l-2.041-2.735l-2.062,5.797L194.79,257.768z"/>
	<path d="M201.212,252.973l4.368,5.854l2.592-5.087l4.9,6.565l-0.822,0.612l-4.371-5.835l-2.598,5.057l-4.902-6.547L201.212,252.973
		z"/>
	<path d="M206.861,248.754l4.109,0.188l4.296,2.859l3.291,4.409l-0.328,0.245l-3.241-4.344l-4.155-2.761l-3.729-0.181l7.471,10.012
		l-0.832,0.621l-7.757-10.395L206.861,248.754z"/>
	<path d="M216.52,241.543l7.757,10.395l-0.833,0.621l-1.894-2.538l-4.341-2.417l1.065,4.826l1.911,2.563l-0.832,0.619l-7.758-10.395
		l0.822-0.611l4.376,2.439l-1.105-4.882L216.52,241.543z M217.873,251.895l-1.002-4.447l-4.047-2.295L217.873,251.895z
		 M221.159,249.494l-5.063-6.783l1.059,4.523L221.159,249.494z"/>
	<path d="M226.757,233.897l0.832-0.62l7.758,10.395l-0.822,0.613l-5.312-3.719l2.042,6.16l-0.821,0.611l-7.768-10.387l0.832-0.619
		l5.288,3.684L226.757,233.897z M228.893,240.344l-5.013-3.498l6.932,9.289L228.893,240.344z M227.181,234.467l1.922,5.771
		l5.006,3.488L227.181,234.467z"/>
	<path d="M240.137,240.094l-4.557-2.203l0.728,5.062l-0.273,0.204l-0.765-5.477l-3.668-1.811l-0.73-5.315l3.943,1.929l0.615,4.293
		l5.529,2.707L240.137,240.094z M231.767,234.995l3.352,1.638l-0.454-3.255l-3.376-1.671L231.767,234.995z"/>
	<path d="M241.629,238.978l-7.757-10.394l0.821-0.612l5.629-1.017l0.237,0.316l-5.638,1.006l7.528,10.088L241.629,238.978z"/>
	<path d="M251.345,231.725l-4.557-2.205l0.728,5.063l-0.273,0.203l-0.765-5.476l-3.668-1.812l-0.73-5.314l3.944,1.929l0.614,4.294
		l5.529,2.705L251.345,231.725z M242.975,226.625l3.352,1.639l-0.454-3.256l-3.376-1.671L242.975,226.625z"/>
	<path d="M245.083,220.211l0.821-0.611l5.736-0.875l-1.576,4.941l7.668,3.289l-0.318,0.236l-7.788-3.336l1.483-4.7l-4.982,0.72
		l7.545,10.11l-0.821,0.612L245.083,220.211z"/>
	<path d="M256.989,211.321l4.368,5.854l2.593-5.087l4.899,6.565l-0.821,0.612l-4.371-5.834l-2.597,5.056l-4.902-6.546
		L256.989,211.321z"/>
	<path d="M264.646,205.604L272.402,216l-0.82,0.611l-7.757-10.394L264.646,205.604z"/>
	<path d="M269.832,206.842l-0.408-0.548l0.42-4.573l4.299,0.625l0.408,0.549l-3.592-0.523l7.046,9.443l-0.821,0.611l-7.005-9.387
		L269.832,206.842z"/>
	<path d="M286.22,205.679l-7.757-10.396l0.821-0.611l5.63-1.016l0.237,0.316l-5.638,1.006l1.894,2.537l5.622-1.025l0.237,0.316
		l-5.629,1.016l5.405,7.244L286.22,205.679z"/>
	<path d="M288.984,187.43l7.757,10.395l-0.833,0.621l-1.894-2.538l-4.341-2.417l1.064,4.827l1.911,2.562l-0.832,0.619l-7.757-10.394
		l0.821-0.612l4.376,2.44l-1.104-4.883L288.984,187.43z M290.338,197.781l-1.001-4.446l-4.047-2.296L290.338,197.781z
		 M293.624,195.381l-5.063-6.783l1.06,4.523L293.624,195.381z"/>
	<path d="M294.979,188.916l-1.216-5.053l0.821-0.613l7.757,10.395l-0.821,0.612l-7.364-9.869l1.232,5.075l-4.471-2.59l7.332,9.825
		l-0.832,0.62l-7.757-10.395l0.832-0.619L294.979,188.916z"/>
	<path d="M297.721,186.016l-0.408-0.547l0.42-4.572l4.299,0.625l0.408,0.547l-3.592-0.522l7.046,9.442l-0.821,0.612l-7.005-9.388
		L297.721,186.016z"/>
	<path d="M324.246,177.285l-6.705-1.795l3.258,4.366l-0.821,0.612l-7.757-10.395l0.821-0.611l4.181,5.602l7.361,1.967
		L324.246,177.285z"/>
	<path d="M329.41,173.428l-4.558-2.203l0.728,5.061l-0.273,0.205l-0.765-5.477l-3.668-1.812l-0.73-5.314l3.944,1.929l0.615,4.294
		l5.529,2.706L329.41,173.428z M321.04,168.329l3.352,1.639l-0.453-3.256l-3.376-1.671L321.04,168.329z"/>
	<path d="M325.342,160.262l0.821-0.613l3.242,4.344l2.253-0.404l0.229,0.307l-2.253,0.404l4.287,5.744l-0.821,0.613l-4.588-6.148
		l-2.284,0.408l-0.22-0.295l2.275-0.421L325.342,160.262z"/>
	<path d="M329.591,157.105l4.368,5.853l2.593-5.086l4.899,6.565l-0.821,0.611l-4.371-5.834l-2.598,5.057l-4.902-6.546
		L329.591,157.105z"/>
	<path d="M339.687,155.529l-1.216-5.055l0.821-0.612l7.757,10.396l-0.821,0.611L338.863,151l1.232,5.076l-4.472-2.59l7.333,9.824
		l-0.832,0.621l-7.757-10.395l0.832-0.62L339.687,155.529z"/>
	<path d="M352.267,156.361l-6.705-1.794l3.258,4.365l-0.82,0.612l-7.758-10.395l0.821-0.611l4.181,5.602l7.362,1.967
		L352.267,156.361z"/>
	<path d="M348.031,148.446l-0.409-0.547l0.42-4.573l4.299,0.625l0.408,0.548l-3.592-0.522l7.047,9.442l-0.82,0.612l-7.006-9.388
		L348.031,148.446z"/>
	<path d="M356.51,142.967l-1.216-5.054l0.821-0.612l7.756,10.395l-0.821,0.611l-7.364-9.868l1.232,5.075l-4.471-2.59l7.332,9.824
		l-0.832,0.621l-7.757-10.395l0.832-0.62L356.51,142.967z"/>
	<path d="M359.236,140.079l-0.408-0.546l0.42-4.574l4.299,0.625l0.408,0.547l-3.592-0.521l7.046,9.443l-0.82,0.612l-7.006-9.389
		L359.236,140.079z"/>
	<path d="M363.285,131.943l4.108,0.188l4.297,2.858l3.291,4.409l-0.329,0.245l-3.241-4.344l-4.154-2.759l-3.73-0.182l7.471,10.012
		l-0.832,0.62l-7.757-10.395L363.285,131.943z"/>
	<path d="M368,128.422l0.822-0.611l5.735-0.875l-1.576,4.941l7.667,3.29l-0.318,0.236l-7.787-3.337l1.482-4.701l-4.982,0.721
		l7.545,10.109l-0.821,0.612L368,128.422z"/>
</g>
<g>
	<path d="M279,451.44l-5-2.554V461h-1v-13h1v-0.302l5,2.54V451.44z"/>
	<path d="M285.292,461l-1.885-3.482L281.522,461h-1.188l2.472-4.759l-2.131-4.032l2.731-4.481l2.731,4.417l-2.13,4.107L286.48,461
		H285.292z M283.407,454.964l1.53-2.841l-1.53-2.567l-1.529,2.567L283.407,454.964z"/>
	<path d="M288.407,448l4.725,4.623l-3.073,1.457l3.414,6.92h-1.024l-3.756-7.341l2.549-1.45L288,449.064V461h-1v-13h0.97h0.396
		H288.407z"/>
	<path d="M295,461h-0.666l-0.014-13H295v-0.11l1.952,4.466l2.048-4.479V448h1.48l-0.014,13h-1.024l-0.014-11.068l-2.215,4.326
		L295,449.761V461z"/>
	<path d="M307,448v13l0,0v-3.934l-2.372-3.741l-2.367,3.912L302.147,461H301v-13h1.147l2.226,4.001l2.212-4.001H307z
		 M303.721,452.465L302,449.393v6.158L303.721,452.465z M307,455.537v-6.145l-1.707,3.072L307,455.537z"/>
	<path d="M319,448v13h-1v-13H319z"/>
	<path d="M322,447.685l5,3.415V448h1v5.147l-5-3.414v8.876l5-3.414V461h-1v-3.756l-5,3.414V447.685z"/>
	<path d="M330,454.145l0.087-0.014l5.158-2.343l0.023,9.212H334v-7.647l-5,2.671l0.108-8.023H330V454.145z"/>
	<path d="M337.646,448l2.758,2.314l1.597,4.799V461h-1v-5.723l-1.404-4.388l-2.278-1.89H337v12h-1v-13H337.646z"/>
	<path d="M349,448v13h-1v-3.934l-1.975-3.741l-2.168,3.912l0.085,3.763H343v-13h0.942l2.226,4.001L348.38,448H349z M345.721,452.465
		L344,449.393v6.158L345.721,452.465z M348,455.537v-6.145l-1.707,3.072L348,455.537z"/>
	<path d="M362.216,448H363v13h-0.784l-2.212-5.285L357.778,461h-0.833l-0.014-13h0.847l2.212,5.367l2.212-5.367H362.216z
		 M359.748,454.213L358,450.074v8.372L359.748,454.213z M362.216,458.433l-0.014-8.331l-1.721,4.125L362.216,458.433z"/>
	<path d="M368.882,461l-1.885-3.482L365.112,461h-1.188l2.472-4.759l-2.131-4.032l2.731-4.481l2.731,4.417l-2.13,4.107L370.07,461
		H368.882z M366.997,454.964l1.53-2.841l-1.53-2.567l-1.529,2.567L366.997,454.964z"/>
	<path d="M377,451.44l-5-2.554V461h-1v-13h1v-0.302l5,2.54V451.44z"/>
	<path d="M382.868,461l-1.885-3.482L379.099,461h-1.188l2.472-4.759l-2.131-4.032l2.731-4.481l2.731,4.417l-2.13,4.107l2.472,4.748
		H382.868z M380.983,454.964l1.53-2.841l-1.53-2.567l-1.529,2.567L380.983,454.964z"/>
	<path d="M385.983,448l4.725,4.623l-3.073,1.457l3.414,6.92h-1.024l-3.756-7.341l2.761-1.45l-3.03-3.145V461h-1v-13h0.546h0.396
		H385.983z"/>
	<path d="M400,454.145l-0.111-0.014l5.059-2.343L404.871,461H404v-7.647l-5.198,2.671l-0.09-8.023H400V454.145z"/>
	<path d="M409,448v13h-1v-13H409z"/>
	<path d="M419,452.123l-3-2.567V461h-1v-11.431l-2,2.554v-1.365l3-3.073l3,3.073V452.123z"/>
	<path d="M433,451.44l-5-2.554v2.335l4.929,2.554l0.083,1.079L428,452.301V461h-1v-13h1v-0.302l5,2.54V451.44z"/>
	<path d="M440,448v13h-1v-3.934l-2.266-3.741l-2.313,3.912L434.361,461H434v-13h0.361l2.226,4.001L438.8,448H440z M435.721,452.465
		L434,449.393v6.158L435.721,452.465z M439,455.537v-6.145l-1.707,3.072L439,455.537z"/>
	<path d="M442,461h-1.465l-0.014-13H442v-0.11l1.952,4.466l2.048-4.479V448h0.681l-0.014,13h-1.024l-0.014-11.068l-1.814,4.326
		L442,449.761V461z"/>
	<path d="M454,452.123l-3-2.567V461h-1v-11.431l-2,2.554v-1.365l3-3.073l3,3.073V452.123z"/>
	<path d="M473.096,461L470,456.111V461h-1v-13h1v6.677l4.407,6.323H473.096z"/>
	<path d="M480.28,461l-1.885-3.482L476.511,461h-1.188l2.472-4.759l-2.131-4.032l2.731-4.481l2.731,4.417l-2.131,4.107l2.473,4.748
		H480.28z M478.396,454.964l1.529-2.841l-1.529-2.567l-1.529,2.567L478.396,454.964z"/>
	<path d="M486,453.488V461h-1v-8.017l-2-1.038v-1.188l2,1.01V448h1v4.287l2,1.024v1.202L486,453.488z"/>
	<path d="M490,454.145l0.18-0.014l5.206-2.343l0.069,9.212H494v-7.647l-4.906,2.671l0.202-8.023H490V454.145z"/>
	<path d="M497,461h-0.684l-0.014-13H497v-0.11l1.952,4.466l2.048-4.479V448h1.462l-0.014,13h-1.024l-0.014-11.068l-2.205,4.326
		L497,449.761V461z"/>
	<path d="M508.062,461L505,456.111V461h-1v-13h1v6.677l4.373,6.323H508.062z"/>
	<path d="M516,452.123l-2-2.567V461h-1v-11.431l-3,2.554v-1.365l3-3.073l3,3.073V452.123z"/>
	<path d="M518,461h-0.704l-0.014-13H518v-0.11l1.952,4.466l2.048-4.479V448h1.441l-0.014,13h-1.024l-0.014-11.068l-2.194,4.326
		L518,449.761V461z"/>
	<path d="M530,452.123l-2-2.567V461h-1v-11.431l-3,2.554v-1.365l3-3.073l3,3.073V452.123z"/>
	<path d="M532.798,448l3.183,2.314l2.02,4.799V461h-1v-5.723l-1.828-4.388L532.47,449H532v12h-1v-13H532.798z"/>
	<path d="M539.34,448l4.726,4.623l-3.073,1.457l3.415,6.92h-1.024l-3.756-7.341l2.582-1.45L539,449.064V461h-1v-13h0.903h0.396
		H539.34z"/>
	<path d="M279,475.94l-5-2.554v2.335l5.331,2.554l-0.119,1.079L274,476.801V485h-1v-13h1v0.198l5,2.54V475.94z"/>
	<path d="M285.62,472H286v13h-0.38l-2.212-5.285L281.181,485h-0.833l-0.014-13h0.847l2.212,5.367l2.212-5.367H285.62z
		 M282.748,478.713L281,474.574v8.372L282.748,478.713z M285.62,482.933l-0.014-8.331l-1.721,4.125L285.62,482.933z"/>
	<path d="M291,472v13h-1v-13H291z"/>
	<path d="M294,472.185l5,3.415V472h1v5.647l-5-3.414v8.876l5-3.414V485h-1v-3.256l-5,3.414V472.185z"/>
	<path d="M305,472v13h-1v-13H305z"/>
	<path d="M309,478.645l0.18-0.014l5.204-2.593l0.069,8.962H313v-7.147l-4.907,2.421l0.201-8.273H309V478.645z"/>
	<path d="M319,472v13h-1v-13H319z"/>
	<path d="M327.06,485l-3.06-4.389V485h-1v-13h1v7.177l4.371,5.823H327.06z"/>
	<path d="M333,472v13h-1v-13H333z"/>
	<path d="M340,477.988V485h-1v-7.517l-2-1.038v-1.188l2,1.01V472h1v4.787l2,1.024v1.202L340,477.988z"/>
	<path d="M343.273,485l1.448-3.567l-1.106-2.8l1.011-3.282l-1.27-3.351h0.942l2.048,5.19l2.049-5.19h0.969l-1.42,3.752l1.038,2.724
		l-0.97,3.002l1.407,3.522h-1.024l-2.049-5.258L344.297,485H343.273z M345.212,480.27l0.642-1.652l-0.655-1.707l-0.56,1.762
		L345.212,480.27z M346.851,478.645l0.71,1.803l0.56-1.775l-0.655-1.611L346.851,478.645z"/>
	<path d="M358,485h-0.891l-0.014-13H358v0.39l1.952,4.466l2.048-4.479V472h1.254l-0.014,13h-1.024l-0.014-10.818l-2.102,4.451
		L358,474.261V485z"/>
	<path d="M370,475.94l-5-2.554V485h-1v-13h1v0.198l5,2.54V475.94z"/>
	<path d="M375,472v13h-1v-13H375z"/>
	<path d="M384,476.623l-2-2.567V485h-1v-10.931l-3,2.554v-1.365l3-3.073l3,3.073V476.623z"/>
	<path d="M400,478.645l-0.029-0.014l5.101-2.593L405.036,485H404v-7.147l-5.116,2.421L398.876,472H400V478.645z"/>
	<path d="M407,485h-1.103l-0.014-13H407v0.39l1.952,4.466l2.048-4.479V472h1.043l-0.014,13h-1.024l-0.014-10.818l-1.995,4.451
		L407,474.261V485z"/>
	<path d="M418.162,472H419v13h-0.838l-2.213-5.285L413.724,485h-0.833l-0.014-13h0.847l2.212,5.367l2.213-5.367H418.162z
		 M415.748,478.713L414,474.574v8.372L415.748,478.713z M418.162,482.933l-0.014-8.331l-1.721,4.125L418.162,482.933z"/>
	<path d="M431.984,472H433v13h-1.016l-2.213-5.285L427.546,485h-0.833l-0.014-13h0.847l2.212,5.367l2.213-5.367H431.984z
		 M429.748,478.713L428,474.574v8.372L429.748,478.713z M431.984,482.933l-0.014-8.331l-1.721,4.125L431.984,482.933z"/>
	<path d="M438.649,485l-1.885-3.482L434.88,485h-1.188l2.472-4.509l-2.131-3.907l2.731-4.419l2.731,4.448l-2.131,3.873l2.473,4.514
		H438.649z M436.765,479.464l1.529-2.841l-1.529-2.567l-1.529,2.567L436.765,479.464z"/>
	<path d="M449,485h-1.472l-0.014-13H449v0.39l1.952,4.466l2.048-4.479V472h0.674l-0.014,13h-1.024l-0.014-10.818l-1.812,4.451
		L449,474.261V485z"/>
	<path d="M458,472v13h-1v-13H458z"/>
	<path d="M463.03,472l3.065,2.564l1.904,5.049V485h-1v-5.223l-1.712-4.638l-2.586-2.14H463v12h-2v-13H463.03z"/>
	<path d="M470,478.645l-0.228-0.014l5.001-2.593L474.64,485H474v-7.147l-5.313,2.421L468.48,472H470V478.645z"/>
	<path d="M482,472v13h-1v-3.434l-2.285-3.741l-2.324,3.662L476.32,485H475v-13h1.32l2.226,4.001l2.213-4.001H482z M477.721,476.965
		L476,473.893v6.158L477.721,476.965z M481,480.037v-6.145l-1.707,3.072L481,480.037z"/>
	<path d="M487.438,485l-1.885-3.482L483.668,485h-1.188l2.472-4.509l-2.131-3.907l2.731-4.419l2.731,4.448l-2.131,3.873l2.473,4.514
		H487.438z M485.553,479.464l1.529-2.841l-1.529-2.567l-1.529,2.567L485.553,479.464z"/>
	<path d="M494.759,472H496v13h-1.241l-2.213-5.285L490.32,485h-0.833l-0.014-13h0.847l2.212,5.367l2.213-5.367H494.759z
		 M491.748,478.713L490,474.574v8.372L491.748,478.713z M494.759,482.933l-0.014-8.331l-1.721,4.125L494.759,482.933z"/>
	<path d="M279,501.123l-2-2.567V510h-1v-11.431l-3,2.554v-1.365l3-3.073l3,3.073V501.123z"/>
	<path d="M281,510h-0.652l-0.014-13H281v-0.11l1.952,4.466l2.048-4.479V497h1.494l-0.014,13h-1.024l-0.014-11.068l-2.222,4.326
		L281,498.761V510z"/>
	<path d="M293,497v13l0,0v-3.934l-2.365-3.741l-2.364,3.912l-0.11,3.763H287v-13h1.161l2.226,4.001l2.212-4.001H293z
		 M289.721,501.465L288,498.393v6.158L289.721,501.465z M293,504.537v-6.145l-1.707,3.072L293,504.537z"/>
	<path d="M294,496.685l5,3.415V497h1v5.147l-5-3.414v8.876l5-3.414V510h-1v-3.756l-5,3.414V496.685z"/>
	<path d="M306.271,510l-1.885-3.482L302.502,510h-1.188l2.472-4.759l-2.131-4.032l2.731-4.481l2.731,4.417l-2.13,4.107l2.472,4.748
		H306.271z M304.387,503.964l1.53-2.841l-1.53-2.567l-1.529,2.567L304.387,503.964z"/>
	<path d="M309.386,497l4.725,4.623l-3.073,1.457l3.414,6.92h-1.024l-3.756-7.341l2.559-1.45L309,498.064V510h-1v-13h0.949h0.396
		H309.386z"/>
	<path d="M326,497v13h-1v-13H326z"/>
	<path d="M333,502.488V510h-1v-8.017l-2-1.038v-1.188l2,1.01V497h1v4.287l2,1.024v1.202L333,502.488z"/>
	<path d="M340.882,510L337,505.111V510h-1v-13h1v6.677l5.193,6.323H340.882z"/>
	<path d="M347,497v13h-1v-13H347z"/>
	<path d="M355.387,497H356v13h-0.613l-2.212-5.285L350.949,510h-0.833l-0.014-13h0.847l2.212,5.367l2.212-5.367H355.387z
		 M352.748,503.213L351,499.074v8.372L352.748,503.213z M355.387,507.433l-0.014-8.331l-1.721,4.125L355.387,507.433z"/>
	<path d="M361,497v13h-1v-13H361z"/>
	<path d="M369.374,497H370v13h-0.626l-2.212-5.285L364.935,510h-0.833l-0.014-13h0.847l2.212,5.367L369.36,497H369.374z
		 M366.748,503.213L365,499.074v8.372L366.748,503.213z M369.374,507.433l-0.014-8.331l-1.721,4.125L369.374,507.433z"/>
	<path d="M372.611,497l2.774,2.314l1.614,4.799V510h-1v-5.723l-1.421-4.388l-2.296-1.89H372v12h-1v-13H372.611z"/>
	<path d="M382,502.488V510h-1v-8.017l-2-1.038v-1.188l2,1.01V497h1v4.287l2,1.024v1.202L382,502.488z"/>
	<path d="M391,501.123l-2-2.567V510h-1v-11.431l-3,2.554v-1.365l3-3.073l3,3.073V501.123z"/>
	<path d="M400.42,497l2.87,2.314l1.71,4.799V510h-1v-5.723l-1.517-4.388l-2.392-1.89H400v12h-1v-13H400.42z"/>
	<path d="M412,501.123l-3-2.567V510h-1v-11.431l-2,2.554v-1.365l3-3.073l3,3.073V501.123z"/>
	<path d="M426,500.44l-5-2.554V510h-1v-13h1v-0.302l5,2.54V500.44z"/>
	<path d="M433,500.44l-5-2.554v2.335l5.011,2.554l0.042,1.079L428,501.301V510h-1v-13h1v-0.302l5,2.54V500.44z"/>
	<path d="M440,499.238v1.202l-3.968,2.636l3.968,1.967v1.064L434.716,510H434v-13h0.716L440,499.238z M435,497.709v4.793
		l0.117,0.123l4.087-2.785L435,497.709z M435.131,503.677L435,503.854v4.78l4.19-2.964L435.131,503.677z"/>
	<path d="M445.643,510l-1.885-3.482L441.873,510h-1.188l2.472-4.759l-2.131-4.032l2.731-4.481l2.731,4.417l-2.131,4.107l2.473,4.748
		H445.643z M443.758,503.964l1.529-2.841l-1.529-2.567l-1.529,2.567L443.758,503.964z"/>
	<path d="M448.757,497l4.726,4.623l-3.073,1.457l3.415,6.92H452.8l-3.756-7.341l2.874-1.45L449,498.064V510h-1v-13h0.32h0.396
		H448.757z"/>
	<path d="M456,510h-1.314l-0.014-13H456v-0.11l1.952,4.466l2.048-4.479V497h0.831l-0.014,13h-1.024l-0.014-11.068l-1.89,4.326
		l-1.89-4.497V510z"/>
	<path d="M470,510h-1.492l-0.014-13H470v-0.11l1.952,4.466l2.048-4.479V497h0.653l-0.014,13h-1.024l-0.014-11.068l-1.801,4.326
		L470,498.761V510z"/>
	<path d="M482,501.123l-3-2.567V510h-1v-11.431l-3,2.554v-1.365l3.5-3.073l3.5,3.073V501.123z"/>
	<path d="M495,497v13l0,0v-3.934l-2.375-3.741l-2.367,3.912L490.143,510H489v-13h1.143l2.226,4.001l2.213-4.001H495z
		 M491.721,501.465L490,498.393v6.158L491.721,501.465z M495,504.537v-6.145l-1.707,3.072L495,504.537z"/>
	<path d="M500,497v13h-1v-13H500z"/>
	<path d="M507,502.488V510h-1v-8.017l-2-1.038v-1.188l2,1.01V497h1v4.287l2,1.024v1.202L507,502.488z"/>
	<path d="M514,497v13h-1v-13H514z"/>
	<path d="M523,497v13l0,0v-3.934l-2.389-3.741l-2.374,3.912L518.115,510H517v-13h1.115l2.226,4.001l2.213-4.001H523z
		 M519.721,501.465L518,498.393v6.158L519.721,501.465z M523,504.537v-6.145l-1.707,3.072L523,504.537z"/>
</g>
<g>
	<path d="M359.862,521H362v29h-2.138l-5.058-12.082L349.716,550h-1.905l-0.031-29h1.936l5.057,12.27l5.058-12.27H359.862z
		 M353.996,535.484l-3.996-9.46v19.138L353.996,535.484z M359.862,545.131l-0.031-19.044l-3.934,9.429L359.862,545.131z"/>
	<path d="M375.098,550l-4.309-7.961L366.481,550h-2.716l5.651-10.379l-4.87-8.969l6.244-10.119l6.244,10.16l-4.87,8.92l5.65,10.387
		H375.098z M370.789,537.201l3.497-6.494l-3.497-5.869l-3.497,5.869L370.789,537.201z"/>
	<path d="M394,529.146l-12-5.838V550h-2v-29h2v-0.408l12,5.807V529.146z"/>
	<path d="M407.066,550l-4.309-7.961L398.45,550h-2.716l5.651-10.379l-4.871-8.969l6.244-10.119l6.244,10.16l-4.87,8.92l5.65,10.387
		H407.066z M402.758,537.201l3.497-6.494l-3.497-5.869l-3.497,5.869L402.758,537.201z"/>
	<path d="M414.185,521l10.802,10.708l-7.024,2.901L425.767,550h-2.341l-8.586-16.281l6.199-3.066L414,523.715V550h-2v-29h1.186
		h0.905H414.185z"/>
	<path d="M430,550h-2.267l-0.031-29H430v0.029l4.391,10.209l4.609-10.24V521h2.782l-0.031,29h-2.341l-0.031-24.803l-4.689,10.139
		L430,525.307V550z"/>
</g>
<g>
	<path d="M282,561v13l0,0v-3.934l-2.358-3.741l-2.36,3.912L277.174,574H276v-13h1.174l2.226,4.001l2.212-4.001H282z
		 M278.721,565.465L277,562.393v6.158L278.721,565.465z M282,568.537v-6.145l-1.707,3.072L282,568.537z"/>
	<path d="M289,564.44l-5-2.554v2.335l5.328,2.554l-0.117,1.079L284,565.301V574h-1v-13h1v-0.302l5,2.54V564.44z"/>
	<path d="M290.328,574l1.448-3.816l-1.106-2.926l1.011-3.095L290.41,561h0.942l2.048,5.19l2.049-5.19h0.969l-1.42,3.502l1.038,2.599
		l-0.97,3.189l1.407,3.71h-1.024l-2.049-5.258L291.352,574H290.328z M292.267,568.77l0.642-1.652l-0.655-1.707l-0.56,1.762
		L292.267,568.77z M293.906,567.145l0.71,1.803l0.56-1.775l-0.655-1.611L293.906,567.145z"/>
	<path d="M301,566.488V574h-1v-8.017l-2-1.038v-1.188l2,1.01V561h1v4.287l2,1.024v1.202L301,566.488z"/>
	<path d="M310,564.44l-5-2.554v2.335l5.317,2.554l-0.112,1.079L305,565.301V574h-1v-13h1v-0.302l5,2.54V564.44z"/>
	<path d="M324,564.44l-5-2.554v2.335l5.229,2.554l-0.067,1.079L319,565.301V574h-1v-13h1v-0.302l5,2.54V564.44z"/>
	<path d="M331,564.44l-5-2.554V574h-1v-13h1v-0.302l5,2.54V564.44z"/>
	<path d="M336,561v13h-1v-13H336z"/>
	<path d="M345,561v13h-1v-6.828l-5.003-2.941l5.186-3.23h0.055H345z M344,565.956v-3.919l-3.415,2.063L344,565.956z"/>
	<path d="M347.639,561l2.761,2.314l1.601,4.8V574h-1v-5.722l-1.407-4.389l-2.282-1.89H347v12h-1v-13H347.639z"/>
	<path d="M359,564.44l-5-2.554v2.335l5.212,2.554l-0.059,1.079L354,565.301V574h-1v-13h1v-0.302l5,2.54V564.44z"/>
	<path d="M375.447,561l2.856,2.314l1.696,4.8V574h-1v-5.722l-1.503-4.389l-2.377-1.89H375v12h-1v-13H375.447z"/>
	<path d="M387,565.123l-3-2.567V574h-1v-11.431l-2,2.554v-1.365l3-3.073l3,3.073V565.123z"/>
	<path d="M396,574h-1.253l-0.014-13H396v-0.11l1.952,4.466l2.048-4.479V561h0.893l-0.014,13h-1.024l-0.014-11.068l-1.92,4.326
		l-1.92-4.497V574z"/>
	<path d="M405,566.488V574h-1v-8.017l-2-1.038v-1.188l2,1.01V561h1v4.287l3,1.024v1.202L405,566.488z"/>
	<path d="M412,561v13h-1v-13H412z"/>
	<path d="M422,561v13h-1v-3.934l-2.173-3.741l-2.267,3.912L416.546,574H416v-13h0.546l2.226,4.001l2.213-4.001H422z
		 M418.721,565.465L417,562.393v6.158L418.721,565.465z M421,568.537v-6.145l-1.707,3.072L421,568.537z"/>
	<path d="M436,564.44l-5-2.554v2.335l4.929,2.554l0.083,1.079L431,565.301V574h-1v-13h1v-0.302l5,2.54V564.44z"/>
	<path d="M441.813,561H443v13h-1.187l-2.213-5.285L437.375,574h-0.833l-0.014-13h0.847l2.212,5.367L441.8,561H441.813z
		 M438.748,567.213L437,563.074v8.372L438.748,567.213z M441.813,571.433l-0.014-8.331l-1.721,4.125L441.813,571.433z"/>
	<path d="M456,561v13l0,0v-3.934l-2.354-3.741l-2.358,3.912L451.184,574H450v-13h1.184l2.226,4.001l2.213-4.001H456z
		 M452.721,565.465L451,562.393v6.158L452.721,565.465z M456,568.537v-6.145l-1.707,3.072L456,568.537z"/>
	<path d="M461,561v13h-1v-13H461z"/>
	<path d="M468,566.488V574h-1v-8.017l-2-1.038v-1.188l2,1.01V561h1v4.287l2,1.024v1.202L468,566.488z"/>
	<path d="M475,561v13h-1v-13H475z"/>
	<path d="M484,561v13l0,0v-3.934l-2.367-3.741l-2.365,3.912L479.156,574H478v-13h1.156l2.226,4.001l2.213-4.001H484z
		 M480.721,565.465L479,562.393v6.158L480.721,565.465z M484,568.537v-6.145l-1.707,3.072L484,568.537z"/>
	<path d="M492,561h1v6.172l5.234-2.731l-0.07,1.024L493,568.196v2.048l5-2.73v1.023l-5,2.731V574h-1V561z"/>
	<path d="M500,574h-0.848l-0.014-13H500v-0.11l1.952,4.466l2.048-4.479V561h1.298l-0.014,13h-1.024l-0.014-11.068l-2.123,4.326
		L500,562.761V574z"/>
	<path d="M510,566.488V574h-1v-8.017l-2-1.038v-1.188l2,1.01V561h1v4.287l2,1.024v1.202L510,566.488z"/>
	<path d="M517,561v13h-1v-13H517z"/>
	<path d="M526,564.44l-5-2.554v2.335l5.221,2.554l-0.063,1.079L521,565.301V574h-1v-13h1v-0.302l5,2.54V564.44z"/>
	<path d="M533,561v13h-1v-3.934l-1.974-3.741l-2.167,3.912l0.085,3.763H527v-13h0.944l2.226,4.001l2.213-4.001H533z
		 M529.721,565.465L528,562.393v6.158L529.721,565.465z M532,568.537v-6.145l-1.707,3.072L532,568.537z"/>
</g>
<path d="M554.522,618H244.128l-95.913-296.896l0.582-0.427l250.528-183.722l251.11,184.149l-0.223,0.687L554.522,618z M245.584,616
	h307.483l95.021-294.137L399.325,139.436L150.562,321.863L245.584,616z"/>
</svg>
