<?xml version="1.0" encoding="iso-8859-1"?>
<!-- Generator: Adobe Illustrator 15.0.0, SVG Export Plug-In . SVG Version: 6.00 Build 0)  -->
<!DOCTYPE svg PUBLIC "-//W3C//DTD SVG 1.1//EN" "http://www.w3.org/Graphics/SVG/1.1/DTD/svg11.dtd">
<svg version="1.1" id="&#x30EC;&#x30A4;&#x30E4;&#x30FC;_1"
	 xmlns="http://www.w3.org/2000/svg" xmlns:xlink="http://www.w3.org/1999/xlink" x="0px" y="0px" width="800px" height="800px"
	 viewBox="0 0 800 800" style="enable-background:new 0 0 800 800;" xml:space="preserve">
<g>
	<g>
		<path style="fill:#000000;" d="M406.003,244.738l3.875,0.449l-0.006,0.052l18.265,11.854l-0.526,4.547l-18.258-11.906
			l-5.156,44.541l-3.875-0.449L406.003,244.738 M405.125,243.63l-0.115,0.994l-5.681,49.087l-0.115,0.993l0.993,0.115l3.875,0.449
			l0.993,0.115l0.115-0.993l4.971-42.936l16.904,11.023l1.354,0.882l0.186-1.605l0.526-4.548l0.071-0.616l-0.521-0.338
			l-17.745-11.517l0.048-0.428l-0.99-0.115l-3.875-0.449L405.125,243.63L405.125,243.63z"/>
	</g>
	<g>
		<path style="fill:#000000;" d="M452.638,254.277l4.001,19.443l-12.764,11.354l2.875,19.642l-4.253-1.546l-2.213-14.918
			l-11.278,10.012l-4.253-1.546l14.82-13.208l-2.488-16.901L452.638,254.277 M443.164,280.332l9.172-8.177l-2.133-11.182l-8.817,7.2
			L443.164,280.332 M453.29,252.484l-1.273,1.009l-15.553,12.332l-0.452,0.358l0.084,0.571l2.41,16.368l-14.418,12.849l-1.25,1.114
			l1.573,0.572l4.253,1.546l0.561,0.204l0.445-0.396l9.896-8.786l1.941,13.09l0.088,0.59l0.56,0.204l4.253,1.546l1.574,0.572
			l-0.243-1.657l-2.797-19.108l12.361-10.996l0.431-0.383l-0.116-0.565l-4.001-19.443L453.29,252.484L453.29,252.484z
			 M442.457,268.589l7.078-5.779l1.712,8.976l-7.362,6.563L442.457,268.589L442.457,268.589z"/>
	</g>
	<g>
		<path style="fill:#000000;" d="M475.005,263.904l2.042,1.343l1.261,0.829l0.131,0.086l5.035,25.099l-12.637-2.084l-3.424,28.875
			l-3.26-2.144l3.052-30.676l11.55,1.37l-3.334-16.137l-24.262,36.898l-3.303-2.172L475.005,263.904 M474.719,262.519l-0.55,0.835
			l-27.148,41.288l-0.549,0.835l0.835,0.549l3.303,2.172l0.836,0.549l0.55-0.835l14.079-21.412l-2.916,29.309l-0.06,0.602
			l0.505,0.333l3.26,2.144l1.353,0.889l0.19-1.607l3.301-27.836l11.604,1.914l1.428,0.235l-0.284-1.419l-5.035-25.099l-0.082-0.41
			l-0.35-0.229l-0.131-0.086l-1.261-0.828l-2.041-1.343L474.719,262.519L474.719,262.519z M467.544,284.265l7.386-11.234
			l2.565,12.414L467.544,284.265L467.544,284.265z"/>
	</g>
	<g>
		<path style="fill:#000000;" d="M504.27,284.812l2.718,2.872l-0.567,0.536l-7.136,17.206l17.861-5.945l0.529-0.5l2.718,2.871
			l-35.929,33.923l-2.682-2.833l30.114-28.564l-17.53,5.917l6.877-17.176l-30.148,28.527l-2.682-2.834L504.27,284.812
			 M504.308,283.397l-0.727,0.689l-35.856,33.999L467,318.772l0.687,0.726l2.682,2.834l0.688,0.726l0.727-0.687l26.84-25.396
			l-5.185,12.947l-0.806,2.012l2.054-0.693l13.228-4.464l-26.819,25.439l-0.725,0.688l0.687,0.726l2.682,2.833l0.687,0.725
			l0.727-0.686l35.929-33.923l0.728-0.688l-0.688-0.727l-2.718-2.871l-0.688-0.726l-0.727,0.687l-0.368,0.348l-15.572,5.183
			l6.215-14.985l0.412-0.389l0.728-0.687l-0.688-0.728l-2.718-2.872L504.308,283.397L504.308,283.397z"/>
	</g>
	<g>
		<path style="fill:#000000;" d="M527.935,311.809l1.62,2.789l-8.915,14.988l17.41-0.374l1.646,2.833l-42.719,24.83l-1.621-2.788
			l11.827-6.874l8.165-14.312l-16.66-0.303l-11.853,6.83l-1.62-2.789L527.935,311.809 M523.935,317.864l-20.28,11.788l13.456-0.241
			L523.935,317.864 M532.455,332.523l-13.385,0.26l-6.852,11.502L532.455,332.523 M528.297,310.441l-0.865,0.502l-42.719,24.83
			l-0.864,0.502l0.503,0.865l1.62,2.789l0.5,0.861l0.863-0.497l11.612-6.691l14.697,0.268l-7.196,12.613l-11.595,6.739l-0.864,0.503
			l0.503,0.864l1.621,2.788l0.502,0.865l0.865-0.502l42.719-24.83l0.864-0.503l-0.503-0.864l-1.646-2.833l-0.296-0.51l-0.59,0.012
			l-15.607,0.335l7.993-13.438l0.301-0.505l-0.296-0.508l-1.62-2.789L528.297,310.441L528.297,310.441z M507.483,328.583
			l13.641-7.929l-4.59,7.767L507.483,328.583L507.483,328.583z M519.646,333.772l8.971-0.174l-13.563,7.883L519.646,333.772
			L519.646,333.772z"/>
	</g>
	<g>
		<path style="fill:#000000;" d="M554.417,387.439l0.257,3.892l-49.302,3.249l-0.257-3.892L554.417,387.439 M555.349,386.375
			l-0.997,0.065l-49.302,3.249l-0.998,0.066l0.065,0.998l0.257,3.892l0.066,0.998l0.997-0.065l49.302-3.249l0.998-0.066
			l-0.065-0.998l-0.257-3.892L555.349,386.375L555.349,386.375z"/>
	</g>
	<g>
		<path style="fill:#000000;" d="M506.032,405.558l48.744,8.1l-16.024,17.109l12.828,2.132l-0.641,3.849l-20.523-3.411
			l16.025-17.109l-33.352-5.542l9.63,21.372l-20.523-3.41l0.639-3.848l12.828,2.132L506.032,405.558 M504.353,404.265l0.768,1.704
			l8.863,19.669l-10.984-1.825l-0.986-0.164l-0.164,0.986l-0.639,3.848l-0.164,0.986l0.986,0.164l20.523,3.41l1.844,0.307
			l-0.768-1.704l-8.862-19.668l29.665,4.929l-14.748,15.746l-1.277,1.363l1.843,0.307l20.523,3.411l0.986,0.164l0.164-0.986
			l0.641-3.849l0.164-0.986l-0.986-0.164l-10.985-1.825l14.747-15.746l1.277-1.364l-1.843-0.306l-48.744-8.1L504.353,404.265
			L504.353,404.265z"/>
	</g>
	<g>
		<path style="fill:#000000;" d="M518.766,436.882l28.734,12.034l-1.533,3.644l-22.674-9.541l0.027,0.067l1.256,21.688
			l-31.713-13.401l1.513-3.595l25.646,10.792L518.766,436.882 M517.675,435.341l0.093,1.599l1.163,20.086l-24.167-10.17
			l-0.922-0.388l-0.388,0.922l-1.513,3.595l-0.387,0.92l0.919,0.389l31.713,13.401l1.48,0.626l-0.093-1.604l-1.166-20.144
			l21.171,8.909l0.922,0.388l0.388-0.922l1.533-3.644l0.389-0.923l-0.924-0.387l-28.734-12.035L517.675,435.341L517.675,435.341z"/>
	</g>
	<g>
		<path style="fill:#000000;" d="M492.328,452.46l39.9,29.151l-3.437,4.703l-14.2,3.478l-19.235-5.68l-17.052-12.459l1.995-2.73
			l16.548,12.091l17.836,5.301l12.114-3.002l0.368-0.504l-37.17-27.157L492.328,452.46 M492.11,451.063l-0.59,0.808l-2.332,3.191
			l-0.59,0.808l0.808,0.59l35.863,26.202l-10.563,2.617l-17.409-5.174l-16.408-11.989l-0.808-0.59l-0.59,0.808l-1.995,2.73
			l-0.59,0.808l0.808,0.59l17.052,12.459l0.14,0.103l0.167,0.049l19.235,5.68l0.259,0.076l0.263-0.063l14.2-3.478l0.354-0.087
			l0.216-0.295l3.437-4.703l0.59-0.808l-0.808-0.59l-39.9-29.151L492.11,451.063L492.11,451.063z"/>
	</g>
	<g>
		<path style="fill:#000000;" d="M477.795,472.26l32.157,37.511l-2.447,2.099l-16.354-6.052l3.521,17.053l-2.487,2.132
			l-32.157-37.509l2.447-2.099l8.903,10.384l15.552,5.437l-2.72-16.438l-8.863-10.419L477.795,472.26 M503.273,506.934
			l-15.267-17.808l2.675,13.188L503.273,506.934 M490.401,517.968l-2.681-13.114l-12.552-4.653L490.401,517.968 M477.903,470.85
			l-0.759,0.651l-2.448,2.099l-0.757,0.647l0.646,0.759l8.684,10.208l2.399,14.501l-13.706-4.792l-8.729-10.18l-0.65-0.759
			l-0.76,0.651l-2.447,2.099l-0.759,0.65l0.651,0.76l32.157,37.508l0.65,0.76l0.759-0.65l2.487-2.133l0.448-0.384l-0.119-0.577
			l-3.157-15.287l14.664,5.426l0.551,0.204l0.447-0.383l2.447-2.099l0.759-0.65l-0.651-0.759l-32.157-37.511L477.903,470.85
			L477.903,470.85z M491.551,501.568l-1.799-8.871l10.268,11.978L491.551,501.568L491.551,501.568z M488.648,514.387l-10.208-11.907
			l8.412,3.118L488.648,514.387L488.648,514.387z"/>
	</g>
	<g>
		<path style="fill:#000000;" d="M437.642,499.307l12.215,47.873l-3.125,0.794l-13.197-17.735l-3.134,21.884l-0.051,0.013
			l-3.175,0.807l-12.166-47.885l3.176-0.807l13.122,17.432l3.261-21.594L437.642,499.307 M444.541,539.14l-7.85-30.898
			l-2.481,17.265L444.541,539.14 M428.134,543.2l2.483-16.835l-10.345-13.899L428.134,543.2 M438.363,498.092l-0.968,0.246
			l-3.074,0.781l-0.644,0.163l-0.1,0.656l-2.904,19.239l-11.69-15.529l-0.4-0.531l-0.645,0.164l-3.176,0.807l-0.97,0.246
			l0.247,0.969l12.166,47.885l0.246,0.97l0.969-0.247l3.175-0.807l0.047-0.012l0.652-0.162l0.096-0.666l2.789-19.482l11.75,15.789
			l0.399,0.537l0.648-0.164l3.125-0.795l0.971-0.246l-0.248-0.97L438.61,499.06L438.363,498.092L438.363,498.092z M435.259,525.234
			l1.705-11.859l5.393,21.226L435.259,525.234L435.259,525.234z M427.87,538.135l-5.372-21.004l7.069,9.499L427.87,538.135
			L427.87,538.135z"/>
	</g>
	<g>
		<path style="fill:#000000;" d="M413.801,505.277l-9.124,17.628l8.36,14.896l-10.121,17.072l-10.68-16.729l7.864-15.163
			l-9.701-17.317l4.524-0.074l7.396,13.142l6.957-13.379L413.801,505.277 M402.799,547.748l5.663-9.873l-6.004-10.72l-5.646,10.913
			L402.799,547.748 M415.459,504.25l-1.675,0.027l-4.524,0.074l-0.596,0.01l-0.275,0.529l-6.104,11.739l-6.489-11.531l-0.292-0.52
			l-0.596,0.01l-4.524,0.074l-1.674,0.027l0.818,1.461l9.438,16.848l-7.616,14.685l-0.266,0.512l0.311,0.486l10.68,16.729
			l0.874,1.37l0.829-1.398l10.121-17.072l0.294-0.496l-0.282-0.503l-8.097-14.426l8.876-17.148L415.459,504.25L415.459,504.25z
			 M397.961,538.024l4.532-8.761l4.819,8.605l-4.546,7.926L397.961,538.024L397.961,538.024z"/>
	</g>
	<g>
		<path style="fill:#000000;" d="M385.404,504.806l3.812,0.829l-10.505,48.287l-3.812-0.83l0.011-0.051l-17.004-13.6l0.973-4.474
			l16.993,13.652L385.404,504.806 M384.639,503.616l-0.212,0.977l-9.188,42.235l-15.732-12.64l-1.26-1.013l-0.343,1.579
			l-0.973,4.474l-0.132,0.606l0.484,0.388l16.518,13.21l-0.093,0.423l0.98,0.214l3.812,0.83l0.978,0.212l0.212-0.977l10.505-48.287
			l0.213-0.978l-0.978-0.213l-3.812-0.829L384.639,503.616L384.639,503.616z"/>
	</g>
	<g>
		<path style="fill:#000000;" d="M344.104,490.209l4.079,1.959l0.727,15.063l12.212-8.847l4.079,1.96l-16.053,11.676l0.805,17.062
			l-16.695,10.732l-2.057-19.74l13.822-10.036L344.104,490.209 M336.342,533.391l9.484-6.291l-0.566-12.274l-9.936,7.229
			L336.342,533.391 M343.028,488.583l0.077,1.672l0.893,19.29l-13.385,9.719l-0.467,0.34l0.06,0.573l2.057,19.74l0.168,1.616
			l1.367-0.879l16.695-10.732l0.485-0.312l-0.027-0.576l-0.779-16.523l15.617-11.358l1.354-0.984l-1.509-0.726l-4.079-1.96
			l-0.537-0.258l-0.482,0.35l-10.716,7.763l-0.637-13.217l-0.029-0.596l-0.537-0.258l-4.079-1.959L343.028,488.583L343.028,488.583z
			 M336.372,522.529l7.975-5.803l0.455,9.853l-7.613,5.051L336.372,522.529L336.372,522.529z"/>
	</g>
	<g>
		<path style="fill:#000000;" d="M324.847,474.904l3.034,2.453l-6.046,30.229l-11.36-2.497l1.734,16.387l27.767-34.34l3.074,2.485
			l-31.07,38.425l-1.901-1.536l-1.173-0.949l-0.121-0.099l-2.548-25.472l12.371,3.313L324.847,474.904 M324.217,473.109l-0.347,1.58
			l-6.016,27.379l-11.36-3.043l-1.398-0.375l0.144,1.44l2.548,25.472l0.042,0.413l0.322,0.263l0.121,0.099l1.175,0.951l1.902,1.536
			l0.777,0.629l0.629-0.777l31.069-38.425l0.629-0.778l-0.777-0.628l-3.074-2.485l-0.778-0.629l-0.628,0.777l-16.113,19.928
			l5.777-28.882l0.119-0.594l-0.47-0.38l-3.034-2.453L324.217,473.109L324.217,473.109z M312.948,518.971l-1.334-12.606l9.788,2.151
			L312.948,518.971L312.948,518.971z"/>
	</g>
	<g>
		<path style="fill:#000000;" d="M299.406,433.856l1.636,3.542l-25.259,11.669l16.867,13.692l-28.258,13.112l-1.658-3.588
			l22.331-10.317l-0.069-0.025l-16.867-13.691L299.406,433.856 M299.895,432.53l-0.907,0.418l-31.276,14.394l-1.46,0.672
			l1.248,1.013l15.667,12.717l-20.851,9.633l-0.908,0.42l0.419,0.907l1.658,3.588l0.42,0.91l0.909-0.422l28.258-13.112l1.453-0.674
			l-1.243-1.01l-15.622-12.681l23.802-10.996l0.908-0.42l-0.419-0.907l-1.636-3.542L299.895,432.53L299.895,432.53z"/>
	</g>
	<g>
		<path style="fill:#000000;" d="M296.272,419.397l0.771,3.823l-48.429,9.775l-0.772-3.824L296.272,419.397 M297.054,418.22
			l-0.98,0.197l-48.43,9.774l-0.98,0.198l0.198,0.98l0.772,3.824l0.198,0.979l0.98-0.197l48.429-9.775l0.98-0.198l-0.198-0.98
			l-0.772-3.823L297.054,418.22L297.054,418.22z"/>
	</g>
	<g>
		<path style="fill:#000000;" d="M257.226,384.022l5.199,0.164l-10.083,9.465l42.266,1.335l-0.124,3.899l-42.214-1.333l9.415,10.028
			l-5.199-0.164L245.16,395.35L257.226,384.022 M256.844,383.009l-0.302,0.284l-12.066,11.328l-0.729,0.685l0.685,0.729
			l11.328,12.066l0.284,0.302l0.414,0.014l5.199,0.164l2.413,0.075l-1.652-1.76l-7.763-8.268l39.801,1.257l1,0.032l0.032-1
			l0.124-3.899l0.032-1l-1-0.032l-39.853-1.259l8.322-7.813l1.76-1.652l-2.413-0.076l-5.199-0.164L256.844,383.009L256.844,383.009z
			"/>
	</g>
	<g>
		<path style="fill:#000000;" d="M277.359,321.453l4.034,2.162l-17.786,12.596l7.839,4.202l17.835-12.688l3.572,2.033
			l-17.786,12.596l28.055,15.036l-1.843,3.438l-43.549-23.342l1.842-3.438l0.046,0.024L277.359,321.453 M277.285,320.278
			l-0.505,0.359l-17.239,12.264l-0.38-0.2l-0.469,0.875l-1.842,3.438l-0.472,0.881l0.881,0.472l43.549,23.342l0.882,0.473
			l0.472-0.882l1.843-3.438l0.472-0.881l-0.881-0.472l-26.63-14.273l16.467-11.662l1.282-0.908l-1.366-0.777l-3.572-2.033
			l-0.555-0.315l-0.52,0.37l-17.33,12.328l-5.868-3.145l16.467-11.663l1.319-0.934l-1.425-0.763l-4.034-2.162L277.285,320.278
			L277.285,320.278z"/>
	</g>
	<g>
		<path style="fill:#000000;" d="M291.422,288.928l37.023,32.729l-2.136,2.417l-10.25-9.061l-16.156-3.244l4.959,15.91l10.215,9.1
			l-2.136,2.416l-37.023-32.729l2.136-2.417l17.034,3.742l-5.837-16.408L291.422,288.928 M311.695,311.155l-17.538-15.504
			l4.462,12.624L311.695,311.155 M300.502,323.894l-4.467-12.696l-13.109-2.841L300.502,323.894 M291.335,287.517l-0.662,0.75
			l-2.17,2.455l-0.391,0.442l0.197,0.556l5.233,14.709l-15.273-3.355l-0.574-0.126l-0.39,0.441l-2.136,2.417l-0.662,0.749
			l0.749,0.662l37.023,32.729l0.749,0.663l0.662-0.75l2.136-2.416l0.66-0.746l-0.744-0.663l-10.008-8.916l-4.375-14.035
			l14.239,2.858l10.049,8.883l0.749,0.663l0.663-0.75l2.136-2.417l0.662-0.749l-0.75-0.662l-37.023-32.729L291.335,287.517
			L291.335,287.517z M299.377,307.417l-2.991-8.461l11.755,10.392L299.377,307.417L299.377,307.417z M298.282,320.596
			l-11.822-10.451l8.818,1.911L298.282,320.596L298.282,320.596z"/>
	</g>
	<g>
		<path style="fill:#000000;" d="M319.911,266.887l28.508,40.359l-3.184,2.254l-24.025-33.847l3.382,18.19l-16.033-9.234
			l23.983,33.876l-3.184,2.254l-28.594-40.299l3.227-2.284l0.451,0.637l16.026,9.495l-3.362-18.523l-0.421-0.594L319.911,266.887
			 M320.15,265.492l-0.817,0.579l-3.227,2.285l-0.816,0.578l0.579,0.816l0.292,0.413l2.932,16.149l-13.958-8.269l-0.327-0.463
			l-0.578-0.816l-0.816,0.578l-3.227,2.284l-0.817,0.579l0.58,0.816l28.594,40.299l0.578,0.815l0.815-0.577l3.184-2.254l0.816-0.578
			l-0.578-0.816l-21.351-30.159l12.085,6.96l1.878,1.082l-0.396-2.131l-2.552-13.726l21.396,30.143l0.578,0.814l0.815-0.577
			l3.184-2.254l0.815-0.577l-0.576-0.816l-28.508-40.359L320.15,265.492L320.15,265.492z"/>
	</g>
	<g>
		<path style="fill:#000000;" d="M341.804,256.412l15.229,6.478l1.945,4.823l-12.725-5.412l15.811,39.216l-3.617,1.459
			l-15.792-39.168l-5.384,12.657l-1.945-4.824L341.804,256.412 M341.275,255.101l-0.392,0.92l-6.477,15.229l-0.162,0.381
			l0.155,0.384l1.945,4.824l0.902,2.239l0.945-2.221l4.438-10.436l14.89,36.93l0.374,0.927l0.927-0.374l3.617-1.459l0.927-0.374
			l-0.374-0.927l-14.908-36.977l10.503,4.467l2.222,0.945l-0.903-2.239l-1.945-4.823l-0.155-0.384l-0.381-0.162l-15.229-6.478
			L341.275,255.101L341.275,255.101z"/>
	</g>
</g>
<circle style="fill:none;stroke:#000000;stroke-width:4;stroke-miterlimit:10;" cx="400" cy="400" r="390"/>
<circle style="fill:none;stroke:#000000;stroke-width:4;stroke-miterlimit:10;" cx="400" cy="400" r="382.453"/>
<circle style="fill:none;stroke:#000000;stroke-width:4;stroke-miterlimit:10;" cx="400" cy="400" r="354.133"/>
<g>
	<path style="fill:#000000;" d="M414.819,18.313l-0.507,19.454l-1.536-0.04l-7.579-4.03l0.016-0.594l7.578,4.05l0.492-18.88
		L414.819,18.313z"/>
	<path style="fill:#000000;" d="M396.379,18.109l3.615,6.685l3.557-6.802l0.513-0.009l-3.877,7.34l2.877,5.426l-3.778,7.113
		l-3.108-5.812l3.021-5.768l-4.356-8.148L396.379,18.109z M402.095,31.667l-2.644-4.938l-2.306,4.363l2.644,4.999L402.095,31.667z"
		/>
	<path style="fill:#000000;" d="M393.922,37.541l-1.536,0.044l-7.798-3.873l6.196-4.709l-6.581-10.65l0.594-0.018l6.688,10.812
		l-5.874,4.495l6.739,3.411l-0.55-18.921l1.536-0.045L393.922,37.541z"/>
	<path style="fill:#000000;" d="M378.693,30.961l-2.658,7.338l-1.535,0.088l-1.116-19.439l1.535-0.088l1.06,18.457l2.656-7.379
		l3.458,6.945l-1.055-18.375l1.555-0.089l1.116,19.439l-1.555,0.089L378.693,30.961z"/>
	<path style="fill:#000000;" d="M364.331,39.229l-1.652-19.396l1.552-0.132l0.403,4.736l3.62,6.519l2.468-6.997l-0.407-4.777
		l1.552-0.132l1.652,19.396l-1.531,0.13l-3.645-6.578l-2.459,7.099L364.331,39.229z M364.717,25.417l1.079,12.658l2.234-6.606
		L364.717,25.417z M370.807,24.96l-2.246,6.463l3.34,6.132L370.807,24.96z"/>
	<path style="fill:#000000;" d="M348.125,41.197l-2.726-19.265l1.521-0.215l2.725,19.265L348.125,41.197z"/>
	<path style="fill:#000000;" d="M343.33,41.899l-8.438-3.757l0.862,5.051l-1.515,0.258l-1.121-6.566l8.438,3.758l-2.759-16.162
		l-6.714,6.344l-1.121-6.566L332.478,24l0.862,5.051l6.714-6.344L343.33,41.899z"/>
	<path style="fill:#000000;" d="M331.757,43.923l-2.147-10.751l-6.794,5.223l-2.408-12.058l1.507-0.301l2.163,10.728l6.781-5.179
		l2.424,12.034L331.757,43.923z"/>
	<path style="fill:#000000;" d="M321.647,45.999l-5.528-2.749l-4.167-6.529l-1.845-8.049l0.599-0.137l1.817,7.93l4.032,6.308
		l5.011,2.51l-4.188-18.276l1.518-0.348l4.349,18.975L321.647,45.999z"/>
	<path style="fill:#000000;" d="M304.371,50.239l-4.885-18.845l1.508-0.391l1.193,4.602l4.663,5.819l1.258-7.312l-1.203-4.642
		l1.508-0.391l4.885,18.845l-1.488,0.386l-4.698-5.874l-1.233,7.411L304.371,50.239z M302.434,36.558l3.188,12.298l1.093-6.888
		L302.434,36.558z M308.36,35.084l-1.129,6.75l4.322,5.484L308.36,35.084z"/>
	<path style="fill:#000000;" d="M286.551,55.61l-1.483,0.475l-5.929-18.541l1.464-0.468l5.723,7.872l0.113-9.738l1.463-0.468
		l5.949,18.534l-1.483,0.474l-5.704-7.813L286.551,55.61z M286.227,54.596l0.092-9.129l-5.398-7.395L286.227,54.596z M286.67,45.419
		l5.404,7.415l-5.298-16.569L286.67,45.419z"/>
	<path style="fill:#000000;" d="M270.428,40.588l5.545,5.197l1.222-7.579l0.483-0.17l-1.354,8.19l4.446,4.236l-1.333,7.943
		l-4.788-4.529l1.04-6.428l-6.712-6.351L270.428,40.588z M280.142,51.64l-4.07-3.847l-0.807,4.869l4.091,3.905L280.142,51.64z"/>
	<path style="fill:#000000;" d="M267.527,41.626L274.5,59.79l-1.434,0.55l-8.542-0.823l-0.212-0.555l8.549,0.842l-6.767-17.628
		L267.527,41.626z"/>
	<path style="fill:#000000;" d="M250.386,48.464l5.829,4.871l0.789-7.632l0.473-0.197l-0.886,8.25l4.678,3.975l-0.878,8.002
		l-5.035-4.247l0.672-6.474l-7.058-5.956L250.386,48.464z M260.707,58.941l-4.28-3.608l-0.528,4.904l4.304,3.665L260.707,58.941z"/>
	<path style="fill:#000000;" d="M255.563,67.403l-1.4,0.632l-8.688-0.577l3.91-6.73l-10.171-7.303l0.542-0.244l10.332,7.41
		l-3.695,6.408l7.534,0.559L246.143,50.3l1.401-0.631L255.563,67.403z"/>
	<path style="fill:#000000;" d="M235.907,76.677l-5.053-9.723l-5.067,6.904l-5.667-10.904l1.363-0.708l5.062,9.695l5.068-6.858
		l5.676,10.876L235.907,76.677z"/>
	<path style="fill:#000000;" d="M223.538,83.295l-9.466-17.003l1.342-0.747l9.466,17.003L223.538,83.295z"/>
	<path style="fill:#000000;" d="M216.146,80.391l0.522,0.881l-1.352,6.758l-6.317-1.614l-0.522-0.881l5.278,1.348l-9.021-15.209
		l1.322-0.784l8.968,15.122L216.146,80.391z"/>
	<path style="fill:#000000;" d="M191.246,80.068l10.857,16.163l-1.276,0.857l-8.518,1.104l-0.331-0.494l8.528-1.087l-2.651-3.947
		l-8.506,1.121l-0.332-0.493l8.518-1.104l-7.566-11.263L191.246,80.068z"/>
	<path style="fill:#000000;" d="M186.13,107.278l-11.307-15.844l1.268-0.904l2.761,3.869l6.437,3.764l-1.443-7.277l-2.785-3.902
		l1.267-0.905l11.307,15.844l-1.251,0.893l-6.489-3.802l1.502,7.36L186.13,107.278z M179.424,95.2l7.379,10.34l-1.445-6.822
		L179.424,95.2z M184.43,91.703l1.362,6.706l5.998,3.573L184.43,91.703z"/>
	<path style="fill:#000000;" d="M177.315,104.929l1.875,7.574l-1.226,0.927l-11.742-15.525l1.226-0.927l11.148,14.741l-1.899-7.606
		l6.736,3.845l-11.099-14.675l1.242-0.939l11.742,15.525l-1.242,0.939L177.315,104.929z"/>
	<path style="fill:#000000;" d="M173.328,109.251l0.641,0.799l-0.394,6.882l-6.482-0.714l-0.641-0.799l5.416,0.597l-11.062-13.8
		l1.199-0.961l10.998,13.72L173.328,109.251z"/>
	<path style="fill:#000000;" d="M134.465,125.438l10.307,1.489l-5.625-5.93l1.114-1.057l13.395,14.119l-1.115,1.058l-7.219-7.609
		l-11.318-1.631L134.465,125.438z"/>
	<path style="fill:#000000;" d="M127.414,132.447l7.248,2.278l-2.185-7.356l0.361-0.363l2.331,7.965l5.842,1.889l2.243,7.733
		l-6.276-2.004l-1.85-6.241l-8.799-2.812L127.414,132.447z M140.955,138.192l-5.334-1.701l1.384,4.735l5.377,1.745L140.955,138.192z
		"/>
	<path style="fill:#000000;" d="M136.61,150.997l-1.054,1.118l-5.918-5.579l-3.226,1.182l-0.417-0.394l3.226-1.182l-7.827-7.378
		l1.054-1.118l8.378,7.898l3.269-1.198l0.402,0.379l-3.254,1.212L136.61,150.997z"/>
	<path style="fill:#000000;" d="M131.393,156.57l-8.18-7.29l-2.281,8.254l-9.174-8.176l1.022-1.146l8.178,7.261l2.298-8.211
		l9.172,8.146L131.393,156.57z"/>
	<path style="fill:#000000;" d="M117.165,161.986l3.505,6.97l-0.99,1.175l-14.888-12.539l0.99-1.175l14.135,11.905l-3.536-6.997
		l7.42,2.258l-14.072-11.853l1.003-1.191l14.887,12.539l-1.003,1.191L117.165,161.986z"/>
	<path style="fill:#000000;" d="M98.542,165.415l10.417,0.038l-6.398-5.09l0.957-1.203l15.235,12.119l-0.957,1.203l-8.211-6.531
		l-11.438-0.038L98.542,165.415z"/>
	<path style="fill:#000000;" d="M107.794,175.2l0.819,0.615l1.33,6.762l-6.455,0.92l-0.819-0.615l5.393-0.769L93.92,171.499
		l0.922-1.229l14.061,10.552L107.794,175.2z"/>
	<path style="fill:#000000;" d="M98.071,186.684l4.079,6.647l-0.887,1.254l-15.888-11.234l0.887-1.254l15.084,10.667l-4.113-6.671
		l7.582,1.624l-15.018-10.619l0.899-1.271l15.887,11.234l-0.898,1.271L98.071,186.684z"/>
	<path style="fill:#000000;" d="M95.59,191.997l0.853,0.568l1.711,6.676l-6.393,1.284l-0.853-0.568l5.342-1.073l-14.722-9.797
		l0.851-1.279l14.637,9.741L95.59,191.997z"/>
	<path style="fill:#000000;" d="M94.173,205.315l-5.852,1.968l-7.563-1.668l-6.998-4.384l0.327-0.521l6.894,4.319l7.312,1.607
		l5.317-1.771L77.72,194.91l0.827-1.32l16.496,10.335L94.173,205.315z"/>
	<path style="fill:#000000;" d="M89.639,212.579l-0.778,1.325l-7.425,4.551l-0.699-7.753l-12.522-0.082l0.301-0.513l12.715,0.077
		l0.688,7.367l6.472-3.899l-16.327-9.587l0.778-1.325L89.639,212.579z"/>
	<path style="fill:#000000;" d="M62.372,221.206l17.308,8.915l-0.704,1.367l-6.926,5.077l-0.528-0.272l6.944-5.068l-4.227-2.177
		l-6.908,5.086l-0.528-0.272l6.926-5.077l-12.061-6.212L62.372,221.206z"/>
	<path style="fill:#000000;" d="M71.693,246.131l-0.674,1.404l-17.554-8.422l0.665-1.386l9.654,1.245l-7.004-6.77l0.665-1.386
		l17.563,8.403l-0.674,1.405l-9.599-1.219L71.693,246.131z M70.732,245.67l-6.575-6.337l-9.084-1.154L70.732,245.67z
		 M64.364,239.046l9.103,1.162l-15.688-7.526L64.364,239.046z"/>
	<path style="fill:#000000;" d="M68.421,253.333l-17.786-7.915l0.625-1.404l17.787,7.915L68.421,253.333z"/>
	<path style="fill:#000000;" d="M66.465,257.751l-7.662,5.157l4.738,1.95l-0.585,1.421l-6.159-2.534l7.662-5.158l-15.161-6.238
		l1.814,9.056l-6.159-2.534l0.585-1.421l4.738,1.949l-1.814-9.056L66.465,257.751z"/>
	<path style="fill:#000000;" d="M60.686,272.223l-18.207-6.9l0.545-1.438l18.207,6.9L60.686,272.223z"/>
	<path style="fill:#000000;" d="M58.481,278.195l-10.359-3.592l1.064,8.503l-11.618-4.028l0.503-1.452l10.347,3.566l-1.033-8.471
		l11.605,4.002L58.481,278.195z"/>
	<path style="fill:#000000;" d="M54.035,291.521l-18.569-5.856l0.462-1.466l18.569,5.856L54.035,291.521z"/>
	<path style="fill:#000000;" d="M31.544,298.978l9.63-3.976l-7.866-2.234l0.42-1.479l18.729,5.32l-0.42,1.479l-10.094-2.867
		l-10.572,4.368L31.544,298.978z"/>
	<path style="fill:#000000;" d="M48.477,311.16l-18.859-4.784l0.377-1.489l18.859,4.784L48.477,311.16z"/>
	<path style="fill:#000000;" d="M46.422,319.867l-0.335,1.5l-7.936-1.775l-2.17,2.663l-0.56-0.125l2.17-2.663l-10.495-2.347
		l0.335-1.499l11.234,2.513l2.199-2.699l0.54,0.121l-2.179,2.703L46.422,319.867z"/>
	<path style="fill:#000000;" d="M33.61,328.045l-7.736-5.405l0.098-0.502l4.61,3.233l4.845-0.875l4.437,2.406l5.19-0.933
		l-0.27,1.388l-9.007,1.673l7.64,5.366l-0.082,0.422l-4.614-3.213l-4.608,0.837l-4.228-2.303l-5.671,1.048l0.293-1.508
		L33.61,328.045z M35.191,329.146l-4.548,0.849l2.362,1.272l4.17-0.734L35.191,329.146z M34.216,327.933l4.869-0.891l-2.547-1.392
		l-4.436,0.808L34.216,327.933z"/>
	<path style="fill:#000000;" d="M33.798,349.281l6.686,4.016l-0.208,1.522l-19.279-2.639l0.208-1.522l18.305,2.505l-6.727-4.021
		l7.476-2.058l-18.224-2.494l0.211-1.542l19.279,2.638l-0.211,1.542L33.798,349.281z"/>
	<path style="fill:#000000;" d="M20.805,353.725l19.352,2.087l-0.165,1.528l-4.633,7.228l-0.591-0.063l4.654-7.226l-18.782-2.026
		L20.805,353.725z"/>
	<path style="fill:#000000;" d="M38.633,371.318l-19.396-1.551l0.122-1.531l19.396,1.551L38.633,371.318z"/>
	<path style="fill:#000000;" d="M32.125,375.855l1.023,0.054l4.875,4.871l-4.844,4.364l-1.023-0.053l4.048-3.646l-17.659-0.922
		l0.08-1.535l17.556,0.917L32.125,375.855z"/>
	<path style="fill:#000000;" d="M37.595,408.025L26.64,408.36l4.023,7.563l-12.287,0.375l-0.047-1.536l10.934-0.354l-3.981-7.544
		l12.265-0.395L37.595,408.025z"/>
	<path style="fill:#000000;" d="M30.975,421.713l7.335,2.65l0.089,1.533l-19.424,1.131l-0.089-1.533l18.443-1.074l-7.376-2.647
		l6.938-3.461l-18.361,1.068l-0.09-1.554l19.424-1.131l0.09,1.554L30.975,421.713z"/>
	<path style="fill:#000000;" d="M39.134,434.539l0.133,1.552l-19.396,1.667l-0.131-1.531l8.946-3.834l-9.471-2.271l-0.131-1.531
		l19.394-1.688l0.133,1.552l-8.885,3.828L39.134,434.539z M29.222,432.161l8.43-3.624l-17.333,1.49L29.222,432.161z M38.072,434.63
		l-8.882-2.116l-8.409,3.623L38.072,434.63z"/>
	<path style="fill:#000000;" d="M41.587,454.563l0.22,1.541l-19.265,2.754l-0.218-1.521l8.714-4.329l-9.581-1.734l-0.217-1.521
		l19.262-2.774l0.221,1.541l-8.653,4.32L41.587,454.563z M31.561,452.748l8.21-4.092l-17.217,2.462L31.561,452.748z M40.533,454.714
		l-8.984-1.612l-8.189,4.089L40.533,454.714z"/>
	<path style="fill:#000000;" d="M24.072,467.941l6.049-4.592l-7.262-2.474l-0.086-0.505l7.842,2.707l4.919-3.67l7.603,2.644
		l-5.264,3.958l-6.159-2.102l-7.382,5.547L24.072,467.941z M36.589,460.225l-4.473,3.365l4.661,1.61l4.533-3.375L36.589,460.225z"/>
	<path style="fill:#000000;" d="M39.714,483.021l7.68,1.389l0.345,1.498l-18.975,4.363l-0.345-1.498l18.017-4.144l-7.72-1.379
		l6.267-4.574l-17.937,4.124l-0.349-1.518l18.975-4.363l0.349,1.518L39.714,483.021z"/>
	<path style="fill:#000000;" d="M49.321,492.063l-18.845,4.9l-0.387-1.488l18.845-4.899L49.321,492.063z"/>
	<path style="fill:#000000;" d="M50.989,498.325l-2.427,5.673l-6.277,4.529l-7.926,2.3l-0.171-0.59l7.809-2.266l6.064-4.382
		l2.218-5.144l-17.997,5.222l-0.434-1.495l18.685-5.421L50.989,498.325z"/>
	<path style="fill:#000000;" d="M53.867,508.021l-10.433,3.354l5.959,6.152l-11.701,3.764l-0.47-1.463l10.407-3.368l-5.914-6.146
		l11.674-3.776L53.867,508.021z"/>
	<path style="fill:#000000;" d="M59.609,524.984l-18.352,6.479l-0.518-1.468l4.481-1.582l5.397-5.143l-7.391-0.628l-4.521,1.596
		l-0.519-1.468l18.352-6.479l0.511,1.448l-5.448,5.183l7.488,0.594L59.609,524.984z M44.173,522.31l6.819,0.547l5.093-4.774
		L44.173,522.31z M46.147,528.086l11.977-4.229l-6.955-0.499L46.147,528.086z"/>
	<path style="fill:#000000;" d="M44.548,540.071l5.03-5.694l-7.609-0.998l-0.185-0.478l8.225,1.111l4.103-4.567l7.978,1.097
		l-4.385,4.919l-6.455-0.85l-6.149,6.894L44.548,540.071z M55.306,530.038l-3.725,4.182l4.889,0.662l3.782-4.203L55.306,530.038z"/>
	<path style="fill:#000000;" d="M66.586,542.491l0.601,1.437l-17.96,7.509l-0.593-1.418l7.349-6.381l-9.712,0.729l-0.593-1.418
		l17.952-7.527l0.601,1.437l-7.292,6.357L66.586,542.491z M56.422,543.254l6.92-6.025l-16.051,6.711L56.422,543.254z
		 M65.603,542.902l-9.104,0.696l-6.901,6.018L65.603,542.902z"/>
	<path style="fill:#000000;" d="M66.171,556.617l0.921-0.448l6.624,1.908l-2.132,6.163l-0.922,0.447l1.782-5.148l-15.908,7.729
		l-0.671-1.383l15.815-7.685L66.171,556.617z"/>
	<path style="fill:#000000;" d="M71.936,570.493l7.782-0.591l0.71,1.363l-17.265,9.002l-0.71-1.363l16.392-8.547l-7.818,0.609
		l4.913-6.005l-16.319,8.509l-0.72-1.381l17.264-9.002l0.72,1.381L71.936,570.493z"/>
	<path style="fill:#000000;" d="M85.382,580.194l-17.004,9.479l-0.758-1.36l4.152-2.314l4.456-5.98l-7.394,0.626l-4.188,2.336
		l-0.759-1.36l17.004-9.48l0.749,1.343l-4.5,6.027l7.483-0.676L85.382,580.194z M69.711,580.156l6.816-0.609l4.217-5.566
		L69.711,580.156z M72.631,585.52l11.097-6.187l-6.942,0.679L72.631,585.52z"/>
	<path style="fill:#000000;" d="M85.88,581.064l-0.471,9.224l4.402-2.621l0.787,1.321l-5.723,3.406l0.471-9.224l-14.087,8.387
		l8.333,3.982l-5.723,3.406l-0.786-1.32l4.402-2.62l-8.333-3.983L85.88,581.064z"/>
	<path style="fill:#000000;" d="M78.785,606.747l3.817-6.568l-7.657,0.512l-0.274-0.433l8.282-0.521l3.128-5.282l8.037-0.486
		l-3.336,5.681l-6.496,0.431l-4.678,7.965L78.785,606.747z M87.369,594.803l-2.833,4.829l4.924-0.308l2.885-4.862L87.369,594.803z"
		/>
	<path style="fill:#000000;" d="M96.575,598.438l0.86,1.273l0.9,8.66l-7.294-2.715l-5.478,11.259l-0.333-0.492l5.556-11.436
		l6.941,2.558l-0.724-7.519l-15.692,10.588l-0.859-1.273L96.575,598.438z"/>
	<path style="fill:#000000;" d="M111.362,619.306l-15.51,11.756l-0.928-1.224l15.51-11.757L111.362,619.306z"/>
	<path style="fill:#000000;" d="M116.881,626.334l0.962,1.198l-6.342,5.094l0.727,3.359l-0.447,0.359l-0.727-3.359l-8.387,6.737
		l-0.962-1.198l8.979-7.212l-0.736-3.403l0.431-0.347l0.752,3.391L116.881,626.334z"/>
	<path style="fill:#000000;" d="M111.363,650.173l2.046-10.214l-6.229,5.297l-0.996-1.171l14.83-12.611l0.996,1.171l-7.992,6.797
		l-2.244,11.216L111.363,650.173z"/>
	<path style="fill:#000000;" d="M130.922,642.883L116.456,655.9l-1.028-1.143l14.467-13.018L130.922,642.883z"/>
	<path style="fill:#000000;" d="M139.439,652.006l1.074,1.127l-14.09,13.423l-1.06-1.112l4.584-8.582l-8.809,4.147l-1.06-1.112
		l14.076-13.438l1.074,1.127l-4.539,8.54L139.439,652.006z M130.22,656.347l4.312-8.097l-12.592,11.996L130.22,656.347z
		 M138.667,652.74l-8.252,3.9l-4.296,8.082L138.667,652.74z"/>
	<path style="fill:#000000;" d="M145.03,657.64l-13.713,13.814l-1.09-1.083l13.713-13.814L145.03,657.64z"/>
	<path style="fill:#000000;" d="M154.049,666.282l1.135,1.065l-13.322,14.191l-1.121-1.052l4.099-8.826l-8.565,4.634l-1.121-1.052
		l13.307-14.205l1.135,1.065l-4.057,8.781L154.049,666.282z M145.084,671.132l3.854-8.326l-11.905,12.683L145.084,671.132z
		 M153.319,667.059l-8.023,4.356l-3.839,8.311L153.319,667.059z"/>
	<path style="fill:#000000;" d="M157.137,669.114l0.973,6.095l-2.895,7.18l-5.479,6.174l-0.459-0.407l5.397-6.082l2.792-6.942
		l-0.867-5.534l-12.44,14.018l-1.165-1.033l12.916-14.554L157.137,669.114z"/>
	<path style="fill:#000000;" d="M166.719,677.414l1.177,0.987l-5.228,6.233l1.368,3.153l-0.369,0.439l-1.367-3.153l-6.914,8.243
		l-1.178-0.987l7.401-8.824l-1.386-3.195l0.355-0.424l1.399,3.18L166.719,677.414z"/>
	<path style="fill:#000000;" d="M167.575,686.173l0.636-0.802l6.793-1.15l0.748,6.476l-0.636,0.803l-0.625-5.411l-10.982,13.854
		l-1.204-0.954l10.919-13.773L167.575,686.173z"/>
	<path style="fill:#000000;" d="M188.734,694.6l1.645,5.948l-2.079,7.459l-4.76,6.746l-0.502-0.354l4.688-6.646l2.004-7.21
		l-1.477-5.405l-10.807,15.316l-1.272-0.897l11.22-15.902L188.734,694.6z"/>
	<path style="fill:#000000;" d="M192.358,704.665l0.567-0.854l6.673-1.714l1.287,6.39l-0.567,0.853l-1.076-5.338l-9.784,14.722
		l-1.28-0.851l9.728-14.637L192.358,704.665z"/>
	<path style="fill:#000000;" d="M202.876,727.241l9.857-16.786l1.325,0.778l4.686,7.195l-0.301,0.513l-4.675-7.213l-9.567,16.291
		L202.876,727.241z"/>
	<path style="fill:#000000;" d="M212.15,732.663l9.379-17.062l1.347,0.74l4.889,7.061l-0.286,0.521l-4.879-7.078l-2.29,4.167
		l4.898,7.042l-0.287,0.521l-4.889-7.061l-6.535,11.889L212.15,732.663z"/>
	<path style="fill:#000000;" d="M236.977,728.167l-0.271,0.528l-0.027-0.037l-0.009,0.019l-9.255,1.211l5.12,6.933l-0.271,0.528
		l-9.291,1.192l-1.366-0.701l8.886-17.308l1.367,0.701L236.977,728.167z M227.152,730.397l-3.947,7.688l8.732-1.18L227.152,730.397z
		 M231.595,721.743l-3.938,7.671l8.714-1.189L231.595,721.743z"/>
	<path style="fill:#000000;" d="M238.117,746.051l-0.253-7.591l-6.214,4.498l-0.462-0.221l6.74-4.837l-0.154-6.136l6.55-4.678
		l0.189,6.584l-5.273,3.813l0.264,9.229L238.117,746.051z M239.048,731.376l0.163,5.595l4.007-2.874l-0.136-5.65L239.048,731.376z"
		/>
	<path style="fill:#000000;" d="M248.809,729.577l1.404,0.624l5.357,6.863l-7.623,1.567l1.33,12.449l-0.543-0.241l-1.357-12.641
		l7.24-1.514l-4.603-5.989l-7.684,17.3l-1.404-0.624L248.809,729.577z"/>
	<path style="fill:#000000;" d="M259.678,742.091l5.566-5.466l1.421,0.584l-7.393,18.004l-1.421-0.584l7.02-17.094l-5.582,5.504
		l-0.116-7.755l-6.988,17.019l-1.44-0.592l7.393-18.004l1.44,0.592L259.678,742.091z"/>
	<path style="fill:#000000;" d="M278.912,749.36l5.249-5.772l1.453,0.503l-6.364,18.396l-1.453-0.503l6.042-17.466l-5.263,5.812
		l-0.554-7.737l-6.016,17.389l-1.472-0.509l6.364-18.396l1.472,0.509L278.912,749.36z"/>
	<path style="fill:#000000;" d="M284.715,750.271l0.307-0.978l5.936-3.503l3.014,5.781l-0.308,0.978l-2.519-4.831l-5.307,16.869
		l-1.466-0.461l5.276-16.771L284.715,750.271z"/>
	<path style="fill:#000000;" d="M313.327,752.075l1.509,0.384l-4.798,18.858l-1.489-0.378l-0.68-9.706l-5.255,8.195l-1.489-0.379
		l4.778-18.864l1.508,0.384l0.695,9.646L313.327,752.075z M307.826,760.652l-0.653-9.149l-4.288,16.854L307.826,760.652z
		 M313.064,753.107l-4.916,7.689l0.658,9.13L313.064,753.107z"/>
	<path style="fill:#000000;" d="M319.042,773.354l-1.947-7.342l-5.049,5.776l-0.5-0.111l5.485-6.225l-1.525-5.945l5.336-6.026
		l1.66,6.374l-4.286,4.897l2.325,8.937L319.042,773.354z M316.663,758.842l1.412,5.417l3.262-3.699l-1.399-5.477L316.663,758.842z"
		/>
	<path style="fill:#000000;" d="M322.064,774.014l3.711-19.105l1.508,0.293l6.811,5.226l-0.113,0.583l-6.807-5.245l-3.602,18.542
		L322.064,774.014z"/>
	<path style="fill:#000000;" d="M340.199,777.299l-2.358-7.223l-4.719,6.054l-0.505-0.084l5.129-6.525l-1.857-5.853l4.991-6.32
		l2.017,6.273l-4.005,5.133l2.825,8.796L340.199,777.299z M337.006,762.938l1.715,5.33l3.051-3.878l-1.706-5.392L337.006,762.938z"
		/>
	<path style="fill:#000000;" d="M345.858,758.502l1.522,0.207l7.058,5.095l-6.881,3.632l4.749,11.58l-0.588-0.08l-4.829-11.757
		l6.529-3.473l-6.089-4.467l-2.552,18.752l-1.522-0.207L345.858,758.502z"/>
	<path style="fill:#000000;" d="M359.814,767.49l3.825-6.8l1.528,0.165l-2.087,19.352l-1.528-0.164l1.982-18.375l-3.829,6.841
		l-2.271-7.416l-1.973,18.293l-1.548-0.167L356,759.866l1.548,0.167L359.814,767.49z"/>
	<path style="fill:#000000;" d="M385.308,762.212l-1.015,19.439l-1.555-0.081l0.248-4.748l-2.694-6.952l-3.401,6.594l-0.25,4.788
		l-1.555-0.081l1.015-19.439l1.535,0.08l2.712,7.015l3.406-6.695L385.308,762.212z M376.942,775.461l3.109-6.096l-2.47-6.53
		L376.942,775.461z M383.037,775.841l0.662-12.687l-3.116,6.238L383.037,775.841z"/>
	<path style="fill:#000000;" d="M385.833,781.713l0.479-19.454l1.536,0.038l7.585,4.019l-0.015,0.594l-7.584-4.039l-0.117,4.751
		l7.585,3.997l-0.015,0.595l-7.585-4.019l-0.333,13.556L385.833,781.713z"/>
	<path style="fill:#000000;" d="M400.854,773.316l-3.691,8.689l-0.512,0.009l2.211-5.182l-1.858-4.561l1.438-4.841l-1.986-4.887
		l1.414-0.023l3.5,8.47l3.672-8.587l0.431-0.008l-2.19,5.182l1.772,4.337l-1.38,4.614l2.198,5.334l-1.536,0.025L400.854,773.316z
		 M400.619,772.746l-1.879-4.582l-0.836,2.781l1.708,4.174L400.619,772.746z M401.604,771.541l1.771,4.275l0.758-2.574l-1.582-3.931
		L401.604,771.541z"/>
	<path style="fill:#000000;" d="M410.777,762.303l1.535-0.047l0.249,8.13l3.118,1.441l0.018,0.574l-3.118-1.442l0.328,10.751
		l-1.536,0.047l-0.352-11.509l-3.16-1.461l-0.017-0.553l3.159,1.44L410.777,762.303z"/>
	<path style="fill:#000000;" d="M418.017,781.553l-1.146-19.425l1.533-0.091l7.894,3.372l0.034,0.593l-7.894-3.392l0.279,4.743
		l7.892,3.352l0.035,0.593l-7.893-3.372l0.798,13.536L418.017,781.553z"/>
	<path style="fill:#000000;" d="M439.23,779.979l-2.218-19.337l1.527-0.176l8.069,2.932l0.067,0.59l-8.072-2.951l0.542,4.723
		l8.067,2.91l0.067,0.591l-8.069-2.932l1.546,13.476L439.23,779.979z"/>
	<path style="fill:#000000;" d="M449.921,778.738l-2.754-19.266l1.521-0.217l8.146,2.705l0.084,0.588l-8.149-2.726l2.673,18.697
		L449.921,778.738z"/>
	<path style="fill:#000000;" d="M462.558,757.104l3.306,19.179l-1.515,0.261l-3.305-19.178L462.558,757.104z"/>
	<path style="fill:#000000;" d="M476.364,754.456l3.821,19.08l-1.506,0.304l-1.925-9.559l-8.618-3.989l6.701-5.529L476.364,754.456z
		 M476.621,763.619l-1.674-8.313l-5.799,4.824L476.621,763.619z"/>
	<path style="fill:#000000;" d="M478.937,753.881l5.53,2.738l4.176,6.521l1.856,8.043l-0.599,0.138l-1.829-7.923l-4.04-6.299
		l-5.013-2.501l4.216,18.262l-1.517,0.351l-4.378-18.961L478.937,753.881z"/>
	<path style="fill:#000000;" d="M492.195,770.77l-4.914-18.83l1.486-0.388l8.4,1.767l0.15,0.575l-8.405-1.787l1.199,4.599
		l8.396,1.747l0.15,0.575l-8.4-1.768l3.424,13.122L492.195,770.77z"/>
	<path style="fill:#000000;" d="M517.996,742.854l5.807,2.097l4.887,6.01l2.755,7.784l-0.579,0.205l-2.714-7.669l-4.728-5.804
		l-5.266-1.919l6.255,17.675l-1.468,0.52l-6.494-18.352L517.996,742.854z"/>
	<path style="fill:#000000;" d="M528.288,745.72l-0.369-0.956l2.455-6.441l5.964,2.64l0.369,0.956l-4.983-2.206l6.374,16.5
		l-1.434,0.554l-6.337-16.404L528.288,745.72z"/>
	<path style="fill:#000000;" d="M551.943,737.075l-0.152-7.803l1.401-0.633l8.016,17.743l-1.4,0.633l-7.611-16.847l0.169,7.84
		l-5.72-5.242l7.578,16.771l-1.42,0.642l-8.016-17.743l1.419-0.642L551.943,737.075z"/>
	<path style="fill:#000000;" d="M557.768,726.428l1.381-0.672l3.556,7.312l3.435,0.038l0.251,0.516l-3.435-0.038l4.702,9.669
		l-1.381,0.672l-5.034-10.351l-3.479-0.038l-0.242-0.497l3.471,0.02L557.768,726.428z"/>
	<path style="fill:#000000;" d="M568.039,721.27l9.002,17.25l-1.362,0.711l-9.002-17.25L568.039,721.27z"/>
	<path style="fill:#000000;" d="M580.362,714.522l9.495,16.989l-1.359,0.76l-2.319-4.149l-5.982-4.448l0.634,7.391l2.339,4.186
		l-1.359,0.759l-9.495-16.989l1.342-0.749l6.03,4.491l-0.684-7.479L580.362,714.522z M580.34,730.188l-0.616-6.813l-5.568-4.211
		L580.34,730.188z M585.699,727.264l-6.196-11.088l0.687,6.939L585.699,727.264z"/>
	<path style="fill:#000000;" d="M600.197,725.366l-10.423-16.438l1.298-0.822l8.541-0.879l0.318,0.502l-8.552,0.861l2.545,4.015
		l8.529-0.896l0.318,0.502l-8.54,0.879l7.263,11.455L600.197,725.366z"/>
	<path style="fill:#000000;" d="M604.775,699.164l1.291-0.869l10.872,16.134l-1.274,0.858l-7.691-5.954l2.613,9.376l-1.273,0.858
		l-10.889-16.123l1.291-0.869l7.657,5.902L604.775,699.164z M607.511,708.978l-7.259-5.604l9.717,14.419L607.511,708.978z
		 M605.37,700.048l2.464,8.786l7.247,5.587L605.37,700.048z"/>
	<path style="fill:#000000;" d="M622.316,686.354l11.757,15.511l-1.241,0.94l-2.871-3.788l-6.541-3.576l1.651,7.231l2.896,3.82
		l-1.241,0.94l-11.756-15.511l1.225-0.928l6.595,3.613l-1.713-7.313L622.316,686.354z M624.465,701.872l-1.555-6.663l-6.098-3.398
		L624.465,701.872z M629.367,698.233l-7.673-10.123l1.641,6.777L629.367,698.233z"/>
	<path style="fill:#000000;" d="M627.281,682.384l12.191,15.178l-1.198,0.962l-12.191-15.177L627.281,682.384z"/>
	<path style="fill:#000000;" d="M634.181,676.655l1.171-0.996l5.271,6.197l3.337-0.82l0.371,0.437l-3.337,0.82l6.97,8.195
		l-1.171,0.996l-7.461-8.772l-3.381,0.831l-0.358-0.422l3.368-0.847L634.181,676.655z"/>
	<path style="fill:#000000;" d="M642.828,669.125l13.018,14.467l-1.143,1.028l-13.018-14.468L642.828,669.125z"/>
	<path style="fill:#000000;" d="M653.101,659.509l13.424,14.104l-1.129,1.074l-3.277-3.444l-6.903-2.824l2.45,7.005l3.307,3.475
		l-1.129,1.073l-13.423-14.104l1.113-1.06l6.961,2.854l-2.521-7.079L653.101,659.509z M656.973,674.696l-2.29-6.45l-6.442-2.696
		L656.973,674.696z M661.439,670.53l-8.761-9.205l2.39,6.554L661.439,670.53z"/>
	<path style="fill:#000000;" d="M660.84,651.743l1.053-1.119l6.91,6.5l2.486-8.266l0.418,0.394l-2.487,8.265l3.447,3.243
		l2.487-8.266l0.433,0.407l-2.502,8.251l2.984,2.809l-1.053,1.119L660.84,651.743z"/>
	<path style="fill:#000000;" d="M676.255,645.619l-3.314-7.06l1.021-1.147l14.54,12.93l-1.021,1.148l-13.805-12.277l3.346,7.087
		l-7.354-2.456l13.743,12.223l-1.034,1.163l-14.54-12.931l1.035-1.163L676.255,645.619z"/>
	<path style="fill:#000000;" d="M677.221,633.514l0.989-1.177l6.228,5.234l3.154-1.364l0.438,0.369l-3.153,1.364l8.234,6.921
		l-0.988,1.177l-8.815-7.409l-3.196,1.382l-0.424-0.355l3.181-1.396L677.221,633.514z"/>
	<path style="fill:#000000;" d="M684.516,624.61l15.25,12.104l-0.956,1.204l-15.25-12.104L684.516,624.61z"/>
	<path style="fill:#000000;" d="M703.098,632.482l-15.584-11.67l0.922-1.229l7.674-3.854l0.476,0.356l-7.69,3.842l3.806,2.85
		l7.657-3.866l0.476,0.355l-7.674,3.854l10.859,8.132L703.098,632.482z"/>
	<path style="fill:#000000;" d="M698.947,605.102l15.902,11.22l-0.897,1.272l-3.884-2.74l-7.316-1.427l3.764,6.392l3.917,2.763
		l-0.897,1.272l-15.902-11.22l0.886-1.255l7.379,1.445l-3.848-6.451L698.947,605.102z M705.695,619.239l-3.499-5.879l-6.841-1.392
		L705.695,619.239z M709.266,614.286l-10.379-7.322l3.616,5.962L709.266,614.286z"/>
	<path style="fill:#000000;" d="M715.097,579.361l16.776,9.875l-0.778,1.325l-8.411-4.939l-8.722,3.766l0.347-8.684L715.097,579.361
		z M722.101,585.28l-7.315-4.296l-0.27,7.541L722.101,585.28z"/>
	<path style="fill:#000000;" d="M716.375,577.065l5.73-2.299l7.647,1.234l7.237,3.979l-0.296,0.538l-7.13-3.919l-7.393-1.188
		l-5.208,2.072l16.433,9.033l-0.75,1.364l-17.062-9.378L716.375,577.065z"/>
	<path style="fill:#000000;" d="M722.956,564.782l17.309,8.886l-0.702,1.366l-17.308-8.886L722.956,564.782z"/>
	<path style="fill:#000000;" d="M725.813,559.099l9.886,4.727l-0.105-8.563l11.087,5.301l-0.662,1.386l-9.877-4.699l0.078,8.527
		l-11.078-5.273L725.813,559.099z"/>
	<path style="fill:#000000;" d="M735.126,538.335l0.585-1.422l7.523,3.096l2.591-2.258l0.531,0.219l-2.592,2.258l9.95,4.094
		l-0.585,1.421l-10.65-4.382l-2.626,2.288l-0.512-0.211l2.606-2.296L735.126,538.335z"/>
	<path style="fill:#000000;" d="M758.382,532.393l-7.545,0.894l5.008,5.814l-0.181,0.479l-5.391-6.311l-6.103,0.672l-5.216-6.135
		l6.547-0.745l4.245,4.936l9.179-1.041L758.382,532.393z M743.676,532.702l5.563-0.635l-3.203-3.752l-5.62,0.612L743.676,532.702z"
		/>
	<path style="fill:#000000;" d="M741.567,521.683l10.359,3.584l-1.07-8.5l11.618,4.019l-0.503,1.452l-10.347-3.558l1.038,8.468
		l-11.605-3.993L741.567,521.683z"/>
	<path style="fill:#000000;" d="M750.26,515.32l-0.978-0.308l-3.503-5.935l5.781-3.015l0.978,0.308l-4.831,2.519l16.869,5.307
		l-0.461,1.466l-16.771-5.275L750.26,515.32z"/>
	<path style="fill:#000000;" d="M747.451,503.723l0.42-1.479l6.043-6.272l2.626,7.329l12.143-3.07l-0.162,0.572l-12.328,3.124
		l-2.52-6.958l-5.284,5.401l18.216,5.175l-0.42,1.479L747.451,503.723z"/>
	<path style="fill:#000000;" d="M750.626,492.327l4.968-3.668l7.713-0.73l8.006,2.029l-0.151,0.597l-7.887-1.999l-7.454,0.711
		l-4.519,3.315l18.178,4.607l-0.383,1.51l-18.873-4.783L750.626,492.327z"/>
	<path style="fill:#000000;" d="M754.402,476.552l0.34-1.519l18.989,4.247l-0.335,1.499l-9.682,0.962l8.345,5.015l-0.336,1.499
		l-18.994-4.227l0.34-1.52l9.622-0.976L754.402,476.552z M763.135,481.801l-9.126,0.918l16.971,3.796L763.135,481.801z
		 M755.441,476.784l7.829,4.69l9.106-0.923L755.441,476.784z"/>
	<path style="fill:#000000;" d="M764.66,460.865l-6.575-4.203l0.251-1.516l19.207,3.174l-0.251,1.517l-18.236-3.014l6.615,4.209
		l-7.533,1.85l18.155,3l-0.254,1.537l-19.207-3.175l0.254-1.536L764.66,460.865z"/>
	<path style="fill:#000000;" d="M759.224,448.847l7.022,0.961l-6.569-4.269l0.069-0.508l7.575,4.924l11.183,1.53l-0.209,1.521
		l-11.223-1.535l-8.576,2.692l0.069-0.508l7.432-2.332l-6.981-0.955L759.224,448.847z"/>
	<path style="fill:#000000;" d="M767.48,440.262l-6.8-3.824l0.165-1.528l19.352,2.088l-0.164,1.527l-18.375-1.981l6.841,3.828
		l-7.416,2.271l18.293,1.974l-0.167,1.548l-19.353-2.087l0.167-1.549L767.48,440.262z"/>
	<path style="fill:#000000;" d="M760.951,433.897l0.123-1.531l4.695-7.329l4.007,6.669l11.3-5.384l-0.047,0.593l-11.472,5.473
		l-3.829-6.327l-4.122,6.328l18.864,1.509l-0.122,1.531L760.951,433.897z"/>
	<path style="fill:#000000;" d="M781.618,416.255l-8.495,6.025l8.164,0.42l-0.079,1.534l-19.438-1l0.078-1.534l10.477,0.539
		l9.327-6.619L781.618,416.255z"/>
	<path style="fill:#000000;" d="M762.393,408.146l19.453,0.464l-0.036,1.536l-19.454-0.464L762.393,408.146z"/>
	<path style="fill:#000000;" d="M768.694,403.393l-1.024,0.018l-5.199-4.527l4.535-4.687l1.025-0.017l-3.79,3.916l17.686-0.29
		l0.025,1.537l-17.583,0.288L768.694,403.393z"/>
	<path style="fill:#000000;" d="M781.898,392.608l-19.453,0.609l-0.048-1.536l3.589-7.799l0.594-0.019l-3.609,7.799l4.751-0.148
		l3.568-7.798l0.594-0.019l-3.589,7.799l13.556-0.424L781.898,392.608z"/>
	<path style="fill:#000000;" d="M768.256,382.653l-1.022,0.06l-5.383-4.299l4.33-4.872l1.021-0.061l-3.617,4.071l17.646-1.04
		l0.091,1.533l-17.544,1.034L768.256,382.653z"/>
	<path style="fill:#000000;" d="M761.031,367.476l19.396-1.696l0.134,1.531l-19.396,1.696L761.031,367.476z"/>
	<path style="fill:#000000;" d="M779.061,352.76l-6.295,4.254l7.118,2.871l0.059,0.509l-7.685-3.135l-5.115,3.396l-7.448-3.059
		l5.476-3.665l6.036,2.438l7.679-5.135L779.061,352.76z M766.134,359.78l4.653-3.116l-4.568-1.865l-4.713,3.123L766.134,359.78z"/>
	<path style="fill:#000000;" d="M758.818,348.438l-0.22-1.521l8.051-1.163l1.081-3.262l0.568-0.082l-1.082,3.262l10.646-1.538
		l0.22,1.521l-11.396,1.646l-1.096,3.305l-0.548,0.079l1.075-3.302L758.818,348.438z"/>
	<path style="fill:#000000;" d="M755.932,330.956l2.893-5.451l6.636-3.99l8.093-1.629l0.121,0.603l-7.973,1.605l-6.41,3.861
		l-2.641,4.941l18.374-3.7l0.307,1.526l-19.076,3.841L755.932,330.956z"/>
	<path style="fill:#000000;" d="M773.185,318.174l-18.961,4.392l-0.347-1.497l1.998-8.349l0.579-0.134l-2.019,8.354l18.402-4.263
		L773.185,318.174z"/>
	<path style="fill:#000000;" d="M770.739,307.679l-18.83,4.929l-0.39-1.487l1.762-8.403l0.574-0.15l-1.78,8.409l18.274-4.784
		L770.739,307.679z"/>
	<path style="fill:#000000;" d="M767.995,297.259l-18.686,5.45l-0.431-1.475l1.527-8.449l0.57-0.166l-1.547,8.454l4.563-1.331
		l1.507-8.443l0.57-0.167l-1.526,8.449l13.021-3.798L767.995,297.259z"/>
	<path style="fill:#000000;" d="M743.6,284.152l18.526-5.987l0.479,1.482l-4.524,1.462l-5.535,4.998l7.374,0.826l4.563-1.475
		l0.479,1.482l-18.525,5.987l-0.473-1.462l5.588-5.036l-7.472-0.794L743.6,284.152z M757.145,281.412l-12.091,3.907l6.941,0.686
		L757.145,281.412z M758.964,287.242l-6.805-0.73l-5.221,4.638L758.964,287.242z"/>
	<path style="fill:#000000;" d="M758.8,268.718l-5.544,8.813l7.702-2.733l0.514,1.448l-18.337,6.508l-0.514-1.447l9.883-3.508
		l6.084-9.68L758.8,268.718z"/>
	<path style="fill:#000000;" d="M755.244,259.407l-5.021,5.702l7.61,0.985l0.185,0.478l-8.225-1.098l-4.095,4.574l-7.978-1.084
		l4.376-4.925l6.455,0.839l6.136-6.903L755.244,259.407z M744.504,269.455l3.717-4.186l-4.889-0.655l-3.774,4.208L744.504,269.455z"
		/>
	<path style="fill:#000000;" d="M750.036,246.864l-17.729,8.031l-0.634-1.399l0.319-8.579l0.541-0.245l-0.338,8.587l17.206-7.794
		L750.036,246.864z"/>
	<path style="fill:#000000;" d="M745.579,237.071l-17.497,8.524l-0.673-1.381l0.08-8.584l0.534-0.26l-0.099,8.593l4.273-2.082
		l0.061-8.575l0.534-0.26l-0.079,8.584l12.192-5.94L745.579,237.071z"/>
	<path style="fill:#000000;" d="M722.584,226.429l0.416-0.275v0.045l0.13-0.009l8.317,4.351l-0.154-8.62l0.541-0.275l8.287,4.387
		l0.715,1.362l-17.248,9.017l-0.767-1.362L722.584,226.429z M723.387,234.784l7.645-3.996l-7.808-4.057L723.387,234.784z
		 M732.012,230.275l7.662-4.005l-7.816-4.075L732.012,230.275z"/>
	<path style="fill:#000000;" d="M732.084,211.167l-4.172,6.351l7.676-0.092l0.25,0.447l-8.301,0.066l-3.413,5.104l-8.054,0.045
		l3.643-5.492l6.512-0.074l5.108-7.698L732.084,211.167z M722.856,222.626l3.095-4.668l-4.935,0.038l-3.148,4.698L722.856,222.626z"
		/>
	<path style="fill:#000000;" d="M713.864,218.484l-0.787-1.32l-0.418-8.697l7.132,3.116l6.095-10.937l0.304,0.51l-6.183,11.109
		l-6.788-2.94l0.305,7.548l16.257-9.7l0.787,1.32L713.864,218.484z"/>
	<path style="fill:#000000;" d="M705.729,205.189l16.424-10.451l0.825,1.296l-16.424,10.452L705.729,205.189z"/>
	<path style="fill:#000000;" d="M702.263,199.823l9.078-6.139l-7.442-4.24l10.181-6.885l0.861,1.272l-9.05,6.145l7.396,4.246
		l-10.152,6.891L702.263,199.823z"/>
	<path style="fill:#000000;" d="M689.067,181.304l-0.931-1.223l6.476-4.925l-0.638-3.377l0.457-0.347l0.638,3.377l8.563-6.513
		l0.931,1.223l-9.168,6.972l0.646,3.422l-0.44,0.335l-0.662-3.41L689.067,181.304z"/>
	<path style="fill:#000000;" d="M682.011,172.233l15.148-12.206l0.964,1.196l-15.148,12.206L682.011,172.233z"/>
	<path style="fill:#000000;" d="M677.97,167.306l8.335-7.11l-7.866-3.384l9.348-7.974l0.996,1.168l-8.306,7.113l7.821,3.395
		l-9.318,7.977L677.97,167.306z"/>
	<path style="fill:#000000;" d="M668.729,156.747l14.453-13.046l1.029,1.141l-14.452,13.046L668.729,156.747z"/>
	<path style="fill:#000000;" d="M657.43,144.784l-0.634-6.137l3.286-7.008l5.812-5.86l0.436,0.432l-5.725,5.773l-3.171,6.776
		l0.559,5.573l13.194-13.306l1.105,1.096l-13.699,13.814L657.43,144.784z"/>
	<path style="fill:#000000;" d="M655.522,134.269l-0.7,0.748l-6.866,0.586l-0.213-6.516l0.7-0.748l0.178,5.445l12.089-12.905
		l1.121,1.051l-12.019,12.83L655.522,134.269z"/>
	<path style="fill:#000000;" d="M648.903,110.253l-12.51,14.916l-1.178-0.988l-3.426-7.874l0.382-0.456l3.412,7.89l3.056-3.643
		l-3.438-7.859l0.382-0.455l3.425,7.874l8.718-10.394L648.903,110.253z"/>
	<path style="fill:#000000;" d="M640.641,103.348l-12.09,15.264l-1.205-0.955l-3.646-7.777l0.369-0.466l3.633,7.793l11.733-14.814
		L640.641,103.348z"/>
	<path style="fill:#000000;" d="M616.241,109.067l11.655-15.597l1.231,0.92l-11.655,15.598L616.241,109.067z"/>
	<path style="fill:#000000;" d="M604.819,100.863l11.222-15.904l1.257,0.884l-5.614,7.975l3.034,9.002l-8.626-1.061L604.819,100.863
		z M611.294,94.372l-4.883,6.936l7.492,0.89L611.294,94.372z"/>
	<path style="fill:#000000;" d="M602.651,99.4l-1.815-5.899l1.862-7.517l4.563-6.881l0.512,0.34l-4.494,6.778l-1.795,7.267
		l1.633,5.36l10.359-15.624l1.298,0.861l-10.756,16.221L602.651,99.4z"/>
	<path style="fill:#000000;" d="M590.945,91.821l10.292-16.511l1.304,0.813l-10.292,16.511L590.945,91.821z"/>
	<path style="fill:#000000;" d="M586.816,89.271l-4.045-8.301l-2.587,4.421l-1.326-0.776l3.362-5.748l4.046,8.301l8.276-14.148
		l-9.219,0.542l3.362-5.748l1.326,0.776l-2.586,4.421l9.218-0.542L586.816,89.271z"/>
	<path style="fill:#000000;" d="M568.417,70.857l-6.003,4.981l-1.368-0.7l8.872-17.323l1.367,0.701l-8.423,16.447l6.022-5.018
		l-0.533,7.737l8.386-16.375l1.386,0.709l-8.871,17.323l-1.386-0.709L568.417,70.857z"/>
	<path style="fill:#000000;" d="M555.328,72.393l3.052-6.399l-6.065,4.961l-0.463-0.221l6.996-5.721l4.859-10.19l1.387,0.662
		l-4.877,10.227l-0.043,8.992l-0.462-0.221l0.038-7.791l-3.034,6.362L555.328,72.393z"/>
	<path style="fill:#000000;" d="M540.264,57.885l-5.562,5.468l-1.421-0.583l7.378-18.004l1.422,0.583l-7.006,17.094l5.576-5.506
		l0.121,7.752l6.975-17.018l1.44,0.59l-7.378,18.004l-1.44-0.59L540.264,57.885z"/>
	<path style="fill:#000000;" d="M539.241,44.202l-6.871,18.207l-1.438-0.542l-5.834-6.296l0.21-0.556l5.827,6.315l1.678-4.446
		l-5.842-6.277l0.21-0.556l5.834,6.296l4.788-12.687L539.241,44.202z"/>
	<path style="fill:#000000;" d="M511.121,34.455l3.703,9.736l2.454-7.799l1.466,0.461l-5.842,18.569l-1.466-0.461l3.148-10.008
		l-4.07-10.689L511.121,34.455z"/>
	<path style="fill:#000000;" d="M501.545,31.695l1.534,7.441l5.366-5.487l0.492,0.14l-5.826,5.91l1.189,6.023l-5.667,5.721
		l-1.301-6.459l4.555-4.651l-1.821-9.056L501.545,31.695z M503.109,46.321l-1.107-5.488l-3.466,3.512l1.091,5.548L503.109,46.321z"
		/>
	<path style="fill:#000000;" d="M484.866,47.485l4.769-18.874l1.51,0.381l-1.164,4.609l1.293,7.344l4.617-5.808l1.175-4.649
		l1.51,0.381l-4.77,18.874l-1.489-0.376l-1.299-7.408l-4.642,5.907L484.866,47.485z M489.739,34.555l-3.112,12.318l4.268-5.516
		L489.739,34.555z M495.645,36.111l-4.233,5.377l1.156,6.886L495.645,36.111z"/>
	<path style="fill:#000000;" d="M474.92,45.235l4.232-18.99l1.52,0.339l-1.034,4.637l1.499,7.3l4.449-5.933l1.043-4.677l1.519,0.338
		l-4.232,18.99l-1.499-0.334l-1.506-7.365l-4.471,6.032L474.92,45.235z M479.424,32.181l-2.762,12.393l4.108-5.63L479.424,32.181z
		 M485.367,33.568l-4.077,5.491l1.349,6.847L485.367,33.568z"/>
	<path style="fill:#000000;" d="M470.104,24.467l2.159,7.282l4.88-5.92l0.503,0.097l-5.304,6.381l1.696,5.899l-5.159,6.179
		l-1.844-6.324l4.143-5.02l-2.583-8.866L470.104,24.467z M472.901,38.904l-1.568-5.374l-3.153,3.792l1.557,5.434L472.901,38.904z"/>
	<path style="fill:#000000;" d="M456.366,41.865l-1.536-0.253l3.16-19.207l1.517,0.25l1.512,9.614l4.533-8.619l1.517,0.25
		l-3.141,19.21l-1.536-0.253l-1.522-9.553L456.366,41.865z M456.539,40.813l4.238-8.086l-1.44-9.042L456.539,40.813z
		 M461.111,32.844l1.437,9.062l2.824-17.165L461.111,32.844z"/>
	<path style="fill:#000000;" d="M448.833,21.143l2.569,7.151l4.539-6.19l0.508,0.068l-4.936,6.674l2.028,5.796l-4.804,6.464
		l-2.199-6.212l3.854-5.249l-3.083-8.71L448.833,21.143z M452.446,35.405l-1.871-5.279l-2.936,3.967l1.863,5.339L452.446,35.405z"/>
</g>
<rect x="151" y="155" style="fill:none;stroke:#000000;stroke-width:4;stroke-miterlimit:10;" width="494" height="494"/>
<rect x="153" y="153" transform="matrix(0.7071 0.7071 -0.7071 0.7071 400 -165.6854)" style="fill:none;stroke:#000000;stroke-width:4;stroke-miterlimit:10;" width="494" height="494"/>
<circle style="fill:none;stroke:#000000;stroke-width:8;stroke-miterlimit:10;" cx="400" cy="400" r="213.533"/>
<circle style="fill:none;stroke:#000000;stroke-width:4;stroke-miterlimit:10;" cx="400" cy="400" r="199.699"/>
<circle style="fill:none;stroke:#000000;stroke-width:8;stroke-miterlimit:10;" cx="400" cy="400" r="107.039"/>
<circle style="fill:none;stroke:#000000;stroke-width:4;stroke-miterlimit:10;" cx="400" cy="400" r="158.036"/>
</svg>
