<?xml version="1.0" encoding="utf-8"?>
<!-- Generator: Adobe Illustrator 15.0.0, SVG Export Plug-In . SVG Version: 6.00 Build 0)  -->
<!DOCTYPE svg PUBLIC "-//W3C//DTD SVG 1.1//EN" "http://www.w3.org/Graphics/SVG/1.1/DTD/svg11.dtd">
<svg version="1.1" id="レイヤー_1" xmlns="http://www.w3.org/2000/svg" xmlns:xlink="http://www.w3.org/1999/xlink" x="0px"
	 y="0px" width="800px" height="800px" viewBox="0 0 800 800" enable-background="new 0 0 800 800" xml:space="preserve">
<g id="レイヤー_1_1_">
	<g>
		<g>
			<path d="M581.992,85l33.762,58.528c27.126,22.843,50.573,49.905,69.336,80.183L593.536,65h-183.32
				c36.628,1.097,71.782,8.06,104.547,20H581.992z M695.699,242.104c16.422,30.688,28.21,64.224,34.42,99.684l33.868,58.712
				l-34.11,59.131c-14.01,78.012-55.025,146.64-113.009,195.899L581.984,716h-70.062c-35.004,12.398-72.67,19.169-111.923,19.169
				S323.081,728.398,288.077,716h-70.061l-34.881-60.468c-57.988-49.262-99.005-117.894-113.013-195.911L36.017,400.5l33.862-58.7
				c6.209-35.464,17.998-69.004,34.42-99.695L12.928,400.5L206.464,736h387.072l193.536-335.5L695.699,242.104z M184.261,143.515
				L218.016,85h67.221c32.765-11.94,67.918-18.903,104.547-20h-183.32l-91.552,158.708
				C133.677,193.426,157.13,166.36,184.261,143.515z"/>
		</g>
	</g>
	<circle fill="none" stroke="#000000" stroke-width="3" stroke-miterlimit="10" cx="400" cy="400" r="335.169"/>
	<circle fill="none" stroke="#000000" stroke-width="3" stroke-miterlimit="10" cx="400" cy="400" r="328.169"/>
	<circle fill="none" stroke="#000000" stroke-width="5" stroke-miterlimit="10" cx="400" cy="400" r="314.5"/>
	<rect x="178" y="181" fill="none" stroke="#000000" stroke-width="6" stroke-miterlimit="10" width="441" height="441"/>
	
		<rect x="180.092" y="180.086" transform="matrix(-0.7071 -0.7071 0.7071 -0.7071 400.0048 965.6763)" fill="none" stroke="#000000" stroke-width="6" stroke-miterlimit="10" width="439.816" height="439.816"/>
</g>
<g id="レイヤー_3">
	<g>
		<path d="M494.548,97.583l-1.783-2.762l-0.208-4.506l1.396-4.541l0.727,0.223l-1.353,4.407l0.186,4.181l1.529,2.354l0.134,0.042
			l3.038-9.898l0.851,0.261l-3.262,10.625L494.548,97.583z"/>
		<path d="M486.31,91.177l1.507,2.723l2.63-9.143L491.289,85l-2.627,9.132l2.708-1.498l-0.323,1.125l-3.259,1.802l-1.802-3.258
			L486.31,91.177z"/>
		<path d="M475.055,88.873l3.735,3.184l2.434-9.799l0.854,0.211l-2.682,10.8l-0.854-0.212l0.002-0.011l-3.737-3.173L475.055,88.873z
			"/>
		<path d="M469.371,87.555l3.789,3.119l0.449-1.952l-3.813-3.124l0.23-0.896l3.789,3.118l1.605-6.985l0.856,0.197l-2.494,10.843
			l-0.855-0.197l0.003-0.011l-3.792-3.107L469.371,87.555z"/>
		<path d="M463.498,87.368l0.212-1.008l3.8-1.51l-2.976-2.349l0.188-0.894l4.924-2.075l0.859,0.181l-2.29,10.887l-0.858-0.181
			L463.498,87.368z M467.537,89.558l0.846-4.022l-0.196-0.149l-3.859,1.629L467.537,89.558z M468.361,84.502l0.261-0.101
			l0.844-4.011l-4.099,1.734L468.361,84.502z"/>
		<path d="M460.484,77.69l1.026,3.237l2.147-2.63l1.001,0.191l-2.82,3.468l1.159,3.668l-3.015,3.299l-1.588-4.178l2.431-2.982
			l-1.345-4.263L460.484,77.69z M461.155,82.791l-1.745,2.147l0.875,2.409l1.702-1.917L461.155,82.791z"/>
		<path d="M456.032,88.18l-3.292-4.729l2.796-0.704l-1.885-6.268l0.864,0.15l2.123,6.606l-2.508,0.754l2.137,3.032l1.697-9.794
			l0.877,0.152l-1.898,10.959l-0.542-0.094l-0.335-0.058L456.032,88.18z"/>
		<path d="M452.076,76.231l0.867,0.134l-1.686,10.99l-0.879-0.136l0.027-0.173l-1.105-4.043l-2.354,3.521l-0.025,0.162l-0.879-0.136
			l1.708-10.986l0.867,0.134l-1.413,9.23l2.3-3.47l1.146,4.002L452.076,76.231z"/>
		<path d="M440.449,74.59l0.872,0.102l-1.279,11.047l-0.883-0.104l0.02-0.174l-1.253-4l-2.225,3.606l-0.02,0.163l-0.884-0.104
			l1.302-11.044l0.872,0.102l-1.071,9.28l2.171-3.553l1.294,3.958L440.449,74.59z"/>
		<path d="M429.437,80.767l1.975,2.41l0.941-9.478l0.875,0.087l-0.941,9.466l2.396-1.963l-0.115,1.166l-2.885,2.362l-2.361-2.884
			L429.437,80.767z"/>
		<path d="M418.504,84l-0.735-0.156l0.694-11.159l0.736,0.019l1.609,4.628l2.188-4.411l0.713,0.041l-0.684,11.104L422.3,84.02
			l-1.604-4.603L418.516,84H418.504z M419.08,74.581l-0.437,7.131l1.694-3.438L419.08,74.581z M421.168,78.337l1.274,3.635
			l0.447-7.165L421.168,78.337z"/>
		<path d="M413.529,72.393l1.478,3.054l1.749-2.907l1.017,0.046l-2.295,3.831l1.67,3.461l-2.512,3.692l-2.164-3.906l1.979-3.294
			l-1.938-4.024L413.529,72.393z M414.92,77.34l-1.42,2.371l1.209,2.257l1.409-2.138L414.92,77.34z"/>
		<path d="M406.342,80.078l4.329,2.309l0.275-10.088l0.878,0.024l-0.126,11.118L411,83.417v-0.012l-4.508-2.297L406.342,80.078z"/>
		<path d="M401.632,72.117l1.568,3.009l1.662-2.959l1.019,0.016l-2.18,3.899l1.771,3.411l-2.399,3.767l-2.281-3.84l1.879-3.354
			l-2.057-3.965L401.632,72.117z M403.171,77.022l-1.349,2.414l1.275,2.221l1.346-2.18L403.171,77.022z"/>
		<path d="M398.941,83l-4.114-3.92l2.615-1.155l-3.019-5.778h0.878l3.314,6.101l-2.322,1.211l2.663,2.582l-0.155-9.936l0.889-0.013
			l0.175,11.119l-0.55-0.104L398.978,83H398.941z"/>
		<path d="M392.825,72.197l0.877-0.024l0.316,11.118l-0.891,0.024l-0.005-0.176l-1.813-3.78l-1.686,3.888l0.004,0.164l-0.889,0.024
			l-0.293-11.119l0.878-0.024l0.268,9.339l1.641-3.828l1.847,3.733L392.825,72.197z"/>
		<path d="M377.416,84.034L376.72,72.93l0.726-0.045l0.192,3.074l2.06,3.086l1.739-3.324l-0.182-3.075l0.725-0.045l0.696,11.104
			l-0.725,0.045l-2.12-3.305l-1.679,3.543L377.416,84.034z M377.72,77.268l0.33,5.26l1.296-2.722L377.72,77.268z M380.222,79.751
			l1.638,2.538l-0.33-5.271L380.222,79.751z"/>
		<path d="M371.424,81.281l4.554,1.828l-0.161-1.996l-4.578-1.826l-0.052-0.924l4.555,1.828l-0.579-7.144l0.875-0.071l0.868,11.089
			L376,84.136v-0.012l-4.522-1.816L371.424,81.281z"/>
		<path d="M370.104,73.458l-0.931,3.234l1.183,2.332l-0.595,2.824l1.359,2.691l-0.804,0.079l-2.185-4.258l-1.313,4.602l-0.828,0.081
			l0.906-3.243l-1.11-2.198l0.571-2.692l-1.5-2.937l0.875-0.086l2.188,4.317l1.309-4.66L370.104,73.458z M367.595,79.318
			l-0.757-1.479l-0.33,1.563l0.695,1.321L367.595,79.318z M368.858,77.794l-0.41,1.464l0.703,1.402l0.33-1.551L368.858,77.794z"/>
		<path d="M361.716,80.522l-0.713-6.104l0.872-0.102l0.763,6.535l1.871,0.677l0.118,1.011l-1.868-0.654l0.406,3.478l-0.872,0.102
			l-0.458-3.918l-1.869-0.666l-0.12-1.023L361.716,80.522z"/>
		<path d="M354.138,83.274l4.644,1.579l-0.27-1.983l-4.666-1.576l-0.101-0.919l4.643,1.58l-0.962-7.097l0.87-0.118l1.493,11.017
			l-0.87,0.118l-0.001-0.012l-4.641-1.567L354.138,83.274z"/>
		<path d="M342.794,85.111l4.697,1.414l-0.339-1.973l-4.721-1.41l-0.134-0.915l4.697,1.413l-1.214-7.06l0.864-0.149l1.885,10.959
			l-0.865,0.149l-0.002-0.012l-4.695-1.402L342.794,85.111z"/>
		<path d="M337.083,86.203l4.725,1.328l-1.894-9.917l0.863-0.165l2.087,10.93l-0.863,0.165L342,88.531l-4.723-1.316L337.083,86.203z
			"/>
		<path d="M334.231,90.084l-2.29-10.886l0.858-0.181l2.291,10.887L334.231,90.084z"/>
		<path d="M326.458,91.812l-2.479-10.843l0.855-0.196l1.239,5.421l4.873,1.612l-3.587,3.799l-0.047,0.01L326.458,91.812z
			 M326.307,87.21l0.749,3.276l2.459-2.376L326.307,87.21z"/>
		<path d="M324.735,92.242l-2.955-1.451l-2.502-3.759l-1.146-4.615l0.739-0.184l1.112,4.479l2.314,3.492l2.526,1.231l0.137-0.034
			l-2.499-10.061l0.864-0.214l2.682,10.799L324.735,92.242z"/>
		<path d="M314.508,91.565l4.809,0.976l-0.52-1.933l-4.831-0.97l-0.217-0.898l4.808,0.976l-1.857-6.919l0.848-0.228l2.884,10.742
			l-0.848,0.228l-0.003-0.011l-4.805-0.964L314.508,91.565z"/>
		<path d="M302.761,98.444l-3.052-1.229l-2.771-3.563l-1.479-4.517l0.723-0.237l1.438,4.383l2.563,3.311l2.608,1.042l0.134-0.044
			l-3.228-9.844l0.845-0.277l3.464,10.567L302.761,98.444z"/>
		<path d="M292.325,97.964l2.803,1.357l-3.126-8.994l0.83-0.289l3.122,8.983l1.35-2.788l0.385,1.106l-1.623,3.354l-3.354-1.624
			L292.325,97.964z"/>
		<path d="M282.981,93.617l0.818-0.318l4.041,10.36l-0.829,0.323l-0.063-0.164l-2.98-2.948l-0.277,4.228l0.06,0.153l-0.829,0.322
			l-4.019-10.369l0.817-0.318l3.396,8.702l0.255-4.156l2.996,2.892L282.981,93.617z"/>
		<path d="M277.629,102.358l-2.331-5.688l0.813-0.333l2.496,6.088l1.983,0.148l0.387,0.942l-1.976-0.126l1.328,3.239l-0.813,0.333
			l-1.496-3.651l-1.979-0.138l-0.391-0.954L277.629,102.358z"/>
		<path d="M274.383,109.137l-4.407-10.22l0.808-0.348l4.407,10.219L274.383,109.137z"/>
		<path d="M267.139,112.366l-4.595-10.132l0.661-0.3l1.272,2.805l3.021,2.153l0.445-3.725l-1.263-2.81l0.661-0.3l4.595,10.132
			l-0.66,0.3l-3.156-2.337l-0.312,3.909L267.139,112.366z M265.019,105.934l2.178,4.8l0.245-3.005L265.019,105.934z M268.24,107.366
			l2.432,1.791l-2.182-4.81L268.24,107.366z"/>
		<path d="M255.453,114.452l4.907,0.003l-0.894-1.793l-4.928,0.007l-0.391-0.838l4.907,0.003l-3.194-6.416l0.786-0.391l4.958,9.958
			l-0.787,0.392l-0.005-0.011l-4.902,0.007L255.453,114.452z"/>
		<path d="M252.452,119.633l-0.655,0.34l-5.131-9.872l0.655-0.34l3.773,3.146l-0.396-4.902l0.634-0.329l5.142,9.866l-0.645,0.335
			l-3.806-3.209l0.439,4.959L252.452,119.633z M248.201,111.455l3.305,6.333l-0.322-3.819L248.201,111.455z M251.927,113.596
			l2.967,2.457l-3.311-6.37L251.927,113.596z"/>
		<path d="M241.854,125.476l-5.479-9.683l0.632-0.357l1.517,2.681l3.201,1.875l0.112-3.75l-1.507-2.687l0.632-0.358l5.479,9.684
			l-0.632,0.357l-3.352-2.046l0.039,3.921L241.854,125.476z M239.169,119.258l2.596,4.587l-0.023-3.015L239.169,119.258z
			 M242.505,120.397l2.582,1.567l-2.601-4.597L242.505,120.397z"/>
		<path d="M238.797,127.276l-5.653-9.582l0.757-0.446l5.653,9.582L238.797,127.276z"/>
		<path d="M231.161,126.075l-3.22-5.231l0.748-0.46l3.447,5.6l1.98-0.175l0.534,0.867l-1.968,0.195l1.834,2.979l-0.747,0.46
			l-2.067-3.358l-1.975,0.185l-0.54-0.877L231.161,126.075z"/>
		<path d="M229.026,133.305l-6.001-9.364l0.739-0.474l6.001,9.365L229.026,133.305z"/>
		<path d="M222.401,137.669l-6.175-9.248l0.604-0.403l1.709,2.561l3.329,1.634l-0.165-3.747l-1.7-2.567l0.604-0.403l6.175,9.249
			l-0.604,0.403l-3.491-1.793l0.327,3.905L222.401,137.669z M219.267,131.669l2.925,4.381l-0.246-3.003L219.267,131.669z
			 M222.677,132.559l2.689,1.372l-2.932-4.391L222.677,132.559z"/>
		<path d="M217.383,141.142l-0.713,0.513l-3.247-4.516l-2.217,4.479l-0.494-0.727l2.198-4.465L211.885,135l-2.198,4.465
			l-0.513-0.713l2.198-4.464l-1.196-1.664l0.713-0.513L217.383,141.142z"/>
		<path d="M205.354,136.12l0.704-0.525l6.663,8.908l-0.713,0.532l-0.105-0.141l-3.66-2.046l0.861,4.15l0.098,0.131l-0.713,0.532
			l-6.645-8.922l0.704-0.525l5.599,7.481l-0.864-4.075l3.661,1.988L205.354,136.12z"/>
		<path d="M202.534,145.974l-3.765-4.854l0.693-0.538l4.031,5.197l1.95-0.387l0.624,0.804l-1.936,0.406l2.144,2.765l-0.693,0.538
			l-2.417-3.116l-1.943,0.397l-0.631-0.814L202.534,145.974z"/>
		<path d="M201.18,153.402l-6.973-8.668l0.685-0.55l6.973,8.668L201.18,153.402z"/>
		<path d="M193.001,155.983l4.774-1.134l-1.284-1.537l-4.792,1.15l-0.575-0.725l4.774-1.135l-4.594-5.5l0.674-0.563l7.132,8.538
			l-0.674,0.563l-0.007-0.009l-4.767,1.144L193.001,155.983z"/>
		<path d="M190.73,162.194l-7.277-8.408l0.549-0.475l2.015,2.328l3.506,1.207l-0.63-3.696l-2.006-2.335l0.549-0.475l7.277,8.407
			l-0.548,0.475l-3.687-1.345l0.811,3.834L190.73,162.194z M186.874,156.63l3.447,3.982l-0.617-2.949L186.874,156.63z
			 M190.368,157.089l2.839,1.026l-3.455-3.991L190.368,157.089z"/>
		<path d="M178.204,173.849l-7.726-8.001l0.631-0.61l3.863,4.001l5.005-1.138l-1.108,5.106l-0.034,0.032L178.204,173.849z
			 M175.696,169.988l2.334,2.417l0.877-3.305L175.696,169.988z"/>
		<path d="M176.927,175.116l-3.278,0.284l-4.083-1.925l-3.364-3.358l0.538-0.539l3.265,3.259l3.785,1.792l2.798-0.25l0.099-0.1
			l-7.333-7.319l0.628-0.629l7.871,7.856L176.927,175.116z"/>
		<path d="M171.646,180.469l-8.001-7.712l0.609-0.631l8.001,7.711L171.646,180.469z"/>
		<path d="M165,179.268v0.017l-1.333,4.681l-5.631-5.281l0.616-0.643l4.598,4.261l1.414-4.681l5.147,4.762l-0.68,0.652L165,179.268z
			"/>
		<path d="M156.266,189.98l-4.646-4.021l0.574-0.664l4.974,4.305l1.837-0.763l0.77,0.667l-1.819,0.778l2.646,2.29l-0.574,0.664
			l-2.982-2.582l-1.828,0.771l-0.779-0.674L156.266,189.98z"/>
		<path d="M147.122,191.278l3.328,0.674l-1.256-3.155l0.653-0.782l1.661,4.149l3.769,0.768l1.419,4.237l-4.422-0.642l-1.426-3.572
			l-4.378-0.896L147.122,191.278z M151.905,193.168l1.028,2.568l2.531,0.405l-0.849-2.418L151.905,193.168z"/>
		<path d="M149.85,196.762l0.002,0.018l-1.074,4.771l-6.033-4.868l0.551-0.684l4.881,3.926l1.074-4.772l5.473,4.387l-0.558,0.693
			L149.85,196.762z"/>
		<path d="M144.873,205.882l3.09-0.393l-7.53-5.831l0.538-0.694l7.521,5.823l-0.391-3.073l0.926,0.717l0.471,3.698l-3.698,0.47
			L144.873,205.882z"/>
		<path d="M147.038,209.326l-5.708,0.795l0.638-2.812l-6.443-1.156l0.525-0.704l6.853,1.096l-0.462,2.578l3.671-0.533l-7.967-5.946
			l0.532-0.713l8.915,6.654l-0.329,0.441l-0.203,0.272L147.038,209.326z"/>
		<path d="M143.391,214.256l-3.19,0.807l-4.339-1.246l-3.859-2.775l0.444-0.618l3.745,2.693l4.024,1.163l2.722-0.696l0.082-0.114
			l-8.413-6.05l0.52-0.722l9.031,6.494L143.391,214.256z"/>
		<path d="M138.23,221.577l-0.419,0.606l-9.147-6.32l0.419-0.606l4.804,1.015l-2.642-4.144l0.406-0.587l9.153,6.311l-0.413,0.597
			l-4.861-1.055l2.706,4.174L138.23,221.577z M130.653,216.341l5.88,4.048l-2.07-3.222L130.653,216.341z M134.945,216.49
			l3.769,0.784l-5.902-4.078L134.945,216.49z"/>
		<path d="M124.59,222.01l0.473-0.739l9.371,5.977l-0.479,0.75l-0.148-0.095l-4.143-0.622l2.269,3.575l0.138,0.088l-0.479,0.749
			l-9.358-5.997l0.473-0.739l7.873,5.019l-2.245-3.504l4.123,0.567L124.59,222.01z"/>
		<path d="M127,233.045l2.042,2.808l-0.46,0.749l-3.347-4.643l-4.979-3.061l0.46-0.749l5,3.073l5.627,0.888l-0.46,0.749
			l-3.401-0.551l2.714,1.668l-0.46,0.749L127,233.045z"/>
		<path d="M118.306,232.108l0.447-0.756l9.587,5.643l-0.452,0.767l-0.151-0.089l-4.167-0.473l2.398,3.495l0.141,0.083l-0.452,0.767
			l-9.576-5.664l0.446-0.756l8.055,4.739l-2.371-3.425l4.145,0.419L118.306,232.108z"/>
		<path d="M124.958,242.771l-5.563,1.508l0.279-2.871l-6.539-0.335l0.433-0.765l6.938,0.225l-0.134,2.616l3.575-0.991l-8.654-4.897
			l0.438-0.775l9.683,5.479l-0.271,0.479l-0.167,0.296L124.958,242.771z"/>
		<path d="M110.864,245.259l4.822-0.72l-3.43-1.854l0.417-0.772l9.785,5.291l-0.418,0.772l-5.273-2.852l-6.438,1.124
			L110.864,245.259z"/>
		<path d="M118.438,254.739l-9.872-5.117l0.404-0.779l9.872,5.117L118.438,254.739z"/>
		<path d="M111.463,260.134l2.949-0.993l-8.522-4.23l0.391-0.786l8.512,4.225l-0.987-2.934l1.048,0.521l1.188,3.529l-3.529,1.188
			L111.463,260.134z"/>
		<path d="M109.505,265.656l3.857-3.036l-1.811-0.855l-3.867,3.056l-0.826-0.417l3.857-3.035l-6.481-3.063l0.375-0.794l10.06,4.755
			l-0.375,0.794l-0.01-0.005l-3.847,3.041L109.505,265.656z"/>
		<path d="M106.575,270.689l2.909-1.102l-8.671-3.908l0.36-0.8l8.661,3.903l-1.096-2.893l1.067,0.48l1.318,3.481l-3.481,1.318
			L106.575,270.689z"/>
		<path d="M108.637,275.524l-10.22-4.392l0.347-0.807l10.22,4.393L108.637,275.524z"/>
		<path d="M95.688,277.696l3.374-0.367l-2.152-2.623l0.385-0.943l2.839,3.448l3.821-0.411l2.636,3.605l-4.406,0.729l-2.441-2.969
			l-4.441,0.474L95.688,277.696z M100.817,278.046l1.758,2.134l2.533-0.381l-1.542-2.045L100.817,278.046z"/>
		<path d="M99.619,284.517l-5.735-2.219l0.317-0.819l6.14,2.375l1.473-1.34l0.95,0.368l-1.451,1.348l3.267,1.264l-0.317,0.819
			l-3.682-1.424l-1.461,1.344l-0.962-0.372L99.619,284.517z"/>
		<path d="M100.996,295.172l-2.826,1.685l-4.514,0.048l-4.491-1.555l0.249-0.719l4.358,1.509l4.188-0.037l2.408-1.446l0.046-0.133
			l-9.791-3.39l0.291-0.841l10.51,3.639L100.996,295.172z"/>
		<path d="M94.872,303.362l3.439-3.5l-9.602-3.118l0.271-0.835l10.582,3.436l-0.271,0.835l-0.011-0.003l-3.428,3.504L94.872,303.362
			z"/>
		<path d="M93.166,308.916l3.376-3.561l-9.655-2.946l0.256-0.84l10.64,3.247l-0.256,0.84l-0.011-0.003l-3.365,3.564L93.166,308.916z
			"/>
		<path d="M91.569,314.485l3.313-3.621l-1.926-0.551l-3.319,3.644l-0.883-0.277l3.313-3.621l-6.892-1.97l0.242-0.845l10.698,3.059
			l-0.241,0.845l-0.011-0.003l-3.302,3.624L91.569,314.485z"/>
		<path d="M93.188,320.932l-10.756-2.855l0.186-0.702l2.978,0.791l3.58-0.977l-2.604-2.703l-2.975-0.802l0.187-0.702l10.756,2.856
			l-0.187,0.702l-3.807,0.965l2.831,2.715L93.188,320.932z M86.865,318.502l5.095,1.353l-2.172-2.092L86.865,318.502z
			 M90.013,316.914l2.926-0.75l-5.106-1.356L90.013,316.914z"/>
		<path d="M81.29,322.69l4.484-1.912l-3.786-0.93l0.209-0.853l10.799,2.653l-0.209,0.853l-5.82-1.43l-5.945,2.71L81.29,322.69z"/>
		<path d="M79.907,328.637l3.269-0.914l-2.553-2.236l0.226-0.993l3.365,2.938l3.703-1.031l3.191,3.125l-4.229,1.44l-2.894-2.53
			l-4.305,1.194L79.907,328.637z M85.025,328.144l2.083,1.818l2.436-0.791l-1.855-1.766L85.025,328.144z"/>
		<path d="M85.14,342.647l2.97-3.906l-9.917-1.881l0.164-0.863l10.93,2.073l-0.164,0.863l-0.012-0.002l-2.958,3.909L85.14,342.647z"
			/>
		<path d="M84.154,348.372l2.895-3.958l-1.973-0.336l-2.899,3.981l-0.908-0.179l2.896-3.958l-7.06-1.205l0.148-0.865l10.959,1.87
			l-0.148,0.865l-0.011-0.002l-2.884,3.96L84.154,348.372z"/>
		<path d="M84.305,354.274l-1.019-0.154l-1.725-3.709l-2.177,3.106l-0.903-0.137l-2.353-4.799l0.131-0.869l11.002,1.667
			l-0.132,0.869L84.305,354.274z M81.166,349.581l-0.116-0.254l-4.053-0.614l1.965,3.994L81.166,349.581z M86.262,350.116
			l-4.065-0.616l-0.138,0.204l1.847,3.763L86.262,350.116z"/>
		<path d="M74.815,357.79l3.174-1.209l-2.749-1.996l0.134-1.01l3.623,2.62l3.596-1.366l3.466,2.823l-4.082,1.821l-3.116-2.257
			L74.68,358.8L74.815,357.79z M79.87,356.83l2.243,1.621l2.355-1.011l-2.011-1.59L79.87,356.83z"/>
		<path d="M85.532,361.665l-4.534,3.553l-0.86-2.75l-6.149,2.235l0.101-0.872l6.474-2.493l0.894,2.46l2.905-2.304l-9.871-1.14
			l0.102-0.884l11.045,1.276l-0.063,0.546l-0.039,0.337L85.532,361.665z"/>
		<path d="M84.695,369.527l-11.075-1.073l0.085-0.875l11.075,1.073L84.695,369.527z"/>
		<path d="M78.851,372.608l0.011,0.013l1.805,4.546l-7.727-0.618l0.069-0.875l6.245,0.49l-1.805-4.545l6.993,0.537l-0.07,0.887
			L78.851,372.608z"/>
		<path d="M78.549,386.531l-6.144-0.266l0.038-0.877l6.578,0.283l0.966-1.741l1.018,0.044l-0.942,1.742l3.5,0.15l-0.038,0.878
			l-3.944-0.169l-0.955,1.741l-1.03-0.045L78.549,386.531z"/>
		<path d="M83.338,392.307l-11.118-0.274l0.021-0.878l11.119,0.274L83.338,392.307z"/>
		<path d="M77.745,395.911l0.011,0.012l2.085,4.423l-7.748-0.133l0.014-0.878l6.262,0.098l-2.085-4.422l7.011,0.099l-0.014,0.89
			L77.745,395.911z"/>
		<path d="M83.268,404.027l-11.118,0.174l-0.014-0.878l11.118-0.174L83.268,404.027z"/>
		<path d="M83.527,413.681l-1.998,2.612l-4.171,1.719l-4.745,0.225l-0.036-0.761l4.605-0.217l3.873-1.588l1.699-2.234l-0.006-0.141
			l-10.344,0.486l-0.042-0.89l11.104-0.521L83.527,413.681z"/>
		<path d="M80.294,423.63l2.054-2.341l-9.502,0.621l-0.057-0.877l9.491-0.62l-2.329-2.043l1.169-0.076l2.802,2.458l-2.458,2.802
			L80.294,423.63z"/>
		<path d="M81.907,435.021l1.736-4.586l-1.991,0.201l-1.734,4.608l-0.922,0.069l1.736-4.586l-7.125,0.72l-0.088-0.873l11.061-1.282
			L84.668,430h-0.012l-1.725,4.752L81.907,435.021z"/>
		<path d="M82.593,440.771l1.653-4.62l-10.022,1.196l-0.104-0.872l11.046-1.318l0.104,0.872l-0.012,0.002l-1.642,4.618
			L82.593,440.771z"/>
		<path d="M86.258,443.907l-11.017,1.507l-0.119-0.869l11.017-1.508L86.258,443.907z"/>
		<path d="M87.44,451.771l-10.988,1.712l-0.135-0.868l5.494-0.854l1.95-4.746l3.537,3.845l0.007,0.047L87.44,451.771z M82.841,451.6
			l3.319-0.518l-2.196-2.619L82.841,451.6z"/>
		<path d="M87.747,453.523l-1.655,2.845l-3.925,2.23l-4.684,0.817l-0.131-0.75l4.545-0.793l3.646-2.063l1.406-2.433l-0.024-0.139
			l-10.209,1.782l-0.153-0.877l10.958-1.914L87.747,453.523z"/>
		<path d="M89.091,460.903l-10.915,2.115l-0.167-0.861l10.915-2.116L89.091,460.903z"/>
		<path d="M89.596,463.533l-1.951,4.896l2.861-0.605l0.182,0.857l-4.578,0.972l1.951-4.898l-7.439,1.577l3.771,3.686l-4.578,0.971
			l-0.182-0.858l2.861-0.605l-3.771-3.686L89.596,463.533z"/>
		<path d="M81.498,478.183l-0.213-0.851l10.782-2.708l0.216,0.863l-0.17,0.042l-3.298,2.586l4.158,0.806l0.159-0.04l0.215,0.863
			l-10.788,2.685l-0.213-0.852l9.057-2.275l-4.09-0.774l3.244-2.608L81.498,478.183z"/>
		<path d="M91.178,483.996l3.443,0.44l0.229,0.85l-5.673-0.75l-5.642,1.522l-0.229-0.849l5.665-1.528l4.506-3.483l0.229,0.848
			l-2.733,2.097l3.075-0.829l0.229,0.848L91.178,483.996z"/>
		<path d="M86.171,495.255l-0.26-0.839l10.622-3.302l0.263,0.851l-0.168,0.052l-3.151,2.767l4.198,0.575l0.157-0.05l0.263,0.851
			l-10.629,3.28l-0.26-0.84l8.922-2.774L92,495.276l3.096-2.785L86.171,495.255z"/>
		<path d="M96.826,502.621l0.707-4.856l-1.902,0.626l-0.699,4.88l-0.886,0.267l0.707-4.856l-6.808,2.241l-0.275-0.834l10.567-3.479
			l0.275,0.834l-0.011,0.004l-0.696,4.853L96.826,502.621z"/>
		<path d="M92.876,515.063l2.644-4.1l-3.659,1.353l-0.304-0.824l10.437-3.855l0.304,0.824l-5.625,2.078l-3.408,5.579L92.876,515.063
			z"/>
		<path d="M95.073,520.764l2.195-2.592l-3.37-0.42l-0.37-0.949l4.436,0.545l2.489-2.933l4.397,0.799l-2.694,3.565l-3.817-0.473
			l-2.895,3.405L95.073,520.764z M99.036,517.482l2.746,0.337l1.574-2.022l-2.528-0.422L99.036,517.482z"/>
		<path d="M107.971,522.955l-10.278,4.231l-0.276-0.671l2.846-1.172l2.255-2.939l-3.704-0.575l-2.85,1.161l-0.276-0.671
			l10.277-4.233l0.276,0.671l-2.443,3.069l3.892,0.447L107.971,522.955z M103.017,521.68l1.873-2.364l-4.879,2.009L103.017,521.68z
			 M101.474,524.846l4.868-2.005l-2.991-0.35L101.474,524.846z"/>
		<path d="M110.263,528.239l-10.205,4.421l-0.289-0.666l2.825-1.226l2.203-2.981l-3.716-0.508l-2.83,1.213l-0.289-0.666
			l10.205-4.421l0.289,0.666l-2.389,3.113l3.901,0.378L110.263,528.239z M105.284,527.053l1.831-2.399l-4.845,2.1L105.284,527.053z
			 M103.798,530.249l4.834-2.095l-2.999-0.296L103.798,530.249z"/>
		<path d="M102.101,537.159l2.046-2.707l-3.386-0.232l-0.422-0.927l4.457,0.298l2.321-3.063l4.432,0.553l-2.491,3.707l-3.835-0.259
			l-2.7,3.558L102.101,537.159z M105.873,533.666l2.759,0.184l1.458-2.104l-2.545-0.281L105.873,533.666z"/>
		<path d="M114.792,537.987l0.318,0.665l-10.031,4.799l-0.318-0.666l3.268-3.665l-4.909,0.232l-0.308-0.644l10.026-4.809
			l0.313,0.653l-3.332,3.695l4.968-0.274L114.792,537.987z M108.745,538.311l2.553-2.882l-6.473,3.098L108.745,538.311z
			 M106.482,541.962l6.436-3.091l-3.825,0.194L106.482,541.962z"/>
		<path d="M107.268,547.851l1.947-2.778l-3.392-0.109l-0.455-0.911l4.464,0.137l2.208-3.146l4.449,0.393l-2.355,3.795l-3.842-0.119
			l-2.57,3.651L107.268,547.851z M110.91,544.224l2.764,0.084l1.381-2.155l-2.554-0.188L110.91,544.224z"/>
		<path d="M112.686,558.094l2.016-4.438l-3.419,1.87l-0.421-0.771l9.756-5.335l0.421,0.771l-5.258,2.875l-2.555,6.013
			L112.686,558.094z"/>
		<path d="M115.685,563.42l1.795-2.883l-3.396,0.074l-0.504-0.887l4.469-0.105l2.037-3.263l4.467,0.149l-2.147,3.92l-3.846,0.089
			l-2.37,3.79L115.685,563.42z M119.128,559.598l2.766-0.065l1.264-2.229l-2.563-0.05L119.128,559.598z"/>
		<path d="M123.472,564.539l-5.287,3.141l-0.449-0.756l5.66-3.36l-0.144-1.985l0.876-0.521l0.164,1.975l3.011-1.789l0.448,0.756
			l-3.394,2.016l0.154,1.979l-0.886,0.525L123.472,564.539z"/>
		<path d="M124.782,567.813l0.016,0.004l4.142,2.597l-6.592,4.07l-0.462-0.746l5.323-3.298l-4.142-2.598l5.953-3.702l0.468,0.757
			L124.782,567.813z"/>
		<path d="M123.196,575.818l-0.476-0.737l9.343-6.041l0.482,0.748l-0.147,0.096l-2.292,3.514l4.199-0.576l0.138-0.089l0.482,0.747
			l-9.356,6.021l-0.476-0.738l7.848-5.074l-4.125,0.584l2.233-3.519L123.196,575.818z"/>
		<path d="M138.108,578.258l-9.234,6.189l-0.489-0.729l4.617-3.095l-0.237-5.124l4.828,1.99l0.026,0.039L138.108,578.258z
			 M133.868,580.044l2.79-1.87l-3.096-1.446L133.868,580.044z"/>
		<path d="M139.128,579.726l-0.297,3.275l-2.613,3.68l-3.896,2.721l-0.437-0.624l3.782-2.641l2.431-3.409l0.245-2.797l-0.08-0.114
			l-8.494,5.928l-0.509-0.729l9.118-6.362L139.128,579.726z"/>
		<path d="M142.15,589.519l-0.803-4.837l-1.621,1.175l0.817,4.855l-0.762,0.523l-0.803-4.838l-5.799,4.202l-0.515-0.711l9.002-6.522
			l0.515,0.711l-0.009,0.007l0.813,4.83L142.15,589.519z"/>
		<path d="M145.166,594.515l0.436-3.081l-7.604,5.72l-0.528-0.702l7.595-5.711L142,590.305l0.935-0.703l3.688,0.521l-0.522,3.688
			L145.166,594.515z"/>
		<path d="M158.481,604.966l0.474,0.565l-8.524,7.146l-0.474-0.563l2.253-4.365l-4.698,1.449l-0.459-0.548l8.516-7.155l0.466,0.557
			l-2.308,4.409l4.745-1.502L158.481,604.966z M152.703,606.785l1.756-3.428l-5.5,4.61L152.703,606.785z M151.42,610.886
			l5.465-4.598l-3.657,1.142L151.42,610.886z"/>
		<path d="M160.14,606.888l0.054,3.292l-2.207,3.939l-3.587,3.123l-0.5-0.574l3.481-3.03l2.055-3.651l-0.055-2.811l-0.092-0.105
			l-7.819,6.807l-0.584-0.672l8.393-7.306L160.14,606.888z"/>
		<path d="M165.089,612.499l-8.249,7.451l-0.588-0.651l8.248-7.451L165.089,612.499z"/>
		<path d="M163.462,619h0.016l4.571,1.695l-5.665,5.266l-0.6-0.65l4.572-4.281l-4.571-1.736l5.11-4.799l0.608,0.688L163.462,619z"/>
		<path d="M176.2,628.699l-1.569-4.647l-1.412,1.419l1.585,4.665l-0.668,0.64l-1.569-4.647l-5.052,5.08l-0.623-0.619l7.842-7.886
			l0.623,0.619l-0.008,0.008l1.577,4.64L176.2,628.699z"/>
		<path d="M179.767,627.664l0.351,3.271l-1.842,4.122l-3.29,3.434l-0.549-0.527l3.192-3.33l1.716-3.821l-0.308-2.793l-0.102-0.097
			l-7.171,7.481l-0.642-0.616l7.697-8.03L179.767,627.664z"/>
		<path d="M184.264,637.119l-0.121-3.109l-6.463,6.983l-0.644-0.596l6.455-6.977l-3.093,0.12l0.795-0.859l3.722-0.145l0.144,3.722
			L184.264,637.119z"/>
		<path d="M180.452,643.528l-0.656-0.585l7.398-8.314l0.665,0.593l-0.117,0.131l-1.273,3.998l3.896-1.675l0.109-0.123l0.665,0.593
			l-7.416,8.3l-0.656-0.585l6.213-6.985l-3.821,1.663l1.216-3.986L180.452,643.528z"/>
		<path d="M198.087,644.076l-7.103,8.553l-0.675-0.561l7.103-8.554L198.087,644.076z"/>
		<path d="M200.886,646.372l0.604,5.728l-2.788-0.729l-1.369,6.396l-0.686-0.548l1.324-6.809l2.559,0.548l-0.41-3.685l-6.205,7.76
			l-0.695-0.557l6.944-8.683l0.429,0.343l0.265,0.213L200.886,646.372z"/>
		<path d="M205.683,650.171l0.702,3.215l-1.386,4.296l-2.899,3.768l-0.603-0.464l2.813-3.655l1.293-3.983l-0.607-2.742l-0.111-0.085
			l-6.32,8.21l-0.705-0.543l6.784-8.813L205.683,650.171z"/>
		<path d="M209.936,653.428l0.812,5.703l-2.812-0.629l-1.137,6.442l-0.705-0.522l1.076-6.853l2.577,0.453l-0.543-3.666l-5.92,7.979
			l-0.714-0.53l6.625-8.93l0.442,0.328l0.272,0.202L209.936,653.428z"/>
		<path d="M208.068,665.864l-0.714-0.512l6.456-9.052l0.724,0.519l-0.102,0.143l-0.835,4.107l3.689-2.082l0.095-0.134l0.724,0.518
			l-6.475,9.038l-0.714-0.51l5.421-7.605l-3.617,2.063l0.779-4.089L208.068,665.864z"/>
		<path d="M226.916,665.328l0.615,0.408l-6.146,9.276l-0.615-0.408l0.922-4.826l-4.096,2.725L217,672.108l6.137-9.283l0.605,0.399
			l-0.961,4.888l4.125-2.79L226.916,665.328z M221.89,668.716l0.71-3.787l-3.966,5.986L221.89,668.716z M221.824,673.014
			l3.937-5.963l-3.184,2.134L221.824,673.014z"/>
		<path d="M225.517,677.65l0.241-3.386l-2.966,1.649l-0.859-0.547l3.899-2.179l0.277-3.834l4.018-1.951l-0.069,4.466l-3.357,1.872
			l-0.325,4.455L225.517,677.65z M226.776,672.666l2.414-1.35l0.076-2.561l-2.288,1.151L226.776,672.666z"/>
		<path d="M235.583,674.565l-2.607-4.158l-5.261,8.615l-0.75-0.459l5.798-9.493l0.75,0.457l-0.006,0.011l2.613,4.146
			L235.583,674.565z"/>
		<path d="M235.698,683.805l0.116-3.394l-2.904,1.759l-0.879-0.515l3.818-2.322l0.135-3.843l3.944-2.101l0.096,4.469l-3.287,1.994
			l-0.161,4.467L235.698,683.805z M236.772,678.775l2.363-1.438l-0.018-2.562l-2.245,1.234L236.772,678.775z"/>
		<path d="M243.441,675.427l1.524,5.56l-2.871-0.271l-0.317,6.538l-0.766-0.43l0.205-6.938l2.615,0.127l-1.001-3.571l-4.871,8.667
			l-0.776-0.437l5.451-9.698l0.479,0.271l0.296,0.167L243.441,675.427z"/>
		<path d="M255.305,681.849l-5.103,9.887l-0.781-0.402l5.103-9.887L255.305,681.849z"/>
		<path d="M258.377,688.967l-2.716,5.511l-0.788-0.388l2.907-5.898l-1.203-1.585l0.45-0.913l1.213,1.563l1.546-3.139l0.788,0.388
			l-1.743,3.538l1.208,1.573l-0.455,0.924L258.377,688.967z"/>
		<path d="M268.762,688.382l2.02,5.396l-2.883-0.011l0.274,6.538l-0.801-0.358l-0.422-6.925l2.616-0.11l-1.319-3.466l-4.068,9.067
			l-0.812-0.363l4.552-10.146l0.502,0.226l0.311,0.139L268.762,688.382z"/>
		<path d="M269.589,700.922l-0.808-0.346l4.366-10.238l0.819,0.351l-0.069,0.161l0.066,4.195l3.16-2.829l0.064-0.149l0.818,0.351
			l-4.388,10.229l-0.809-0.346l3.667-8.602l-3.094,2.793l-0.117-4.166L269.589,700.922z"/>
		<path d="M278.443,692.604l2.966,4.365l1.103-2.712l0.813,0.33l-1.765,4.34l-2.966-4.365l-2.867,7.052l5.172-1.06l-1.765,4.341
			l-0.813-0.33l1.103-2.713l-5.171,1.059L278.443,692.604z"/>
		<path d="M284.622,695.093l2.306,5.28l-2.879,0.146l0.626,6.517l-0.818-0.316l-0.793-6.894l2.605-0.25l-1.504-3.391l-3.575,9.274
			l-0.831-0.32l4.001-10.379l0.513,0.198l0.317,0.122L284.622,695.093z"/>
		<path d="M286.147,707.575l-0.824-0.3l3.787-10.456l0.836,0.304l-0.061,0.165l0.299,4.182l2.995-2.997l0.057-0.152l0.836,0.304
			l-3.81,10.447l-0.824-0.3l3.179-8.783l-2.931,2.958l-0.348-4.149L286.147,707.575z"/>
		<path d="M291.75,709.578l-0.831-0.285l3.609-10.522l0.831,0.284l-1.061,3.091l2.765,2.769l1.619-4.719l0.831,0.284l-3.608,10.523
			l-0.831-0.285l0.848-2.47l-2.792-2.691L291.75,709.578z M293.426,704.693l2.791,2.689l0.563-1.64l-2.762-2.779L293.426,704.693z"
			/>
		<path d="M297.382,711.502l-0.835-0.27l3.41-10.587l0.847,0.273l-0.054,0.167l0.449,4.169l2.885-3.103l0.051-0.156l0.847,0.272
			l-3.433,10.578l-0.835-0.27l2.863-8.894l-2.823,3.063l-0.497-4.135L297.382,711.502z"/>
		<path d="M307.06,708.104l-1.777,5.881l-0.84-0.254l1.903-6.296l-1.444-1.365l0.295-0.975l1.451,1.345l1.014-3.351l0.84,0.255
			l-1.142,3.774l1.448,1.354l-0.298,0.985L307.06,708.104z"/>
		<path d="M315.269,705.306l0.709,0.201l-3.029,10.698l-0.709-0.201l-0.59-4.874l-3.069,3.838l-0.687-0.193l3.019-10.701
			l0.698,0.197l0.57,4.941l3.078-3.909L315.269,705.306z M311.514,710.058l-0.475-3.819l-1.955,6.902L311.514,710.058z
			 M312.759,714.169l1.935-6.873l-2.382,2.999L312.759,714.169z"/>
		<path d="M314.465,716.613l-0.849-0.225l2.83-10.759l0.859,0.228l-0.045,0.17l0.675,4.14l2.714-3.257l0.041-0.158l0.86,0.228
			l-2.853,10.754l-0.85-0.226l2.375-9.038l-2.652,3.212l-0.722-4.103L314.465,716.613z"/>
		<path d="M322.906,707.319l2.961,4.938l-2.835,0.513l1.454,6.379l-0.854-0.209l-1.668-6.731l2.551-0.581l-1.924-3.169l-2.356,9.651
			l-0.864-0.211l2.638-10.801l0.535,0.131l0.33,0.081L322.906,707.319z"/>
		<path d="M330.574,709.118l-2.436,10.856l-0.856-0.191l2.436-10.857L330.574,709.118z"/>
		<path d="M337.603,714.499l-1.713-2.602l-1.923,9.327l-0.86-0.177l1.92-9.316l-2.588,1.702l0.235-1.146l3.114-2.05l2.049,3.113
			L337.603,714.499z"/>
		<path d="M347.353,712.394l-1.842,10.975l-0.867-0.146l1.842-10.974L347.353,712.394z"/>
		<path d="M352.446,718.24l-0.913,6.08l-0.869-0.131l0.978-6.51l-1.628-1.145l0.151-1.007l1.632,1.121l0.521-3.464l0.869,0.131
			l-0.587,3.902l1.63,1.133l-0.152,1.021L352.446,718.24z"/>
		<path d="M361.264,714.429l0.872,0.1l-0.624,5.521l4.646-1.83l-0.122,0.869l-4.623,1.833l-0.197,1.744l4.623-1.833l-0.099,0.872
			l-4.623,1.833l-0.23,2.035l-0.872-0.1L361.264,714.429z"/>
		<path d="M370.15,726.542l-1.325-3.126l-1.894,2.818l-1.014-0.098l2.484-3.715l-1.497-3.543l2.692-3.565l1.971,4.012l-2.142,3.195
			l1.736,4.117L370.15,726.542z M369.005,721.527l1.538-2.301l-1.097-2.315l-1.516,2.065L369.005,721.527z"/>
		<path d="M377.709,719.222l-4.209-2.521l-0.776,10.062l-0.875-0.066l1.065-11.089l1.086,0.066v0.013l3.999,2.509L377.709,719.222z"
			/>
		<path d="M379.739,716.119l2.389,2.263l1.27,4.332l-0.278,4.746l-0.76-0.045l0.271-4.605l-1.171-4.021l-2.045-1.926l-0.142-0.009
			l-0.606,10.345l-0.888-0.054l0.651-11.104L379.739,716.119z"/>
		<path d="M384.153,716.37l4.271,3.104l0.118-2.926l0.878,0.035l-0.188,4.682l-4.271-3.104l-0.308,7.606l4.507-2.748l-0.189,4.682
			l-0.877-0.035l0.118-2.926l-4.507,2.748L384.153,716.37z"/>
		<path d="M395.097,720.537l-2.148-2.252l-0.224,9.515l-0.878-0.021l0.224-9.503l-2.24,2.137l0.027-1.17l2.694-2.571l2.571,2.694
			L395.097,720.537z"/>
		<path d="M401,720.011l-4.354-2.257l-0.031,2.001l4.378,2.258l-0.038,0.924l-4.354-2.257l-0.111,7.162l-0.877-0.014l0.343-11.118
			l1.047,0.014v0.013l4.186,2.245L401,720.011z"/>
		<path d="M406.95,720.492l-2.235-2.166l0.149,9.516l-0.878,0.015l-0.148-9.505l-2.153,2.224l-0.02-1.17l2.592-2.676l2.675,2.594
			L406.95,720.492z"/>
		<path d="M408.659,727.771l-0.878,0.026l-0.359-11.118l0.89-0.027l0.006,0.176l1.828,3.772l1.671-3.895l-0.005-0.164l0.89-0.027
			l0.336,11.118l-0.878,0.027l-0.304-9.339l-1.625,3.835l-1.862-3.727L408.659,727.771z"/>
		<path d="M418.761,716.214l0.877-0.059l0.369,5.552l4.251-2.631l0.035,0.878l-4.228,2.63l0.116,1.753l4.229-2.63l0.058,0.877
			l-4.228,2.63l0.137,2.045l-0.877,0.06L418.761,716.214z"/>
		<path d="M426.31,726.841l-0.873,0.074l-0.955-11.073l0.887-0.076l0.016,0.176l2.026,3.668l1.458-3.977l-0.014-0.163l0.886-0.075
			l0.931,11.075l-0.874,0.074l-0.804-9.302l-1.416,3.913l-2.059-3.617L426.31,726.841z"/>
		<path d="M435.775,718.007l-4.593-1.725l1.039,10.036l-0.873,0.09l-1.184-11.062l0.834-0.09v0.013l4.629,1.713L435.775,718.007z"/>
		<path d="M438.978,714.373l1.349,11.046l-0.872,0.106l-1.35-11.046L438.978,714.373z"/>
		<path d="M447.384,717.095l-2.483-1.877l1.314,9.43l-0.87,0.12l-1.313-9.416l-1.866,2.472l-0.161-1.16l2.245-2.973l2.973,2.244
			L447.384,717.095z"/>
		<path d="M455.687,723.172l-0.865,0.153l-1.954-10.957l0.877-0.155l0.03,0.174l2.353,3.475l1.095-4.098l-0.027-0.161l0.876-0.155
			l1.93,10.96l-0.865,0.152l-1.644-9.202l-1.06,4.029l-2.379-3.421L455.687,723.172z"/>
		<path d="M460.461,716.637l0.009-0.014l3.896-2.955l1.474,7.608l-0.86,0.168l-1.2-6.147l-3.896,2.956l-1.354-6.881l0.873-0.17
			L460.461,716.637z"/>
		<path d="M466.179,715.499l0.01-0.015l3.84-3.026l1.614,7.578l-0.857,0.185l-1.314-6.123l-3.84,3.027l-1.481-6.853l0.868-0.188
			L466.179,715.499z"/>
		<path d="M473.178,719.685l-0.854,0.2l-2.548-10.825l0.865-0.202l0.04,0.171l2.537,3.337l0.868-4.146l-0.037-0.16l0.866-0.202
			l2.525,10.83l-0.855,0.2l-2.142-9.093l-0.837,4.079l-2.562-3.283L473.178,719.685z"/>
		<path d="M487.68,716.021l-3.849-2.988l1.025,3.761l-0.847,0.229l-2.929-10.727l0.847-0.23l1.578,5.78l5.257,3.88L487.68,716.021z"
			/>
		<path d="M489.296,704.004l3.117,10.669l-0.843,0.246l-3.116-10.669L489.296,704.004z"/>
		<path d="M497.856,704.745l-4.842-0.778l3.013,9.628l-0.839,0.264l-3.318-10.611l0.838-0.262l0.004,0.011l4.838,0.768
			L497.856,704.745z"/>
		<path d="M503.37,702.92l-4.855-0.692l3.184,9.575l-0.833,0.277l-3.509-10.553l0.834-0.277l0.004,0.012l4.852,0.682L503.37,702.92z
			"/>
		<path d="M504.036,699.274l3.079,1.162l2.849,3.506l1.58,4.484l-0.718,0.253l-1.533-4.353l-2.637-3.257l-2.632-0.985l-0.133,0.047
			l3.442,9.777l-0.84,0.296l-3.696-10.495L504.036,699.274z"/>
		<path d="M513.152,695.962l3.885,10.422l-0.681,0.254l-1.074-2.886l-2.865-2.354l-0.701,3.685l1.064,2.89l-0.68,0.254
			l-3.886-10.423l0.681-0.254l2.985,2.548l0.58-3.877L513.152,695.962z M511.709,700.873l-2.302-1.953l1.844,4.947L511.709,700.873z
			 M514.824,702.523l-1.841-4.938l-0.451,2.979L514.824,702.523z"/>
		<path d="M523.007,691.988l0.682-0.282l4.263,10.277l-0.683,0.281l-3.487-3.46l-0.027,4.918l-0.66,0.274l-4.271-10.273l0.671-0.277
			l3.516,3.524l-0.011-4.979L523.007,691.988z M523.01,698.048l-2.744-2.704l2.75,6.632L523.01,698.048z M526.538,700.503
			l-2.748-6.595l-0.008,3.832L526.538,700.503z"/>
		<path d="M532.478,700.015l-2.675-2.089l-0.286,3.382l-0.933,0.407l0.367-4.452l-3.027-2.369l0.623-4.423l3.668,2.55l-0.318,3.83
			l3.516,2.758L532.478,700.015z M529.044,696.188l0.227-2.757l-2.082-1.491l-0.319,2.541L529.044,696.188z"/>
		<path d="M535.522,689.955l-4.901-0.158l4.209,9.168l-0.798,0.366l-4.639-10.104l0.797-0.366l0.006,0.011l4.896,0.146
			L535.522,689.955z"/>
		<path d="M543.264,695.013l-2.749-1.992l-0.166,3.392l-0.918,0.44l0.209-4.466l-3.111-2.262l0.466-4.444l3.759,2.419l-0.184,3.843
			l3.612,2.631L543.264,695.013z M539.693,691.309l0.129-2.764l-2.136-1.418l-0.229,2.553L539.693,691.309z"/>
		<path d="M540.627,683.917l5.459,1.837l-1.825,2.229l5.245,3.909l-0.784,0.396l-5.638-4.04l1.563-2.098l-3.521-1.162l4.469,8.874
			l-0.794,0.399l-5.001-9.93l0.491-0.248l0.303-0.152L540.627,683.917z"/>
		<path d="M550.88,691.18l-0.777,0.409l-5.185-9.838l0.787-0.414l0.082,0.156l3.294,2.592l-0.202-4.231l-0.076-0.145l0.787-0.414
			l5.165,9.848l-0.777,0.409l-4.356-8.263l0.216,4.158l-3.303-2.535L550.88,691.18z"/>
		<path d="M561.226,685.568l-0.763,0.438l-5.547-9.647l0.771-0.443l0.089,0.152l3.39,2.473l-0.355-4.227l-0.082-0.143l0.771-0.442
			l5.527,9.66l-0.764,0.438l-4.66-8.104l0.367,4.151l-3.396-2.414L561.226,685.568z"/>
		<path d="M561.019,672.829l3.25,0.527l3.489,2.868l2.44,4.082l-0.653,0.392l-2.369-3.962l-3.231-2.667l-2.776-0.442l-0.12,0.072
			l5.32,8.898l-0.764,0.457l-5.713-9.553L561.019,672.829z"/>
		<path d="M572.728,670.778l0.996-1.691l-0.443-3.896l0.736-0.479l0.508,4.553l0.013,0.021l-0.01,0.007l-0.245,0.354l-1.077,1.868
			l3.182,4.913l-0.736,0.479l-6.056-9.329l0.747-0.483l1.643,2.535l0.509-0.636l-0.244-3.134l0.776-0.503l0.275,3.614l0.013,0.021
			l-0.002,0.016l-0.256,0.36l-0.646,0.92L572.728,670.778z M573.465,669.269l0.004-0.016l0.007,0.01L573.465,669.269z"/>
		<path d="M575.522,663.733l3.269,0.353l3.633,2.674l2.651,3.939l-0.631,0.425l-2.573-3.823l-3.365-2.486l-2.792-0.294l-0.116,0.078
			l5.779,8.59l-0.737,0.495l-6.203-9.219L575.522,663.733z"/>
		<path d="M585.549,670.373l-0.774-3.273l-2.175-1.452l-0.866-2.753l-2.504-1.68l0.661-0.463l3.99,2.641l-1.111-4.653l0.683-0.479
			l0.801,3.271l2.046,1.371l0.822,2.627l2.747,1.822l-0.721,0.503l-4.023-2.688l1.146,4.702L585.549,670.373z M584.508,665.984
			l-0.36-1.479l-1.301-0.877l0.474,1.514L584.508,665.984z M584.86,664.036l1.386,0.918l-0.479-1.523l-1.253-0.81L584.86,664.036z"
			/>
		<path d="M586.386,656.139l6.538,9.002l-0.711,0.517l-6.538-9.001L586.386,656.139z"/>
		<path d="M594.688,653.968l-4.819,0.897l1.206,1.597l4.839-0.911l0.538,0.752l-4.82,0.897l4.314,5.715l-0.7,0.528l-6.697-8.871
			l0.7-0.528l0.007,0.009l4.813-0.905L594.688,653.968z"/>
		<path d="M599.619,650.853l-3.09-0.375l5.868,7.492l-0.691,0.541l-5.86-7.482l-0.374,3.072l-0.722-0.922l0.45-3.696l3.697,0.448
			L599.619,650.853z"/>
		<path d="M607.659,645.742l3.965,4.702l-0.672,0.565l-4.244-5.033l-1.936,0.468l-0.657-0.779l1.92-0.484l-2.258-2.679l0.672-0.566
			l2.545,3.02l1.928-0.478l0.665,0.788L607.659,645.742z"/>
		<path d="M607.361,639.452l3.291-0.062l3.942,2.199l3.129,3.581l-0.572,0.501l-3.036-3.475l-3.655-2.048l-2.81,0.06l-0.105,0.093
			l6.819,7.806l-0.67,0.586l-7.321-8.379L607.361,639.452z"/>
		<path d="M616.775,635.379l-4.721,1.326l6.773,7.471l-0.649,0.59l-7.466-8.232l0.65-0.59l0.008,0.009l4.712-1.335L616.775,635.379z
			"/>
		<path d="M620.992,631.406l-4.7,1.415l6.919,7.353l-0.64,0.603l-7.625-8.104l0.64-0.603l0.008,0.009l4.691-1.424L620.992,631.406z"
			/>
		<path d="M625.159,627.354l-4.671,1.5l1.397,1.434l4.688-1.519l0.63,0.68l-4.671,1.5l5.005,5.127l-0.628,0.612l-7.771-7.957
			l0.628-0.613l0.009,0.008l4.662-1.509L625.159,627.354z"/>
		<path d="M627.215,620.711l5.149-1.154l-2.117-2.021l0.607-0.635l3.387,3.233l-5.149,1.154l5.505,5.257l0.915-5.198l3.389,3.235
			l-0.606,0.635l-2.117-2.021l-0.916,5.196L627.215,620.711z"/>
		<path d="M637.115,614.872l-4.585,1.743l1.472,1.355l4.601-1.761l0.664,0.646l-4.585,1.742l5.268,4.856l-0.595,0.646l-8.177-7.538
			l0.595-0.646l0.01,0.008l4.576-1.751L637.115,614.872z"/>
		<path d="M635.685,611.627l5.758-0.307l-0.875,2.748l6.324,1.702l-0.584,0.655l-6.737-1.677l0.681-2.53l-3.705,0.22l7.438,6.606
			l-0.592,0.666l-8.32-7.394l0.365-0.411l0.226-0.254L635.685,611.627z"/>
		<path d="M640.871,605.709l8.451,7.233l-0.571,0.667l-8.451-7.233L640.871,605.709z"/>
		<path d="M648.444,601.661l-4.487,1.992l1.545,1.274l4.502-2.01l0.699,0.607l-4.487,1.991l5.528,4.566l-0.561,0.678l-8.581-7.089
			l0.56-0.678l0.01,0.008l4.479-2L648.444,601.661z"/>
		<path d="M652.542,597.479l-3.093,0.352l7.442,5.93l-0.547,0.688l-7.434-5.923l0.348,3.075l-0.916-0.729l-0.418-3.701l3.7-0.419
			L652.542,597.479z"/>
		<path d="M650.647,593.698l3.214-0.708l4.3,1.379l3.771,2.893l-0.463,0.604l-3.661-2.809l-3.986-1.286l-2.742,0.612l-0.085,0.111
			l8.224,6.307l-0.541,0.706l-8.828-6.77L650.647,593.698z"/>
		<path d="M653.913,589.414l5.703-0.822l-0.624,2.813l6.446,1.126l-0.521,0.706l-6.855-1.064l0.449-2.578l-3.667,0.55l7.993,5.907
			l-0.529,0.716l-8.942-6.609l0.325-0.442l0.203-0.273L653.913,589.414z"/>
		<path d="M673.039,581.601l-0.483,0.733l-9.298-6.107l0.489-0.742l0.146,0.096l4.139,0.678l-2.225-3.607l-0.137-0.091l0.489-0.742
			l9.286,6.127l-0.483,0.732l-7.812-5.129l2.199,3.537l-4.118-0.622L673.039,581.601z"/>
		<path d="M670.775,570.546l-2.003-2.831l0.47-0.741l3.283,4.681l4.934,3.122l-0.469,0.74l-4.954-3.134l-5.609-0.96l0.471-0.742
			l3.39,0.596l-2.689-1.702l0.471-0.741L670.775,570.546z"/>
		<path d="M681.108,568.86l-4.853,0.479l3.333,2.022l-0.456,0.75l-9.509-5.771l0.455-0.75l5.125,3.109l6.486-0.805L681.108,568.86z"
			/>
		<path d="M682.529,566.482l-0.441,0.759l-9.617-5.585l0.448-0.771l0.151,0.089l4.168,0.448l-2.417-3.479l-0.143-0.082l0.447-0.771
			l9.605,5.606l-0.441,0.758l-8.079-4.689l2.39,3.41l-4.146-0.396L682.529,566.482z"/>
		<path d="M675.358,556.695l4.695-2.407l-2.557-1.427l0.429-0.768l4.089,2.282l-4.694,2.407l6.645,3.709l-0.415-5.261l4.089,2.282
			l-0.428,0.768l-2.556-1.428l0.415,5.262L675.358,556.695z"/>
		<path d="M684.008,548.829l-2.978,0.9l8.386,4.49l-0.414,0.773l-8.376-4.485l0.896,2.962l-1.031-0.552l-1.078-3.563l3.563-1.077
			L684.008,548.829z"/>
		<path d="M691.181,550.88l-0.4,0.782l-9.905-5.063l0.405-0.792l0.156,0.08l4.188,0.226l-2.602-3.347l-0.146-0.074l0.406-0.792
			l9.896,5.084l-0.399,0.781l-8.322-4.252l2.57,3.278l-4.162-0.173L691.181,550.88z"/>
		<path d="M684.062,540.331l3.01-1.329l4.483,0.499l4.27,2.088l-0.334,0.685l-4.144-2.026l-4.16-0.471l-2.564,1.143l-0.063,0.126
			l9.306,4.551l-0.393,0.8l-9.986-4.886L684.062,540.331z"/>
		<path d="M686.409,535.479l5.428-1.934l-0.056,2.883l6.543-0.172l-0.372,0.795l-6.932,0.313l-0.068-2.617l-3.486,1.265l9.003,4.21
			l-0.377,0.808l-10.074-4.712l0.233-0.498l0.144-0.309L686.409,535.479z"/>
		<path d="M696.16,527.36l-0.006-0.017l-0.271-4.879l7.127,3.03l-0.342,0.809l-5.764-2.44l0.271,4.88l-6.457-2.723l0.348-0.818
			L696.16,527.36z"/>
		<path d="M694.103,517.859l10.32,4.146l-0.327,0.815l-10.319-4.146L694.103,517.859z"/>
		<path d="M700.896,514.143l5.744,2.188l-0.313,0.821l-6.148-2.343l-1.465,1.348l-0.952-0.362l1.442-1.354l-3.271-1.246l0.313-0.82
			l3.687,1.404l1.454-1.352l0.963,0.366L700.896,514.143z"/>
		<path d="M702.509,506.339l-2.816,1.325l8.957,3.226l-0.299,0.826l-8.944-3.222l1.317,2.802l-1.102-0.396l-1.587-3.371l3.372-1.586
			L702.509,506.339z"/>
		<path d="M712.782,498.64l-3.337,0.629l2.352,2.449l-0.311,0.972l-3.103-3.22l-3.779,0.708l-2.911-3.391l4.339-1.07l2.667,2.771
			l4.394-0.819L712.782,498.64z M707.639,498.688l-1.921-1.99l-2.496,0.578l1.696,1.92L707.639,498.688z"/>
		<path d="M714.474,493.103l-4.576,1.682l3.733,1.123l-0.253,0.841l-10.654-3.204l0.254-0.841l5.741,1.727l6.079-2.402
			L714.474,493.103z"/>
		<path d="M716.103,487.396l-4.546,1.767l3.755,1.052l-0.235,0.846l-10.713-3l0.236-0.846l5.773,1.617l6.031-2.52L716.103,487.396z"
			/>
		<path d="M710.292,478.509l-3.229,3.692l1.938,0.506l3.232-3.715l0.89,0.257l-3.229,3.692l6.93,1.812l-0.223,0.849l-10.756-2.812
			l0.222-0.85l0.013,0.003l3.216-3.695L710.292,478.509z"/>
		<path d="M718.31,478.966l-0.207,0.854l-10.816-2.6l0.209-0.863l0.171,0.04l4.123-0.764l-3.313-2.643l-0.158-0.039l0.209-0.865
			l10.812,2.621l-0.206,0.854l-9.087-2.181l3.269,2.584l-4.086,0.81L718.31,478.966z"/>
		<path d="M720.374,470.06l-4.438,2.015l3.806,0.844l-0.189,0.857l-10.856-2.406l0.188-0.857l5.853,1.297l5.882-2.845
			L720.374,470.06z"/>
		<path d="M714.077,461.521l-3.021,3.866l1.963,0.398l3.025-3.89l0.901,0.207l-3.021,3.866l7.022,1.429l-0.176,0.86l-10.899-2.218
			l0.175-0.86l0.012,0.003l3.011-3.869L714.077,461.521z"/>
		<path d="M715.705,455.923l-2.564,1.768l9.365,1.725l-0.158,0.864l-9.354-1.724l1.758,2.552l-1.151-0.212l-2.114-3.069l3.068-2.114
			L715.705,455.923z"/>
		<path d="M724.563,446.816l-4.284,2.325l3.856,0.569l-0.129,0.868l-11.002-1.623l0.128-0.869l5.931,0.875l5.663-3.259
			L724.563,446.816z"/>
		<path d="M713.967,442.234l2.424-2.227l4.409-0.967l4.715,0.606l-0.098,0.755l-4.575-0.589l-4.093,0.89l-2.063,1.906l-0.02,0.14
			l10.276,1.323l-0.113,0.882l-11.031-1.42L713.967,442.234z"/>
		<path d="M714.526,437.832l3.392-4.045l-2.911-0.32l0.098-0.874l4.655,0.514l-3.391,4.046l7.567,0.833l-2.431-4.688l4.656,0.513
			l-0.096,0.873l-2.911-0.319l2.431,4.687L714.526,437.832z"/>
		<path d="M715.438,429.075l11.073,1.015l-0.08,0.874l-11.073-1.015L715.438,429.075z"/>
		<path d="M716,421.865l0.065-0.735l11.095,0.826l-0.054,0.735l-4.655,1.555l4.376,2.239l-0.053,0.712l-11.091-0.814l0.055-0.724
			l4.718-1.55L716,421.877V421.865z M721.429,424.592l-3.647,1.231l7.155,0.531L721.429,424.592z M725.208,422.55l-7.122-0.519
			l3.416,1.732L725.208,422.55z"/>
		<path d="M719.614,415.573l-2.433,4.26l1.999,0.112l2.434-4.284l0.922,0.075l-2.432,4.261l7.152,0.401l-0.049,0.877l-11.104-0.512
			l0.05-0.765h0.012l2.42-4.373L719.614,415.573z"/>
		<path d="M720.419,409.801l-2.283,2.117l9.516,0.359l-0.033,0.878l-9.503-0.359l2.104,2.271l-1.17-0.045l-2.533-2.732l2.732-2.533
			L720.419,409.801z"/>
		<path d="M719.958,403.998l-2.273,4.347l2.002,0.039l2.273-4.37l0.924,0.042l-2.273,4.347l7.163,0.141l-0.019,0.878l-11.118-0.38
			l0.019-1.04h0.012l2.264-4.184L719.958,403.998z"/>
		<path d="M720.6,397.949l-2.233,2.166l9.515,0.148l-0.014,0.878l-9.503-0.148l2.154,2.223l-1.172-0.019l-2.592-2.675l2.675-2.593
			L720.6,397.949z"/>
		<path d="M721.525,388.432l6.145-0.208l0.029,0.877l-6.577,0.224l-0.829,1.809l-1.019,0.035l0.806-1.809l-3.499,0.118l-0.03-0.877
			l3.944-0.134l0.816-1.809l1.03-0.035L721.525,388.432z"/>
		<path d="M727.35,381.242l-2.896,1.769l3.064,1.457l0.054,1.018l-4.037-1.911l-3.283,2l-3.921-2.141l3.677-2.536l3.474,1.647
			l3.816-2.321L727.35,381.242z M722.562,383.109l-2.5-1.183l-2.13,1.424l2.267,1.194L722.562,383.109z"/>
		<path d="M720.91,376.768l6.129-0.424l0.061,0.875l-6.561,0.455l-0.764,1.836l-1.017,0.07l0.74-1.834l-3.49,0.242l-0.061-0.875
			l3.934-0.272l0.753-1.835l1.027-0.071L720.91,376.768z"/>
		<path d="M715.271,369.001l2.445-4.675l-2.91,0.309l-0.093-0.873l4.657-0.494l-2.447,4.675l7.567-0.804l-3.374-4.057l4.656-0.494
			l0.094,0.873l-2.911,0.309l3.374,4.057L715.271,369.001z"/>
		<path d="M714.556,362.364l3.567-4.521l1.484,2.469l5.446-3.62l0.107,0.871l-5.701,3.946l-1.448-2.179l-2.279,2.922l9.857-1.217
			l0.109,0.882l-11.031,1.363l-0.067-0.546l-0.041-0.337L714.556,362.364z"/>
		<path d="M724.365,351.816l-2.729,2.021l3.186,1.18l0.144,1.009l-4.194-1.545l-3.095,2.285l-4.099-1.784l3.439-2.855l3.607,1.333
			l3.599-2.653L724.365,351.816z M719.757,354.104l-2.597-0.956l-1.995,1.609l2.364,0.989L719.757,354.104z"/>
		<path d="M712.658,348.876l10.974-1.769l0.141,0.866l-10.975,1.769L712.658,348.876z"/>
		<path d="M711.419,341.757l-0.131-0.726l10.944-1.972l0.131,0.726l-4.123,2.669l4.797,1.075l0.127,0.703l-10.942,1.983
			l-0.129-0.714l4.191-2.682l-4.863-1.051L711.419,341.757z M720.485,340.124l-7.025,1.277l3.74,0.825L720.485,340.124z
			 M717.336,343.046l-3.225,2.104l7.062-1.272L717.336,343.046z"/>
		<path d="M721.935,337.516l0.172,0.861l-10.912,2.186l-0.174-0.873l0.172-0.035l3.423-2.426l-4.118-1.007l-0.161,0.032
			l-0.174-0.874l10.918-2.163l0.171,0.862l-9.166,1.838l4.052,0.973l-3.37,2.451L721.935,337.516z"/>
		<path d="M714.255,330.729l6.008-1.306l0.188,0.858l-6.432,1.397l-0.491,1.928l-0.996,0.216L713,331.9l-3.422,0.744l-0.188-0.858
			l3.856-0.838l0.48-1.926l1.007-0.219L714.255,330.729z"/>
		<path d="M711.338,323.317l-1.636,2.651l9.267-2.196l0.203,0.854l-9.256,2.193l2.637,1.626l-1.14,0.27l-3.172-1.957l1.956-3.172
			L711.338,323.317z"/>
		<path d="M709.667,310.356l-0.015-0.008l-3.309-3.602l7.438-2.181l0.248,0.842l-6.008,1.771l3.308,3.604l-6.724,1.995l-0.252-0.854
			L709.667,310.356z"/>
		<path d="M702.576,306.004l1.264-3.039l3.597-2.731l4.534-1.431l0.229,0.727l-4.4,1.389l-3.342,2.528l-1.071,2.598l0.042,0.134
			l9.887-3.12l0.268,0.849l-10.611,3.348L702.576,306.004z"/>
		<path d="M704.942,297.143l5.822-1.955l0.279,0.832l-6.234,2.092l-0.276,1.969l-0.965,0.324l0.255-1.961l-3.316,1.113l-0.279-0.832
			l3.738-1.255l0.266-1.965l0.978-0.328L704.942,297.143z"/>
		<path d="M701.238,290.101l-1.337,2.812l8.969-3.188l0.294,0.828l-8.958,3.185l2.797,1.33l-1.104,0.393l-3.364-1.6l1.6-3.365
			L701.238,290.101z"/>
		<path d="M694.378,282.815l10.335-4.103l0.324,0.816l-10.336,4.103L694.378,282.815z"/>
		<path d="M696.736,275.451l5.672-2.371l0.339,0.81l-6.071,2.539l-0.135,1.985l-0.938,0.393l0.111-1.976l-3.229,1.351l-0.339-0.811
			l3.642-1.522l0.123-1.981l0.951-0.397L696.736,275.451z"/>
		<path d="M697.29,261.518l-2.317,4.29l3.542-1.631l0.367,0.797l-10.104,4.653l-0.367-0.797l5.445-2.508l2.963-5.825L697.29,261.518
			z"/>
		<path d="M685.917,263.5l0.813-3.189l3.166-3.221l4.28-2.069l0.331,0.685l-4.154,2.008l-2.94,2.982l-0.688,2.725l0.063,0.126
			l9.331-4.51l0.388,0.801l-10.017,4.842L685.917,263.5z"/>
		<path d="M684.479,253.373l0.03,4.91l9.011-4.564l0.396,0.784l-9.93,5.03l-0.397-0.784l0.011-0.005l-0.041-4.904L684.479,253.373z"
			/>
		<path d="M681.396,254.396l0.532-5.249l-2.587,1.369l-0.41-0.776l4.139-2.191l-0.532,5.249l6.725-3.561l-4.641-2.51l4.139-2.191
			l0.41,0.776l-2.586,1.37l4.641,2.51L681.396,254.396z"/>
		<path d="M678.978,243.149l0.209,4.898l1.752-0.968l-0.221-4.918l0.82-0.427l0.208,4.898l6.266-3.464l0.425,0.768l-9.727,5.378
			l-0.425-0.768l0.011-0.006l-0.219-4.892L678.978,243.149z"/>
		<path d="M670.396,234.913l9.539-5.726l0.451,0.753l-4.769,2.863l-0.021,5.133l-4.726-2.23l-0.024-0.04L670.396,234.913z
			 M674.725,233.339l-2.882,1.73l3.022,1.6L674.725,233.339z"/>
		<path d="M669.456,233.385l0.46-3.256l2.793-3.544l4.027-2.521l0.402,0.645l-3.906,2.447l-2.599,3.283l-0.385,2.781l0.075,0.119
			l8.776-5.497l0.473,0.754l-9.422,5.9L669.456,233.385z"/>
		<path d="M665.429,227.078l9.321-6.074l0.479,0.736l-9.321,6.074L665.429,227.078z"/>
		<path d="M667.459,210.289l-1.515,3.038l3.371-0.393l0.586,0.833l-4.438,0.526l-1.72,3.44l-4.46,0.27l1.769-4.103l3.819-0.45
			l2.002-3.995L667.459,210.289z M664.392,214.417l-2.746,0.327l-1.049,2.338l2.557-0.191L664.392,214.417z"/>
		<path d="M660.511,212.171l-1.745-0.898l-3.862,0.667l-0.52-0.708l4.517-0.766l0.019-0.014l0.007,0.01l0.367,0.224l1.928,0.968
			l4.724-3.456l0.519,0.708l-8.967,6.576l-0.525-0.718l2.438-1.784l-0.664-0.471l-3.114,0.422l-0.546-0.746l3.592-0.482l0.021-0.014
			l0.016,0.002l0.375,0.234l0.955,0.592L660.511,212.171z M658.962,211.521l-0.017-0.002l0.01-0.007L658.962,211.521z"/>
		<path d="M657.058,207.482l-1.761-0.868l-3.853,0.735l-0.53-0.699l4.502-0.846l0.019-0.014l0.008,0.009l0.371,0.218l1.943,0.935
			l4.662-3.54l0.53,0.699l-8.851,6.735l-0.538-0.708l2.405-1.827l-0.672-0.46l-3.107,0.478l-0.559-0.736l3.584-0.546l0.02-0.014
			l0.016,0.002l0.379,0.228l0.966,0.575L657.058,207.482z M655.497,206.859l-0.018-0.002l0.011-0.007L655.497,206.859z"/>
		<path d="M648.713,203.835l8.74-6.886l0.544,0.69l-8.741,6.886L648.713,203.835z"/>
		<path d="M653.086,191.536l-1.164,4.735l3.019-2.469l0.557,0.68l-8.61,7.045l-0.557-0.68l4.641-3.797l1.404-6.384L653.086,191.536z
			"/>
		<path d="M641.45,194.958l8.479-7.19l0.567,0.669l-8.479,7.19L641.45,194.958z"/>
		<path d="M638.637,186.829l1.259,4.742l1.502-1.323l-1.272-4.76l0.71-0.593l1.258,4.742l5.379-4.733l0.58,0.659l-8.35,7.35
			l-0.58-0.659l0.009-0.008l-1.267-4.735L638.637,186.829z"/>
		<path d="M629.012,181.165l-0.507-0.537l8.089-7.639l0.506,0.536l-1.991,4.492l4.605-1.724l0.49,0.519l-8.081,7.648l-0.498-0.528
			l2.043-4.54l-4.647,1.781L629.012,181.165z M635.712,174.836l-5.186,4.914l3.585-1.355L635.712,174.836z M634.674,179.007
			l-1.551,3.526l5.219-4.929L634.674,179.007z"/>
		<path d="M635.491,171.856l0.615,0.627l-7.937,7.793l-0.623-0.636l0.126-0.123l1.537-3.9l-3.996,1.408l-0.117,0.115l-0.621-0.636
			l7.95-7.776l0.615,0.627l-6.665,6.547l3.922-1.401l-1.479,3.893L635.491,171.856z"/>
		<path d="M627.418,172h-0.017l-4.641-1.73l5.442-5.611l0.626,0.568l-4.393,4.442l4.642,1.531l-4.909,5.002l-0.635-0.439
			L627.418,172z"/>
		<path d="M627.063,163.466l0.637,0.604l-7.646,8.067l-0.645-0.612l0.121-0.127l1.396-3.95l-3.939,1.55l-0.113,0.119l-0.646-0.612
			l7.662-8.052l0.638,0.604l-6.421,6.778l3.865-1.54l-1.338,3.94L627.063,163.466z"/>
		<path d="M615.214,167.578l-0.222-5.758l2.732,0.915l1.794-6.294l0.646,0.593l-1.774,6.708l-2.518-0.717l0.164,3.705l6.71-7.333
			l0.657,0.601l-7.509,8.205l-0.406-0.372l-0.251-0.229L615.214,167.578z"/>
		<path d="M610.656,163.44l-0.483-3.255l1.673-4.192l3.147-3.563l0.57,0.504l-3.055,3.457l-1.56,3.887l0.421,2.777l0.104,0.093
			l6.86-7.765l0.667,0.589l-7.364,8.335L610.656,163.44z"/>
		<path d="M608.113,154.637l3.989-4.679l0.668,0.57l-4.271,5.008l0.777,1.833l-0.661,0.775l-0.792-1.814l-2.272,2.665l-0.668-0.57
			l2.562-3.003l-0.784-1.823l0.668-0.784L608.113,154.637z"/>
		<path d="M601.292,150.495l0.304,3.098l6.042-7.355l0.678,0.558l-6.032,7.347l3.081-0.302l-0.743,0.905l-3.708,0.364l-0.363-3.708
			L601.292,150.495z"/>
		<path d="M589.933,146.47l6.741-8.842l0.576,0.44l-1.865,2.448l-0.465,3.679l3.489-1.373l1.876-2.441l0.577,0.44l-6.741,8.842
			l-0.577-0.44l0.563-3.884l-3.586,1.578L589.933,146.47z M594.59,141.558l-3.192,4.188l2.761-1.207L594.59,141.558z
			 M594.854,145.071l-0.424,2.988l3.199-4.198L594.854,145.071z"/>
		<path d="M592.703,134.698l-0.465,3.361l3.066-1.449l0.82,0.603l-4.034,1.915l-0.531,3.806l-4.137,1.679l0.365-4.45l3.473-1.645
			l0.621-4.422L592.703,134.698z M591.115,139.586l-2.496,1.186l-0.247,2.549l2.357-0.997L591.115,139.586z"/>
		<path d="M582.472,137.102l2.317,4.321l5.827-8.234l0.716,0.507l-6.421,9.074l-0.717-0.507l0.007-0.01l-2.325-4.312
			L582.472,137.102z"/>
		<path d="M577.67,133.828l2.396,4.281l5.683-8.339l0.726,0.495l-6.263,9.19l-0.726-0.495l0.007-0.01l-2.401-4.271L577.67,133.828z"
			/>
		<path d="M572.896,134.547l6.088-9.306l0.733,0.479l-6.088,9.306L572.896,134.547z"/>
		<path d="M568.208,127.06l0.694,3.035l5.062-8.063l0.743,0.467l-5.055,8.054l3.019-0.69l-0.622,0.992l-3.633,0.831l-0.83-3.632
			L568.208,127.06z"/>
		<path d="M558.035,121.704l2.701,4.098l1.004-1.732l-2.722-4.109l0.484-0.789l2.701,4.098l3.595-6.201l0.76,0.44l-5.581,9.625
			l-0.76-0.44l0.006-0.01l-2.706-4.087L558.035,121.704z"/>
		<path d="M555.613,118.342l2.987-5.375l0.769,0.427l-3.198,5.754l1.124,1.643l-0.495,0.891l-1.136-1.623l-1.701,3.062l-0.769-0.427
			l1.918-3.451l-1.129-1.633l0.501-0.901L555.613,118.342z"/>
		<path d="M548.291,120.021l5.218-9.814l0.775,0.412l-5.219,9.813L548.291,120.021z"/>
		<path d="M541.228,116.385l5.043-9.915l0.647,0.329l-1.396,2.745l0.203,3.704l3.188-1.978l1.407-2.74l0.646,0.329l-5.045,9.916
			l-0.646-0.33l-0.146-3.923l-3.246,2.198L541.228,116.385z M544.927,110.713l-2.39,4.696l2.499-1.685L544.927,110.713z
			 M545.819,114.123l0.119,3.018l2.396-4.708L545.819,114.123z"/>
		<path d="M532.976,112.425l4.684-10.089l0.796,0.37l-4.683,10.089L532.976,112.425z"/>
		<path d="M526.394,109.466l-0.676-0.299l4.508-10.176l0.676,0.299l-0.102,4.915l3.582-3.372l0.653,0.29l-4.497,10.181l-0.664-0.294
			l0.13-4.979l-3.601,3.441L526.394,109.466z M530.127,101.036l-2.884,6.539l2.783-2.637L530.127,101.036z M530.782,105.286
			l-0.067,3.853l2.909-6.566L530.782,105.286z"/>
		<path d="M523.419,96.141l0.814,0.326l-4.12,10.325l-0.825-0.331l0.064-0.163l-0.164-4.188l-3.088,2.898l-0.063,0.152l-0.825-0.331
			l4.142-10.316l0.815,0.326l-3.46,8.674l3.023-2.861l0.214,4.157L523.419,96.141z"/>
		<path d="M515.927,99.176l-0.015,0.007l-4.866,0.457l2.758-7.238l0.821,0.311l-2.221,5.854l4.866-0.457l-2.477,6.558l-0.831-0.315
			L515.927,99.176z"/>
		<path d="M505.731,97.271l1.327,2.814l3.214-8.957l0.825,0.296l-3.209,8.946l2.8-1.321l-0.396,1.102l-3.368,1.589l-1.59-3.368
			L505.731,97.271z"/>
	</g>
</g>
</svg>
