<?xml version="1.0" encoding="iso-8859-1"?>
<!-- Generator: Adobe Illustrator 15.0.0, SVG Export Plug-In . SVG Version: 6.00 Build 0)  -->
<!DOCTYPE svg PUBLIC "-//W3C//DTD SVG 1.1//EN" "http://www.w3.org/Graphics/SVG/1.1/DTD/svg11.dtd">
<svg version="1.1" id="&#x30EC;&#x30A4;&#x30E4;&#x30FC;_1"
	 xmlns="http://www.w3.org/2000/svg" xmlns:xlink="http://www.w3.org/1999/xlink" x="0px" y="0px" width="800px" height="800px"
	 viewBox="0 0 800 800" style="enable-background:new 0 0 800 800;" xml:space="preserve">
<circle style="fill:none;stroke:#000000;stroke-width:2;stroke-miterlimit:10;" cx="400" cy="400" r="384.789"/>
<circle style="fill:none;stroke:#000000;stroke-width:4;stroke-miterlimit:10;" cx="400" cy="400" r="379.571"/>
<circle style="fill:none;stroke:#000000;stroke-width:2;stroke-miterlimit:10;" cx="400" cy="400" r="374.354"/>
<circle style="fill:none;stroke:#000000;stroke-width:4;stroke-miterlimit:10;" cx="400" cy="400" r="280.44"/>
<g>
	<path d="M692.325,179.448l0.866,4.826l8.089-6.024l0.524,0.704l-8.915,6.639l-0.524-0.704l0.01-0.007l-0.875-4.819L692.325,179.448
		z"/>
	<path d="M695.643,170.8l-1.38,3.101l3.351-0.541l0.622,0.807l-4.41,0.72l-1.567,3.511l-4.443,0.465l1.587-4.176l3.796-0.616
		l1.824-4.079L695.643,170.8z M692.76,175.058l-2.729,0.446l-0.944,2.382l2.544-0.304L692.76,175.058z"/>
	<path d="M685.323,175.674l0.687-5.726l2.558,1.334l2.763-5.939l0.547,0.688l-2.809,6.351l-2.376-1.105l-0.421,3.688l7.786-6.192
		l0.555,0.697l-8.713,6.929l-0.343-0.431l-0.211-0.266L685.323,175.674z"/>
	<path d="M690.331,164.115l0.558,0.679l-8.589,7.068l-0.565-0.688l0.136-0.112l1.874-3.751l-4.104,1.053l-0.127,0.104l-0.564-0.688
		l8.604-7.05l0.558,0.679l-7.214,5.939l4.03-1.052l-1.815,3.748L690.331,164.115z"/>
	<path d="M675.229,163.379l8.48-7.19l0.469,0.554l-2.348,1.99l-1.242,3.493l3.702-0.592l2.355-1.982l0.469,0.554l-8.479,7.19
		l-0.47-0.554l1.382-3.672l-3.841,0.771L675.229,163.379z M680.831,159.581l-4.018,3.406l2.955-0.587L680.831,159.581z
		 M680.336,163.069l-1.055,2.828l4.025-3.414L680.336,163.069z"/>
	<path d="M669.128,156.479l8.248-7.451l0.588,0.651l-8.248,7.451L669.128,156.479z"/>
	<path d="M667.297,154.463l-0.853-5.205l-2.14,1.995l-0.599-0.642l3.424-3.192l0.853,5.205l5.564-5.187l-5.133-1.215l3.424-3.192
		l0.599,0.642l-2.14,1.995l5.133,1.215L667.297,154.463z"/>
	<path d="M666.728,146h-0.017l-4.597-1.788l5.595-5.424l0.608,0.604l-4.515,4.328l4.597,1.664l-5.046,4.868l-0.617-0.527
		L666.728,146z"/>
	<path d="M658.413,145.15l-0.272-3.279l1.94-4.076l3.37-3.352l0.537,0.54l-3.271,3.252l-1.808,3.778l0.241,2.799l0.099,0.1
		l7.347-7.306l0.627,0.631l-7.886,7.842L658.413,145.15z"/>
	<path d="M651.488,138.298l7.771-7.958l0.519,0.507l-2.15,2.203l-0.909,3.596l3.632-0.938l2.159-2.195l0.52,0.507l-7.771,7.958
		l-0.519-0.507l1.03-3.788l-3.753,1.129L651.488,138.298z M656.711,133.988l-3.681,3.77l2.888-0.863L656.711,133.988z
		 M656.546,137.509l-0.784,2.915l3.688-3.778L656.546,137.509z"/>
	<path d="M643.688,131.031l-0.544-0.498l7.509-8.205l0.544,0.498l-1.66,4.623l4.467-2.054l0.527,0.482l-7.5,8.213l-0.536-0.49
		l1.707-4.675l-4.505,2.114L643.688,131.031z M649.909,124.234l-4.813,5.276l3.476-1.612L649.909,124.234z M649.177,128.468
		l-1.29,3.628l4.846-5.294L649.177,128.468z"/>
	<path d="M646.961,119.043l-0.771,3.305l3.189-1.162l0.762,0.676l-4.195,1.537l-0.878,3.743l-4.275,1.293l0.772-4.399l3.61-1.32
		l1.024-4.349L646.961,119.043z M644.932,123.768l-2.597,0.952l-0.479,2.517l2.441-0.777L644.932,123.768z"/>
	<path d="M636.531,120.47l1.903,4.522l6.576-7.655l0.666,0.572l-7.248,8.437l-0.666-0.572l0.008-0.009l-1.911-4.513L636.531,120.47z
		"/>
	<path d="M637.896,111.318l-0.668,3.33l3.153-1.262l0.783,0.652l-4.147,1.669l-0.761,3.771l-4.235,1.428l0.635-4.424l3.569-1.433
		l0.888-4.381L637.896,111.318z M636.014,116.105l-2.566,1.034l-0.4,2.532l2.417-0.854L636.014,116.105z"/>
	<path d="M628.896,118.325l-0.589-5.733l2.787,0.739l1.389-6.397l0.685,0.551l-1.345,6.809l-2.559-0.555l0.4,3.688l6.23-7.747
		l0.694,0.558l-6.973,8.669l-0.429-0.345l-0.265-0.213L628.896,118.325z"/>
	<path d="M623.305,106.862l-0.017,0.002l-4.799-0.925l4.676-6.175l0.701,0.529l-3.772,4.996l4.8,0.925l-4.214,5.601l-0.71-0.536
		L623.305,106.862z"/>
	<path d="M613.555,106.518l6.566-8.987l0.709,0.518l-6.566,8.987L613.555,106.518z"/>
	<path d="M609.27,98.779l0.528,3.069l5.495-7.778l0.718,0.507l-5.489,7.769l3.054-0.525l-0.676,0.957l-3.674,0.632l-0.632-3.673
		L609.27,98.779z"/>
	<path d="M599.368,92.812l2.455,4.247l1.104-1.67l-2.475-4.259l0.529-0.759l2.455,4.247l3.95-5.977l0.732,0.484l-6.132,9.277
		l-0.732-0.484l0.006-0.01l-2.461-4.237L599.368,92.812z"/>
	<path d="M592.734,92.398l5.987-9.379l0.612,0.391l-1.658,2.597l-0.156,3.707l3.365-1.659l1.667-2.59l0.612,0.391l-5.986,9.379
		l-0.612-0.391l0.237-3.919l-3.446,1.872L592.734,92.398z M596.971,87.112l-2.836,4.443l2.651-1.434L596.971,87.112z
		 M597.527,90.594l-0.175,3.015l2.843-4.453L597.527,90.594z"/>
	<path d="M597.373,82.185l0.748,0.46l-5.817,9.472l-0.758-0.466l0.092-0.149l0.552-4.154l-3.537,2.33l-0.085,0.14l-0.758-0.466
		l5.837-9.459l0.748,0.46l-4.886,7.958l3.467-2.304l-0.497,4.132L597.373,82.185z"/>
	<path d="M584.784,83.134l0.77,3.018l4.862-8.188l0.756,0.449l-4.857,8.177l3.002-0.765l-0.599,1.007l-3.611,0.92l-0.92-3.612
		L584.784,83.134z"/>
	<path d="M574.071,68.824l0.758,4.818l1.829-3.445l0.775,0.412l-5.218,9.829l-0.776-0.412l2.813-5.297l-1.174-6.432L574.071,68.824z
		"/>
	<path d="M568.633,66.014l0.08,3.393l2.796-1.923l0.907,0.463l-3.676,2.538l0.087,3.843l-3.815,2.322l-0.354-4.452l3.165-2.181
		l-0.097-4.466L568.633,66.014z M567.851,71.095l-2.275,1.571l0.166,2.556l2.169-1.363L567.851,71.095z"/>
	<path d="M561.518,69.344l2.707-5.519l0.789,0.387l-2.898,5.908l1.206,1.583l-0.449,0.915l-1.216-1.562l-1.542,3.143l-0.789-0.387
		l1.738-3.543l-1.211-1.572l0.453-0.925L561.518,69.344z"/>
	<path d="M558.594,67.297l-0.016,0.006l-4.89,0.077l3.313-7.005l0.795,0.375l-2.67,5.666l4.89-0.078l-2.979,6.348l-0.805-0.379
		L558.594,67.297z"/>
	<path d="M555.577,59.722l0.801,0.361l-4.57,10.138l-0.811-0.367l0.072-0.16l0.02-4.192l-3.214,2.761l-0.067,0.149l-0.811-0.367
		l4.592-10.128l0.8,0.362l-3.837,8.516l3.146-2.727l0.031,4.164L555.577,59.722z"/>
	<path d="M547.212,56.017l1.136,4.741l1.55-3.577l0.806,0.349l-4.421,10.205l-0.806-0.349l2.383-5.5l-1.679-6.315L547.212,56.017z"
		/>
	<path d="M537.832,60.026l1.19,2.877l3.647-8.795l0.812,0.336l-3.644,8.785l2.862-1.184l-0.448,1.082l-3.443,1.424l-1.425-3.443
		L537.832,60.026z"/>
	<path d="M539.179,52.684l0.815,0.323l-4.077,10.34l-0.826-0.327l0.064-0.163l-0.182-4.186l-3.076,2.91l-0.06,0.152l-0.827-0.327
		l4.099-10.331l0.816,0.323l-3.423,8.686l3.011-2.873l0.23,4.155L539.179,52.684z"/>
	<path d="M526.946,55.81l1.282,2.837l3.361-8.907l0.822,0.311l-3.358,8.896l2.822-1.275l-0.413,1.095l-3.396,1.535l-1.535-3.396
		L526.946,55.81z"/>
	<path d="M523.886,58.745l-1.653-2.844l0.002-4.513l1.604-4.473l0.717,0.257l-1.558,4.341l-0.01,4.187l1.419,2.424l0.132,0.047
		l3.497-9.75l0.838,0.3l-3.755,10.466L523.886,58.745z"/>
	<path d="M518.822,56.945l-2.514-5.182l2.869-0.26l-0.885-6.481l0.831,0.283l1.067,6.852l-2.592,0.354l1.637,3.326l3.2-9.405
		l0.842,0.286l-3.58,10.524l-0.521-0.177l-0.321-0.109L518.822,56.945z"/>
	<path d="M504.756,49.04l3.562,3.376l0.584-1.916l-3.583-3.383l0.292-0.878l3.562,3.376l2.092-6.854l0.84,0.256l-3.247,10.64
		l-0.84-0.256l0.003-0.011l-3.564-3.365L504.756,49.04z"/>
	<path d="M498.983,50.71l-0.709-0.205l3.088-10.684l0.708,0.205l0.564,4.879l3.091-3.822l0.686,0.198l-3.076,10.687l-0.697-0.202
		l-0.544-4.946l-3.1,3.893L498.983,50.71z M501.541,41.86l-1.972,6.863l2.398-2.987L501.541,41.86z M502.764,45.979l0.454,3.824
		l1.992-6.894L502.764,45.979z"/>
	<path d="M494.828,49.579l2.914-10.742l0.848,0.23l-2.914,10.742L494.828,49.579z"/>
	<path d="M492.209,48.871l-3.536-3.919l-0.721,2.838l-0.852-0.216l1.153-4.541l3.536,3.92l1.875-7.379l-4.979,1.757l1.153-4.541
		l0.852,0.216l-0.721,2.838l4.979-1.756L492.209,48.871z"/>
	<path d="M483.623,46.745l2.565-10.829l0.854,0.203l-2.565,10.829L483.623,46.745z"/>
	<path d="M481.323,40.519l-0.014,0.009l-4.749,1.159l1.679-7.563l0.856,0.189l-1.347,6.114l4.749-1.159l-1.497,6.848l-0.868-0.191
		L481.323,40.519z"/>
	<path d="M472.348,44.272l2.218-10.901l0.86,0.175l-2.218,10.901L472.348,44.272z"/>
	<path d="M467.715,32.049l2.159,4.369l0.717-3.831l0.863,0.161l-2.044,10.93l-0.863-0.162l1.102-5.891l-3.038-5.784L467.715,32.049z
		"/>
	<path d="M460.999,42.157l1.869-10.958l0.865,0.147l-1.869,10.959L460.999,42.157z"/>
	<path d="M455.884,36.296l0.938-6.072l0.867,0.134l-1.003,6.5l1.622,1.15l-0.155,1.006l-1.626-1.127l-0.533,3.458l-0.868-0.134
		l0.603-3.897l-1.625-1.139l0.157-1.018L455.884,36.296z"/>
	<path d="M454.118,29.815l-1.657,2.926l0.606,2.542l-1.234,2.606l0.693,2.933l-0.8-0.111l-1.131-4.647l-2.349,4.167l-0.823-0.114
		l1.636-2.941l-0.567-2.395l1.183-2.484l-0.775-3.204l0.87,0.12l1.123,4.705l2.355-4.224L454.118,29.815z M450.315,34.927
		l-0.392-1.614l-0.684,1.442l0.368,1.445L450.315,34.927z M451.898,33.739l-0.739,1.328l0.356,1.526l0.682-1.43L451.898,33.739z"/>
	<path d="M441.56,28.216l0.873,0.093l-1.162,11.062l-0.885-0.094l0.019-0.175l-1.296-3.987l-2.187,3.629l-0.018,0.163l-0.885-0.094
		l1.186-11.059l0.874,0.093l-0.975,9.292l2.134-3.576l1.335,3.945L441.56,28.216z"/>
	<path d="M430.573,35.085l4.175,2.575l0.907-10.049l0.875,0.079l-0.829,11.075L435,38.686v-0.011l-4.348-2.563L430.573,35.085z"/>
	<path d="M426.735,38.029l0.813-11.089l0.875,0.064l-0.812,11.089L426.735,38.029z"/>
	<path d="M418.993,33.733l2.071,2.324l0.546-9.502l0.876,0.05l-0.545,9.491l2.312-2.06l-0.067,1.169l-2.781,2.479l-2.479-2.781
		L418.993,33.733z"/>
	<path d="M405.967,31.575l-0.012,0.011l-4.422,2.085l0.133-7.748l0.878,0.014l-0.099,6.262l4.423-2.085l-0.098,7.011l-0.89-0.014
		L405.967,31.575z"/>
	<path d="M399.871,25.914l0.877-0.014l0.186,11.118l-0.889,0.014l-0.003-0.175l-1.769-3.8l-1.73,3.867l0.002,0.164l-0.89,0.014
		l-0.162-11.119l0.878-0.014l0.158,9.339l1.685-3.808l1.803,3.753L399.871,25.914z"/>
	<path d="M390.482,37l-0.737,0.104l-0.232-11.074l0.737,0.007l1.991,4.5l1.813-4.563l0.714-0.013l0.244,11.12l-0.726,0.016
		l-1.992-4.648l-1.8,4.551H390.482z M390.291,27.967l0.161,7.139l1.401-3.565L390.291,27.967z M392.683,31.535l1.572,3.515
		l-0.15-7.174L392.683,31.535z"/>
	<path d="M379.061,38l-0.737-0.137l-0.58-11.192l0.736-0.083l2.13,4.403l1.669-4.634l0.713-0.042l0.591,11.101l-0.725,0.037
		l-2.133-4.32L379.072,38H379.061z M378.58,28.45l0.384,7.129l1.289-3.607L378.58,28.45z M381.083,31.941l1.681,3.463l-0.374-7.165
		L381.083,31.941z"/>
	<path d="M372.832,26.909l1.815,2.871l1.411-3.09l1.017-0.069l-1.849,4.071l2.053,3.254l-2.08,3.957l-2.596-3.64l1.594-3.502
		l-2.382-3.784L372.832,26.909z M374.776,31.673l-1.144,2.52l1.458,2.108l1.16-2.286L374.776,31.673z"/>
	<path d="M364.443,27.604l0.875-0.087l1.113,11.073l-0.886,0.088l-0.017-0.175l-2.082-3.643l-1.403,4.001l0.017,0.163l-0.886,0.088
		l-1.09-11.076l0.874-0.087l0.937,9.302l1.363-3.938l2.111,3.593L364.443,27.604z"/>
	<path d="M357.633,39.504l-1.275-11.045l0.872-0.101l1.275,11.046L357.633,39.504z"/>
	<path d="M353.654,39.993l-2.773-1.774l-2.063-4.017l-0.619-4.714l0.754-0.099l0.602,4.575l1.907,3.73l2.372,1.507l0.14-0.018
		l-1.351-10.277l0.883-0.116l1.449,11.031L353.654,39.993z"/>
	<path d="M347.544,35.224l-0.01,0.013l-4.029,2.772l-1.12-7.669l0.869-0.128l0.915,6.196l4.028-2.772l1.035,6.936l-0.88,0.13
		L347.544,35.224z"/>
	<path d="M338.33,42.265l-1.797-10.974l0.716-0.117l0.498,3.038l2.355,2.864l1.399-3.479l-0.486-3.04l0.716-0.118l1.797,10.974
		l-0.716,0.117l-2.438-3.076l-1.317,3.691L338.33,42.265z M337.958,35.506l0.851,5.198l1.019-2.835L337.958,35.506z M340.694,37.727
		l1.881,2.36l-0.853-5.209L340.694,37.727z"/>
	<path d="M331.653,32.165l2.119,2.651l1.061-3.224l1.002-0.181l-1.388,4.247l2.397,3.005l-1.63,4.159l-2.979-3.329l1.198-3.653
		l-2.783-3.495L331.653,32.165z M334.108,36.682l-0.858,2.628l1.68,1.934l0.9-2.398L334.108,36.682z"/>
	<path d="M327.68,44.261l-0.724,0.143l-2.146-10.916l0.724-0.142l2.735,4.081l0.999-4.814l0.701-0.138l2.157,10.913l-0.712,0.14
		l-2.749-4.149l-0.974,4.881L327.68,44.261z M325.903,35.218l1.389,7.007l0.766-3.754L325.903,35.218z M328.875,38.322l2.155,3.192
		l-1.384-7.043L328.875,38.322z"/>
	<path d="M314.946,43.161l2.639,1.652l-2.134-9.279l0.856-0.197l2.131,9.268l1.644-2.625l0.263,1.142l-1.978,3.158l-3.159-1.978
		L314.946,43.161z"/>
	<path d="M311.786,36.396l0.853-0.21l2.679,10.796l-0.864,0.213l-0.042-0.17l-2.578-3.308l-0.818,4.158l0.04,0.159l-0.864,0.213
		l-2.656-10.802l0.853-0.21l2.252,9.069l0.787-4.09l2.601,3.253L311.786,36.396z"/>
	<path d="M304.615,49.716l-2.841-10.756l0.702-0.186l0.787,2.978l2.62,2.626l1.06-3.599l-0.775-2.981l0.702-0.185l2.841,10.756
		l-0.702,0.186l-2.722-2.83l-0.958,3.802L304.615,49.716z M303.598,43.021l1.346,5.095l0.742-2.921L303.598,43.021z M306.535,44.97
		l2.1,2.17l-1.349-5.106L306.535,44.97z"/>
	<path d="M304.134,49.85l-5.022-1.629l0.793,2.819l-0.846,0.238l-1.27-4.511l5.022,1.629l-2.063-7.33l-3.435,4.009l-1.27-4.51
		l0.846-0.238l0.793,2.819l3.435-4.009L304.134,49.85z"/>
	<path d="M291.311,41.975l2.404,2.396l0.691-3.323l0.976-0.292l-0.902,4.376l2.72,2.717l-1.152,4.316l-3.334-2.974l0.779-3.765
		l-3.158-3.161L291.311,41.975z M294.258,46.188l-0.558,2.708l1.887,1.733l0.625-2.485L294.258,46.188z"/>
	<path d="M292.165,53.347l-5.098-2.69l2.161-1.91l-4.555-4.704l0.837-0.265l4.922,4.895l-1.881,1.822l3.292,1.712l-2.993-9.483
		l0.849-0.268l3.348,10.611l-0.525,0.166l-0.324,0.102L292.165,53.347z"/>
	<path d="M279.27,57.619l-3.682-10.495l0.829-0.291l3.682,10.495L279.27,57.619z"/>
	<path d="M271.992,54.966l-2.131-5.768l0.824-0.304l2.281,6.174l1.979,0.218l0.353,0.956l-1.97-0.196l1.213,3.285l-0.824,0.304
		l-1.368-3.702l-1.974-0.207l-0.357-0.967L271.992,54.966z"/>
	<path d="M263.482,51.628l4.135,2.576l-1.407-3.633l0.818-0.317l4.015,10.364l-0.818,0.317l-2.164-5.586l-5.626-3.316
		L263.482,51.628z"/>
	<path d="M263.086,63.773l-4.189-10.307l0.813-0.331l4.189,10.307L263.086,63.773z"/>
	<path d="M256.412,66.56l-0.679,0.289l-4.349-10.234l0.679-0.289l3.517,3.427l-0.016-4.915l0.657-0.279l4.359,10.229l-0.668,0.284
		l-3.544-3.492l0.054,4.975L256.412,66.56z M252.81,58.082l2.803,6.567l-0.025-3.83L252.81,58.082z M256.357,60.504l2.766,2.678
		l-2.806-6.604L256.357,60.504z"/>
	<path d="M252.475,68.287l-4.508-10.162l0.802-0.356l4.508,10.162L252.475,68.287z"/>
	<path d="M245.89,71.305l-0.669,0.311l-4.682-10.089l0.669-0.311l3.628,3.312l-0.176-4.913l0.648-0.301L250,69.397l-0.659,0.305
		l-3.657-3.375l0.216,4.972L245.89,71.305z M242.012,62.947l3.017,6.473l-0.15-3.828L242.012,62.947z M245.637,65.252l2.853,2.587
		l-3.021-6.51L245.637,65.252z"/>
	<path d="M243.574,72.406l-3.189-0.813l-3.221-3.165l-2.069-4.281l0.685-0.332l2.008,4.154l2.982,2.942l2.725,0.686l0.126-0.061
		l-4.51-9.332l0.801-0.387l4.842,10.017L243.574,72.406z"/>
	<path d="M234.445,71.347l-2.764-5.487l0.784-0.395l2.958,5.874l1.989-0.006l0.458,0.91l-1.978,0.026l1.574,3.125l-0.784,0.395
		l-1.774-3.522l-1.984,0.016l-0.463-0.92L234.445,71.347z"/>
	<path d="M227.972,76.018l2.972,0.929l-4.417-8.436l0.778-0.407l4.411,8.425l0.924-2.956l0.543,1.038l-1.112,3.557l-3.557-1.112
		L227.972,76.018z"/>
	<path d="M223.188,82.959l-3.233-0.608l-3.413-2.952l-2.335-4.139l0.663-0.374l2.266,4.016l3.162,2.745l2.761,0.511l0.123-0.069
		l-5.091-9.021l0.775-0.438l5.465,9.684L223.188,82.959z"/>
	<path d="M212.841,84.535l3.012,0.786l-4.813-8.212l0.757-0.444l4.808,8.202l0.782-2.996l0.592,1.01l-0.941,3.605l-3.605-0.941
		L212.841,84.535z"/>
	<path d="M203.328,91.078l4.883-0.48l-5.367-8.549l0.744-0.467l5.914,9.422l-0.744,0.467l-0.006-0.01l-4.877,0.49L203.328,91.078z"
		/>
	<path d="M198.442,94.243l4.872-0.557l-1.091-1.678l-4.892,0.57l-0.484-0.788l4.872-0.557l-3.903-6.004l0.736-0.479l6.06,9.321
		l-0.736,0.479l-0.007-0.01l-4.865,0.567L198.442,94.243z"/>
	<path d="M194.173,98.364l-0.576-0.854l1.561-3.778l-3.757,0.501l-0.511-0.757l1.938-4.978l0.728-0.491l6.219,9.219l-0.728,0.491
		L194.173,98.364z M195.5,92.879l0.109-0.257l-2.291-3.396l-1.607,4.148L195.5,92.879z M198.555,96.989l-2.297-3.406l-0.244,0.037
		l-1.518,3.904L198.555,96.989z"/>
	<path d="M185.128,93.772l3.033,1.523l-0.384-3.372l0.835-0.583l0.513,4.438l3.433,1.729l0.258,4.459l-4.097-1.78l-0.438-3.819
		l-3.988-2.012L185.128,93.772z M189.247,96.851l0.318,2.747l2.334,1.054l-0.184-2.555L189.247,96.851z"/>
	<path d="M189.499,104.298l-5.682-0.952l1.45-2.49l-5.798-3.033l0.712-0.514l6.207,3.099l-1.213,2.319l3.661,0.591l-5.816-8.058
		l0.721-0.521l6.509,9.016l-0.446,0.322l-0.275,0.199L189.499,104.298z"/>
	<path d="M178.184,98.767l0.704-0.524l6.648,8.908l-0.713,0.531l-0.105-0.141l-3.655-2.048l0.856,4.147l0.098,0.131l-0.713,0.531
		l-6.63-8.922l0.704-0.524l5.586,7.482l-0.859-4.073l3.655,1.99L178.184,98.767z"/>
	<path d="M168.828,105.897l0.688-0.546l6.924,8.705l-0.697,0.553l-0.109-0.137l-3.719-1.937l0.984,4.122l0.102,0.128l-0.697,0.553
		l-6.905-8.719l0.688-0.546l5.817,7.311l-0.984-4.047l3.717,1.877L168.828,105.897z"/>
	<path d="M165.457,118.038l3.098,0.304l-6.042-7.356l0.679-0.557l6.034,7.347l0.303-3.082l0.743,0.905l-0.364,3.708l-3.708-0.364
		L165.457,118.038z"/>
	<path d="M159.751,127.94l-0.555,0.486l-7.32-8.364l0.555-0.485l4.408,2.159l-1.547-4.663l0.537-0.47l7.329,8.356l-0.546,0.478
		l-4.455-2.211l1.602,4.708L159.751,127.94z M153.687,121.011l4.709,5.363l-1.218-3.63L153.687,121.011z M157.812,122.206
		l3.461,1.681l-4.724-5.397L157.812,122.206z"/>
	<path d="M148.215,123.359l3.198,1.131l-0.802-3.296l0.755-0.683l1.064,4.337l3.621,1.286l0.813,4.39l-4.286-1.253l-0.912-3.733
		l-4.207-1.498L148.215,123.359z M152.684,125.897l0.659,2.684l2.447,0.754l-0.502-2.511L152.684,125.897z"/>
	<path d="M148.495,133.868l4.703-1.392l-6.879-7.379l0.642-0.599l7.582,8.132l-0.642,0.598l-0.008-0.008l-4.694,1.4L148.495,133.868
		z"/>
	<path d="M139.54,131.514l3.234,1.031l-0.906-3.272l0.734-0.706l1.2,4.304l3.662,1.172l0.951,4.366l-4.326-1.119l-1.03-3.705
		l-4.255-1.366L139.54,131.514z M144.089,133.912l0.743,2.664l2.471,0.677l-0.581-2.496L144.089,133.912z"/>
	<path d="M145.499,141.24l-5.762-0.049l1.042-2.688l-6.203-2.087l0.623-0.619l6.616,2.088l-0.834,2.481l3.708,0.01l-7.008-7.047
		l0.631-0.627l7.842,7.886l-0.39,0.388l-0.241,0.24L145.499,141.24z"/>
	<path d="M133.464,137.543l0.613-0.628l7.967,7.761l-0.622,0.637l-0.126-0.123l-3.933-1.452l1.496,3.964l0.117,0.115l-0.622,0.637
		l-7.95-7.778l0.613-0.628l6.693,6.519l-1.487-3.89l3.924,1.394L133.464,137.543z"/>
	<path d="M130.6,156.782l-8.205-7.509l0.49-0.536l2.271,2.079l3.623,0.792l-1.054-3.599l-2.264-2.087l0.49-0.536l8.205,7.509
		l-0.49,0.536l-3.819-0.908l1.25,3.715L130.6,156.782z M126.125,151.702l3.886,3.557l-0.955-2.858L126.125,151.702z
		 M129.648,151.753l2.939,0.69l-3.895-3.565L129.648,151.753z"/>
	<path d="M124.35,158.965l4.55-1.832l-1.498-1.328l-4.566,1.85l-0.677-0.631l4.551-1.832l-5.36-4.753l0.583-0.657l8.32,7.378
		l-0.583,0.657l-0.008-0.008l-4.542,1.84L124.35,158.965z"/>
	<path d="M117.979,154.243l1.563,2.979l2.465,0.868l1.522,2.45l2.841,1.005l-0.526,0.613l-4.519-1.567l2.23,4.231l-0.542,0.631
		l-1.586-2.968l-2.32-0.821l-1.448-2.339l-3.112-1.084l0.572-0.666l4.563,1.605l-2.275-4.27L117.979,154.243z M120.216,160.209
		l-1.569-0.545l0.842,1.356l1.414,0.474L120.216,160.209z M120.074,158.235l0.716,1.34l1.476,0.527l-0.833-1.348L120.074,158.235z"
		/>
	<path d="M116.76,165.178l-4.726-3.933l0.562-0.675l5.059,4.21l1.823-0.799l0.783,0.652l-1.805,0.814l2.692,2.24l-0.562,0.675
		l-3.034-2.524l-1.814,0.806l-0.792-0.659L116.76,165.178z"/>
	<path d="M113.15,172.383l4.456-2.044l-1.558-1.255l-4.471,2.062l-0.705-0.598l4.456-2.043l-5.575-4.492l0.551-0.683l8.654,6.973
		l-0.55,0.683l-0.009-0.007l-4.447,2.051L113.15,172.383z"/>
	<path d="M106.111,181.537l4.39-2.184l-1.597-1.206l-4.404,2.202l-0.724-0.576l4.39-2.184l-5.715-4.314l0.529-0.7l8.872,6.697
		l-0.529,0.7l-0.009-0.007l-4.38,2.19L106.111,181.537z"/>
	<path d="M102.668,186.231l4.358-2.25l-8.142-5.958l0.519-0.708l8.973,6.566l-0.518,0.708l-0.01-0.007l-4.349,2.256L102.668,186.231
		z"/>
	<path d="M103.21,191.056l-9.089-6.421l0.507-0.718l9.089,6.422L103.21,191.056z"/>
	<path d="M98.658,197.62l-9.176-6.277l0.496-0.724l4.588,3.138l4.67-2.122l-0.056,5.222l-0.026,0.039L98.658,197.62z
		 M95.426,194.345l2.772,1.896l0.193-3.413L95.426,194.345z"/>
	<path d="M97.659,199.135l-3.155,0.932l-4.384-1.074l-3.965-2.621l0.419-0.635l3.848,2.543l4.065,1.003l2.691-0.803l0.078-0.117
		l-8.643-5.712l0.491-0.742l9.277,6.132L97.659,199.135z"/>
	<path d="M89.658,205.573l4.209-2.523l-1.688-1.078l-4.222,2.543l-0.767-0.518l4.209-2.524l-6.042-3.856l0.473-0.741l9.379,5.987
		l-0.473,0.74l-0.01-0.006l-4.199,2.53L89.658,205.573z"/>
	<path d="M85.547,218.644l-3.089,1.133l-4.445-0.79l-4.126-2.36l0.378-0.661l4.004,2.291l4.122,0.739l2.635-0.974l0.07-0.122
		l-8.994-5.145l0.442-0.772l9.654,5.523L85.547,218.644z"/>
	<path d="M77.459,225.285l2.992-0.863l-8.336-4.603l0.424-0.769l8.326,4.597l-0.859-2.976l1.025,0.566l1.034,3.581l-3.581,1.033
		L77.459,225.285z"/>
	<path d="M67.591,228.281l0.399-0.781l9.906,5.048l-0.404,0.792l-0.157-0.08l-4.185-0.22l2.604,3.341l0.146,0.075l-0.405,0.792
		l-9.896-5.069l0.399-0.782l8.322,4.239l-2.573-3.273l4.16,0.167L67.591,228.281z"/>
	<path d="M69.392,238.388l-5.519-2.708l0.387-0.788l5.908,2.898l1.583-1.206l0.915,0.449l-1.562,1.216l3.143,1.542l-0.387,0.789
		l-3.543-1.738l-1.572,1.211l-0.925-0.454L69.392,238.388z"/>
	<path d="M71.42,245.651l-10.061-4.74l0.375-0.794l10.06,4.74L71.42,245.651z"/>
	<path d="M68.094,252.901l-10.133-4.581l0.299-0.662l2.805,1.269l3.689-0.375l-2.122-3.092l-2.8-1.279l0.299-0.661l10.133,4.581
		l-0.299,0.662l-3.911,0.326l2.344,3.141L68.094,252.901z M62.26,249.468l4.8,2.169l-1.797-2.418L62.26,249.468z M65.624,248.419
		l3.007-0.259l-4.811-2.174L65.624,248.419z"/>
	<path d="M60.65,262.194l3.706-3.218l-1.85-0.767l-3.714,3.24l-0.846-0.376l3.706-3.218l-6.621-2.746l0.336-0.811l10.278,4.262
		l-0.336,0.811l-0.011-0.004l-3.694,3.223L60.65,262.194z"/>
	<path d="M61.755,268.11l-0.272,0.685l-10.335-4.102l0.272-0.686l4.91-0.091l-3.506-3.444l0.263-0.664l10.34,4.092l-0.268,0.674
		l-4.975,0.065l3.576,3.459L61.755,268.11z M53.192,264.711l6.641,2.624l-2.742-2.675L53.192,264.711z M57.409,263.892l3.849-0.084
		l-6.669-2.647L57.409,263.892z"/>
	<path d="M57.542,279.473l-10.466-3.769l0.246-0.683l2.897,1.043l3.649-0.665l-2.36-2.916l-2.894-1.055l0.246-0.683l10.466,3.769
		l-0.246,0.683l-3.875,0.633l2.585,2.947L57.542,279.473z M51.453,276.508l4.958,1.785l-1.983-2.27L51.453,276.508z M54.726,275.197
		l2.979-0.495l-4.968-1.79L54.726,275.197z"/>
	<path d="M56.375,282.864l-10.524-3.595l0.284-0.831l10.524,3.595L56.375,282.864z"/>
	<path d="M49.774,286.962l-5.848-1.898l0.271-0.835l6.26,2.032l1.396-1.418l0.969,0.314l-1.374,1.425l3.331,1.082l-0.271,0.835
		l-3.753-1.219l-1.385,1.422l-0.98-0.318L49.774,286.962z"/>
	<path d="M52.833,293.853l-10.64-3.262l0.258-0.84l10.64,3.261L52.833,293.853z"/>
	<path d="M50.57,301.507l-10.683-3.088l0.201-0.697l2.958,0.855l3.598-0.897l-2.542-2.757l-2.955-0.866l0.202-0.697l10.684,3.088
		l-0.202,0.697l-3.825,0.88l2.769,2.774L50.57,301.507z M44.306,298.941l5.061,1.463l-2.124-2.137L44.306,298.941z M47.486,297.423
		l2.94-0.686l-5.072-1.465L47.486,297.423z"/>
	<path d="M48.947,307.456l-0.217,0.85l-5.385-1.377l1.174,4.854l-0.845-0.24l-1.18-4.832l-1.701-0.435l1.181,4.831l-0.851-0.217
		l-1.18-4.832l-1.984-0.507l0.217-0.85L48.947,307.456z"/>
	<path d="M36.508,311.322l0.204-0.854l10.817,2.569l-0.207,0.865l-0.171-0.041l-4.119,0.773l3.318,2.633l0.16,0.038l-0.207,0.865
		l-10.811-2.591l0.204-0.854l9.086,2.156l-3.272-2.574l4.081-0.818L36.508,311.322z"/>
	<path d="M40.645,320.719l-6-1.33l0.19-0.857l6.423,1.423l1.254-1.544l0.994,0.22l-1.231,1.55l3.417,0.757l-0.19,0.857l-3.852-0.854
		l-1.242,1.547l-1.006-0.223L40.645,320.719z"/>
	<path d="M44.344,327.31l-10.901-2.232l0.176-0.861l10.901,2.232L44.344,327.31z"/>
	<path d="M39.664,334.533l2.964-3.909l-1.967-0.37l-2.968,3.932l-0.905-0.194l2.964-3.909l-7.042-1.326l0.163-0.863l10.93,2.059
		l-0.163,0.863l-0.012-0.002l-2.953,3.912L39.664,334.533z"/>
	<path d="M41.846,340.813l-10.959-1.884l0.123-0.715l3.034,0.522l3.476-1.291l-2.831-2.458l-3.032-0.533l0.123-0.715l10.959,1.884
		l-0.123,0.715l-3.703,1.299l3.059,2.45L41.846,340.813z M35.336,338.957l5.191,0.893l-2.348-1.889L35.336,338.957z M38.328,337.097
		l2.846-1.007l-5.203-0.895L38.328,337.097z"/>
	<path d="M39.478,357.842l-11.046-1.363l0.107-0.872l5.523,0.682l3.177-4.035l2.352,4.669l-0.006,0.046L39.478,357.842z
		 M35.098,356.417l3.337,0.412l-1.397-3.123L35.098,356.417z"/>
	<path d="M39.277,359.647l-2.373,2.279l-4.387,1.065l-4.727-0.502l0.081-0.757l4.587,0.487l4.072-0.98l2.021-1.952l0.015-0.14
		l-10.304-1.094l0.094-0.885l11.06,1.174L39.277,359.647z"/>
	<path d="M38.527,367.137l-11.075-1l0.079-0.875l11.075,1L38.527,367.137z"/>
	<path d="M32.698,370.295l0.011,0.013l1.822,4.537l-7.727-0.587l0.065-0.875l6.245,0.465l-1.822-4.538l6.993,0.509l-0.066,0.887
		L32.698,370.295z"/>
	<path d="M32.422,384.242l-6.144-0.265l0.038-0.877l6.578,0.283l0.966-1.741l1.018,0.044l-0.942,1.742l3.499,0.15l-0.038,0.878
		l-3.944-0.169l-0.955,1.741l-1.03-0.044L32.422,384.242z"/>
	<path d="M26.045,390.951l3.028-1.533l-2.94-1.697l0.028-1.018l3.875,2.226l3.432-1.733l3.739,2.445l-3.868,2.237l-3.332-1.918
		l-3.99,2.011L26.045,390.951z M30.97,389.469l2.398,1.377l2.236-1.25l-2.165-1.371L30.97,389.469z"/>
	<path d="M31.58,393.654l0.011,0.012l2.085,4.423l-7.748-0.133l0.014-0.878l6.261,0.098l-2.084-4.423l7.011,0.098l-0.014,0.889
		L31.58,393.654z"/>
	<path d="M33.295,403.995l2.166-2.235l-9.515,0.149l-0.014-0.878l9.503-0.148l-2.223-2.155l1.17-0.018l2.674,2.592l-2.592,2.675
		L33.295,403.995z"/>
	<path d="M37,405.551l-3.969,4.129l-1.197-2.61l-5.783,3.041l-0.011-0.878l6.084-3.339l1.218,2.318l2.571-2.673l-9.936,0.194
		l-0.017-0.89l11.118-0.218l-0.038,0.55L37,405.516V405.551z"/>
	<path d="M37.247,411.721l-2.03,2.591l-4.195,1.671l-4.751,0.167l-0.027-0.761l4.611-0.162l3.895-1.544l1.727-2.217l-0.005-0.14
		l-10.358,0.364l-0.031-0.89l11.119-0.392L37.247,411.721z"/>
	<path d="M38,420.694l-0.146,0.736l-11.196,0.565l-0.083-0.736l4.404-2.124l-4.632-1.675l-0.042-0.713l11.101-0.577l0.035,0.725
		l-4.313,2.128L38,420.683V420.694z M31.927,418.664l3.465-1.676l-7.165,0.364L31.927,418.664z M28.433,421.163l7.129-0.375
		l-3.605-1.293L28.433,421.163z"/>
	<path d="M27.071,429.383L27,428.507l11.088-0.925l0.073,0.887l-0.175,0.015l-3.677,2.019l3.976,1.471l0.164-0.014l0.073,0.888
		l-11.09,0.901l-0.072-0.875l9.314-0.779l-3.914-1.429l3.627-2.05L27.071,429.383z"/>
	<path d="M35.674,436.712l3.324,1.003l0.085,0.875l-5.473-1.676l-5.817,0.571l-0.086-0.875l5.84-0.573l5.021-2.693l0.086,0.874
		l-3.043,1.617l3.171-0.312l0.086,0.874L35.674,436.712z"/>
	<path d="M28.18,441.224l-0.1-0.872l11.044-1.273l0.101,0.884l-0.174,0.021l-3.608,2.131l4.017,1.344l0.163-0.019l0.101,0.884
		l-11.047,1.249l-0.1-0.871l9.277-1.071l-3.953-1.304l3.558-2.161L28.18,441.224z"/>
	<path d="M39.914,445.758l-3.542,4.547l-1.501-2.462l-5.428,3.658l-0.113-0.87l5.681-3.986l1.463,2.171l2.263-2.939l-9.858,1.282
		l-0.115-0.882l11.031-1.436l0.071,0.546l0.044,0.337L39.914,445.758z"/>
	<path d="M30.134,456.209l3.429-3.465l-3.856,0.569l-0.128-0.869l11.002-1.623l0.128,0.868l-5.93,0.875l-4.481,4.756L30.134,456.209
		z"/>
	<path d="M41.878,459.294l-10.973,1.797l-0.142-0.866l10.973-1.797L41.878,459.294z"/>
	<path d="M39.508,467.837l1.775-2.556l-9.366,1.688l-0.156-0.864l9.354-1.686l-2.542-1.766l1.152-0.208l3.059,2.125l-2.125,3.06
		L39.508,467.837z"/>
	<path d="M41.203,473.45l1.302-4.731l-1.965,0.387l-1.297,4.754l-0.912,0.155l1.302-4.731l-7.032,1.383l-0.169-0.862l10.916-2.146
		l0.169,0.862l-0.011,0.002l-1.29,4.729L41.203,473.45z"/>
	<path d="M41.829,479.251l1.693-2.61l-9.304,1.985l-0.183-0.858l9.292-1.982l-2.597-1.684l1.145-0.244L45,475.883l-2.026,3.124
		L41.829,479.251z"/>
	<path d="M46.353,481.95l-10.843,2.493l-0.197-0.855l10.843-2.494L46.353,481.95z"/>
	<path d="M37.177,491.371l2.511-2.285l-3.286-0.853l-0.244-0.989l4.328,1.114l2.847-2.585l4.256,1.361l-3.133,3.187l-3.723-0.963
		l-3.312,3.001L37.177,491.371z M41.53,488.631l2.679,0.689l1.823-1.801l-2.452-0.745L41.53,488.631z"/>
	<path d="M44.358,494.581l-5.944,1.57l-0.224-0.85l6.363-1.681l0.406-1.948l0.985-0.261l-0.383,1.942l3.385-0.894l0.224,0.849
		l-3.815,1.008l-0.395,1.945l-0.996,0.264L44.358,494.581z"/>
	<path d="M51.714,502.459l-1.312,3.017l-3.637,2.671l-4.553,1.356l-0.217-0.729l4.419-1.316l3.378-2.472l1.112-2.578l-0.04-0.135
		l-9.926,2.957l-0.254-0.852l10.655-3.175L51.714,502.459z"/>
	<path d="M51.519,512.741l0.767-4.848l-9.628,3.039l-0.265-0.838l10.611-3.349l0.264,0.838l-0.011,0.003l-0.756,4.845
		L51.519,512.741z"/>
	<path d="M53.357,518.271l0.687-4.858l-9.576,3.196l-0.278-0.834l10.553-3.522l0.278,0.834l-0.011,0.003l-0.676,4.855
		L53.357,518.271z"/>
	<path d="M55.276,523.771l0.612-4.867l-1.889,0.663l-0.604,4.89l-0.88,0.284l0.612-4.868l-6.761,2.372l-0.291-0.828l10.495-3.683
		l0.291,0.829l-0.011,0.004l-0.602,4.863L55.276,523.771z"/>
	<path d="M60.306,528.094l-10.437,3.856l-0.252-0.682l2.89-1.067l2.365-2.859l-3.684-0.711l-2.894,1.057l-0.251-0.682l10.437-3.855
		l0.251,0.681l-2.557,2.98l3.876,0.59L60.306,528.094z M55.397,526.636l1.96-2.297l-4.955,1.83L55.397,526.636z M53.737,529.746
		l4.944-1.826l-2.979-0.46L53.737,529.746z"/>
	<path d="M51.59,536.418l2.576-4.135l-3.633,1.407l-0.317-0.818l10.364-4.015l0.317,0.817l-5.586,2.164l-3.316,5.627L51.59,536.418z
		"/>
	<path d="M53.873,542.1l2.158-2.622l-3.375-0.373l-0.384-0.943l4.443,0.481l2.448-2.967l4.408,0.737l-2.644,3.603l-3.823-0.418
		l-2.847,3.445L53.873,542.1z M57.788,538.763l2.75,0.298l1.546-2.044l-2.533-0.386L57.788,538.763z"/>
	<path d="M66.152,550.646l0.221-4.898l-9.22,4.091l-0.356-0.803l10.162-4.508l0.355,0.802l-0.01,0.005l-0.21,4.895L66.152,550.646z"
		/>
	<path d="M68.585,555.918l0.143-4.901l-1.816,0.84l-0.133,4.923l-0.849,0.367l0.144-4.901l-6.5,3.007l-0.369-0.797l10.089-4.668
		l0.368,0.797l-0.01,0.005l-0.133,4.896L68.585,555.918z"/>
	<path d="M72.049,560.74l-0.928,0.447l-3.514-2.088l-0.045,3.79l-0.822,0.396l-4.647-2.633l-0.381-0.791l10.017-4.827l0.381,0.791
		L72.049,560.74z M66.813,558.639l-0.239-0.146l-3.69,1.778l3.874,2.188L66.813,558.639z M71.319,556.207l-3.701,1.783l0.001,0.246
		l3.645,2.063L71.319,556.207z"/>
	<path d="M66.208,569.023l1.945-2.783l-3.394-0.106l-0.457-0.91l4.467,0.131l2.207-3.15l4.452,0.388l-2.352,3.8l-3.844-0.116
		l-2.567,3.658L66.208,569.023z M69.848,565.39l2.765,0.08l1.38-2.159l-2.556-0.186L69.848,565.39z"/>
	<path d="M77.26,566.208l-1.757,5.485l-2.256-1.792l-3.833,5.302l-0.406-0.778l3.958-5.697l2.121,1.534l1.111-3.538l-8.809,4.599
		l-0.412-0.788l9.857-5.146l0.255,0.488l0.157,0.301L77.26,566.208z"/>
	<path d="M80.979,573.218l-9.771,5.306l-0.419-0.771l9.771-5.306L80.979,573.218z"/>
	<path d="M77.874,579.063l0.016,0.004l4.033,2.764l-6.753,3.799l-0.432-0.765l5.453-3.078l-4.032-2.764l6.1-3.456l0.437,0.774
		L77.874,579.063z"/>
	<path d="M85.379,590.823l-5.255,3.188l-0.456-0.751l5.625-3.413l-0.163-1.983l0.871-0.528l0.182,1.971l2.993-1.815l0.456,0.751
		l-3.374,2.046l0.172,1.978l-0.881,0.534L85.379,590.823z"/>
	<path d="M92.597,593.034l-9.422,5.914l-0.467-0.743l9.422-5.914L92.597,593.034z"/>
	<path d="M89.871,599.081l0.016,0.004l4.197,2.505l-6.501,4.213l-0.479-0.736l5.25-3.412l-4.197-2.506l5.871-3.83l0.485,0.746
		L89.871,599.081z"/>
	<path d="M98.889,602.711l-9.22,6.204l-0.49-0.728l9.22-6.205L98.889,602.711z"/>
	<path d="M104.405,610.645l-0.251,3.281l-2.562,3.717l-3.859,2.775l-0.444-0.618l3.745-2.693l2.383-3.444l0.207-2.802l-0.082-0.114
		l-8.413,6.05l-0.52-0.723l9.031-6.494L104.405,610.645z"/>
	<path d="M107.111,620.767l0.453-3.081l-7.642,5.682l-0.524-0.704l7.633-5.675l-3.065-0.451l0.94-0.699l3.688,0.543l-0.542,3.688
		L107.111,620.767z"/>
	<path d="M114.658,629.495l-1.014-4.8l-1.568,1.245l1.029,4.818l-0.739,0.557l-1.015-4.801l-5.612,4.455l-0.546-0.688l8.712-6.914
		l0.546,0.688l-0.009,0.008l1.023,4.792L114.658,629.495z"/>
	<path d="M118.358,634.007l-1.095-4.783l-7.8,6.405l-0.557-0.679l8.596-7.06l0.558,0.679l-0.009,0.008l1.104,4.775L118.358,634.007z
		"/>
	<path d="M123.146,634.687l-8.495,7.189l-0.567-0.671l8.495-7.189L123.146,634.687z"/>
	<path d="M128.372,640.729l-8.378,7.321l-0.578-0.662l4.189-3.66l-0.888-5.057l5.046,1.361l0.031,0.035L128.372,640.729z
		 M124.39,643.043l2.531-2.212l-3.258-1.041L124.39,643.043z"/>
	<path d="M129.595,642.091l0.112,3.289l-2.138,3.978l-3.531,3.185l-0.51-0.565l3.427-3.09l1.99-3.687l-0.104-2.809l-0.094-0.104
		l-7.697,6.941l-0.596-0.661l8.263-7.451L129.595,642.091z"/>
	<path d="M134.674,647.65l-8.132,7.581l-0.599-0.642l8.132-7.581L134.674,647.65z"/>
	<path d="M136.522,649.62l0.935,5.194l2.109-2.029l0.609,0.633l-3.375,3.247l-0.935-5.194l-5.485,5.276l5.153,1.135l-3.375,3.247
		l-0.609-0.633l2.109-2.029l-5.153-1.135L136.522,649.62z"/>
	<path d="M137.368,666.362l-0.628-0.613l7.761-7.966l0.637,0.621l-0.123,0.126l-1.452,3.934l3.964-1.497l0.115-0.117l0.637,0.622
		l-7.778,7.95l-0.628-0.613l6.519-6.693l-3.89,1.487l1.394-3.925L137.368,666.362z"/>
	<path d="M148.661,666.263l3.164-1.42l0.637,0.604l-5.225,2.321l-4.013,4.241l-0.637-0.604l4.029-4.258l2.021-5.32l0.638,0.604
		l-1.235,3.212l2.187-2.312l0.638,0.604L148.661,666.263z"/>
	<path d="M150.29,678.519l-0.657-0.584l7.384-8.328l0.666,0.591l-0.117,0.132l-1.266,4l3.893-1.682l0.109-0.123l0.666,0.592
		l-7.401,8.313l-0.657-0.584l6.202-6.997l-3.819,1.67l1.208-3.988L150.29,678.519z"/>
	<path d="M163.217,679.31l-1.904-4.521l-1.305,1.519l1.921,4.537l-0.621,0.687l-1.903-4.521l-4.669,5.435l-0.666-0.572l7.248-8.437
		l0.666,0.572l-0.007,0.009l1.911,4.513L163.217,679.31z"/>
	<path d="M166.237,692.041l0.172-4.872l-2.449,3.034l-0.683-0.552l6.987-8.654l0.683,0.552l-3.766,4.664l-0.069,6.534
		L166.237,692.041z"/>
	<path d="M171.021,695.818l0.569-3.347l-3.112,1.354l-0.802-0.628l4.093-1.79l0.648-3.79l4.188-1.552l-0.502,4.438l-3.524,1.538
		l-0.757,4.403L171.021,695.818z M172.759,690.979l2.534-1.108l0.324-2.541l-2.389,0.925L172.759,690.979z"/>
	<path d="M183.285,691.171l-6.711,8.871l-0.579-0.438l1.858-2.455l0.451-3.683l-3.486,1.386l-1.868,2.449l-0.579-0.438l6.711-8.872
		l0.579,0.438l-0.548,3.888l3.583-1.592L183.285,691.171z M178.366,692.588l0.413-2.991l-3.186,4.212L178.366,692.588z
		 M178.644,696.103l3.179-4.203l-2.757,1.219L178.644,696.103z"/>
	<path d="M187.939,694.59l-6.566,8.973l-0.585-0.429l1.818-2.483l0.392-3.688l-3.462,1.44l-1.828,2.478l-0.585-0.429l6.567-8.973
		l0.585,0.429l-0.486,3.894l3.556-1.647L187.939,694.59z M183.046,696.085l0.365-2.996l-3.117,4.26L183.046,696.085z
		 M183.379,699.592l3.11-4.25l-2.736,1.262L183.379,699.592z"/>
	<path d="M185.409,706.428l0.406-3.368l-3.042,1.503l-0.831-0.588l4-1.986l0.464-3.815l4.107-1.752l-0.286,4.456l-3.444,1.706
		l-0.542,4.433L185.409,706.428z M186.91,701.512l2.476-1.229l0.201-2.553l-2.341,1.038L186.91,701.512z"/>
	<path d="M196.81,700.785l0.608,0.416l-6.277,9.176l-0.608-0.416l0.992-4.809l-4.131,2.661l-0.589-0.402l6.267-9.183l0.599,0.409
		l-1.032,4.866l4.161-2.726L196.81,700.785z M191.739,704.094l0.766-3.772l-4.05,5.921L191.739,704.094z M191.61,708.387
		l4.021-5.898l-3.212,2.084L191.61,708.387z"/>
	<path d="M195.249,713.101l0.298-3.381l-2.994,1.6l-0.85-0.562l3.937-2.112l0.342-3.83l4.051-1.883l-0.145,4.465l-3.389,1.815
		l-0.401,4.449L195.249,713.101z M196.593,708.138l2.436-1.308l0.12-2.56l-2.307,1.113L196.593,708.138z"/>
	<path d="M205.063,719.317l-0.443-4.855l-2.048,3.318l-0.747-0.462l5.842-9.465l0.747,0.461l-3.148,5.102l0.754,6.491
		L205.063,719.317z"/>
	<path d="M210.308,722.467l0.137-3.39l-2.913,1.739l-0.875-0.521l3.83-2.296l0.16-3.84l3.955-2.071l0.067,4.464l-3.297,1.974
		l-0.19,4.461L210.308,722.467z M211.415,717.448l2.37-1.422l-0.001-2.561l-2.251,1.221L211.415,717.448z"/>
	<path d="M217.62,719.608l-3.06,5.327l-0.761-0.438l3.276-5.702l-1.099-1.657l0.507-0.883l1.111,1.637l1.743-3.034l0.761,0.438
		l-1.964,3.419l1.105,1.647l-0.513,0.893L217.62,719.608z"/>
	<path d="M220.417,721.831l0.016-0.005l4.887,0.236l-3.758,6.782l-0.769-0.425l3.028-5.485l-4.887-0.236l3.381-6.147l0.779,0.43
		L220.417,721.831z"/>
	<path d="M222.931,729.585l-0.775-0.412l5.208-9.819l0.785,0.417l-0.083,0.155l-0.288,4.18l3.382-2.548l0.077-0.145l0.785,0.418
		l-5.229,9.808l-0.774-0.411l4.373-8.249l-3.313,2.518l0.235-4.155L222.931,729.585z"/>
	<path d="M237.159,724.458l-5.073,9.9l-0.782-0.4l2.537-4.95l-2.696-4.369l5.191-0.603l0.042,0.021L237.159,724.458z
		 M234.316,728.08l1.533-2.991l-3.412,0.238L234.316,728.08z"/>
	<path d="M238.799,725.277l1.321,3.013l-0.513,4.483l-2.1,4.262l-0.683-0.336l2.038-4.136l0.483-4.159l-1.135-2.568l-0.126-0.063
		l-4.578,9.291l-0.798-0.393l4.914-9.974L238.799,725.277z"/>
	<path d="M246.2,732.4l-3.035-3.857l-0.856,1.811l3.056,3.867l-0.417,0.827l-3.035-3.857l-3.063,6.48l-0.794-0.375l4.755-10.061
		l0.794,0.376l-0.005,0.011l3.041,3.847L246.2,732.4z"/>
	<path d="M251.249,735.332l-1.099-2.911l-3.92,8.671l-0.8-0.361l3.915-8.661l-2.896,1.093l0.482-1.066l3.485-1.314l1.315,3.484
		L251.249,735.332z"/>
	<path d="M268.01,738.205l0.685,0.271l-4.102,10.336l-0.686-0.272l-0.091-4.909l-3.444,3.506l-0.664-0.264l4.092-10.34l0.674,0.269
		l0.065,4.975l3.459-3.576L268.01,738.205z M263.792,742.55l-0.084-3.849l-2.647,6.669L263.792,742.55z M264.611,746.767
		l2.624-6.641l-2.675,2.741L264.611,746.767z"/>
	<path d="M270.394,739.116l1.607,2.872l-0.077,4.515l-1.679,4.448l-0.712-0.27l1.629-4.316l0.079-4.188l-1.379-2.448l-0.131-0.049
		l-3.66,9.695l-0.833-0.314l3.928-10.407L270.394,739.116z"/>
	<path d="M277.462,741.734l-3.769,10.466l-0.827-0.298l3.769-10.466L277.462,741.734z"/>
	<path d="M279.053,748.174l0.015-0.008l4.85-0.619l-2.516,7.33l-0.831-0.284l2.024-5.927l-4.851,0.62l2.256-6.64l0.842,0.287
		L279.053,748.174z"/>
	<path d="M294.946,750.87l-3.558-3.382l-0.587,1.915l3.581,3.389l-0.294,0.878l-3.558-3.382l-2.101,6.854l-0.84-0.258l3.262-10.64
		l0.84,0.258l-0.003,0.011l3.562,3.371L294.946,750.87z"/>
	<path d="M297.613,748.303l1.83,2.734l0.282,4.505l-1.32,4.565l-0.731-0.211l1.281-4.431l-0.254-4.18l-1.568-2.33l-0.135-0.039
		l-2.876,9.952l-0.855-0.247l3.088-10.684L297.613,748.303z"/>
	<path d="M305.98,754.594l-1.546-2.699l-2.494,9.18l-0.847-0.229l2.49-9.169l-2.685,1.538l0.307-1.129l3.23-1.851l1.851,3.23
		L305.98,754.594z"/>
	<path d="M305.598,762.051l-0.851-0.216l2.729-10.773l0.862,0.219l-0.043,0.17l0.712,4.129l2.68-3.277l0.041-0.159l0.862,0.22
		l-2.751,10.767l-0.851-0.216l2.29-9.05l-2.621,3.232l-0.758-4.092L305.598,762.051z"/>
	<path d="M321.576,754.447l-2.406,10.857l-0.857-0.19l2.406-10.857L321.576,754.447z"/>
	<path d="M325.103,755.204l3.148,4.829l-2.817,0.619l1.694,6.324l-0.861-0.176l-1.922-6.671l2.53-0.677l-2.044-3.097l-1.995,9.741
		l-0.872-0.179l2.232-10.9l0.539,0.11l0.333,0.068L325.103,755.204z"/>
	<path d="M331.169,756.426l2.081,2.549l0.709,4.458l-0.88,4.671l-0.748-0.141l0.854-4.533l-0.65-4.138l-1.783-2.17l-0.138-0.026
		l-1.917,10.183l-0.875-0.165l2.059-10.93L331.169,756.426z"/>
	<path d="M336.454,757.404l3.297,4.724l-2.794,0.707l1.892,6.265l-0.865-0.149l-2.131-6.602l2.505-0.757l-2.14-3.028l-1.684,9.794
		l-0.877-0.151l1.885-10.958l0.542,0.093l0.334,0.058L336.454,757.404z"/>
	<path d="M340.407,769.345l-0.868-0.135l1.699-10.99l0.879,0.138l-0.027,0.173l1.1,4.045l2.36-3.518l0.025-0.162l0.879,0.137
		l-1.722,10.986l-0.868-0.136l1.425-9.231l-2.305,3.468l-1.142-4.004L340.407,769.345z"/>
	<path d="M357.037,760.422l0.732,0.09l-1.363,11.046l-0.732-0.091l-1.329-4.731l-2.45,4.266l-0.709-0.087l1.351-11.048l0.721,0.089
		l1.32,4.802l2.447-4.337L357.037,760.422z M354.049,765.695l-1.054-3.707l-0.879,7.128L354.049,765.695z M355.908,769.572
		l0.863-7.095l-1.898,3.331L355.908,769.572z"/>
	<path d="M361.304,772.09l-1.288-3.142l-1.925,2.796l-1.013-0.108l2.528-3.686l-1.455-3.56l2.735-3.534l1.922,4.034l-2.178,3.17
		l1.687,4.139L361.304,772.09z M360.219,767.063l1.564-2.281l-1.069-2.329l-1.539,2.049L360.219,767.063z"/>
	<path d="M368.965,764.87l-4.175-2.575l-0.908,10.049l-0.874-0.078l1.059-11.075L365,761.27v0.012l4.117,2.563L368.965,764.87z"/>
	<path d="M373.167,773.115l-1.389-3.097l-1.833,2.856l-1.016-0.076l2.405-3.765l-1.57-3.509l2.617-3.62l2.052,3.968l-2.073,3.238
		l1.821,4.079L373.167,773.115z M371.919,768.127l1.488-2.33l-1.144-2.292l-1.471,2.097L371.919,768.127z"/>
	<path d="M376.455,762.191l3.804,4.328l-2.699,1.015l2.579,6.016l-0.876-0.052l-2.854-6.325l2.406-1.031l-2.464-2.772l-0.583,9.924
		l-0.888-0.053l0.652-11.104l0.549,0.032l0.339,0.02L376.455,762.191z"/>
	<path d="M389.998,762.801l-0.305,11.119l-0.877-0.024l0.304-11.118L389.998,762.801z"/>
	<path d="M395.89,767.894l-0.096,6.145l-0.878-0.014l0.103-6.578l-1.765-0.917l0.016-1.019l1.765,0.895l0.055-3.5l0.877,0.014
		l-0.062,3.944l1.765,0.906l-0.016,1.029L395.89,767.894z"/>
	<path d="M405.325,763l4.129,3.97l-2.61,1.198l3.041,5.783l-0.878,0.012l-3.339-6.085l2.318-1.218l-2.673-2.57l0.194,9.936
		l-0.89,0.018l-0.218-11.119l0.55,0.036l0.34,0.04H405.325z"/>
	<path d="M411.446,773.894l-0.878,0.03l-0.403-11.117l0.89-0.031l0.006,0.175l1.844,3.768l1.655-3.902l-0.006-0.164l0.89-0.031
		l0.38,11.119l-0.878,0.031l-0.34-9.339l-1.611,3.841l-1.877-3.719L411.446,773.894z"/>
	<path d="M415.945,762.608l4.532,2.699l-0.149-2.922l0.877-0.045l0.238,4.676l-4.532-2.699l0.387,7.598l4.234-3.146l0.238,4.675
		l-0.877,0.045l-0.148-2.922l-4.234,3.146L415.945,762.608z"/>
	<path d="M422.645,762.242l4.316,3.821l-2.552,1.344l3.311,5.649l-0.876,0.059l-3.623-5.922l2.26-1.325l-2.793-2.443l0.661,9.923
		l-0.889,0.06l-0.739-11.104l0.55-0.037l0.339-0.022L422.645,762.242z"/>
	<path d="M429.271,772.937l-0.876,0.072l-0.925-11.089l0.887-0.073l0.015,0.176l2.019,3.677l1.471-3.977l-0.014-0.163l0.888-0.073
		l0.901,11.091l-0.875,0.071l-0.779-9.313l-1.429,3.913l-2.05-3.627L429.271,772.937z"/>
	<path d="M435.212,772.418l-0.874,0.086l-1.087-11.074l0.874-0.086l0.319,3.252l3.665,1.371L437.622,761l0.875-0.086l1.087,11.075
		l-0.874,0.086l-0.256-2.6l-3.657-1.289L435.212,772.418z M434.707,767.277l3.658,1.289l-0.17-1.726l-3.666-1.382L434.707,767.277z"
		/>
	<path d="M441.15,771.827l-0.872,0.1l-1.273-11.045l0.884-0.101l0.021,0.175l2.131,3.608l1.344-4.018l-0.019-0.162l0.884-0.102
		l1.249,11.048l-0.871,0.1l-1.071-9.277l-1.304,3.953l-2.161-3.558L441.15,771.827z"/>
	<path d="M448.566,764.738l0.794,6.097l-0.871,0.113l-0.85-6.526l-1.88-0.652l-0.131-1.011l1.877,0.63l-0.452-3.472l0.871-0.113
		l0.509,3.913l1.879,0.641l0.133,1.022L448.566,764.738z"/>
	<path d="M454.948,759l0.729-0.199l1.609,10.958l-0.729,0.083l-2.532-4.219l-1.232,4.753l-0.706,0.1l-1.621-11.001l0.719-0.106
		l2.542,4.367l1.21-4.735H454.948z M453.465,764.688l-1.996-3.293l1.039,7.1L453.465,764.688z M456.281,767.932l-1.045-7.063
		l-0.947,3.711L456.281,767.932z"/>
	<path d="M458.834,769.467l-0.867,0.141l-1.794-10.971l0.878-0.144l0.028,0.174l2.3,3.503l1.151-4.076l-0.026-0.161l0.878-0.143
		l1.771,10.975l-0.866,0.142l-1.509-9.216l-1.115,4.01l-2.327-3.451L458.834,769.467z"/>
	<path d="M462.779,757.535l4.712,3.314l-2.384,1.619l3.917,5.241l-0.863,0.155l-4.258-5.478L466,760.82l-3.046-2.115l1.762,9.78
		l-0.875,0.158l-1.972-10.944l0.541-0.098l0.335-0.061L462.779,757.535z"/>
	<path d="M470.562,756.083l2.146,10.915l-0.861,0.17l-2.146-10.916L470.562,756.083z"/>
	<path d="M479.16,758.188l-2.61-1.692l1.985,9.305l-0.858,0.183l-1.982-9.293l-1.684,2.597l-0.244-1.145l2.025-3.124l3.124,2.025
		L479.16,758.188z"/>
	<path d="M487.358,752.363l2.652,10.799l-0.853,0.21l-2.652-10.8L487.358,752.363z"/>
	<path d="M494.343,755.71l1.563,5.944l-0.85,0.224l-1.672-6.363l-1.947-0.408l-0.259-0.985l1.941,0.386l-0.89-3.385l0.849-0.224
		l1.003,3.815l1.944,0.397l0.262,0.996L494.343,755.71z"/>
	<path d="M500.993,748.721l0.841-0.25l1.588,5.327l3.56-3.503l0.228,0.848l-3.537,3.496l0.501,1.683l3.538-3.496l0.25,0.841
		l-3.537,3.496l0.585,1.963l-0.841,0.25L500.993,748.721z"/>
	<path d="M513.91,756.407l-2.437-2.364l-0.646,3.333l-0.972,0.305l0.843-4.388l-2.757-2.681l1.093-4.332l3.375,2.928l-0.729,3.776
		l3.201,3.117L513.91,756.407z M510.905,752.233l0.521-2.716l-1.91-1.707l-0.592,2.493L510.905,752.233z"/>
	<path d="M518.043,746.728l-4.855-0.692l3.183,9.576l-0.833,0.276l-3.508-10.553l0.833-0.277l0.004,0.012l4.853,0.681
		L518.043,746.728z"/>
	<path d="M518.734,743.078l3.077,1.166l2.843,3.506l1.573,4.485l-0.718,0.252l-1.527-4.353l-2.632-3.258l-2.629-0.988l-0.133,0.047
		l3.43,9.776l-0.839,0.295l-3.683-10.495L518.734,743.078z"/>
	<path d="M522.974,741.591l5.131,1.229l-1.011-2.746l0.824-0.304l1.617,4.395l-5.131-1.229l2.628,7.141l3.109-4.263l1.617,4.395
		l-0.824,0.304l-1.011-2.747l-3.108,4.263L522.974,741.591z"/>
	<path d="M534.667,741.236l-2.849-1.259l3.437,8.882l-0.819,0.317l-3.433-8.872l-1.253,2.834l-0.422-1.093l1.507-3.409l3.409,1.508
		L534.667,741.236z"/>
	<path d="M539.845,738.521l-4.891-0.381l0.752,1.855l4.912,0.372l0.325,0.865l-4.891-0.381l2.689,6.64l-0.813,0.33l-4.175-10.307
		l0.813-0.33l0.005,0.011l4.886,0.37L539.845,738.521z"/>
	<path d="M545.459,736.775l-2.886-1.164l3.722,8.758l-0.809,0.343l-3.717-8.747l-1.158,2.871l-0.458-1.078l1.394-3.453l3.454,1.394
		L545.459,736.775z"/>
	<path d="M549.75,742.885l-0.803,0.356l-4.519-10.157l0.813-0.36l0.071,0.16l3.113,2.805l0.08-4.234l-0.066-0.149l0.813-0.36
		l4.497,10.166l-0.802,0.355l-3.798-8.53l-0.061,4.162l-3.127-2.748L549.75,742.885z"/>
	<path d="M554.842,728.362l0.791-0.381l2.413,5.008l2.959-4.024l0.36,0.801l-2.938,4.015l0.763,1.582l2.938-4.015l0.381,0.791
		l-2.938,4.014l0.89,1.846l-0.791,0.381L554.842,728.362z"/>
	<path d="M565.811,735.4l-0.785,0.394l-4.997-9.938l0.796-0.399l0.079,0.157l3.244,2.656l-0.12-4.236l-0.073-0.146l0.796-0.398
		l4.976,9.949l-0.785,0.394l-4.199-8.348l0.136,4.163l-3.255-2.599L565.811,735.4z"/>
	<path d="M571.358,723.681l-4.904,0.091l4.67,8.944l-0.778,0.406l-5.146-9.857l0.778-0.406l0.006,0.011l4.898-0.102L571.358,723.681
		z"/>
	<path d="M573.004,719.124l5.306,9.784l-0.772,0.419l-5.306-9.785L573.004,719.124z"/>
	<path d="M581.864,718.56l-2.997-0.841l4.664,8.3l-0.766,0.43l-4.658-8.289l-0.836,2.982l-0.574-1.021l1.006-3.588l3.588,1.007
		L581.864,718.56z"/>
	<path d="M591.807,721.212l-0.751,0.454l-5.765-9.503l0.761-0.46l0.091,0.149l3.442,2.39l-0.455-4.211l-0.085-0.14l0.761-0.46
		l5.745,9.515L594.8,719.4l-4.844-7.981l0.465,4.136l-3.448-2.33L591.807,721.212z"/>
	<path d="M593.915,713.387l0.004-0.016l2.574-4.16l4.111,6.572l-0.744,0.467l-3.331-5.307l-2.573,4.16l-3.739-5.935l0.754-0.474
		L593.915,713.387z"/>
	<path d="M598.874,710.261l0.004-0.016l2.505-4.197l4.213,6.501l-0.736,0.479l-3.412-5.249l-2.506,4.197l-3.83-5.87l0.746-0.485
		L598.874,710.261z"/>
	<path d="M606.905,711.681l-0.729,0.489l-6.214-9.227l0.738-0.497l0.098,0.146l3.555,2.225l-0.654-4.188l-0.092-0.136l0.738-0.497
		l6.195,9.241l-0.729,0.489l-5.222-7.75l0.662,4.113l-3.559-2.167L606.905,711.681z"/>
	<path d="M619.204,703.138l-4.653-1.457l2.276,3.166l-0.713,0.513l-6.494-9.031l0.713-0.513l3.5,4.867l6.283,1.799L619.204,703.138z
		"/>
	<path d="M616.529,691.293l6.639,8.93l-0.704,0.523l-6.64-8.93L616.529,691.293z"/>
	<path d="M624.86,689.021l-4.812,0.938l6.143,7.997l-0.696,0.534l-6.77-8.813l0.696-0.534l0.007,0.009l4.805-0.946L624.86,689.021z"
		/>
	<path d="M629.412,685.406l-4.8,1.015l6.274,7.905l-0.688,0.546l-6.914-8.712l0.688-0.546l0.008,0.009l4.792-1.023L629.412,685.406z
		"/>
	<path d="M628.837,681.733l3.288,0.043l3.868,2.32l3.011,3.674l-0.588,0.482l-2.922-3.565l-3.585-2.159l-2.807-0.029l-0.108,0.089
		l6.563,8.008l-0.688,0.564l-7.045-8.597L628.837,681.733z"/>
	<path d="M636.305,675.482l7.189,8.495l-0.554,0.469l-1.991-2.352l-3.495-1.247l0.59,3.707l1.981,2.359l-0.555,0.469l-7.189-8.494
		l0.554-0.47l3.675,1.387l-0.769-3.847L636.305,675.482z M636.61,680.595l-2.829-1.058l3.413,4.032L636.61,680.595z
		 M640.102,681.094l-3.405-4.024l0.585,2.958L640.102,681.094z"/>
	<path d="M644.299,668.411l0.548-0.494l7.451,8.263l-0.548,0.493l-4.444-2.095l1.617,4.645l-0.53,0.479l-7.46-8.255l0.539-0.486
		l4.491,2.147l-1.673-4.688L644.299,668.411z M646.325,674.121l-3.489-1.632l4.808,5.332L646.325,674.121z M650.471,675.256
		l-4.792-5.298l1.272,3.615L650.471,675.256z"/>
	<path d="M655.922,672.817l-3.219-1.086l0.852,3.288l-0.746,0.694l-1.129-4.325l-3.645-1.233l-0.878-4.384l4.309,1.191l0.969,3.723
		l4.233,1.438L655.922,672.817z M651.41,670.343l-0.699-2.678l-2.461-0.719l0.54,2.506L651.41,670.343z"/>
	<path d="M655.485,662.302l-4.683,1.467l6.997,7.273l-0.633,0.608l-7.712-8.016l0.633-0.609l0.009,0.009l4.674-1.475
		L655.485,662.302z"/>
	<path d="M664.48,664.526l-3.249-0.983l0.954,3.258l-0.724,0.717l-1.264-4.285l-3.679-1.118l-1.015-4.351l4.342,1.055l1.084,3.688
		l4.273,1.303L664.48,664.526z M659.897,662.196l-0.783-2.653l-2.48-0.64l0.618,2.485L659.897,662.196z"/>
	<path d="M658.354,654.912l5.762-0.036l-1.002,2.703l6.233,1.995l-0.613,0.628l-6.647-1.99l0.798-2.493l-3.708,0.045l7.111,6.943
		l-0.621,0.637l-7.958-7.77l0.384-0.394l0.237-0.243L658.354,654.912z"/>
	<path d="M670.441,658.432l-0.603,0.638l-8.083-7.631l0.611-0.646l0.128,0.121l3.953,1.389l-1.558-3.938l-0.119-0.113l0.611-0.646
		l8.066,7.647l-0.604,0.638l-6.79-6.408l1.547,3.863l-3.943-1.331L670.441,658.432z"/>
	<path d="M678.447,649.789l-0.584,0.655l-8.313-7.384l0.592-0.665l0.131,0.117l3.995,1.268l-1.677-3.89l-0.123-0.109l0.592-0.664
		l8.298,7.401l-0.583,0.656l-6.985-6.202l1.665,3.816l-3.984-1.211L678.447,649.789z"/>
	<path d="M674.247,637.74l3.248-0.522l4.212,1.622l3.6,3.104l-0.497,0.576l-3.492-3.013l-3.905-1.512l-2.772,0.454l-0.091,0.106
		l7.846,6.765l-0.581,0.674l-8.422-7.262L674.247,637.74z"/>
	<path d="M684.719,632.095l0.421-1.918l-1.638-3.564l0.552-0.683l1.901,4.168l0.019,0.015l-0.008,0.009l-0.122,0.413l-0.441,2.111
		l4.555,3.678l-0.552,0.684l-8.661-6.979l0.559-0.692l2.351,1.897l0.285-0.763l-1.209-2.901l0.581-0.72l1.39,3.349l0.019,0.015
		l0.002,0.017l-0.13,0.422l-0.327,1.075L684.719,632.095z M684.95,630.43l-0.002-0.017l0.009,0.008L684.95,630.43z"/>
	<path d="M685.186,624.518l3.22-0.675l4.284,1.422l3.741,2.93l-0.469,0.6l-3.631-2.844l-3.973-1.326l-2.747,0.584l-0.087,0.11
		l8.157,6.388l-0.549,0.7l-8.756-6.856L685.186,624.518z"/>
	<path d="M696.807,627.702l-1.745-2.876l-2.515-0.713l-1.671-2.352l-2.898-0.827l0.487-0.645l4.608,1.284l-2.489-4.086l0.502-0.662
		l1.768,2.864l2.367,0.675l1.591,2.245l3.174,0.89l-0.529,0.7l-4.655-1.319l2.535,4.121L696.807,627.702z M694.467,623.847
		l-0.798-1.294l-1.507-0.435l0.915,1.294L694.467,623.847z M694.203,621.886l1.6,0.447l-0.924-1.302l-1.441-0.386L694.203,621.886z"
		/>
	<path d="M693.245,613.897l8.974,6.566l-0.519,0.709l-8.974-6.567L693.245,613.897z"/>
	<path d="M700.507,609.283l-4.321,2.317l1.634,1.156l4.334-2.337l0.741,0.553l-4.32,2.318l5.846,4.137l-0.507,0.716l-9.075-6.421
		l0.507-0.717l0.01,0.007l4.312-2.325L700.507,609.283z"/>
	<path d="M704.28,604.815l-3.059,0.574l7.853,5.371l-0.495,0.725l-7.843-5.365l0.57,3.042l-0.966-0.66l-0.687-3.66l3.66-0.687
		L704.28,604.815z"/>
	<path d="M710.469,597.504l5.176,3.309l-0.473,0.739l-5.54-3.542l-1.707,1.02l-0.857-0.549l1.688-1.031l-2.947-1.885l0.473-0.739
		l3.321,2.124l1.697-1.025l0.867,0.554L710.469,597.504z"/>
	<path d="M708.347,591.532l3.125-1.029l4.417,0.937l4.045,2.497l-0.399,0.647l-3.926-2.423l-4.096-0.877l-2.666,0.887l-0.074,0.119
		l8.818,5.442l-0.468,0.758l-9.466-5.843L708.347,591.532z"/>
	<path d="M716.151,584.86l-4.129,2.649l8.668,5.169l-0.45,0.754l-9.553-5.697l0.45-0.754l0.01,0.006l4.119-2.655L716.151,584.86z"/>
	<path d="M719.052,579.821l-4.084,2.716l8.747,5.024l-0.438,0.761l-9.64-5.537l0.438-0.762l0.01,0.006l4.073-2.721L719.052,579.821z
		"/>
	<path d="M721.883,574.715l-4.037,2.781l1.751,0.968l4.049-2.802l0.798,0.468l-4.038,2.781l6.267,3.465l-0.425,0.768l-9.727-5.378
		l0.424-0.768l0.011,0.005l4.027-2.786L721.883,574.715z"/>
	<path d="M721.948,567.734l4.607-2.573l-2.605-1.335l0.401-0.781l4.168,2.136l-4.607,2.573l6.773,3.472l-0.603-5.243l4.169,2.136
		l-0.4,0.782l-2.605-1.336l0.603,5.243L721.948,567.734z"/>
	<path d="M729.809,559.28l-3.903,2.97l1.796,0.884l3.913-2.99l0.819,0.43l-3.903,2.97l6.425,3.166l-0.388,0.787l-9.974-4.914
		l0.388-0.787l0.011,0.005l3.893-2.975L729.809,559.28z"/>
	<path d="M727.521,556.576l5.438-1.912l-0.067,2.884l6.546-0.146l-0.375,0.794l-6.936,0.285l-0.059-2.618l-3.493,1.251l8.991,4.249
		l-0.381,0.805l-10.061-4.755l0.235-0.498l0.146-0.307L727.521,556.576z"/>
	<path d="M730.86,549.4l10.132,4.596l-0.362,0.8l-10.133-4.596L730.86,549.4z"/>
	<path d="M737.037,543.365l-3.76,3.155l1.837,0.799l3.77-3.177l0.839,0.39l-3.76,3.155l6.574,2.857l-0.35,0.806l-10.205-4.436
		l0.35-0.806l0.011,0.005l3.749-3.16L737.037,543.365z"/>
	<path d="M739.806,538.227l-2.877,1.19l8.795,3.647l-0.336,0.812l-8.785-3.644l1.185,2.862l-1.082-0.448l-1.425-3.443l3.443-1.425
		L739.806,538.227z"/>
	<path d="M736.977,535.081l2.897-1.557l4.511,0.152l4.417,1.754l-0.281,0.707l-4.286-1.701l-4.185-0.15l-2.47,1.337l-0.052,0.131
		l9.628,3.821l-0.328,0.827l-10.336-4.103L736.977,535.081z"/>
	<path d="M738.94,530.067l5.266-2.344l0.165,2.879l6.512-0.672l-0.311,0.822l-6.889,0.842l-0.269-2.604l-3.381,1.527l9.302,3.511
		l-0.314,0.833l-10.407-3.929l0.194-0.515l0.119-0.318L738.94,530.067z"/>
	<path d="M755.291,517.341l-0.271,0.836l-10.586-3.425l0.275-0.847l0.167,0.055l4.171-0.443l-3.101-2.891l-0.156-0.051l0.275-0.847
		l10.578,3.446l-0.271,0.836l-8.893-2.875l3.06,2.828l-4.137,0.491L755.291,517.341z"/>
	<path d="M750.192,507.264l-2.677-2.205l0.258-0.839l4.399,3.651l5.581,1.713l-0.258,0.839l-5.604-1.72l-5.664,0.55l0.258-0.839
		l3.427-0.319l-3.042-0.934l0.257-0.839L750.192,507.264z"/>
	<path d="M759.726,502.913l-4.558,1.729l3.745,1.082l-0.244,0.844l-10.684-3.088l0.244-0.844l5.758,1.664l6.05-2.468
		L759.726,502.913z"/>
	<path d="M760.478,500.264l-0.231,0.847l-10.73-2.916l0.234-0.858l0.17,0.046l4.143-0.641l-3.232-2.738l-0.158-0.043l0.234-0.858
		l10.724,2.939l-0.231,0.847l-9.014-2.448l3.188,2.678l-4.106,0.688L760.478,500.264z"/>
	<path d="M751.034,492.613l3.922-3.526l-2.835-0.725l0.218-0.851l4.535,1.16l-3.922,3.526l7.369,1.885l-1.747-4.977l4.535,1.159
		l-0.218,0.851l-2.834-0.725l1.747,4.977L751.034,492.613z"/>
	<path d="M757.385,482.758l-2.651,1.63l9.255,2.208l-0.204,0.854l-9.243-2.205l1.621,2.637l-1.139-0.271l-1.95-3.173l3.173-1.95
		L757.385,482.758z"/>
	<path d="M764.842,482.921l-0.189,0.857l-10.86-2.395l0.192-0.869l0.172,0.038l4.107-0.841l-3.361-2.579l-0.16-0.035l0.192-0.869
		l10.854,2.418l-0.189,0.857l-9.123-2.01l3.314,2.521l-4.069,0.885L764.842,482.921z"/>
	<path d="M755.288,474.481l2.583-2.042l4.471-0.639l4.658,0.954l-0.152,0.746l-4.521-0.926l-4.148,0.585l-2.2,1.75l-0.027,0.138
		l10.154,2.079l-0.179,0.872l-10.9-2.232L755.288,474.481z"/>
	<path d="M756.361,469.174l4.776-3.222l0.663,2.805l6.294-1.793l-0.162,0.863l-6.636,2.026l-0.718-2.518l-3.063,2.092l9.769,1.84
		l-0.165,0.874l-10.93-2.059l0.102-0.541l0.063-0.333L756.361,469.174z"/>
	<path d="M763.809,458.854l-0.01-0.014l-1.453-4.668l7.655,1.203l-0.136,0.867l-6.188-0.963l1.453,4.669l-6.93-1.067l0.137-0.879
		L763.809,458.854z"/>
	<path d="M759.507,450.126l11.017,1.536l-0.121,0.87l-11.017-1.536L759.507,450.126z"/>
	<path d="M765.207,444.838l6.104,0.753l-0.107,0.872l-6.534-0.806l-1.103,1.658l-1.011-0.125l1.078-1.661l-3.477-0.429l0.107-0.872
		l3.918,0.483l1.091-1.66l1.022,0.127L765.207,444.838z"/>
	<path d="M764.925,436.865l-2.424,1.954l9.466,1.017l-0.094,0.874l-9.454-1.017l1.943,2.411l-1.164-0.125l-2.339-2.901l2.901-2.338
		L764.925,436.865z"/>
	<path d="M773.112,426.944l-3.099,1.385l2.854,1.837l-0.077,1.016l-3.762-2.41l-3.512,1.564l-3.617-2.622l3.971-2.047l3.235,2.077
		l4.083-1.815L773.112,426.944z M768.122,428.186l-2.328-1.491l-2.294,1.141l2.096,1.474L768.122,428.186z"/>
	<path d="M773.479,421.153l-4.068,2.688l3.893,0.233l-0.053,0.877l-11.104-0.667l0.053-0.877l5.984,0.359l5.362-3.736
		L773.479,421.153z"/>
	<path d="M773.757,415.212l-4.022,2.758l3.896,0.168l-0.037,0.878l-11.119-0.479l0.038-0.878l5.992,0.258l5.301-3.829
		L773.757,415.212z"/>
	<path d="M766.082,407.854l-2.309,4.329l2.001,0.055l2.31-4.353l0.924,0.049l-2.309,4.329l7.162,0.195l-0.023,0.878l-11.119-0.382
		l0.024-0.954h0.012l2.297-4.252L766.082,407.854z"/>
	<path d="M774.001,406.497l-0.014,0.878l-11.118-0.162l0.014-0.89l0.176,0.003l3.854-1.649l-3.811-1.851l-0.164-0.003l0.014-0.889
		l11.118,0.186l-0.014,0.878l-9.339-0.135l3.753,1.803l-3.808,1.685L774.001,406.497z"/>
	<path d="M774.037,397.11l-3.852,2.987l3.897-0.061l0.014,0.878l-11.118,0.174l-0.014-0.878l5.992-0.094l5.063-4.13L774.037,397.11z
		"/>
	<path d="M766.039,390.101l-2.104,4.432l2.002-0.039l2.102-4.455l0.926,0.005l-2.103,4.432l7.162-0.14l0.018,0.878l-11.119,0.441
		L762.906,395h0.012l2.091-4.655L766.039,390.101z"/>
	<path d="M766.419,384.246l-2.123,2.278l9.515-0.335l0.031,0.878l-9.503,0.334l2.266,2.111l-1.171,0.042l-2.726-2.541l2.54-2.726
		L766.419,384.246z"/>
	<path d="M773.132,373.405l-3.698,3.181l3.893-0.259l0.059,0.876l-11.104,0.739l-0.058-0.876l5.984-0.398l4.85-4.385
		L773.132,373.405z"/>
	<path d="M761.809,371.166l1.906-2.684l4.112-1.866l4.739-0.391l0.063,0.759l-4.6,0.379l-3.818,1.725l-1.621,2.296l0.012,0.14
		l10.331-0.851l0.073,0.887l-11.09,0.913L761.809,371.166z"/>
	<path d="M761.438,366.712l2.485-4.658l-2.915,0.286l-0.086-0.874l4.663-0.458l-2.485,4.658l7.578-0.744l-3.344-4.086l4.663-0.458
		l0.086,0.875l-2.915,0.286l3.344,4.085L761.438,366.712z"/>
	<path d="M760.53,357.912l11.046-1.261l0.1,0.872l-11.046,1.261L760.53,357.912z"/>
	<path d="M759.63,350.738l-0.095-0.732l11.031-1.435l0.095,0.731l-4.249,2.466l4.74,1.308l0.093,0.708l-11.03,1.447l-0.094-0.72
		l4.318-2.475l-4.808-1.288L759.63,350.738z M768.769,349.549l-7.081,0.933l3.696,1.007L768.769,349.549z M765.479,352.315
		l-3.325,1.944l7.118-0.926L765.479,352.315z"/>
	<path d="M761.89,343.82l-1.531,4.66l1.98-0.29l1.527-4.683l0.918-0.11l-1.53,4.66l7.088-1.037l0.127,0.869l-11.002,1.609
		l-0.127-0.869l0.012-0.001l1.519-4.658L761.89,343.82z"/>
	<path d="M761.54,337.984l-1.819,2.524l9.392-1.526l0.141,0.866l-9.38,1.524l2.512,1.809l-1.155,0.188l-3.021-2.176l2.177-3.021
		L761.54,337.984z"/>
	<path d="M759.928,332.34l-1.376,4.708l1.97-0.354l1.372-4.731l0.914-0.141l-1.376,4.708l7.051-1.27l0.155,0.864l-10.944,1.972
		l-0.155-0.864l0.011-0.002l1.365-4.706L759.928,332.34z"/>
	<path d="M759.386,326.509l-1.735,2.584l9.341-1.836l0.17,0.862l-9.33,1.834l2.571,1.726l-1.149,0.226l-3.094-2.077l2.077-3.094
		L759.386,326.509z"/>
	<path d="M758.507,316.956l5.992-1.37l0.196,0.856l-6.415,1.466l-0.471,1.934l-0.993,0.227l0.448-1.928l-3.412,0.78l-0.196-0.856
		l3.847-0.879l0.459-1.931l1.005-0.229L758.507,316.956z"/>
	<path d="M762.872,308.805l-2.514,2.281l3.284,0.856l0.242,0.989l-4.324-1.119l-2.85,2.58l-4.253-1.366l3.136-3.181l3.721,0.966
		l3.314-2.996L762.872,308.805z M758.517,311.538l-2.677-0.692l-1.825,1.798l2.45,0.748L758.517,311.538z"/>
	<path d="M755.695,305.604l5.944-1.562l0.224,0.849l-6.363,1.672l-0.408,1.947l-0.985,0.259l0.386-1.941l-3.385,0.89l-0.224-0.849
		l3.815-1.002l0.397-1.944l0.996-0.262L755.695,305.604z"/>
	<path d="M748.71,298.971l1.551-5.041l-2.804,0.835l-0.251-0.841l4.486-1.336l-1.551,5.041l7.29-2.172l-4.057-3.371l4.486-1.336
		l0.25,0.841l-2.804,0.835l4.057,3.37L748.71,298.971z"/>
	<path d="M746.782,292.563l2.694-5.093l1.907,2.163l4.707-4.547l0.264,0.838l-4.899,4.914l-1.818-1.883l-1.716,3.288l9.482-2.98
		l0.267,0.849l-10.61,3.334l-0.165-0.525l-0.103-0.324L746.782,292.563z"/>
	<path d="M754.537,280.397l-2.323,2.475l3.342,0.591l0.321,0.966l-4.4-0.77l-2.635,2.8l-4.349-1.021l2.872-3.422l3.786,0.666
		l3.064-3.251L754.537,280.397z M750.414,283.47l-2.725-0.476l-1.675,1.938l2.502,0.55L750.414,283.47z"/>
	<path d="M742.479,279.558l10.495-3.682l0.291,0.829l-10.495,3.682L742.479,279.558z"/>
	<path d="M740.014,272.741l-0.255-0.692l10.438-3.841l0.255,0.692l-3.597,3.345l4.911,0.226l0.246,0.67l-10.433,3.853l-0.251-0.681
		l3.662-3.369l-4.973-0.19L740.014,272.741z M748.66,269.559l-6.697,2.478l3.827,0.163L748.66,269.559z M746.066,272.983
		l-2.812,2.631l6.734-2.479L746.066,272.983z"/>
	<path d="M749.633,266.743l0.317,0.819l-10.375,4.026l-0.321-0.83l0.164-0.063l2.955-2.977l-4.229-0.285l-0.153,0.059l-0.321-0.831
		l10.383-4.004l0.317,0.819l-8.714,3.384l4.158,0.263l-2.898,2.993L749.633,266.743z"/>
	<path d="M740.896,261.344l5.695-2.307l0.33,0.814l-6.098,2.47l-0.156,1.983l-0.944,0.382l0.136-1.974l-3.244,1.314l-0.33-0.814
		l3.656-1.481l0.146-1.979l0.955-0.387L740.896,261.344z"/>
	<path d="M736.762,254.509l-1.164,2.886l8.758-3.722l0.343,0.808l-8.747,3.717l2.871,1.158l-1.078,0.458l-3.453-1.394l1.394-3.454
		L736.762,254.509z"/>
	<path d="M732.953,241.931l-0.016-0.006l-3.846-3.019l6.985-3.353l0.381,0.791l-5.642,2.718l3.846,3.019l-6.311,3.054l-0.386-0.801
		L732.953,241.931z"/>
	<path d="M725.244,238.75l0.766-3.2l3.117-3.267l4.25-2.131l0.342,0.68l-4.125,2.068l-2.897,3.025l-0.646,2.734l0.063,0.125
		l9.264-4.645l0.399,0.795l-9.944,4.986L725.244,238.75z"/>
	<path d="M726.168,229.614l5.447-2.844l0.406,0.778l-5.831,3.044l0.035,1.989l-0.903,0.471l-0.056-1.978l-3.102,1.62l-0.406-0.778
		l3.496-1.825l-0.045-1.983l0.913-0.477L726.168,229.614z"/>
	<path d="M721.403,223.213l-0.887,2.986l8.374-4.541l0.419,0.772l-8.363,4.535l2.971,0.882l-1.03,0.559l-3.574-1.061l1.061-3.574
		L721.403,223.213z"/>
	<path d="M713.504,217.028l9.611-5.61l0.442,0.759l-9.61,5.61L713.504,217.028z"/>
	<path d="M714.733,209.35l5.255-3.18l0.454,0.751l-5.625,3.404l0.159,1.982l-0.87,0.527l-0.181-1.97l-2.992,1.812l-0.455-0.751
		l3.374-2.042l-0.171-1.976l0.881-0.533L714.733,209.35z"/>
</g>
<circle style="fill:none;stroke:#000000;stroke-width:2;stroke-miterlimit:10;" cx="400" cy="400" r="362.18"/>
<circle style="fill:none;stroke:#000000;stroke-width:2;stroke-miterlimit:10;" cx="400" cy="400" r="357.831"/>
<polygon style="fill:none;stroke:#000000;stroke-width:2;stroke-miterlimit:10;" points="221.063,710 42.127,400 221.063,90 
	578.937,90 757.873,400 578.937,710 "/>
<polygon style="fill:none;stroke:#000000;stroke-width:2;stroke-miterlimit:10;" points="307.395,745.749 54.322,492.624 
	146.927,146.875 492.605,54.251 745.679,307.375 653.073,653.125 "/>
<polygon style="fill:none;stroke:#000000;stroke-width:2;stroke-miterlimit:10;" points="400.037,757.936 90.073,578.936 
	90.037,221 399.963,42.064 709.927,221.063 709.964,579 "/>
<polygon style="fill:none;stroke:#000000;stroke-width:2;stroke-miterlimit:10;" points="492.676,745.729 146.946,653.054 
	54.27,307.324 307.324,54.27 653.054,146.946 745.73,492.676 "/>
<defs>
	<filter id="Adobe_OpacityMaskFilter" filterUnits="userSpaceOnUse" x="200" y="201" width="399" height="399">
		<feFlood  style="flood-color:white;flood-opacity:1" result="back"/>
		<feBlend  in="SourceGraphic" in2="back" mode="normal"/>
	</filter>
</defs>
<mask maskUnits="userSpaceOnUse" x="200" y="201" width="399" height="399" id="SVGID_1_">
	<g style="filter:url(#Adobe_OpacityMaskFilter);">
		<rect x="202" y="202" transform="matrix(0.7071 -0.7071 0.7071 0.7071 -165.6854 400.0002)" width="396.001" height="396"/>
	</g>
</mask>
<rect x="201.5" y="202.5" style="mask:url(#SVGID_1_);fill:none;stroke:#000000;stroke-width:3;stroke-miterlimit:10;" width="396" height="396"/>
<rect x="202" y="202" transform="matrix(0.7071 -0.7071 0.7071 0.7071 -165.6854 400.0002)" style="fill:none;stroke:#000000;stroke-width:2;stroke-miterlimit:10;" width="396.001" height="396"/>
<circle style="fill:none;stroke:#000000;stroke-width:2;stroke-miterlimit:10;" cx="400" cy="400" r="287.397"/>
</svg>
