<?xml version="1.0" encoding="utf-8"?>
<!-- Generator: Adobe Illustrator 15.0.0, SVG Export Plug-In . SVG Version: 6.00 Build 0)  -->
<!DOCTYPE svg PUBLIC "-//W3C//DTD SVG 1.1//EN" "http://www.w3.org/Graphics/SVG/1.1/DTD/svg11.dtd">
<svg version="1.1" id="レイヤー_1" xmlns="http://www.w3.org/2000/svg" xmlns:xlink="http://www.w3.org/1999/xlink" x="0px"
	 y="0px" width="1000px" height="1000px" viewBox="0 0 1000 1000" enable-background="new 0 0 1000 1000" xml:space="preserve">
<circle fill="none" stroke="#000000" stroke-width="15" stroke-miterlimit="10" cx="500" cy="500" r="475"/>
<circle fill="none" stroke="#000000" stroke-width="4" stroke-miterlimit="10" cx="500" cy="500" r="456.0342"/>
<g>
	<path d="M514.2578,45.6401l1.2031,74.1318l-5.8525,0.0952l-29.5-14.1182l-0.0371-2.2632l29.501,14.1953l-1.168-71.9473
		L514.2578,45.6401z"/>
	<path d="M442.1865,49.4219l15.8848,24.1934l11.2939-26.9653l1.9395-0.1978L458.9736,75.563l12.6768,19.6558l-12.0303,28.2173
		l-13.6797-21.0439l9.5938-22.8691l-19.1719-29.5068L442.1865,49.4219z M468.2705,99.0161l-11.6309-17.8789l-7.3369,17.3027
		l11.6553,18.1128L468.2705,99.0161z"/>
	<path d="M442.5293,123.9321l-5.7393,1.1499l-31.7627-9.5542l20.2568-21.6499l-31.5293-35.7881l2.2188-0.4448l32.0332,36.3237
		l-19.1846,20.6392l27.4912,8.5l-14.168-70.707l5.7373-1.1499L442.5293,123.9321z"/>
	<path d="M382.0576,110.0771l-3.2715,29.541l-5.6035,1.6997l-21.5254-70.958l5.6016-1.6987l20.4385,67.3721l3.2275-29.6904
		l19.0166,22.6162l-20.3496-67.0732l5.6768-1.7217l21.5264,70.958l-5.6768,1.7217L382.0576,110.0771z"/>
	<path d="M339.4365,155.124l-28.2803-68.5508l5.4824-2.2632l6.9072,16.7407l20.6348,19.5215l0.9297-28.248l-6.9668-16.8853
		l5.4834-2.2622l28.2813,68.5513l-5.4121,2.2329l-20.7959-19.708l-0.7793,28.6089L339.4365,155.124z M324.9746,104.5151
		l18.457,44.7378l0.5254-26.562L324.9746,104.5151z M346.5674,95.8599l-0.7334,26.0571l19.1738,18.436L346.5674,95.8599z"/>
	<path d="M289.6162,183.5498l-40.7192-61.9561l4.8911-3.2139l40.7188,61.9551L289.6162,183.5498z"/>
	<path d="M276.2314,192.394l-35.0415,3.1299l12.2261,15.209l-4.563,3.668l-15.894-19.772l35.04-3.1299l-39.124-48.6689
		l-10.5869,33.5479l-15.894-19.772l4.563-3.668l12.2261,15.209l10.5879-33.5479L276.2314,192.394z"/>
	<path d="M243.5962,219.3599l-29.144-29.9019l-10.8823,30.7681l-32.6851-33.5361l4.1924-4.085l29.145,29.792l10.936-30.6021
		l32.6855,33.4263L243.5962,219.3599z"/>
	<path d="M217.6143,245.5352l-23.1294,4.2339l-27.605-10.4019l-23.9941-20.335l1.5142-1.7871l23.6372,20.0327l26.688,10.0352
		l21.0068-3.7827l-54.479-46.1724l3.835-4.5249l56.563,47.938L217.6143,245.5352z"/>
	<path d="M178.0171,297.481l-60.8823-42.3281l3.3862-4.8706l14.8682,10.3369l27.916,5.2437l-14.5103-24.252l-14.9971-10.4258
		l3.3862-4.8711l60.8828,42.3281l-3.3418,4.8071l-28.1519-5.3135l14.8296,24.4761L178.0171,297.481z M138.4648,262.7588
		l39.7344,27.625l-13.936-22.6167L138.4648,262.7588z M151.9351,243.7939l13.4868,22.3052l26.0991,5.1221L151.9351,243.7939z"/>
	<path d="M147.9629,356.3501l-2.4048,5.4229l-67.7832-30.064l2.374-5.3521l36.895,3.6421l-27.4321-24.9751l2.374-5.3511
		l67.814,29.9932l-2.4048,5.4229l-36.6802-3.5469L147.9629,356.3501z M144.252,354.7051l-25.75-23.375l-34.7148-3.3579
		L144.252,354.7051z M119.2539,330.2109l34.7861,3.3901l-60.5762-26.8682L119.2539,330.2109z"/>
	<path d="M65.4341,367.3994l28.5757-4.5684l-19.9619-21.355l0.6152-1.8521l21.4941,23.1812l23.1226-3.501l20.8022,22.5386
		l-24.8008,3.8506l-16.9233-18.125l-34.771,5.3877L65.4341,367.3994z M121.3579,363.9409l-21.0737,3.2778l12.7729,13.7852
		l21.2959-3.2041L121.3579,363.9409z"/>
	<path d="M61.2588,381.1367l72.291,16.4678l-1.2998,5.7061l-20.73,25.2959l-2.207-0.5049l20.8062-25.2754L59.959,386.8438
		L61.2588,381.1367z"/>
	<path d="M48.207,452.7549l27.166-9.9688l-23.689-17.124l0.249-1.9365l25.542,18.6211l22.019-7.875l24.7407,18.125l-23.5991,8.5381
		l-20.0869-14.5381l-33.0869,11.9639L48.207,452.7549z M102.4219,438.625l-20.0518,7.2617l15.1807,11.0752l20.2842-7.2305
		L102.4219,438.625z"/>
	<path d="M120.8491,469.3828l-0.1899,5.8516l-16.5503,28.7432l-16.4561-24.6611l-42.0391,22.5273l0.0742-2.2617l42.6748-22.8994
		l15.7163,23.3916l14.5488-24.8271l-72.0752-2.3408l0.1904-5.8516L120.8491,469.3828z"/>
	<path d="M122.7661,547.2871l-41.25,6.457l18.79,26.6807l-46.2622,7.2422l-0.9048-5.7832l41.1606-6.5205l-18.624-26.627
		l46.1724-7.3096L122.7661,547.2871z"/>
	<path d="M132.6172,597.3174l-71.812,18.4678l-1.458-5.6699l71.812-18.4668L132.6172,597.3174z"/>
	<path d="M114.6099,620.8174l3.667-1.333l24.335,9.8398l-10.5059,22.501l-3.667,1.333l8.7778-18.8008L73.917,657.3623l-2-5.501
		l62.9341-22.8721L114.6099,620.8174z"/>
	<path d="M100.7861,717.3096l63.6367-38.0645l3.0054,5.0225l2.5,32.6123l-1.9424,1.1621l-2.4326-32.6523l-15.541,9.2969
		l2.5669,32.5713l-1.9429,1.1621l-2.5-32.6123L103.791,722.334L100.7861,717.3096z"/>
	<path d="M204.002,738.8262l-59.6938,43.9785l-3.519-4.7734l14.5781-10.7402l13.9629-24.7324l-27.6343,5.9141l-14.7036,10.834
		l-3.5181-4.7744l59.6938-43.9795l3.4722,4.7119l-14.106,24.9365l27.9478-6.1465L204.002,738.8262z M144.7759,746.2051
		l25.4609-5.5752l13.2622-23.0518L144.7759,746.2051z M158.3838,765.0684l38.958-28.7031l-25.9009,5.8965L158.3838,765.0684z"/>
	<path d="M196.1938,771.2295l28.1572-9.5l3.9048,4.3584l-55.229,49.46l-3.9038-4.3584l52.438-46.9619l-28.2729,9.6045
		l12.4741-26.7803l-52.2061,46.7529l-3.957-4.4189l55.229-49.459l3.957,4.418L196.1938,771.2295z"/>
	<path d="M213.334,784.3174l2.646-2.8682l26.1392-2.4385l1.002,24.8154l-2.646,2.8682l-0.8369-20.7344l-45.6685,49.5127
		l-4.3027-3.9688l45.4028-49.2266L213.334,784.3174z"/>
	<path d="M311.4512,913.457l-8.2021-38.8174l-13.8271,27.9023l-5.2451-2.5986l32.9199-66.4365l5.2451,2.5996l-17.7422,35.8057
		l9.0195,42.6191L311.4512,913.457z"/>
	<path d="M349.0957,928.5566l-3.3428-28.7471l-22.1885,19.0332l-1.8242-0.6924l24.0791-20.4854l-2.5127-23.2529l23.4092-19.8223
		l2.7861,24.9443l-18.833,16.1348l3.8984,34.9717L349.0957,928.5566z M348.0303,872.5322l2.374,21.1943l14.3174-12.1729
		l-2.292-21.416L348.0303,872.5322z"/>
	<path d="M397.2588,865.8311l5.6465,1.542l-8.166,29.8887l9.75,8.7324l-0.5762,2.1055l-9.75-8.7295l-10.7979,39.5234l-5.6475-1.542
		l11.5615-42.3115l-9.8799-8.8486l0.5547-2.0322l9.9004,8.7705L397.2588,865.8311z"/>
	<path d="M423.1436,872.3779l-7.0674,41.1514l31.2891-9.2744l-7.9287,46.1514l-5.7695-0.9912l6.9785-41.0879l-31.1855,9.1338
		l7.8379-46.0879L423.1436,872.3779z"/>
	<path d="M468.8389,906.083l13.7051-26.373l5.8369,0.4355l-5.5078,73.9434l-5.8379-0.4355l5.2285-70.207l-13.7158,26.5264
		l-9.5801-27.9482l-5.207,69.8955l-5.916-0.4385l5.5098-73.9434l5.916,0.4395L468.8389,906.083z"/>
	<path d="M523.3975,953.7109l-25.1953-30.6504l0.6152,31.1377l-5.8545,0.1133L491.5,880.1797l5.8525-0.1133l0.7891,39.9512
		l27.6758,33.6465L523.3975,953.7109z"/>
	<path d="M528.7295,902.7441l-0.4453-3.8779l15.2197-21.3926l19.4521,15.4424l0.4453,3.877l-16.2529-12.9033l7.6875,66.9238
		l-5.8135,0.668l-7.6465-66.5332L528.7295,902.7441z"/>
	<path d="M585.1963,898.3379l5.7324-29.1631l5.7256-1.2246l15.5107,72.5088l-5.7246,1.2246l-14.7285-68.8447l-5.7012,29.3145
		l-17.0547-24.1279l14.6621,68.5391l-5.8008,1.2393l-15.5127-72.5078l5.8018-1.2412L585.1963,898.3379z"/>
	<path d="M605.0332,889.9756l-1.1836-3.7188l10.832-23.9111l22.0537,11.4219l1.1807,3.7217l-18.4248-9.5439l20.3848,64.1934
		l-5.5791,1.7715l-20.2666-63.8242L605.0332,889.9756z"/>
	<path d="M638.4336,854.1514l22.5811,6.5576l20.0381,21.6504l12.3662,28.9199l-2.1533,0.9199L679.084,883.71l-19.3828-20.9121
		l-20.4814-6.0117l28.0771,65.6621l-5.4531,2.332l-29.1494-68.1758L638.4336,854.1514z"/>
	<path d="M666.2051,842.252l5.1357-2.8096l33.166-0.3545l-12.877,26.7061l40.7695,24.7559l-1.9863,1.0859l-41.4092-25.1162
		l12.1572-25.4219l-28.7764,0.0869l34.6133,63.2646l-5.1348,2.8096L666.2051,842.252z"/>
	<path d="M774.9004,861.8955l-47.1865-57.1875l4.5166-3.7256l31.8594-7.3682l1.4404,1.7461l-31.9111,7.3076l11.5225,13.9658
		l31.8125-7.4287l1.4395,1.7451l-31.8604,7.3691l32.8799,39.8496L774.9004,861.8955z"/>
	<path d="M776.5039,760.8105l4.1963-4.1914l52.417,52.4443l-4.1426,4.1396l-33.1084-16.6768l16.6035,33.1738l-4.1406,4.1387
		l-52.4717-52.3906l4.1934-4.1934l32.9443,16.5107L776.5039,760.8105z M793.8799,795.5303l-31.2314-15.6846l46.8438,46.8701
		L793.8799,795.5303z M779.373,763.6807l15.6113,31.0771l31.1777,15.6279L779.373,763.6807z"/>
	<path d="M794.6807,739.8584l57.1719,47.2129l-3.7275,4.5137l-57.1719-47.2129L794.6807,739.8584z"/>
	<path d="M804.8955,727.4609l32.5586-13.3125l-16.1631-10.9316l3.2793-4.8486l21.0117,14.208l-32.5576,13.3135l51.7217,34.9746
		l0.2295-35.1729l21.0137,14.207l-3.2793,4.8496l-16.1631-10.9297l-0.2295,35.1738L804.8955,727.4609z"/>
	<path d="M835.0938,679.2744l65.1152,35.457l-2.7988,5.1406l-65.1152-35.457L835.0938,679.2744z"/>
	<path d="M845.0293,659.8076l38.4258,16.3457l-1.832-32.5859l43.0938,18.3271l-2.291,5.3887L884.042,651.043l1.7178,32.4521
		l-43.0518-18.2285L845.0293,659.8076z"/>
	<path d="M863.1533,612.123l70.7109,22.3086l-1.7617,5.582l-70.7119-22.3086L863.1533,612.123z"/>
	<path d="M947.1777,580.6143l-35.5605,17.5977l30.4658,6.4541l-1.2129,5.7266l-72.5371-15.3643l1.2129-5.7285l39.0938,8.2813
		l39.04-19.334L947.1777,580.6143z"/>
	<path d="M877.7754,540.8447l73.6826,8.335l-0.6582,5.8174l-73.6826-8.335L877.7754,540.8447z"/>
	<path d="M879.7588,509.2705l0.1045-5.8525l30.9785,0.5449l6.0605-11.6016l2.1846,0.0391l-6.0576,11.6016l40.9668,0.7217
		l-0.1045,5.8545l-43.8535-0.7725l-6.1406,11.7578l-2.1064-0.0361l6.0635-11.7598L879.7588,509.2705z"/>
	<path d="M920.083,468.6973l33.8809,12.0342l0.1494,1.9434l-20.2031-7.2139l-16.9111,8.1104l-18.7305-4.3545l-18.1191,8.6729
		l-0.4121-5.3691l31.3926-15.25l-33.4863-11.9854l-0.125-1.6338l20.1963,7.1367l16.0791-7.7334l17.8555,4.1865l19.7715-9.583
		l0.4492,5.8359L920.083,468.6973z M917.9697,469.7207l-16.9814,8.1943l10.7627,2.5391l15.4746-7.4521L917.9697,469.7207z
		 M913.1631,466.2539l15.8457-7.7148l-9.9609-2.2871l-14.5762,6.9131L913.1631,466.2539z"/>
	<path d="M892.9961,392.75l-29.4385-4.0889l-1.5439-5.6465l71.5234-19.5547l1.543,5.6465l-67.9082,18.5654l29.5889,4.0469
		l-23.1328,18.3809l67.6074-18.4824l1.5625,5.7217l-71.5205,19.5547l-1.5645-5.7217L892.9961,392.75z"/>
	<path d="M930.9404,355.3589l-69.2891,26.3823l-2.083-5.4717l3.2246-32.5435l2.1152-0.8052l-3.2979,32.5723l67.248-25.6055
		L930.9404,355.3589z"/>
	<path d="M839.5654,329.3418l66.4355-32.9346l2.6016,5.2446l-66.4355,32.9351L839.5654,329.3418z"/>
	<path d="M852.3174,302.6143l-3.3135,2.0605l-25.8408-4.6069l5.6377-24.1841l3.3135-2.0605l-4.71,20.207l57.1875-35.5674
		l3.0918,4.9702l-56.8574,35.3608L852.3174,302.6143z"/>
	<path d="M762.3672,224.9351l27.8535-31.1108l-31.4375-8.7661l31.2373-34.8911l4.3594,3.9053l-27.7432,31.1035l31.2764,8.8301
		l-31.1279,34.8843L762.3672,224.9351z"/>
	<path d="M741.5879,172.1069l-25.626,15.0562l-4.7139-3.4712l43.9668-59.708l4.7129,3.4712l-41.7441,56.6919l25.7207-15.1821
		l-6.7412,28.7681l41.5596-56.4399l4.7764,3.5171l-43.9658,59.708L734.7549,201L741.5879,172.1069z"/>
	<path d="M685.0781,167.9072l-5.0908-3.0444l38.0518-63.6367l5.0215,3.0039l-8.0811,36.1792l28.1104-24.2021l5.0234,3.0039
		l-37.9844,63.6772l-5.0908-3.0444l7.9629-35.9775L685.0781,167.9072z M687.1611,164.4238l26.3203-22.728l7.5361-34.0498
		L687.1611,164.4238z M714.5,142.5791l-7.5771,34.1167l34.0059-56.8706L714.5,142.5791z"/>
	<path d="M619.2061,138.9473l-5.5762-2.0244l25.3125-69.6958l5.502,1.998l-1.084,37.0571l23.0195-29.0913l5.5029,1.999
		l-25.2354,69.7231l-5.5752-2.0249l1.0049-36.8374L619.2061,138.9473z M620.5918,135.1318l21.54-27.3027l0.9521-34.8633
		L620.5918,135.1318z M643.2988,108.502l-0.9785,34.936l22.6191-62.2861L643.2988,108.502z"/>
	<path d="M602.4717,57.3828l6.5361,28.1914l19.9209-21.3931l1.8926,0.4858l-21.6387,23.0469l5.0967,22.8252l-21.0449,22.313
		l-5.5586-24.4751l16.9092-18.1377l-7.7822-34.3145L602.4717,57.3828z M609.7939,112.9331l-4.7285-20.7974l-12.8672,13.6973
		l4.6699,21.0239L609.7939,112.9331z"/>
</g>
<circle fill="none" stroke="#000000" stroke-width="4" stroke-miterlimit="10" cx="500" cy="500" r="379"/>
<circle fill="none" stroke="#000000" stroke-width="4" stroke-miterlimit="10" cx="500" cy="500" r="186.9961"/>
<polygon fill="none" stroke="#000000" stroke-width="4" stroke-miterlimit="10" points="174.7319,689 501,123.938 827.2686,689 "/>
<polygon fill="none" stroke="#000000" stroke-width="4" stroke-miterlimit="10" points="174.7319,310 501,875.0635 827.2686,310 "/>
<g>
	<path d="M609.7744,348.8848l-5.3633,7.5522l-0.5967-0.4229l-1.9268-3.604l0.1631-0.23l1.9199,3.6118l5.2051-7.3301
		L609.7744,348.8848z"/>
	<path d="M602.5488,343.8882l-0.3994,3.5947l3.2354-1.6929l0.2031,0.1357l-3.5088,1.8174l-0.3486,2.9019l-3.4082,1.7549
		l0.3604-3.1157l2.748-1.4351l0.5107-4.3682L602.5488,343.8882z M601.1025,350.7402l0.3096-2.6484l-2.0859,1.0801L599,351.8438
		L601.1025,350.7402z"/>
	<path d="M596.374,350.9199l-0.6191-0.3896l-2.0557-3.6035l3.7012-0.2168l0.2266-5.959l0.2393,0.1509l-0.2285,6.0513l-3.5166,0.2168
		l1.7588,3.1392l4.8076-7.6279l0.6191,0.3911L596.374,350.9199z"/>
	<path d="M592.0928,344.2617l-3,2.1914l-0.6289-0.373l4.7275-7.9731l0.6289,0.373l-4.4863,7.5698l3.0098-2.208l-0.4785,3.6621
		l4.4668-7.5361l0.6377,0.3779l-4.7256,7.9731l-0.6377-0.3779L592.0928,344.2617z"/>
	<path d="M584.2158,343.7168l4.5088-8.1035l0.6484,0.3608l-1.1035,1.979l-0.3047,3.5391l2.8369-2.1074l1.1104-1.9956l0.6465,0.3608
		l-4.5078,8.103l-0.6396-0.356l0.3096-3.5693l-2.8584,2.1504L584.2158,343.7168z M588.0439,338.3618l-2.9424,5.2891l2.6426-2.0161
		L588.0439,338.3618z M590.5713,339.8018l-2.6074,1.9561l-0.3115,3.312L590.5713,339.8018z"/>
	<path d="M577.2705,340.1729l4.0605-8.335l0.6582,0.3203l-4.0605,8.335L577.2705,340.1729z"/>
	<path d="M575.1787,339.1553l-2.3213-3.7314l-1.0088,2.2202l-0.666-0.3022l1.3105-2.8857l2.3232,3.731l3.2227-7.104l-4.3369,0.709
		l1.3086-2.8857l0.666,0.3018l-1.0068,2.2202l4.3379-0.7104L575.1787,339.1553z"/>
	<path d="M570.0762,336.8711l2.0225-4.8081l-4.0684,0.2441l2.2705-5.3931l0.6738,0.2842L568.9629,332l4.0537-0.229l-2.2578,5.3872
		L570.0762,336.8711z"/>
	<path d="M565.5078,334.9839l-1.4434-2.5581l0.0996-3.6846l1.4199-3.665l0.2734,0.105l-1.3994,3.6108l-0.0938,3.562l1.3057,2.3262
		l3.2256-8.3213l0.6904,0.2681l-3.3486,8.6401L565.5078,334.9839z"/>
	<path d="M557.5732,332.041l3.1162-8.7271l0.6963,0.25l-0.7607,2.1309l0.2793,3.5391l2.4512-2.542l0.7676-2.1489l0.6982,0.249
		l-3.1172,8.7271l-0.6885-0.2461l-0.2773-3.5688l-2.4668,2.5879L557.5732,332.041z M560.4688,326.1348l-2.0342,5.6953l2.2734-2.4199
		L560.4688,326.1348z M563.1963,327.1411l-2.25,2.355l0.2334,3.3149L563.1963,327.1411z"/>
	<path d="M549.0986,329.3857l-0.7109-0.21l2.624-8.8857l0.7012,0.207l0.1484,4.6299l2.6465-3.8037l0.7012,0.207l-2.6143,8.8887
		l-0.7109-0.21l-0.1553-4.6021L549.0986,329.3857z M549.2422,328.8989l2.4775-3.5698l-0.1455-4.355L549.2422,328.8989z
		 M551.8711,325.4038l0.1445,4.3652l2.3467-7.9409L551.8711,325.4038z"/>
	<path d="M546.7451,319.1431l0.79,3.5298l2.5107-2.6538l0.2363,0.063l-2.7295,2.8589l0.6143,2.8579l-2.6523,2.7681l-0.6709-3.064
		l2.1318-2.25l-0.9375-4.2969L546.7451,319.1431z M547.6064,326.0928l-0.5713-2.6035l-1.6211,1.6987l0.5635,2.6328
		L547.6064,326.0928z"/>
	<path d="M545.3213,318.771l-2.1309,9.0171l-0.7139-0.168l-3.1396-2.6162l0.0645-0.2749l3.1377,2.625l2.0684-8.75L545.3213,318.771z
		"/>
	<path d="M536.7607,316.8579l0.9805,3.4819l2.3604-2.7881l0.2393,0.0503l-2.5654,3.0039l0.7695,2.8198l-2.4971,2.9092
		l-0.8369-3.0229l2.0059-2.3628l-1.1729-4.2393L536.7607,316.8579z M537.999,323.751l-0.7119-2.5688l-1.5264,1.7847l0.7061,2.5981
		L537.999,323.751z"/>
	<path d="M533.6758,325.686l-0.7197-0.1289l-3.2549-2.5659l3.3467-1.5884l-2.0225-5.604l0.2764,0.0503l2.0605,5.6899l-3.1777,1.52
		l2.8086,2.248l1.5928-8.8682l0.7197,0.1289L533.6758,325.686z"/>
	<path d="M523.4727,324.0527l0.6387-5.1836l-3.8545,1.3457l0.7148-5.814l0.7285,0.0894l-0.626,5.1748l3.8418-1.3281l-0.7031,5.8052
		L523.4727,324.0527z"/>
	<path d="M516.8066,323.292l0.8857-9.2188l0.7275,0.0698l-0.8838,9.2188L516.8066,323.292z"/>
	<path d="M514.707,320.167l-0.0322,0.4868l-2.3535,2.2861l-2.043-2.3379l0.0313-0.4868l1.7061,1.9536l0.5664-8.4009l0.7285,0.0488
		l-0.5625,8.353L514.707,320.167z"/>
	<path d="M505.043,313.3052l-0.1445,9.2627l-0.7314-0.0117l-3.627-1.8804l0.0039-0.2827l3.6279,1.8901l0.0352-2.2622l-3.6279-1.8711
		l0.0039-0.2827l3.627,1.8799l0.1016-6.4551L505.043,313.3052z"/>
	<path d="M495.6357,322.5571l-0.1445-9.2632l0.7412-0.0117l0.0342,2.2617l1.5039,3.2139l1.4014-3.2407l-0.0361-2.2813l0.7412-0.0117
		l0.1455,9.2627l-0.7305,0.0122l-1.5137-3.2441l-1.4023,3.2891L495.6357,322.5571z M496.2744,316.0132l0.0947,6.0449l1.2783-3.063
		L496.2744,316.0132z M499.1797,315.9971l-1.2773,2.9951l1.3828,3.021L499.1797,315.9971z"/>
	<path d="M492.8057,319.2422l-1.3291,3.4697l-0.7295,0.0293l-0.3633-9.2632l0.7314-0.0278l0.3438,8.7949l1.3281-3.4902l1.585,3.3359
		l-0.3418-8.7559l0.7393-0.0288l0.3623,9.2627l-0.7412,0.0293L492.8057,319.2422z"/>
	<path d="M490.0771,319.8428l0.0322,0.4873l-2.0303,2.5781l-2.334-2.0464l-0.0322-0.4868l1.9512,1.709l-0.5527-8.4009l0.7285-0.0483
		l0.5498,8.3545L490.0771,319.8428z"/>
	<path d="M470.4854,315.5571l3.6084,3.396l-0.5713-3.8481l0.7246-0.1069l1.3623,9.1611l-0.7246,0.1079l-0.7324-4.938l-3.9658-3.728
		L470.4854,315.5571z"/>
	<path d="M465.7891,316.3711l2.2061,2.8711l1.1582-3.4692l0.2383-0.042l-1.2676,3.7461l1.7637,2.334l-1.2373,3.6309l-1.9023-2.4976
		l0.9834-2.9424l-2.665-3.502L465.7891,316.3711z M469.5029,322.3149l-1.6172-2.123l-0.7539,2.2271l1.6221,2.1509L469.5029,322.3149
		z"/>
	<path d="M464.3184,326.1089l-0.7178,0.147l-0.7803-3.792l-1.5801-0.4209l-0.0566-0.2681l1.5801,0.4214l-1.0322-5.0151l0.7168-0.147
		l1.1045,5.3677l1.6035,0.4272l0.0527,0.2578l-1.5996-0.417L464.3184,326.1089z"/>
	<path d="M460.7168,326.8618l-1.1904-5.0776l-3.1475,2.5908l-1.3369-5.6948l0.7119-0.167l1.1992,5.0659l3.1416-2.5703l1.3457,5.6831
		L460.7168,326.8618z"/>
	<path d="M453.707,325.0742l-0.5439,3.6729l-0.707,0.187l-2.3633-8.958l0.707-0.187l2.2441,8.5059l0.5391-3.6919l2.2715,2.9111
		l-2.2334-8.4683l0.7168-0.189l2.3633,8.958l-0.7168,0.189L453.707,325.0742z"/>
	<path d="M445.5059,321.313l4.042,2.8672l-1.0957-3.7319l0.7021-0.2061l2.6074,8.8857l-0.7002,0.2061l-1.4063-4.7891l-4.4395-3.146
		L445.5059,321.313z"/>
	<path d="M446.4102,327.6631l0.1484,0.4639l-1.3359,2.9961l-2.7637-1.4111l-0.1504-0.4639l2.3115,1.1787l-2.5938-8.0059
		l0.6943-0.2261l2.5791,7.96L446.4102,327.6631z"/>
	<path d="M439.4844,329.4658l-0.2354,3.7051l-0.6895,0.2451l-3.1016-8.7271l0.6895-0.2451l2.9434,8.2861l0.2295-3.7231l2.5049,2.71
		l-2.9336-8.249l0.6982-0.2476l3.1035,8.7261l-0.6982,0.249L439.4844,329.4658z"/>
	<path d="M437.0439,330.8579l0.1758,0.4551l-1.165,3.0659l-2.8389-1.2529l-0.1758-0.4551l2.373,1.0469l-3.042-7.8486l0.6816-0.2642
		l3.0244,7.8032L437.0439,330.8579z"/>
	<path d="M432.8359,335.6592l-2.8174-0.8413l-2.4834-2.7271l-1.5205-3.6279l0.2715-0.1128l1.4961,3.5737l2.4023,2.6333l2.5566,0.771
		l-3.4482-8.2373l0.6846-0.2866l3.5801,8.5527L432.8359,335.6592z"/>
	<path d="M429.043,337.2529l-0.667,0.3008l-4.1377-0.2725l1.8604-3.2061l-4.8447-3.478l0.2578-0.1172l4.9209,3.5288l-1.7598,3.0532
		l3.5889,0.2661l-3.708-8.2202l0.667-0.3008L429.043,337.2529z"/>
	<path d="M416.0713,333.1089l4.2744,8.2192l-0.6475,0.3379l-4.0859,0.0698l-0.1299-0.251l4.0898-0.061l-1.0439-2.0068l-4.082,0.0791
		l-0.1299-0.251l4.0859-0.0703l-2.9795-5.7275L416.0713,333.1089z"/>
	<path d="M412.835,345.3481l-0.6484,0.3599l-4.4922-8.104l0.6396-0.354l3.4043,3.1421l-0.8545-4.5571l0.6416-0.354l4.502,8.0981
		l-0.6484,0.3589l-3.3896-3.1162L412.835,345.3481z M412.5889,344.9038l-0.8066-4.271l-3.208-2.9487L412.5889,344.9038z
		 M411.9414,340.5791l3.2129,2.958l-4.0176-7.2422L411.9414,340.5791z"/>
	<path d="M409.5479,347.25l-4.7109-7.9731l0.6289-0.3716l4.7109,7.9727L409.5479,347.25z"/>
	<path d="M407.5596,348.4351l-4.3926-0.1182l1.2969,2.064l-0.6191,0.3892l-1.6855-2.6831l4.3926,0.1182l-4.1484-6.604
		l-1.8008,4.0088l-1.6855-2.6831l0.6191-0.3887l1.2969,2.063l1.7988-4.0093L407.5596,348.4351z"/>
	<path d="M401.3252,352.4541l-5.1465-7.7109l0.6094-0.4063l5.1455,7.7109L401.3252,352.4541z"/>
	<path d="M398.7979,354.166l-3.0127-4.2607l-1.9453,3.585l-3.3779-4.7793l0.5967-0.4219l3.0166,4.248l1.9492-3.563l3.3799,4.7651
		L398.7979,354.166z"/>
	<path d="M393.3789,358.0972l-5.5654-7.4082l0.585-0.439l5.5654,7.4082L393.3789,358.0972z"/>
	<path d="M382.5869,354.7568l4.8311,1.1372l-2.4229-3.0503l0.5732-0.4556l5.7686,7.2617l-0.5732,0.4561l-3.1074-3.9141
		l-5.3066-1.2471L382.5869,354.7568z"/>
	<path d="M385.749,364.1758l-5.958-7.1025l0.5605-0.4702l5.958,7.103L385.749,364.1758z"/>
	<path d="M382.5059,366.9766l-0.5469,0.4854l-2.5684-2.8955l-1.5791,0.4229l-0.1816-0.2041l1.5791-0.4229l-3.3955-3.8301
		l0.5469-0.4854l3.6357,4.0991l1.6006-0.4292l0.1758,0.1973l-1.5957,0.4365L382.5059,366.9766z"/>
	<path d="M375.2891,366.5586l-1.4756-4.2466l0.1787-0.167l0.875,2.5356l2.1123,1.0176l1.04,2.168l2.2637,1.0898l-0.4922,0.46
		l-3.9424-1.8711l1.4492,4.2051l-0.1484,0.1396l-0.8848-2.5273l-2.0117-0.9648l-0.9883-2.0684l-2.4795-1.1797l0.5352-0.5
		L375.2891,366.5586z M375.5908,367.4248l-1.9922-0.9414l0.5576,1.1494l1.8125,0.8818L375.5908,367.4248z M375.5537,366.6846
		l2.127,1.0186l-0.5938-1.249l-1.9365-0.9268L375.5537,366.6846z"/>
	<path d="M369.4141,374.8164l1.4561,3.418l-0.5059,0.5273l-6.6973-6.4053l0.5059-0.5293l6.3594,6.083l-1.4707-3.4307l3.459,1.2959
		l-6.3311-6.0586l0.5127-0.5361l6.6973,6.4072l-0.5146,0.5361L369.4141,374.8164z"/>
	<path d="M363.1592,372.8926l6.8711,6.2334l-0.4922,0.542l-3.8135,1.4854l-0.209-0.1904l3.8203-1.4785l-6.668-6.0518
		L363.1592,372.8926z"/>
	<path d="M365.0928,384.668l-7.0293-6.0439l0.4775-0.5547l7.0313,6.0449L365.0928,384.668z"/>
	<path d="M361.3008,384.5947l0.3779,0.3096l0.5078,3.2383l-3.0859,0.3193l-0.3779-0.3076l2.5791-0.2686l-6.5313-5.3066
		l0.4619-0.5674l6.4922,5.2764L361.3008,384.5947z"/>
	<path d="M354.333,398.5449l-4.3018-2.9473l-0.5781,4.0342l-4.8252-3.3047l0.4131-0.6045l4.2998,2.9346l0.5879-4.0176l4.8223,3.292
		L354.333,398.5449z"/>
	<path d="M347.9385,401.9668l2.0732,3.082l-0.3955,0.6152l-7.7842-5.0303l0.3975-0.6143l7.3906,4.7764l-2.0898-3.0928l3.6406,0.6221
		l-7.3574-4.7549l0.4014-0.623L352,401.9756l-0.4023,0.623L347.9385,401.9668z"/>
	<path d="M347.4648,409.1797l-0.3848,0.6348L339.166,405l0.3799-0.625l4.5117,1.043l-2.998-3.5342l0.3818-0.625l7.9199,4.8057
		l-0.3867,0.6328l-4.4854-1.0283L347.4648,409.1797z M347.0322,408.916l-2.8154-3.3086l-4.2471-0.9746L347.0322,408.916z
		 M344.3291,405.4805l4.2549,0.9775l-7.0732-4.3008L344.3291,405.4805z"/>
	<path d="M342.7676,417.5869l-0.3496,0.6543l-8.1758-4.377l0.3457-0.6465l4.5684,0.7959l-3.1904-3.3691l0.3457-0.6455l8.1816,4.3691
		l-0.3516,0.6543l-4.542-0.7822L342.7676,417.5869z M342.3203,417.3467l-2.9951-3.1523l-4.2988-0.7412L342.3203,417.3467z
		 M339.4297,414.0605l4.3086,0.7451l-7.3086-3.9121L339.4297,414.0605z"/>
	<path d="M332.2686,417.7842l3.6182-0.0586l-2.0898-2.9971l0.1094-0.2188l2.248,3.251l2.9238-0.0205l2.1729,3.1602l-3.1377,0.0332
		l-1.7715-2.5439l-4.3975,0.0498L332.2686,417.7842z M339.251,418.3516l-2.667,0.0313l1.335,1.9346l2.6924-0.0195L339.251,418.3516z
		"/>
	<path d="M334.0049,427.9912l2.5508,2.7061l-0.292,0.6719l-8.5088-3.6963l0.292-0.6719l8.0791,3.5098l-2.5693-2.7129l3.6973,0.0215
		l-8.043-3.4941l0.2949-0.6826l8.5088,3.6963l-0.2959,0.6807L334.0049,427.9912z"/>
	<path d="M335.1064,434.1934l-8.5977-3.4502l0.2725-0.6777l8.5957,3.4482L335.1064,434.1934z"/>
	<path d="M333.9854,437.0898l-2.5381,1.4863l-3.6895-0.043l-3.6875-1.3652l0.1016-0.2744l3.6348,1.3467l3.5664,0.0391l2.3076-1.3428
		l-8.377-3.1006l0.2578-0.6963l8.6973,3.2197L333.9854,437.0898z"/>
	<path d="M332.3438,441.5996l-4.9463-1.6729l0.5371,4.0459l-5.5479-1.877l0.2354-0.6914l4.9414,1.6611l-0.5225-4.0313l5.542,1.8652
		L332.3438,441.5996z"/>
	<path d="M329.7246,449.7119l-8.8555-2.7256l0.2178-0.708l2.1631,0.666l3.5205-0.4385l-2.6475-2.3359l-2.1816-0.6709l0.2178-0.708
		l8.8555,2.7246l-0.2148,0.6992l-3.5537,0.4385l2.6963,2.3506L329.7246,449.7119z M323.6963,447.082l5.7813,1.7793l-2.5205-2.1631
		L323.6963,447.082z M324.5791,444.3115l2.4541,2.1445l3.3018-0.3818L324.5791,444.3115z"/>
	<path d="M319.6748,451.2334l3.5391-0.749l-2.625-2.541l0.0654-0.2354l2.8281,2.7588l2.8633-0.582l2.7383,2.6855l-3.0723,0.6357
		l-2.2256-2.1572l-4.3086,0.8916L319.6748,451.2334z M326.6338,450.4521l-2.6084,0.541l1.6807,1.6406l2.6377-0.5332
		L326.6338,450.4521z"/>
	<path d="M327.4141,458.4219l-0.1787,0.7197l-9.002-2.2305l0.1758-0.71l4.624-0.3535l-3.9209-2.4795l0.1758-0.71l9.0039,2.2227
		l-0.1787,0.7197l-4.5967,0.3594L327.4141,458.4219z M326.9209,458.2998l-3.6787-2.3213l-4.3506,0.3418L326.9209,458.2998z
		 M323.3096,455.8262l4.3584-0.3369l-8.0449-1.9951L323.3096,455.8262z"/>
	<path d="M323.2197,463.7314l0.4795,0.0908l1.9824,2.6123l-2.5664,1.7441l-0.4795-0.0908l2.1465-1.458l-8.2715-1.5801l0.1396-0.7188
		l8.2217,1.5713L323.2197,463.7314z"/>
	<path d="M321.4639,470.6719l3.1338,1.9951l-0.1182,0.7217l-9.1455-1.4932l0.1182-0.7217l8.6846,1.417l-3.1514-1.998l3.584-0.8867
		l-8.6465-1.4121l0.1191-0.7324l9.1465,1.4932l-0.1182,0.7324L321.4639,470.6719z"/>
	<path d="M323.832,478.2168l-9.1904-1.2305l0.0996-0.7354l2.2451,0.3008l3.4033-1.0107l-2.999-1.8701l-2.2637-0.3037l0.0986-0.7354
		l9.1904,1.2324l-0.0967,0.7256l-3.4375,1.0186l3.0469,1.876L323.832,478.2168z M317.4492,476.6133l5.998,0.8037l-2.8428-1.7197
		L317.4492,476.6133z M317.8652,473.7344l2.7725,1.7109l3.1963-0.9209L317.8652,473.7344z"/>
	<path d="M323.7705,478.6943l-2.8145,3.3799l2.4258,0.2588l-0.0781,0.7275l-3.1523-0.3369l2.8135-3.3799l-7.7637-0.8301
		l2.0371,3.8984l-3.1543-0.3369l0.0781-0.7295l2.4258,0.2607l-2.0371-3.8984L323.7705,478.6943z"/>
	<path d="M313.7266,486.4736l3.3281-1.4092l-3.0605-1.9912l0.0186-0.2432l3.3037,2.166l2.6973-1.1182l3.1992,2.1094l-2.8916,1.21
		l-2.5977-1.6904l-4.0547,1.6973L313.7266,486.4736z M320.4053,484.376l-2.458,1.0303l1.9619,1.2891l2.4863-1.0273L320.4053,484.376
		z"/>
	<path d="M322.8818,488.3936l-0.0381,0.7314l-2.1387,3.5557l-1.999-3.124l-5.3135,2.7188l0.0166-0.2832l5.3926-2.7617l1.9102,2.9629
		l1.8789-3.0713l-9.0088-0.4648l0.0381-0.7314L322.8818,488.3936z"/>
	<path d="M322.5137,500.4922l-9.2627,0.1445l-0.0117-0.7295l9.2627-0.1465L322.5137,500.4922z"/>
	<path d="M322.5869,504.8184l0.0215,0.7295l-3.8711,0.1084l-0.6904,1.4814l-0.2715,0.0098l0.6885-1.4834l-5.1191,0.1445
		l-0.0205-0.7295l5.4785-0.1543l0.6992-1.5029l0.2627-0.0068l-0.6875,1.502L322.5869,504.8184z"/>
	<path d="M313.6338,512.2861l3.7158-3.2803l-3.8838,0.2129l-0.04-0.7285l9.249-0.5078l0.04,0.7285l-4.9824,0.2734l-4.0791,3.6025
		L313.6338,512.2861z"/>
	<path d="M323.1523,515.1592l-9.2344,0.7686l-0.0605-0.7285l9.2324-0.7695L323.1523,515.1592z"/>
	<path d="M323.7588,521.124l0.0811,0.7373l-9.2188,1.0146l-0.0801-0.7275l4.2178-1.9297l-4.5371-0.9746l-0.0801-0.7295
		l9.2197-1.0225l0.0811,0.7373l-4.1885,1.9248L323.7588,521.124z M319.0107,520.1045l3.9756-1.8223l-8.2393,0.9063
		L319.0107,520.1045z M323.2539,521.1797L319,520.2725l-3.9639,1.8193L323.2539,521.1797z"/>
	<path d="M324.2393,524.8496l-9.1758,1.2754l-0.1025-0.7246l9.1758-1.2754L324.2393,524.8496z"/>
	<path d="M325.168,530.7539l0.1221,0.7324l-9.1465,1.5205l-0.1191-0.7217l4.1035-2.1572l-4.583-0.7217l-0.1201-0.7246l9.1465-1.5293
		l0.1221,0.7295l-4.0752,2.1523L325.168,530.7539z M320.373,529.999l3.8662-2.0391l-8.1738,1.3604L320.373,529.999z
		 M324.668,530.8379l-4.2969-0.6709l-3.8564,2.0371L324.668,530.8379z"/>
	<path d="M325.5205,532.7119l-1.3955,2.5879l-3.1748,1.8799l-3.8623,0.75l-0.0557-0.2871l3.8037-0.7373l3.0674-1.8193l1.2734-2.3457
		l-8.7676,1.7031l-0.1436-0.7295l9.1045-1.7686L325.5205,532.7119z"/>
	<path d="M326.7471,538.6494l0.1611,0.7139l-3.7803,0.8477l-0.3936,1.5889l-0.2686,0.0615l0.3955-1.5889l-4.999,1.1201
		l-0.1602-0.7139l5.3506-1.2002l0.3994-1.6084l0.2568-0.0596l-0.3896,1.6074L326.7471,538.6494z"/>
	<path d="M324.5371,542.1953l0.4727-0.1191l2.9043,1.5283l-1.5889,2.6689l-0.4746,0.1172l1.3281-2.2285l-8.165,2.0674
		l-0.1797-0.7109l8.1172-2.0557L324.5371,542.1953z"/>
	<path d="M330.0996,551.5449l-1.1016,2.7227l-2.9453,2.2158l-3.751,1.1689l-0.0869-0.2793l3.6953-1.1514l2.8447-2.1416
		l1.0078-2.4688l-8.5166,2.6504l-0.2197-0.707l8.8418-2.7539L330.0996,551.5449z"/>
	<path d="M328.5615,556.3887l0.4629-0.1563l3.0186,1.2861l-1.3672,2.7871l-0.4609,0.1582l1.1436-2.3291l-7.9688,2.7275
		l-0.2354-0.6924l7.9209-2.71L328.5615,556.3887z"/>
	<path d="M325.9902,567.9746l8.5957-3.4785l0.2754,0.6787l-0.3193,4.0781l-0.2617,0.1064l0.3281-4.082l-8.3447,3.377
		L325.9902,567.9746z"/>
	<path d="M327.9326,572.749l8.4951-3.7109l0.293,0.6709l-0.208,4.083l-0.2588,0.1133l0.2158-4.0869l-2.0742,0.9043l-0.1973,4.0791
		l-0.2598,0.1133l0.207-4.083l-5.9189,2.5859L327.9326,572.749z"/>
	<path d="M338.4238,578.2432L338,578.3633v-0.0215l0.1602,0.0039l-3.7568-2.2305l-0.042,4.1016l-0.2354,0.1201l-3.8379-2.25
		l-0.3057-0.6611l8.3809-3.9414l0.2285,0.6592L338.4238,578.2432z M334.2412,576.2295l-3.7236,1.752l3.6367,2.0918
		L334.2412,576.2295z M338.4297,574.2578l-3.7129,1.748l3.6299,2.083L338.4297,574.2578z"/>
	<path d="M333.8301,585.3291l2.1152-2.9375l-3.6533-0.1113l-0.1104-0.2197l3.9502,0.1406l1.7295-2.3584l3.832,0.1455l-1.8477,2.5381
		l-3.0986-0.1006l-2.5879,3.5586L333.8301,585.3291z M338.4551,580.0674l-1.5684,2.1553l2.3496,0.083l1.5938-2.1699
		L338.4551,580.0674z"/>
	<path d="M342.667,582.2393l0.3477,0.6436l0.0215,4.1494l-3.332-1.6289l-3.125,5.082l-0.1348-0.249l3.1709-5.1621l3.1709,1.5381
		l0.0088-3.6016l-7.9385,4.2861l-0.3477-0.6445L342.667,582.2393z"/>
	<path d="M343.1201,590.1396l3.6875-0.4355l0.3652,0.6338l-8.0313,4.624l-0.3633-0.6338l7.625-4.3906l-3.7061,0.4434l2.2158-2.9531
		l-7.5908,4.3711l-0.3701-0.6426l8.0313-4.624l0.3682,0.6426L343.1201,590.1396z"/>
	<path d="M348.25,598.5068l3.6621-0.6377l0.3975,0.6133l-7.7695,5.0596l-0.3994-0.6133l7.3779-4.8037l-3.6787,0.6475l2.0537-3.0713
		l-7.3457,4.7822l-0.4043-0.6221l7.7705-5.0605l0.4053,0.6211L348.25,598.5068z"/>
	<path d="M350.168,600.5557l0.4014-0.2754l3.2529,0.4219l-0.5615,3.0518l-0.3994,0.2773l0.4668-2.5518l-6.9258,4.7793l-0.416-0.6016
		l6.8857-4.7529L350.168,600.5557z"/>
	<path d="M360.4043,609.6309l0.4541,0.5869l-7.335,5.668l-0.4473-0.5791l2.5928-3.8418l-4.377,1.5332l-0.4473-0.5791l7.3291-5.6758
		l0.4531,0.5869l-2.5703,3.8232L360.4043,609.6309z M355.8242,611.2344l2.4385-3.624l-6.5547,5.0635L355.8242,611.2344z
		 M360.0029,609.9414l-4.1006,1.4404L353.4678,615L360.0029,609.9414z"/>
	<path d="M356.2939,619.2852l1.4277-3.3252l-3.5908,0.6816l-0.1553-0.1875l3.8887-0.7217l1.1758-2.6787l3.7715-0.6885l-1.252,2.8779
		l-3.0469,0.5762l-1.7559,4.0322L356.2939,619.2852z M359.668,613.1455l-1.0635,2.4453l2.3125-0.4277l1.085-2.4648L359.668,613.1455
		z"/>
	<path d="M357.2334,620.4199l7.0156-6.0596l0.4785,0.5537l1.0127,3.9629l-0.2139,0.1846l-1.0029-3.9688l-6.8115,5.8809
		L357.2334,620.4199z"/>
	<path d="M363.0615,626.9951l1.2451-3.3965l-3.5469,0.874l-0.165-0.1797l3.8389-0.9307l1.0293-2.7354l3.7285-0.8936l-1.0947,2.9375
		l-3.0088,0.7402l-1.5342,4.1211L363.0615,626.9951z M366.0957,620.6846l-0.9277,2.498l2.2832-0.5518l0.9502-2.5186
		L366.0957,620.6846z"/>
	<path d="M370.7188,621.625l0.5078,0.5264l1.1387,3.9854l-3.6465-0.6719l-1.6396,5.7314l-0.1963-0.2031l1.6621-5.8213l3.4658,0.627
		l-0.96-3.4668l-6.4834,6.2598l-0.5098-0.5244L370.7188,621.625z"/>
	<path d="M373.2979,629.1201l3.4375-1.4102l0.5205,0.5127l-6.4941,6.6104l-0.5205-0.5127l6.166-6.2764l-3.4502,1.4238l1.3418-3.4375
		l-6.1387,6.248l-0.5293-0.5215l6.4941-6.6084l0.5293,0.5195L373.2979,629.1201z"/>
	<path d="M384.373,634.6729l-6.1172,6.958l-0.5566-0.4902l1.4941-1.6973l1.0459-3.3926l-3.2168,1.457l-1.5078,1.7139l-0.5566-0.4873
		l6.1172-6.958l0.5488,0.4814l-1.0586,3.4189l3.248-1.4941L384.373,634.6729z M377.3379,637.1494l2.96-1.3584l1.0049-3.167
		L377.3379,637.1494z M379.501,639.0898l3.9922-4.541l-3.0049,1.4102L379.501,639.0898z"/>
	<path d="M378.8291,642.1289l5.9287-7.1172l0.5635,0.4697l1.6426,3.7393l-0.1807,0.2197l-1.6377-3.749l-1.4463,1.7363l1.6475,3.7334
		l-0.1807,0.2178l-1.6426-3.7422l-4.1328,4.96L378.8291,642.1289z"/>
	<path d="M386.9336,643.4521l-3.9756,2.0947l-0.1914-0.1484l2.375-1.2461l0.6885-2.2422l1.9873-1.3545l0.7363-2.3984l0.5283,0.417
		l-1.2568,4.1777l3.9375-2.0625l0.1611,0.1279l-2.3672,1.252l-0.6494,2.1328l-1.8975,1.2871l-0.7939,2.6289l-0.5752-0.4531
		L386.9336,643.4521z M387.0186,643.1709l0.6875-2.2549l-1.1465,0.7744l-0.626,2.0537L387.0186,643.1709z M387.7451,643.0234
		l-0.6328,2.1074l1.0537-0.7217l0.5986-1.9248L387.7451,643.0234z"/>
	<path d="M393.9023,642.2793l0.5869,0.4365l-2.3145,3.1084l0.7373,1.4609l-0.1641,0.2188l-0.7373-1.4609l-3.0596,4.1094
		l-0.5869-0.4385l3.2744-4.3975l-0.7471-1.4814l0.1572-0.2109l0.7529,1.4727L393.9023,642.2793z"/>
	<path d="M390.9082,651.6104l5.334-7.5811l0.5986,0.4209l1.9424,3.5986l-0.1631,0.2314l-1.9385-3.6064l-1.3027,1.8535l1.9482,3.5898
		l-0.1631,0.2295l-1.9424-3.5977l-3.7168,5.2832L390.9082,651.6104z"/>
	<path d="M399.3027,657.3242l4.9141-7.8574l0.6211,0.3906l2.1338,3.4844l-0.1484,0.2393l-2.1289-3.4941l-1.2002,1.9189
		l2.1387,3.4795l-0.1484,0.2383l-2.1357-3.4844l-3.4238,5.4746L399.3027,657.3242z"/>
	<path d="M403.6533,660.0293l4.6943-7.9873l0.6318,0.3711l2.2285,3.4268l-0.1426,0.2432l-2.2256-3.4355l-4.5576,7.7529
		L403.6533,660.0293z"/>
	<path d="M414.7842,655.7295l-4.4648,8.1162l-0.6426-0.3516l4.4639-8.1182L414.7842,655.7295z"/>
	<path d="M420.7158,658.8574l-4.2559,8.2285l-0.6504-0.335l2.1289-4.126l-2.0176-4.0469l4.1357-0.0625L420.7158,658.8574z
		 M418.0859,662.3398l1.8506-3.5879l-3.5898,0.0684L418.0859,662.3398z"/>
	<path d="M421.8506,659.4092l1.2412,2.6641l-0.3887,3.666L421,669.2813l-0.2637-0.127l1.6777-3.4893l0.373-3.5439l-1.1191-2.4209
		l-3.8682,8.042l-0.668-0.3213l4.0156-8.3496L421.8506,659.4092z"/>
	<path d="M421.7666,669.6406l3.7842-8.4658l0.668,0.2988l2.5986,3.1602l-0.1162,0.2578l-2.5928-3.1689l-0.9258,2.0674l2.6025,3.1514
		l-0.1152,0.2588l-2.5967-3.1602l-2.6367,5.8984L421.7666,669.6406z"/>
	<path d="M439.6904,666.9854l1.5244,2.5117l0.0186,3.6865l-1.3057,3.708l-0.2744-0.0977l1.2832-3.6523l-0.0195-3.5625
		l-1.3779-2.2832l-2.96,8.4189l-0.6992-0.2461l3.0732-8.7412L439.6904,666.9854z"/>
	<path d="M442.6455,671.1191l0.1494-0.4648l2.834-1.6533l1.4209,2.7607l-0.1475,0.4639l-1.1885-2.3057l-2.5664,8.0205
		l-0.6973-0.2246l2.5527-7.9727L442.6455,671.1191z"/>
	<path d="M454.0225,675.002l2.2803-2.9355l0.708,0.1855l-2.3477,8.9736l-0.708-0.1855l2.2285-8.5195l-2.2852,2.9512l-0.5488-3.6523
		l-2.2197,8.4795l-0.7178-0.1875l2.3486-8.9746l0.7188,0.1885L454.0225,675.002z"/>
	<path d="M459.3877,672.8047l0.7129,0.166l-0.8779,3.7734l1.2617,1.0449l-0.0635,0.2666l-1.2598-1.0449l-1.1621,4.9912
		l-0.7129-0.166l1.2441-5.3428l-1.2773-1.0605l0.0605-0.2568l1.2783,1.0488L459.3877,672.8047z"/>
	<path d="M464.7158,673.9707l-1.8408,9.0889l-0.7178-0.1455l1.8408-9.0889L464.7158,673.9707z"/>
	<path d="M471.3252,675.1914l-1.5957,9.1318L469,684.1963l0.3896-2.2305l-0.875-3.4395l-1.9844,2.9219l-0.3945,2.249l-0.7285-0.127
		l1.5947-9.1338l0.7207,0.125l0.8818,3.4746l1.9932-2.9707L471.3252,675.1914z M466.6104,680.9756l1.8174-2.7021l-0.793-3.2295
		L466.6104,680.9756z M469.4697,681.5039l1.041-5.96l-1.8311,2.7715L469.4697,681.5039z"/>
	<path d="M475.4023,685.1611l1.1016-9.2051l0.7285,0.0869l3.415,2.2471l-0.0322,0.2803l-3.416-2.2559l-0.2705,2.2471l3.417,2.2354
		l-0.0342,0.2813l-3.416-2.2471l-0.7686,6.415L475.4023,685.1611z"/>
	<path d="M484.9795,676.8564l0.7373,0.0654l-0.8408,9.2344l-0.7285-0.0664l-1.0508-4.5156l-1.8555,4.251l-0.7295-0.0664
		l0.8311-9.2334l0.7393,0.0654l1.0518,4.4863L484.9795,676.8564z M483.0352,681.3057l-0.9941-4.2559l-0.751,8.252L483.0352,681.3057
		z M484.9326,677.3623l-1.7334,3.9854l0.9951,4.2461L484.9326,677.3623z"/>
	<path d="M495.3389,677.4355l-0.3477,9.2656l-0.7412-0.0283l0.085-2.2617l-1.3311-3.292l-1.5742,3.1631l-0.085,2.2793
		l-0.7402-0.0254l0.3486-9.2627l0.7295,0.0254l1.3408,3.3213l1.5752-3.2119L495.3389,677.4355z M491.4482,683.8027l1.4375-2.9248
		l-1.2207-3.0918L491.4482,683.8027z M494.3525,683.9404l0.2285-6.0449l-1.4404,2.9902L494.3525,683.9404z"/>
	<path d="M498.4111,677.4824l-0.1465,9.2627l-0.7295-0.0107l0.1445-9.2656L498.4111,677.4824z"/>
	<path d="M502.6426,677.4609l0.7314-0.0117l0.0605,3.8711l1.4766,0.709l0.0039,0.2705l-1.4736-0.708l0.0791,5.1191l-0.7305,0.0107
		l-0.0859-5.4785l-1.4932-0.7188l-0.0049-0.2646l1.4941,0.708L502.6426,677.4609z"/>
	<path d="M508.0889,677.2979l0.4063,9.2627l-0.7314,0.0322l-0.4043-9.2637L508.0889,677.2979z"/>
	<path d="M514.8135,676.8848l0.6504,9.249l-0.7402,0.0527l-0.1572-2.2598l-1.6807-3.1289l-1.2236,3.3145l0.1602,2.2764
		l-0.7393,0.0537l-0.6523-9.248l0.7295-0.0537l1.6885,3.1582l1.2227-3.3623L514.8135,676.8848z M511.6289,683.6357l1.1152-3.0625
		l-1.5488-2.9434L511.6289,683.6357z M514.5322,683.46l-0.4258-6.0361l-1.1094,3.1309L514.5322,683.46z"/>
	<path d="M520.0391,676.3887l0.7256-0.0908l0.5605,4.4795l3.4199-2.2734l0.0342,0.2715l-3.4209,2.2715l0.2764,2.2344l3.4209-2.2725
		l0.0352,0.2803l-3.4219,2.2637l0.2412,1.9365l-0.7275,0.0898L520.0391,676.3887z"/>
	<path d="M527.5303,678.8164l0.9287-3.5986l0.7236-0.1094l1.4063,9.1592l-0.7236,0.1113l-1.335-8.6982l-0.9258,3.6162
		l-1.9521-3.1357l1.3291,8.6602l-0.7324,0.1104l-1.4063-9.1592l0.7334-0.1123L527.5303,678.8164z"/>
	<path d="M531.5908,674.6738l0.7197-0.1309l0.6904,3.8125l1.5703,0.459l0.0488,0.2686l-1.5703-0.459l0.9131,5.0391l-0.7197,0.1309
		l-0.9795-5.3955l-1.5908-0.4658l-0.0469-0.2588l1.5889,0.4551L531.5908,674.6738z"/>
	<path d="M536.9795,673.6279l1.8965,9.0742l-0.7168,0.1484l-1.8984-9.0732L536.9795,673.6279z"/>
	<path d="M541.3936,682.1631l-2.1582-9.0176l0.7119-0.1719l3.9824,0.9238l0.0654,0.2744l-3.9863-0.9316l0.5273,2.2012l3.9805,0.9111
		l0.0654,0.2754l-3.9844-0.9229l1.5059,6.2832L541.3936,682.1631z"/>
	<path d="M548.2168,670.8643l2.4063,8.959l-0.7168,0.1904l-0.5879-2.1875l-2.2461-2.7529l-0.5684,3.4883l0.5918,2.207
		l-0.7158,0.1914l-2.4072-8.959l0.708-0.1875l2.2646,2.7773l0.5566-3.5371L548.2168,670.8643z M546.3789,678.1016l0.5107-3.2207
		l-2.083-2.5947L546.3789,678.1016z M549.1973,677.375l-1.5703-5.8467l-0.4922,3.2871L549.1973,677.375z"/>
	<path d="M561.9854,666.373l3.1221,8.7285l-0.6885,0.2471l-1.5693-4.3721l-4.3379-1.2822l2.7754-3.0703L561.9854,666.373z
		 M562.7412,670.6738l-1.3643-3.8027l-2.3994,2.6758L562.7412,670.6738z"/>
	<path d="M563.165,665.916l2.7979,0.9082l2.4209,2.7861l1.4346,3.665l-0.2725,0.1055l-1.4111-3.6104l-2.3418-2.6895l-2.5381-0.832
		l3.2539,8.3203l-0.6895,0.2705l-3.3779-8.6396L563.165,665.916z"/>
	<path d="M569.3457,663.4277l3.6094,8.5381l-0.6738,0.2852l-3.6094-8.5381L569.3457,663.4277z"/>
	<path d="M572.1455,662.2158l2.1631,4.751l2.583-3.1592l2.4277,5.3281l-0.666,0.3027l-2.168-4.7363l-2.582,3.1377l-2.4326-5.3135
		L572.1455,662.2158z"/>
	<path d="M581.9131,657.4951l0.6455-0.3389l1.7939,3.4287l1.6357-0.0303l0.126,0.2422l-1.6338,0.0303l2.3691,4.5342l-0.6455,0.3379
		l-2.5391-4.8545l-1.6553,0.0303l-0.1221-0.2334l1.6514-0.0361L581.9131,657.4951z"/>
	<path d="M592.2207,662.4385l-3.0205-1.9873l0.042,3.6533l-0.2129,0.1172L589,660.2725l-2.4297-1.627l-0.0215-3.832l2.6133,1.7334
		l0.0342,3.1006l3.6631,2.4336L592.2207,662.4385z M586.7676,658.043l2.2236,1.4736l-0.0195-2.3486l-2.2334-1.499L586.7676,658.043z
		"/>
	<path d="M589.3711,653.3887l2.6699,4.4824l2.2178-3.4209l2.9941,5.0244l-0.6279,0.374l-2.6729-4.4688l-2.2207,3.3994
		l-2.9971-5.0146L589.3711,653.3887z"/>
	<path d="M594.502,653.7295l-0.2607-0.4121l0.5488-3.2344l3.0283,0.6807l0.2607,0.4111l-2.5303-0.5654l4.5039,7.1084l-0.6182,0.3936
		l-4.4775-7.0693L594.502,653.7295z"/>
	<path d="M597.0498,648.6338l0.6074-0.4082l4.1279-0.4229l-1.2998,3.4766l5.3594,2.6191l-0.2334,0.1553l-5.4453-2.6553
		l1.2246-3.3066l-3.584,0.3389l5.0342,7.4863l-0.6064,0.4092L597.0498,648.6338z"/>
	<path d="M601.7334,645.458l2.9336,0.1992l3.0244,2.1094l2.2793,3.2041l-0.2363,0.1699l-2.2471-3.1543l-2.9277-2.0381
		l-2.6602-0.1895l5.1797,7.2744l-0.6045,0.4307l-5.3779-7.5527L601.7334,645.458z"/>
	<path d="M607.9678,640.8936l0.5918-0.4443l5.5811,7.3926l-0.584,0.4414l-3.8086-2.6357l1.4814,4.3916l-0.584,0.4385l-5.5898-7.3867
		l0.5938-0.4463l3.791,2.6113L607.9678,640.8936z M609.5205,645.4893l-3.5957-2.4795l4.9883,6.6074L609.5205,645.4893z
		 M608.2734,641.2988l1.3955,4.1143l3.5879,2.4707L608.2734,641.2988z"/>
	<path d="M616.5361,638.3672l-1.0811-3.5566l0.5596-0.4707l5.9736,7.0879l-0.5615,0.4736l-5.6699-6.7305l1.0938,3.5693
		l-3.2998-1.6592l5.6465,6.7002l-0.5674,0.4775l-5.9727-7.0889l0.5654-0.4775L616.5361,638.3672z"/>
	<path d="M618.292,632.3301l2.2441,2.5186l-1.0596-3.5732l0.1846-0.1621l1.2188,4.123l3.5732,4.0107l-0.5459,0.4863l-3.5859-4.0254
		l-3.9375-1.6768l0.1836-0.1621l3.4082,1.4531l-2.2295-2.5039L618.292,632.3301z"/>
	<path d="M623.9561,631.7627l-1.2744-3.4834l0.5322-0.502l6.3496,6.7393l-0.5313,0.501l-6.0283-6.3984l1.2881,3.5l-3.3828-1.4746
		l6.002,6.3711l-0.5391,0.5088l-6.3496-6.7393l0.5371-0.5078L623.9561,631.7627z"/>
	<path d="M623.5586,627.4355l0.5205-0.5166l3.9688-1.1982l-0.6152,3.6543l5.7578,1.5508l-0.2012,0.1992l-5.8457-1.5713
		l0.5723-3.4746l-3.4512,1.0127l6.3594,6.3877l-0.5186,0.5176L623.5586,627.4355z"/>
	<path d="M636.5117,627.4541l-4.9375-0.46l2.8174,2.6855l-0.5049,0.5293l-6.7119-6.3936l0.5049-0.5283l3.6172,3.4434l5.4229,0.5049
		L636.5117,627.4541z"/>
	<path d="M632.0703,618.5684l6.8857,6.2041l-0.4902,0.543l-6.8857-6.2041L632.0703,618.5684z"/>
	<path d="M635.8672,618.7256l-0.3701-0.3145l-0.4297-3.252l3.0938-0.2432l0.3701,0.3164l-2.584,0.2012l6.3975,5.4668l-0.4746,0.5566
		l-6.3633-5.4336L635.8672,618.7256z"/>
	<path d="M644,618.9434l-7.2197-5.8271l0.46-0.5693l3.7217-1.7031l0.2207,0.1797l-3.7285,1.6953l1.7637,1.4229l3.7129-1.709
		l0.2227,0.1797l-3.7236,1.7021l5.0313,4.0615L644,618.9434z"/>
	<path d="M642.1904,611.0801l-0.3896-0.2959l-0.6035-3.2256l3.0762-0.4102l0.3867,0.2959l-2.5703,0.3438l6.6895,5.1094
		l-0.4434,0.582l-6.6514-5.0801L642.1904,611.0801z"/>
	<path d="M644.2988,603.3545l7.5225,5.4219l-0.4297,0.5938l-7.5215-5.4219L644.2988,603.3545z"/>
	<path d="M655.3701,603.6602l-3.5918-0.4229l1.6748,3.2471l-0.1367,0.2021l-1.7998-3.5205l-2.8984-0.3652l-1.7354-3.418
		l3.1133,0.3809l1.4199,2.7559l4.3652,0.5332L655.3701,603.6602z M648.5264,602.1748l2.6455,0.3223l-1.0674-2.0928l-2.6709-0.3379
		L648.5264,602.1748z"/>
	<path d="M649.4238,595.7852l0.3965-0.6172l3.2656,2.0898l1.4063-0.8389l0.2285,0.1475l-1.4043,0.8389l4.3154,2.7637l-0.3945,0.6172
		l-4.6221-2.959l-1.4277,0.8506l-0.2217-0.1426l1.417-0.8555L649.4238,595.7852z"/>
	<path d="M653.8545,588.5703l2.7393-1.0605l3.6299,0.6338l3.4189,1.9385l-0.1436,0.2549l-3.3682-1.9082l-3.5098-0.6084
		l-2.4902,0.9521l7.7646,4.3984l-0.3652,0.6465l-8.0615-4.5664L653.8545,588.5703z"/>
	<path d="M664.041,589.3594l-8.1895-4.3506l0.3447-0.6455l3.3291-2.377l0.25,0.1328l-3.3389,2.3721l7.9482,4.2207L664.041,589.3594z
		"/>
	<path d="M666.4346,584.8291l-8.3057-4.1162l0.3242-0.6563l3.2607-2.4678l0.2529,0.125l-3.2686,2.4639l8.0615,3.9961
		L666.4346,584.8291z"/>
	<path d="M668.707,580.2236l-8.4219-3.8848l0.3066-0.665l3.1914-2.5596l0.2568,0.1191l-3.2002,2.5557l2.0576,0.9482l3.1836-2.5635
		l0.2568,0.1182l-3.1904,2.5605l5.8682,2.7061L668.707,580.2236z"/>
	<path d="M664.0635,567.8574l8.5215,3.6504l-0.293,0.6846l-2.0811-0.8945l-3.5518,0.0625l2.3877,2.6035l2.0996,0.9004l-0.291,0.6816
		l-8.5225-3.6523l0.2881-0.6738l3.582-0.0576l-2.4346-2.625L664.0635,567.8574z M668.6084,573.7773l-2.2158-2.3945l-3.3242,0.0293
		L668.6084,573.7773z M669.7813,571.1152l-5.5635-2.3838l2.2764,2.4199L669.7813,571.1152z"/>
	<path d="M674.3477,567.0859l-4.7451,1.4238l3.6152,1.4326l-0.2686,0.6797l-8.6104-3.4063l0.2705-0.6797l4.6406,1.8359
		l5.2109-1.5654L674.3477,567.0859z"/>
	<path d="M675.999,562.6221l-3.5889,0.4688l2.4189,2.7412l-0.083,0.2295l-2.6045-2.9766l-2.9004,0.3545l-2.5215-2.8936
		l3.1143-0.3926l2.0508,2.3262l4.3662-0.5508L675.999,562.6221z M668.9961,562.8545l2.6455-0.334l-1.5469-1.7715l-2.6738,0.3242
		L668.9961,562.8545z"/>
	<path d="M678.0713,556.4893l-8.8721-2.6963l0.2129-0.7002l2.8105-2.9707l0.2715,0.082l-2.8203,2.9688l8.6104,2.6162
		L678.0713,556.4893z"/>
	<path d="M679.5518,551.5811l-8.9424-2.4502l0.1914-0.7061l2.7295-3.0479l0.2715,0.0742l-2.7354,3.0459l2.1846,0.5986l2.7178-3.0508
		l0.2734,0.0742l-2.7295,3.0488l6.2324,1.707L679.5518,551.5811z"/>
	<path d="M674.7197,540.5674l0.2744,0.0654l-0.0156,0.0186l0.0107,0.002l1.585,4.1523l2.6455-3.1387l0.2744,0.0674l1.5801,4.1729
		l-0.1738,0.7109l-9.0029-2.2031l0.1748-0.7109L674.7197,540.5674z M672.3389,543.7705l3.9893,0.9775l-1.5146-3.9053
		L672.3389,543.7705z M676.8398,544.873l3.998,0.9785l-1.5117-3.916L676.8398,544.873z"/>
	<path d="M682.8701,538.0771l-3.4873,0.958l2.7725,2.3799l-0.0537,0.2393l-2.9844-2.5859l-2.8242,0.751l-2.8926-2.5176
		l3.0264-0.8145l2.3516,2.0195l4.2441-1.1445L682.8701,538.0771z M675.9707,539.2705l2.5732-0.6934l-1.7754-1.5371l-2.6016,0.6875
		L675.9707,539.2705z"/>
	<path d="M674.0566,534.9404l0.1357-0.7217l2.5898-3.2422l1.5674,3.3604l5.623-1.9932l-0.0518,0.2783l-5.709,2.0264l-1.502-3.1885
		l-2.2676,2.7949l8.8662,1.6504l-0.1338,0.7197L674.0566,534.9404z"/>
	<path d="M675.3438,527.6133l9.1621,1.4502l-0.1152,0.7227l-9.1611-1.4492L675.3438,527.6133z"/>
	<path d="M675.8008,524.6172l5.1748,0.6699l-1.3184-3.8594l5.8047,0.75l-0.0938,0.7275l-5.167-0.6582l1.3018,3.8477l-5.7959-0.7383
		L675.8008,524.6172z"/>
	<path d="M676.9385,513.8242l0.0557-0.7305l3.8643,0.291l0.8398-1.4033l0.2705,0.0205l-0.8398,1.4053l5.1113,0.3848l-0.0557,0.7305
		l-5.4727-0.4121l-0.8506,1.4238l-0.2656-0.0215l0.8438-1.4248L676.9385,513.8242z"/>
	<path d="M677.2881,508.334l9.2627,0.4492l-0.0352,0.7295l-9.2627-0.4473L677.2881,508.334z"/>
	<path d="M677.416,505.29l5.2158,0.1055l-1.7285-3.6934l5.8506,0.1191l-0.0146,0.7295l-5.207-0.0957l1.71,3.6826l-5.8408-0.1074
		L677.416,505.29z"/>
	<path d="M677.4824,498.6768l9.2637-0.1445l0.0107,0.7295l-9.2627,0.1465L677.4824,498.6768z"/>
	<path d="M677.2598,490.8086l1.7266-2.3789l3.3916-1.4414l3.9238-0.2334l0.0186,0.292l-3.8643,0.2305l-3.2773,1.3955l-1.5703,2.1553
		l8.9063-0.5313l0.0449,0.7402l-9.2471,0.5508L677.2598,490.8086z"/>
	<path d="M679.9238,486.46l-0.4844,0.042l-2.6182-1.9766l1.998-2.375l0.4844-0.042l-1.6699,1.9834l8.3906-0.7236l0.0625,0.7285
		l-8.3398,0.7217L679.9238,486.46z"/>
	<path d="M685.2148,475.8232l-9.1768,1.3047l-0.1045-0.7246l1.291-3.8789l0.2803-0.04l-1.3008,3.8799l2.2412-0.3184l1.2803-3.877
		l0.2793-0.04l-1.291,3.8789l6.3955-0.9092L685.2148,475.8232z"/>
	<path d="M684.4912,470.7637l-9.1318,1.5527l-0.123-0.7227l1.1855-3.9102l0.2783-0.0469l-1.1943,3.9121l8.8633-1.5049
		L684.4912,470.7637z"/>
	<path d="M674.041,465.0049l9.0889-1.7979l0.1436,0.7178l-9.0908,1.7969L674.041,465.0049z"/>
	<path d="M672.5977,458.4492l9.0479-2.0488l0.1621,0.7139l-4.5303,1.0303l-1.8008,4.1553l-2.7148-3.1279L672.5977,458.4492z
		 M676.9609,458.2168l-3.9404,0.8975l2.3672,2.7061L676.9609,458.2168z"/>
	<path d="M672.3096,457.2354l1.2393-2.6641l3.0537-2.0635l3.8086-0.9775l0.0732,0.2842l-3.75,0.9629l-2.9512,1.9971l-1.1309,2.415
		l8.6416-2.2217l0.1865,0.7178l-8.9746,2.3066L672.3096,457.2354z"/>
	<path d="M670.5752,450.8047l8.915-2.5508l0.2012,0.7041l-8.915,2.5508L670.5752,450.8047z"/>
	<path d="M669.9355,448.5908l1.2246-4.2266l-2.3271,0.7344l-0.2207-0.6963l3.0225-0.957l-1.2227,4.2266l7.4463-2.3545
		l-3.4326-2.7559l3.0244-0.9551l0.2207,0.6963l-2.3262,0.7363l3.4326,2.7539L669.9355,448.5908z"/>
	<path d="M669.3193,436.1738l-3.7109-0.1621l-0.2607-0.6846l8.6689-3.2764l0.2607,0.6865l-8.2305,3.1084l3.7295,0.1553
		l-2.6621,2.5605l8.1924-3.0977l0.2637,0.6934l-8.668,3.2744l-0.2646-0.6914L669.3193,436.1738z"/>
	<path d="M664.2002,432.5029l3.126-1.2783l-3.7295-0.1934l-0.0928-0.2275l4.2988,0.2266l4.9795-2.0352l0.2744,0.6768l-4.9932,2.042
		l-2.8965,3.1553l-0.0928-0.2275l2.5098-2.7314l-3.1074,1.2695L664.2002,432.5029z"/>
	<path d="M663.5361,422.5693l-3.7139,0.1396l-0.3135-0.6611l8.3789-3.9717l0.3135,0.6621l-7.9551,3.7705l3.7314-0.1465
		l-2.4463,2.7686l7.9199-3.7539l0.3174,0.6699l-8.3799,3.9717l-0.3164-0.6699L663.5361,422.5693z"/>
	<path d="M667.5605,417.4141l-8.2627,4.2041l-0.332-0.6523l-0.0322-4.0889l0.2529-0.1279l0.0234,4.0938l2.0176-1.0254l-0.041-4.084
		l0.2539-0.1279l0.0303,4.0889l5.7588-2.9316L667.5605,417.4141z"/>
	<path d="M660.7949,404.9512l-1.8242,4.6123l3.3672-1.9541l0.3672,0.6328l-8.0156,4.6514l-0.3682-0.6328l4.3184-2.5078
		l2.0029-5.0645L660.7949,404.9512z"/>
	<path d="M658.332,400.918l-1.8545,3.1064l3.6484-0.2012l0.1279,0.207l-3.9463,0.2021l-1.5195,2.4971l-3.8291,0.1875l1.6201-2.6875
		l3.0957-0.1689l2.2725-3.7656L658.332,400.918z M654.1777,406.5566l1.377-2.2813l-2.3467,0.1172l-1.4014,2.3008L654.1777,406.5566z
		"/>
	<path d="M647.3955,401.0645l7.7568-5.0742l0.4043,0.6211l-1.8936,1.2373l-1.915,2.9893l3.4902-0.5459l1.9102-1.25l0.4033,0.6201
		l-7.7549,5.0742l-0.3984-0.6123l1.9336-3.0137l-3.5303,0.5713L647.3955,401.0645z M653.2705,398.1064l-5.0605,3.3105l3.2725-0.5557
		L653.2705,398.1064z M654.8379,400.5547l-3.2158,0.5205l-1.8154,2.7852L654.8379,400.5547z"/>
	<path d="M644.6172,397.0654l7.6084-5.291l0.4248,0.6074l-1.8584,1.292l-1.8291,3.043l3.4746-0.6445l1.875-1.3037l0.4229,0.6084
		l-7.6104,5.291l-0.417-0.6006L648.5557,397l-3.5137,0.6719L644.6172,397.0654z M650.4082,393.9424l-4.9668,3.4512l3.2568-0.6465
		L650.4082,393.9424z M652.043,396.3457l-3.2002,0.6094l-1.7344,2.835L652.043,396.3457z"/>
	<path d="M649.6348,388.2305l-1.5967,3.2441l3.6211-0.4941l0.1445,0.1953l-3.918,0.5215l-1.3115,2.6113l-3.8018,0.4961
		l1.3955-2.8086l3.0713-0.4189l1.96-3.9385L649.6348,388.2305z M645.9512,394.1885l1.1865-2.3896l-2.3291,0.3105l-1.21,2.4033
		L645.9512,394.1885z"/>
	<path d="M639.2109,389.8789l-0.4561-0.584l7.3066-5.6973l0.4492,0.5771l-2.5742,3.8525l4.3672-1.5527l0.4492,0.5771l-7.2998,5.7041
		l-0.4551-0.584l2.5518-3.832L639.2109,389.8789z M639.6104,389.5674l4.0928-1.46l2.415-3.6279L639.6104,389.5674z
		 M643.7822,388.2559l-2.4229,3.6328l6.5273-5.0908L643.7822,388.2559z"/>
	<path d="M643.2568,380.1797l-1.4131,3.3301l3.5859-0.6963l0.1553,0.1885l-3.8809,0.7383l-1.1641,2.6807l-3.7676,0.707
		l1.2363-2.8818l3.043-0.5889l1.7373-4.04L643.2568,380.1797z M639.9111,386.333l1.0518-2.4492l-2.3076,0.4385l-1.0742,2.4678
		L639.9111,386.333z"/>
</g>
<circle fill="none" stroke="#000000" stroke-width="2" stroke-miterlimit="10" cx="500" cy="499.9998" r="144.5559"/>
<g>
	<path d="M500,376.0039c-38.7549,0-73.3599,17.7832-96.0977,45.6304c12.874-10.4023,29.2573-16.6304,47.0977-16.6304l0,0
		c41.4189,0,74.9961,33.5771,74.9961,74.9961l0,0c0,41.4189-33.5771,74.9961-74.9961,74.9961
		c-38.4614,0-70.1606-28.9541-74.4917-66.2534c-0.334,3.708-0.5044,7.4619-0.5044,11.2573
		c0,68.4814,55.5146,123.9961,123.9961,123.9961S623.9961,568.4814,623.9961,500S568.4814,376.0039,500,376.0039"/>
	<g>
		<defs>
			<polyline id="SVGID_1_" points="376.0039,405.0039 525.9961,405.0039 525.9961,554.9961 376.0039,554.9961 376.0039,405.0039 			
				"/>
		</defs>
		<clipPath id="SVGID_2_">
			<use xlink:href="#SVGID_1_"  overflow="visible"/>
		</clipPath>
		<path clip-path="url(#SVGID_2_)" fill="#FFFFFF" d="M451,405.0039L451,405.0039c-17.8403,0-34.2236,6.228-47.0977,16.6304
			c-15.2144,18.6328-25.1138,41.7705-27.394,67.1084c4.3311,37.2993,36.0303,66.2534,74.4917,66.2534
			c41.4189,0,74.9961-33.5771,74.9961-74.9961l0,0C525.9961,438.5811,492.4189,405.0039,451,405.0039"/>
	</g>
</g>
<circle fill="none" stroke="#000000" stroke-width="2" stroke-miterlimit="10" cx="500" cy="500" r="151.9961"/>
<g>
	<path d="M412.2354,513.3428l-16.3379,13.6855l-1.0801-1.29l16.3369-13.6855L412.2354,513.3428z"/>
	<path d="M407.6846,538.1211l0.3135-9.3398l-4.6846,5.8213L402,533.5469l13.3652-16.6123l1.3115,1.0576l-7.2031,8.9531
		l-0.1104,12.5244L407.6846,538.1211z"/>
	<path d="M414.4678,542.6348l-1.4922-0.7764l9.8574-18.9023l1.4922,0.7783l-2.8965,5.5508l4.4443,6.0381l4.4199-8.4785
		l1.4922,0.7783l-9.8574,18.9023l-1.4912-0.7783l2.3125-4.4375l-4.5166-5.8975L414.4678,542.6348z M419.0439,533.8594l4.5176,5.8965
		l1.5352-2.9424l-4.4336-6.0596L419.0439,533.8594z"/>
	<path d="M437.4199,529.2998l-5.9287,20.4824l-1.6172-0.4688l5.9287-20.4814L437.4199,529.2998z"/>
	<path d="M446.8477,540.5283l-0.9834,11.7334l-1.6777-0.1406l1.0566-12.5635l-3.2549-1.9824l0.1641-1.9453l3.2588,1.9395
		l0.5605-6.6855l1.6787,0.1426l-0.6338,7.5313l3.2588,1.9629l-0.165,1.9688L446.8477,540.5283z"/>
	<path d="M462.0654,551.6563l-3.7139-5.3477l-2.4424,6.0322l-1.9414,0.2158l3.2021-7.9434l-4.1992-6.0615l3.6533-7.7471
		l5.2695,6.752l-2.7607,6.8369l4.874,7.0449L462.0654,551.6563z M457.9502,542.6963l1.9795-4.918l-2.9658-3.916l-2.0313,4.4727
		L457.9502,542.6963z"/>
	<path d="M466.4756,539.8779l0.0166-0.0283l6.7588-6.4971l4.5039,14.1592l-1.6025,0.5146l-3.6572-11.4385l-6.7588,6.4971
		l-4.1162-12.7979l1.625-0.5215L466.4756,539.8779z"/>
	<path d="M483.1602,545.0146l-1.4697,0.8193l-10.3994-18.6162l1.4902-0.8301l0.1641,0.2939l6.4346,4.8164l-0.583-8.1045
		l-0.1533-0.2725l1.4902-0.8301l10.3594,18.6377l-1.4707,0.8193l-8.7383-15.6357l0.6055,7.9609l-6.4492-4.7051L483.1602,545.0146z"
		/>
</g>
</svg>
