<?xml version="1.0" encoding="iso-8859-1"?>
<!-- Generator: Adobe Illustrator 15.0.0, SVG Export Plug-In . SVG Version: 6.00 Build 0)  -->
<!DOCTYPE svg PUBLIC "-//W3C//DTD SVG 1.1//EN" "http://www.w3.org/Graphics/SVG/1.1/DTD/svg11.dtd">
<svg version="1.1" id="&#x30EC;&#x30A4;&#x30E4;&#x30FC;_1"
	 xmlns="http://www.w3.org/2000/svg" xmlns:xlink="http://www.w3.org/1999/xlink" x="0px" y="0px" width="800px" height="800px"
	 viewBox="0 0 800 800" style="enable-background:new 0 0 800 800;" xml:space="preserve">
<circle style="fill:none;stroke:#000000;stroke-width:4;stroke-miterlimit:10;" cx="400" cy="400" r="380"/>
<circle style="fill:none;stroke:#000000;stroke-width:2;stroke-miterlimit:10;" cx="400" cy="400" r="373.151"/>
<circle style="fill:none;stroke:#000000;stroke-width:4;stroke-miterlimit:10;" cx="400" cy="400" r="296.698"/>
<g>
	<path style="fill:none;stroke:#000000;stroke-width:2;stroke-miterlimit:10;" d="M158.09,572.705l-1.043,21.908l-16.359,25.257
		L115.505,639.1l-3.079-4.031l24.438-18.661l15.22-23.405l0.837-18.707l-0.568-0.744l-54.894,41.917l-3.6-4.715l58.925-44.995
		L158.09,572.705z"/>
	<path style="fill:none;stroke:#000000;stroke-width:2;stroke-miterlimit:10;" d="M182.244,638.383l0.161-20.752l-45.218,44.523
		l-4.107-4.172l45.162-44.468l-20.642-0.16l5.562-5.477l24.836,0.192l-0.192,24.836L182.244,638.383z"/>
	<path style="fill:none;stroke:#000000;stroke-width:2;stroke-miterlimit:10;" d="M249.883,681.528l-17.472-27.646l-34.856,57.545
		l-5.007-3.033l38.414-63.419l5.007,3.032l-0.041,0.067l17.513,27.58L249.883,681.528z"/>
	<path style="fill:none;stroke:#000000;stroke-width:2;stroke-miterlimit:10;" d="M286.497,698.206l-20.827-25.219l-5.417,12.198
		l20.97,25.282l-2.646,5.572l-20.827-25.219l-19.387,43.657l-5.35-2.376l30.093-67.769l5.35,2.376l-0.031,0.071l20.858,25.147
		L286.497,698.206z"/>
	<path style="fill:none;stroke:#000000;stroke-width:2;stroke-miterlimit:10;" d="M326.954,703.552l-1.969,6.58l-26.075,7.92
		l18.461,17.254l-1.745,5.832l-33.854,11.052l-5.608-1.678l21.251-71.03l5.608,1.678L326.954,703.552z M293.066,719.888
		l-1.786,0.524l-7.829,26.169l28.182-9.245L293.066,719.888z M301.346,686.767l-7.852,26.244l1.219,1.098l26.545-8.676
		L301.346,686.767z"/>
	<path style="fill:none;stroke:#000000;stroke-width:2;stroke-miterlimit:10;" d="M349.287,767.912L341.9,746.52l-13.869,17.884
		l-6.7-1.105l18.209-23.575l-8.34-24.239l19.533-22.486l11.271,27.57l-15.687,20.273l9.668,28.177L349.287,767.912z
		 M343.959,734.044l11.27-14.595l-6.236-15.901l-11.015,13.055L343.959,734.044z"/>
	<path style="fill:none;stroke:#000000;stroke-width:2;stroke-miterlimit:10;" d="M376.644,696.393l25.947,28.32l-17.843,7.133
		l18.017,39.733l-5.849-0.222L377.023,729.6l15.894-7.206l-16.806-18.133l-2.513,66.212l-5.927-0.226l2.812-74.088l3.666,0.139
		l2.262,0.086L376.644,696.393z"/>
	<path style="fill:none;stroke:#000000;stroke-width:2;stroke-miterlimit:10;" d="M420.112,770.86l-5.831,0.5l-6.413-73.864
		l5.91-0.507l0.1,1.166l13.533,24.454l9.71-26.525l-0.093-1.089l5.909-0.507l6.257,73.878l-5.832,0.5l-5.398-62.045l-9.433,26.109
		l-13.739-24.122L420.112,770.86z"/>
	<path style="fill:none;stroke:#000000;stroke-width:2;stroke-miterlimit:10;" d="M511.181,754.472l-5.524,1.933l-24.558-69.96
		l5.599-1.959l0.387,1.105l19.184,20.327l2.818-28.107l-0.361-1.031l5.599-1.959l24.41,70.013l-5.525,1.933l-20.64-58.763
		l-2.652,27.636l-19.301-19.956L511.181,754.472z"/>
	<path style="fill:none;stroke:#000000;stroke-width:2;stroke-miterlimit:10;" d="M559.235,680.954l-19.685-6.563l28.371,56.755
		l-5.236,2.617l-28.336-56.685l-6.528,19.58l-3.49-6.981l7.855-23.559l23.559,7.855L559.235,680.954z"/>
	<path style="fill:none;stroke:#000000;stroke-width:2;stroke-miterlimit:10;" d="M603.365,616.876l3.719-3.216l48.489,56.084
		l-3.72,3.216l-29.316-14.578l10.13,31.167l-3.602,3.113l-48.548-56.033l3.66-3.165l29.623,14.933l-10.495-31.47L603.365,616.876z
		 M616.073,655.201l-23.022-11.354l31.288,36.188L616.073,655.201z M643.534,663.337l-31.194-35.961l7.976,24.261L643.534,663.337z"
		/>
	<path style="fill:none;stroke:#000000;stroke-width:2;stroke-miterlimit:10;" d="M682.944,640.506l-22.001-5.303l7.594,21.318
		l-4.541,5.049l-10.05-28.042l-24.914-6.034l-8.419-28.57l29.3,5.359l8.627,24.138l28.946,7.036L682.944,640.506z M651.543,626.746
		l-6.224-17.356l-16.756-3.314l5.063,16.313L651.543,626.746z"/>
	<path style="fill:none;stroke:#000000;stroke-width:2;stroke-miterlimit:10;" d="M671.591,567.369L642.91,583.09l55.269,38.367
		l-3.338,4.809l-60.911-42.284l3.338-4.809l0.064,0.044l28.616-15.765L671.591,567.369z"/>
	<path style="fill:none;stroke:#000000;stroke-width:2;stroke-miterlimit:10;" d="M734.114,562.258l-22.625,0.347l12.665,18.752
		l-3.14,6.021l-16.719-24.65l-25.628,0.365l-15.272-25.567l29.707-2.111l14.369,21.224l29.782-0.399L734.114,562.258z
		 M700.278,556.759l-10.352-15.257l-17.051,0.966l8.968,14.535L700.278,556.759z"/>
	<path style="fill:none;stroke:#000000;stroke-width:2;stroke-miterlimit:10;" d="M674.673,513.986l34.979-15.879l1.242,19.179
		l43.37-4.795l-2.027,5.491l-45.875,5.95l-1.918-17.348l-22.456,10.35l62.169,22.943l-2.054,5.565l-69.565-25.673l1.271-3.441
		l0.783-2.124L674.673,513.986z"/>
	<path style="fill:none;stroke:#000000;stroke-width:2;stroke-miterlimit:10;" d="M759.029,495.411l-1.313,5.704l-72.279-16.564
		l1.331-5.781l1.142,0.263l27.431-5.377l-22.27-17.384l-1.064-0.245l1.331-5.781l72.244,16.718l-1.313,5.704l-60.718-13.902
		l21.959,16.992l-27.179,5.675L759.029,495.411z"/>
	<path style="fill:none;stroke:#000000;stroke-width:2;stroke-miterlimit:10;" d="M696.626,376.54l74.131-1.566l0.103,4.838
		l-20.522,0.433l-21.119,12.859l21.654,12.502l20.524-0.355l0.103,4.838l-74.132,1.566l-0.103-4.839l22.596-13.202l-23.131-12.158
		L696.626,376.54z M741.597,380.43l-35.115,0.742l17.764,9.383L741.597,380.43z M724.369,396.408l-17.35,10.203l35.192-0.743
		L724.369,396.408z"/>
	<path style="fill:none;stroke:#000000;stroke-width:2;stroke-miterlimit:10;" d="M712.59,336.127l-10.164,31.085l13.203-1.949
		l10.141-31.24l6.123-0.746l-10.164,31.085l47.252-6.976l0.855,5.791l-73.35,10.829l-0.854-5.791l0.077-0.012l10.087-31.074
		L712.59,336.127z"/>
	<path style="fill:none;stroke:#000000;stroke-width:2;stroke-miterlimit:10;" d="M762.31,316.874l-22.3-2.335l-13.923,10.473
		l-19.221-0.605l-16.075,12.05l-1.455-5.186l25.394-19.286l-31.72-3.259l-1.497-5.335l22.333,2.164l13.127-9.845l18.331,0.612
		l17.517-13.266l1.582,5.636l-25.77,19.391l32.096,3.154L762.31,316.874z M720.938,307.243l8.823-6.691l-10.634-0.34l-7.855,6.096
		L720.938,307.243z M732.412,313.751l-10.084-0.98l-8.382,6.243l10.559,0.36L732.412,313.751z"/>
	<path style="fill:none;stroke:#000000;stroke-width:2;stroke-miterlimit:10;" d="M702.86,268.111l37.731-15.99l2.284,5.39
		l-40.391,17.117l-0.832,13.239l-6.253,2.65l0.688-13.178l-21.488,9.106l-2.284-5.39l24.22-10.264l0.761-13.208l6.324-2.68
		L702.86,268.111z"/>
	<path style="fill:none;stroke:#000000;stroke-width:2;stroke-miterlimit:10;" d="M666.834,225.142l2.125,32.633l11.53-6.719
		l-2.204-32.768l5.406-2.969l2.125,32.633l41.266-24.046l2.947,5.057l-64.058,37.327l-2.946-5.057l0.067-0.04l-2.192-32.594
		L666.834,225.142z"/>
	<path style="fill:none;stroke:#000000;stroke-width:2;stroke-miterlimit:10;" d="M615.307,164.66l10.093,31.112l9.524-9.352
		l-10.203-31.224l4.51-4.209l10.093,31.112l34.085-33.469l4.102,4.177l-52.909,51.953l-4.102-4.177l0.056-0.055l-10.149-31.058
		L615.307,164.66z"/>
	<path style="fill:none;stroke:#000000;stroke-width:2;stroke-miterlimit:10;" d="M583.975,139.39l13.902,29.604l41.735-52.77
		l4.591,3.631l-45.995,58.158l-4.591-3.631l0.048-0.061l-13.951-29.543L583.975,139.39z"/>
	<path style="fill:none;stroke:#000000;stroke-width:2;stroke-miterlimit:10;" d="M551.183,144.22l38.327-63.477l5.012,3.026
		l-38.327,63.477L551.183,144.22z"/>
	<path style="fill:none;stroke:#000000;stroke-width:2;stroke-miterlimit:10;" d="M504.401,121.265l29.991-67.812l5.354,2.368
		L524.75,89.727l19.602,28.042l-34.312,5.99l-0.285-0.126L504.401,121.265z M521.94,96.08l-9.061,20.486l22.612-2.886L521.94,96.08z
		"/>
	<path style="fill:none;stroke:#000000;stroke-width:2;stroke-miterlimit:10;" d="M493.801,117.891l-12.056-18.328l-1.645-30.052
		l9.038-30.375l4.863,1.447l-8.771,29.477l1.476,27.884l10.337,15.618l0.897,0.267l19.703-66.21l5.686,1.692l-21.149,71.073
		L493.801,117.891z"/>
	<path style="fill:none;stroke:#000000;stroke-width:2;stroke-miterlimit:10;" d="M435.002,82.917l26.528,19.13l2.155-13.171
		L437.003,69.72l1.15-6.06l26.527,19.13l7.714-47.14l5.776,0.945l-11.973,73.175l-5.777-0.945l0.013-0.077l-26.541-19.053
		L435.002,82.917z"/>
	<path style="fill:none;stroke:#000000;stroke-width:2;stroke-miterlimit:10;" d="M346.604,107.569l-19.362-10.308l-15.844-25.585
		l-6.622-30.987l4.961-1.061l6.427,30.072l14.656,23.764l16.556,8.752l0.916-0.196l-14.436-67.547l5.8-1.24l15.496,72.508
		L346.604,107.569z"/>
	<path style="fill:none;stroke:#000000;stroke-width:2;stroke-miterlimit:10;" d="M276.959,101.387l18.709,8.979l-21.04-59.869
		l5.523-1.941l21.014,59.795l8.931-18.61l2.588,7.364l-10.746,22.392l-22.392-10.746L276.959,101.387z"/>
	<path style="fill:none;stroke:#000000;stroke-width:2;stroke-miterlimit:10;" d="M204.247,84.32l4.868-3.25l41.233,61.622
		l-4.933,3.293l-0.65-0.974l-23.647-14.899l4.283,27.921l0.606,0.909l-4.933,3.293l-41.104-61.708l4.869-3.25l34.646,51.756
		l-4.325-27.423l23.669,14.509L204.247,84.32z"/>
	<path style="fill:none;stroke:#000000;stroke-width:2;stroke-miterlimit:10;" d="M181.208,152.633l-26.844-30.962l4.423-3.835
		l28.736,33.144l12.85-3.29l4.449,5.131l-12.748,3.408l15.289,17.633l-4.423,3.835l-17.231-19.875l-12.799,3.349l-4.5-5.19
		L181.208,152.633z"/>
	<path style="fill:none;stroke:#000000;stroke-width:2;stroke-miterlimit:10;" d="M177.181,203.542l-55.2-49.518l3.909-4.358
		l55.2,49.518L177.181,203.542z"/>
	<path style="fill:none;stroke:#000000;stroke-width:2;stroke-miterlimit:10;" d="M145.866,245.164l-60.969-42.197l2.754-3.979
		l16.879,11.682l24.647,1.966l-10.211-22.824l-16.834-11.746l2.754-3.979l60.969,42.197l-2.754,3.979l-26.044-2.553l11.608,23.411
		L145.866,245.164z M111.717,215.644l28.88,19.988l-8.888-18.017L111.717,215.644z M135.041,212.802l20.037,1.908l-28.945-20.033
		L135.041,212.802z"/>
	<path style="fill:none;stroke:#000000;stroke-width:2;stroke-miterlimit:10;" d="M95.294,305.311l23.859-22.37l-12.514-4.639
		l-23.913,22.516L77,298.528l23.858-22.37l-44.787-16.604l2.035-5.489l69.522,25.773l-2.035,5.489l-0.073-0.027l-23.786,22.397
		L95.294,305.311z"/>
	<path style="fill:none;stroke:#000000;stroke-width:2;stroke-miterlimit:10;" d="M107.861,344.457l-1.11,4.79l-72.233-16.743
		l1.11-4.791l32.281-5.497l-26.553-19.214l1.075-4.638l72.25,16.667l-1.092,4.714l-32.737,5.392l27.026,19.244L107.861,344.457z
		 M48.022,330.586l46.398,10.674l-20.742-14.903L48.022,330.586z M75.006,320.977l25.294-4.392l-46.609-10.804L75.006,320.977z"/>
	<path style="fill:none;stroke:#000000;stroke-width:2;stroke-miterlimit:10;" d="M103.347,423.062l-74.132,1.479l-0.096-4.838
		l20.522-0.41l21.134-12.833l-21.64-12.527l-20.524,0.331l-0.096-4.838l74.132-1.479l0.096,4.838l-22.61,13.176l23.116,12.186
		L103.347,423.062z M75.628,403.161l17.361-10.183l-35.193,0.702L75.628,403.161z M58.381,419.118l35.115-0.7l-17.752-9.404
		L58.381,419.118z"/>
	<path style="fill:none;stroke:#000000;stroke-width:2;stroke-miterlimit:10;" d="M106.434,445.802l-73.363,10.727l-0.847-5.792
		l73.364-10.727L106.434,445.802z"/>
	<path style="fill:none;stroke:#000000;stroke-width:2;stroke-miterlimit:10;" d="M82.807,492.27l-39.47,11.008l-1.572-5.639
		l42.251-11.783l2.527-13.021l6.541-1.824l-2.376,12.979l22.479-6.27l1.573,5.639l-25.336,7.065l-2.452,13l-6.616,1.845
		L82.807,492.27z"/>
	<path style="fill:none;stroke:#000000;stroke-width:2;stroke-miterlimit:10;" d="M127.105,517.621l-68.305,28.832l-2.276-5.392
		l68.305-28.833L127.105,517.621z"/>
	<path style="fill:none;stroke:#000000;stroke-width:2;stroke-miterlimit:10;" d="M151.445,563.634L87.33,600.873l-2.431-4.184
		l17.75-10.31l12.259-21.472l-25-0.463l-17.789,10.242l-2.431-4.185l64.115-37.239l2.43,4.184l-13.385,22.486l26.125-0.552
		L151.445,563.634z M117.553,559.671l10.246-17.323l-30.438,17.679L117.553,559.671z M110.208,581.989l30.371-17.64l-20.085,0.383
		L110.208,581.989z"/>
</g>
<circle style="fill:none;stroke:#000000;stroke-width:2;stroke-miterlimit:10;" cx="400" cy="400" r="284.198"/>
<rect x="200" y="200" style="fill:none;stroke:#000000;stroke-width:2;stroke-miterlimit:10;" width="400" height="400"/>
<rect x="200" y="200" transform="matrix(0.7071 -0.7071 0.7071 0.7071 -165.6854 400)" style="fill:none;stroke:#000000;stroke-width:4;stroke-miterlimit:10;" width="400" height="400"/>
</svg>
