<?xml version="1.0" encoding="iso-8859-1"?>
<!-- Generator: Adobe Illustrator 15.0.0, SVG Export Plug-In . SVG Version: 6.00 Build 0)  -->
<!DOCTYPE svg PUBLIC "-//W3C//DTD SVG 1.1//EN" "http://www.w3.org/Graphics/SVG/1.1/DTD/svg11.dtd">
<svg version="1.1" id="&#x30EC;&#x30A4;&#x30E4;&#x30FC;_1"
	 xmlns="http://www.w3.org/2000/svg" xmlns:xlink="http://www.w3.org/1999/xlink" x="0px" y="0px" width="800px" height="800px"
	 viewBox="0 0 800 800" style="enable-background:new 0 0 800 800;" xml:space="preserve">
<circle style="fill:none;stroke:#000000;stroke-width:4;stroke-miterlimit:10;" cx="400" cy="400" r="370"/>
<circle style="fill:none;stroke:#000000;stroke-width:4;stroke-miterlimit:10;" cx="400" cy="400" r="167.261"/>
<circle style="fill:none;stroke:#000000;stroke-width:2;stroke-miterlimit:10;" cx="400" cy="400" r="378.22"/>
<g>
	<path d="M720.986,279.402l-2.093,16.218l31.777-11.036l0.961,2.765l-35.022,12.162l-0.96-2.765l0.037-0.013l2.056-16.206
		L720.986,279.402z"/>
	<path d="M739.221,254.383l-7.141,8.779l11.256,1.176l1.297,3.138l-14.818-1.52l-8.1,9.936l-14.704-2.37l8.741-12.059l12.75,1.319
		l9.422-11.538L739.221,254.383z M726.236,265.577l-9.173-0.939l-5.111,6.842l8.451,1.238L726.236,265.577z"/>
	<path d="M701.775,261.382l6.438-18.098l7.33,6.215l13.34-17.265l1.271,2.637l-13.795,18.568l-6.906-5.336l-4.077,11.672
		l29.848-14.393l1.288,2.672l-33.398,16.105l-0.797-1.652l-0.491-1.02L701.775,261.382z"/>
	<path d="M725.852,226.535l1.42,2.559l-32.394,18.023l-1.439-2.593l0.513-0.284l8.392-11.174l-14.088,0.991l-0.478,0.265
		l-1.439-2.593l32.432-17.955l1.42,2.559l-27.207,15.145l13.842-1.033l-8.199,11.2L725.852,226.535z"/>
	<path d="M676.311,215.762l31.341-19.801l1.292,2.045l-8.677,5.482l-5.725,10.957l12.499-0.235l8.697-5.449l1.292,2.045
		l-31.34,19.801l-1.292-2.045l6.269-11.484l-13.043,0.763L676.311,215.762z M696.572,205.822l-14.846,9.38l10.028-0.566
		L696.572,205.822z M693.318,217.11l-4.797,8.847l14.879-9.4L693.318,217.11z"/>
	<path d="M658.358,191.545l28.92-23.193l1.831,2.283l-28.92,23.193L658.358,191.545z"/>
	<path d="M652.886,184.767l-2.539-17.405l-7.251,6.527l-1.958-2.176l11.603-10.443l2.538,17.404l18.855-16.97l-17.043-4.351
		l11.604-10.443l1.958,2.175l-7.252,6.527l17.042,4.351L652.886,184.767z"/>
	<path d="M651.124,156h-0.055l-15.442-5.442l18.221-18.423l2.077,2.002l-14.702,14.788l15.441,5.195l-16.434,16.609l-2.104-1.859
		L651.124,156z"/>
	<path d="M623.46,154.491l-1.599-10.853l5.596-13.971l10.507-11.864l1.899,1.682l-10.196,11.513l-5.215,12.953l1.392,9.262
		l0.351,0.311l22.902-25.86l2.221,1.967l-24.585,27.76L623.46,154.491z"/>
	<path d="M598.787,133.995l22.961-29.107l1.9,1.499l-6.357,8.058l-1.75,12.238l11.708-4.383l6.388-8.034l1.899,1.499l-22.961,29.107
		l-1.899-1.499l2.087-12.917l-12.045,5.062L598.787,133.995z M614.584,117.876l-10.876,13.788l9.269-3.873L614.584,117.876z
		 M615.274,129.604l-1.578,9.939l10.901-13.818L615.274,129.604z"/>
	<path d="M569.675,114.563l-2.089-1.297l19.555-31.5l2.089,1.297l-2.594,16.167l13.37-9.477l2.022,1.256l-19.521,31.52l-2.056-1.276
		l2.718-16.365l-13.461,9.696L569.675,114.563z M585.875,88.469l-12.523,20.247l10.395-7.42L585.875,88.469z M586.079,102.79
		l-1.992,12.682l12.617-20.326L586.079,102.79z"/>
	<path d="M571.681,73.217l-0.029,11.314l9.488-6.164l2.981,1.624l-12.474,8.138l-0.047,12.815l-12.919,7.406l-0.789-14.871
		l10.739-6.993l0.067-14.893L571.681,73.217z M568.628,90.083l-7.72,5.039l0.33,8.533l7.347-4.353L568.628,90.083z"/>
	<path d="M538.457,86.31l10.113,12.845l14.363-30.41l2.646,1.25L549.75,103.51l-2.646-1.25l0.017-0.035l-10.131-12.81L538.457,86.31
		z"/>
	<path d="M533.381,55.777l1.265,11.243l8.721-7.208l3.147,1.272l-11.46,9.51l1.419,12.736l-11.986,8.834l-2.485-14.682l9.868-8.175
		l-1.636-14.802L533.381,55.777z M532.277,72.88l-7.093,5.888l1.304,8.438l6.801-5.164L532.277,72.88z"/>
	<path d="M512.156,87.399l-8.408-17.264l9.567-0.88l-2.983-21.606l2.771,0.938l3.595,22.843l-8.643,1.193l5.476,11.081
		l10.622-31.376l2.81,0.951l-11.887,35.109l-1.737-0.588l-1.071-0.363L512.156,87.399z"/>
	<path d="M480.325,58.782l-0.046,0.03l-15.821,3.929l5.492-25.245l2.861,0.618l-4.408,20.409l15.821-3.929l-4.897,22.858
		l-2.899-0.626L480.325,58.782z"/>
	<path d="M450.693,71.894l5.74-36.631l2.893,0.453l-5.74,36.631L450.693,71.894z"/>
	<path d="M425.843,56.21l6.578,8.023l3.126-31.572l2.912,0.289l-3.122,31.533l7.98-6.543l-0.384,3.884l-9.603,7.872l-7.873-9.603
		L425.843,56.21z"/>
	<path d="M387.167,57.476l14.749,7.062l-0.107-6.672l-14.826-7.06l0.029-3.084l14.749,7.062l-0.383-23.878l2.926-0.047l0.609,37.066
		L402,67.971v-0.039l-14.763-7.022L387.167,57.476z"/>
	<path d="M368.496,69.417l-2.522-36.994l2.415-0.165l0.698,10.241l6.919,10.248l5.737-11.11l-0.66-10.244l2.415-0.165l2.522,36.994
		l-2.415,0.165l-7.125-10.977l-5.531,11.84L368.496,69.417z M369.383,46.861l1.195,17.523l4.27-9.094L369.383,46.861z
		 M377.769,55.092l5.504,8.427l-1.197-17.562L377.769,55.092z"/>
	<path d="M359.541,33.119l2.904-0.365l4.663,36.786l-2.943,0.37l-0.073-0.581l-7.246-11.953l-4.329,13.447l0.068,0.542l-2.943,0.37
		l-4.585-36.795l2.904-0.365l3.923,30.899l4.198-13.234l7.343,11.784L359.541,33.119z"/>
	<path d="M328.737,62.625l8.542,5.886l-5.744-31.2l2.878-0.53l5.736,31.161l5.855-8.497l0.707,3.837l-7.045,10.224l-10.224-7.045
		L328.737,62.625z"/>
	<path d="M268.033,55.242l13.652,8.819l-4.497-12.195l2.747-1.013l12.829,34.79l-2.747,1.013l-6.914-18.75l-18.586-11.368
		L268.033,55.242z"/>
	<path d="M248.088,63.554l8.91,6.974l0.965-11.274l3.113-1.355l-1.242,14.842l10.084,7.911l-2.093,14.745l-12.22-8.513l1.08-12.771
		l-11.711-9.203L248.088,63.554z M259.522,76.325l-0.767,9.188l6.937,4.982l1.079-8.472L259.522,76.325z"/>
	<path d="M241.486,89.509l-9.245-18.289l2.613-1.32l9.896,19.578l6.633-0.029l1.532,3.031l-6.598,0.099l5.265,10.416l-2.613,1.321
		l-5.934-11.74l-6.616,0.064l-1.55-3.065L241.486,89.509z"/>
	<path d="M229.859,93.53l-0.014,0.053l-9.063,13.549l-12.917-22.374l2.533-1.467l10.465,18.066l9.064-13.549l11.751,20.208
		l-2.566,1.487L229.859,93.53z"/>
	<path d="M202.425,88.207l2.444-1.609l20.414,30.942l-2.477,1.63l-0.322-0.489l-11.774-7.526l2.05,13.973l0.3,0.456l-2.477,1.631
		l-20.349-30.985l2.444-1.609l17.153,25.987l-2.073-13.724l11.786,7.331L202.425,88.207z"/>
	<path d="M176.427,106.348l15.581,4.614l-7.749-10.432l2.35-1.745l22.106,29.76l-2.35,1.746l-11.914-16.039l-21.031-5.67
		L176.427,106.348z"/>
	<path d="M172.659,140.831l10.333,0.93l-20.333-24.352l2.247-1.875l20.307,24.322l0.925-10.278l2.5,2.995l-1.112,12.367
		l-12.366-1.112L172.659,140.831z"/>
	<path d="M152.249,126.437l2.137-2l25.367,27.037l-2.165,2.027l-0.4-0.427l-12.881-5.421l4.39,13.425l0.374,0.399l-2.165,2.027
		l-25.311-27.091l2.137-2l21.313,22.707l-4.37-13.176l12.86,5.228L152.249,126.437z"/>
	<path d="M144.653,168.389l10.373-0.247l-22.962-21.896l2.02-2.118l22.934,21.869l-0.245-10.318l2.824,2.693l0.295,12.415
		l-12.415,0.295L144.653,168.389z"/>
	<path d="M150.069,181.479l-10.816,1.814l-14.077-5.314l-12.068-10.265l1.644-1.932l11.711,9.962l13.051,4.954l9.23-1.575
		l0.303-0.357l-26.306-22.376l1.921-2.259l28.238,24.02L150.069,181.479z"/>
	<path d="M138.78,195.062l-19.041,2.519l2.189-9.356l-21.446-4.001l1.767-2.333l22.813,3.813l-1.601,8.579l12.247-1.692
		l-26.415-20.002l1.791-2.365l29.557,22.382l-1.107,1.462l-0.683,0.902L138.78,195.062z"/>
	<path d="M100.73,232.698l13.748-8.856l-5.738-3.408l-13.787,8.923l-2.611-1.642l13.748-8.856l-20.535-12.196l1.495-2.517
		l31.876,18.932l-1.494,2.517l-0.034-0.02l-13.714,8.876L100.73,232.698z"/>
	<path d="M102.318,252.789l-1.132,2.183L68.28,237.896l1.133-2.182l16.316,1.345l-10.475-12.602l1.096-2.113l32.924,17.042
		l-1.115,2.147l-16.524-1.453l10.701,12.676L102.318,252.789z M75.059,238.643l21.147,10.93l-8.196-9.793L75.059,238.643z
		 M89.321,237.339l12.796,1.013l-21.233-11.019L89.321,237.339z"/>
	<path d="M96.408,265.519l-33.833-15.163l1.197-2.671l33.833,15.163L96.408,265.519z"/>
	<path d="M92.86,273.493l-14.324,10.204l9.117,3.472l-1.042,2.735l-14.587-5.554l14.324-10.204l-23.704-9.026l3.91,17.147
		l-14.587-5.555l1.042-2.735l9.117,3.471l-3.91-17.147L92.86,273.493z"/>
	<path d="M83.063,300.934l-35.341-11.176l0.882-2.79l35.341,11.176L83.063,300.934z"/>
	<path d="M61.862,307.531l0.028,0.047l3.355,15.954l-25.032-6.401l0.721-2.837l20.237,5.143l-3.355-15.954l22.668,5.721
		l-0.731,2.875L61.862,307.531z"/>
	<path d="M73.893,337.633l-36.399-7.045l0.556-2.874l36.399,7.045L73.893,337.633z"/>
	<path d="M33.698,354.719l14.186-7.933l-12.881-1.738l0.392-2.901l36.747,4.958l-0.392,2.901l-19.805-2.672l-18.748,11.098
		L33.698,354.719z"/>
	<path d="M68.96,375.171l-36.965-2.87l0.227-2.918l36.965,2.871L68.96,375.171z"/>
	<path d="M51.504,394.257l-20.484-0.433l0.062-2.926l21.927,0.463l3.091-5.868l3.395,0.072l-3.013,5.87l11.666,0.246l-0.062,2.926
		l-13.148-0.277l-3.052,5.869l-3.433-0.073L51.504,394.257z"/>
	<path d="M30.887,403.85l10.556,3.775l8.003-3.438l9.265,2.571l9.235-3.95l0.093,2.691l-14.619,6.36l15.022,5.34l0.095,2.77
		l-10.592-3.696l-7.542,3.228l-8.832-2.469l-10.08,4.369l-0.101-2.925l14.814-6.367l-15.217-5.334L30.887,403.85z M49.843,413.428
		l-5.079,2.205l5.125,1.425l4.538-2.03L49.843,413.428z M45.04,408.907l4.782,1.671l4.811-2.04l-5.086-1.426L45.04,408.907z"/>
	<path d="M34.056,448.282l-0.427-2.896l36.668-5.445l0.433,2.934l-0.579,0.086l-11.792,7.497l13.533,4.04l0.54-0.08l0.433,2.934
		l-36.68,5.369l-0.427-2.896l30.801-4.581l-13.317-3.913l11.622-7.591L34.056,448.282z"/>
	<path d="M66.131,478.053l4.189-15.809l-32.948,6.8l-0.592-2.866l36.312-7.495l0.592,2.867l-0.038,0.008l-4.151,15.801
		L66.131,478.053z"/>
	<path d="M79.575,487.068l-35.819,9.567L43,493.808l35.819-9.567L79.575,487.068z"/>
	<path d="M75.31,516.152l4.67-9.267l-30.132,9.938l-0.917-2.78l30.096-9.925l-9.216-4.645l3.706-1.223l11.089,5.59l-5.589,11.089
		L75.31,516.152z"/>
	<path d="M87.643,559.104l0.053,0.017l13.215,9.54l-22.817,12.107l-1.375-2.583l18.425-9.813l-13.215-9.54l20.61-11.021l1.394,2.617
		L87.643,559.104z"/>
	<path d="M81.347,586.333l-1.521-2.5l31.653-19.299l1.541,2.534l-0.5,0.304l-7.942,11.499l14.039-1.551l0.467-0.283l1.541,2.533
		l-31.694,19.232l-1.521-2.501l26.585-16.216l-13.791,1.582l7.748-11.518L81.347,586.333z"/>
	<path d="M129.916,593.143l1.395,2.024l-30.528,21.034l-1.395-2.024l8.85-13.774l-16.045,3.33l-1.351-1.96l30.506-21.065
		l1.373,1.992l-9.042,13.907l16.216-3.496L129.916,593.143z M110.171,597.363l6.903-10.822l-19.699,13.572L110.171,597.363z
		 M104.625,610.567l19.581-13.538l-12.495,2.638L104.625,610.567z"/>
	<path d="M153.388,622.292l1.613,1.855l-27.977,24.324l-1.613-1.855l7.249-14.68l-15.57,5.108l-1.562-1.796l27.952-24.354
		l1.587,1.825l-7.426,14.834l15.722-5.292L153.388,622.292z M134.241,628.7l5.646-11.528l-18.053,15.696L134.241,628.7z
		 M130.211,642.442l17.938-15.647l-12.12,4.021L130.211,642.442z"/>
	<path d="M139.255,661.185l3.37-10.803l-10.887,3.088l-2.37-2.433l14.322-4.092l3.83-12.232l14.532-3.261l-3.638,14.442
		l-12.328,3.511l-4.463,14.212L139.255,661.185z M147.153,645.97l8.865-2.535l2.205-8.251l-8.306,1.989L147.153,645.97z"/>
	<path d="M161.604,681.759l-2.263-1.854l23.467-28.697l2.294,1.88l-0.371,0.452l-3.682,13.48l12.731-6.115l0.346-0.422l2.294,1.88
		l-23.528,28.647l-2.264-1.854l19.708-24.11l-12.486,6.063l3.492-13.435L161.604,681.759z"/>
	<path d="M205.752,669.221l-21.831,29.963l-2.366-1.724l21.831-29.963L205.752,669.221z"/>
	<path d="M216.47,676.694l3.222,10.482l-3.414,14.652l-8.586,13.313l-2.131-1.375l8.333-12.92l3.192-13.588l-2.777-8.941
		l-0.394-0.254l-18.716,29.021l-2.492-1.607l20.091-31.151L216.47,676.694z"/>
	<path d="M222.165,702.059l0.053-0.015l16.272,0.969l-12.772,22.456l-2.546-1.443l10.294-18.164l-16.272-0.968l11.492-20.356
		l2.58,1.463L222.165,702.059z"/>
	<path d="M260.922,701.637l-16.41,33.239l-2.169-1.07l4.542-9.202l-0.83-12.333l-10.541,6.719l-4.578,9.185l-2.169-1.07
		l16.409-33.239l2.169,1.071l0.642,13.066l10.729-7.453L260.922,701.637z M245.709,709.357l-0.522-10.049l-7.79,15.78
		L245.709,709.357z M248.82,720.685l7.773-15.745l-8.26,5.714L248.82,720.685z"/>
	<path d="M260.781,741.902l-1.072-11.268l-8.846,7.06l-3.126-1.326l11.626-9.314l-1.2-12.763l12.141-8.631l2.232,14.728
		l-10.011,8.007l1.382,14.834L260.781,741.902z M262.179,724.813l7.195-5.767l-1.159-8.463l-6.891,5.048L262.179,724.813z"/>
	<path d="M293.866,714.691l2.315,0.828l-12.496,34.906l-2.315-0.828l-0.862-16.351l-11.08,12.075l-2.241-0.802l12.458-34.92
		l2.278,0.815l0.783,16.571l11.122-12.31L293.866,714.691z M280.303,729.65l-0.717-12.817l-8.063,22.523L280.303,729.65z
		 M283.514,743.608l7.987-22.427l-8.602,9.439L283.514,743.608z"/>
	<path d="M329.424,737.518l-5.47-8.815l-7.232,30.89l-2.85-0.667l7.223-30.852l-8.768,5.441l0.889-3.8l10.55-6.547l6.547,10.55
		L329.424,737.518z"/>
	<path d="M330.208,762.485l-2.883-0.503l6.325-36.521l2.921,0.509l-0.1,0.577l3.421,13.547l8.078-11.583l0.094-0.538l2.921,0.51
		l-6.402,36.508l-2.883-0.502l5.307-30.68l-7.891,11.417l-3.563-13.413L330.208,762.485z"/>
	<path d="M369.714,730.708l-4.276,36.819l-2.403-0.279l1.184-10.193l-4.929-11.335l-7.667,9.872L350.4,765.78l-2.403-0.279
		l4.276-36.819l2.403,0.279l4.999,12.09l7.597-10.627L369.714,730.708z M357.984,743.094l-3.871-9.288l-2.03,17.479L357.984,743.094
		z M364.723,752.714l2.025-17.44l-5.857,8.157L364.723,752.714z"/>
	<path d="M371.129,730.838l14.036,10.598l0.572-9.739l2.921,0.172l-0.916,15.582l-14.036-10.597l-1.488,25.321l15.181-8.881
		l-0.916,15.582l-2.921-0.172l0.572-9.738l-15.181,8.88L371.129,730.838z"/>
	<path d="M404.23,769.104l-5.225-10.036l-5.543,9.863l-3.395-0.055l7.272-12.996l-5.906-11.373l8.007-12.556l7.6,12.806
		l-6.267,11.178l6.852,13.223L404.23,769.104z M399.107,752.748l4.5-8.046l-4.252-7.405l-4.487,7.266L399.107,752.748z"/>
	<path d="M411.847,731.795l14.204,12.927l-8.563,4.361l10.773,18.97l-2.923,0.155l-11.799-19.894l7.588-4.31l-9.19-8.268
		l1.749,33.086l-2.962,0.157l-1.957-37.022l1.832-0.097l1.13-0.061L411.847,731.795z"/>
	<path d="M456.164,727.225l6.088,36.573l-2.888,0.48l-6.088-36.573L456.164,727.225z"/>
	<path d="M478.893,739.576l4.519,19.987l-2.855,0.646l-4.836-21.396l-6.441-1.585l-0.749-3.313l6.424,1.51l-2.573-11.384
		l2.855-0.646l2.9,12.83l6.433,1.548l0.757,3.35L478.893,739.576z"/>
	<path d="M506.545,753.443l-12.964-9.796l3.588,12.489l-2.813,0.808l-10.234-35.631l2.813-0.808l5.516,19.203l17.695,12.7
		L506.545,753.443z"/>
	<path d="M511.043,712.946l12.263,34.979l-2.761,0.968l-12.264-34.979L511.043,712.946z"/>
	<path d="M533.184,704.218l2.27-0.945l14.265,34.225l-2.27,0.945l-11.647-11.51l-0.062,16.39l-2.197,0.916l-14.3-34.21l2.233-0.931
		l11.737,11.726l-0.065-16.59L533.184,704.218z M533.228,724.411l-9.16-8.994l9.203,22.084L533.228,724.411z M545,732.57
		l-9.194-21.961l-0.005,12.771L545,732.57z"/>
	<path d="M545.92,698.265l16.192,33.341l-2.633,1.277l-16.191-33.34L545.92,698.265z"/>
	<path d="M566.924,687.063l2.146-1.198l18.076,32.369L585,719.433l-12.884-10.104l1.81,16.288l-2.078,1.16l-18.11-32.35l2.112-1.18
		l12.998,10.308l-1.958-16.473L566.924,687.063z M569.272,707.118l-10.127-7.889l11.664,20.887L569.272,707.118z M581.898,713.879
		l-11.641-20.766l1.453,12.688L581.898,713.879z"/>
	<path d="M573.951,682.828l10.869,1.459l11.88,9.231l8.499,13.369l-2.14,1.361l-8.249-12.975l-11.006-8.584l-9.283-1.22
		l-0.396,0.252l18.528,29.142l-2.503,1.591l-19.889-31.282L573.951,682.828z"/>
	<path d="M604.62,682.19l11.96,16.631l-2.376,1.708l-12.803-17.803l-6.547,1.056l-1.981-2.756l6.501-1.119l-6.812-9.471l2.375-1.709
		l7.678,10.675l6.523-1.087l2.005,2.788L604.62,682.19z"/>
	<path d="M623.226,662.728l-10.315-1.09l19.948,24.662l-2.275,1.84l-19.923-24.632l-1.085,10.261l-2.453-3.033l1.305-12.346
		l12.346,1.305L623.226,662.728z"/>
	<path d="M633.06,636.418l10.921-1.014l13.649,6.336l11.281,11.126l-1.781,1.806l-10.948-10.797l-12.652-5.901l-9.321,0.893
		l-0.329,0.333l24.591,24.254l-2.083,2.111L629.99,639.53L633.06,636.418z"/>
	<path d="M664.403,621.237l-10.353,0.657l23.806,20.965l-1.934,2.196l-23.777-20.939l0.653,10.298l-2.928-2.578l-0.786-12.391
		l12.391-0.786L664.403,621.237z"/>
	<path d="M686.039,588.974l-14.366,7.818l27.582,19.27l-1.677,2.4l-30.397-21.237l1.677-2.399l0.031,0.022l14.335-7.841
		L686.039,588.974z"/>
	<path d="M696.359,572.378l-13.896,8.624l5.68,3.505l13.938-8.691l2.584,1.686l-13.897,8.624l20.33,12.542l-1.537,2.491
		l-31.558-19.468l1.537-2.491l0.033,0.021l13.863-8.646L696.359,572.378z"/>
	<path d="M702.72,553.544l3.021,1.633l1.227,13.571l10.324-7.284l2.678,1.447l1.969,17.698l-1.392,2.575l-32.615-17.627l1.392-2.575
		L702.72,553.544z M691.897,564.374l12.051,6.513l0.662-0.485l-1.549-13.879L691.897,564.374z M707.272,571.796l0.075,0.928
		l12.016,6.494l-1.661-14.737L707.272,571.796z"/>
	<path d="M736.498,551.798l-11.298,0.651l6.725,9.103l-1.441,3.074l-8.875-11.964l-12.798,0.724l-8.172-12.453l14.8-1.683
		l7.628,10.302l14.873-0.828L736.498,551.798z M719.475,549.765l-5.494-7.405l-8.5,0.843l4.788,7.073L719.475,549.765z"/>
	<path d="M706.075,528.88l17.699-7.454l0.357,9.602l21.74-1.801l-1.089,2.717l-23.008,2.344l-0.721-8.696l-11.364,4.863
		l30.754,12.32l-1.103,2.753l-34.413-13.785l0.682-1.703l0.421-1.05L706.075,528.88z"/>
	<path d="M748.039,523.12l-0.931,2.775l-35.165-11.748l0.943-2.812l0.555,0.186l13.911-1.346l-10.239-9.73l-0.518-0.174l0.942-2.812
		l35.141,11.821l-0.931,2.775l-29.54-9.862l10.103,9.521l-13.8,1.506L748.039,523.12z"/>
	<path d="M759.666,483.171l-0.609,2.862l-36.263-7.688l0.618-2.9l0.572,0.122l13.667-2.912l-11.273-8.507l-0.534-0.113l0.618-2.9
		l36.246,7.765l-0.61,2.862l-30.461-6.452l11.114,8.313l-13.538,3.06L759.666,483.171z"/>
	<path d="M741.909,444.4l-8.368,6.136l31.361,4.826l-0.445,2.893l-31.322-4.819l6.104,8.323l-3.857-0.594l-7.344-10.015
		l10.015-7.344L741.909,444.4z"/>
	<path d="M732,407.617l0.062-2.456l37.017,1.493l-0.107,2.456l-15.347,5.707l14.828,6.964l-0.097,2.378l-37.039-1.454l0.097-2.417
		l15.615-5.698L732,407.656V407.617z M750.248,416.088l-12.014,4.514l23.898,0.964L750.248,416.088z M762.606,408.854l-23.783-0.92
		l11.575,5.387L762.606,408.854z"/>
	<path d="M768.9,389.133l-9.863,5.544l10.035,5.225l0.055,3.394l-13.223-6.852l-11.179,6.268l-12.805-7.6l12.555-8.007l11.374,5.906
		l12.996-7.272L768.9,389.133z M752.717,394.778l-8.186-4.24l-7.266,4.487l7.405,4.252L752.717,394.778z"/>
	<path d="M741.196,366.751l-6.238,15.116l33.554-2.394l0.208,2.919l-36.979,2.638l-0.208-2.919l0.039-0.002l6.198-15.114
		L741.196,366.751z"/>
	<path d="M765.335,347.347l-9.186,6.61l10.558,4.074l0.434,3.368l-13.908-5.335l-10.411,7.477l-13.576-6.126l11.586-9.359
		l11.964,4.602l12.106-8.678L765.335,347.347z M749.878,354.763l-8.608-3.301l-6.721,5.271l7.835,3.4L749.878,354.763z"/>
	<path d="M727.358,344.32l10.94-15.788l5.452,7.913l17.384-13.184l0.539,2.877l-18.163,14.322l-5.273-6.954l-6.982,10.203
		l32.568-6.102l0.546,2.916l-36.442,6.828l-0.338-1.803l-0.209-1.112L727.358,344.32z"/>
	<path d="M759.696,316.968l0.703,2.841l-35.984,8.938l-0.712-2.879l0.568-0.141l11.021-8.595l-13.86-2.724l-0.53,0.131l-0.713-2.879
		l36.003-8.862l0.703,2.841l-30.226,7.514l13.634,2.619l-10.842,8.671L759.696,316.968z"/>
</g>
<circle style="fill:none;stroke:#000000;stroke-width:4;stroke-miterlimit:10;" cx="400" cy="400" r="330.274"/>
<polygon style="fill:none;stroke:#000000;stroke-width:4;stroke-miterlimit:10;" points="245,349 555,349 304.158,531.561 
	400,236.566 495.843,531.573 "/>
<g>
	<path d="M408,207v1h-21v-1.449c0,0,6,0,6-4.449v-99.519c0-4.332-6-4.332-6-4.332V97h15.157L441,118.74V129h-0.909
		c0-3-2.302-9.286-4.409-10.223L402,100.125v30.324l39,21.895V163h-0.909c0-4-2.302-9.543-4.409-10.48L402,133.727v68.375
		c0,4.449,5.895,4.898,5.895,4.898H408z"/>
</g>
<g>
	<path d="M553,579.762V543.7c0-4.448-6-4.448-6-4.448V538h20v1.252c0,0-5,0-5,4.448v39.925l19.002,8.541
		c1.287-0.586,1.089-3.166,1.089-3.166H583v10h-0.909c0-1-0.269-2.77-1.323-3.824L562,586.786v56.433c0,4.449,5,4.332,5,4.332V649
		h-20v-1.449c0,0,6,0.117,6-4.332v-60.414l-19.057-8.581c-1.17,0.234-1.729,1.776-1.729,2.776H531v-10h1.215
		c0,1,0.324,3.102,1.143,4.039L553,579.762z"/>
</g>
<g>
	<path d="M237.109,602.51l-14.05-31.261l19.669-40.276l15.338,33.485l-15.923,32.665l20.565,44.257
		c1.756,1.171,4.291,1.171,4.291,1.171V644h-17v-1.449c0,0,2.687,0,4.443-1.171l-16.277-36.295l-17.089,36.646
		c1.756,1.64,4.923,0.819,4.923,0.819V644h-12.073l0.117-1.485c0,0,2.225,0.136,3.981-0.919L237.109,602.51z M253.383,569.844
		l-12.995-28.802l-12.06,24.938l12.996,28.567L253.383,569.844z"/>
</g>
<g>
	<path d="M174.281,259H180v1.321c0,0-6,0-6,4.449v32.197l-39-28.802v92.611l39-28.685v32.197c0,4.449,6,4.449,6,4.449V370h-20
		v-1.263c0,0,5,0,5-4.449v-23.416l-39,29.27V261.843v-2.927l39,29.271V259h9.164H174.281z"/>
</g>
<g>
	<path d="M676,368.737V370h-20v-1.263c0,0,5.618,0,5.502-4.449l-0.131-55.613L626,327.642V264.77c0-4.449-6-4.332-6-4.332V259h21
		v1.438c0,0-6-0.117-6,4.332v54.208l35-19.084v64.394C670,368.737,676,368.737,676,368.737z"/>
</g>
</svg>
