<?xml version="1.0" encoding="utf-8"?>
<!-- Generator: Adobe Illustrator 15.0.0, SVG Export Plug-In . SVG Version: 6.00 Build 0)  -->
<!DOCTYPE svg PUBLIC "-//W3C//DTD SVG 1.1//EN" "http://www.w3.org/Graphics/SVG/1.1/DTD/svg11.dtd">
<svg version="1.1" id="レイヤー_1" xmlns="http://www.w3.org/2000/svg" xmlns:xlink="http://www.w3.org/1999/xlink" x="0px"
	 y="0px" width="800px" height="800px" viewBox="0 0 800 800" enable-background="new 0 0 800 800" xml:space="preserve">
<g>
	<g>
		<path d="M231.643,66.51l52.97,48.127c1.029-0.417,2.054-0.841,3.089-1.247l-53.185-48.323
			C233.556,65.543,232.599,66.026,231.643,66.51z M192.691,89.271l15.265,70.264c0.871-0.696,1.738-1.398,2.617-2.085l-15.199-69.96
			C194.477,88.079,193.584,88.675,192.691,89.271z M353.932,95.685c1.096-0.165,2.198-0.309,3.297-0.461l21.803-68.141
			c-1.07,0.059-2.141,0.117-3.209,0.185L353.932,95.685z M87.49,195.375l69.96,15.199c0.687-0.879,1.389-1.746,2.085-2.617
			l-70.264-15.265C88.675,193.584,88.079,194.477,87.49,195.375z M114.637,284.613l-48.127-52.97
			c-0.483,0.956-0.966,1.913-1.442,2.874l48.322,53.186C113.796,286.667,114.22,285.643,114.637,284.613z M420.967,27.083
			l21.803,68.141c1.1,0.153,2.201,0.297,3.297,0.461l-21.891-68.417C423.108,27.2,422.037,27.142,420.967,27.083z M704.776,357.229
			l68.141,21.803c-0.059-1.071-0.117-2.141-0.185-3.209l-68.418-21.891C704.479,355.028,704.623,356.13,704.776,357.229z
			 M686.61,287.702l48.322-53.186c-0.476-0.961-0.959-1.917-1.442-2.874l-48.127,52.97
			C685.78,285.643,686.204,286.667,686.61,287.702z M512.297,113.39c1.035,0.406,2.061,0.83,3.09,1.247l52.97-48.127
			c-0.956-0.484-1.913-0.967-2.874-1.442L512.297,113.39z M589.427,157.45c0.879,0.687,1.745,1.389,2.616,2.085l15.266-70.264
			c-0.893-0.597-1.785-1.192-2.684-1.781L589.427,157.45z M95.685,353.933l-68.417,21.891c-0.068,1.068-0.126,2.139-0.186,3.209
			l68.141-21.803C95.376,356.13,95.521,355.028,95.685,353.933z M712.51,195.375c-0.589-0.898-1.185-1.791-1.781-2.683
			l-70.264,15.265c0.696,0.871,1.398,1.738,2.085,2.617L712.51,195.375z M589.427,642.55l15.198,69.96
			c0.898-0.589,1.791-1.185,2.684-1.781l-15.265-70.264C591.173,641.161,590.306,641.862,589.427,642.55z M512.297,686.61
			l53.186,48.322c0.961-0.476,1.918-0.959,2.874-1.442l-52.97-48.127C514.357,685.78,513.332,686.204,512.297,686.61z
			 M640.465,592.043l70.264,15.265c0.597-0.892,1.192-1.785,1.781-2.683l-69.959-15.199
			C641.863,590.305,641.162,591.172,640.465,592.043z M685.363,515.387l48.127,52.97c0.483-0.956,0.967-1.913,1.442-2.874
			l-48.322-53.186C686.204,513.332,685.78,514.357,685.363,515.387z M704.314,446.067l68.418-21.892
			c0.067-1.067,0.126-2.139,0.185-3.209l-68.141,21.803C704.623,443.869,704.479,444.972,704.314,446.067z M420.967,772.917
			c1.07-0.059,2.142-0.117,3.209-0.186l21.891-68.416c-1.096,0.164-2.197,0.308-3.297,0.461L420.967,772.917z M192.691,710.729
			c0.893,0.597,1.785,1.192,2.683,1.781l15.199-69.96c-0.879-0.688-1.746-1.389-2.617-2.085L192.691,710.729z M113.39,512.297
			l-48.322,53.186c0.476,0.961,0.958,1.918,1.442,2.874l48.126-52.97C114.22,514.357,113.795,513.332,113.39,512.297z
			 M87.49,604.625c0.589,0.897,1.185,1.791,1.781,2.683l70.264-15.265c-0.697-0.871-1.398-1.738-2.085-2.617L87.49,604.625z
			 M95.224,442.77l-68.141-21.803c0.06,1.07,0.117,2.142,0.186,3.209l68.417,21.892C95.521,444.972,95.376,443.869,95.224,442.77z
			 M353.932,704.314l21.891,68.417c1.068,0.068,2.139,0.127,3.209,0.186l-21.803-68.141
			C356.13,704.623,355.028,704.479,353.932,704.314z M231.643,733.49c0.956,0.483,1.913,0.967,2.874,1.442l53.185-48.322
			c-1.035-0.406-2.06-0.83-3.089-1.247L231.643,733.49z"/>
	</g>
</g>
<circle fill="none" stroke="#000000" stroke-width="3" stroke-miterlimit="10" cx="400" cy="400" r="381.722"/>
<circle fill="none" stroke="#000000" stroke-width="3" stroke-miterlimit="10" cx="400" cy="400" r="373.503"/>
<circle fill="none" stroke="#000000" stroke-width="3" stroke-miterlimit="10" cx="400" cy="400" r="307.749"/>
<circle fill="none" stroke="#000000" stroke-width="3" stroke-miterlimit="10" cx="400" cy="400" r="279.341"/>
<circle fill="none" stroke="#000000" stroke-width="3" stroke-miterlimit="10" cx="339.192" cy="313.109" r="172.362"/>
<circle fill="none" stroke="#000000" stroke-width="3" stroke-miterlimit="10" cx="505.192" cy="400.109" r="172.362"/>
<circle fill="none" stroke="#000000" stroke-width="3" stroke-miterlimit="10" cx="355.192" cy="495.109" r="172.362"/>
<circle fill="none" stroke="#000000" stroke-width="5" stroke-miterlimit="10" cx="249.192" cy="548.109" r="53.183"/>
<polygon fill="none" stroke="#000000" stroke-width="2" stroke-miterlimit="10" points="203.692,576 249.192,497.191 294.692,576 
	"/>
<polygon fill="none" stroke="#000000" stroke-width="2" stroke-miterlimit="10" points="203.692,523 249.192,601.809 294.692,523 
	"/>
<g id="レイヤー_3">
	<g>
		<path d="M604.56,171.459l0.26-0.278l2.136,2l-0.281,0.258c0,0-0.513-0.48-1.009-0.464l-7.582,8.096l-4.695,9.596l0.308,6.823
			l17.323-18.5c0.761-0.813-0.307-1.771-0.307-1.771l0.26-0.278l3.717,3.481l-0.26,0.277c0,0-1.088-0.979-1.809-0.209
			l-16.982,18.178c-0.76,0.812,0.31,1.812,0.31,1.812l-0.24,0.256l-2.671-2.5l-0.397-7.71l4.853-9.891l7.662-8.182
			C605.05,171.919,604.56,171.459,604.56,171.459z"/>
		<path d="M580.221,186.729l-0.778-9.28l0.943-1.118l0.651,7.754l15.358-18.174c0.718-0.849-0.424-1.813-0.424-1.813l0.228-0.269
			l3.935,3.325l-0.227,0.269c0,0-1.118-0.945-1.836-0.095l-15.264,18.062l8.109-1.117l-0.944,1.118L580.221,186.729z"/>
		<path d="M575.022,147.753l4.226,2.895l-0.198,0.29c0,0-1.207-0.827-1.836,0.09l-14.06,20.519c-0.628,0.917,0.596,1.72,0.596,1.72
			l-0.199,0.29l-3.018-2.067l-5.041-10.088l1.239-1.811l0.289,0.199c-0.513,0.748-0.728,1.736-0.321,2.439l4.331,8.537
			l14.373-20.978c0.629-0.917-0.578-1.744-0.578-1.744L575.022,147.753z"/>
		<path d="M561.71,139.414l0.184-0.299l4.392,2.691l-0.183,0.299c0,0-1.248-0.765-1.829,0.184l-12.996,21.206
			c-0.565,0.923,0.682,1.688,0.682,1.688l-0.183,0.299l-3.145-1.927l-5.522-9.802l1.33-2.17l0.299,0.183
			c-0.428,0.699-0.733,2.262-0.407,2.736l4.729,8.355l3.96-6.462l-5.523-9.802l1.346-2.195l0.3,0.183
			c-0.412,0.674-0.725,2.302-0.397,2.776l4.755,8.37l8.929-14.569c0.582-0.948-0.69-1.729-0.69-1.729L561.71,139.414z"/>
		<path d="M552.896,133.606l-0.168,0.308c0,0-1.285-0.699-1.817,0.278l-11.895,21.854c-0.518,0.952,0.755,1.677,0.755,1.677
			l-0.168,0.309l-3.215-1.749l-6.1-9.551l0.406-0.746l12.34-1.916l-6.1-9.551l0.405-0.746l12.341-1.916L552.896,133.606z
			 M542.656,144.764l-11.578,1.864l5.701,8.935L542.656,144.764z M549.331,132.5l-11.618,1.875l5.713,8.975L549.331,132.5z"/>
		<path d="M529.034,132.827l-0.215,8.564l-8.789,6.948l0.166-9.205l7.121-5.638l0.196-12.176c-0.27-0.454-0.797-0.707-0.797-0.707
			l0.164-0.343l3.642,1.748l-0.164,0.343c0,0-0.555-0.266-1.076-0.192l-0.232,9.952l7.868-6.383
			c-0.219-0.561-0.967-0.691-0.967-0.691l0.165-0.343l2.638,1.266l-0.19,0.331c0,0-0.488-0.267-0.998-0.22L529.034,132.827z
			 M521.834,138.427l-0.188,7.896l5.416-4.315l0.161-7.843L521.834,138.427z"/>
		<path d="M511.945,114.326l0.135-0.324l1,0.418l1.688,17.744l-9.566,2.695l5.91,8.023l9.856-23.578
			c0.429-1.026-0.922-1.591-0.922-1.591l0.136-0.324l1.352,0.565l2.025,0.847l1.351,0.564l-0.136,0.324c0,0-1.297-0.542-1.758,0.408
			l-9.693,23.265c-0.139,0.862,0.995,1.336,0.995,1.336l-0.136,0.324l-1.322-0.553l-1.999-0.835l-0.093-0.007l-6.832-9.234
			l10.058-2.807l-1.426-16.397C512.42,114.556,512.188,114.428,511.945,114.326z"/>
		<path d="M491.376,136.048l-3.443-1.236l0.119-0.331c0,0,1.156,0.416,1.637-0.314l8.521-23.649
			c0.376-1.046-1.002-1.541-1.002-1.541l0.119-0.331l4.819,1.73l-0.118,0.331c0,0-1.378-0.494-1.753,0.552l-8.104,22.742
			l6.143-7.496l-0.01,9.728l8.167-22.75c0.376-1.046-1.002-1.541-1.002-1.541l0.119-0.331l4.819,1.73l-0.118,0.331
			c0,0-1.377-0.494-1.753,0.552l-8.466,23.668c-0.095,0.868,1.063,1.283,1.063,1.283l-0.118,0.331l-3.442-1.236l0.108-0.303
			l0.14-10.086l-6.347,7.889L491.376,136.048z"/>
		<path d="M464.299,128.203l-3.552-0.879l0.085-0.341c0,0,1.193,0.295,1.596-0.479l6.071-24.398c0.268-1.08-1.153-1.432-1.153-1.432
			l0.084-0.341l4.974,1.231l-0.085,0.341c0,0-1.421-0.353-1.688,0.728l-5.747,23.454l5.35-8.084l0.979,9.681l5.812-23.468
			c0.268-1.08-1.153-1.431-1.153-1.431l0.084-0.341l4.973,1.231l-0.085,0.341c0,0-1.42-0.352-1.688,0.728l-6.015,24.413
			c-0.006,0.874,1.188,1.169,1.188,1.169l-0.084,0.341l-3.552-0.879l0.076-0.313l-0.889-10.05l-5.511,8.496L464.299,128.203z"/>
		<path d="M453.546,125.908l-5.215-7.714l0.277-1.437l4.356,6.446l4.517-23.359c0.211-1.092-1.254-1.375-1.254-1.375l0.065-0.345
			l5.057,0.978l-0.065,0.345c0,0-1.438-0.277-1.647,0.813l-4.487,23.216l6.527-4.938l-0.276,1.437L453.546,125.908z"/>
		<path d="M422.374,121.645l-3.672-0.333l0.031-0.35c0,0,1.485,0.135,1.587-0.973l2.243-24.772c0.101-1.107-1.387-1.242-1.387-1.242
			l0.032-0.35l3.672,0.333l2.144,12.682l4.386-12.091l3.672,0.333l-0.031,0.35c0,0-1.457-0.132-1.558,0.975l-2.244,24.773
			c-0.098,1.078,1.357,1.239,1.357,1.239l-0.032,0.35l-3.672-0.333l-2.13-12.828L422.374,121.645z M424.649,96.522l-2.004,22.12
			l3.875-10.667L424.649,96.522z M427.25,108.041l1.924,11.193l1.993-22.004L427.25,108.041z"/>
		<path d="M412.851,103.646l3.201,7.949l-5.313,9.867l-3.5-8.518l4.302-8.003l-4.651-11.258c-0.428-0.31-1.013-0.333-1.013-0.333
			l0.017-0.38l4.035,0.16l-0.015,0.38c0,0-0.614-0.024-1.065,0.251l3.736,9.23l4.692-8.984c-0.423-0.427-1.162-0.251-1.162-0.251
			l0.015-0.38l2.925,0.116l-0.044,0.379c0,0-0.555-0.051-1.004,0.194L412.851,103.646z M408.461,111.645l2.962,7.325l3.26-6.111
			l-2.964-7.266L408.461,111.645z"/>
		<path d="M398.582,92.998l5.122-0.083l0.006,0.351c0,0-1.464,0.024-1.445,1.136l0.401,24.876c0.019,1.112,1.481,1.059,1.481,1.059
			l0.006,0.352l-3.659,0.059l-9.951-5.313l-0.036-2.195l0.353-0.006c0.015,0.907,0.409,1.837,1.146,2.177l8.474,4.459l-0.41-25.433
			c-0.019-1.112-1.481-1.088-1.481-1.088L398.582,92.998z"/>
		<path d="M382.551,103.877l3.983,7.587l-4.295,10.352l-4.339-8.123l3.476-8.396l-5.759-10.735
			c-0.456-0.265-1.041-0.229-1.041-0.229l-0.023-0.38l4.032-0.247l0.023,0.38c0,0-0.614,0.038-1.034,0.356l4.644,8.809l3.767-9.41
			c-0.464-0.382-1.183-0.133-1.183-0.133l-0.022-0.38l2.922-0.179l-0.006,0.382c0,0-0.558,0.005-0.979,0.294L382.551,103.877z
			 M378.987,112.278l3.683,6.99l2.629-6.408l-3.679-6.932L378.987,112.278z"/>
		<path d="M358.64,96.021l-0.04-0.349l1.076-0.121l10.102,14.681l-7.048,7.005l9.064,4.136l-2.851-25.39
			c-0.124-1.105-1.578-0.942-1.578-0.942l-0.039-0.349l1.454-0.164l2.181-0.245l1.454-0.164l0.04,0.349c0,0-1.396,0.157-1.337,1.21
			l2.841,25.037c0.298,0.821,1.521,0.684,1.521,0.684l0.039,0.349l-1.425,0.16l-2.151,0.242l-0.084,0.039l-10.457-4.746l7.421-7.341
			l-9.218-13.631C359.166,95.992,358.901,95.992,358.64,96.021z"/>
		<path d="M351.211,125.014l-3.61,0.593l-0.057-0.346c0,0,1.213-0.2,1.278-1.07l-4.047-24.817c-0.182-1.098-1.625-0.86-1.625-0.86
			l-0.058-0.347l5.055-0.831l0.058,0.347c0,0-1.444,0.237-1.264,1.335l3.973,23.82l1.726-9.539l4.721,8.509l-3.919-23.859
			c-0.182-1.098-1.625-0.86-1.625-0.86l-0.058-0.347l5.055-0.83l0.058,0.346c0,0-1.444,0.237-1.265,1.335l4.105,24.808
			c0.34,0.804,1.553,0.605,1.553,0.605l0.058,0.347l-3.611,0.593l-0.052-0.318l-4.782-8.885l-1.712,9.981L351.211,125.014z"/>
		<path d="M323.751,131.328l-3.559,0.965l-0.101-0.367c0,0,1.103-0.299,1.249-1.097l-6.631-24.339
			c-0.291-1.073-1.704-0.69-1.704-0.69l-0.092-0.339l4.942-1.34l0.093,0.339c0,0-1.384,0.375-1.093,1.449l1.503,5.656l5.581,7.947
			l0.773-9.67l-1.532-5.649c-0.291-1.073-1.702-0.69-1.702-0.69l-0.093-0.339l4.943-1.34l0.092,0.339c0,0-1.384,0.375-1.093,1.449
			l6.572,24.233c0.561,0.728,1.605,0.443,1.605,0.443l0.1,0.367l-3.529,0.958l-5.63-8.236L323.751,131.328z M323.153,129.125
			l0.685-8.433l-4.903-7.009L323.153,129.125z M324.6,120.485l4.896,6.98l-4.213-15.534L324.6,120.485z"/>
		<path d="M306.417,107.899l-0.109-0.333l4.896-1.604l0.109,0.334c0,0-1.392,0.456-1.045,1.512l7.743,23.645
			c0.337,1.029,1.729,0.574,1.729,0.574l0.108,0.333l-3.505,1.148l-11.05-2.141l-0.792-2.42l0.333-0.109
			c0.255,0.779,1.249,2.024,1.822,2.083l9.432,1.809l-2.359-7.205l-11.05-2.141l-0.802-2.448l0.333-0.109
			c0.246,0.751,1.285,2.043,1.859,2.102l9.459,1.799l-5.32-16.245c-0.346-1.057-1.765-0.592-1.765-0.592L306.417,107.899z"/>
		<path d="M294.034,140.866l0.224-7.396l-4.276-4.909l-0.545-6.786l-4.988-5.7c-0.467-0.071-0.996,0.102-0.996,0.102l-0.126-0.328
			l4.097-1.579l0.126,0.328c0,0-0.672,0.291-0.935,0.831l7.947,9.14l0.384-12.352c-0.558-0.224-1.25,0.012-1.25,0.012l-0.126-0.328
			l2.73-1.053l0.126,0.328c0,0-0.509,0.229-0.824,0.631l-0.237,7.276l4.598,5.255l0.579,7.118l4.394,5.051
			c0.558,0.225,1.24-0.039,1.24-0.039l0.126,0.328l-4.097,1.579l-0.126-0.328c0,0,0.683-0.263,0.944-0.804l-7.941-9.048
			l-0.388,12.259c0.557,0.225,1.239-0.039,1.239-0.039l0.126,0.328l-2.73,1.053l-0.126-0.328
			C293.2,141.47,293.719,141.27,294.034,140.866z M294.356,130.797l0.106-3.304l-4.293-4.87l0.284,3.749L294.356,130.797z
			 M295.176,125.273l4.63,5.337l-0.308-4.054l-4.207-4.81L295.176,125.273z"/>
		<path d="M283.373,134.737l3.67,8.233c0.453,1.017,1.79,0.42,1.79,0.42l0.143,0.321l-4.679,2.085l-0.143-0.321
			c0,0,1.337-0.596,0.884-1.612l-4.064-9.116l-5.254,0.002c-0.233,0.265,0.028,0.853,0.028,0.853l-0.321,0.143l-1.049-2.353
			l0.321-0.143c0.179,0.401,0.405,0.621,0.753,0.754l5.201,0.021l-5.744-12.885c-0.453-1.016-1.777-0.394-1.777-0.394l-0.154-0.347
			l4.679-2.085l0.155,0.347c0,0-1.35,0.569-0.896,1.585l6.148,13.794l5.189-0.005c0.244-0.173,0.243-0.461,0.076-0.835l0.321-0.143
			l1.036,2.326l-0.32,0.143c-0.131-0.294-0.364-0.671-0.646-0.801L283.373,134.737z"/>
		<path d="M262.9,125.637l-0.159-0.313l4.592-2.336l0.159,0.313c0,0-1.306,0.664-0.8,1.655l11.283,22.179
			c0.491,0.965,1.797,0.302,1.797,0.302l0.159,0.313l-3.288,1.672l-11.25-0.418l-1.154-2.27l0.313-0.16
			c0.372,0.731,1.544,1.809,2.121,1.779l9.6,0.339l-3.438-6.758l-11.25-0.419l-1.168-2.296l0.313-0.16
			c0.357,0.705,1.584,1.822,2.159,1.792l9.625,0.325l-7.752-15.238c-0.504-0.992-1.835-0.314-1.835-0.314L262.9,125.637z"/>
		<path d="M235.938,140.889l-0.19-0.295l4.332-2.788l0.19,0.295c0,0-1.231,0.792-0.629,1.727l13.463,20.92
			c0.586,0.911,1.816,0.119,1.816,0.119l0.19,0.295l-3.102,1.996l-11.231,0.719l-1.378-2.141l0.295-0.19
			c0.443,0.689,1.719,1.644,2.289,1.555l9.582-0.632l-4.102-6.375l-11.231,0.719l-1.394-2.166l0.295-0.19
			c0.428,0.665,1.759,1.652,2.329,1.564l9.607-0.648L237.82,141c-0.602-0.935-1.857-0.127-1.857-0.127L235.938,140.889z"/>
		<path d="M222.756,149.31l4.16-2.988l0.205,0.286c0,0-1.189,0.854-0.54,1.757l14.513,20.208c0.649,0.903,1.821,0.026,1.821,0.026
			l0.205,0.285l-2.972,2.134l-11.205,1.309l-1.28-1.783l0.285-0.205c0.529,0.737,1.385,1.275,2.184,1.134l9.503-1.168
			l-14.838-20.659c-0.648-0.903-1.837-0.05-1.837-0.05L222.756,149.31z"/>
		<path d="M224.307,181.102l-15.525-19.442c-0.694-0.869-1.837,0.044-1.837,0.044l-0.219-0.274l4.002-3.196l0.219,0.274
			c0,0-1.145,0.913-0.449,1.782l15.525,19.442c0.694,0.869,1.838-0.044,1.838-0.044l0.219,0.274l-4.002,3.197l-0.219-0.275
			C223.857,182.884,225.001,181.971,224.307,181.102z"/>
		<path d="M211.005,194.394l-1.096,0.97l-0.233-0.263c0,0,1.096-0.97,0.359-1.802l-16.541-18.732l0.056,0.107
			c-0.737-0.833-1.833,0.137-1.833,0.137l-0.233-0.263l1.139-1.009l1.622-1.435l1.096-0.97l0.233,0.263c0,0-0.942,0.834-0.533,1.605
			l8.475,9.575l12.659-0.576l-3.505,10.918l-1.38,1.222L211.005,194.394z M212.107,192.284l3.043-9.454l-10.994,0.47
			L212.107,192.284z"/>
		<path d="M180.509,185.767l-0.266-0.272l2.09-2.049l0.246,0.292c0,0-0.502,0.492-0.507,0.988l7.767,7.923l9.389,5.103l6.832-0.015
			l-17.747-18.104c-0.779-0.794-1.783,0.231-1.783,0.231l-0.266-0.272l3.637-3.566l0.267,0.272c0,0-1.025,1.045-0.287,1.798
			l17.439,17.748c0.779,0.794,1.824-0.229,1.824-0.229l0.246,0.25l-2.613,2.562l-7.722,0.068l-9.677-5.271l-7.849-8.006
			C180.99,185.295,180.509,185.767,180.509,185.767z"/>
		<path d="M175.806,190.793l-0.258-0.238l3.491-3.79l0.258,0.238c0,0-0.992,1.077-0.174,1.83l18.301,16.861
			c0.797,0.734,1.789-0.343,1.789-0.343l0.258,0.238l-2.5,2.713l-10.691,3.525l-1.874-1.726l0.238-0.259
			c0.603,0.556,2.078,1.158,2.607,0.929l9.117-3.025l-5.577-5.138l-10.691,3.525l-1.895-1.746l0.238-0.259
			c0.582,0.536,2.119,1.157,2.648,0.928l9.136-3.047l-12.574-11.584c-0.818-0.754-1.83,0.344-1.83,0.344L175.806,190.793z"/>
		<path d="M141.76,234.454l-0.315-0.213l1.636-2.428l0.299,0.237c0,0-0.393,0.583-0.298,1.07l9.201,6.2l10.223,3.111l6.689-1.388
			l-21.024-14.166c-0.922-0.622-1.7,0.584-1.7,0.584l-0.314-0.213l2.846-4.224l0.315,0.213c0,0-0.793,1.229,0.081,1.819
			l20.651,13.879c0.923,0.622,1.741-0.592,1.741-0.592l0.291,0.196l-2.044,3.035l-7.551,1.619l-10.539-3.218l-9.298-6.265
			C142.136,233.896,141.76,234.454,141.76,234.454z"/>
		<path d="M160.707,256.041l-9.04,2.242l-1.254-0.755l7.553-1.874l-20.382-12.281c-0.953-0.574-1.723,0.705-1.723,0.705
			l-0.301-0.181l2.659-4.413l0.301,0.181c0,0-0.755,1.254,0.197,1.828l20.257,12.206l-2.39-7.831l1.253,0.755L160.707,256.041z"/>
		<path d="M145.996,283.846l-1.561,3.31l-0.317-0.15c0,0,0.524-1.112-0.156-1.659l-22.729-10.748
			c-1.006-0.475-1.63,0.849-1.63,0.849l-0.317-0.149l2.184-4.633l0.318,0.15c0,0-0.625,1.324,0.382,1.798l21.866,10.245
			l-6.874-6.833l9.684,0.942l-21.868-10.31c-1.006-0.474-1.63,0.85-1.63,0.85l-0.318-0.15l2.185-4.633l0.317,0.149
			c0,0-0.624,1.324,0.382,1.798l22.753,10.695c0.855,0.176,1.379-0.936,1.379-0.936l0.318,0.15l-1.562,3.309l-0.291-0.137
			l-10.029-1.104l7.247,7.073L145.996,283.846z"/>
		<path d="M132.351,288.957l8.342,3.421c1.029,0.422,1.584-0.932,1.584-0.932l0.325,0.133l-1.944,4.74l-0.325-0.133
			c0,0,0.555-1.354-0.474-1.776l-9.235-3.788l-3.799,3.631c0.013,0.354,0.609,0.598,0.609,0.598l-0.133,0.325l-2.384-0.978
			l0.133-0.325c0.406,0.167,0.722,0.169,1.065,0.025l3.777-3.577l-13.055-5.354c-1.029-0.422-1.558,0.943-1.558,0.943l-0.352-0.144
			l1.944-4.74l0.352,0.144c0,0-0.583,1.343,0.447,1.766l13.976,5.732l3.75-3.588c0.057-0.293-0.142-0.501-0.521-0.657l0.133-0.325
			l2.356,0.966l-0.133,0.325c-0.298-0.123-0.727-0.235-1.021-0.134L132.351,288.957z"/>
		<path d="M134.809,307.815l-23.476-8.249c-1.049-0.369-1.535,1.012-1.535,1.012l-0.332-0.117l1.698-4.833l0.332,0.117
			c0,0-0.485,1.381,0.564,1.75l23.476,8.249c1.049,0.369,1.535-1.012,1.535-1.012l0.332,0.116l-1.698,4.833l-0.332-0.117
			C135.373,309.564,135.858,308.184,134.809,307.815z"/>
		<path d="M131.257,324.007l-1.042,3.538l-0.365-0.107c0,0,0.323-1.095-0.28-1.639l-24.21-7.101c-1.067-0.314-1.48,1.09-1.48,1.09
			l-0.337-0.1l1.448-4.913l0.337,0.099c0,0-0.405,1.376,0.662,1.69l5.607,1.682l9.694-0.592l-7.833-5.725l-5.615-1.654
			c-1.067-0.314-1.48,1.09-1.48,1.09l-0.337-0.101l1.447-4.913l0.337,0.099c0,0-0.405,1.376,0.662,1.69l24.089,7.096
			c0.914-0.097,1.219-1.136,1.219-1.136l0.365,0.108l-1.034,3.509l-9.967,0.481L131.257,324.007z M129.067,323.362l-6.827-5.001
			l-8.54,0.505L129.067,323.362z M122.464,317.603l8.512-0.513l-15.442-4.549L122.464,317.603z"/>
		<path d="M98.937,341.466l-0.346-0.064l0.945-5.065l0.346,0.064c0,0-0.269,1.439,0.825,1.643l24.461,4.565
			c1.065,0.199,1.333-1.24,1.333-1.24l0.345,0.064l-0.677,3.626l-7.186,8.665l-2.504-0.467l0.064-0.345
			c0.806,0.15,2.375-0.123,2.703-0.598l6.117-7.405l-7.454-1.391l-7.186,8.665l-2.533-0.473l0.064-0.345
			c0.777,0.145,2.41-0.146,2.737-0.621l6.123-7.434l-16.807-3.137c-1.093-0.204-1.367,1.263-1.367,1.263L98.937,341.466z"/>
		<path d="M122.858,365.629l-0.49,3.655l-0.348-0.047c0,0,0.199-1.479-0.904-1.627l-24.656-3.309
			c-1.102-0.148-1.301,1.332-1.301,1.332l-0.348-0.047l0.49-3.655l12.764-1.595l-11.893-4.902l0.491-3.655l0.348,0.047
			c0,0-0.194,1.45,0.908,1.598l24.656,3.307c1.073,0.144,1.297-1.302,1.297-1.302l0.348,0.046l-0.49,3.655l-12.909,1.576
			L122.858,365.629z M97.854,362.275l22.017,2.953l-10.493-4.331L97.854,362.275z M109.475,360.172l11.267-1.441l-21.9-2.938
			L109.475,360.172z"/>
		<path d="M120.867,393.747l-0.121,3.686l-0.38-0.013c0,0,0.038-1.141-0.682-1.516l-25.215-0.8c-1.112-0.036-1.16,1.427-1.16,1.427
			l-0.351-0.013l0.168-5.118l0.351,0.011c0,0-0.047,1.434,1.064,1.47l5.849,0.222l9.235-3.006l-9.019-3.576l-5.85-0.191
			c-1.111-0.037-1.16,1.426-1.16,1.426l-0.351-0.011l0.168-5.119l0.351,0.012c0,0-0.047,1.434,1.064,1.471l25.097,0.824
			c0.86-0.322,0.896-1.404,0.896-1.404l0.38,0.012l-0.12,3.657l-9.527,2.966L120.867,393.747z M118.585,393.671l-7.862-3.128
			l-8.14,2.631L118.585,393.671z M110.75,389.753l8.11-2.632l-16.088-0.529L110.75,389.753z"/>
		<path d="M119.385,405.784l-24.876,0.428c-1.112,0.021-1.087,1.482-1.087,1.482l-0.351,0.007l-0.088-5.122l0.351-0.006
			c0,0,0.025,1.463,1.137,1.443l24.876-0.429c1.112-0.019,1.087-1.481,1.087-1.481l0.351-0.007l0.088,5.122l-0.352,0.006
			C120.522,407.229,120.497,405.765,119.385,405.784z"/>
		<path d="M110.892,418.552l8.995-0.604c1.11-0.075,1.012-1.535,1.012-1.535l0.35-0.023l0.345,5.11l-0.351,0.023
			c0,0-0.099-1.461-1.208-1.386l-9.959,0.671l-1.809,4.935c0.168,0.312,0.811,0.268,0.811,0.268l0.023,0.352l-2.57,0.174
			l-0.023-0.352c0.438-0.029,0.722-0.166,0.967-0.446l1.813-4.875L95.21,421.81c-1.11,0.075-0.982,1.533-0.982,1.533l-0.379,0.025
			l-0.345-5.111l0.38-0.024c0,0,0.069,1.463,1.179,1.388l15.07-1.016l1.784-4.873c-0.078-0.288-0.349-0.389-0.758-0.359
			l-0.023-0.352l2.541-0.172l0.023,0.352c-0.321,0.021-0.755,0.109-0.975,0.33L110.892,418.552z"/>
		<path d="M121.409,434.408l-24.708,2.932c-1.104,0.131-0.932,1.584-0.932,1.584l-0.349,0.042l-0.604-5.087l0.349-0.042
			c0,0,0.172,1.454,1.277,1.322l24.708-2.932c1.104-0.131,0.932-1.585,0.932-1.585l0.349-0.04l0.604,5.087l-0.349,0.04
			C122.687,435.729,122.514,434.277,121.409,434.408z"/>
		<path d="M125.352,450.502l0.621,3.636l-0.375,0.064c0,0-0.192-1.126-0.973-1.35l-24.868,4.277c-1.096,0.188-0.85,1.63-0.85,1.63
			l-0.346,0.061l-0.862-5.05l0.346-0.061c0,0,0.241,1.414,1.338,1.227l5.776-0.955l8.446-4.8l-9.555-1.692l-5.771,0.984
			c-1.096,0.188-0.85,1.631-0.85,1.631l-0.346,0.06l-0.862-5.05l0.346-0.061c0,0,0.241,1.414,1.338,1.228l24.757-4.229
			c0.778-0.488,0.596-1.557,0.596-1.557l0.375-0.064l0.616,3.607l-8.739,4.818L125.352,450.502z M114.637,448.62l7.418-4.207
			l-15.87,2.711L114.637,448.62z M123.101,450.887l-8.332-1.486l-7.447,4.212L123.101,450.887z"/>
		<path d="M127.048,482.746l-1.664,0.463l-0.79,0.22l-7.96-8.085l-7.332,2.039l6.946,7.062c0.726,0.313,1.822,0.436,2.612,0.216
			l0.094,0.338l-1.692,0.471l-0.79,0.221l-7.96-8.085l-3.863,1.074c-1.072,0.299-0.68,1.707-0.68,1.707l-0.338,0.096l-1.372-4.936
			l0.338-0.095c0,0,0.393,1.41,1.464,1.112l23.969-6.667c1.071-0.299,0.651-1.7,0.651-1.7l0.338-0.094l1.373,4.935l-0.338,0.095
			c0,0-0.364-1.418-1.436-1.12l-11.194,3.113l6.954,7.089c0.726,0.314,1.814,0.407,2.576,0.195L127.048,482.746z"/>
		<path d="M136.117,491.565l1.16,3.47l-0.333,0.11c0,0-0.39-1.166-1.26-1.091l-23.852,7.941c-1.055,0.353-0.591,1.74-0.591,1.74
			l-0.333,0.11l-1.624-4.856l0.333-0.111c0,0,0.464,1.388,1.519,1.035l22.88-7.709l-9.689-0.188l7.648-6.013l-22.926,7.663
			c-1.055,0.353-0.591,1.74-0.591,1.74l-0.333,0.11l-1.624-4.855l0.333-0.111c0,0,0.464,1.389,1.519,1.035l23.833-7.997
			c0.74-0.464,0.351-1.629,0.351-1.629l0.333-0.111l1.16,3.47l-0.306,0.103l-8.009,6.133l10.125,0.104L136.117,491.565z"/>
		<path d="M129.781,504.663l8.389-3.295c1.035-0.406,0.5-1.77,0.5-1.77l0.327-0.128l1.872,4.768l-0.327,0.128
			c0,0-0.535-1.361-1.57-0.955l-9.288,3.646l-0.234,5.248c0.254,0.246,0.853,0.012,0.853,0.012l0.128,0.325l-2.397,0.941
			l-0.128-0.326c0.409-0.161,0.638-0.377,0.787-0.718l0.255-5.193l-13.128,5.155c-1.035,0.406-0.473,1.758-0.473,1.758l-0.354,0.14
			l-1.872-4.768l0.354-0.139c0,0,0.508,1.373,1.543,0.966l14.054-5.519l0.228-5.184c-0.161-0.251-0.449-0.264-0.831-0.114
			l-0.128-0.327l2.37-0.931l0.128,0.327c-0.3,0.118-0.687,0.333-0.83,0.608L129.781,504.663z"/>
		<path d="M144.602,516.591l-22.658,10.272c-1.013,0.459-0.409,1.792-0.409,1.792l-0.32,0.146l-2.115-4.665l0.32-0.146
			c0,0,0.604,1.333,1.618,0.874l22.658-10.272c1.013-0.459,0.409-1.792,0.409-1.792l0.32-0.146l2.115,4.665l-0.32,0.146
			C146.219,517.465,145.615,516.132,144.602,516.591z"/>
		<path d="M126.513,538.833l-0.312,0.162l-2.366-4.576l0.312-0.162c0,0,0.672,1.301,1.66,0.79l22.101-11.427
			c0.962-0.498,0.29-1.798,0.29-1.798l0.312-0.161l1.694,3.275l-0.345,11.25l-2.262,1.171l-0.161-0.313
			c0.728-0.376,1.798-1.556,1.765-2.132l0.276-9.601l-6.734,3.481l-0.345,11.251l-2.288,1.183l-0.161-0.312
			c0.702-0.363,1.811-1.596,1.777-2.172l0.263-9.625l-15.185,7.851c-0.988,0.511-0.302,1.837-0.302,1.837L126.513,538.833z"/>
		<path d="M160.256,543.174l1.859,3.187l-0.329,0.19c0,0-0.575-0.984-1.385-0.92l-21.78,12.744
			c-0.961,0.561-0.223,1.824-0.223,1.824l-0.303,0.178l-2.582-4.425l0.303-0.177c0,0,0.723,1.237,1.684,0.678l5.071-2.926
			l6.221-7.462l-9.541,1.772l-5.057,2.951c-0.961,0.561-0.223,1.824-0.223,1.824l-0.304,0.178l-2.582-4.425l0.304-0.179
			c0,0,0.723,1.239,1.684,0.68l21.693-12.66c0.556-0.731,0.01-1.667,0.01-1.667l0.329-0.191l1.845,3.16l-6.489,7.583
			L160.256,543.174z M149.563,545.178l5.467-6.547l-13.906,8.116L149.563,545.178z M158.284,544.324l-8.323,1.536l-5.492,6.561
			L158.284,544.324z"/>
		<path d="M186.12,579.584l0.92,1.138l-0.273,0.222c0,0-0.92-1.139-1.785-0.438l-19.447,15.692l0.109-0.052
			c-0.865,0.699,0.055,1.838,0.055,1.838l-0.273,0.221l-0.957-1.185l-1.362-1.684l-0.92-1.137l0.273-0.223
			c0,0,0.792,0.979,1.58,0.604l9.942-8.042l-0.014-12.672l10.752,3.985l1.159,1.435L186.12,579.584z M184.062,578.389l-9.31-3.459
			l-0.019,11.004L184.062,578.389z"/>
		<path d="M176.145,609.672l-0.283,0.254l-1.953-2.179l0.303-0.231c0,0,0.469,0.522,0.964,0.551l8.258-7.402l5.515-9.148l0.29-6.821
			l-18.87,16.914c-0.828,0.741,0.151,1.789,0.151,1.789l-0.283,0.255l-3.398-3.791l0.283-0.255c0,0,0.998,1.07,1.783,0.367
			l18.501-16.624c0.828-0.741-0.148-1.831-0.148-1.831l0.261-0.233l2.441,2.724l-0.276,7.714l-5.696,9.43l-8.345,7.479
			C175.696,609.171,176.145,609.672,176.145,609.672z"/>
		<path d="M201.441,598.39l-17.652,17.522c-0.79,0.783,0.241,1.821,0.241,1.821l-0.249,0.248l-3.607-3.636l0.249-0.247
			c0,0,1.031,1.038,1.82,0.255l17.652-17.521c0.789-0.783-0.242-1.821-0.242-1.821l0.249-0.248l3.608,3.636l-0.25,0.247
			C203.261,598.646,202.23,597.606,201.441,598.39z"/>
		<path d="M198.681,631.434l-0.236,0.261l-3.789-3.447l0.236-0.26c0,0,1.083,0.984,1.81,0.143l9.379-10.265l-9.687-2.402
			l10.578-11.627c0.749-0.823-0.354-1.786-0.354-1.786l0.236-0.26l3.789,3.447l-0.236,0.26c0,0-1.063-1.007-1.813-0.184
			l-9.121,10.023l9.707,2.381l-10.834,11.908C197.598,630.449,198.681,631.434,198.681,631.434z"/>
		<path d="M226.675,632.146l5.367-7.241c0.662-0.895-0.514-1.767-0.514-1.767l0.209-0.28l4.115,3.049l-0.209,0.282
			c0,0-1.176-0.871-1.838,0.021l-5.942,8.019l2.584,4.574c0.346,0.073,0.729-0.442,0.729-0.442l0.282,0.209l-1.534,2.068
			l-0.282-0.209c0.261-0.354,0.341-0.658,0.287-1.025l-2.537-4.539l-8.399,11.333c-0.662,0.894,0.531,1.74,0.531,1.74l-0.227,0.307
			l-4.115-3.049l0.226-0.307c0,0,1.159,0.896,1.821,0.001l8.991-12.133l-2.554-4.517c-0.27-0.127-0.521,0.015-0.765,0.345
			l-0.282-0.21l1.516-2.045l0.282,0.209c-0.192,0.259-0.406,0.646-0.381,0.956L226.675,632.146z"/>
		<path d="M235.186,646.669l1.403-8.451l9.668-5.66l-1.442,9.094l-7.835,4.595l-1.885,12.03c0.203,0.486,0.691,0.812,0.691,0.812
			l-0.211,0.316l-3.363-2.236l0.211-0.315c0,0,0.512,0.34,1.039,0.34l1.612-9.823l-8.679,5.229c0.139,0.584,0.861,0.818,0.861,0.818
			l-0.21,0.316l-2.437-1.62l0.235-0.301c0,0,0.447,0.331,0.958,0.355L235.186,646.669z M243.095,642.123l1.281-7.794l-5.961,3.521
			l-1.249,7.745L243.095,642.123z"/>
		<path d="M249.52,667.357l-0.179,0.302l-4.403-2.614l0.179-0.302c0,0,1.258,0.747,1.8-0.225l7.121-11.938l-9.969-0.405
			l8.022-13.512c0.568-0.956-0.705-1.678-0.705-1.678l0.179-0.303l4.403,2.614l-0.179,0.302c0,0-1.243-0.771-1.811,0.185
			l-6.917,11.649l9.983,0.381l-8.216,13.839C248.262,666.61,249.52,667.357,249.52,667.357z"/>
		<path d="M270.002,647.183l2.761,8.893l-0.682,1.295l-2.306-7.43l-11.078,21.052c-0.519,0.982,0.803,1.679,0.803,1.679
			l-0.164,0.312l-4.557-2.397l0.164-0.312c0,0,1.294,0.682,1.813-0.304l11.01-20.922l-7.676,2.838l0.681-1.295L270.002,647.183z"/>
		<path d="M277.577,681.337l-0.147,0.318l-0.982-0.454l-1.028-17.791l9.658-2.338l-5.607-8.235l-10.724,23.191
			c-0.467,1.01,0.862,1.624,0.862,1.624l-0.147,0.317l-1.328-0.613l-1.993-0.922l-1.328-0.613l0.147-0.319
			c0,0,1.275,0.59,1.771-0.342l10.55-22.885c0.17-0.856-0.946-1.373-0.946-1.373l0.146-0.318l1.303,0.602l1.966,0.909l0.092,0.012
			l6.483,9.479l-10.153,2.432l0.816,16.437C277.111,681.089,277.338,681.227,277.577,681.337z"/>
		<path d="M292.154,687.213l-0.143,0.354l-2.716-1.091l0.169-0.342c0,0,0.652,0.263,1.108,0.066l4.129-10.294l0.896-10.646
			l-2.76-6.247l-9.435,23.521c-0.414,1.032,0.928,1.538,0.928,1.538l-0.143,0.354l-4.726-1.896l0.142-0.354
			c0,0,1.369,0.519,1.762-0.46l9.232-23.098c0.414-1.032-0.943-1.577-0.943-1.577l0.13-0.325l3.395,1.361l3.167,7.041l-0.935,10.976
			l-4.172,10.402C291.529,686.963,292.154,687.213,292.154,687.213z"/>
		<path d="M312.371,665.203l3.489,1.195l-0.114,0.333c0,0-1.413-0.484-1.773,0.567l-8.066,23.54
			c-0.361,1.053,1.052,1.536,1.052,1.536l-0.114,0.333l-3.489-1.196l0.932-12.833l-7.136,10.707l-3.489-1.194l0.114-0.333
			c0,0,1.385,0.475,1.745-0.577l8.066-23.541c0.352-1.024-1.023-1.526-1.023-1.526l0.113-0.333l3.49,1.196l-0.979,12.972
			L312.371,665.203z M304.4,677.264l0.79-11.334l-7.166,20.909L304.4,677.264z M304.19,689.076l7.203-21.021l-6.301,9.445
			L304.19,689.076z"/>
		<path d="M339.568,672.686l3.563,0.828l-0.08,0.343c0,0-1.196-0.278-1.588,0.502l-5.717,24.478
			c-0.251,1.083,1.173,1.415,1.173,1.415l-0.079,0.342l-4.988-1.159l0.08-0.342c0,0,1.425,0.331,1.677-0.752l5.406-23.528
			l-5.229,8.157l-1.12-9.663l-5.47,23.544c-0.253,1.083,1.173,1.414,1.173,1.414l-0.08,0.342l-4.988-1.157l0.079-0.344
			c0,0,1.425,0.332,1.677-0.752l5.66-24.489c-0.007-0.873-1.205-1.151-1.205-1.151l0.08-0.342l3.563,0.827l-0.073,0.313
			l1.033,10.034l5.387-8.572L339.568,672.686z"/>
		<path d="M349.683,684.629l5.693-8.913l1.44,0.258l-0.091,0.341c0,0-0.484-0.116-0.957,0.036l-6.399,10.035l-2.597,14.549
			c-0.195,1.096,1.273,1.356,1.273,1.356l-0.062,0.346l-5.07-0.903l0.062-0.347c0,0,1.44,0.257,1.637-0.838L347.208,686
			l-2.484-11.561c-0.386-0.337-0.938-0.405-0.938-0.405l0.066-0.375l1.44,0.257l2.234,10.298l1.46-8.182
			c0.194-1.096-1.25-1.322-1.25-1.322l0.062-0.346l5.042,0.898l-0.062,0.347c0,0-1.437-0.286-1.632,0.809l-1.459,8.182
			L349.683,684.629z"/>
		<path d="M367.693,677.382l3.63,0.458l-0.044,0.35c0,0-1.221-0.153-1.529,0.663l-3.175,24.938
			c-0.139,1.104,1.313,1.286,1.313,1.286l-0.044,0.349l-5.082-0.641l0.044-0.349c0,0,1.452,0.183,1.592-0.922l2.963-23.963
			l-4.366,8.653l-2.106-9.499l-3.024,23.985c-0.14,1.104,1.313,1.286,1.313,1.286l-0.044,0.349l-5.082-0.642l0.044-0.349
			c0,0,1.452,0.183,1.591-0.921l3.117-24.946c-0.097-0.868-1.316-1.021-1.316-1.021l0.044-0.35l3.63,0.458l-0.041,0.319l2.059,9.876
			l4.479-9.081L367.693,677.382z"/>
		<path d="M383.512,706.303l-0.025,0.352l-1.08-0.081l-7.206-16.301l8.225-5.579l-8.142-5.745l-1.905,25.481
			c-0.083,1.109,1.376,1.22,1.376,1.22L374.728,706l-1.459-0.109l-2.188-0.164l-1.459-0.107l0.026-0.352c0,0,1.4,0.104,1.537-0.94
			l1.85-25.136c-0.141-0.861-1.367-0.953-1.367-0.953l0.026-0.352l1.431,0.107l2.16,0.161l0.089-0.022l9.397,6.604l-8.654,5.84
			l6.531,15.106C382.989,706.234,383.25,706.283,383.512,706.303z"/>
		<path d="M390.397,706.874l-5.122-0.123l0.009-0.38c0,0,1.463,0.035,1.49-1.077l0.596-24.848c0.025-1.111-1.438-1.146-1.438-1.146
			l0.008-0.352l5.123,0.123l-0.009,0.351c0,0-1.463-0.034-1.489,1.077l-0.336,13.96l9.566,12.616l-2.546-0.062l0.009-0.381
			c0.293,0.009,0.967,0.023,0.979-0.474l-8.034-10.561l-0.233,9.746c-0.026,1.112,1.438,1.147,1.438,1.147L390.397,706.874z"/>
		<path d="M408.328,680.562l0.647,24.863c0.029,1.112,1.492,1.073,1.492,1.073l0.01,0.352l-5.119,0.135l-0.01-0.353
			c0,0,1.463-0.038,1.435-1.148l-0.648-24.863c-0.028-1.111-1.491-1.073-1.491-1.073l-0.01-0.352l5.119-0.134l0.009,0.352
			C409.762,679.412,408.3,679.45,408.328,680.562z"/>
		<path d="M421.455,678.396l7.069,6.066l0.11,1.46l-5.905-5.069l1.812,23.731c0.084,1.109,1.573,0.996,1.573,0.996l0.025,0.351
			l-5.138,0.393l-0.026-0.352c0,0,1.459-0.11,1.375-1.22l-1.801-23.586l-4.995,6.488l-0.11-1.46L421.455,678.396z"/>
		<path d="M437.353,704.39l0.045,0.35l-5.11,0.654l-0.045-0.349c0,0,1.452-0.186,1.311-1.289l-3.165-24.682
			c-0.138-1.075-1.59-0.89-1.59-0.89l-0.044-0.349l3.658-0.469l10.453,4.179l0.323,2.526l-0.349,0.045
			c-0.104-0.813-0.846-2.224-1.397-2.389l-8.927-3.55l0.964,7.521l10.453,4.179l0.328,2.557l-0.349,0.044
			c-0.101-0.783-0.879-2.248-1.433-2.413l-8.953-3.545l2.174,16.958c0.142,1.104,1.622,0.913,1.622,0.913L437.353,704.39z"/>
		<path d="M449.765,674.788l7.652,5.312l0.261,1.44l-6.395-4.438l4.229,23.421c0.197,1.095,1.667,0.83,1.667,0.83l0.063,0.346
			l-5.07,0.915l-0.063-0.346c0,0,1.439-0.261,1.242-1.354l-4.205-23.277l-4.305,6.966l-0.26-1.44L449.765,674.788z"/>
		<path d="M465.149,673.081l5.668,24.228c0.253,1.083,1.679,0.75,1.679,0.75l0.079,0.343l-4.987,1.167l-0.08-0.343
			c0,0,1.425-0.333,1.172-1.417l-5.668-24.228c-0.254-1.083-1.679-0.75-1.679-0.75l-0.08-0.342l4.988-1.167l0.08,0.342
			C466.321,671.664,464.896,671.998,465.149,673.081z"/>
		<path d="M481.63,685.256l-5.546-6.532l1.927-11.041l6.01,6.979l-1.556,8.952l7.968,9.215c0.504,0.159,1.065-0.003,1.065-0.003
			l0.104,0.365l-3.881,1.123l-0.104-0.366c0,0,0.591-0.171,0.931-0.574l-6.458-7.579l-1.616,10.006
			c0.536,0.271,1.183-0.128,1.183-0.128l0.104,0.365l-2.812,0.813l-0.078-0.374c0,0,0.543-0.126,0.892-0.501L481.63,685.256z
			 M483.271,676.279l-5.123-6.017l-1.163,6.828l5.104,5.959L483.271,676.279z"/>
		<path d="M493.537,674.265l-2.947-8.521c-0.362-1.052-1.746-0.573-1.746-0.573l-0.114-0.332l4.842-1.674l0.113,0.331
			c0,0-1.383,0.479-1.02,1.53l3.263,9.434l5.235,0.45c0.256-0.243,0.046-0.854,0.046-0.854l0.332-0.113l0.842,2.435l-0.332,0.114
			c-0.144-0.415-0.35-0.653-0.685-0.816l-5.182-0.469l4.611,13.334c0.364,1.051,1.737,0.545,1.737,0.545l0.125,0.359l-4.842,1.675
			l-0.124-0.36c0,0,1.393-0.45,1.028-1.502l-4.937-14.273l-5.171-0.441c-0.259,0.15-0.282,0.438-0.148,0.825l-0.332,0.115
			l-0.832-2.407l0.332-0.115c0.105,0.306,0.304,0.7,0.574,0.854L493.537,674.265z"/>
		<path d="M535.157,675.403l0.16,0.345l-2.655,1.233l-0.134-0.357c0,0,0.638-0.296,0.808-0.763l-4.672-10.063l-7.146-7.947
			l-6.442-2.269l10.677,22.993c0.469,1.009,1.758,0.378,1.758,0.378l0.16,0.345l-4.62,2.146l-0.16-0.346c0,0,1.315-0.644,0.871-1.6
			l-10.506-22.555c-0.469-1.01-1.796-0.394-1.796-0.394l-0.148-0.317l3.319-1.542l7.301,2.517l7.358,8.202l4.723,10.169
			C534.546,675.687,535.157,675.403,535.157,675.403z"/>
		<path d="M541.447,672.539l-4.528,2.393l-0.164-0.311c0,0,1.294-0.685,0.774-1.667l-11.621-21.997
			c-0.521-0.983-1.8-0.273-1.8-0.273l-0.164-0.311l3.234-1.709l11.277,0.231l1.025,1.939l-0.31,0.165
			c-0.424-0.802-1.197-1.452-2.009-1.421l-9.573-0.141l11.881,22.489c0.521,0.983,1.813,0.3,1.813,0.3L541.447,672.539z"/>
		<path d="M555.168,664.95l-4.399,2.622l-0.181-0.302c0,0,1.257-0.75,0.688-1.704l-12.736-21.375
			c-0.569-0.955-1.813-0.182-1.813-0.182l-0.18-0.302l3.145-1.873l11.275-0.348l1.123,1.886l-0.302,0.18
			c-0.464-0.778-1.271-1.389-2.079-1.315l-9.569,0.353l13.021,21.854c0.569,0.955,1.826,0.206,1.826,0.206L555.168,664.95z"/>
		<path d="M568.328,656.354l0.194,0.291l-4.285,2.86l-0.195-0.292c0,0,1.218-0.813,0.6-1.738l-13.813-20.699
			c-0.602-0.901-1.819-0.088-1.819-0.088l-0.193-0.294l3.067-2.047l11.223-0.905l1.412,2.117l-0.291,0.195
			c-0.455-0.682-1.746-1.615-2.314-1.518l-9.573,0.792l4.209,6.308l11.222-0.906l1.431,2.144l-0.292,0.194
			c-0.439-0.656-1.787-1.623-2.355-1.524l-9.598,0.808l9.49,14.223c0.617,0.926,1.858,0.098,1.858,0.098L568.328,656.354z"/>
		<path d="M568.896,622.338l2.959-2.201l0.228,0.306c0,0-0.916,0.682-0.761,1.479l15.084,20.225
			c0.664,0.894,1.838,0.021,1.838,0.021l0.21,0.281l-4.109,3.058l-0.21-0.282c0,0,1.15-0.854,0.486-1.748l-3.471-4.714l-8.104-5.353
			l2.821,9.283l3.494,4.696c0.664,0.893,1.838,0.02,1.838,0.02l0.21,0.281l-4.11,3.058l-0.209-0.281c0,0,1.15-0.855,0.486-1.749
			l-14.99-20.147c-0.788-0.473-1.657,0.175-1.657,0.175l-0.228-0.305l2.936-2.186l8.256,5.605L568.896,622.338z M572.075,632.741
			l-7.112-4.705l9.609,12.916L572.075,632.741z M570.258,624.17l2.451,8.1l7.129,4.729L570.258,624.17z"/>
		<path d="M593.824,638.124l-3.95,3.26l-0.242-0.293c0,0,1.129-0.932,0.421-1.789l-15.816-19.16
			c-0.708-0.856-1.837,0.074-1.837,0.074l-0.225-0.271l3.949-3.261l0.224,0.271c0,0-1.128,0.932-0.42,1.789l8.888,10.765
			l15.485,3.269l-1.964,1.621l-0.242-0.293c0.227-0.188,0.745-0.615,0.43-1l-12.982-2.716l6.204,7.516
			c0.708,0.856,1.836-0.074,1.836-0.074L593.824,638.124z"/>
		<path d="M599.49,619.529l-7.866-3.395l-3.171-10.747l8.479,3.587l2.576,8.711l11.227,4.725c0.521-0.081,0.953-0.477,0.953-0.477
			l0.258,0.28l-2.979,2.728l-0.257-0.28c0,0,0.453-0.415,0.58-0.928l-9.148-3.928l2.989,9.684c0.601,0.006,1.002-0.64,1.002-0.64
			l0.257,0.28l-2.158,1.977l-0.235-0.301c0,0,0.43-0.354,0.576-0.845L599.49,619.529z M596.979,610.759l-7.259-3.118l1.985,6.636
			l7.218,3.073L596.979,610.759z"/>
		<path d="M627.626,605.994l-3.412,3.817l-0.262-0.233c0,0,0.975-1.091,0.146-1.832l-18.547-16.575
			c-0.829-0.741-1.782,0.369-1.782,0.369l-0.263-0.234l2.438-2.728l10.65-3.706l1.637,1.462l-0.233,0.262
			c-0.676-0.604-1.628-0.943-2.377-0.633l-9.022,3.2l18.963,16.946c0.828,0.74,1.804-0.351,1.804-0.351L627.626,605.994z"/>
		<path d="M637.604,593.856l0.272,0.221l-3.233,4.01l-0.272-0.221c0,0,0.919-1.139,0.053-1.837l-19.362-15.616
			c-0.845-0.68-1.763,0.46-1.763,0.46l-0.272-0.221l2.313-2.87l10.435-4.22l1.98,1.599l-0.221,0.273
			c-0.639-0.516-2.148-1.02-2.661-0.757l-8.896,3.617l5.899,4.759l10.435-4.22l2.005,1.617l-0.222,0.272
			c-0.614-0.495-2.189-1.015-2.703-0.75l-8.912,3.64l13.305,10.729c0.865,0.697,1.802-0.464,1.802-0.464L637.604,593.856z"/>
		<path d="M644.498,585.853l-0.284-0.205c0,0,0.859-1.186-0.041-1.839l-20.143-14.604c-0.877-0.636-1.76,0.532-1.76,0.532
			l-0.284-0.206l2.146-2.962l10.256-4.82l0.688,0.498l0.313,12.482l10.255-4.819l0.688,0.498l0.313,12.482L644.498,585.853z
			 M634.75,574.266l-0.359-11.722l-9.593,4.505L634.75,574.266z M646.054,582.461l-0.365-11.763l-9.635,4.512L646.054,582.461z"/>
		<path d="M648.349,562.273l-8.466-1.316l-5.76-9.613l9.108,1.352l4.675,7.79l12.052,1.764c0.484-0.208,0.805-0.698,0.805-0.698
			l0.318,0.207l-2.202,3.386l-0.319-0.207c0,0,0.336-0.516,0.329-1.043l-9.841-1.513l5.318,8.627c0.583-0.145,0.81-0.87,0.81-0.87
			l0.319,0.208l-1.598,2.453l-0.303-0.23c0,0,0.328-0.45,0.348-0.962L648.349,562.273z M643.722,554.41l-7.808-1.202l3.582,5.927
			l7.759,1.171L643.722,554.41z"/>
		<path d="M668.877,547.75l0.304,0.176l-0.543,0.938l-17.807-0.617l-1.438-9.831l-8.717,4.823l22.101,12.813
			c0.962,0.56,1.695-0.708,1.695-0.708l0.305,0.178l-0.734,1.266l-1.101,1.897l-0.734,1.267l-0.304-0.176
			c0,0,0.704-1.216-0.178-1.794l-21.811-12.613c-0.837-0.249-1.453,0.813-1.453,0.813l-0.304-0.177l0.719-1.24l1.086-1.873
			l0.02-0.091l10.034-5.58l1.484,10.332l16.438,0.703C668.588,548.19,668.745,547.978,668.877,547.75z"/>
		<path d="M650.297,527.168l22.127,11.361c0.989,0.508,1.657-0.794,1.657-0.794l0.313,0.161l-2.339,4.555l-0.313-0.16
			c0,0,0.668-1.302-0.32-1.81l-22.127-11.361c-0.989-0.508-1.658,0.794-1.658,0.794l-0.312-0.161l2.339-4.555l0.313,0.16
			C649.978,525.358,649.308,526.66,650.297,527.168z"/>
		<path d="M682.578,519.536l0.319,0.145l-2.102,4.67l-0.32-0.144c0,0,0.602-1.335-0.425-1.765l-12.665-5.73l0.722,9.951
			l-14.331-6.448c-1.016-0.456-1.588,0.891-1.588,0.891l-0.32-0.145l2.102-4.671l0.32,0.145c0,0-0.627,1.322,0.387,1.778
			l12.356,5.562l-0.747-9.965l14.678,6.604C681.979,520.871,682.578,519.536,682.578,519.536z"/>
		<path d="M674.554,492.691L666,489.848c-1.055-0.351-1.517,1.038-1.517,1.038l-0.334-0.11l1.615-4.859l0.333,0.11
			c0,0-0.461,1.389,0.595,1.738l9.471,3.148l3.541-3.881c-0.037-0.353-0.648-0.556-0.648-0.556l0.11-0.333l2.444,0.813l-0.111,0.333
			c-0.416-0.139-0.73-0.12-1.063,0.047l-3.522,3.825l13.386,4.449c1.056,0.352,1.489-1.048,1.489-1.048l0.361,0.12l-1.616,4.86
			l-0.36-0.12c0,0,0.489-1.38-0.566-1.729l-14.33-4.765l-3.493,3.835c-0.037,0.296,0.176,0.49,0.563,0.619l-0.109,0.333
			l-2.416-0.803l0.109-0.333c0.307,0.102,0.74,0.185,1.027,0.063L674.554,492.691z"/>
		<path d="M670.812,474.05l23.981,6.628c1.072,0.296,1.462-1.114,1.462-1.114l0.338,0.094l-1.363,4.938l-0.339-0.094
			c0,0,0.391-1.41-0.683-1.707l-23.98-6.627c-1.072-0.297-1.463,1.114-1.463,1.114l-0.339-0.095l1.364-4.938l0.339,0.094
			C670.129,472.343,669.739,473.753,670.812,474.05z"/>
		<path d="M700.874,460.013l0.343,0.076l-1.107,5.001l-0.343-0.076c0,0,0.316-1.429-0.775-1.641l-13.569-3.037l2.73,9.601
			l-15.349-3.4c-1.086-0.24-1.374,1.195-1.374,1.195l-0.343-0.076l1.107-5.001l0.344,0.075c0,0-0.346,1.423,0.741,1.664
			l13.231,2.932l-2.759-9.606l15.719,3.483C700.558,461.441,700.874,460.013,700.874,460.013z"/>
		<path d="M676.923,446.007l24.539,4.125c1.097,0.186,1.34-1.259,1.34-1.259l0.346,0.058l-0.849,5.054l-0.347-0.06
			c0,0,0.243-1.442-0.854-1.628l-24.538-4.124c-1.098-0.185-1.341,1.259-1.341,1.259l-0.346-0.059l0.849-5.052l0.348,0.059
			C676.068,444.38,675.825,445.823,676.923,446.007z"/>
		<path d="M706.411,413.681l0.38,0.025l-0.192,2.92l-0.378-0.054c0,0,0.048-0.701-0.28-1.075l-11.068-0.729l-10.398,2.454
			l-5.082,4.564l25.293,1.664c1.109,0.073,1.175-1.359,1.175-1.359l0.38,0.025l-0.334,5.081l-0.38-0.024
			c0,0,0.065-1.463-0.984-1.532l-24.827-1.604c-1.109-0.073-1.206,1.387-1.206,1.387l-0.35-0.021l0.239-3.65l5.711-5.197
			l10.725-2.521l11.188,0.736C706.367,414.353,706.411,413.681,706.411,413.681z"/>
		<path d="M679.174,404.592l6.691-6.479l1.463,0.023l-5.591,5.413l23.793,0.385c1.111,0.019,1.137-1.475,1.137-1.475l0.352,0.005
			l-0.084,5.151l-0.351-0.006c0,0,0.023-1.463-1.089-1.481l-23.646-0.382l5.998,5.571l-1.463-0.023L679.174,404.592z"/>
		<path d="M705.713,375.96l0.351-0.029l0.433,5.133l-0.351,0.029c0,0-0.122-1.458-1.229-1.365l-24.786,2.089
			c-1.079,0.091-0.956,1.549-0.956,1.549l-0.35,0.03l-0.31-3.675l4.627-10.257l2.536-0.214l0.029,0.35
			c-0.815,0.069-2.257,0.748-2.445,1.292l-3.932,8.76l7.553-0.637l4.627-10.257l2.566-0.216l0.028,0.35
			c-0.786,0.066-2.283,0.78-2.473,1.324l-3.929,8.789l17.028-1.435c1.107-0.095,0.982-1.581,0.982-1.581L705.713,375.96z"/>
		<path d="M704.458,360.354l0.688,5.076l-0.348,0.047c0,0-0.197-1.45-1.299-1.3l-24.656,3.347c-1.103,0.148-0.876,1.596-0.876,1.596
			l-0.349,0.047l-0.492-3.626l4.098-10.511l2.177-0.295l0.047,0.348c-0.899,0.122-1.776,0.625-2.025,1.397l-3.425,8.943L703.204,362
			c1.103-0.149,0.905-1.6,0.905-1.6L704.458,360.354z"/>
		<path d="M675.653,346.835l24.447-4.604c1.094-0.206,0.822-1.644,0.822-1.644l0.346-0.065l0.947,5.034l-0.345,0.065
			c0,0-0.271-1.438-1.364-1.232l-24.447,4.604c-1.094,0.206-0.822,1.644-0.822,1.644l-0.346,0.065l-0.947-5.034l0.345-0.065
			C674.289,345.603,674.562,347.041,675.653,346.835z"/>
		<path d="M670.132,328.84l-0.345-1.422l0.342-0.083c0,0,0.344,1.599,1.425,1.337L695.851,323h-0.121c1.082-1,0.737-1.86,0.737-1.86
			l0.341-0.171l0.357,1.436l0.51,2.083l0.344,1.411l-0.341,0.077c0,0-0.296-1.225-1.169-1.225l-12.43,3.006l-5.417,11.456
			l-8.008-8.208l-0.435-1.792L670.132,328.84z M671.479,330.802l6.93,7.115l4.73-9.936L671.479,330.802z"/>
		<path d="M692.021,305.942l0.365-0.108l0.834,2.806l-0.373,0.081c0,0-0.199-0.673-0.637-0.91l-10.635,3.164l-8.9,5.916
			l-3.181,6.046l24.301-7.228c1.065-0.317,0.63-1.684,0.63-1.684l0.364-0.108l1.452,4.882l-0.364,0.108c0,0-0.445-1.396-1.456-1.094
			l-23.843,7.123c-1.066,0.317-0.649,1.72-0.649,1.72l-0.337,0.1l-1.043-3.508l3.549-6.859l9.186-6.091l10.747-3.197
			C692.213,306.587,692.021,305.942,692.021,305.942z"/>
		<path d="M664.32,305.34l23.45-8.313c1.048-0.372,0.559-1.751,0.559-1.751l0.331-0.118l1.712,4.828l-0.331,0.117
			c0,0-0.489-1.379-1.537-1.008l-23.45,8.314c-1.048,0.372-0.559,1.751-0.559,1.751l-0.331,0.117l-1.712-4.828l0.331-0.117
			C662.783,304.333,663.272,305.712,664.32,305.34z"/>
		<path d="M656.101,288.459l-0.56-1.353l0.325-0.134c0,0,0.559,1.353,1.587,0.928l7.438-3.076l-2.873,11.896l21.398-8.847
			l-10.396-6.377l7.438-3.076c1.028-0.425,0.469-1.777,0.469-1.777l0.325-0.134l1.957,4.734l-0.324,0.134
			c0,0-0.56-1.353-1.588-0.928l-5.41,2.237l10.545,6.348l-25.025,10.346l-0.676,0.28l2.981-11.94l-6.764,2.796l-0.839-2.029
			L656.101,288.459z"/>
		<path d="M644.589,265.175l-1.734-3.221l0.311-0.167c0,0,0.582,1.083,1.427,0.86l22.152-11.889
			c0.979-0.527,0.286-1.815,0.286-1.815l0.309-0.167l2.428,4.51l-0.31,0.167c0,0-0.693-1.289-1.673-0.761l-21.234,11.494
			l9.581-1.467l-6.514,7.228l21.288-11.457c0.979-0.527,0.286-1.815,0.286-1.815l0.309-0.167l2.428,4.51l-0.31,0.167
			c0,0-0.693-1.289-1.673-0.762l-22.124,11.94c-0.65,0.583-0.068,1.665-0.068,1.665l-0.309,0.167l-1.734-3.222l0.284-0.152
			l6.848-7.408l-9.994,1.623L644.589,265.175z"/>
		<path d="M646.866,249.667l-10.451,1.613l-0.759-1.251l0.314-0.157c0,0,0.233,0.44,0.661,0.694l11.76-1.824l12.639-7.659
			c0.95-0.576,0.177-1.853,0.177-1.853l0.301-0.182l2.669,4.404l-0.3,0.182c0,0-0.759-1.251-1.709-0.675l-12.638,7.659l-7.039,9.501
			c0.003,0.512,0.314,0.972,0.314,0.972l-0.324,0.197l-0.758-1.251l6.255-8.479l-7.106,4.308c-0.951,0.576-0.168,1.813-0.168,1.813
			l-0.3,0.182l-2.654-4.379l0.3-0.182c0,0,0.733,1.266,1.686,0.69l7.105-4.308L646.866,249.667z"/>
		<path d="M621.294,229.681l-2.201-2.922l0.28-0.211c0,0,0.739,0.982,1.541,0.635l20.098-15.103c0.89-0.669,0.009-1.838,0.009-1.838
			l0.279-0.211l3.082,4.091l-0.279,0.211c0,0-0.882-1.168-1.771-0.5l-19.25,14.574l9.248-2.899l-5.345,8.129l19.309-14.544
			c0.889-0.669,0.008-1.838,0.008-1.838l0.281-0.211l3.081,4.091l-0.28,0.211c0,0-0.881-1.169-1.769-0.5l-20.063,15.149
			c-0.554,0.674,0.187,1.656,0.187,1.656l-0.28,0.211l-2.201-2.922l0.257-0.194l5.648-8.358l-9.634,3.117L621.294,229.681z"/>
		<path d="M636.589,204.908l0.27-0.226l3.307,3.951l-0.27,0.225c0,0-0.939-1.122-1.793-0.408l-19.078,15.966
			c-0.83,0.695,0.107,1.817,0.107,1.817l-0.27,0.225l-2.366-2.828l-2.114-11.054l1.953-1.634l0.226,0.27
			c-0.629,0.526-1.417,1.91-1.258,2.465l1.821,9.428l5.813-4.865l-2.112-11.054l1.975-1.653l0.226,0.27
			c-0.604,0.507-1.42,1.952-1.262,2.506l1.841,9.451l13.108-10.97c0.854-0.714-0.104-1.858-0.104-1.858L636.589,204.908z"/>
	</g>
</g>
</svg>
